<svg xmlns="http://www.w3.org/2000/svg" viewBox="0 0 750 500" style="enable-background:new 0 0 750 500" xml:space="preserve"><path style="fill:#fff" d="M0 0h750v500H0z"/><path style="fill:#d9e0f2" d="M252.788 103.871s75.539-58.301 143.977-22.06c78.304 41.465 61.809 82.299 122.13 84.664 83.173 3.262 123.156 50.586 125.456 120.05 3.194 96.46-83.975 127.454-219.825 124.983-135.85-2.471-250.964 17.413-300.212-29.067S88.5 257.788 148.536 239.256s44.473-94.841 104.252-135.385z"/><path style="fill:#32428e" d="M256.442 125.462h238.576V433.6H256.442z"/><path style="fill:#88a0d2" d="M269.72 139.967h212.019v279.128H269.72z"/><text transform="translate(308.406 181.087)" style="fill:#fff;font-family:'Gilroy-ExtraBold';font-size:33.7px">ISO</text><text transform="translate(368.814 181.087)" style="fill:#fff;font-family:'Gilroy-ExtraBold';font-size:33.7px">9001</text><path style="fill:#fff" d="M455.978 205.167H295.482a2.406 2.406 0 0 1-2.399-2.399v-.273c0-1.32 1.08-2.399 2.399-2.399h160.496c1.32 0 2.399 1.08 2.399 2.399v.273a2.405 2.405 0 0 1-2.399 2.399zM455.978 229.538H295.482a2.406 2.406 0 0 1-2.399-2.399v-.273c0-1.32 1.08-2.399 2.399-2.399h160.496c1.32 0 2.399 1.08 2.399 2.399v.273a2.405 2.405 0 0 1-2.399 2.399zM455.978 217.099H295.482a2.406 2.406 0 0 1-2.399-2.399v-.273c0-1.32 1.08-2.399 2.399-2.399h160.496c1.32 0 2.399 1.08 2.399 2.399v.273a2.405 2.405 0 0 1-2.399 2.399zM455.978 251.243H295.482a2.406 2.406 0 0 1-2.399-2.399v-.273c0-1.32 1.08-2.399 2.399-2.399h160.496c1.32 0 2.399 1.08 2.399 2.399v.273a2.405 2.405 0 0 1-2.399 2.399zM455.978 275.614H295.482a2.406 2.406 0 0 1-2.399-2.399v-.273c0-1.32 1.08-2.399 2.399-2.399h160.496c1.32 0 2.399 1.08 2.399 2.399v.273a2.405 2.405 0 0 1-2.399 2.399zM455.978 263.175H295.482a2.406 2.406 0 0 1-2.399-2.399v-.273c0-1.32 1.08-2.399 2.399-2.399h160.496c1.32 0 2.399 1.08 2.399 2.399v.273a2.405 2.405 0 0 1-2.399 2.399z"/><path style="fill:#526db0" d="M269.72 419.095h212.02v-33.691s-49.086 9.296-77.548.533-73.105-76.06-134.471-87.057v120.215z"/><path style="fill:#fff" d="M428.283 343.37c-2.921-1.168-7.632-2.1-12.275-2.392a41.78 41.78 0 0 0-3.88-8.955c4.893-5.363 9.704-12.16 8.805-15.305-1.68-5.878-7.557-12.595-14.905-9.446-3.243 1.39-7.874 4.581-11.623 8.126a41.683 41.683 0 0 0-7.817-2.951c-.433-6.912-1.839-14.286-4.532-15.783-5.344-2.969-14.25-3.563-17.219 3.859-1.201 3.002-2.149 7.895-2.41 12.661a41.74 41.74 0 0 0-5.208 2.129c-5.427-5.032-12.535-10.145-15.769-9.221-5.878 1.68-12.595 7.557-9.447 14.905 1.297 3.028 4.17 7.252 7.43 10.851a41.815 41.815 0 0 0-3.992 9.168c-7.01.404-14.602 1.807-16.124 4.547-2.969 5.344-3.563 14.25 3.859 17.219 2.921 1.169 7.63 2.095 12.273 2.384a41.795 41.795 0 0 0 2.682 6.744c-4.444 5.109-8.43 11.076-7.605 13.962 1.68 5.878 7.557 12.595 14.905 9.446 2.55-1.093 5.951-3.304 9.114-5.92a41.772 41.772 0 0 0 7.914 3.581c.377 7.115 1.781 14.96 4.569 16.509 5.344 2.969 14.25 3.563 17.219-3.86 1.139-2.848 2.044-7.399 2.36-11.929a41.781 41.781 0 0 0 10.498-4.412c5.002 4.279 10.699 8.009 13.498 7.209 5.878-1.68 12.595-7.557 9.447-14.905-1.186-2.768-3.695-6.534-6.605-9.913a41.683 41.683 0 0 0 2.574-6.545c7.01-.406 14.603-1.808 16.124-4.546 2.968-5.342 3.562-14.248-3.86-17.217zm-52.553 40.182c-16.832 0-30.477-13.645-30.477-30.477s13.645-30.477 30.477-30.477 30.477 13.645 30.477 30.477-13.645 30.477-30.477 30.477z"/><circle style="fill:#fff" cx="375.73" cy="353.997" r="20.743"/><path style="fill:#ce5f8c" d="m373.39 368.272-24.608-24.607 9.899-9.9 14.709 14.709 29.697-29.699 9.901 9.901z"/><path style="fill:#526db0" d="M140.885 355.663s-5.639-15.321 8.178-34.452c7.236-10.018 27.839-19.542 34.383-15.294s-7.257 5.99-11.704 22.027-28.067 34.095-30.857 27.719zM133.018 378.452s.972-24.757-19.841-36.053c-17.729-9.621-41.262-3.56-39.355 0 4.828 9.009 21.177 5.425 29.521 14.448 8.344 9.023 25.786 32.845 29.675 21.605z"/><path style="fill:#526db0" d="M136.413 359.794s10.278-26.918-5.267-55.388c-8.669-15.877-37.081-31.151-37.173-22.075s14.47 17.951 18.387 33.594c3.918 15.643 23.199 53.267 24.053 43.869z"/><path style="fill:#fff" d="m138.095 391.879-.86-.033c.58-18.484 3.72-44.074 15.379-61.013 7.018-10.197 13.714-12.383 13.995-12.472l.236.91c-.267.085-26.76 9.177-28.75 72.608z"/><path style="fill:#526db0" d="M144.887 375.58s-1.238-14.781 15.485-28.2c8.757-7.027 29.103-10.392 33.809-5.091 4.706 5.301-7.803 3.494-15.571 16.466-7.768 12.972-32.819 23.084-33.723 16.825z"/><path style="fill:#fff" d="m135.931 398.522-.746-.234c4.564-14.566 12.928-34.168 26.857-44.828 8.384-6.418 14.729-6.54 14.994-6.542l.007.781c-.253.003-25.451.838-41.112 50.823zM136.824 392.176l-.86-.009c.788-84.514-23.503-95.049-23.748-95.146l.289-.891c.26.103 6.439 2.657 12.556 15.843 10.137 21.857 11.992 55.679 11.763 80.203z"/><path style="fill:#fff" d="M135.98 399.131c-1.325-37.972-23.848-44.957-24.075-45.023l.239-.826c.233.067 23.348 7.186 24.696 45.819l-.86.03z"/><path style="fill:#ce5f8c" d="M150.874 385.937h-26.448s-.531 24.766 2.521 47.32H148.355c3.05-22.555 2.519-47.32 2.519-47.32z"/><path style="fill:#fff" d="M618.132 248.137c-1.928 0-3.727.536-5.274 1.452a11.359 11.359 0 0 0 1.357-5.399c0-6.304-5.11-11.414-11.414-11.414-5.941 0-10.817 4.539-11.36 10.338a8.319 8.319 0 0 0-6.649-3.319 8.341 8.341 0 0 0-8.341 8.341c0 .231.016.458.035.685a10.312 10.312 0 0 0-3.68-.685c-5.727 0-10.37 4.643-10.37 10.37 0 5.727 4.643 10.37 10.37 10.37h45.326c5.727 0 10.37-4.643 10.37-10.37.001-5.726-4.642-10.369-10.37-10.369zM166.72 264.962a9.5 9.5 0 0 0-3.387.63 7.7 7.7 0 0 0 .032-.63 7.676 7.676 0 0 0-7.676-7.676 7.654 7.654 0 0 0-6.118 3.054c-.5-5.336-4.987-9.513-10.453-9.513-5.801 0-10.503 4.702-10.503 10.503 0 1.797.453 3.488 1.249 4.968a9.477 9.477 0 0 0-4.853-1.336c-5.27 0-9.543 4.272-9.543 9.543s4.272 9.543 9.543 9.543h41.708c5.27 0 9.543-4.272 9.543-9.543s-4.271-9.543-9.542-9.543zM382.105 93.166c-1.298 0-2.535.249-3.68.685a8.58 8.58 0 0 0 .035-.685 8.341 8.341 0 0 0-8.341-8.341 8.319 8.319 0 0 0-6.649 3.319c-.543-5.799-5.419-10.338-11.36-10.338-6.304 0-11.414 5.11-11.414 11.414 0 1.953.493 3.791 1.357 5.399a10.306 10.306 0 0 0-5.274-1.452c-5.727 0-10.37 4.643-10.37 10.37 0 5.727 4.643 10.37 10.37 10.37h45.326c5.727 0 10.37-4.643 10.37-10.37 0-5.728-4.643-10.371-10.37-10.371z"/><path style="fill:#32428e" d="M186.083 208.755H145.16c-6.6 0-12-5.4-12-12v-25.094c0-6.6 5.4-12 12-12h40.923c6.6 0 12 5.4 12 12v25.094c0 6.6-5.4 12-12 12z"/><path style="fill:#32428e" d="m174.199 201.679-.586 18.133-19.019-15.922z"/><path style="fill:#fff" d="M184.65 180.466h-39.134c-.88 0-1.6-.72-1.6-1.6v-2.198c0-.88.72-1.6 1.6-1.6h39.134c.88 0 1.6.72 1.6 1.6v2.198c0 .879-.72 1.6-1.6 1.6zM184.65 191.834h-39.134c-.88 0-1.6-.72-1.6-1.6v-2.198c0-.88.72-1.6 1.6-1.6h39.134c.88 0 1.6.72 1.6 1.6v2.198c0 .88-.72 1.6-1.6 1.6z"/><path style="fill:#ce5f8c" d="M542.546 198.008h40.923c6.6 0 12-5.4 12-12v-25.094c0-6.6-5.4-12-12-12h-40.923c-6.6 0-12 5.4-12 12v25.094c0 6.6 5.4 12 12 12z"/><path style="fill:#ce5f8c" d="m554.429 190.932.587 18.133 19.018-15.922z"/><path style="fill:#fff" d="M584.375 163.537h-42.683a2.598 2.598 0 0 1-2.59-2.59 2.598 2.598 0 0 1 2.59-2.59h42.683a2.598 2.598 0 0 1 2.59 2.59 2.598 2.598 0 0 1-2.59 2.59zM584.375 175.051h-42.683a2.598 2.598 0 0 1-2.59-2.59 2.598 2.598 0 0 1 2.59-2.59h42.683a2.598 2.598 0 0 1 2.59 2.59 2.598 2.598 0 0 1-2.59 2.59zM573.899 186.267h-32.207a2.598 2.598 0 0 1-2.59-2.59 2.598 2.598 0 0 1 2.59-2.59h32.207a2.598 2.598 0 0 1 2.59 2.59 2.597 2.597 0 0 1-2.59 2.59z"/><path style="fill:#ce5f8c" d="M509.092 339.953s3.751 90.5 2.251 93-10.5 3.5-5.5 4.5 13.333-1.106 14.833-.606 9.883-34.532 8.837-42.223c-1.401-10.3-3.57-32.671 3.629-47.171 7.201-14.5-24.05-7.5-24.05-7.5z"/><path style="fill:#313037" d="M521.499 434.953s-8.156 2-9.49 1.167c-1.333-.833-2.395-1.788-2.395-1.788-3.105.288-8.438 1.659-8.938 3.474-.5 1.815 18.196 1.815 20.015 1.315s.808-4.168.808-4.168z"/><path style="fill:#ce5f8c" d="M542.754 338.264s22.704 92.305 21.707 95.044-9.643 5.433-4.544 5.464 12.88-3.621 14.447-3.416c1.568.206 3.137-35.781.648-43.133-3.334-9.846-14.087-41.916-9.775-57.52 4.311-15.604-22.483 3.561-22.483 3.561z"/><path style="fill:#313037" d="M574.812 433.341s-7.627 3.514-9.095 2.95c-1.467-.565-2.692-1.3-2.692-1.3-2.993.873-7.968 3.233-8.114 5.11-.146 1.877 18.209-1.678 19.899-2.515s.002-4.245.002-4.245z"/><path style="fill:#32428e" d="M544.578 367.453s25.203-.658 24.204-7c-1.732-11 1.503-44.961-4.73-46.162-6.232-1.2-49.71-2.344-52.898 0-6.341 4.662-9.043 51.648-4.82 53.162 4.223 1.514 25.047-.011 25.047-.011l2.239-24.689c4.541 5.69 7.874 24.768 10.958 24.7z"/><path style="fill:#ce5f8c" d="M547.703 239.043s-1.127 16.417.589 16.417-3.829 15.199-10.6 12.954c-6.771-2.245-9.776-11.03-7.156-12.153 2.62-1.123 5.944-2.183 5.944-2.183.055-4.606 0-14.336 0-14.336l11.223-.699z"/><path style="fill:#ce5f8c" d="M535.847 227.769s-8.182 14.416 2.442 15.99c10.624 1.574 13.002-13.681 8.44-17.912-6.471-6.003-10.882 1.922-10.882 1.922z"/><path style="fill:#313037" d="M548.141 254.381s-6.673 7.368-11.237 5.822c-4.564-1.546-.049-5.699-1.001-6.126-3.323-1.491-14.297 1.09-16.591 3.446-2.294 2.356-7.832 61.385-5.385 61.772 2.447.387 34.059 1.658 51.982-3.251 2.285-.626 1.272-57.711-2.399-59.386-3.67-1.675-15.369-2.277-15.369-2.277z"/><circle style="fill:#313037" cx="541.895" cy="233.257" r=".859"/><circle style="fill:#313037" cx="536.013" cy="230.561" r=".859"/><path style="fill:#313037" d="M537.343 239.262c-.166 0-.334-.019-.503-.063-.709-.183-1.244-.736-1.591-1.643l.934-.357c.225.587.53.935.907 1.032.63.161 1.452-.37 1.689-.568l.645.765c-.045.038-1.004.834-2.081.834zM537.159 236.831c-2.223-1.29-2.373-1.547-2.437-1.657-.217-.372-.359-.617 3.168-3.587l.645.765c-1.058.891-2.257 1.967-2.729 2.477.382.255 1.17.74 1.855 1.137l-.502.865zM545.957 241.052s-2.369 4.934-9.461 2.261l.085 6.15c.555.125 9.826-.841 9.376-8.411z"/><path style="fill:#fff" d="M537.41 225.203s-.62-6.5 6.88-6.5 7.625 6.625 12.125 6.5 1.245 5.905-3.125 6.217c0 0 2 1.533.625 4.283s-4.164 5.073-6.332 5.349 1.794-11.81-.831-13.435-9.648-.004-9.342-2.414z"/><path style="fill:#ce5f8c" d="M547.046 234.621s2.057-3.474 3.212-.751-1.48 4.425-2.713 3.8c-1.234-.626-1.189-2.11-.499-3.049zM519.074 255.514s-15.501 4.345-19.792 3.841c-4.292-.505-18.312-45.533-20.154-45.751s-.09 5.188-.09 5.188-5.087-6.754-5.136-3.96 1.987 4.765 1.987 4.765-5.288-5.051-4.682-2.776 2.591 4.03 2.591 4.03-4.988-2.237-4.154-.717 5.706 5.744 6.316 7.77c.61 2.026 2.4 35.138 12.365 43.301 9.965 8.163 34.508-.476 33.553-.492-.955-.016-2.804-15.199-2.804-15.199z"/><path style="fill:#313037" d="M511.931 256.658s-1.388 20.295 2.612 20.795 15.053-2.739 15.053-2.739 1.632-21.031.583-20.873c-1.047.158-9.954.422-18.248 2.817z"/><path style="fill:#fff" d="M537.603 349.179h-66.515c-6.6 0-12-5.4-12-12v-52.314c0-6.6 5.4-12 12-12h66.515c6.6 0 12 5.4 12 12v52.314c0 6.6-5.4 12-12 12z"/><path style="fill:#d9e0f2" d="M459.088 297.353v39.826c0 6.6 5.4 12 12 12h66.515c6.6 0 12-5.4 12-12v-9.867c-9.739 8.282-22.348 13.289-36.133 13.289-26.504.001-48.677-18.477-54.382-43.248z"/><path style="fill:#ce5f8c" d="M562.154 281.028s14.444-10.33 17.889-6.314c3.445 4.017 5.841 32.308 2.598 39.432s-37.544 7.837-42.421 10.533c-8.803 4.866-1.929-1.887-1.929-1.887s-3.585 2.837-4.181 1.191 3.335-3.542 3.335-3.542-3.394 2.195-3.789.577c-.395-1.618 6.886-4.328 5.332-4.793-1.017-.304-5.427.371-4.236-.602 1.191-.973 2.845-1.184 6.328-1.582 3.483-.397 23.399-8.946 25.275-10.241 1.878-1.293-7.075-20.388-4.201-22.772z"/><path style="fill:#313037" d="M560.5 287.571s21.23-4.903 21.413-8.04c.447-7.698-6.936-18.168-18.403-22.873 0 0-7.404 15.471-3.01 30.913z"/><path style="fill:#526db0" d="m508.744 281.799 6.242 12.647a3.417 3.417 0 0 0 2.574 1.87l13.957 2.028c2.804.408 3.924 3.854 1.895 5.832l-10.1 9.845a3.415 3.415 0 0 0-.983 3.026l2.384 13.901c.479 2.793-2.453 4.923-4.961 3.604l-12.484-6.563a3.417 3.417 0 0 0-3.182 0l-12.484 6.563c-2.508 1.319-5.44-.811-4.961-3.604l2.384-13.901a3.418 3.418 0 0 0-.983-3.026l-10.1-9.845c-2.029-1.978-.909-5.424 1.895-5.832l13.957-2.028a3.418 3.418 0 0 0 2.574-1.87l6.242-12.647c1.257-2.541 4.88-2.541 6.134 0zM246.504 152.777l-14.652 32.647-5.967 13.295-5.967 13.295 19.262-7.328 7.328 19.262 5.967-13.295 5.967-13.295 14.652-32.647z"/><path style="fill:#526db0" d="m282.436 152.777 14.652 32.647 5.967 13.295 5.966 13.295-19.261-7.328-7.329 19.262-5.967-13.295-5.966-13.295-14.652-32.647z"/><path style="fill:#ce5f8c" d="m261.825 184.774-40.59-40.59a3.752 3.752 0 0 1 0-5.289l40.59-40.59a3.752 3.752 0 0 1 5.289 0l40.59 40.59a3.752 3.752 0 0 1 0 5.289l-40.59 40.59a3.752 3.752 0 0 1-5.289 0z"/><path style="fill:#ce5f8c" d="m279.56 182.141-53.55-20.676a3.75 3.75 0 0 1-2.142-4.836l20.676-53.55a3.75 3.75 0 0 1 4.836-2.142l53.55 20.676a3.75 3.75 0 0 1 2.142 4.836l-20.676 53.55a3.75 3.75 0 0 1-4.836 2.142z"/><path style="fill:#ce5f8c" d="m249.38 182.141 53.55-20.676a3.75 3.75 0 0 0 2.142-4.836l-20.676-53.55a3.75 3.75 0 0 0-4.836-2.142l-53.55 20.676a3.75 3.75 0 0 0-2.142 4.836l20.676 53.55a3.75 3.75 0 0 0 4.836 2.142z"/><path style="fill:#ce5f8c" d="M293.171 173.981h-57.402a3.751 3.751 0 0 1-3.74-3.74v-57.402a3.751 3.751 0 0 1 3.74-3.74h57.402a3.751 3.751 0 0 1 3.74 3.74v57.402a3.751 3.751 0 0 1-3.74 3.74z"/><circle style="fill:#fff" cx="264.47" cy="141.54" r="30.265"/><path style="fill:#d9e0f2" d="M242.829 127.48c0-2.84.4-5.584 1.131-8.19-5.996 5.53-9.755 13.45-9.755 22.25 0 16.715 13.55 30.265 30.265 30.265 13.875 0 25.562-9.341 29.135-22.075-5.393 4.974-12.595 8.016-20.51 8.016-16.716-.001-30.266-13.551-30.266-30.266z"/><path style="fill:#ce5f8c" d="M228.361 340.887s-3.751 90.5-2.251 93 10.5 3.5 5.5 4.5-13.333-1.106-14.833-.606-9.883-34.532-8.837-42.223c1.401-10.3 3.57-32.671-3.629-47.171s24.05-7.5 24.05-7.5z"/><path style="fill:#313037" d="M215.954 435.887s8.156 2 9.49 1.167c1.333-.833 2.395-1.788 2.395-1.788 3.105.288 8.438 1.659 8.938 3.474s-18.196 1.815-20.015 1.315c-1.819-.502-.808-4.168-.808-4.168z"/><path style="fill:#ce5f8c" d="M205.547 344.211s-30.045 85.45-29.341 88.279c.704 2.829 9.018 6.417 3.944 5.911-5.074-.505-12.427-4.956-14.008-4.916-1.581.04.644-35.912 3.892-42.962 4.351-9.44 12.966-30.2 10.32-46.172s25.193-.14 25.193-.14z"/><path style="fill:#313037" d="M165.909 431.434s7.215 4.297 8.734 3.89c1.519-.407 2.814-1.01 2.814-1.01 2.885 1.183 7.584 4.053 7.532 5.935-.052 1.881-17.932-3.584-19.525-4.594-1.594-1.01.445-4.221.445-4.221z"/><circle style="fill:#313037" cx="199.095" cy="233.16" r="12.227"/><circle style="fill:#313037" cx="183.023" cy="230.636" r="6.481"/><path style="fill:#ce5f8c" d="M197.871 239.976s1.126 16.417-.589 16.417 3.829 15.199 10.6 12.954 9.775-11.03 7.156-12.153c-2.62-1.123-5.944-2.183-5.944-2.183-.055-4.606 0-14.336 0-14.336l-11.223-.699z"/><path style="fill:#ce5f8c" d="M209.727 228.702s8.183 14.416-2.442 15.99c-10.624 1.574-13.002-13.681-8.44-17.912 6.47-6.003 10.882 1.922 10.882 1.922z"/><path style="fill:#ce5f8c" d="M198.658 238.006s-1.055-3.897-2.895-1.581.245 4.659 1.601 4.386c1.356-.273 1.709-1.715 1.294-2.805z"/><path style="fill:#fff" d="M197.281 256.393s5.97 6.33 10.147 5.082c4.177-1.249 2.874-5.525 3.785-5.747 1.06-.259 10.964.158 13.063 2.06 2.099 1.902 8.528 40.016 6.288 40.328-2.239.312-48.136 1.353-49.956.312-1.819-1.04-.141-39.986 3.218-41.339 3.36-1.353 13.455-.696 13.455-.696z"/><circle style="fill:#313037" cx="203.679" cy="234.191" r=".859"/><circle style="fill:#313037" cx="209.561" cy="231.494" r=".859"/><path style="fill:#313037" d="M208.23 240.195c-1.076 0-2.034-.795-2.081-.834l.644-.766c.257.214 1.057.732 1.693.569.375-.098.68-.445.904-1.031l.934.357c-.347.907-.882 1.459-1.591 1.643a2.025 2.025 0 0 1-.503.062zM208.415 237.764l-.502-.865c.672-.39 1.442-.864 1.848-1.145-.477-.513-1.67-1.583-2.723-2.47l.645-.765c3.528 2.971 3.385 3.216 3.168 3.587-.064.112-.214.368-2.436 1.658zM203.396 222.82s2.03 2.742 1.142 6.075c-.889 3.333-6.072 7.156-7.898 7.214-1.825.058-1.807-5.315-.584-8.015s5.906-5.864 7.34-5.274z"/><path style="fill:#313037" d="M202.82 223.959s1.04 2.236 4.879 3.923c3.839 1.687 3.923 4.64 4.303 2.278.38-2.362-2.328-6.682-5.53-7.412s-3.652 1.211-3.652 1.211zM199.616 241.985s2.369 4.933 9.461 2.26l-.008 6.151c-.554.126-9.902-.841-9.453-8.411zM180.765 297.684s-10.16 59.703-8.408 69.203c1.752 9.5 64.752 2 70.252 0s-10.985-70.697-14.249-71.852-47.595 2.649-47.595 2.649z"/><path style="fill:#fff" d="M294.25 325.728h-66.515c-6.6 0-12-5.4-12-12v-52.314c0-6.6 5.4-12 12-12h66.515c6.6 0 12 5.4 12 12v52.314c0 6.6-5.4 12-12 12z"/><path style="fill:#d9e0f2" d="M215.736 273.901v39.826c0 6.6 5.4 12 12 12h66.515c6.6 0 12-5.4 12-12v-9.867c-9.739 8.282-22.348 13.289-36.133 13.289-26.505.002-48.678-18.476-54.382-43.248z"/><path style="fill:#ce5f8c" d="M185.584 286.351s9.948-11.256 13.238-9.159c3.289 2.097 8.305 10.682 13.913 14.911 5.608 4.229 34.575 11.416 40.167 13.28 5.592 1.864-5.359 1.631-5.359 1.631s4.893 1.631 5.825 3.029-4.66 0-4.66 0 5.825 3.495 4.427 3.728c-1.398.233-6.291-1.864-6.291-1.864s3.495 2.33 2.563 3.728-2.188-1.631-5.683-2.33c-3.495-.699-29.432-2.868-36.363-5.825-6.931-2.957-21.777-21.129-21.777-21.129z"/><path style="fill:#fff" d="M185.584 290.993s17.373-9.951 17.649-14.062c.276-4.111-8.811-21.05-14.868-21.201-6.058-.151-14.221 5.898-14.678 16.155-.354 7.925 9.577 20.484 11.897 19.108z"/><path style="fill:#ce5f8c" d="M288.488 277.57c0-7.001-5.676-12.677-12.677-12.677s-12.677 5.676-12.677 12.677c0-7.001-5.676-12.677-12.677-12.677-7.001 0-12.677 5.676-12.677 12.677 0 .491.035.974.089 1.451 1.592 19.186 25.265 31.22 25.265 31.22 26.508-16.86 25.354-32.671 25.354-32.671z"/></svg>