<svg xmlns="http://www.w3.org/2000/svg" viewBox="0 0 500 500" style="enable-background:new 0 0 500 500" xml:space="preserve"><path style="fill:#f5f5f5" d="M409.539 208.588c-13.233-19.247-44.084-22.971-61.516-7.426-.357-15.634-10.711-30.588-25.218-36.424-14.508-5.837-32.333-2.219-43.417 8.812 2.498-8.748-6.686-17.278-15.772-17.751-9.085-.473-17.482 4.414-25.277 9.106-7.795 4.692-16.249 9.518-25.327 8.905-9.827-.664-17.999-7.518-27.185-11.07-22.476-8.691-50.926 6.734-55.907 30.311-24.879-10.044-56.799 6.401-63.064 32.489l364.289 4.254c-2.456-10.356-11.207-18.945-21.606-21.206z"/><path style="fill:#fafafa" d="M394.876 91.356c.63-4.577-5.83-8.342-10.684-8.734-2.315-.187-4.719.167-6.912-.597-4.751-1.656-6.649-7.794-11.285-9.75-3.466-1.462-7.456-.16-10.816 1.531-3.36 1.691-6.681 3.819-10.435 4.06-3.265.209-6.811-1.002-9.668.593-2.129 1.189-3.244 3.642-5.206 5.089-1.92 1.416-4.424 1.716-6.805 1.845-2.382.13-4.848.154-7.016 1.147-2.169.993-3.963 3.286-3.513 5.629l82.34-.813zM77.769 53.698c.352-2.554-3.253-4.655-5.961-4.873-1.292-.104-2.633.093-3.857-.333-2.651-.924-3.71-4.349-6.297-5.44-1.934-.816-4.161-.09-6.035.854-1.875.944-3.728 2.131-5.822 2.265-1.822.117-3.801-.559-5.395.331-1.188.663-1.81 2.032-2.905 2.839-1.071.79-2.468.957-3.797 1.03-1.329.072-2.705.086-3.915.64s-2.211 1.834-1.96 3.141l45.944-.454z"/><path style="fill:#ebebeb" d="M453.257 138.049c.724-5.262-6.702-9.59-12.281-10.04-2.661-.215-5.425.192-7.946-.686-5.462-1.904-7.643-8.96-12.973-11.208-3.984-1.68-8.571-.185-12.434 1.759s-7.68 4.391-11.995 4.667c-3.754.24-7.83-1.152-11.114.682-2.447 1.366-3.729 4.186-5.985 5.85-2.207 1.628-5.085 1.972-7.823 2.121-2.738.149-5.573.176-8.066 1.318-2.493 1.142-4.556 3.778-4.038 6.471l94.655-.934zM443.066 47.768c.51-3.704-4.717-6.75-8.644-7.067-1.873-.151-3.818.135-5.593-.483-3.844-1.34-5.38-6.307-9.131-7.889-2.804-1.183-6.033-.13-8.752 1.238-2.719 1.368-5.406 3.09-8.443 3.285-2.642.169-5.511-.811-7.823.48-1.722.962-2.625 2.947-4.212 4.118-1.553 1.146-3.579 1.388-5.507 1.493-1.927.105-3.922.124-5.677.928-1.755.803-3.207 2.659-2.842 4.554l66.624-.657zM92.818 136.2c.379-2.756-3.51-5.023-6.432-5.258-1.394-.112-2.841.101-4.161-.359-2.86-.997-4.003-4.692-6.794-5.87-2.087-.88-4.489-.097-6.512.922-2.023 1.018-4.022 2.299-6.282 2.444-1.966.126-4.101-.603-5.821.357-1.282.716-1.953 2.193-3.134 3.064-1.156.852-2.663 1.033-4.097 1.111s-2.918.092-4.224.69-2.386 1.979-2.115 3.389l49.572-.49z"/><path style="fill:#f5f5f5" d="M195.617 93.928c.801-5.823-7.416-10.613-13.591-11.11-2.945-.237-6.003.213-8.793-.76-6.044-2.107-8.459-9.915-14.356-12.403-4.409-1.86-9.485-.204-13.76 1.947-4.275 2.151-8.499 4.859-13.274 5.164-4.154.266-8.665-1.275-12.299.755-2.708 1.512-4.127 4.633-6.623 6.474-2.442 1.801-5.628 2.183-8.658 2.347-3.03.165-6.167.195-8.926 1.459-2.759 1.263-5.041 4.181-4.469 7.161l104.749-1.034z"/><path style="fill:#ebebeb" d="M27.855 302.906s-8.522 1.21-3.68 19.868c4.843 18.658 8.931 28.269 8.931 28.269s.656 4.228-2.754 4.107c-3.41-.12-10.369-2.868-12.716.818-2.434 3.823-.282 8.414 5.08 13.21 5.362 4.796 16.724 15.735 17.747 16.728 1.005.975 1.771 3.044-.565 3.335-2.336.29-18.937-1.608-19.366 6.323-.429 7.931 16.704 18.838 18.554 20.066 1.85 1.228 2.144 2.193 1.733 3.267-.41 1.074-5.931-.09-10.674-.436-4.744-.346-10.305.083-10.169 4.68.136 4.597 9.149 16.186 35.37 24.745l12.409 3.171 9.139-9.054c18.378-20.568 20.353-35.116 18.162-39.16-2.191-4.043-7.216-1.623-11.144 1.059s-8.118 6.46-9.012 5.737c-.895-.722-1.125-1.704-.141-3.695.983-1.991 10.323-20.026 5.969-26.67-4.354-6.643-17.757 3.334-19.923 4.256-2.166.922-2.542-1.252-2.163-2.6.387-1.373 4.719-16.538 6.948-23.378s1.784-11.891-2.24-13.974c-3.881-2.009-8.52 3.861-11.408 5.677-2.888 1.816-4.444-2.169-4.444-2.169s-1.29-10.365-6.472-28.932c-5.181-18.567-13.343-15.213-13.343-15.213"/><path style="fill:#e0e0e0" d="M67.751 454.14C64 440.489 57.74 416.116 52.257 395.217c-5.481-20.891-10.461-39.801-14.143-53.469l-4.377-16.182-1.187-4.401-.299-1.147c-.065-.259-.089-.395-.089-.395s.05.128.128.383l.337 1.137 1.259 4.381c1.089 3.806 2.626 9.324 4.499 16.15 3.751 13.651 8.775 32.551 14.256 53.442 5.483 20.898 11.699 45.282 15.381 58.95"/><path style="fill:#e0e0e0" d="M27.217 360.204c.015-.023.305.133.818.436.514.3 1.245.757 2.142 1.328 1.792 1.148 4.228 2.796 6.882 4.663l6.778 4.805 2.062 1.442c.488.339.752.537.738.56-.014.023-.306-.131-.821-.43a56.416 56.416 0 0 1-2.136-1.34c-1.782-1.166-4.194-2.845-6.848-4.712a33167.13 33167.13 0 0 1-6.809-4.754l-2.07-1.433c-.489-.342-.751-.542-.736-.565zM47.668 372.827c-.093-.059 3.084-5.229 7.094-11.547 4.012-6.32 7.338-11.394 7.43-11.335.093.059-3.083 5.228-7.095 11.548-4.01 6.318-7.337 11.393-7.429 11.334zM54.639 405.294c-.017-.021.225-.255.678-.659l1.929-1.698a206.53 206.53 0 0 0 6.253-5.717 197.744 197.744 0 0 0 5.994-5.99l1.784-1.85c.424-.435.668-.667.688-.649.021.018-.184.285-.573.753a65.537 65.537 0 0 1-1.693 1.938 114.96 114.96 0 0 1-5.924 6.086 116.495 116.495 0 0 1-6.345 5.644 72.234 72.234 0 0 1-2.013 1.604c-.485.366-.761.559-.778.538zM33.628 397.947c.009-.026.311.048.851.204l2.273.696a465.6 465.6 0 0 1 7.45 2.437 458.19 458.19 0 0 1 7.414 2.548l2.232.815c.524.201.81.324.801.35-.009.026-.311-.048-.851-.204l-2.272-.696a471.983 471.983 0 0 1-7.451-2.437 462.314 462.314 0 0 1-7.413-2.547l-2.232-.815c-.525-.201-.81-.325-.802-.351zM36.141 427.392c.008-.026.395.072 1.086.271l2.916.88c2.457.76 5.842 1.836 9.573 3.048a764.439 764.439 0 0 1 9.538 3.159l2.876 1.001c.676.245 1.046.392 1.038.418-.009.026-.395-.072-1.086-.271l-2.916-.881a758.448 758.448 0 0 1-9.574-3.048 752.611 752.611 0 0 1-9.537-3.159 2958.6 2958.6 0 0 0-2.876-1c-.676-.245-1.046-.392-1.038-.418zM62.582 435.777c-.018-.021.281-.325.838-.857l2.368-2.241a333.766 333.766 0 0 0 7.699-7.508 323.222 323.222 0 0 0 7.436-7.77l2.22-2.389c.527-.562.828-.865.848-.846.021.018-.241.355-.732.949s-1.215 1.442-2.127 2.475a185.791 185.791 0 0 1-7.362 7.861 188.53 188.53 0 0 1-7.79 7.434 109.36 109.36 0 0 1-2.456 2.15c-.59.498-.924.763-.942.742z"/><path style="fill:#f5f5f5" d="M422.149 455.153c-20.727-11.473-28.514-36.999-30.928-60.577-.403-3.935-1.362-8.011-.082-11.69 1.282-3.678 5.032-6.588 8.536-5.39 2.906.995 4.547 4.216 6.447 6.806 2.527 3.446 5.959 6.112 9.776 7.593 2.508.973 5.501 1.367 7.622-.309 2.91-2.301 2.654-7.022 2.107-10.917l-3.06-21.773c-.547-3.894-1.093-7.872-.458-11.727.636-3.855 2.678-7.637 6.005-9.153 3.328-1.516 7.903.03 9.149 3.744.518 1.545.438 3.235.757 4.838.319 1.604 1.265 3.297 2.762 3.549 1.516.257 2.826-1.05 3.762-2.341 3.233-4.454 5.103-9.875 6.81-15.245 1.708-5.37 3.328-10.85 6.164-15.613s7.1-8.815 12.277-9.851c5.178-1.035 11.203 1.643 13.259 6.94 2.062 5.312-.185 11.3-2.849 16.197-3.952 7.266-8.891 13.891-14.616 19.601-1.031 1.03-2.15 2.144-2.395 3.648-.442 2.708 2.208 4.97 4.722 5.494 2.847.593 5.754-.115 8.644-.149 2.89-.034 6.149.882 7.611 3.606 2.029 3.778-.525 8.383-3.222 11.54-5.402 6.323-11.829 11.615-18.913 15.575-2.54 1.419-5.238 2.728-7.129 5.04-1.891 2.313-2.724 5.995-1.049 8.56 1.677 2.568 5.148 2.984 7.882 2.04 2.732-.943 5.027-2.921 7.558-4.369 4.737-2.712 11.255-3.235 15.086.952 2.518 2.752 3.274 6.963 2.695 10.737-.577 3.774-2.32 7.196-4.229 10.394-6.672 11.178-15.858 20.703-26.898 26.613-11.039 5.91-21.648 8.56-33.803 5.637"/><path style="fill:#e0e0e0" d="M425.836 439.655c1.637-12.292 4.48-25.591 7.904-39.385l2.57-10.203c.851-3.346 1.695-6.665 2.708-9.853 2.002-6.388 4.385-12.36 6.815-17.951 2.428-5.594 4.924-10.804 7.292-15.658 2.379-4.85 4.676-9.324 6.935-13.305 4.494-7.983 8.832-13.94 11.967-17.897a124.308 124.308 0 0 1 3.693-4.484l.993-1.133c.227-.252.347-.376.356-.368.009.009-.094.151-.304.419l-.943 1.181c-.833 1.034-2.062 2.559-3.593 4.569a145.073 145.073 0 0 0-11.759 17.986c-2.226 3.986-4.493 8.465-6.846 13.32-2.344 4.863-4.819 10.076-7.226 15.663-2.407 5.585-4.768 11.54-6.751 17.896-1.004 3.173-1.837 6.463-2.688 9.818l-2.566 10.198c-3.42 13.783-6.275 27.045-7.942 39.294"/><path style="fill:#e0e0e0" d="M439.206 380.159c-.044.014-.248-.561-.58-1.613-.336-1.051-.776-2.586-1.293-4.492-1.038-3.809-2.303-9.12-3.677-14.979-1.375-5.863-2.707-11.14-3.796-14.923-.54-1.893-.991-3.421-1.315-4.472-.319-1.054-.475-1.646-.431-1.664.044-.017.283.542.678 1.57.401 1.025.923 2.534 1.521 4.414 1.21 3.758 2.622 9.037 3.997 14.905l3.484 15.02 1.085 4.544c.253 1.074.373 1.676.327 1.69z"/><path style="fill:#e0e0e0" d="M484.806 364.334c.008.049-.648.224-1.837.497-1.187.28-2.907.676-5.015 1.237-4.225 1.087-10.009 2.808-16.309 5.005-6.298 2.21-11.914 4.471-15.93 6.231-2.015.865-3.627 1.613-4.744 2.122-1.116.514-1.742.777-1.764.732-.021-.046.568-.396 1.65-.991a85.995 85.995 0 0 1 4.667-2.341c3.978-1.888 9.586-4.233 15.903-6.451 6.318-2.203 12.147-3.852 16.414-4.812a73.948 73.948 0 0 1 5.078-1.013c1.207-.185 1.878-.266 1.887-.216zM426.288 438.654c-.02.013-.158-.182-.404-.567l-1.045-1.702c-.902-1.482-2.155-3.663-3.669-6.378-3.033-5.429-7.004-13.064-11.28-21.552-4.279-8.491-8.178-16.155-11.101-21.641l-3.48-6.488-.938-1.771c-.208-.408-.308-.629-.288-.644.02-.012.158.183.404.568l1.045 1.701c.902 1.482 2.154 3.663 3.669 6.378 3.033 5.428 7.004 13.064 11.281 21.555 4.277 8.488 8.176 16.151 11.1 21.638 1.431 2.665 2.606 4.858 3.48 6.487.376.708.685 1.293.938 1.772.208.41.308.631.288.644z"/><path style="fill:#e0e0e0" d="M485.669 408.609c.009.023-.191.146-.581.357l-1.721.897-6.357 3.23c-5.367 2.729-12.739 6.589-20.878 10.866-8.142 4.28-15.555 8.07-20.978 10.68-2.711 1.306-4.915 2.339-6.452 3.019l-1.775.772c-.409.169-.629.246-.638.223-.009-.023.192-.146.581-.359l1.721-.896 6.356-3.23c5.368-2.728 12.74-6.589 20.882-10.868 8.139-4.278 15.551-8.068 20.975-10.678 2.711-1.306 4.915-2.339 6.454-3.019l1.775-.772c.407-.168.626-.245.636-.222z"/><path style="fill:#263238" d="M484.727 478.355c0 .144-105.547.26-235.716.26-130.214 0-235.739-.117-235.739-.26 0-.144 105.525-.26 235.739-.26 130.169-.001 235.716.116 235.716.26z"/><path style="fill:#455a64" d="M423.353 472.816H70.774c-8.045 0-14.567-6.522-14.567-14.567V234.96c0-8.045 6.522-14.567 14.567-14.567h352.579c8.045 0 14.567 6.522 14.567 14.567v223.289c0 8.045-6.522 14.567-14.567 14.567z"/><path style="fill:#455a64" d="M437.422 478.601H58.712c-9.623 0-17.424-7.801-17.424-17.424v-4.663h413.557v4.663c.001 9.623-7.8 17.424-17.423 17.424z"/><path style="fill:#263238" d="M66.453 230.422h360.154V443.59H66.453zM209.434 454.147l5.132 8.163h72.212l4.766-8.163z"/><path style="fill:#ebebeb" d="M416.656 442.908H77.144a3.273 3.273 0 0 1-3.273-3.273V240.911a3.273 3.273 0 0 1 3.273-3.273h339.513a3.272 3.272 0 0 1 3.272 3.273v198.724a3.273 3.273 0 0 1-3.273 3.273z"/><path style="fill:#fafafa" d="M419.559 443.208H73.5l.371-190.229h345.688z"/><path style="fill:#263238" d="M102.253 245.566a2.764 2.764 0 1 1-5.528 0 2.764 2.764 0 0 1 5.528 0zM85.502 245.566a2.764 2.764 0 1 1-5.528 0 2.764 2.764 0 0 1 5.528 0zM93.543 245.566a2.764 2.764 0 1 1-5.528 0 2.764 2.764 0 0 1 5.528 0zM434.64 454.147c0 .137-84.722.247-189.207.247-104.522 0-189.226-.111-189.226-.247s84.704-.247 189.226-.247c104.485 0 189.207.11 189.207.247z"/><path style="fill:#e8505b" d="M383.105 334.879c-9.74 8.137-14.216 22.073-11.036 34.36-8.98-1.788-18.767 1.163-25.262 7.617-6.495 6.454-9.508 16.221-7.778 25.212-9.915-6.819-25.057-4.264-32.185 5.43-.152-6.402-.402-13.148-3.767-18.597-3.365-5.449-11.004-8.811-16.392-5.35 4.059-4.612 4.671-11.922 1.436-17.145-3.234-5.223-10.052-7.932-15.989-6.353-.152-7.688-5.023-62.064-9.036-107.945H229.05c-3.948 45.082-8.573 96.86-8.721 104.348-5.937-1.578-12.754 1.13-15.989 6.353-3.235 5.223-2.622 12.533 1.436 17.145-5.388-3.461-13.027-.098-16.392 5.35-3.365 5.449-3.615 12.194-3.767 18.597-7.128-9.695-22.271-12.249-32.185-5.43 1.73-8.991-1.283-18.759-7.778-25.212-6.495-6.453-16.282-9.404-25.261-7.617 3.18-12.287-1.295-26.223-11.036-34.36-9.74-8.137-24.25-10.063-35.775-4.747v116.574H418.88V330.132c-11.525-5.316-26.035-3.39-35.775 4.747z"/><g style="opacity:.8"><path style="fill:#fff" d="M383.105 334.879c-9.74 8.137-14.216 22.073-11.036 34.36-8.98-1.788-18.767 1.163-25.262 7.617-6.495 6.454-9.508 16.221-7.778 25.212-9.915-6.819-25.057-4.264-32.185 5.43-.152-6.402-.402-13.148-3.767-18.597-3.365-5.449-11.004-8.811-16.392-5.35 4.059-4.612 4.671-11.922 1.436-17.145-3.234-5.223-10.052-7.932-15.989-6.353-.152-7.688-5.023-62.064-9.036-107.945H229.05c-3.948 45.082-8.573 96.86-8.721 104.348-5.937-1.578-12.754 1.13-15.989 6.353-3.235 5.223-2.622 12.533 1.436 17.145-5.388-3.461-13.027-.098-16.392 5.35-3.365 5.449-3.615 12.194-3.767 18.597-7.128-9.695-22.271-12.249-32.185-5.43 1.73-8.991-1.283-18.759-7.778-25.212-6.495-6.453-16.282-9.404-25.261-7.617 3.18-12.287-1.295-26.223-11.036-34.36-9.74-8.137-24.25-10.063-35.775-4.747v116.574H418.88V330.132c-11.525-5.316-26.035-3.39-35.775 4.747z"/></g><path style="fill:#e8505b" d="M381.03 419.839c-12.35-8.296-28.181-11.219-42.68-7.878-14.499 3.34-27.455 12.895-34.93 25.758-3.005-4.111-7.033-7.414-11.576-9.704.318-.862.597-1.74.802-2.639 2.039-8.925-1.803-18.907-9.302-24.16-5.317-3.725-12.238-4.897-18.559-3.501l-10.219-145.606H241.14v133.839c-8.302 1.268-14.088 11.103-11.163 18.976-5.777.843-11.019 4.738-13.493 10.026-.805 1.721-.924 5.358-.232 9.477-10.083.136-20.071 5.131-26.037 13.293-7.475-12.864-20.432-22.418-34.93-25.758-14.499-3.34-30.329-.418-42.68 7.878-3.511-17.001-22.52-29.08-39.402-25.038v48.533l155.787-.203c1.03.288 2.12.457 3.286.457l38.088-.449 150.069.196v-48.533c-16.883-4.044-35.892 8.035-39.403 25.036z"/><g style="opacity:.6"><path style="fill:#fff" d="M381.03 419.839c-12.35-8.296-28.181-11.219-42.68-7.878-14.499 3.34-27.455 12.895-34.93 25.758-3.005-4.111-7.033-7.414-11.576-9.704.318-.862.597-1.74.802-2.639 2.039-8.925-1.803-18.907-9.302-24.16-5.317-3.725-12.238-4.897-18.559-3.501l-10.219-145.606H241.14v133.839c-8.302 1.268-14.088 11.103-11.163 18.976-5.777.843-11.019 4.738-13.493 10.026-.805 1.721-.924 5.358-.232 9.477-10.083.136-20.071 5.131-26.037 13.293-7.475-12.864-20.432-22.418-34.93-25.758-14.499-3.34-30.329-.418-42.68 7.878-3.511-17.001-22.52-29.08-39.402-25.038v48.533l155.787-.203c1.03.288 2.12.457 3.286.457l38.088-.449 150.069.196v-48.533c-16.883-4.044-35.892 8.035-39.403 25.036z"/></g><path style="fill:#e8505b" d="M233.253 206.526c-7.686 3.65-11.16 14.173-7.159 21.682 1.578 2.962 4.152 5.569 4.493 8.908.524 5.119-4.32 9.124-5.816 14.048-1.754 5.774 2.078 12.62 7.916 14.145 2.63.687 5.779.568 7.54 2.637 2.249 2.641.626 7.03 2.549 9.918 1.736 2.607 5.787 2.734 8.396 1.003 2.609-1.731 4.048-4.745 5.077-7.703s1.803-6.071 3.58-8.65c1.956-2.838 4.949-4.769 7.327-7.264 5.723-6.004 7.471-15.013 6.184-23.207s-5.259-15.721-9.747-22.696"/><g style="opacity:.3"><path style="fill:#fff" d="M233.253 206.526c-7.686 3.65-11.16 14.173-7.159 21.682 1.578 2.962 4.152 5.569 4.493 8.908.524 5.119-4.32 9.124-5.816 14.048-1.754 5.774 2.078 12.62 7.916 14.145 2.63.687 5.779.568 7.54 2.637 2.249 2.641.626 7.03 2.549 9.918 1.736 2.607 5.787 2.734 8.396 1.003 2.609-1.731 4.048-4.745 5.077-7.703s1.803-6.071 3.58-8.65c1.956-2.838 4.949-4.769 7.327-7.264 5.723-6.004 7.471-15.013 6.184-23.207s-5.259-15.721-9.747-22.696"/></g><path style="fill:#e8505b" d="M240 210.852c-6.508 2.866-9.361 11.896-5.682 17.981 2.248 3.717 6.61 7.074 5.553 11.287-.717 2.857-3.782 4.609-4.662 7.42-1.172 3.742 2.374 7.712 6.267 8.185 3.893.473 7.666-1.612 10.613-4.2 10.216-8.973 12.701-26.603 6.335-38.618M273.565 153.609s33.438 22.122 29.785 60.37l-30.744-13.796.959-46.574z"/><path style="fill:#263238" d="m218.002 199.428 7.594 12.589h39.416l7.594-11.868z"/><path style="fill:#e8505b" d="M243.263 72.401c-15.578 1.042-27.585 14.147-27.264 29.757l2.003 97.991h54.604l1.824-98.049c.318-17.119-14.083-30.842-31.167-29.699z"/><g style="opacity:.8"><path style="fill:#fff" d="M243.263 72.401c-15.578 1.042-27.585 14.147-27.264 29.757l2.003 97.991h54.604l1.824-98.049c.318-17.119-14.083-30.842-31.167-29.699z"/></g><path style="fill:#e8505b" d="M217.043 153.609s-33.438 22.122-29.786 60.37l30.744-13.796-.958-46.574zM216.305 98.909c11.542-10.109 47.793-9.889 57.526-1.662-2.504-36.38-30.28-49.984-30.28-49.984-28.424 19.666-27.246 51.646-27.246 51.646z"/><path style="fill:#263238" d="M243.55 47.263s.114.096.326.293l.936.882 1.516 1.443.966.922 1.033 1.116c.724.794 1.542 1.665 2.411 2.642l2.665 3.318c.453.615.895 1.269 1.366 1.935.455.676.978 1.339 1.419 2.085.895 1.483 1.886 3.025 2.734 4.754a54.802 54.802 0 0 1 4.509 11.717c.581 2.187 1.009 4.493 1.312 6.883.163 1.192.26 2.416.425 3.631.146 1.222.124 2.517.134 3.773.017 10.156-.128 21.316-.259 33.032-.283 23.439-.61 44.654-.862 60.01l-.32 18.185-.104 4.944-.035 1.286c-.009.29-.022.438-.022.438s-.008-.149-.008-.438l.005-1.286.048-4.945.226-18.186.776-60.011c.131-11.715.285-22.877.282-33.027-.01-1.279.019-2.502-.124-3.734-.166-1.237-.259-2.448-.419-3.638-.298-2.381-.719-4.677-1.292-6.855a54.83 54.83 0 0 0-4.458-11.682c-.838-1.726-1.821-3.266-2.707-4.749-.436-.746-.955-1.409-1.406-2.085-.467-.666-.905-1.322-1.353-1.937l-2.64-3.326c-.861-.98-1.672-1.855-2.388-2.654l-1.021-1.124-.955-.931-1.495-1.462-.915-.903c-.206-.206-.306-.316-.306-.316z"/><path style="fill:#fafafa" d="M246.339 106.721c7.227 1.596 11.693 9.192 9.977 16.966-1.717 7.774-8.967 12.783-16.193 11.187-7.227-1.596-11.693-9.192-9.977-16.966 1.717-7.774 8.967-12.783 16.193-11.187z"/><path style="fill:#263238" d="M246.339 106.721a1.229 1.229 0 0 1-.226-.022l-.655-.093a124.22 124.22 0 0 0-.481-.072l-.587-.025-.684-.03c-.244 0-.503.027-.778.04-.552.006-1.153.129-1.813.236-.647.165-1.358.329-2.078.636a13.88 13.88 0 0 0-4.435 2.834c-1.418 1.346-2.736 3.112-3.57 5.267-.2.541-.422 1.085-.554 1.667-.073.288-.164.576-.225.872l-.153.901-.077.456-.035.464-.07.938.017.953.01.481.054.481c.246 2.57 1.203 5.234 2.956 7.442 1.704 2.245 4.294 3.905 7.197 4.582 2.918.61 5.968.195 8.46-1.124 2.52-1.265 4.51-3.278 5.816-5.506l.252-.414.211-.432.416-.857.331-.88.164-.436.122-.446.241-.882c.07-.294.108-.593.163-.885.125-.584.153-1.171.2-1.746.151-2.307-.301-4.463-1.021-6.281a13.863 13.863 0 0 0-2.83-4.438c-.523-.581-1.099-1.029-1.617-1.451-.553-.375-1.047-.739-1.545-.977-.243-.128-.468-.261-.688-.364l-.633-.26a85.705 85.705 0 0 0-.543-.224l-.466-.138-.633-.192a1.251 1.251 0 0 1-.213-.075c.001-.005.076.011.221.046l.643.164.473.125.551.212.643.249c.225.1.453.23.701.355.507.233 1.01.593 1.575.966.528.42 1.116.867 1.652 1.45a13.95 13.95 0 0 1 2.905 4.474c.743 1.84 1.214 4.028 1.072 6.372-.044.584-.07 1.181-.195 1.775-.055.298-.093.601-.163.9l-.241.898-.123.454-.165.444-.334.897-.421.874-.214.44-.255.422c-1.323 2.273-3.347 4.33-5.919 5.626-2.543 1.35-5.667 1.78-8.654 1.154-2.972-.691-5.624-2.396-7.361-4.691-1.787-2.258-2.756-4.976-2.999-7.594l-.054-.49-.009-.49-.014-.97.074-.954.037-.472.079-.463.159-.916c.063-.301.156-.592.232-.885.137-.591.364-1.143.57-1.692.858-2.186 2.206-3.972 3.655-5.328a13.935 13.935 0 0 1 4.519-2.836c.731-.303 1.453-.462 2.109-.62.669-.1 1.277-.215 1.835-.213.277-.009.539-.031.785-.027l.688.044.589.039.482.086.652.122c.147.031.221.048.22.053zM229.42 118.642c-.004.171-3.082.086-6.788.758-3.711.647-6.571 1.788-6.634 1.628-.027-.065.654-.436 1.823-.885 1.167-.45 2.83-.955 4.714-1.291 1.884-.333 3.619-.433 4.869-.412 1.251.018 2.019.131 2.016.202zM273.565 118.622c-.016.08-.948-.042-2.452-.229a110.672 110.672 0 0 0-5.883-.588 110.306 110.306 0 0 0-5.909-.242c-1.515-.025-2.456-.036-2.46-.117-.004-.073.931-.201 2.454-.277a51.524 51.524 0 0 1 5.954.08c2.321.165 4.41.466 5.906.754 1.496.289 2.404.547 2.39.619zM273.869 174.7c-.002.019-.202.017-.58-.005l-1.651-.121-6.065-.465a287.377 287.377 0 0 0-20.043-.704c-7.836.012-14.924.373-20.045.746l-6.064.477-1.65.125c-.378.022-.578.025-.58.006-.002-.019.193-.059.567-.117l1.64-.229c1.425-.192 3.494-.419 6.055-.654 5.121-.474 12.223-.898 20.076-.91 7.851-.004 14.953.405 20.075.868 2.561.23 4.631.453 6.057.642l1.641.225c.373.058.569.097.567.116zM230.871 132.687c.004.083-.339.115-.574.505-.112.185-.186.454-.108.684.066.227.314.403.623.429.31.021.582-.113.683-.328.113-.215.081-.492-.001-.692-.172-.422-.505-.506-.488-.587-.025-.068.461-.145.833.398.164.254.295.655.124 1.092-.168.449-.703.721-1.194.673-.492-.028-.979-.38-1.075-.85-.101-.458.09-.834.291-1.059.452-.48.921-.329.886-.265zM242.771 139.105c.004.083-.339.115-.574.505-.112.185-.186.454-.108.684.067.227.314.403.623.429.31.021.582-.113.683-.328.113-.215.081-.492-.001-.692-.172-.422-.505-.506-.488-.587-.025-.068.461-.145.833.398.164.254.295.655.124 1.092-.168.449-.703.721-1.194.673-.492-.028-.979-.38-1.075-.85-.101-.458.09-.834.291-1.059.453-.48.922-.329.886-.265zM255.904 133.633c.004.083-.339.115-.574.505-.112.185-.186.454-.108.684.067.227.314.403.623.429.31.022.582-.113.683-.328.113-.215.081-.492-.001-.692-.172-.422-.505-.506-.488-.587-.025-.068.461-.145.833.398.164.254.295.655.124 1.092-.168.449-.703.721-1.194.673-.492-.028-.979-.38-1.075-.85-.101-.458.09-.834.291-1.059.453-.479.922-.328.886-.265zM260.167 123.82c.004.083-.339.115-.574.504-.112.185-.186.454-.108.684.066.227.314.403.623.429.31.021.582-.113.683-.328.113-.215.081-.492-.001-.692-.172-.422-.505-.506-.488-.587-.025-.068.461-.145.833.398.164.254.295.655.124 1.092-.168.449-.703.721-1.194.673-.492-.028-.979-.38-1.075-.85-.101-.458.09-.834.291-1.059.453-.479.922-.328.886-.264zM226.531 122.87c.004.083-.339.115-.574.505-.112.185-.186.454-.108.684.066.227.314.403.623.429.31.021.582-.113.683-.328.113-.215.081-.492-.001-.692-.172-.422-.505-.506-.488-.587-.025-.068.461-.145.833.398.164.254.295.655.124 1.092-.168.449-.703.721-1.194.673-.492-.028-.979-.38-1.075-.85-.101-.458.09-.834.291-1.059.453-.479.921-.328.886-.265zM255.88 109.411c-.004-.083.339-.115.574-.504.112-.185.186-.454.108-.684-.067-.227-.314-.403-.623-.429-.31-.021-.582.113-.683.328-.113.215-.081.492.001.692.172.422.505.506.488.587.025.068-.461.145-.833-.398a1.195 1.195 0 0 1-.124-1.092c.168-.449.703-.721 1.194-.673.492.028.979.38 1.075.85.101.458-.09.834-.291 1.059-.453.478-.922.327-.886.264zM242.747 103.593c-.004-.083.339-.115.574-.504.112-.185.186-.454.108-.684-.067-.227-.314-.403-.623-.429-.31-.021-.582.113-.683.328-.113.215-.081.492.001.692.172.422.505.506.488.587.025.068-.461.145-.833-.398a1.195 1.195 0 0 1-.124-1.092c.168-.449.703-.721 1.194-.673.492.028.979.38 1.075.85.101.458-.09.834-.291 1.059-.453.478-.922.327-.886.264zM229.767 109.411c-.004-.083.339-.115.574-.504.112-.185.186-.454.108-.684-.067-.227-.314-.403-.623-.429-.31-.021-.582.113-.683.328-.113.215-.081.492.001.692.172.422.505.506.488.587.025.068-.461.145-.833-.398a1.195 1.195 0 0 1-.124-1.092c.168-.449.703-.721 1.194-.673.492.028.979.38 1.075.85.101.458-.09.834-.291 1.059-.453.478-.922.327-.886.264z"/><path style="fill:#e8505b" d="m241.093 157.633 1.166 58.509a3.078 3.078 0 0 0 3.128 3.016 3.071 3.071 0 0 0 3.026-3.035c.116-10.539.502-46.044.567-58.569.013-2.417-2.133-4.256-4.524-3.901a3.944 3.944 0 0 0-3.363 3.98z"/><path d="m241.093 157.633 1.166 58.509a3.078 3.078 0 0 0 3.128 3.016 3.071 3.071 0 0 0 3.026-3.035c.116-10.539.502-46.044.567-58.569.013-2.417-2.133-4.256-4.524-3.901a3.944 3.944 0 0 0-3.363 3.98z" style="opacity:.3"/><path style="fill:#fff" d="M242.898 50.599c.177.198-1.771 2.084-4.595 5.382-1.42 1.642-3.011 3.677-4.674 6.006a84.85 84.85 0 0 0-4.894 7.908 85.175 85.175 0 0 0-3.899 8.446c-1.026 2.671-1.847 5.121-2.433 7.212-1.194 4.174-1.693 6.839-1.955 6.801-.193-.023-.109-2.763.81-7.089.449-2.164 1.167-4.702 2.137-7.463a68.78 68.78 0 0 1 3.869-8.697 68.71 68.71 0 0 1 5.12-8.021c1.768-2.332 3.489-4.331 5.047-5.898 3.101-3.153 5.341-4.736 5.467-4.587zM215.765 159.429c.161.247-2.606 2.046-6.464 5.622l-1.495 1.421c-.517.496-1.004 1.064-1.537 1.621-1.087 1.097-2.109 2.393-3.22 3.722-2.126 2.737-4.266 5.898-6.155 9.423-1.848 3.549-3.253 7.099-4.315 10.398-.471 1.667-.966 3.242-1.26 4.758-.159.755-.354 1.477-.473 2.184l-.331 2.035c-.78 5.202-.706 8.5-1 8.507-.115.004-.226-.814-.327-2.31l-.074-1.246c-.011-.456.013-.95.023-1.483.04-1.063.027-2.283.207-3.615l.231-2.097c.087-.729.254-1.474.388-2.254.242-1.566.697-3.196 1.142-4.92a60.27 60.27 0 0 1 4.313-10.737 60.362 60.362 0 0 1 6.436-9.612c1.174-1.339 2.263-2.633 3.42-3.716.568-.55 1.09-1.108 1.643-1.591l1.602-1.373c.998-.899 2.013-1.577 2.869-2.209.434-.308.83-.606 1.212-.854l1.071-.641c1.295-.761 2.033-1.13 2.094-1.033z"/><path style="fill:#e8505b" d="M172.73 350.21c-2.652-1.521-4.195-4.77-3.698-7.786.497-3.017 3-5.599 6-6.189 2.741-.539 6.164.236 7.892-1.959 1.569-1.993.385-4.64 1.074-7.848.67-3.119 3.437-4.708 6.47-4.664 3.033.045 5.844 2.013 7.358 4.642 1.514 2.629 2.47 6.68 2.116 9.692-.813 6.914-4.504 10.456-9.09 13.385-4.586 2.928-13.285 3.595-18.122.727"/><g style="opacity:.8"><path style="fill:#fff" d="M172.73 350.21c-2.652-1.521-4.195-4.77-3.698-7.786.497-3.017 3-5.599 6-6.189 2.741-.539 6.164.236 7.892-1.959 1.569-1.993.385-4.64 1.074-7.848.67-3.119 3.437-4.708 6.47-4.664 3.033.045 5.844 2.013 7.358 4.642 1.514 2.629 2.47 6.68 2.116 9.692-.813 6.914-4.504 10.456-9.09 13.385-4.586 2.928-13.285 3.595-18.122.727"/></g><path style="fill:#e8505b" d="M284.92 294.819c2.215-4.229 7.191-6.831 11.927-6.237 4.737.594 8.916 4.345 10.017 8.99 1.006 4.244.002 9.632 3.53 12.196 3.205 2.329 7.263.322 12.31 1.205 4.906.858 7.553 5.081 7.665 9.816.112 4.735-2.791 9.239-6.801 11.759s-10.274 4.255-14.996 3.883c-10.836-.854-16.584-6.401-21.43-13.38-4.845-6.979-6.408-20.513-2.222-28.232"/><g style="opacity:.8"><path style="fill:#fff" d="M284.92 294.819c2.215-4.229 7.191-6.831 11.927-6.237 4.737.594 8.916 4.345 10.017 8.99 1.006 4.244.002 9.632 3.53 12.196 3.205 2.329 7.263.322 12.31 1.205 4.906.858 7.553 5.081 7.665 9.816.112 4.735-2.791 9.239-6.801 11.759s-10.274 4.255-14.996 3.883c-10.836-.854-16.584-6.401-21.43-13.38-4.845-6.979-6.408-20.513-2.222-28.232"/></g><path style="fill:#e8505b" d="M204.107 280.637c-1.852.811-4.064 3.527-3.951 6.565.148 3.986 4.288 7.331 8.216 6.637 3.928-.693 6.673-5.254 5.447-9.049-1.227-3.795-6.121-5.888-9.712-4.153"/><g style="opacity:.8"><path style="fill:#fff" d="M204.107 280.637c-1.852.811-4.064 3.527-3.951 6.565.148 3.986 4.288 7.331 8.216 6.637 3.928-.693 6.673-5.254 5.447-9.049-1.227-3.795-6.121-5.888-9.712-4.153"/></g><path style="fill:#e8505b" d="M310.43 364.501c-.926.405-2.032 1.763-1.975 3.282.074 1.993 2.144 3.665 4.108 3.319 1.964-.347 3.336-2.627 2.723-4.525-.613-1.897-3.06-2.943-4.856-2.076"/><g style="opacity:.8"><path style="fill:#fff" d="M310.43 364.501c-.926.405-2.032 1.763-1.975 3.282.074 1.993 2.144 3.665 4.108 3.319 1.964-.347 3.336-2.627 2.723-4.525-.613-1.897-3.06-2.943-4.856-2.076"/></g><path style="fill:#e8505b" d="M282.578 379.387h-62.152c-10.904 0-19.743-8.839-19.743-19.743v-2.767c0-10.904 8.839-19.743 19.743-19.743h62.152c10.904 0 19.743 8.839 19.743 19.743v2.767c0 10.903-8.839 19.743-19.743 19.743z"/><path style="fill:#fff" d="m231.068 361.052.689-1.528c.739.538 1.842.914 2.894.914 1.203 0 1.691-.4 1.691-.939 0-1.641-5.099-.514-5.099-3.771 0-1.491 1.203-2.732 3.695-2.732 1.103 0 2.23.264 3.044.777l-.626 1.541c-.814-.464-1.654-.689-2.431-.689-1.202 0-1.666.451-1.666 1.002 0 1.616 5.099.501 5.099 3.721 0 1.466-1.215 2.719-3.721 2.719-1.389 0-2.792-.413-3.569-1.015zM241.436 354.801h-2.806v-1.654h7.641v1.654h-2.806v7.115h-2.029v-7.115zM252.693 360.037h-4.071l-.776 1.879h-2.079l3.908-8.77h2.004l3.922 8.77h-2.13l-.778-1.879zm-.639-1.541-1.391-3.357-1.391 3.357h2.782zM262.096 361.916l-1.691-2.442h-1.867v2.442h-2.029v-8.77h3.796c2.343 0 3.808 1.216 3.808 3.183 0 1.315-.663 2.279-1.804 2.769l1.967 2.818h-2.18zm-1.904-7.115h-1.653v3.057h1.653c1.24 0 1.867-.576 1.867-1.528 0-.965-.627-1.529-1.867-1.529zM267.402 354.801h-2.807v-1.654h7.642v1.654h-2.806v7.115h-2.029v-7.115z"/><path style="fill:#e8505b" d="m405.181 458.752 11.818 4.145-.126 11.366c-5.658 1.596-6.45 4.457-6.45 4.457l11.826-.27 10.29-20.924-8.141-5.326-15.216-6.656"/><g style="opacity:.6"><path style="fill:#fff" d="m432.538 457.525-10.29 20.924-11.826.271 1.292-1.808 9.605-.748 9.487-19.772z"/></g><path style="fill:#263238" d="M416.831 469.058c.09.119.764-.284 1.679-.278.915-.021 1.595.371 1.683.25.109-.092-.573-.786-1.688-.771-1.114.004-1.785.709-1.674.799zM416.958 466.237c.121.081.631-.629 1.57-.834.937-.215 1.702.21 1.776.085.039-.054-.102-.249-.438-.423a2.196 2.196 0 0 0-1.452-.169 2.2 2.2 0 0 0-1.241.772c-.229.3-.273.536-.215.569zM416.8 462.62c.131.062.519-.63 1.336-.934.814-.314 1.563-.052 1.62-.185.03-.06-.123-.222-.453-.337a2.028 2.028 0 0 0-1.35.035 2.028 2.028 0 0 0-1.035.867c-.172.307-.18.529-.118.554zM415.931 462.613c.145-.035.055-.781.41-1.58.332-.81.932-1.26.857-1.39-.041-.136-.919.196-1.335 1.186-.427.985-.06 1.849.068 1.784zM414.531 461.281c.071.004.173-.603.278-1.588l.159-1.732c.01-.326.097-.654 0-1.102a.954.954 0 0 0-.421-.587c-.23-.157-.598-.129-.805.032-.41.322-.528.696-.672 1.047-.127.36-.192.724-.214 1.07-.04.696.109 1.314.313 1.79.422.965 1.015 1.311 1.037 1.267.07-.063-.4-.491-.693-1.397a4.068 4.068 0 0 1-.178-1.623c.032-.305.099-.621.214-.931.115-.298.286-.652.486-.792.099-.062.163-.064.248-.018a.457.457 0 0 1 .194.275c.07.251.018.618.014.942l-.047 1.738c-.013.99.015 1.604.087 1.609z"/><path style="fill:#263238" d="M414.339 461.796c.046-.031-.302-.548-1.212-.845-.875-.273-2.418-.216-3.355 1.198a.546.546 0 0 0 .051.458.662.662 0 0 0 .31.254c.213.09.393.092.553.112.334.03.658.026.963-.002a5.114 5.114 0 0 0 1.565-.398c.847-.372 1.238-.802 1.2-.847-.048-.069-.507.242-1.328.502-.409.129-.91.239-1.471.265-.28.013-.575.007-.877-.027-.155-.02-.307-.034-.398-.079-.102-.061-.074-.043-.073-.079.011-.057.124-.179.234-.281a2.915 2.915 0 0 1 1.106-.644 2.893 2.893 0 0 1 1.43-.075c.825.171 1.25.556 1.302.488z"/><g style="opacity:.6"><path style="fill:#fff" d="M423.096 457.377a1.403 1.403 0 1 0 2.805-.061 1.403 1.403 0 0 0-2.805.061z"/></g><path style="fill:#e8505b" d="m344.536 453.998.16 15.485s-15.685 5.363-15.934 8.228l30.035.767.74-24.137-15.001-.343z"/><g style="opacity:.6"><path style="fill:#fff" d="M354.017 468.418c.577.174.962.838.812 1.422s-.822.981-1.402.818c-.58-.164-1.067-.946-.852-1.51.214-.564 1.029-.987 1.552-.689"/></g><g style="opacity:.6"><path style="fill:#fff" d="m358.797 478.478-.02-2.436-28.789.175s-1.352.547-1.225 1.493l30.034.768z"/></g><path style="fill:#263238" d="M344.213 469.317c.001.147.733.232 1.442.722.722.471 1.078 1.116 1.215 1.062.136-.025-.06-.907-.93-1.486-.864-.585-1.755-.433-1.727-.298zM341.03 470.54c-.037.141.592.407 1.074 1.04.501.619.609 1.293.755 1.29.137.027.261-.83-.354-1.605-.607-.782-1.468-.865-1.475-.725zM339.144 474.264c.133.035.355-.693-.001-1.505-.35-.816-1.034-1.15-1.099-1.03-.086.118.348.561.63 1.233.299.665.325 1.284.47 1.302zM344.568 465.784c.058.135.736-.05 1.564.028.829.061 1.467.355 1.547.231.087-.104-.528-.663-1.504-.74-.976-.085-1.676.365-1.607.481z"/><path d="m344.571 457.065.025 2.759 14.765.243.082-2.484z" style="opacity:.3"/><path style="fill:#263238" d="M344.593 462.66c-.003.061.574.166 1.505.031a6.77 6.77 0 0 0 1.586-.443c.288-.119.582-.264.875-.436.141-.086.307-.171.463-.342.167-.149.269-.535.087-.778-.148-.235-.417-.341-.634-.352a1.93 1.93 0 0 0-.566.064 5.295 5.295 0 0 0-2.353 1.172c-.713.628-.965 1.169-.916 1.199.065.05.416-.401 1.139-.915.36-.256.819-.518 1.361-.722.271-.1.563-.185.87-.244.32-.075.591-.071.669.073.028.055.031.076-.037.168-.071.084-.202.165-.341.25-.27.167-.541.31-.806.434a8.286 8.286 0 0 1-1.468.52c-.867.216-1.434.241-1.434.321z"/><path style="fill:#263238" d="M344.779 462.875c.051.024.356-.494.434-1.443a4.887 4.887 0 0 0-.523-2.575c-.169-.301-.373-.704-.94-.784-.297-.019-.55.207-.639.403-.104.201-.129.375-.168.548a3.449 3.449 0 0 0 .576 2.583c.567.793 1.175.984 1.188.935.051-.073-.453-.368-.883-1.128a3.473 3.473 0 0 1-.44-1.426 3.087 3.087 0 0 1 .05-.868c.055-.318.181-.572.3-.537.149.001.397.248.513.506.147.273.263.552.352.825.174.547.243 1.069.253 1.508.019.884-.152 1.428-.073 1.453zM414.355 446.107l-34.585-12.861 36.358-5.104 1.831-17.712-67.991 5.933-9.602 13.822 2.529 17.345 66.242 16.841z"/><path style="fill:#263238" d="m341.024 458.503-3.311-63.299a17.802 17.802 0 0 1 23.427-16.37l44.113 14.707 24.211 6.225s4.123 10.174 1.699 18.078c-2.373 7.737-10.851 12.883-18.313 10.672-9.266-2.746-51.808-21.041-51.808-21.041v51.544l-20.018-.516z"/><path style="fill:#455a64" d="M412.209 428.685c-.003.007-.092-.023-.263-.086l-.756-.291-2.893-1.158-10.61-4.328-34.945-14.421-1.779-.737.283-.189-.063 36.521-.064 10.999-.038 2.983-.02.775c-.007.174-.014.264-.021.264s-.014-.089-.021-.264l-.02-.775-.038-2.983-.064-10.999-.062-36.521v-.307l.284.118 1.779.737 34.899 14.532 10.56 4.448 2.863 1.229.741.329c.167.075.251.117.248.124z"/><path style="fill:#455a64" d="M371.468 428.757c.012-.099 2.184.288 4.532 1.598 2.357 1.295 3.837 2.93 3.759 2.993-.085.094-1.658-1.373-3.958-2.635-2.289-1.279-4.368-1.834-4.333-1.956zM357.204 398.911c.095-.053 1.231 1.819 2.332 4.281 1.106 2.46 1.748 4.554 1.646 4.589-.111.04-.921-1.978-2.02-4.422-1.093-2.444-2.061-4.392-1.958-4.448z"/><path style="fill:#ffbe9d" d="m357.302 371.018-7.801-1.458-8.196 8.36 1.513 5.325 9.555-3.519zM285.225 351.937l8.875-1.969 14.279 2.237-.552 9.106s-4.426.642-6.025.123c-1.599-.519-2.923-.066-2.923-.066s.869 1.794-.633 2.087c-1.502.293-3.95.915-4.407-1.207 0 0-1.136.173-1.671-1.218 0 0-1.162.417-1.678-1.613s-.225-5.075 3.791-6.046c.21-.046.304-.534-.089-.513l-6.346 1.188c.003 0-4.222.162-2.621-2.109z"/><path style="fill:#eb996e" d="M292.777 358.291c-.004-.053.574-.152 1.512-.271.478-.043 1.005-.16 1.681-.149.334.022.728.139.993.473.276.345.252.85.058 1.212-.422.766-1.243.954-1.811 1.113-.607.169-1.165.289-1.638.356-.948.135-1.54.093-1.542.047-.004-.059.58-.113 1.494-.313.457-.1.996-.243 1.589-.429.298-.098.615-.178.89-.323.275-.144.546-.356.683-.626.143-.276.147-.6-.015-.807-.163-.216-.45-.327-.73-.352-.574-.03-1.165.057-1.629.067-.944.05-1.53.055-1.535.002z"/><path style="fill:#eb996e" d="M294.305 356.335c.033.104-.449.334-.789.861-.355.516-.386 1.056-.493 1.064-.099.032-.253-.634.181-1.279.427-.648 1.093-.752 1.101-.646zM296.736 359.578c.009-.022.091-.029.237.028.17.05.302.291.42.484.151.235.26.597.148.989-.102.418-.544.691-.923.786-.749.205-1.426.383-1.944.431-.514.052-.833 0-.834-.049-.001-.056.308-.101.789-.218.48-.112 1.143-.33 1.881-.531.354-.1.616-.266.7-.529a1.005 1.005 0 0 0-.051-.747c-.114-.254-.155-.415-.262-.488-.1-.084-.173-.13-.161-.156z"/><path style="fill:#eb996e" d="M297.332 361.128c-.025-.039.099-.182.379-.22.277-.041.651.058.987.265.405.262.489.688.509.935.016.263-.032.419-.081.422-.054.004-.102-.147-.18-.367-.078-.216-.2-.515-.442-.662-.296-.181-.581-.293-.791-.323-.211-.034-.356.001-.381-.05z"/><path style="fill:#ffbe9d" d="m301.747 354.051-4.009 1.59-3.778 2.661s-.011.914 2.128.579c2.138-.334 3.76-1.465 3.76-1.465s2.797 1.763 5.265 1.355"/><path style="fill:#eb996e" d="M305.113 358.773c.003.018-.133.051-.393.097-.261.035-.65.058-1.14.011-.982-.088-2.353-.475-3.819-1.32l.182-.004c-1.244.804-2.852 1.522-4.716 1.588-.276-.003-.557-.023-.834-.128-.266-.107-.58-.298-.618-.716l-.008-.092.089-.061a9786.7 9786.7 0 0 1 3.798-2.632l.016-.011.015-.006c1.225-.467 2.235-.844 2.942-1.096.707-.252 1.111-.38 1.122-.35.011.03-.371.213-1.059.514-.688.301-1.682.72-2.895 1.22l.031-.017-3.759 2.69.08-.153c.006.115.169.288.376.354.208.08.457.101.706.103 1.729-.056 3.337-.743 4.525-1.483l.093-.058.089.054c1.393.839 2.727 1.27 3.668 1.409.947.149 1.503.033 1.509.087zM295.932 353.854c-.017.101-.471.096-.934-.188-.465-.282-.683-.686-.603-.748.082-.07.393.177.797.42.4.248.762.41.74.516z"/><path style="fill:#e8505b" d="m307.608 363.695 33.862 4.91a13.368 13.368 0 0 0 10.154-.847l30.154-15.472-9.03-19.91c-1.282.471-2.764 1.049-3.398 1.435l-24.81 17.882-36.042-1.264-.89 13.266z"/><path style="fill:#ffbe9d" d="m428.79 399.62-2.158-3.787-23.085-5.779 2.719 4.695z"/><path style="fill:#e8505b" d="M372.749 332.377c.032.808-3.388 25.86-3.388 30.978s9.801 10.673 9.801 10.673l10.732 22.786h38.223l-13.067-24.536-5.908-19.654c-2.239-7.449-2.009-11.291-7.553-16.747l-10.692-7.194-18.148 3.694z"/><path style="fill:#e8505b" d="m383.851 352.161 6.42 26.936-32.378-9.123-5.52 9.752 42.13 19.189a11.843 11.843 0 0 0 16.381-13.714l-9.434-36.855c-1.299-5.074-6.634-7.975-11.599-6.307a9.009 9.009 0 0 0-6 10.122z"/><path style="fill:#263238" d="M379.762 375.302c-.007.013-.734-1.315-.972-1.432a20.385 20.385 0 0 1-1.021-.545 29.504 29.504 0 0 1-3.551-2.355c-1.392-1.12-3.082-2.561-4.179-4.749-1.038-2.241-.964-5-.586-7.698.391-2.726.952-5.264 1.281-7.611.359-2.34.607-4.458.739-6.242.138-1.784.16-3.232.155-4.233-.004-1.001-.033-1.555.002-1.558.014-.001.036.136.066.399.032.263.064.652.091 1.154a39.425 39.425 0 0 1-.025 4.257c-.095 1.796-.314 3.927-.654 6.278-.309 2.355-.862 4.918-1.248 7.611-.377 2.675-.444 5.354.522 7.484 1.024 2.094 2.663 3.55 4.017 4.682a36.113 36.113 0 0 0 3.452 2.445c.847.532 1.926 2.085 1.911 2.113zM392.637 330.483c.019.021-.19.252-.584.653-.394.402-.979.968-1.715 1.655a108.765 108.765 0 0 1-5.954 5.133 107.967 107.967 0 0 1-6.308 4.694c-.83.569-1.51 1.017-1.988 1.313-.478.298-.749.451-.765.428-.016-.023.225-.221.674-.559l1.91-1.418a206.201 206.201 0 0 0 6.22-4.778c2.389-1.916 4.5-3.714 6.017-5.029l1.8-1.556c.428-.364.674-.556.693-.536z"/><path style="fill:#263238" d="M383.851 352.161c.012-.003.066.173.159.514l.392 1.502 1.4 5.618 4.663 19.255.08.33-.328-.092-8.255-2.32-24.109-6.852.169-.069-4.096 7.103-1.132 1.921-.304.494c-.07.11-.11.165-.116.161-.006-.004.02-.065.078-.182l.267-.515 1.064-1.959 3.981-7.168.056-.101.113.031 24.14 6.742 8.252 2.331-.248.238-4.524-19.288-1.285-5.646-.327-1.518c-.071-.345-.102-.527-.09-.53zM401.594 350.484c.014-.003.068.156.158.462l.375 1.345 1.304 4.964 4.152 16.415c.793 3.212 1.569 6.26 2.224 9.057.648 2.795.935 5.426.618 7.603-.293 2.179-1.092 3.823-1.808 4.807-.715.998-1.293 1.376-1.293 1.376-.035-.034.5-.459 1.161-1.466.663-.994 1.402-2.617 1.652-4.753.273-2.133-.034-4.709-.699-7.482l-2.254-9.042-4.035-16.444-1.177-4.996-.3-1.363c-.065-.313-.092-.479-.078-.483z"/><path d="M407.468 396.815c4.741.437 7.492-2.267 7.999-5.966.28-2.038-.394-4.073-1.058-6.02-2.906-8.521-5.845-17.113-10.456-24.845 1.742 7.737 3.964 15.166 5.705 22.903.569 2.527.777 3.999.736 6.589-.041 2.59-1.202 5.406-2.926 7.339" style="opacity:.3"/><path style="fill:#fafafa" d="M368.596 358.04c-.045.041-.831-.717-1.914-2.108-1.083-1.388-2.424-3.44-3.555-5.886-1.126-2.45-1.815-4.802-2.167-6.527-.354-1.727-.42-2.816-.36-2.824.082-.012.276 1.054.718 2.739a39.401 39.401 0 0 0 2.282 6.393 39.442 39.442 0 0 0 3.379 5.886c.995 1.432 1.68 2.272 1.617 2.327zM359.317 363.526c-.06.037-.646-.787-1.519-2.166a100.87 100.87 0 0 1-3.217-5.506 101.52 101.52 0 0 1-2.88-5.691c-.685-1.482-1.059-2.421-.996-2.451.066-.032.557.851 1.325 2.287l3.008 5.606 3.077 5.567c.789 1.424 1.264 2.315 1.202 2.354zM346.553 368.51c-.142.023-.842-3.559-1.564-8-.722-4.443-1.192-8.062-1.05-8.085.142-.023.842 3.559 1.564 8.001.722 4.441 1.192 8.061 1.05 8.084zM335.193 367.742c-.07.003-.181-.869-.266-2.286a68.945 68.945 0 0 1-.083-5.544c.052-2.166.193-4.124.345-5.535.152-1.411.304-2.277.374-2.271.074.007.051.884-.007 2.298-.058 1.414-.141 3.364-.192 5.52-.05 2.155-.06 4.108-.069 5.522-.009 1.415-.028 2.292-.102 2.296zM323.815 351.195c.069-.004.189.807.285 2.127.097 1.32.161 3.148.125 5.168a59.163 59.163 0 0 1-.311 5.161c-.144 1.316-.292 2.122-.361 2.115-.15-.015.084-3.268.151-7.285.077-4.016-.04-7.276.111-7.286zM314.48 352.397c.143.013.014 2.745-.288 6.1-.302 3.357-.664 6.067-.807 6.054-.143-.013-.014-2.744.288-6.101.302-3.355.664-6.066.807-6.053zM370.77 343.145c-.146.046-.752-1.611-1.771-3.513-1.009-1.909-2.042-3.338-1.923-3.433.101-.09 1.346 1.227 2.383 3.188 1.046 1.956 1.442 3.724 1.311 3.758zM388.371 370.361c0 .036-.278.066-.785.09-.507.03-1.241.017-2.147-.048-1.809-.127-4.307-.566-6.913-1.537-2.604-.979-4.777-2.287-6.225-3.379-.726-.545-1.289-1.017-1.651-1.373-.367-.35-.557-.556-.533-.583.057-.065.91.655 2.396 1.655a30.483 30.483 0 0 0 6.195 3.192 30.556 30.556 0 0 0 6.767 1.659c1.779.221 2.896.237 2.896.324zM384.723 357.592c-.011.066-.811.005-2.086-.228a34.725 34.725 0 0 1-4.889-1.302 34.698 34.698 0 0 1-4.654-1.987c-1.148-.601-1.816-1.046-1.784-1.105.074-.14 2.903 1.333 6.607 2.599 3.698 1.284 6.834 1.867 6.806 2.023zM382.604 348.406c.024.124-2.487.299-5.301-.841-2.825-1.115-4.523-2.973-4.42-3.047.104-.126 1.896 1.495 4.613 2.563 2.703 1.1 5.119 1.162 5.108 1.325zM397.571 341.873c-.048.081-.828-.452-2.252-.848-1.402-.402-3.52-.576-5.621.203-2.099.787-3.586 2.306-4.381 3.528-.816 1.232-1.057 2.145-1.146 2.115-.049-.005.065-.972.833-2.31.746-1.322 2.275-2.982 4.512-3.821 2.239-.831 4.482-.578 5.911-.067 1.458.508 2.177 1.163 2.144 1.2zM399.335 354.149c.029.058-.6.458-1.7.947-1.097.49-2.676 1.042-4.48 1.404-1.805.358-3.475.455-4.676.424-1.203-.03-1.937-.157-1.933-.222.005-.163 2.965.01 6.507-.712 3.547-.694 6.215-1.99 6.282-1.841zM404.461 369.56c.014.143-3.132.567-7.025.947-3.895.38-7.063.572-7.077.428-.014-.143 3.131-.567 7.026-.947 3.894-.379 7.062-.571 7.076-.428zM408.969 390.909c-.01.034-.293-.023-.799-.158-.507-.128-1.225-.368-2.096-.708-1.745-.673-4.062-1.848-6.44-3.418-2.378-1.572-4.396-3.176-5.829-4.362-1.431-1.189-2.283-1.963-2.239-2.018.046-.057.98.616 2.467 1.729 1.489 1.109 3.532 2.659 5.887 4.216 2.356 1.555 4.609 2.762 6.298 3.514 1.686.759 2.777 1.123 2.751 1.205zM384.729 394.162c-.063.003-.178-.862-.159-2.269.017-1.406.203-3.354.709-5.446.51-2.092 1.238-3.909 1.867-5.166.629-1.259 1.127-1.975 1.182-1.943.15.075-1.56 3.107-2.544 7.232-1.016 4.115-.887 7.594-1.055 7.592zM372.538 387.626c-.122.025-.402-2.845.636-6.184 1.011-3.348 2.851-5.569 2.938-5.479.139.088-1.462 2.382-2.44 5.632-1.01 3.239-.969 6.036-1.134 6.031zM365.74 371.673c.122.115-2.102 2.133-3.725 5.375-1.661 3.225-1.977 6.21-2.143 6.179-.062-.006-.066-.757.15-1.948.214-1.189.691-2.812 1.528-4.467.842-1.652 1.87-2.994 2.704-3.869.836-.877 1.445-1.316 1.486-1.27zM410.66 357.704c.106.08-.971 1.361-2.844 2.094-1.867.75-3.529.554-3.507.423-.003-.157 1.565-.2 3.315-.907 1.759-.684 2.931-1.726 3.036-1.61zM406.077 343.666c.121.058-.506 1.372-1.871 2.482-1.358 1.12-2.77 1.475-2.803 1.345-.055-.144 1.198-.692 2.473-1.748 1.286-1.041 2.071-2.162 2.201-2.079zM389.755 334.325c.085-.104 1.196.766 2.012 2.268.827 1.497.963 2.901.829 2.917-.15.032-.502-1.253-1.285-2.667-.77-1.42-1.664-2.409-1.556-2.518zM414.015 370.91c.077.11-1.213 1.039-3.084 1.517-1.869.491-3.447.305-3.433.172.002-.154 1.518-.205 3.303-.676 1.788-.455 3.138-1.147 3.214-1.013zM421.007 383.215c.012.143-2.425.466-5.442.722-3.018.255-5.474.346-5.487.203-.012-.143 2.424-.466 5.443-.721 3.018-.256 5.474-.347 5.486-.204zM425.861 393.118c-.004.144-3.608.17-8.05.059-4.444-.111-8.042-.318-8.038-.462.004-.144 3.608-.17 8.051-.059 4.442.112 8.041.319 8.037.462z"/><path style="fill:#263238" d="M390.473 293.877c.663 3.39 5.534 4.738 6.015 8.159.206 1.468-.494 2.926-.443 4.407.069 1.991 1.452 3.663 2.16 5.526 1.458 3.838-.189 8.389-3.27 11.103-3.081 2.714-7.313 3.807-11.418 3.892M362.893 297.376c.424 1.809-.526 3.635-1.527 5.2-1.001 1.565-2.13 3.21-2.106 5.068.042 3.293 3.665 5.784 3.519 9.073-.079 1.763-1.26 3.356-1.237 5.121.022 1.707 1.175 3.199 2.484 4.294 1.309 1.095 2.564.707 3.761 1.923 1.261 1.282 3.158 2.502 4.851 3.109 3.837 1.376 7.634-2.092 9.259-2.863"/><path style="fill:#263238" d="M391.468 295.732c-.215-1.667-1.953-2.707-3.594-3.072-1.641-.364-3.395-.322-4.919-1.031-1.349-.628-2.371-1.779-3.569-2.663-2.939-2.168-7.061-2.608-10.391-1.109s-5.734 4.877-6.06 8.514c-.22 2.458.627 5.189 2.738 6.465 2.451 1.482 5.593.57 8.275-.435 2.682-1.005 5.73-2.06 8.301-.798 1.55.761 2.602 2.231 3.689 3.574 1.086 1.343 2.395 2.682 4.096 2.983 1.701.301 3.74-1.004 3.533-2.719"/><path style="fill:#ffbe9d" d="m392.053 331.137-4.046-32.384a2.812 2.812 0 0 0-2.925-2.431l-15.327-1.431c-4.8.236-7.035 6.54-6.596 11.326.488 5.318 1.294 11.79 2.529 15.622 2.484 7.705 8.696 7.768 8.696 7.768-.001-.01 1.159 11.379 1.613 14.195"/><path style="fill:#263238" d="M365.26 312.127c.064.538.573.927 1.136.87.562-.057.967-.538.902-1.076-.065-.538-.573-.928-1.135-.871-.563.057-.968.539-.903 1.077zM364.972 310.134c.146.113.825-.575 1.916-.742 1.087-.182 1.974.254 2.072.102.049-.068-.116-.287-.504-.486-.382-.199-1.005-.354-1.684-.245-.678.109-1.211.448-1.499.755-.296.31-.372.567-.301.616zM376.245 310.524c.064.538.573.927 1.136.87.562-.057.966-.538.902-1.076-.064-.538-.573-.928-1.135-.871-.563.057-.967.539-.903 1.077zM375.72 308.669c.146.112.826-.575 1.917-.742 1.087-.182 1.975.254 2.072.102.049-.068-.115-.287-.504-.486-.382-.199-1.005-.354-1.684-.245-.678.11-1.211.449-1.499.755-.295.31-.372.567-.302.616zM373.022 317.371c-.005-.063-.7-.074-1.821-.044-.283.015-.555 0-.632-.182-.097-.191-.027-.509.057-.854l.493-2.248c.673-3.196 1.115-5.807.986-5.833-.129-.026-.78 2.544-1.453 5.74l-.457 2.255c-.056.333-.181.72.026 1.115a.71.71 0 0 0 .521.336c.187.027.344.005.483-.008 1.116-.113 1.803-.214 1.797-.277z"/><path style="fill:#eb996e" d="M374.385 329.605s5.282-.356 10.055-4.34c-.086.033-2.137 6.09-9.836 6.458l-.219-2.118zM373.893 319.927c.311-.579.954-.971 1.648-1.004.481-.023.995.131 1.342.472.347.34.493.878.289 1.286-.23.46-.83.651-1.373.584-.543-.067-1.044-.34-1.523-.615-.132-.076-.268-.156-.362-.274-.094-.118-.136-.285-.062-.406"/><path style="fill:#263238" d="M376.349 317.625c-.179.017.003 1.201-.879 2.199-.88 1-2.162 1.064-2.146 1.231-.005.077.317.186.851.118a2.983 2.983 0 0 0 1.802-.96c.538-.611.696-1.34.661-1.832-.032-.502-.21-.775-.289-.756zM374.745 305.697c.154.28 1.22-.03 2.523-.075 1.302-.071 2.392.143 2.52-.15.056-.139-.167-.39-.629-.612-.458-.222-1.16-.392-1.941-.358-.781.036-1.465.267-1.901.529-.44.262-.64.532-.572.666zM364.882 306.917c.23.218.941-.156 1.843-.309.896-.184 1.694-.093 1.83-.38.058-.138-.102-.367-.472-.549-.366-.182-.946-.288-1.564-.172-.617.116-1.12.424-1.395.727-.281.304-.346.575-.242.683z"/><path style="fill:#263238" d="M392.491 322.999c-2.103.781-2.471-.294-4.332-1.546-1.861-1.252-3.064-3.43-3.133-5.672-.061-1.978.673-4.117-.289-5.847-1.272-2.287-4.793-2.496-6.078-4.776-.747-1.325-.536-3.046-1.349-4.332-.764-1.209-2.247-1.74-3.651-2.011-1.404-.271-2.881-.377-4.133-1.068-1.252-.691-2.207-2.217-1.679-3.547a75.744 75.744 0 0 1 17.92 1.467c1.365.278 2.81.642 3.753 1.668.998 1.085 1.207 2.657 1.368 4.122l2.367 21.431M394.914 306.104c-.162-2.642 1.594-5.287 4.092-6.164 2.498-.877 5.522.09 7.047 2.254 1.45 2.057 1.499 4.832.832 7.258-.793 2.884-2.898 5.737-5.871 6.069-2.796.313-5.417-1.773-6.638-4.308s-1.348-5.44-1.454-8.251"/><path style="fill:#455a64" d="M398.169 316.676c.01.008.171-.155.341-.524.174-.364.342-.945.34-1.673.004-.727-.154-1.586-.466-2.484-.308-.904-.775-1.828-1.166-2.826-.395-.993-.663-1.984-.634-2.895.023-.905.319-1.717.391-2.44.09-.725-.032-1.331-.22-1.697-.186-.37-.382-.504-.392-.49-.024.02.132.183.267.544.138.358.214.925.099 1.608-.096.687-.421 1.484-.468 2.464-.05.975.227 2.022.63 3.034.4 1.018.875 1.937 1.188 2.805.32.868.495 1.688.522 2.381.072 1.41-.506 2.168-.432 2.193z"/><path style="fill:#455a64" d="M396.786 307.174c-.025.024.437.515 1.398.994a7.119 7.119 0 0 0 4.082.659c1.641-.231 2.967-1.034 3.745-1.755.792-.725 1.102-1.323 1.071-1.34-.049-.038-.427.5-1.233 1.151a7.539 7.539 0 0 1-3.632 1.596 7.535 7.535 0 0 1-3.93-.537c-.953-.405-1.465-.818-1.501-.768zM397.373 308.349c-.031.021.243.501.865 1.134.617.633 1.617 1.385 2.878 1.898 1.263.509 2.504.665 3.388.639.887-.023 1.418-.176 1.41-.213-.008-.059-.546.006-1.407-.036a10.177 10.177 0 0 1-3.26-.716 10.144 10.144 0 0 1-2.839-1.754c-.647-.567-.989-.988-1.035-.952zM397.105 319.554c.005.003.029-.035.071-.112.037-.079.11-.189.168-.35.133-.314.275-.809.302-1.463a4.912 4.912 0 0 0-.495-2.312c-.386-.844-1.151-1.695-2.228-2.182-1.042-.513-2.334-.78-3.275-1.709a2.4 2.4 0 0 1-.722-1.787c-.001-.694.203-1.408.363-2.158.38-1.51.107-3.279-.846-4.699-.479-.705-1.123-1.332-1.917-1.738-.792-.423-1.699-.562-2.581-.622-.886-.06-1.757-.038-2.587-.152-.827-.111-1.638-.346-2.275-.815-.649-.459-1.008-1.181-1.235-1.928-.229-.747-.411-1.53-.735-2.237-.62-1.42-1.58-2.614-2.721-3.4a6.32 6.32 0 0 0-3.618-1.135c-1.18.002-2.232.387-2.98.944a4.89 4.89 0 0 0-1.525 1.808 4.132 4.132 0 0 0-.406 1.438c-.03.341.003.52.003.52.054.013-.055-.751.525-1.896a4.83 4.83 0 0 1 1.516-1.709c.729-.52 1.735-.869 2.866-.856a6.091 6.091 0 0 1 3.451 1.125c1.085.762 2.001 1.915 2.591 3.29.309.684.478 1.431.712 2.209.226.766.626 1.591 1.351 2.104.706.521 1.572.766 2.432.884.869.12 1.743.097 2.611.157.863.057 1.716.193 2.444.582.736.375 1.339.957 1.792 1.619.901 1.342 1.171 2.991.815 4.441-.151.737-.361 1.469-.355 2.226a2.7 2.7 0 0 0 .825 1.991c1.041.997 2.366 1.24 3.375 1.727a4.32 4.32 0 0 1 2.158 2.045c.405.801.54 1.59.534 2.222-.019 1.284-.46 1.914-.404 1.928z"/><path style="fill:#455a64" d="M393.093 297.588s.056-.126.04-.38a1.722 1.722 0 0 0-.427-1.007 2.718 2.718 0 0 0-1.493-.884c-.686-.147-1.483-.012-2.28.283-.803.288-1.609.754-2.52 1.084-.895.323-1.992.523-2.928.002-.94-.505-1.536-1.545-2.141-2.575-.598-1.056-1.375-2.092-2.338-2.964-1.926-1.75-4.325-2.78-6.587-2.922-1.13-.064-2.23.131-3.143.581-.911.448-1.63 1.116-2.075 1.859a3.688 3.688 0 0 0-.544 2.231c.051.685.275 1.246.528 1.651.252.409.535.663.737.808.203.147.325.198.329.191.036-.037-.484-.262-.948-1.069a3.589 3.589 0 0 1-.45-1.594c-.039-.648.118-1.4.56-2.089.431-.691 1.121-1.313 1.99-1.726.867-.414 1.912-.591 2.997-.52 2.171.152 4.504 1.16 6.369 2.858.938.851 1.682 1.838 2.279 2.88.609 1.02 1.226 2.12 2.284 2.686.516.284 1.108.375 1.651.339.549-.033 1.057-.182 1.528-.353.943-.357 1.733-.832 2.508-1.125.765-.301 1.522-.44 2.153-.323a2.62 2.62 0 0 1 1.429.781c.313.336.426.689.46.925.04.239.011.37.032.372z"/></svg>