<svg xmlns="http://www.w3.org/2000/svg" viewBox="0 0 499.999 500" style="enable-background:new 0 0 499.999 500" xml:space="preserve"><path style="fill-rule:evenodd;clip-rule:evenodd;fill:#fff" d="M-.001.001h500.002v500H-.001z"/><path style="fill:#d8eeee" d="M471.271 199.662c-3.851-12.708-14.608-21.642-27.862-22.503-10.79-.701-21.614 5.155-32.246 2.622-23.783-5.666-28.123-38.19-36.455-56.762-10.483-23.367-26.287-45.571-54.712-31.992-15.434 7.374-29.19 36.688-47.291 21.42-21.443-18.088-40.672-39.086-63.181-56.106-20.731-15.675-52.877-11.363-72.877 4.037-10.491 8.078-18.546 18.204-23.484 30.516-4.416 11.012-3.505 22.675-5.254 34.194-1.772 11.673-6.592 21.878-17.056 28.032-9.216 5.42-20.077 4.405-28.695 11.19-19.46 15.322-32.419 52.632-32.161 76.578.257 23.896 12.061 31.213 34.028 32.816 7.495.547 15.712-.264 20.862 6.136 5.215 6.481 5.792 16.826 6.488 24.685 1.975 22.279.36 44.104 21.269 57.864 30.297 19.939 96.691 25.412 108.714-19.333l63.333 29.333c28.028 10.264 67.7-1.372 95.332-8.486 32.166-8.282 60.202-31.007 75.365-60.651 14.476-28.299 25.368-72.286 15.883-103.59z"/><path style="fill:#fff" d="M160.571 96.058s8.723-1.254 9.552-10.022c0 0 1.246 9.395 9.138 9.186-.416.627-8.515 1.043-8.929 9.186 0 0 .207-8.978-9.761-8.35zM172.619 110.941s4.261-.612 4.666-4.897c0 0 .61 4.59 4.466 4.489-.204.306-4.161.509-4.364 4.487 0 0 .102-4.386-4.768-4.079zM157.068 115.717s3.27-.47 3.582-3.759c0 0 .466 3.525 3.427 3.447-.157.234-3.194.391-3.35 3.443 0 0 .077-3.366-3.659-3.131zM64.571 236.058s8.723-1.254 9.552-10.022c0 0 1.246 9.395 9.138 9.186-.416.627-8.515 1.043-8.929 9.186 0 0 .207-8.978-9.761-8.35zM76.619 250.941s4.261-.612 4.666-4.897c0 0 .61 4.59 4.466 4.489-.204.306-4.161.509-4.364 4.487 0 0 .102-4.386-4.768-4.079zM61.068 255.717s3.269-.471 3.582-3.76c0 0 .466 3.525 3.427 3.447-.157.234-3.194.391-3.35 3.443 0 .001.077-3.364-3.659-3.13zM437.571 229.058s8.723-1.254 9.553-10.022c0 0 1.246 9.395 9.138 9.186-.415.627-8.515 1.043-8.929 9.186 0 0 .207-8.978-9.762-8.35zM449.62 243.941s4.26-.612 4.666-4.897c0 0 .609 4.59 4.466 4.489-.204.306-4.161.509-4.364 4.487-.001 0 .101-4.386-4.768-4.079zM434.068 248.717s3.27-.471 3.582-3.76c0 0 .466 3.525 3.427 3.447-.156.234-3.194.391-3.35 3.443 0 .001.077-3.364-3.659-3.13zM451.068 198.717s3.27-.471 3.582-3.76c0 0 .466 3.525 3.427 3.447-.156.234-3.194.391-3.35 3.443 0 .001.077-3.364-3.659-3.13zM193.068 75.717s3.269-.471 3.582-3.76c0 0 .466 3.525 3.427 3.447-.156.234-3.194.391-3.35 3.443 0 .001.077-3.364-3.659-3.13zM107.068 313.717s3.269-.471 3.582-3.76c0 0 .466 3.525 3.427 3.447-.156.234-3.194.391-3.35 3.443 0 .001.077-3.364-3.659-3.13zM169.563 255.032s6.539-.941 7.164-7.52c0 0 .932 7.051 6.854 6.895-.313.469-6.389.781-6.699 6.887 0-.001.154-6.731-7.319-6.262z"/><ellipse style="fill:#e3e3e3" cx="266.782" cy="410.712" rx="193.523" ry="6.866"/><path style="fill:#76a148" d="M423.36 398.172c0 6.575-5.464 10.883-12.005 10.883H203.228c-6.542 0-11.868-4.308-11.868-10.883V122.883c0-6.576 5.326-11.828 11.868-11.828h208.127c6.541 0 12.005 5.252 12.005 11.828v275.289z"/><path transform="rotate(-87.834 308.41 267.784)" style="fill:#527032" d="M181.172 169.103h254.505v197.368H181.172z"/><path transform="rotate(-87.834 308.411 263.513)" style="fill:#e6e6e6" d="M181.172 164.833h254.505v197.368H181.172z"/><path transform="rotate(-4.749 307.301 258.421)" style="fill:#e6e6e6" d="M208.74 131.265h197.369V385.77H208.74z"/><path style="fill:#fff" d="M211.36 129.055h198v253h-198z"/><path style="fill:#ab9f9f" d="M388.36 196.055h-36v-36h36v36zm-35-1h34v-34h-34v34z"/><path style="fill:#41a4d1" d="M390.651 160.058c-2.646 3.192-5.112 6.517-7.465 9.753-5.396 7.423-10.326 15.162-14.725 23.213-1.626-4.188-2.964-8.475-4.295-12.783-1.372-4.439-2.447-9.406-4.37-13.787a123.96 123.96 0 0 0-3.665 1.927c.725 4.516 2.026 9.075 3.042 13.401 1.572 6.704 3.702 13.256 6.547 19.523.935 2.06 4.103 1.637 5.036-.138 5.144-9.79 10.966-19.24 17.465-28.18 2.194-3.018 4.526-5.944 6.881-8.855-1.512-1.334-3.01-2.681-4.451-4.074z"/><path style="fill:#ab9f9f" d="M388.36 252.055h-36v-36h36v36zm-35-1h34v-34h-34v34z"/><path style="fill:#41a4d1" d="M390.651 214.85c-2.646 3.191-5.112 6.516-7.465 9.753a214.009 214.009 0 0 0-14.725 23.214c-1.626-4.187-2.964-8.475-4.295-12.783-1.372-4.438-2.447-9.406-4.37-13.787a126.386 126.386 0 0 0-3.665 1.927c.725 4.515 2.026 9.075 3.042 13.401 1.572 6.703 3.702 13.257 6.547 19.524.935 2.058 4.103 1.636 5.036-.14 4.342-8.263 9.982-17.886 17.465-28.179 2.194-3.018 4.526-5.943 6.881-8.856-1.512-1.335-3.01-2.682-4.451-4.074z"/><path style="fill:#ab9f9f" d="M388.36 308.055h-36v-36h36v36zm-35-1h34v-34h-34v34z"/><path style="fill:#41a4d1" d="M390.651 274.923c-2.646 3.191-5.112 6.516-7.465 9.752-5.396 7.423-10.326 15.162-14.725 23.213-1.626-4.187-2.964-8.474-4.295-12.782-1.372-4.439-2.447-9.405-4.37-13.787a128.909 128.909 0 0 0-3.665 1.927c.725 4.516 2.026 9.076 3.042 13.401 1.572 6.703 3.702 13.257 6.547 19.524.935 2.059 4.103 1.636 5.036-.139 5.144-9.789 10.966-19.239 17.465-28.179 2.194-3.018 4.526-5.944 6.881-8.854-1.512-1.337-3.01-2.684-4.451-4.076z"/><path style="fill:#ab9f9f" d="M388.36 363.055h-36v-35h36v35zm-35-1h34v-33h-34v33z"/><path style="fill:#41a4d1" d="M390.651 330.141c-2.646 3.191-5.112 6.516-7.465 9.753a214.093 214.093 0 0 0-14.725 23.213c-1.626-4.188-2.964-8.475-4.295-12.783-1.372-4.438-2.447-9.406-4.37-13.786a126.413 126.413 0 0 0-3.665 1.928c.725 4.515 2.026 9.075 3.042 13.401 1.572 6.702 3.702 13.256 6.547 19.522.935 2.06 4.103 1.637 5.036-.138 5.144-9.79 10.966-19.239 17.465-28.18 2.194-3.019 4.526-5.942 6.881-8.855-1.512-1.336-3.01-2.683-4.451-4.075z"/><path style="fill:#ab9f9f" d="M335.203 192.555h-102.5a1.5 1.5 0 1 1 0-3h102.5a1.5 1.5 0 1 1 0 3zM316.703 184.389h-84a1.5 1.5 0 1 1 0-3h84a1.5 1.5 0 1 1 0 3zM243.703 176.222h-11a1.5 1.5 0 1 1 0-3h11a1.5 1.5 0 1 1 0 3zM327.203 176.222h-77a1.5 1.5 0 1 1 0-3h77a1.5 1.5 0 1 1 0 3zM241.703 168.055h-9a1.5 1.5 0 1 1 0-3h9a1.5 1.5 0 1 1 0 3zM257.703 168.055h-9a1.5 1.5 0 1 1 0-3h9a1.5 1.5 0 1 1 0 3zM328.703 168.055h-9a1.5 1.5 0 1 1 0-3h9a1.5 1.5 0 1 1 0 3zM314.203 168.055h-47a1.5 1.5 0 1 1 0-3h47a1.5 1.5 0 1 1 0 3zM335.203 360.055h-102.5a1.5 1.5 0 0 1 0-3h102.5a1.5 1.5 0 0 1 0 3zM316.703 351.889h-84a1.5 1.5 0 0 1 0-3h84a1.5 1.5 0 1 1 0 3zM243.703 343.721h-11a1.5 1.5 0 1 1 0-3h11a1.5 1.5 0 0 1 0 3zM327.203 343.721h-77a1.5 1.5 0 1 1 0-3h77a1.5 1.5 0 0 1 0 3zM241.703 335.555h-9a1.5 1.5 0 0 1 0-3h9a1.5 1.5 0 0 1 0 3zM257.703 335.555h-9a1.5 1.5 0 0 1 0-3h9a1.5 1.5 0 0 1 0 3zM328.703 335.555h-9a1.5 1.5 0 0 1 0-3h9a1.5 1.5 0 0 1 0 3zM314.203 335.555h-47a1.5 1.5 0 0 1 0-3h47a1.5 1.5 0 0 1 0 3zM333.703 221.055h-101a1.5 1.5 0 1 0 0 3h101a1.5 1.5 0 1 0 0-3zM232.703 232.555h47.5a1.5 1.5 0 1 0 0-3h-47.5a1.5 1.5 0 1 0 0 3zM308.203 238.055h-75.5a1.5 1.5 0 1 0 0 3h75.5a1.5 1.5 0 1 0 0-3zM243.203 300.555h-9a1.5 1.5 0 0 0 0 3h9a1.5 1.5 0 0 0 0-3zM259.203 300.555h-9a1.5 1.5 0 0 0 0 3h9a1.5 1.5 0 0 0 0-3zM330.203 300.555h-9a1.5 1.5 0 0 0 0 3h9a1.5 1.5 0 0 0 0-3zM315.703 300.555h-47a1.5 1.5 0 0 0 0 3h47a1.5 1.5 0 0 0 0-3zM232.703 280.055h89a1.5 1.5 0 0 0 0-3h-89a1.5 1.5 0 0 0 0 3zM232.703 287.888h89a1.5 1.5 0 0 0 0-3h-89a1.5 1.5 0 0 0 0 3zM321.703 295.722a1.5 1.5 0 0 0 0-3h-89a1.5 1.5 0 0 0 0 3h89z"/><path style="fill:#a5a9b0" d="M335.675 97.687c0-4.845-10.101-5.125-9.524-9.632 1.047-8.187-8.053-15.902-18.193-16.46v-.032c-.138.002-.275.011-.413.016-.139-.005-.276-.014-.414-.016v.032c-10.141.558-19.24 8.273-18.193 16.46.576 4.507-9.524 4.787-9.524 9.632 0 14.079 12.308 25.545 27.718 26.1v.027c.139-.001.275-.01.414-.014.138.003.274.012.413.014v-.027c15.409-.556 27.716-12.021 27.716-26.1zm-28.131-4.062c-3.723-.362-6.635-3.354-6.635-7.015 0-3.661 2.912-6.652 6.635-7.014 3.722.362 6.634 3.353 6.634 7.014s-2.912 6.653-6.634 7.015z"/><path style="fill:#a5a9b0" d="M242.36 101.055h131v39h-131z"/><path style="fill:#bdc2c9" d="M242.36 110.055h131v17h-131z"/><path style="fill:#fff" d="M166.666 224.936s29.57-6.824 35.349-17.915c8.861-17.007-2.251-18.965-2.251-18.965h-9.851s4.403 8.001-1.557 13.154c-3.576 3.092-14.185 5.39-22.591 5.39-.001-.001 1.296-1.075.901 18.336z"/><path style="fill:#87acc7" d="m38.313 196.489 212.294-31.164 3.497 24.082L41.811 220.57z"/><path style="fill:#e6d9c2" d="m282.999 172.365-12.219 7.2-1.84 1.09-14.84 8.75-3.49-24.08 16.66 3.61 1.149.25z"/><path style="fill:#ffe8e6" d="m65.294 217.123-3.497-24.081 7.985-1.172 3.497 24.082z"/><path style="fill:#969da3" d="m38.313 196.489 23.954-3.516 3.497 24.081-23.953 3.516z"/><path style="fill:#41a4d1" d="m282.999 172.365-12.219 7.2-2.361-10.38z"/><path style="fill:#bf6b1d" d="M148.458 134.321c3.979-5.099 5.127-13.028.591-18.037-5.972-6.596-17.097.305-21.286 5.773-4.09 5.339-6.147 14.327 2.005 16.597.908.253 1.813.365 2.716.397-11.373 7.65-14.685 21.988-8.207 35.087 2.488 5.03 7.058 11.159 13.397 10.608 2.938-.255 6.718-1.992 9.491-4.072 5.897.371 13.357 1.115 17.861-1.62 5.518-3.351 7.095-11.09 7.666-17.334 1.32-14.407-10.859-26.611-24.234-27.399z"/><path style="fill:#ffc0a4" d="M213.322 169.985c-.021-.015-.044-.023-.066-.035-.413-.636-1.114-1.165-1.673-1.503-1.24-.749-2.773-1.039-4.201-1.038-2.971.004-6.287 1.991-5.978 5.335.188 2.039 1.914 3.637 3.319 4.919 1.394 1.272 3.782.677 5.101-.397 1.539-1.253 6.347-5.207 3.498-7.281zM200.864 172.696c-.336-.667-.927-1.08-1.652-1.205a1.259 1.259 0 0 0-.194-.016c-.344-.163-.783-.163-1.169-.018-.791.297-1.268 1.197-1.385 1.989-.262 1.76 1.983 3.279 3.545 2.563 1.205-.552 1.4-2.234.855-3.313z"/><path style="fill:#fff" d="m172.891 206.903-12.569 52.365-17.28.963c-.494-1.956-13.421-53.328-13.421-53.328s4.989-1.479 12.013-2.509c5.966-.874 13.396-1.423 20.492-.47 3.775.51 7.453 1.442 10.765 2.979z"/><path style="fill:#f0dad8" d="M138.705 233.34s19.839 2.065 25.314-2.063c-.001.001-6.843 16.509-25.314 2.063z"/><path style="fill:#ffc0a4" d="m153.418 226.361-11.784-21.967c5.966-.874 13.396-1.423 20.492-.47.909 8.148-8.708 22.437-8.708 22.437z"/><path style="fill:#dda68e" d="M152.186 208.215c-2.513 0-6.43-.766-6.43-3.294l.646-8.427.565-7.367c0-2.528 2.037-4.575 4.55-4.575 1.256 0 2.394.513 3.217 1.338a4.575 4.575 0 0 1 1.333 3.236l.557 7.378.535 7.075c.729 4.272-4.973 4.636-4.973 4.636z"/><path style="fill:#ffc0a4" d="M156.422 153.123c-2.5-2.287-4.899-5.069-6.971-8.142-4.509 8.928-11.608 18.21-19.596 22.29.025 2.238.204 4.513.503 6.763 1.746 13.106 12.409 19.568 23.004 17.922 9.96-1.548 14.917-9.635 13.171-22.741-.508-3.813-1.397-7.604-2.728-11.028a32.753 32.753 0 0 1-7.383-5.064z"/><path style="fill:#ffc0a4" d="M166.347 166.468s4.061-7.446 6.371-1.124c1.837 5.034-2.295 9.469-5.294 8.883-2.992-.579-1.077-7.759-1.077-7.759z"/><path style="fill:#c2806d" d="M166.457 167.683s2.947-4.749 4.115-2.853c1.169 1.888.948 4.335.948 4.335s-.725-2.661-2.703-1.119c0 0 2.118 4.25-1.915 3.066 0 0-1.691-1.284-.445-3.429z"/><path style="fill:#ffc0a4" d="M130.017 171.307s-5.872-6.123-6.443.583c-.457 5.34 4.693 8.538 7.433 7.188 2.736-1.342-.99-7.771-.99-7.771z"/><path style="fill:#c2806d" d="M130.229 172.508s-4.087-3.812-4.718-1.676c-.634 2.128.218 4.432.218 4.432s.005-2.758 2.316-1.788c0 0-.934 4.657 2.651 2.459 0 0 1.298-1.682-.467-3.427z"/><path style="fill:#341212" d="M158.783 162.979c2.995-.708 5.702 1.726 6.079 4.563.039.291-.317.395-.5.206-1.472-1.54-2.086-3.157-4.444-3.512-3.474-.513-4.846 3.158-4.677 5.88a.203.203 0 0 1-.402.054c-.732-3.181.597-6.4 3.944-7.191z"/><path style="fill:#c2806d" d="M148.986 176.003s2.783 3.541 4.719-.704l-4.719.704z"/><path style="fill:#341212" d="M140.447 165.421c-3.08.103-5.053 3.158-4.675 5.995.039.292.409.299.535.068 1.015-1.868 1.188-3.593 3.371-4.553 3.216-1.402 5.501 1.779 6.056 4.453.05.258.41.207.402-.054-.131-3.262-2.256-6.02-5.689-5.909z"/><path style="fill:#d78471" d="M145.869 175.919c.278 2.085-1.66 4.065-4.331 4.421-2.665.355-5.057-1.048-5.334-3.134-.277-2.081 1.664-4.063 4.329-4.418 2.67-.356 5.059 1.049 5.336 3.131zM164.97 173.374c.278 2.086-1.659 4.066-4.328 4.421-2.667.355-5.056-1.048-5.334-3.134-.277-2.081 1.661-4.063 4.328-4.418 2.669-.356 5.056 1.051 5.334 3.131z"/><path style="fill:#843916" d="M134.615 163.968s7.458-9.35 10.953-2.344c0 0-5.716-1.446-10.953 2.344zM153.421 160.48s1.766-6.818 10.677-.457c0 0-5.131-2.394-10.677.457z"/><path style="fill:#fff" d="M143.221 179.566s12.584-.49 14.681-2.548c0-.001-.157 13.657-14.681 2.548z"/><path style="fill:#dda68e" d="M138.925 405.387c.787 4.875-4.604 8.016-8.849 7.247-1.729-.315-4.866-4.622-3.532-6.139 1.417-1.608 2.628-3.299 3.729-5.021a106.039 106.039 0 0 0 2.376-3.869c.384-.645.988-1.29 1.373-1.931-.604-4.304-.662-8.588-1.662-12.893v.272h9.373c-1.237 4-2.821 8.774-4.844 13.578.11.351.218.643.326 1.018.111.397.22.765.326 1.176a79.458 79.458 0 0 1 1.384 6.562z"/><path style="fill:#969da3" d="M130.077 412.634c-1.729-.315-4.866-4.622-3.532-6.139 1.417-1.608 2.628-3.299 3.729-5.021a106.039 106.039 0 0 0 2.376-3.869c1.225.443 2.872.699 4.566-.026.111.397.22.801.326 1.214a80.043 80.043 0 0 1 1.385 6.594c.785 4.875-4.606 8.016-8.85 7.247z"/><path style="fill:#c787b6" d="M140.752 262.164s-14.336 31.177-8.482 130.396c0 0 6.18 1.35 8.131.675 0 0 17.69-86.228 13.398-129.51l-13.047-1.561z"/><path style="fill:#dda68e" d="M164.067 405.387c-.788 4.875 4.605 8.016 8.849 7.247 1.728-.315 4.866-4.622 3.532-6.139-1.417-1.608-2.628-3.299-3.729-5.021a106.039 106.039 0 0 1-2.376-3.869c-.384-.645-.124-1.29-.508-1.931.604-4.304-1.809-9.315-.809-13.62h-5.667c1.237 4 .721 9.607 2.743 14.411a50.492 50.492 0 0 0-.65 2.319 80.016 80.016 0 0 0-1.385 6.603z"/><path style="fill:#969da3" d="M172.916 412.634c1.728-.315 4.866-4.622 3.532-6.139-1.417-1.608-2.628-3.299-3.729-5.021a106.039 106.039 0 0 1-2.376-3.869c-1.227.443-2.873.699-4.565-.026-.113.397-.222.801-.326 1.214a78.813 78.813 0 0 0-1.385 6.594c-.788 4.875 4.605 8.016 8.849 7.247z"/><path style="fill:#c787b6" d="M162.241 262.164s14.334 31.177 8.482 130.396c0 0-6.179 1.35-8.13.675 0 0-17.692-86.228-13.399-129.51l13.047-1.561z"/><path style="fill:#855a24" d="M139.912 264.149s11.13 3.441 22.438-1.182l.146-4.618s-5.797 1.806-10.728 1.503c-4.929-.3-11.596-1.203-11.596-1.203l-.26 5.5z"/><path style="fill:#c787b6" d="M142.492 257.747s-1.88 7.525-.141 8.428c1.74.902 2.764.506 2.764.506l-.015-8.331-2.608-.603zM160.379 257.145s1.175 7.045-.305 8.355c-2.001 1.77-2.114.338-2.114.338l-.192-8.092 2.611-.601z"/><path style="fill:#edb92b" d="M148.29 258.349c0 .902.292 6.47.292 6.47l6.232.15.579-6.471-7.103-.149zm5.508 5.441-4.205-.25-.144-3.484h4.64l-.291 3.734z"/><path style="fill:#ffc0a4" d="M146.141 260.605c-1.143-.839-3.807-1.179-5.068-.968-1.512.252-2.889.617-4.23 1.146.198-.137.396-.271.595-.402 1.049-.686 2.133-.744 3.303-1.073.779-.219 1.377-.694 1.386-1.52.003-.258-.168-.421-.388-.513-.833-.346-1.85.244-2.696.408-1.154.222-1.974.624-2.959 1.285-.908.608-1.723 1.352-2.481 2.137a3.262 3.262 0 0 0-.254.297c-3.098-2.755-8.206-7.195-11.977-9.952-2.017 2.363-4.175 3.543-6.482 5.71 4.951 3.957 13.733 9.105 17.016 10.988.204 1.027 1.587 1.318 2.676 1.346 1.727.044 3.44-1.4 4.771-2.323 1.454-1.009 2.844-1.739 4.577-2.081 1.218-.242 2.52-.57 3.302-1.605.779-1.03-.303-2.302-1.091-2.88z"/><path style="fill:#fff" d="M129.883 206.942c-2.733 2.254-23.107 25.849-26.112 38.17 0 0 3.152 7.923 13.66 15.582l7.093-7.395s-8.144-5.667-8.144-10.036c0-1.849 17.791-21.126 19.176-26.673 2.612-10.454-2.94-11.901-5.673-9.648z"/><path style="fill:#a5b7c6" d="M260.104 465.465a7.454 7.454 0 0 0-1.108 1.453l-.465-.241a.605.605 0 0 0-1.188.204.603.603 0 0 0 .854.476l.451.234a7.266 7.266 0 0 0-.539 1.743l.747.132a6.603 6.603 0 0 1 1.792-3.473l-.544-.528zM265.591 463.164c-.171 0-.341.006-.509.017l-.074-.626a.716.716 0 1 0-.753.086l.073.624a7.592 7.592 0 0 0-2.06.646l.327.685a6.883 6.883 0 0 1 2.995-.674c.497 0 .993.053 1.476.158l.16-.741a7.65 7.65 0 0 0-1.635-.175zM272.194 465.711a.602.602 0 1 0-.147-1.197.603.603 0 0 0-.53.608l-.416.363a7.705 7.705 0 0 0-1.407-1.14l-.404.642a6.748 6.748 0 0 1 2.564 2.925l.69-.313a7.426 7.426 0 0 0-.942-1.545l.402-.351a.6.6 0 0 0 .19.008zM265.044 473.372c-.386.023-.775.035-1.157.035-.88 0-1.733-.061-2.479-.18a8.536 8.536 0 0 1-1.271-.292 6.173 6.173 0 0 0 5.389 3.125c2.855 0 5.263-1.916 5.949-4.503-.682.449-1.505.825-2.458 1.122-1.179.368-2.554.608-3.973.693z"/><path style="fill:#a5b7c6" d="M265.591 464.68c-3.351 0-6.079 2.666-6.079 5.943 0 .425.046.849.137 1.261.674.483 2.706.891 5.348.731 2.88-.174 5.297-.958 6.672-2.159a5.907 5.907 0 0 0-.045-.581c-.38-2.961-2.974-5.195-6.033-5.195zm-2.159 6.515c-1.02 0-1.85-.83-1.85-1.85 0-1.021.83-1.851 1.85-1.851s1.85.83 1.85 1.851c0 1.02-.83 1.85-1.85 1.85zm4.737-.908c-.75 0-1.36-.61-1.36-1.36s.61-1.36 1.36-1.36 1.36.61 1.36 1.36-.61 1.36-1.36 1.36zM281.595 466.547c-.295-.116-.806-.31-1.383-.238-.551.069-.844.341-.844 1.007v.866h2.229v1.717h-2.229v5.455h-1.932v-5.455h-1.339v-1.717h1.339v-.889c0-1.68.896-2.782 2.568-2.782a3.93 3.93 0 0 1 1.59.308v1.728zM286.297 469.878a3.299 3.299 0 0 0-.525-.046c-.896 0-1.51.548-1.51 1.613v3.908h-1.933v-7.172h1.873v.784c.451-.673 1.14-.977 2.021-.977.414 0 .848.128 1.095.337l-1.021 1.553zM293.965 471.757c0 .222-.016.488-.037.651h-5.085c.207 1.036.933 1.487 1.843 1.487.622 0 1.295-.252 1.813-.689l1.133 1.243c-.814.748-1.851 1.089-3.057 1.089-2.198 0-3.724-1.496-3.724-3.753 0-2.258 1.48-3.797 3.627-3.797 2.065.002 3.48 1.534 3.487 3.769zm-5.114-.666h3.175c-.178-.918-.732-1.437-1.562-1.437-.91.001-1.443.549-1.613 1.437zM301.619 471.757c0 .222-.016.488-.037.651h-5.085c.207 1.036.933 1.487 1.843 1.487.622 0 1.296-.252 1.814-.689l1.133 1.243c-.815.748-1.851 1.089-3.058 1.089-2.198 0-3.723-1.496-3.723-3.753 0-2.258 1.48-3.797 3.627-3.797 2.064.002 3.478 1.534 3.486 3.769zm-5.115-.666h3.175c-.178-.918-.733-1.437-1.561-1.437-.91.001-1.444.549-1.614 1.437zM309.964 471.764c0 2.154-1.495 3.775-3.472 3.775-.962 0-1.644-.378-2.109-.933v3.708h-1.925v-10.133h1.888v.792c.467-.585 1.154-.984 2.139-.984 1.984.001 3.479 1.622 3.479 3.775zm-5.677 0c0 1.133.748 1.977 1.844 1.977 1.14 0 1.85-.881 1.85-1.977 0-1.095-.71-1.976-1.85-1.976-1.096.001-1.844.844-1.844 1.976zM313.068 465.836c0 .696-.541 1.229-1.236 1.229a1.208 1.208 0 0 1-1.229-1.229 1.22 1.22 0 0 1 1.229-1.243 1.225 1.225 0 0 1 1.236 1.243zm-.26 9.518h-1.932v-7.172h1.932v7.172zM316.032 470.736l2.702-2.554h2.368l-3.478 3.375 3.501 3.797h-2.376l-2.717-2.901v2.901H314.1v-10.658h1.932v6.04zM184.412 475.29v-1.055c-.527.718-1.391 1.23-2.387 1.23-1.846 0-3.149-1.406-3.149-3.706 0-2.256 1.289-3.721 3.149-3.721.952 0 1.816.469 2.387 1.245v-3.765h1.099v9.771h-1.099zm0-1.919v-3.208c-.395-.615-1.245-1.143-2.124-1.143-1.42 0-2.27 1.172-2.27 2.739s.85 2.725 2.27 2.725c.879 0 1.729-.498 2.124-1.113zM186.932 471.745c0-2.051 1.465-3.706 3.486-3.706 2.139 0 3.398 1.67 3.398 3.794v.278h-5.727c.088 1.333 1.025 2.446 2.549 2.446.806 0 1.626-.322 2.182-.894l.527.718c-.703.703-1.655 1.084-2.812 1.084-2.095 0-3.603-1.508-3.603-3.72zm3.471-2.798c-1.509 0-2.256 1.274-2.314 2.358h4.644c-.015-1.055-.718-2.358-2.33-2.358zM194.607 474.352l.571-.791c.469.542 1.362 1.011 2.329 1.011 1.084 0 1.67-.513 1.67-1.216 0-1.714-4.38-.659-4.38-3.281 0-1.099.952-2.036 2.636-2.036 1.202 0 2.051.454 2.623 1.025l-.513.762c-.424-.513-1.201-.894-2.109-.894-.966 0-1.567.483-1.567 1.113 0 1.553 4.379.527 4.379 3.281 0 1.187-.952 2.139-2.783 2.139-1.157 0-2.138-.351-2.856-1.113zM201.477 466.471c0-.41.337-.747.732-.747a.75.75 0 0 1 .747.747c0 .41-.337.732-.747.732a.734.734 0 0 1-.732-.732zm.19 8.819v-7.075h1.099v7.075h-1.099zM204.582 477.106l.556-.82c.586.703 1.289.967 2.3.967 1.172 0 2.271-.571 2.271-2.124v-1.011c-.513.718-1.377 1.26-2.373 1.26-1.846 0-3.149-1.377-3.149-3.662 0-2.271 1.289-3.677 3.149-3.677.952 0 1.802.469 2.373 1.245v-1.069h1.099v6.87c0 2.344-1.641 3.076-3.369 3.076-1.202 0-2.023-.236-2.857-1.055zm5.126-3.853v-3.091c-.381-.615-1.23-1.143-2.109-1.143-1.421 0-2.27 1.128-2.27 2.695 0 1.553.849 2.695 2.27 2.695.879.002 1.729-.54 2.109-1.156zM217.413 475.29v-4.629c0-1.245-.63-1.641-1.582-1.641-.864 0-1.685.527-2.094 1.099v5.171h-1.099v-7.075h1.099v1.025c.497-.586 1.464-1.201 2.519-1.201 1.479 0 2.256.747 2.256 2.285v4.966h-1.099zM219.932 471.745c0-2.051 1.465-3.706 3.486-3.706 2.139 0 3.398 1.67 3.398 3.794v.278h-5.727c.088 1.333 1.025 2.446 2.548 2.446.806 0 1.626-.322 2.183-.894l.527.718c-.703.703-1.655 1.084-2.813 1.084-2.093 0-3.602-1.508-3.602-3.72zm3.472-2.798c-1.509 0-2.256 1.274-2.314 2.358h4.643c-.015-1.055-.718-2.358-2.329-2.358zM233.35 475.29v-1.055c-.527.718-1.392 1.23-2.388 1.23-1.845 0-3.149-1.406-3.149-3.706 0-2.256 1.289-3.721 3.149-3.721.952 0 1.817.469 2.388 1.245v-3.765h1.098v9.771h-1.098zm0-1.919v-3.208c-.396-.615-1.245-1.143-2.124-1.143-1.421 0-2.27 1.172-2.27 2.739s.85 2.725 2.27 2.725c.879 0 1.728-.498 2.124-1.113zM239.692 475.29v-9.771h1.099v3.765c.571-.776 1.421-1.245 2.388-1.245 1.845 0 3.149 1.465 3.149 3.721 0 2.3-1.304 3.706-3.149 3.706-.996 0-1.86-.513-2.388-1.23v1.055h-1.099zm3.208-.806c1.436 0 2.285-1.157 2.285-2.725 0-1.567-.85-2.739-2.285-2.739-.864 0-1.729.527-2.109 1.143v3.208c.38.615 1.245 1.113 2.109 1.113zM247.528 477.062c.161.073.425.117.601.117.483 0 .806-.161 1.055-.747l.469-1.069-2.959-7.148h1.187l2.358 5.801 2.344-5.801h1.2l-3.544 8.511c-.425 1.024-1.143 1.421-2.08 1.436a3.5 3.5 0 0 1-.806-.104l.175-.996z"/></svg>