<?xml version="1.0" encoding="utf-8"?>
<!-- Generator: Adobe Illustrator 27.5.0, SVG Export Plug-In . SVG Version: 6.00 Build 0)  -->
<svg version="1.1" xmlns="http://www.w3.org/2000/svg" xmlns:xlink="http://www.w3.org/1999/xlink" x="0px" y="0px"
	 viewBox="0 0 499.999 500" style="enable-background:new 0 0 499.999 500;" xml:space="preserve">
<g id="BACKGROUND">
	<rect x="-0.001" y="0.001" style="fill-rule:evenodd;clip-rule:evenodd;fill:#FFFFFF;" width="500.002" height="500"/>
</g>
<g id="OBJECTS">
	<g>
		<g>
			<path style="fill:#D8EEEE;" d="M471.271,199.662c-3.851-12.708-14.608-21.642-27.862-22.503
				c-10.79-0.701-21.614,5.155-32.246,2.622c-23.783-5.666-28.123-38.19-36.455-56.762c-10.483-23.367-26.287-45.571-54.712-31.992
				c-15.434,7.374-29.19,36.688-47.291,21.42c-21.443-18.088-40.672-39.086-63.181-56.106
				c-20.731-15.675-52.877-11.363-72.877,4.037c-10.491,8.078-18.546,18.204-23.484,30.516c-4.416,11.012-3.505,22.675-5.254,34.194
				c-1.772,11.673-6.592,21.878-17.056,28.032c-9.216,5.42-20.077,4.405-28.695,11.19c-19.46,15.322-32.419,52.632-32.161,76.578
				c0.257,23.896,12.061,31.213,34.028,32.816c7.495,0.547,15.712-0.264,20.862,6.136c5.215,6.481,5.792,16.826,6.488,24.685
				c1.975,22.279,0.36,44.104,21.269,57.864c30.297,19.939,96.691,25.412,108.714-19.333l63.333,29.333
				c28.028,10.264,67.7-1.372,95.332-8.486c32.166-8.282,60.202-31.007,75.365-60.651
				C469.864,274.953,480.756,230.966,471.271,199.662z"/>
			<g>
				<g>
					<path style="fill:#FFFFFF;" d="M160.571,96.058c0,0,8.723-1.254,9.552-10.022c0,0,1.246,9.395,9.138,9.186
						c-0.416,0.627-8.515,1.043-8.929,9.186C170.332,104.408,170.539,95.43,160.571,96.058z"/>
					<path style="fill:#FFFFFF;" d="M172.619,110.941c0,0,4.261-0.612,4.666-4.897c0,0,0.61,4.59,4.466,4.489
						c-0.204,0.306-4.161,0.509-4.364,4.487C177.387,115.02,177.489,110.634,172.619,110.941z"/>
					<path style="fill:#FFFFFF;" d="M157.068,115.717c0,0,3.27-0.47,3.582-3.759c0,0,0.466,3.525,3.427,3.447
						c-0.157,0.234-3.194,0.391-3.35,3.443C160.727,118.848,160.804,115.482,157.068,115.717z"/>
				</g>
				<g>
					<path style="fill:#FFFFFF;" d="M64.571,236.058c0,0,8.723-1.254,9.552-10.022c0,0,1.246,9.395,9.138,9.186
						c-0.416,0.627-8.515,1.043-8.929,9.186C74.332,244.408,74.539,235.43,64.571,236.058z"/>
					<path style="fill:#FFFFFF;" d="M76.619,250.941c0,0,4.261-0.612,4.666-4.897c0,0,0.61,4.59,4.466,4.489
						c-0.204,0.306-4.161,0.509-4.364,4.487C81.387,255.02,81.489,250.634,76.619,250.941z"/>
					<path style="fill:#FFFFFF;" d="M61.068,255.717c0,0,3.269-0.471,3.582-3.76c0,0,0.466,3.525,3.427,3.447
						c-0.157,0.234-3.194,0.391-3.35,3.443C64.727,258.848,64.804,255.483,61.068,255.717z"/>
				</g>
				<path style="fill:#FFFFFF;" d="M437.571,229.058c0,0,8.723-1.254,9.553-10.022c0,0,1.246,9.395,9.138,9.186
					c-0.415,0.627-8.515,1.043-8.929,9.186C447.333,237.408,447.54,228.43,437.571,229.058z"/>
				<path style="fill:#FFFFFF;" d="M449.62,243.941c0,0,4.26-0.612,4.666-4.897c0,0,0.609,4.59,4.466,4.489
					c-0.204,0.306-4.161,0.509-4.364,4.487C454.387,248.02,454.489,243.634,449.62,243.941z"/>
				<path style="fill:#FFFFFF;" d="M434.068,248.717c0,0,3.27-0.471,3.582-3.76c0,0,0.466,3.525,3.427,3.447
					c-0.156,0.234-3.194,0.391-3.35,3.443C437.727,251.848,437.804,248.483,434.068,248.717z"/>
				<path style="fill:#FFFFFF;" d="M451.068,198.717c0,0,3.27-0.471,3.582-3.76c0,0,0.466,3.525,3.427,3.447
					c-0.156,0.234-3.194,0.391-3.35,3.443C454.727,201.848,454.804,198.483,451.068,198.717z"/>
				<path style="fill:#FFFFFF;" d="M193.068,75.717c0,0,3.269-0.471,3.582-3.76c0,0,0.466,3.525,3.427,3.447
					c-0.156,0.234-3.194,0.391-3.35,3.443C196.727,78.848,196.804,75.483,193.068,75.717z"/>
				<path style="fill:#FFFFFF;" d="M107.068,313.717c0,0,3.269-0.471,3.582-3.76c0,0,0.466,3.525,3.427,3.447
					c-0.156,0.234-3.194,0.391-3.35,3.443C110.727,316.848,110.804,313.483,107.068,313.717z"/>
				<path style="fill:#FFFFFF;" d="M169.563,255.032c0,0,6.539-0.941,7.164-7.52c0,0,0.932,7.051,6.854,6.895
					c-0.313,0.469-6.389,0.781-6.699,6.887C176.882,261.293,177.036,254.563,169.563,255.032z"/>
			</g>
		</g>
		<ellipse style="fill:#E3E3E3;" cx="266.782" cy="410.712" rx="193.523" ry="6.866"/>
		<g>
			<g>
				<path style="fill:#76A148;" d="M423.36,398.172c0,6.575-5.464,10.883-12.005,10.883H203.228
					c-6.542,0-11.868-4.308-11.868-10.883V122.883c0-6.576,5.326-11.828,11.868-11.828h208.127c6.541,0,12.005,5.252,12.005,11.828
					V398.172z"/>
				<g>
					
						<rect x="181.172" y="169.103" transform="matrix(0.0378 -0.9993 0.9993 0.0378 29.1561 565.8555)" style="fill:#527032;" width="254.505" height="197.368"/>
					<g>
						
							<rect x="181.172" y="164.833" transform="matrix(0.0378 -0.9993 0.9993 0.0378 33.4245 561.7482)" style="fill:#E6E6E6;" width="254.505" height="197.368"/>
						
							<rect x="208.74" y="131.265" transform="matrix(0.9966 -0.0828 0.0828 0.9966 -20.3421 26.3319)" style="fill:#E6E6E6;" width="197.369" height="254.505"/>
						<g>
							<rect x="211.36" y="129.055" style="fill:#FFFFFF;" width="198" height="253"/>
							<g>
								<g>
									<g>
										<path style="fill:#AB9F9F;" d="M388.36,196.055h-36v-36h36V196.055z M353.36,195.055h34v-34h-34V195.055z"/>
									</g>
									<path style="fill:#41A4D1;" d="M390.651,160.058c-2.646,3.192-5.112,6.517-7.465,9.753
										c-5.396,7.423-10.326,15.162-14.725,23.213c-1.626-4.188-2.964-8.475-4.295-12.783c-1.372-4.439-2.447-9.406-4.37-13.787
										c-1.233,0.622-2.455,1.265-3.665,1.927c0.725,4.516,2.026,9.075,3.042,13.401c1.572,6.704,3.702,13.256,6.547,19.523
										c0.935,2.06,4.103,1.637,5.036-0.138c5.144-9.79,10.966-19.24,17.465-28.18c2.194-3.018,4.526-5.944,6.881-8.855
										C393.59,162.798,392.092,161.451,390.651,160.058z"/>
								</g>
								<g>
									<g>
										<path style="fill:#AB9F9F;" d="M388.36,252.055h-36v-36h36V252.055z M353.36,251.055h34v-34h-34V251.055z"/>
									</g>
									<path style="fill:#41A4D1;" d="M390.651,214.85c-2.646,3.191-5.112,6.516-7.465,9.753
										c-5.396,7.423-10.326,15.163-14.725,23.214c-1.626-4.187-2.964-8.475-4.295-12.783c-1.372-4.438-2.447-9.406-4.37-13.787
										c-1.233,0.622-2.455,1.266-3.665,1.927c0.725,4.515,2.026,9.075,3.042,13.401c1.572,6.703,3.702,13.257,6.547,19.524
										c0.935,2.058,4.103,1.636,5.036-0.14c4.342-8.263,9.982-17.886,17.465-28.179c2.194-3.018,4.526-5.943,6.881-8.856
										C393.59,217.589,392.092,216.242,390.651,214.85z"/>
								</g>
								<g>
									<g>
										<path style="fill:#AB9F9F;" d="M388.36,308.055h-36v-36h36V308.055z M353.36,307.055h34v-34h-34V307.055z"/>
									</g>
									<path style="fill:#41A4D1;" d="M390.651,274.923c-2.646,3.191-5.112,6.516-7.465,9.752
										c-5.396,7.423-10.326,15.162-14.725,23.213c-1.626-4.187-2.964-8.474-4.295-12.782c-1.372-4.439-2.447-9.405-4.37-13.787
										c-1.233,0.623-2.455,1.266-3.665,1.927c0.725,4.516,2.026,9.076,3.042,13.401c1.572,6.703,3.702,13.257,6.547,19.524
										c0.935,2.059,4.103,1.636,5.036-0.139c5.144-9.789,10.966-19.239,17.465-28.179c2.194-3.018,4.526-5.944,6.881-8.854
										C393.59,277.662,392.092,276.315,390.651,274.923z"/>
								</g>
								<g>
									<g>
										<path style="fill:#AB9F9F;" d="M388.36,363.055h-36v-35h36V363.055z M353.36,362.055h34v-33h-34V362.055z"/>
									</g>
									<path style="fill:#41A4D1;" d="M390.651,330.141c-2.646,3.191-5.112,6.516-7.465,9.753
										c-5.396,7.423-10.326,15.163-14.725,23.213c-1.626-4.188-2.964-8.475-4.295-12.783c-1.372-4.438-2.447-9.406-4.37-13.786
										c-1.233,0.622-2.455,1.267-3.665,1.928c0.725,4.515,2.026,9.075,3.042,13.401c1.572,6.702,3.702,13.256,6.547,19.522
										c0.935,2.06,4.103,1.637,5.036-0.138c5.144-9.79,10.966-19.239,17.465-28.18c2.194-3.019,4.526-5.942,6.881-8.855
										C393.59,332.88,392.092,331.533,390.651,330.141z"/>
								</g>
								<g>
									<g>
										<g>
											<path style="fill:#AB9F9F;" d="M335.203,192.555h-102.5c-0.828,0-1.5-0.671-1.5-1.5c0-0.829,0.672-1.5,1.5-1.5h102.5
												c0.828,0,1.5,0.671,1.5,1.5C336.703,191.884,336.031,192.555,335.203,192.555z"/>
										</g>
									</g>
									<g>
										<g>
											<path style="fill:#AB9F9F;" d="M316.703,184.389h-84c-0.828,0-1.5-0.671-1.5-1.5s0.672-1.5,1.5-1.5h84
												c0.828,0,1.5,0.671,1.5,1.5S317.531,184.389,316.703,184.389z"/>
										</g>
									</g>
									<g>
										<g>
											<g>
												<path style="fill:#AB9F9F;" d="M243.703,176.222h-11c-0.828,0-1.5-0.671-1.5-1.5s0.672-1.5,1.5-1.5h11
													c0.828,0,1.5,0.671,1.5,1.5S244.531,176.222,243.703,176.222z"/>
											</g>
										</g>
										<g>
											<path style="fill:#AB9F9F;" d="M327.203,176.222h-77c-0.828,0-1.5-0.671-1.5-1.5s0.672-1.5,1.5-1.5h77
												c0.828,0,1.5,0.671,1.5,1.5S328.031,176.222,327.203,176.222z"/>
										</g>
									</g>
									<g>
										<g>
											<g>
												<path style="fill:#AB9F9F;" d="M241.703,168.055h-9c-0.828,0-1.5-0.671-1.5-1.5c0-0.829,0.672-1.5,1.5-1.5h9
													c0.828,0,1.5,0.671,1.5,1.5C243.203,167.384,242.531,168.055,241.703,168.055z"/>
											</g>
										</g>
										<g>
											<path style="fill:#AB9F9F;" d="M257.703,168.055h-9c-0.828,0-1.5-0.671-1.5-1.5c0-0.829,0.672-1.5,1.5-1.5h9
												c0.828,0,1.5,0.671,1.5,1.5C259.203,167.384,258.531,168.055,257.703,168.055z"/>
										</g>
										<g>
											<path style="fill:#AB9F9F;" d="M328.703,168.055h-9c-0.828,0-1.5-0.671-1.5-1.5c0-0.829,0.672-1.5,1.5-1.5h9
												c0.828,0,1.5,0.671,1.5,1.5C330.203,167.384,329.531,168.055,328.703,168.055z"/>
										</g>
										<g>
											<path style="fill:#AB9F9F;" d="M314.203,168.055h-47c-0.828,0-1.5-0.671-1.5-1.5c0-0.829,0.672-1.5,1.5-1.5h47
												c0.828,0,1.5,0.671,1.5,1.5C315.703,167.384,315.031,168.055,314.203,168.055z"/>
										</g>
									</g>
								</g>
								<g>
									<g>
										<g>
											<path style="fill:#AB9F9F;" d="M335.203,360.055h-102.5c-0.828,0-1.5-0.672-1.5-1.5s0.672-1.5,1.5-1.5h102.5
												c0.828,0,1.5,0.672,1.5,1.5S336.031,360.055,335.203,360.055z"/>
										</g>
									</g>
									<g>
										<g>
											<path style="fill:#AB9F9F;" d="M316.703,351.889h-84c-0.828,0-1.5-0.672-1.5-1.5c0-0.829,0.672-1.5,1.5-1.5h84
												c0.828,0,1.5,0.671,1.5,1.5C318.203,351.217,317.531,351.889,316.703,351.889z"/>
										</g>
									</g>
									<g>
										<g>
											<g>
												<path style="fill:#AB9F9F;" d="M243.703,343.721h-11c-0.828,0-1.5-0.671-1.5-1.5c0-0.828,0.672-1.5,1.5-1.5h11
													c0.828,0,1.5,0.672,1.5,1.5C245.203,343.05,244.531,343.721,243.703,343.721z"/>
											</g>
										</g>
										<g>
											<path style="fill:#AB9F9F;" d="M327.203,343.721h-77c-0.828,0-1.5-0.671-1.5-1.5c0-0.828,0.672-1.5,1.5-1.5h77
												c0.828,0,1.5,0.672,1.5,1.5C328.703,343.05,328.031,343.721,327.203,343.721z"/>
										</g>
									</g>
									<g>
										<g>
											<g>
												<path style="fill:#AB9F9F;" d="M241.703,335.555h-9c-0.828,0-1.5-0.672-1.5-1.5s0.672-1.5,1.5-1.5h9
													c0.828,0,1.5,0.672,1.5,1.5S242.531,335.555,241.703,335.555z"/>
											</g>
										</g>
										<g>
											<path style="fill:#AB9F9F;" d="M257.703,335.555h-9c-0.828,0-1.5-0.672-1.5-1.5s0.672-1.5,1.5-1.5h9
												c0.828,0,1.5,0.672,1.5,1.5S258.531,335.555,257.703,335.555z"/>
										</g>
										<g>
											<path style="fill:#AB9F9F;" d="M328.703,335.555h-9c-0.828,0-1.5-0.672-1.5-1.5s0.672-1.5,1.5-1.5h9
												c0.828,0,1.5,0.672,1.5,1.5S329.531,335.555,328.703,335.555z"/>
										</g>
										<g>
											<path style="fill:#AB9F9F;" d="M314.203,335.555h-47c-0.828,0-1.5-0.672-1.5-1.5s0.672-1.5,1.5-1.5h47
												c0.828,0,1.5,0.672,1.5,1.5S315.031,335.555,314.203,335.555z"/>
										</g>
									</g>
								</g>
								<g>
									<path style="fill:#AB9F9F;" d="M333.703,221.055h-101c-0.828,0-1.5,0.671-1.5,1.5c0,0.829,0.672,1.5,1.5,1.5h101
										c0.828,0,1.5-0.671,1.5-1.5C335.203,221.727,334.531,221.055,333.703,221.055z"/>
									<path style="fill:#AB9F9F;" d="M232.703,232.555h47.5c0.828,0,1.5-0.671,1.5-1.5c0-0.829-0.672-1.5-1.5-1.5h-47.5
										c-0.828,0-1.5,0.671-1.5,1.5C231.203,231.884,231.874,232.555,232.703,232.555z"/>
									<path style="fill:#AB9F9F;" d="M308.203,238.055h-75.5c-0.828,0-1.5,0.671-1.5,1.5c0,0.829,0.672,1.5,1.5,1.5h75.5
										c0.828,0,1.5-0.671,1.5-1.5C309.703,238.727,309.031,238.055,308.203,238.055z"/>
								</g>
								<g>
									<path style="fill:#AB9F9F;" d="M243.203,300.555h-9c-0.828,0-1.5,0.672-1.5,1.5s0.672,1.5,1.5,1.5h9
										c0.828,0,1.5-0.672,1.5-1.5S244.031,300.555,243.203,300.555z"/>
									<path style="fill:#AB9F9F;" d="M259.203,300.555h-9c-0.828,0-1.5,0.672-1.5,1.5s0.672,1.5,1.5,1.5h9
										c0.828,0,1.5-0.672,1.5-1.5S260.031,300.555,259.203,300.555z"/>
									<path style="fill:#AB9F9F;" d="M330.203,300.555h-9c-0.828,0-1.5,0.672-1.5,1.5s0.672,1.5,1.5,1.5h9
										c0.828,0,1.5-0.672,1.5-1.5S331.031,300.555,330.203,300.555z"/>
									<path style="fill:#AB9F9F;" d="M315.703,300.555h-47c-0.828,0-1.5,0.672-1.5,1.5s0.672,1.5,1.5,1.5h47
										c0.828,0,1.5-0.672,1.5-1.5S316.531,300.555,315.703,300.555z"/>
									<path style="fill:#AB9F9F;" d="M232.703,280.055h89c0.828,0,1.5-0.672,1.5-1.5s-0.672-1.5-1.5-1.5h-89
										c-0.828,0-1.5,0.672-1.5,1.5S231.874,280.055,232.703,280.055z"/>
									<path style="fill:#AB9F9F;" d="M232.703,287.888h89c0.828,0,1.5-0.672,1.5-1.5c0-0.828-0.672-1.5-1.5-1.5h-89
										c-0.828,0-1.5,0.672-1.5,1.5C231.203,287.216,231.874,287.888,232.703,287.888z"/>
									<path style="fill:#AB9F9F;" d="M321.703,295.722c0.828,0,1.5-0.672,1.5-1.5s-0.672-1.5-1.5-1.5h-89
										c-0.828,0-1.5,0.672-1.5,1.5s0.672,1.5,1.5,1.5H321.703z"/>
								</g>
							</g>
						</g>
					</g>
				</g>
			</g>
			<g>
				<path style="fill:#A5A9B0;" d="M335.675,97.687c0-4.845-10.101-5.125-9.524-9.632c1.047-8.187-8.053-15.902-18.193-16.46v-0.032
					c-0.138,0.002-0.275,0.011-0.413,0.016c-0.139-0.005-0.276-0.014-0.414-0.016v0.032c-10.141,0.558-19.24,8.273-18.193,16.46
					c0.576,4.507-9.524,4.787-9.524,9.632c0,14.079,12.308,25.545,27.718,26.1v0.027c0.139-0.001,0.275-0.01,0.414-0.014
					c0.138,0.003,0.274,0.012,0.413,0.014v-0.027C323.368,123.231,335.675,111.766,335.675,97.687z M307.544,93.625
					c-3.723-0.362-6.635-3.354-6.635-7.015c0-3.661,2.912-6.652,6.635-7.014c3.722,0.362,6.634,3.353,6.634,7.014
					C314.178,90.271,311.266,93.263,307.544,93.625z"/>
				<g>
					<rect x="242.36" y="101.055" style="fill:#A5A9B0;" width="131" height="39"/>
					<rect x="242.36" y="110.055" style="fill:#BDC2C9;" width="131" height="17"/>
				</g>
			</g>
		</g>
		<g>
			<path style="fill:#FFFFFF;" d="M166.666,224.936c0,0,29.57-6.824,35.349-17.915c8.861-17.007-2.251-18.965-2.251-18.965h-9.851
				c0,0,4.403,8.001-1.557,13.154c-3.576,3.092-14.185,5.39-22.591,5.39C165.764,206.599,167.061,205.525,166.666,224.936z"/>
			<g>
				<g>
					<polygon style="fill:#87ACC7;" points="38.313,196.489 250.607,165.325 254.104,189.407 41.811,220.57 					"/>
					<polygon style="fill:#E6D9C2;" points="282.999,172.365 270.78,179.565 268.94,180.655 254.1,189.405 250.61,165.325 
						267.27,168.935 268.419,169.185 					"/>
					<polygon style="fill:#FFE8E6;" points="65.294,217.123 61.797,193.042 69.782,191.87 73.279,215.952 					"/>
					<polygon style="fill:#969DA3;" points="38.313,196.489 62.267,192.973 65.764,217.054 41.811,220.57 					"/>
				</g>
				<polygon style="fill:#41A4D1;" points="282.999,172.365 270.78,179.565 268.419,169.185 				"/>
			</g>
			<path style="fill:#BF6B1D;" d="M148.458,134.321c3.979-5.099,5.127-13.028,0.591-18.037c-5.972-6.596-17.097,0.305-21.286,5.773
				c-4.09,5.339-6.147,14.327,2.005,16.597c0.908,0.253,1.813,0.365,2.716,0.397c-11.373,7.65-14.685,21.988-8.207,35.087
				c2.488,5.03,7.058,11.159,13.397,10.608c2.938-0.255,6.718-1.992,9.491-4.072c5.897,0.371,13.357,1.115,17.861-1.62
				c5.518-3.351,7.095-11.09,7.666-17.334C174.012,147.313,161.833,135.109,148.458,134.321z"/>
			<g>
				<path style="fill:#FFC0A4;" d="M213.322,169.985c-0.021-0.015-0.044-0.023-0.066-0.035c-0.413-0.636-1.114-1.165-1.673-1.503
					c-1.24-0.749-2.773-1.039-4.201-1.038c-2.971,0.004-6.287,1.991-5.978,5.335c0.188,2.039,1.914,3.637,3.319,4.919
					c1.394,1.272,3.782,0.677,5.101-0.397C211.363,176.013,216.171,172.059,213.322,169.985z"/>
				<path style="fill:#FFC0A4;" d="M200.864,172.696c-0.336-0.667-0.927-1.08-1.652-1.205c-0.064-0.011-0.129-0.015-0.194-0.016
					c-0.344-0.163-0.783-0.163-1.169-0.018c-0.791,0.297-1.268,1.197-1.385,1.989c-0.262,1.76,1.983,3.279,3.545,2.563
					C201.214,175.457,201.409,173.775,200.864,172.696z"/>
			</g>
			<g>
				<path style="fill:#FFFFFF;" d="M172.891,206.903l-12.569,52.365l-17.28,0.963c-0.494-1.956-13.421-53.328-13.421-53.328
					s4.989-1.479,12.013-2.509c5.966-0.874,13.396-1.423,20.492-0.47C165.901,204.434,169.579,205.366,172.891,206.903z"/>
				<path style="fill:#F0DAD8;" d="M138.705,233.34c0,0,19.839,2.065,25.314-2.063C164.018,231.278,157.176,247.786,138.705,233.34z
					"/>
			</g>
			<path style="fill:#FFC0A4;" d="M153.418,226.361l-11.784-21.967c5.966-0.874,13.396-1.423,20.492-0.47
				C163.035,212.072,153.418,226.361,153.418,226.361z"/>
			<g>
				<path style="fill:#DDA68E;" d="M152.186,208.215c-2.513,0-6.43-0.766-6.43-3.294l0.646-8.427l0.565-7.367
					c0-2.528,2.037-4.575,4.55-4.575c1.256,0,2.394,0.513,3.217,1.338c0.823,0.828,1.333,1.971,1.333,3.236l0.557,7.378l0.535,7.075
					C157.888,207.851,152.186,208.215,152.186,208.215z"/>
			</g>
			<g>
				<path style="fill:#FFC0A4;" d="M156.422,153.123c-2.5-2.287-4.899-5.069-6.971-8.142c-4.509,8.928-11.608,18.21-19.596,22.29
					c0.025,2.238,0.204,4.513,0.503,6.763c1.746,13.106,12.409,19.568,23.004,17.922c9.96-1.548,14.917-9.635,13.171-22.741
					c-0.508-3.813-1.397-7.604-2.728-11.028C161.149,156.85,158.654,155.163,156.422,153.123z"/>
				<g>
					<g>
						<path style="fill:#FFC0A4;" d="M166.347,166.468c0,0,4.061-7.446,6.371-1.124c1.837,5.034-2.295,9.469-5.294,8.883
							C164.432,173.648,166.347,166.468,166.347,166.468z"/>
						<path style="fill:#C2806D;" d="M166.457,167.683c0,0,2.947-4.749,4.115-2.853c1.169,1.888,0.948,4.335,0.948,4.335
							s-0.725-2.661-2.703-1.119c0,0,2.118,4.25-1.915,3.066C166.902,171.112,165.211,169.828,166.457,167.683z"/>
					</g>
				</g>
				<g>
					<g>
						<path style="fill:#FFC0A4;" d="M130.017,171.307c0,0-5.872-6.123-6.443,0.583c-0.457,5.34,4.693,8.538,7.433,7.188
							C133.743,177.736,130.017,171.307,130.017,171.307z"/>
						<path style="fill:#C2806D;" d="M130.229,172.508c0,0-4.087-3.812-4.718-1.676c-0.634,2.128,0.218,4.432,0.218,4.432
							s0.005-2.758,2.316-1.788c0,0-0.934,4.657,2.651,2.459C130.696,175.935,131.994,174.253,130.229,172.508z"/>
					</g>
				</g>
				<g>
					<path style="fill:#341212;" d="M158.783,162.979c2.995-0.708,5.702,1.726,6.079,4.563c0.039,0.291-0.317,0.395-0.5,0.206
						c-1.472-1.54-2.086-3.157-4.444-3.512c-3.474-0.513-4.846,3.158-4.677,5.88c0.014,0.266-0.345,0.311-0.402,0.054
						C154.107,166.989,155.436,163.77,158.783,162.979z"/>
					<path style="fill:#C2806D;" d="M148.986,176.003c0,0,2.783,3.541,4.719-0.704L148.986,176.003z"/>
					<path style="fill:#341212;" d="M140.447,165.421c-3.08,0.103-5.053,3.158-4.675,5.995c0.039,0.292,0.409,0.299,0.535,0.068
						c1.015-1.868,1.188-3.593,3.371-4.553c3.216-1.402,5.501,1.779,6.056,4.453c0.05,0.258,0.41,0.207,0.402-0.054
						C146.005,168.068,143.88,165.31,140.447,165.421z"/>
					<path style="fill:#D78471;" d="M145.869,175.919c0.278,2.085-1.66,4.065-4.331,4.421c-2.665,0.355-5.057-1.048-5.334-3.134
						c-0.277-2.081,1.664-4.063,4.329-4.418C143.203,172.432,145.592,173.837,145.869,175.919z"/>
					<path style="fill:#D78471;" d="M164.97,173.374c0.278,2.086-1.659,4.066-4.328,4.421c-2.667,0.355-5.056-1.048-5.334-3.134
						c-0.277-2.081,1.661-4.063,4.328-4.418C162.305,169.887,164.692,171.294,164.97,173.374z"/>
					<path style="fill:#843916;" d="M134.615,163.968c0,0,7.458-9.35,10.953-2.344C145.568,161.624,139.852,160.178,134.615,163.968
						z"/>
					<path style="fill:#843916;" d="M153.421,160.48c0,0,1.766-6.818,10.677-0.457C164.098,160.023,158.967,157.629,153.421,160.48z
						"/>
					<path style="fill:#FFFFFF;" d="M143.221,179.566c0,0,12.584-0.49,14.681-2.548
						C157.902,177.017,157.745,190.675,143.221,179.566z"/>
				</g>
			</g>
			<g>
				<g>
					<g>
						<g>
							<g>
								<g>
									<path style="fill:#DDA68E;" d="M138.925,405.387c0.787,4.875-4.604,8.016-8.849,7.247
										c-1.729-0.315-4.866-4.622-3.532-6.139c1.417-1.608,2.628-3.299,3.729-5.021c0.833-1.278,1.608-2.573,2.376-3.869
										c0.384-0.645,0.988-1.29,1.373-1.931c-0.604-4.304-0.662-8.588-1.662-12.893v0.272h9.373
										c-1.237,4-2.821,8.774-4.844,13.578c0.11,0.351,0.218,0.643,0.326,1.018c0.111,0.397,0.22,0.765,0.326,1.176
										C138.147,401.173,138.642,403.661,138.925,405.387z"/>
								</g>
							</g>
							<path style="fill:#969DA3;" d="M130.077,412.634c-1.729-0.315-4.866-4.622-3.532-6.139c1.417-1.608,2.628-3.299,3.729-5.021
								c0.833-1.278,1.608-2.573,2.376-3.869c1.225,0.443,2.872,0.699,4.566-0.026c0.111,0.397,0.22,0.801,0.326,1.214
								c0.606,2.345,1.101,4.867,1.385,6.594C139.712,410.262,134.321,413.403,130.077,412.634z"/>
						</g>
						<path style="fill:#C787B6;" d="M140.752,262.164c0,0-14.336,31.177-8.482,130.396c0,0,6.18,1.35,8.131,0.675
							c0,0,17.69-86.228,13.398-129.51L140.752,262.164z"/>
					</g>
					<g>
						<g>
							<g>
								<g>
									<path style="fill:#DDA68E;" d="M164.067,405.387c-0.788,4.875,4.605,8.016,8.849,7.247
										c1.728-0.315,4.866-4.622,3.532-6.139c-1.417-1.608-2.628-3.299-3.729-5.021c-0.833-1.278-1.608-2.573-2.376-3.869
										c-0.384-0.645-0.124-1.29-0.508-1.931c0.604-4.304-1.809-9.315-0.809-13.62l0,0h-5.667c1.237,4,0.721,9.607,2.743,14.411
										c-0.109,0.351-0.217,0.726-0.324,1.101c-0.113,0.398-0.222,0.807-0.326,1.218
										C164.845,401.131,164.351,403.661,164.067,405.387z"/>
								</g>
							</g>
							<path style="fill:#969DA3;" d="M172.916,412.634c1.728-0.315,4.866-4.622,3.532-6.139c-1.417-1.608-2.628-3.299-3.729-5.021
								c-0.833-1.278-1.608-2.573-2.376-3.869c-1.227,0.443-2.873,0.699-4.565-0.026c-0.113,0.397-0.222,0.801-0.326,1.214
								c-0.608,2.345-1.102,4.867-1.385,6.594C163.279,410.262,168.672,413.403,172.916,412.634z"/>
						</g>
						<path style="fill:#C787B6;" d="M162.241,262.164c0,0,14.334,31.177,8.482,130.396c0,0-6.179,1.35-8.13,0.675
							c0,0-17.692-86.228-13.399-129.51L162.241,262.164z"/>
					</g>
				</g>
				<g>
					<path style="fill:#855A24;" d="M139.912,264.149c0,0,11.13,3.441,22.438-1.182l0.146-4.618c0,0-5.797,1.806-10.728,1.503
						c-4.929-0.3-11.596-1.203-11.596-1.203L139.912,264.149z"/>
					<path style="fill:#C787B6;" d="M142.492,257.747c0,0-1.88,7.525-0.141,8.428c1.74,0.902,2.764,0.506,2.764,0.506l-0.015-8.331
						L142.492,257.747z"/>
					<path style="fill:#C787B6;" d="M160.379,257.145c0,0,1.175,7.045-0.305,8.355c-2.001,1.77-2.114,0.338-2.114,0.338
						l-0.192-8.092L160.379,257.145z"/>
					<path style="fill:#EDB92B;" d="M148.29,258.349c0,0.902,0.292,6.47,0.292,6.47l6.232,0.15l0.579-6.471L148.29,258.349z
						 M153.798,263.79l-4.205-0.25l-0.144-3.484h4.64L153.798,263.79z"/>
				</g>
			</g>
			<g>
				<path style="fill:#FFC0A4;" d="M146.141,260.605c-1.143-0.839-3.807-1.179-5.068-0.968c-1.512,0.252-2.889,0.617-4.23,1.146
					c0.198-0.137,0.396-0.271,0.595-0.402c1.049-0.686,2.133-0.744,3.303-1.073c0.779-0.219,1.377-0.694,1.386-1.52
					c0.003-0.258-0.168-0.421-0.388-0.513c-0.833-0.346-1.85,0.244-2.696,0.408c-1.154,0.222-1.974,0.624-2.959,1.285
					c-0.908,0.608-1.723,1.352-2.481,2.137c-0.091,0.094-0.175,0.193-0.254,0.297c-3.098-2.755-8.206-7.195-11.977-9.952
					c-2.017,2.363-4.175,3.543-6.482,5.71c4.951,3.957,13.733,9.105,17.016,10.988c0.204,1.027,1.587,1.318,2.676,1.346
					c1.727,0.044,3.44-1.4,4.771-2.323c1.454-1.009,2.844-1.739,4.577-2.081c1.218-0.242,2.52-0.57,3.302-1.605
					C148.011,262.455,146.929,261.183,146.141,260.605z"/>
				<path style="fill:#FFFFFF;" d="M129.883,206.942c-2.733,2.254-23.107,25.849-26.112,38.17c0,0,3.152,7.923,13.66,15.582
					l7.093-7.395c0,0-8.144-5.667-8.144-10.036c0-1.849,17.791-21.126,19.176-26.673
					C138.168,206.136,132.616,204.689,129.883,206.942z"/>
			</g>
		</g>
	</g>
</g>
<g id="DESIGNED_BY_FREEPIK">
	<g>
		<g id="XMLID_319_">
			<g id="XMLID_338_">
				<path id="XMLID_346_" style="fill:#A5B7C6;" d="M260.104,465.465c-0.433,0.443-0.804,0.932-1.108,1.453l-0.465-0.241
					c-0.067-0.297-0.35-0.502-0.659-0.466c-0.331,0.039-0.567,0.339-0.529,0.67c0.039,0.331,0.339,0.567,0.67,0.528
					c0.065-0.007,0.127-0.025,0.184-0.052l0.451,0.234c-0.251,0.554-0.433,1.139-0.539,1.743l0.747,0.132
					c0.23-1.306,0.85-2.507,1.792-3.473L260.104,465.465z"/>
				<path id="XMLID_345_" style="fill:#A5B7C6;" d="M265.591,463.164c-0.171,0-0.341,0.006-0.509,0.017l-0.074-0.626
					c0.188-0.149,0.296-0.389,0.266-0.645c-0.046-0.393-0.402-0.674-0.795-0.628c-0.394,0.046-0.675,0.402-0.628,0.796
					c0.03,0.254,0.189,0.461,0.404,0.563l0.073,0.624c-0.714,0.116-1.402,0.332-2.06,0.646l0.327,0.685
					c0.935-0.447,1.941-0.674,2.995-0.674c0.497,0,0.993,0.053,1.476,0.158l0.16-0.741
					C266.692,463.222,266.142,463.164,265.591,463.164z"/>
				<path id="XMLID_344_" style="fill:#A5B7C6;" d="M272.194,465.711c0.331-0.04,0.566-0.341,0.525-0.672
					c-0.04-0.331-0.341-0.566-0.672-0.525c-0.31,0.038-0.535,0.304-0.53,0.608l-0.416,0.363c-0.418-0.43-0.89-0.813-1.407-1.14
					l-0.404,0.642c1.135,0.715,2.021,1.727,2.564,2.925l0.69-0.313c-0.251-0.554-0.567-1.071-0.942-1.545l0.402-0.351
					C272.065,465.715,272.128,465.719,272.194,465.711z"/>
				<path id="XMLID_343_" style="fill:#A5B7C6;" d="M265.044,473.372c-0.386,0.023-0.775,0.035-1.157,0.035
					c-0.88,0-1.733-0.061-2.479-0.18c-0.391-0.062-0.846-0.154-1.271-0.292c1.047,1.861,3.069,3.125,5.389,3.125
					c2.855,0,5.263-1.916,5.949-4.503c-0.682,0.449-1.505,0.825-2.458,1.122C267.838,473.047,266.463,473.287,265.044,473.372z"/>
				<path id="XMLID_339_" style="fill:#A5B7C6;" d="M265.591,464.68c-3.351,0-6.079,2.666-6.079,5.943
					c0,0.425,0.046,0.849,0.137,1.261c0.674,0.483,2.706,0.891,5.348,0.731c2.88-0.174,5.297-0.958,6.672-2.159
					c-0.005-0.194-0.021-0.39-0.045-0.581C271.244,466.914,268.65,464.68,265.591,464.68z M263.432,471.195
					c-1.02,0-1.85-0.83-1.85-1.85c0-1.021,0.83-1.851,1.85-1.851c1.02,0,1.85,0.83,1.85,1.851
					C265.282,470.365,264.452,471.195,263.432,471.195z M268.169,470.287c-0.75,0-1.36-0.61-1.36-1.36s0.61-1.36,1.36-1.36
					s1.36,0.61,1.36,1.36S268.919,470.287,268.169,470.287z"/>
			</g>
			<path id="XMLID_336_" style="fill:#A5B7C6;" d="M281.595,466.547c-0.295-0.116-0.806-0.31-1.383-0.238
				c-0.551,0.069-0.844,0.341-0.844,1.007v0.866h2.229v1.717h-2.229v5.455h-1.932v-5.455h-1.339v-1.717h1.339v-0.889
				c0-1.68,0.896-2.782,2.568-2.782c0.643,0,1.157,0.121,1.59,0.308V466.547z"/>
			<path id="XMLID_334_" style="fill:#A5B7C6;" d="M286.297,469.878c-0.177-0.029-0.357-0.046-0.525-0.046
				c-0.896,0-1.51,0.548-1.51,1.613v3.908h-1.933v-7.172h1.873v0.784c0.451-0.673,1.14-0.977,2.021-0.977
				c0.414,0,0.848,0.128,1.095,0.337L286.297,469.878z"/>
			<path id="XMLID_331_" style="fill:#A5B7C6;" d="M293.965,471.757c0,0.222-0.016,0.488-0.037,0.651h-5.085
				c0.207,1.036,0.933,1.487,1.843,1.487c0.622,0,1.295-0.252,1.813-0.689l1.133,1.243c-0.814,0.748-1.851,1.089-3.057,1.089
				c-2.198,0-3.724-1.496-3.724-3.753c0-2.258,1.48-3.797,3.627-3.797C292.543,467.99,293.958,469.522,293.965,471.757z
				 M288.851,471.091h3.175c-0.178-0.918-0.732-1.437-1.562-1.437C289.554,469.655,289.021,470.203,288.851,471.091z"/>
			<path id="XMLID_328_" style="fill:#A5B7C6;" d="M301.619,471.757c0,0.222-0.016,0.488-0.037,0.651h-5.085
				c0.207,1.036,0.933,1.487,1.843,1.487c0.622,0,1.296-0.252,1.814-0.689l1.133,1.243c-0.815,0.748-1.851,1.089-3.058,1.089
				c-2.198,0-3.723-1.496-3.723-3.753c0-2.258,1.48-3.797,3.627-3.797C300.197,467.99,301.611,469.522,301.619,471.757z
				 M296.504,471.091h3.175c-0.178-0.918-0.733-1.437-1.561-1.437C297.208,469.655,296.674,470.203,296.504,471.091z"/>
			<path id="XMLID_325_" style="fill:#A5B7C6;" d="M309.964,471.764c0,2.154-1.495,3.775-3.472,3.775
				c-0.962,0-1.644-0.378-2.109-0.933v3.708h-1.925v-10.133h1.888v0.792c0.467-0.585,1.154-0.984,2.139-0.984
				C308.469,467.99,309.964,469.611,309.964,471.764z M304.287,471.764c0,1.133,0.748,1.977,1.844,1.977
				c1.14,0,1.85-0.881,1.85-1.977c0-1.095-0.71-1.976-1.85-1.976C305.035,469.789,304.287,470.632,304.287,471.764z"/>
			<path id="XMLID_322_" style="fill:#A5B7C6;" d="M313.068,465.836c0,0.696-0.541,1.229-1.236,1.229
				c-0.696,0-1.229-0.533-1.229-1.229c0-0.695,0.532-1.243,1.229-1.243C312.527,464.592,313.068,465.14,313.068,465.836z
				 M312.808,475.354h-1.932v-7.172h1.932V475.354z"/>
			<path id="XMLID_320_" style="fill:#A5B7C6;" d="M316.032,470.736l2.702-2.554h2.368l-3.478,3.375l3.501,3.797h-2.376
				l-2.717-2.901v2.901H314.1v-10.658h1.932V470.736z"/>
		</g>
		<g>
			<path style="fill:#A5B7C6;" d="M184.412,475.29v-1.055c-0.527,0.718-1.391,1.23-2.387,1.23c-1.846,0-3.149-1.406-3.149-3.706
				c0-2.256,1.289-3.721,3.149-3.721c0.952,0,1.816,0.469,2.387,1.245v-3.765h1.099v9.771H184.412z M184.412,473.371v-3.208
				c-0.395-0.615-1.245-1.143-2.124-1.143c-1.42,0-2.27,1.172-2.27,2.739c0,1.567,0.85,2.725,2.27,2.725
				C183.167,474.484,184.017,473.986,184.412,473.371z"/>
			<path style="fill:#A5B7C6;" d="M186.932,471.745c0-2.051,1.465-3.706,3.486-3.706c2.139,0,3.398,1.67,3.398,3.794v0.278h-5.727
				c0.088,1.333,1.025,2.446,2.549,2.446c0.806,0,1.626-0.322,2.182-0.894l0.527,0.718c-0.703,0.703-1.655,1.084-2.812,1.084
				C188.44,475.465,186.932,473.957,186.932,471.745z M190.403,468.947c-1.509,0-2.256,1.274-2.314,2.358h4.644
				C192.718,470.25,192.015,468.947,190.403,468.947z"/>
			<path style="fill:#A5B7C6;" d="M194.607,474.352l0.571-0.791c0.469,0.542,1.362,1.011,2.329,1.011c1.084,0,1.67-0.513,1.67-1.216
				c0-1.714-4.38-0.659-4.38-3.281c0-1.099,0.952-2.036,2.636-2.036c1.202,0,2.051,0.454,2.623,1.025l-0.513,0.762
				c-0.424-0.513-1.201-0.894-2.109-0.894c-0.966,0-1.567,0.483-1.567,1.113c0,1.553,4.379,0.527,4.379,3.281
				c0,1.187-0.952,2.139-2.783,2.139C196.306,475.465,195.325,475.114,194.607,474.352z"/>
			<path style="fill:#A5B7C6;" d="M201.477,466.471c0-0.41,0.337-0.747,0.732-0.747c0.41,0,0.747,0.337,0.747,0.747
				c0,0.41-0.337,0.732-0.747,0.732C201.814,467.204,201.477,466.881,201.477,466.471z M201.667,475.29v-7.075h1.099v7.075H201.667z
				"/>
			<path style="fill:#A5B7C6;" d="M204.582,477.106l0.556-0.82c0.586,0.703,1.289,0.967,2.3,0.967c1.172,0,2.271-0.571,2.271-2.124
				v-1.011c-0.513,0.718-1.377,1.26-2.373,1.26c-1.846,0-3.149-1.377-3.149-3.662c0-2.271,1.289-3.677,3.149-3.677
				c0.952,0,1.802,0.469,2.373,1.245v-1.069h1.099v6.87c0,2.344-1.641,3.076-3.369,3.076
				C206.237,478.161,205.416,477.925,204.582,477.106z M209.708,473.253v-3.091c-0.381-0.615-1.23-1.143-2.109-1.143
				c-1.421,0-2.27,1.128-2.27,2.695c0,1.553,0.849,2.695,2.27,2.695C208.478,474.411,209.328,473.869,209.708,473.253z"/>
			<path style="fill:#A5B7C6;" d="M217.413,475.29v-4.629c0-1.245-0.63-1.641-1.582-1.641c-0.864,0-1.685,0.527-2.094,1.099v5.171
				h-1.099v-7.075h1.099v1.025c0.497-0.586,1.464-1.201,2.519-1.201c1.479,0,2.256,0.747,2.256,2.285v4.966H217.413z"/>
			<path style="fill:#A5B7C6;" d="M219.932,471.745c0-2.051,1.465-3.706,3.486-3.706c2.139,0,3.398,1.67,3.398,3.794v0.278h-5.727
				c0.088,1.333,1.025,2.446,2.548,2.446c0.806,0,1.626-0.322,2.183-0.894l0.527,0.718c-0.703,0.703-1.655,1.084-2.813,1.084
				C221.441,475.465,219.932,473.957,219.932,471.745z M223.404,468.947c-1.509,0-2.256,1.274-2.314,2.358h4.643
				C225.718,470.25,225.015,468.947,223.404,468.947z"/>
			<path style="fill:#A5B7C6;" d="M233.35,475.29v-1.055c-0.527,0.718-1.392,1.23-2.388,1.23c-1.845,0-3.149-1.406-3.149-3.706
				c0-2.256,1.289-3.721,3.149-3.721c0.952,0,1.817,0.469,2.388,1.245v-3.765h1.098v9.771H233.35z M233.35,473.371v-3.208
				c-0.396-0.615-1.245-1.143-2.124-1.143c-1.421,0-2.27,1.172-2.27,2.739c0,1.567,0.85,2.725,2.27,2.725
				C232.105,474.484,232.954,473.986,233.35,473.371z"/>
			<path style="fill:#A5B7C6;" d="M239.692,475.29v-9.771h1.099v3.765c0.571-0.776,1.421-1.245,2.388-1.245
				c1.845,0,3.149,1.465,3.149,3.721c0,2.3-1.304,3.706-3.149,3.706c-0.996,0-1.86-0.513-2.388-1.23v1.055H239.692z M242.9,474.484
				c1.436,0,2.285-1.157,2.285-2.725c0-1.567-0.85-2.739-2.285-2.739c-0.864,0-1.729,0.527-2.109,1.143v3.208
				C241.171,473.986,242.036,474.484,242.9,474.484z"/>
			<path style="fill:#A5B7C6;" d="M247.528,477.062c0.161,0.073,0.425,0.117,0.601,0.117c0.483,0,0.806-0.161,1.055-0.747
				l0.469-1.069l-2.959-7.148h1.187l2.358,5.801l2.344-5.801h1.2l-3.544,8.511c-0.425,1.024-1.143,1.421-2.08,1.436
				c-0.234,0-0.6-0.044-0.806-0.104L247.528,477.062z"/>
		</g>
	</g>
</g>
</svg>
