<svg xmlns="http://www.w3.org/2000/svg" xmlns:xlink="http://www.w3.org/1999/xlink" viewBox="0 0 750 500" style="enable-background:new 0 0 750 500" xml:space="preserve"><path style="fill:#ebebeb" d="M692.173 336.898s-6.518-2.817-11.143 12.397c-4.625 15.215-5.886 23.739-5.886 23.739s-1.359 3.257-3.706 1.704c-2.348-1.553-6.062-6.482-9.301-4.899-3.359 1.642-3.821 5.799-2.112 11.483 1.708 5.684 4.994 18.273 5.287 19.412.287 1.119-.064 2.905-1.833 2.103-1.769-.801-12.634-9.284-16.351-3.888-3.716 5.397 3.644 20.448 4.417 22.109.773 1.661.565 2.466-.186 3.045-.752.579-4.135-2.617-7.324-4.903-3.189-2.286-7.288-4.378-9.171-1.085-1.883 3.293-.53 15.329 14.237 32.641l7.367 7.574 10.329-2.437c21.788-6.562 29.441-15.949 29.64-19.738.199-3.788-4.379-4.248-8.298-4.053-3.919.196-8.493 1.051-8.812.158s-.058-1.683 1.492-2.661c1.549-.978 15.886-9.648 15.682-16.198-.203-6.549-13.931-5.299-15.852-5.582-1.921-.284-1.25-1.976-.403-2.761.863-.799 10.441-9.606 14.954-13.46 4.513-3.854 6.375-7.599 4.44-10.798-1.866-3.085-7.657-.951-10.472-.916-2.815.035-2.193-3.439-2.193-3.439s3.554-7.849 7.902-23.146c4.348-15.296-2.84-16.45-2.84-16.45"/><path style="fill:#e0e0e0" d="M688.008 350.516s-.019.112-.073.326l-.25.945-.997 3.626c-.87 3.148-2.163 7.694-3.782 13.304-3.234 11.222-7.834 26.686-12.971 43.747-5.139 17.067-9.778 32.519-13.075 43.722l-3.892 13.27-1.063 3.607-.285.935c-.066.21-.109.315-.109.315s.019-.112.074-.325l.25-.945.997-3.625c.87-3.148 2.162-7.693 3.782-13.303 3.234-11.222 7.835-26.687 12.974-43.754 5.137-17.061 9.776-32.512 13.072-43.714l3.892-13.271 1.063-3.607.285-.936c.065-.212.108-.317.108-.317z"/><path style="fill:#e0e0e0" d="M667.056 376.944c.023-.011.161.223.394.656.235.432.554 1.067.941 1.855.77 1.578 1.776 3.786 2.84 6.242l2.696 6.301.825 1.905c.196.449.294.703.272.715-.022.011-.163-.222-.399-.653a45.59 45.59 0 0 1-.931-1.86c-.755-1.586-1.732-3.806-2.795-6.262l-2.74-6.279-.835-1.902c-.194-.452-.29-.707-.268-.718zM676.013 394.632c-.044-.09 4.414-2.367 9.956-5.087 5.544-2.72 10.072-4.852 10.116-4.762.044.09-4.413 2.367-9.957 5.087-5.542 2.72-10.071 4.852-10.115 4.762zM666.941 420.481c-.003-.025.268-.087.76-.178l2.088-.37c1.762-.313 4.194-.754 6.86-1.336 2.668-.576 5.065-1.18 6.797-1.63l2.053-.529c.486-.122.758-.178.766-.154s-.251.125-.726.289c-.474.163-1.165.386-2.025.641a92.244 92.244 0 0 1-6.789 1.737 94.496 94.496 0 0 1-6.897 1.235 53.26 53.26 0 0 1-2.108.256c-.498.049-.776.064-.779.039zM655.318 406.265c.019-.016.202.165.516.505.314.34.759.841 1.304 1.464a347.655 347.655 0 0 1 4.197 4.919 345.445 345.445 0 0 1 4.117 4.988c.519.644.935 1.17 1.216 1.538.281.368.427.58.408.596-.019.016-.202-.165-.516-.505a83.375 83.375 0 0 1-1.304-1.464 348.645 348.645 0 0 1-4.198-4.92 346.315 346.315 0 0 1-4.116-4.987 80.967 80.967 0 0 1-1.216-1.538c-.281-.368-.427-.58-.408-.596zM644.41 428.067c.019-.016.25.217.652.654l1.677 1.871a564.337 564.337 0 0 1 5.428 6.263c2.105 2.46 3.994 4.7 5.348 6.333l1.589 1.946c.369.465.564.729.545.746-.019.016-.25-.217-.652-.654l-1.677-1.871a565.745 565.745 0 0 1-5.429-6.264 577.643 577.643 0 0 1-5.348-6.332l-1.589-1.946c-.368-.465-.563-.73-.544-.746zM659.406 445.352c-.004-.025.337-.112.957-.249l2.631-.563c2.22-.476 5.285-1.143 8.648-1.973a278.063 278.063 0 0 0 8.579-2.262l2.592-.72c.613-.167.956-.248.963-.224.008.024-.321.15-.922.359-.601.208-1.475.495-2.561.831a150.165 150.165 0 0 1-8.565 2.368 151.708 151.708 0 0 1-8.685 1.873 89.836 89.836 0 0 1-2.655.451c-.628.093-.978.133-.982.109z"/><path style="fill:#f5f5f5" d="M258.409 376.776h130.103v60.002H258.409z"/><path style="fill:#e0e0e0" d="M385.415 433.95H261.387v-54.017h124.029v54.017zm-123.219-.809h122.41v-52.398h-122.41v52.398zM388.512 376.776h31.784v60.002h-31.784z"/><path style="fill:#e0e0e0" d="M261.791 396.65H385.011c.21 0 .21-.327 0-.327H261.791c-.21 0-.21.327 0 .327z"/><path style="fill:#e0e0e0" d="M323.803 396.487c.369-5.326.329-10.967.042-16.299-.012-.213-.32-.214-.332 0-.287 5.331-.327 10.972.042 16.299.012.159.237.159.248 0zM356.97 388.337a1.68 1.68 0 1 1-3.359 0 1.68 1.68 0 0 1 3.359 0zM292.304 388.337a1.679 1.679 0 1 1-3.357.001 1.679 1.679 0 0 1 3.357-.001zM325.08 406.941a1.68 1.68 0 1 1-3.359 0 1.68 1.68 0 0 1 3.359 0zM273.964 436.778l-6.698 37.67h3.767l12.35-37.67zM379.307 436.778l5.602 37.736h-3.768l-11.253-37.736zM404.458 436.778l6.347 37.736h-3.768l-11.998-37.736zM324.967 423.923a1.679 1.679 0 1 1-3.357.001 1.679 1.679 0 0 1 3.357-.001zM261.791 415.23H385.011c.21 0 .21-.326 0-.326H261.791c-.21 0-.21.326 0 .326z"/><path style="fill:#ebebeb" d="M580.389 84.812h82.256v110.324h-82.256z"/><path style="fill:#fafafa" d="M584.67 89.148h73.693V190.8H584.67z"/><path style="fill:#ebebeb" d="M608.551 124.31h28.134v32.148h-28.134z"/><path transform="rotate(-90 662.645 248)" style="fill:#ebebeb" d="M635.936 212.177h53.418v71.646h-53.418z"/><path style="fill:#fafafa" d="M629.638 224.071h66.014v47.857h-66.014z"/><path transform="rotate(-90 662.911 247.285)" style="fill:#ebebeb" d="M653.776 236.846h18.271v20.877h-18.271z"/><path style="fill:#ebebeb" d="M53.403 127.416h52.191v70H53.403z"/><path style="fill:#fafafa" d="M56.119 130.167h46.758v64.498H56.119z"/><path style="fill:#ebebeb" d="M71.272 152.477h17.851v20.397H71.272zM343.897 342.681l-3.558 33.012h45.579l3.78-33.012z"/><path style="fill:#fafafa" d="m345.77 345.052-3.46 28.887h41.134l3.328-28.887z"/><path style="fill:#e0e0e0" d="m352.693 349.911-2.13 19.169h25.959l1.331-19.169z"/><path style="fill:#f5f5f5" d="m388.07 356.898 9.414 18.927-11.566-.132 2.293-20.031"/><path style="fill:#263238" d="M680.63 474.26c0 .144-140.876.26-314.615.26-173.8 0-314.645-.117-314.645-.26s140.846-.26 314.645-.26c173.739-.001 314.615.116 314.615.26z"/><path style="fill:#ebebeb" d="M133.668 77.413h376.269v247.672H133.668z"/><path style="fill:#263238" d="m509.937 325.086-.207-247.672.207.207-376.239.053h-.03l.26-.26-.021 247.672-.239-.239 376.269.239-376.269.239h-.239v-.239l-.021-247.672v-.26H133.698l376.239.053h.208v.207l-.208 247.672z"/><path style="fill:#263238" d="M509.937 99.451c0 .144-84.237.26-188.125.26-103.924 0-188.143-.117-188.143-.26 0-.144 84.219-.26 188.143-.26 103.887 0 188.125.116 188.125.26z"/><path style="fill:#e0e0e0" d="M168.726 136.093h315.437v43.169H168.726zM163.331 254.761h70.029v70.03h-70.029zM246.115 254.761h70.029v70.03h-70.029zM326.425 254.761h70.029v70.03h-70.029z"/><path style="fill:#e8505b" d="M288.554 225.084h-75.911c-6.389 0-11.569-5.179-11.569-11.568 0-6.389 5.179-11.568 11.569-11.568h75.911c6.389 0 11.568 5.179 11.568 11.568 0 6.389-5.179 11.568-11.568 11.568z"/><path style="fill:#263238" d="M377.29 225.084s.351-.036 1.034-.079c.341-.027.759-.117 1.259-.191.487-.136 1.069-.245 1.685-.504a11.766 11.766 0 0 0 4.112-2.639 11.725 11.725 0 0 0 3.137-5.821c.482-2.458.224-5.429-1.343-8.083-1.529-2.624-4.362-4.916-7.913-5.493-1.754-.289-3.643-.137-5.568-.172l-5.966.01-12.972.018-142.104.076c-3.401-.007-6.727 1.601-8.818 4.226-2.11 2.611-2.945 6.15-2.264 9.39.672 3.242 2.83 6.092 5.694 7.644a11.346 11.346 0 0 0 4.636 1.322c1.615.076 3.283.022 4.911.039l37.73.015 63.886.056 43.07.083 11.71.049 3.045.026c.688.01 1.039.028 1.039.028s-.351.018-1.037.027l-3.045.026-11.71.049-43.07.083-63.886.056-37.73.015c-1.643-.017-3.263.04-4.944-.038a11.865 11.865 0 0 1-4.848-1.381c-2.994-1.621-5.252-4.599-5.956-7.992-.714-3.387.158-7.091 2.366-9.822 2.185-2.745 5.668-4.429 9.224-4.42l142.104.076 12.972.018 5.966.01c1.926.043 3.8-.107 5.618.196 3.64.607 6.529 2.967 8.078 5.655 1.588 2.72 1.833 5.752 1.327 8.25a11.852 11.852 0 0 1-3.227 5.89 11.797 11.797 0 0 1-4.185 2.627c-.625.252-1.213.355-1.705.483-.506.066-.927.148-1.271.166-.69.026-1.041.026-1.041.026zM276.014 233.169h.864l-1.063 5.295h3.282l-.146.751h-4.146l1.209-6.046zM279.75 237.289c0-1.546 1.123-2.694 2.686-2.694 1.304 0 2.142.768 2.142 1.969 0 1.555-1.114 2.703-2.677 2.703-1.305-.001-2.151-.787-2.151-1.978zm3.99-.683c0-.812-.492-1.287-1.365-1.287-1.028 0-1.788.804-1.788 1.934 0 .804.492 1.287 1.364 1.287 1.037.001 1.789-.802 1.789-1.934zM290.454 234.637l-.907 4.577h-.794l.112-.562c-.406.389-.959.613-1.615.613-1.166 0-2.021-.743-2.021-1.978 0-1.572 1.105-2.694 2.591-2.694.786 0 1.356.284 1.65.82l.155-.777h.829zm-1.235 1.969c0-.812-.492-1.287-1.365-1.287-1.028 0-1.788.804-1.788 1.934 0 .804.492 1.287 1.364 1.287 1.037.001 1.789-.802 1.789-1.934zM296.71 232.807l-1.278 6.408h-.794l.112-.562c-.406.389-.959.613-1.615.613-1.166 0-2.021-.743-2.021-1.978 0-1.572 1.105-2.694 2.591-2.694.786 0 1.365.284 1.658.829l.519-2.617h.828zm-1.606 3.799c0-.812-.492-1.287-1.365-1.287-1.028 0-1.788.804-1.788 1.934 0 .804.492 1.287 1.364 1.287 1.037.001 1.789-.802 1.789-1.934zM297.914 234.637h.829l-.907 4.577h-.829l.907-4.577zm.138-1.381c0-.319.242-.579.596-.579.303 0 .527.225.527.484 0 .354-.25.596-.604.596a.5.5 0 0 1-.519-.501zM304.32 236.114c0 .164-.017.346-.052.535l-.509 2.566h-.829l.509-2.566c.026-.138.044-.268.044-.38 0-.596-.346-.933-1.063-.933-.89 0-1.494.476-1.693 1.46l-.483 2.418h-.829l.907-4.577h.795l-.112.587c.423-.432 1.002-.63 1.658-.63 1.035.001 1.657.545 1.657 1.52zM310.602 234.637l-.786 3.955c-.328 1.658-1.218 2.35-2.738 2.35-.872 0-1.598-.233-2.09-.648l.457-.639c.354.328.976.553 1.693.553 1.08 0 1.624-.492 1.822-1.485l.069-.328c-.415.397-.976.63-1.658.63-1.209 0-2.038-.708-2.038-1.865 0-1.451 1.08-2.564 2.608-2.564.751 0 1.408.276 1.71.881l.164-.838h.787zm-1.269 1.866c0-.734-.501-1.184-1.365-1.184-1.045 0-1.796.752-1.796 1.788 0 .743.509 1.192 1.364 1.192 1.045.001 1.797-.751 1.797-1.796zM313.307 238.714a.61.61 0 0 1 .613-.631c.311 0 .544.233.544.562a.604.604 0 0 1-.604.622.547.547 0 0 1-.553-.553zM315.265 238.714a.61.61 0 0 1 .613-.631c.311 0 .544.233.544.562a.604.604 0 0 1-.604.622.547.547 0 0 1-.553-.553zM317.224 238.714a.61.61 0 0 1 .613-.631c.311 0 .544.233.544.562a.605.605 0 0 1-.605.622.546.546 0 0 1-.552-.553zM148.042 89.499a2.758 2.758 0 1 1-5.517 0 2.758 2.758 0 0 1 5.517 0zM159.763 89.499a2.758 2.758 0 1 1-5.517 0 2.758 2.758 0 0 1 5.517 0zM171.484 89.499a2.758 2.758 0 1 1-5.517 0 2.758 2.758 0 0 1 5.517 0z"/><circle style="fill:#f5f5f5" cx="470.718" cy="182.759" r="131.324"/><path style="fill:#263238" d="M602.043 182.759s-.036-.721-.081-2.129l-.079-2.622c-.025-1.043-.053-2.253-.187-3.621l-.362-4.591c-.172-1.686-.443-3.521-.69-5.514-.559-3.976-1.426-8.532-2.669-13.598-1.337-5.037-2.962-10.618-5.38-16.489-2.37-5.88-5.291-12.152-9.133-18.488a132.73 132.73 0 0 0-33.327-37.285c-7.391-5.676-15.794-10.77-25.054-14.979-9.255-4.203-19.37-7.58-30.158-9.524-10.768-1.989-22.167-2.773-33.808-1.867-5.828.345-11.688 1.292-17.571 2.455-5.87 1.255-11.724 2.937-17.529 4.997-5.763 2.166-11.5 4.635-17.057 7.627-5.533 3.022-10.97 6.384-16.15 10.226a143.728 143.728 0 0 0-14.792 12.74 141.32 141.32 0 0 0-12.949 15.113c-4.009 5.373-7.52 11.175-10.688 17.203-.754 1.528-1.606 3.011-2.283 4.583l-2.118 4.685c-1.265 3.193-2.573 6.384-3.616 9.686-2.15 6.572-3.928 13.338-4.993 20.278a141.469 141.469 0 0 0-1.715 21.094c.047 7.11.617 14.168 1.71 21.102 1.066 6.941 2.841 13.711 4.99 20.285l.831 2.457.415 1.227.474 1.204 1.895 4.802 2.118 4.686c.676 1.573 1.529 3.057 2.283 4.585 3.168 6.03 6.678 11.836 10.688 17.209a141.296 141.296 0 0 0 12.951 15.118 143.562 143.562 0 0 0 14.794 12.744c5.181 3.843 10.618 7.206 16.152 10.229 5.557 2.991 11.296 5.462 17.059 7.628 5.805 2.06 11.66 3.743 17.531 4.998 5.884 1.164 11.744 2.111 17.573 2.455 11.643.906 23.043.121 33.811-1.868 10.789-1.945 20.903-5.323 30.159-9.527 9.261-4.209 17.664-9.305 25.054-14.981a132.726 132.726 0 0 0 33.323-37.286c3.842-6.336 6.763-12.607 9.132-18.488 2.418-5.871 4.042-11.451 5.379-16.487 1.242-5.065 2.109-9.621 2.668-13.596.247-1.992.518-3.827.69-5.513l.362-4.59c.133-1.368.161-2.578.186-3.621l.079-2.622c.046-1.409.082-2.13.082-2.13s0 .721-.027 2.13l-.053 2.624c-.017 1.044-.036 2.255-.161 3.624l-.337 4.596c-.163 1.688-.427 3.526-.666 5.522-.544 3.983-1.396 8.547-2.625 13.624-1.323 5.048-2.937 10.643-5.345 16.53-2.359 5.897-5.274 12.187-9.112 18.545a132.866 132.866 0 0 1-33.35 37.43c-7.404 5.702-15.825 10.822-25.11 15.054-9.279 4.226-19.424 7.625-30.246 9.586-10.802 2.005-22.24 2.802-33.923 1.901-5.849-.342-11.731-1.288-17.637-2.452-5.893-1.256-11.77-2.941-17.598-5.006-5.786-2.171-11.547-4.648-17.127-7.648-5.556-3.031-11.015-6.405-16.218-10.26a144.295 144.295 0 0 1-14.855-12.787 141.847 141.847 0 0 1-13.005-15.172c-4.027-5.393-7.552-11.221-10.734-17.274-.757-1.534-1.614-3.023-2.293-4.602l-2.127-4.705-1.904-4.821-.476-1.209-.417-1.231-.835-2.466c-2.159-6.6-3.941-13.396-5.012-20.365a142.153 142.153 0 0 1-1.717-21.185c.048-7.135.624-14.219 1.723-21.177 1.07-6.967 2.856-13.76 5.015-20.358 1.048-3.314 2.361-6.519 3.632-9.724l2.127-4.703c.681-1.578 1.536-3.067 2.293-4.601 3.182-6.051 6.707-11.876 10.733-17.268a141.668 141.668 0 0 1 13.004-15.167c4.7-4.641 9.673-8.904 14.853-12.784 5.201-3.855 10.659-7.227 16.215-10.258 5.578-3 11.338-5.476 17.124-7.646 5.827-2.065 11.703-3.75 17.595-5.005 5.905-1.165 11.786-2.111 17.635-2.453 11.682-.902 23.119-.106 33.921 1.899 10.822 1.96 20.966 5.357 30.245 9.583 9.285 4.231 17.707 9.35 25.111 15.052a132.868 132.868 0 0 1 33.354 37.429c3.839 6.357 6.753 12.649 9.114 18.546 2.409 5.888 4.022 11.483 5.346 16.531 1.229 5.077 2.082 9.643 2.626 13.626.239 1.996.502 3.834.666 5.522l.337 4.597c.125 1.37.145 2.581.161 3.625l.053 2.624c.026 1.406.027 2.127.027 2.127z"/><defs><path id="a" d="M418.101 228.602c-11.914-12.627-19.23-29.638-19.23-48.368 0-38.943 31.57-70.513 70.513-70.513 38.943 0 70.513 31.57 70.513 70.513 0 19.49-7.908 37.132-20.69 49.895l35.479 34.644c21.732-21.586 35.195-51.488 35.195-84.54 0-65.812-53.351-119.163-119.163-119.163s-119.163 53.351-119.163 119.163c0 32.497 13.024 61.94 34.117 83.437l32.429-35.068z"/></defs><clipPath id="b"><use xlink:href="#a" style="overflow:visible"/></clipPath><g style="clip-path:url(#b)"><path style="fill:#e8505b" d="M418.101 228.602c-11.914-12.627-19.23-29.638-19.23-48.368 0-38.943 31.57-70.513 70.513-70.513 38.943 0 70.513 31.57 70.513 70.513 0 19.49-7.908 37.132-20.69 49.895l35.479 34.644c21.732-21.586 35.195-51.488 35.195-84.54 0-65.812-53.351-119.163-119.163-119.163s-119.163 53.351-119.163 119.163c0 32.497 13.024 61.94 34.117 83.437l32.429-35.068z"/></g><path d="M533.079 179.621h64.089s-6.481 52.171-7.777 53.144c-1.296.972-39.21 44.718-39.21 44.718l-43.098-51.199 25.996-46.663z" style="opacity:.8;clip-path:url(#b)"/><path d="m515.788 136.466 45.357-44.513 31.926 47.634 4.257 40.03-63.478.004-11.561-25.451z" style="opacity:.7;clip-path:url(#b)"/><path d="M473.512 120.321c-.777-1.296 0-64.161 0-64.161l39.08 4.911 48.114 31.059-46.226 45.366-29.107-4.213-11.861-12.962z" style="opacity:.5;clip-path:url(#b)"/><path d="M380.425 94.397c.972.324 43.098 45.367 43.098 45.367l37.589-14.906 12.054-15.036.345-53.661-44.805 4.911-48.281 33.325z" style="opacity:.3;clip-path:url(#b)"/><path d="M347.329 179.621c.972.648 71.29 0 71.29 0l-1.24-46.278-33.942-36.005-23.146 27.519-12.962 54.764z" style="opacity:.1;clip-path:url(#b)"/><circle style="fill:#e0e0e0" cx="472.055" cy="182.759" r="27.363"/><path style="fill:#455a64" d="M463.996 184.586a7.769 7.769 0 0 0 9.578 5.295l95.153-27.008-98.203 11.822c-4.763.573-7.873 5.285-6.528 9.891z"/><path style="fill:#263238" d="m457.445 241.939-5.235 26.554h-6.941L448 254.495l-8.839 11.38h-3.3l-4.817-11.38-2.808 13.997h-6.903l5.31-26.554h6.106l6.222 15.363 12.063-15.363h6.411zM483.01 247.933l-4.098 20.56h-6.828l.418-1.935c-1.594 1.48-3.566 2.276-5.956 2.276-4.437 0-8.686-3.377-8.686-9.37 0-6.828 5.007-11.873 11.152-11.873 2.77 0 5.008.835 6.297 2.808l.493-2.466h7.208zm-9.066 9.369c0-2.39-1.441-3.945-3.907-3.945-2.845 0-4.894 2.314-4.894 5.767 0 2.39 1.441 3.906 3.907 3.906 2.883 0 4.894-2.314 4.894-5.728zM499.016 258.288l5.576 10.204h-7.662l-2.808-5.387-4.969 5.387h-8.156l10.28-10.546-5.425-10.014h7.549l2.731 5.234 4.894-5.234h7.928l-9.938 10.356zM506.488 264.889c0-2.77 2.087-4.59 4.628-4.59 2.428 0 4.059 1.593 4.059 3.945 0 2.768-2.124 4.59-4.59 4.59-2.39 0-4.097-1.67-4.097-3.945zM458.823 288.351h8.289l-.402 2.061h-11.912l.332-1.61 8.075-6.465c2.226-1.8 2.889-2.89 2.889-4.239 0-1.444-1.019-2.392-3.244-2.392-1.61 0-3.173.663-4.286 1.847l-1.587-1.373c1.374-1.54 3.647-2.534 6.204-2.534 3.363 0 5.281 1.705 5.281 4.145 0 1.918-.828 3.576-3.67 5.825l-5.969 4.735zM474.955 275.895l-1.373 4.547h1.61c4.238 0 6.157 1.752 6.157 4.428 0 3.434-2.818 5.731-7.058 5.731-2.51 0-4.642-.781-5.802-2.084l1.255-1.823c.9 1.042 2.605 1.8 4.713 1.8 2.865 0 4.523-1.255 4.523-3.363 0-1.634-1.185-2.628-4.216-2.628h-4.025l2.581-8.668h9.354l-.403 2.061h-7.316zM483.673 284.515c0-5.755 3.244-10.87 8.383-10.87 3.481 0 5.589 2.25 5.589 6.086 0 5.755-3.268 10.87-8.359 10.87-3.505 0-5.613-2.25-5.613-6.086zm11.604-4.736c0-2.629-1.278-4.026-3.41-4.026-3.741 0-5.825 4.855-5.825 8.715 0 2.629 1.278 4.026 3.434 4.026 3.717-.001 5.801-4.855 5.801-8.715z"/><path style="fill:#e8505b" d="m613.938 453.517 4.25 6.867 10.827-12.507-5.703-6.042z"/><path style="fill:#263238" d="M628.054 446.597c.054.046-.496.788-1.456 1.928-.958 1.141-2.332 2.673-3.88 4.332l-3.992 4.22c-1.03 1.072-1.681 1.724-1.737 1.675-.053-.046.5-.786 1.461-1.923.961-1.139 2.336-2.669 3.884-4.329l3.988-4.223c1.028-1.073 1.676-1.728 1.732-1.68z"/><path style="fill:#263238" d="M618.094 447.245c.102-.103 1.291.91 2.656 2.263 1.365 1.353 2.389 2.533 2.287 2.636-.102.103-1.291-.91-2.657-2.263-1.364-1.353-2.388-2.533-2.286-2.636z"/><g style="opacity:.6"><path style="fill:#fff" d="m618.188 460.384 10.827-12.507-1.079-1.144-11.045 12.134 1.155 1.395"/></g><path style="fill:#e8505b" d="m528.575 469.906.028-1.688 17.089.133-.03 5.563-1.055.057c-4.697.215-23.897.788-27.026-.115-3.49-1.007 10.994-3.95 10.994-3.95z"/><g style="opacity:.6"><path style="fill:#fff" d="M539.495 473.754c.255-1.32 1.058-2.544 2.204-3.36 1.146-.816 2.552-1.242 3.988-1.127l-.041 4.421-6.151.066z"/></g><g style="opacity:.6"><path style="fill:#fff" d="M521.496 471.578s-5.08 1.33-4.455 2.109c.624.779 20.048.88 28.622.227l-.024-.354-22.658.063s-.495-2.001-1.485-2.045z"/></g><path style="fill:#263238" d="M545.906 473.552c0 .007-.101.016-.293.028l-.84.043-3.093.108c-2.612.074-6.223.131-10.21.114a322.51 322.51 0 0 1-10.209-.205l-3.091-.135-.84-.05c-.192-.013-.292-.024-.292-.031 0-.007.101-.009.294-.008l.841.014 3.092.074c2.611.063 6.219.131 10.206.149 3.985.017 7.594-.019 10.206-.058l3.094-.047.841-.007c.193.001.294.005.294.011z"/><path style="fill:#263238" d="M522.983 473.869c-.063.007-.105-.68-.565-1.375-.447-.703-1.08-1.057-1.044-1.106.013-.047.739.254 1.221 1.007.49.746.439 1.486.388 1.474zM528.024 471.527c-.048.028-.286-.245-.531-.609-.245-.365-.404-.683-.356-.711.048-.028.286.245.531.61.246.363.405.682.356.71zM529.408 470.857c-.038.039-.305-.129-.596-.375s-.495-.478-.457-.517c.039-.039.305.129.596.375s.496.478.457.517zM530.293 469.368c0 .053-.398.098-.888.101-.491.003-.889-.038-.889-.091s.398-.098.888-.1c.491-.003.889.037.889.09zM530.602 468.317c.019.047-.416.227-.993.263-.577.039-1.033-.083-1.022-.132.01-.055.46-.022 1.008-.059.548-.034.989-.125 1.007-.072z"/><path style="fill:#263238" d="M527.46 470.144c.001.021-.419.067-1.093-.012a6.786 6.786 0 0 1-1.162-.245c-.212-.072-.435-.126-.664-.259-.107-.068-.227-.163-.267-.317-.044-.153.045-.323.169-.405 1.05-.498 2.091.054 2.474.558.211.257.306.508.35.68.042.174.038.273.026.275-.039.013-.07-.401-.49-.87a1.98 1.98 0 0 0-.929-.569c-.385-.108-.934-.14-1.304.076-.175.119-.109.309.083.417.179.109.411.176.612.247.413.135.797.223 1.123.278.656.111 1.073.115 1.072.146z"/><path style="fill:#263238" d="M527.177 470.193c-.016.011-.174-.249-.12-.706.029-.224.12-.49.305-.741.195-.225.446-.534.915-.513.253.031.374.3.333.471-.022.178-.109.33-.19.453a3.133 3.133 0 0 1-.522.612c-.346.309-.617.427-.629.408-.019-.025.219-.181.524-.502.151-.16.316-.363.463-.607.152-.214.258-.599-.015-.647-.273-.026-.555.226-.724.428a1.618 1.618 0 0 0-.315.659c-.089.413.011.678-.025.685zM545.599 469.223c-.004.036-.487-.046-1.257.034-.762.075-1.825.36-2.752 1.037a5.148 5.148 0 0 0-1.735 2.243c-.266.677-.295 1.132-.334 1.128-.013-.001-.018-.115.003-.319.019-.204.075-.499.193-.852.23-.701.779-1.642 1.745-2.35a5.52 5.52 0 0 1 2.866-1.021 4.78 4.78 0 0 1 .936.027c.219.029.337.061.335.073zM537.369 472.201c.007.05-1.103.213-2.486.216-1.383.007-2.493-.149-2.486-.198.006-.055 1.116.014 2.486.007 1.37-.003 2.48-.08 2.486-.025z"/><path style="fill:#263238" d="M540.703 472.214c.041.039-.093.218-.208.455-.119.235-.18.446-.238.442-.055-.001-.085-.25.051-.522.134-.273.359-.414.395-.375zM541.973 470.766c.04.037-.071.202-.249.366-.178.165-.354.268-.394.231-.04-.037.071-.201.249-.366.178-.165.354-.268.394-.231zM543.778 470.111c-.013.053-.239.051-.489.131-.253.075-.432.203-.476.167-.045-.029.1-.254.412-.349.31-.097.57.003.553.051zM545.06 469.805c.02.049-.078.13-.22.18-.142.05-.273.051-.293.001-.02-.049.078-.13.22-.18.142-.05.273-.051.293-.001z"/><path style="fill:#ffbe9d" d="m521.555 247.8-26.397-26.744 3.353-34.828.605-.692c.327-.381.699-.798 1.135-1.255a6.558 6.558 0 0 1 1.747-1.299c.789-.406 1.857-.904 2.524-.999.825-.118 1.098-1.161.439-1.51-.66-.349-2.941-.079-5.218 1.359s-.896-2.517-.419-3.966c.478-1.449 1.743-5.998 1.41-6.486-.488-.715-1.367-.315-1.809 1.142-.449 1.476-2.081 5.743-2.84 5.475-.747-.265 1.784-7.613 1.784-7.613s.797-1.49-.069-1.829c-1.561-.613-3.673 7.381-3.855 8.146-.126.533-.962.27-.795-.295.172-.581 2.697-7.275 1.114-7.914-1.215-.49-1.799 6.561-3.099 7.68-1.3 1.118.993-5.315-.188-5.736-.44-.156-.791-.213-1.571 3.657-.379 1.878-1.203 5.011-1.508 8.076l-.005-.002-8.299 41.614 25.976 34.391 15.985-10.372zM535.008 171.238c-1.087.626 2.322 6.544.842 5.677-1.479-.868-3.316-7.701-4.424-7.001-1.443.912 2.24 7.046 2.513 7.587.265.526-.51.934-.73.432-.316-.72-3.825-8.207-5.252-7.324-.791.489.26 1.812.26 1.812s3.806 6.776 3.118 7.171c-.698.4-3.068-3.507-3.774-4.878-.697-1.355-1.633-1.591-1.985-.8-.24.54 1.819 4.788 2.549 6.128.729 1.34 2.796 4.984.298 3.977-2.498-1.007-4.791-.864-5.377-.403-.586.462-.131 1.439.702 1.407.673-.026 1.814.273 2.662.531a6.56 6.56 0 0 1 1.951.965c.511.372.952.715 1.342 1.032l.719.572 14.26 35.154-12.956 30.153 20.08 7.475 9.026-39.875-20.689-38.805-.005.003c-.848-2.961-2.221-5.895-2.929-7.675-1.461-3.666-1.797-3.548-2.201-3.315z"/><path style="fill:#455a64" d="m579.801 384.873-13.044-67.1-18.417 1.583.003-.154-33.645 3.045s-1.576 77.063-2.135 77.063l9.215 70.249.002.014 26.563-1.212-10.267-69.927 3.788-56.117.757-1.028 15.371 57.371 52.33 59.225 17.048-16.487-47.569-56.525z"/><path style="fill:#263238" d="M538.791 387.828c-.018-.001-.023-.199-.015-.574l.06-1.64.316-6.026 1.239-19.868 1.276-18.318.005-.065.04-.047 4.61-5.477 1.28-1.476c.298-.334.462-.503.477-.491.015.013-.119.206-.389.564l-1.199 1.543-4.476 5.587.044-.112-1.149 18.326-1.391 19.858-.481 6.015-.157 1.634c-.042.373-.072.568-.09.567zM548.342 319.202c.144 0 .26 2.873.26 6.417 0 3.545-.117 6.417-.26 6.417-.144 0-.26-2.872-.26-6.417-.001-3.544.116-6.417.26-6.417zM525.657 325.036c-.018-.017.271-.062.83-.135l2.453-.295c2.126-.246 5.197-.588 8.881-.961l.251-.026.001.254.031 10.653v.162l-.146.072-.19.094-6.422 3.157-.121.059-.114-.068-5.56-3.295-.106-.063.002-.119.108-6.971.054-1.887c.016-.428.032-.646.048-.631.016.014.031.261.048.711l.054 1.931.108 6.848-.104-.181 5.598 3.23-.235-.008 6.411-3.18.19-.094-.145.233.031-10.653.251.228c-3.593.321-6.616.56-8.764.723l-2.513.179c-.587.036-.912.049-.93.033zM551.559 322.481c-.018-.017.271-.062.83-.135l2.453-.295c2.126-.246 5.197-.588 8.881-.961l.251-.025.001.254.031 10.653v.162l-.146.072-.19.094-6.422 3.157-.121.059-.114-.068-5.56-3.295-.106-.063.002-.119.108-6.971.054-1.887c.016-.429.032-.647.048-.632.016.014.031.261.048.711l.054 1.931.108 6.848-.104-.181 5.598 3.23-.234-.008 6.411-3.18.19-.094-.145.233.031-10.653.251.228c-3.593.321-6.616.561-8.764.723l-2.513.179c-.588.036-.913.049-.931.033z"/><path style="fill:#263238" d="M538.082 326.501c.007.144-2.77.389-6.201.547-3.432.158-6.219.171-6.225.027-.007-.144 2.769-.389 6.201-.547 3.432-.158 6.219-.17 6.225-.027zM563.745 324.14c.014.143-2.707.467-6.076.723-3.37.256-6.106.347-6.112.203-.006-.144 2.714-.467 6.077-.723 3.361-.255 6.098-.346 6.111-.203zM535.971 397.831c.017.143-2.673.59-6.008.998-3.337.409-6.055.624-6.072.481-.017-.143 2.672-.589 6.009-.998 3.335-.409 6.053-.624 6.071-.481zM578.115 386.316c.052.151-2.873 1.173-6.183 3.033-3.322 1.842-5.727 3.794-5.827 3.671-.043-.051.505-.606 1.486-1.394a30.38 30.38 0 0 1 4.087-2.731 30.384 30.384 0 0 1 4.47-2.045c1.186-.422 1.946-.597 1.967-.534zM521.555 153.982c-.008.003-.075-.122-.198-.369l-.532-1.103c-.238-.483-.5-1.095-.864-1.792l-1.301-2.383c-.502-.889-1.133-1.834-1.781-2.893a88.196 88.196 0 0 0-2.339-3.293 63.395 63.395 0 0 0-6.61-7.28c-5.339-4.928-12.716-9.905-21.94-12.773-4.594-1.421-9.617-2.335-14.859-2.41-5.237-.098-10.673.528-16.051 1.929-5.364 1.459-10.394 3.62-14.889 6.311-4.512 2.672-8.416 5.964-11.695 9.482-6.577 7.077-10.501 15.065-12.682 21.996a63.304 63.304 0 0 0-2.113 9.603 88.648 88.648 0 0 0-.391 4.02c-.036 1.241-.114 2.375-.107 3.395l.057 2.714c.031.785.108 1.447.142 1.984l.087 1.222c.017.276.021.418.012.419-.009.001-.031-.139-.065-.413l-.139-1.218c-.051-.536-.144-1.199-.192-1.985l-.105-2.721c-.023-1.024.04-2.163.062-3.41.074-1.244.193-2.596.35-4.043a62.515 62.515 0 0 1 2.05-9.674c2.149-6.988 6.067-15.055 12.682-22.214 3.299-3.559 7.234-6.89 11.783-9.593 4.533-2.721 9.607-4.905 15.019-6.377 5.425-1.413 10.912-2.042 16.196-1.935 5.289.082 10.359 1.015 14.991 2.461 9.298 2.92 16.709 7.969 22.049 12.962a62.459 62.459 0 0 1 6.591 7.373 84.563 84.563 0 0 1 2.315 3.334c.639 1.071 1.26 2.028 1.75 2.928l1.263 2.413c.35.706.598 1.327.821 1.818l.486 1.126c.104.253.155.385.147.389z"/><path style="fill:#263238" d="M510.239 151.245c-.015.01-.176-.197-.469-.6-.304-.395-.693-1.017-1.283-1.755-1.126-1.512-2.877-3.618-5.297-5.96-2.414-2.345-5.566-4.866-9.404-7.12a49.222 49.222 0 0 0-13.365-5.392 49.23 49.23 0 0 0-14.369-1.156c-4.441.3-8.388 1.144-11.596 2.162-3.212 1.012-5.72 2.113-7.403 2.961-.857.396-1.484.778-1.932.995-.442.229-.679.342-.688.326-.009-.015.21-.159.636-.417.432-.247 1.045-.66 1.891-1.085 1.662-.908 4.161-2.067 7.384-3.132 3.218-1.07 7.192-1.961 11.675-2.29a48.77 48.77 0 0 1 14.522 1.128 48.788 48.788 0 0 1 13.489 5.485c3.862 2.299 7.018 4.873 9.417 7.269 2.406 2.394 4.123 4.549 5.204 6.104.567.759.931 1.402 1.207 1.816.264.425.396.651.381.661z"/><path style="fill:#e8505b" d="m560.836 268.538-4.645 24.17c9.687 13.482 10.569 25.044 10.569 25.044l-52.059 4.474c.971-8.164 6.004-25.836 6.004-25.836l-7.558-25.805-15.146-19.721 15.03-13.546c-.288.762 14.091 9.084 14.091 9.084l20.653.176s1.2.095 2.969.59l10.091-26.156s7.805 11.479 5.189 25.564c-1.861 10.028-1.508 12.373-5.188 21.962"/><path style="fill:#263238" d="M523.076 250.175c.023-.018.317.287.762.909.444.621 1.029 1.57 1.561 2.838.518 1.268.975 2.87 1.044 4.701a11.908 11.908 0 0 1-1.234 5.768c-.95 1.893-2.389 3.431-3.996 4.339a9.514 9.514 0 0 1-4.657 1.252c-1.388-.006-2.486-.311-3.19-.615a5.498 5.498 0 0 1-.786-.404c-.172-.106-.256-.169-.247-.185.032-.123 1.517.915 4.216.836a9.467 9.467 0 0 0 4.422-1.298c1.508-.882 2.865-2.349 3.773-4.158a11.76 11.76 0 0 0 1.22-5.521c-.04-1.763-.444-3.326-.907-4.581-.965-2.513-2.073-3.823-1.981-3.881zM559.048 267.782c-.084-.04.365-.983.803-2.589.443-1.601.793-3.896.596-6.424-.208-2.528-.917-4.739-1.609-6.249-.688-1.516-1.281-2.376-1.204-2.428.029-.021.2.177.485.557.292.374.657.959 1.051 1.711.793 1.501 1.584 3.765 1.797 6.368.203 2.603-.218 4.964-.763 6.571-.269.806-.536 1.441-.766 1.857-.221.42-.357.642-.39.626z"/><path d="M552.075 291.261c-.491-.549-1.364-.459-2.078-.28-1.158.289-2.305.694-3.499.72-2.227.047-4.237-1.211-6.293-2.069-2.056-.858-4.678-1.239-6.307.281-1.189 1.109-1.423 3.1-.523 4.455.494.744 1.301 1.236 2.171 1.428 5.203 1.467 9.675.387 14.768-1.652.617-.247 1.251-.533 1.668-1.051.416-.519.536-1.336.093-1.832zM513.866 237.12c-2.134 2.771-3.546 6.248-3.208 9.729.338 3.481 2.7 6.862 6.08 7.759 2.318.615 4.85.065 7.122.831 4.193 1.415 6.414 6.897 10.821 7.292 3.989.357 6.889-3.669 10.608-5.155 1.925-.77 4.046-.836 6.092-1.173 4.23-.697 8.392-2.732 10.861-6.237 2.468-3.505 2.869-8.596.297-12.026-2.747-3.663-7.844-4.558-12.423-4.56a52.17 52.17 0 0 0-20.211 4.079c-1.377.58-2.752 1.235-3.849 2.25-1.097 1.014-1.891 2.448-1.822 3.94" style="opacity:.3"/><path style="fill:#263238" d="M573.399 234.355c-.223-1.826-1.518-3.481-3.237-4.137-2.009-.766-4.36-.217-6.325-1.09-2.448-1.089-3.482-3.963-4.1-6.57-.618-2.607-1.211-5.485-3.318-7.14-1.455-1.143-3.388-1.481-4.962-2.454-2.329-1.438-3.596-4.053-5.187-6.281-.596-.834-1.318-1.648-2.129-2.313-.033-.041-.06-.087-.094-.128-3.385-4.082-12.416-4.616-16.32-1.027l.149-.131c-7.279.546-11.896 12.304-11.973 19.755-.047 4.636 1.45 9.489-.306 13.78-1.021 2.496-3.061 4.514-3.842 7.096-1.062 3.512.714 7.662 3.989 9.318 3.274 1.656 7.67.628 9.87-2.308-.115 1.889 1.444 3.554 3.224 4.197 1.78.643 3.735.497 5.621.343 4.04-.331 8.699-1.028 10.771-4.511 1.392 2.084 4.123 2.939 6.622 2.753 2.499-.186 4.838-.417 7.119-1.453-.1-.13-.186-.268-.262-.412a6.493 6.493 0 0 0 1.077-.517c1.919-1.178 3.108-3.717 2.213-5.783l2.176 2.525c3.774-1.994 5.481-7.153 3.642-11.005a10.465 10.465 0 0 1 3.433 2.286c1.513-1.049 2.372-2.967 2.149-4.793z"/><path style="fill:#455a64" d="M572.479 237.446c-.078.021.335-.954-.471-2.356-.398-.673-1.093-1.397-2.105-1.866-1.013-.482-2.289-.712-3.712-.863-1.414-.168-3.041-.258-4.645-.981a5.587 5.587 0 0 1-2.117-1.673c-.577-.738-.988-1.617-1.286-2.536-.626-1.84-.761-3.868-1.375-5.801-.306-.965-.723-1.922-1.353-2.73-.626-.807-1.495-1.425-2.519-1.657-1.023-.254-2.12-.232-3.204-.447-1.099-.19-2.124-.777-2.86-1.556-1.516-1.567-2.125-3.588-2.788-5.337-.629-1.784-1.511-3.341-2.696-4.516a10.815 10.815 0 0 0-3.826-2.522c-2.666-1.015-5.084-.739-6.602-.349-1.545.408-2.312.891-2.337.838-.008-.014.178-.139.553-.34a9.695 9.695 0 0 1 1.729-.693 10.83 10.83 0 0 1 6.785.199c1.37.504 2.784 1.34 4.003 2.563 1.243 1.199 2.194 2.853 2.838 4.65.679 1.769 1.292 3.708 2.704 5.151.693.719 1.58 1.227 2.596 1.404 1.013.203 2.114.178 3.229.45 1.129.253 2.128.963 2.802 1.843.685.883 1.116 1.894 1.431 2.895.63 2.02.75 4.032 1.345 5.807.535 1.78 1.61 3.306 3.13 3.967 1.494.696 3.086.817 4.506 1.006 1.428.175 2.746.436 3.794.967 1.057.522 1.766 1.308 2.155 2.028.394.729.466 1.393.437 1.819-.036.43-.141.636-.141.636z"/><path style="fill:#455a64" d="M559.699 251.857c-.012-.03.211-.085.553-.325.337-.235.773-.71 1.011-1.462a3.862 3.862 0 0 0-.175-2.775c-.48-1.009-1.43-1.924-2.643-2.663-1.204-.763-2.686-1.336-4.149-2.26-.726-.464-1.447-1.032-2.023-1.778-.575-.745-.983-1.636-1.242-2.577-.536-1.887-.51-3.938-.767-5.965-.255-1.995-.876-4.195-2.651-5.417-1.724-1.22-4.042-1.587-5.589-3.2-1.521-1.582-2.099-3.661-2.43-5.537-.318-1.899-.445-3.708-.874-5.328-.415-1.619-1.168-3.011-2.005-4.158a13.174 13.174 0 0 0-5.242-4.146c-1.481-.617-2.378-.739-2.364-.796.003-.018.224.012.646.086.42.078 1.032.239 1.795.522 1.5.589 3.645 1.786 5.459 4.111.88 1.165 1.681 2.596 2.129 4.269.459 1.666.603 3.495.929 5.356.333 1.835.916 3.818 2.321 5.263 1.393 1.474 3.642 1.83 5.528 3.134.947.66 1.652 1.622 2.072 2.644.432 1.023.65 2.09.782 3.132.254 2.089.22 4.094.724 5.903.24.9.617 1.732 1.142 2.426.525.695 1.198 1.239 1.894 1.694 1.4.909 2.884 1.508 4.111 2.312 1.233.778 2.225 1.763 2.71 2.852a4.035 4.035 0 0 1 .103 2.964c-.282.786-.773 1.268-1.145 1.484-.376.218-.61.235-.61.235zM535.548 254.05c-.07-.026.625-.577.659-1.954.019-.671-.134-1.502-.515-2.382-.378-.885-.992-1.816-1.519-2.952-.544-1.118-.814-2.601-.422-4.051.352-1.455 1.127-2.833 1.84-4.281.722-1.441 1.355-3.025 1.305-4.76-.014-1.727-.628-3.468-1.743-4.932-1.099-1.483-2.464-2.733-3.538-4.186-.536-.725-.988-1.509-1.294-2.336-.304-.827-.451-1.681-.509-2.509-.109-1.662.125-3.222.361-4.651.242-1.43.484-2.75.571-3.966.22-2.434-.353-4.399-1.064-5.55-.705-1.169-1.4-1.569-1.353-1.617.007-.011.178.08.462.311.285.229.679.612 1.062 1.198.789 1.15 1.439 3.185 1.26 5.681-.065 1.244-.29 2.585-.512 4.011-.218 1.424-.427 2.954-.309 4.548.063.793.208 1.599.498 2.372.291.771.718 1.507 1.238 2.204 1.038 1.399 2.404 2.643 3.547 4.181 1.166 1.526 1.832 3.408 1.834 5.234.047 1.845-.647 3.54-1.386 4.98-.735 1.458-1.502 2.801-1.851 4.171-.381 1.368-.161 2.701.34 3.799.487 1.108 1.084 2.062 1.451 2.989.37.927.5 1.798.448 2.502-.047.707-.274 1.229-.484 1.531-.208.31-.377.415-.377.415z"/><path style="fill:#455a64" d="M518.03 253.23s-.156-.132-.292-.484c-.138-.347-.2-.935.022-1.619.201-.688.737-1.439 1.521-2.061.762-.648 1.761-1.203 2.559-2.111a6.92 6.92 0 0 0 1.645-3.528c.251-1.413-.103-2.916-.711-4.431-.569-1.499-1.317-3.221-1.052-5.102.22-1.854 1.112-3.551 1.896-5.255.801-1.7 1.444-3.438 1.343-5.182-.078-1.743-.644-3.382-1.08-4.966-.959-3.172-1.004-6.304-.242-8.718.739-2.436 2.163-4.042 3.261-4.893a7.574 7.574 0 0 1 1.364-.86c.335-.154.518-.216.524-.201.027.05-.708.328-1.76 1.218-1.034.879-2.368 2.474-3.036 4.84-.69 2.352-.615 5.372.351 8.483.443 1.568 1.036 3.229 1.128 5.075.116 1.865-.574 3.717-1.38 5.423-.795 1.719-1.655 3.372-1.862 5.097-.255 1.729.425 3.341.995 4.874.284.773.552 1.548.683 2.341a6.96 6.96 0 0 1 .005 2.326c-.251 1.487-.931 2.774-1.798 3.707-.874.951-1.896 1.481-2.649 2.09-.779.586-1.289 1.257-1.513 1.9-.237.635-.212 1.182-.113 1.521.096.343.213.502.191.516z"/><path style="fill:#263238" d="M104.997 446.879c-.009-.005.053-.155.184-.442l.593-1.264c.504-1.117 1.158-2.808 1.742-5.059 1.152-4.498 1.555-11.374-.149-19.539-.791-4.089-2.067-8.474-3.624-13.124-1.534-4.658-3.316-9.6-4.771-14.942-1.439-5.329-2.575-11.116-2.356-17.18.221-6.077 2.02-12.143 3.998-18.18 1.974-6.048 4.016-11.959 4.628-17.905.692-5.935-.578-11.762-3.283-16.536-2.619-4.825-5.914-8.951-8.38-13.226-2.504-4.26-4.071-8.641-5.036-12.715-1.872-8.215-1.216-15.136-.319-19.698.972-4.586 2.055-6.957 2.055-6.957.01.004-.031.16-.122.462l-.416 1.333c-.362 1.172-.832 2.922-1.278 5.207a47.98 47.98 0 0 0 .511 19.551c.985 4.029 2.558 8.352 5.053 12.553 2.46 4.224 5.769 8.333 8.44 13.215 2.761 4.827 4.088 10.843 3.385 16.872-.616 6.047-2.673 11.997-4.643 18.037-1.978 6.033-3.756 12.035-3.981 18.01-.224 5.972.883 11.702 2.3 17.006 1.431 5.316 3.192 10.259 4.707 14.93 1.538 4.664 2.798 9.085 3.565 13.202 1.659 8.226 1.186 15.17-.05 19.684-.625 2.26-1.321 3.948-1.864 5.052l-.651 1.241c-.147.278-.228.417-.238.412z"/><path style="fill:#e8505b" d="M96.93 313.697s-5.007-16.011 3.975-25.386c.315-.329.87-.173.952.275.48 2.644 1.079 10.698-4.927 25.111z"/><path style="fill:#263238" d="M99.93 293.646c.085.017-.058 1.143-.337 2.954l-1.142 7.062-1.121 7.062c-.274 1.808-.439 2.93-.53 2.922-.081-.006-.073-1.146.09-2.976.166-1.829.488-4.346.942-7.109.452-2.762.934-5.25 1.325-7.042.391-1.792.688-2.89.773-2.873z"/><path style="fill:#e8505b" d="M102.812 351.461s3.062-16.494 15.385-20.58c.433-.143.851.254.713.688-.812 2.561-4.049 9.96-16.098 19.892z"/><path style="fill:#263238" d="M114.841 335.14c.067.055-.586.983-1.679 2.453l-4.312 5.708a19043.91 19043.91 0 0 0-4.293 5.718c-1.088 1.47-1.758 2.384-1.835 2.335-.069-.043.471-1.047 1.471-2.589 1.002-1.54 2.464-3.613 4.157-5.843a141.244 141.244 0 0 1 4.465-5.605c1.182-1.401 1.959-2.231 2.026-2.177z"/><path style="fill:#e8505b" d="M99.482 392.84s-1.86-16.673 8.745-24.162c.372-.263.888-.004.882.452-.034 2.686-.982 10.707-9.627 23.71z"/><path style="fill:#263238" d="M106.252 373.729c.08.033-.275 1.111-.895 2.835l-2.469 6.715-2.448 6.718c-.614 1.723-.989 2.792-1.078 2.767-.078-.021.147-1.138.656-2.904.512-1.764 1.309-4.173 2.281-6.799.97-2.625 1.918-4.975 2.645-6.66.727-1.684 1.228-2.705 1.308-2.672z"/><path style="fill:#e8505b" d="M108.765 434.461s-1.262-16.729 9.604-23.833c.382-.249.887.028.865.483-.129 2.683-1.364 10.665-10.469 23.35z"/><path style="fill:#263238" d="M116.215 415.605c.079.036-.315 1.1-.995 2.801l-2.707 6.622-2.687 6.626c-.675 1.7-1.089 2.755-1.176 2.727-.077-.024.188-1.132.76-2.879.574-1.745 1.457-4.124 2.523-6.713a140.992 140.992 0 0 1 2.881-6.561c.785-1.657 1.322-2.659 1.401-2.623z"/><path style="fill:#e8505b" d="M89.735 299.63s-14.87-7.766-15.162-20.746c-.01-.456.492-.739.867-.479 2.21 1.528 8.334 6.793 14.295 21.225z"/><path style="fill:#263238" d="M77.66 283.343c.072-.048.768.849 1.853 2.325l4.192 5.797 4.207 5.782c1.086 1.471 1.764 2.38 1.694 2.44-.062.053-.862-.758-2.043-2.166-1.178-1.409-2.732-3.416-4.367-5.689a141.233 141.233 0 0 1-4.049-5.912c-.992-1.543-1.559-2.529-1.487-2.577z"/><path style="fill:#e8505b" d="M105.702 334.016s-15.314-6.848-16.394-19.786c-.038-.454.446-.767.836-.531 2.3 1.39 8.733 6.273 15.558 20.317z"/><path style="fill:#263238" d="M92.661 318.492c.069-.053.818.801 1.991 2.208l4.536 5.532 4.55 5.516c1.174 1.403 1.905 2.268 1.839 2.332-.058.057-.907-.704-2.171-2.038-1.261-1.335-2.934-3.243-4.704-5.413a141.445 141.445 0 0 1-4.4-5.656c-1.084-1.479-1.709-2.428-1.641-2.481z"/><path style="fill:#e8505b" d="M96.891 372.371s-10.515-13.072-5.583-25.082c.173-.422.747-.48.986-.092 1.413 2.286 4.916 9.563 4.597 25.174z"/><path style="fill:#263238" d="M92.351 352.612c.086-.015.364 1.085.766 2.873l1.519 6.991 1.539 6.983c.406 1.783.663 2.887.575 2.914-.078.024-.487-1.04-1.005-2.803-.515-1.763-1.135-4.224-1.723-6.961a140.645 140.645 0 0 1-1.342-7.039c-.29-1.812-.414-2.943-.329-2.958z"/><path style="fill:#e8505b" d="M107.306 417.508s-15.197-7.105-16.059-20.059c-.03-.455.459-.759.845-.517 2.276 1.429 8.625 6.42 15.214 20.576z"/><path style="fill:#263238" d="M94.528 401.767c.07-.051.805.814 1.953 2.242l4.443 5.607 4.457 5.591c1.15 1.422 1.867 2.3 1.8 2.363-.059.056-.895-.719-2.136-2.074-1.239-1.356-2.879-3.292-4.612-5.491a140.62 140.62 0 0 1-4.305-5.729c-1.06-1.497-1.67-2.457-1.6-2.509zM137.577 351.55c.014.001.021.127.019.37l-.027 1.073-.18 4.068-.796 14.527-.001.014-.004.02c-1.085 6.071-4.176 12.799-8.329 19.331-3.046 4.812-6.239 9.187-8.993 13.256-2.772 4.057-5.112 7.815-6.743 11.146a47.237 47.237 0 0 0-3.154 8.179 55.506 55.506 0 0 0-.583 2.318c-.125.533-.201.811-.222.808-.021-.004.013-.29.098-.832.076-.544.239-1.338.471-2.355.488-2.027 1.387-4.933 2.992-8.311 1.593-3.384 3.911-7.192 6.663-11.276 2.735-4.098 5.911-8.48 8.942-13.267 4.131-6.5 7.206-13.126 8.332-19.099l-.004.034 1.02-14.513.328-4.058.107-1.067c.028-.242.05-.366.064-.366z"/><path style="fill:#e8505b" d="M128.528 389.704s6.436-15.492-1.66-25.642c-.284-.356-.851-.251-.973.188-.717 2.59-2.043 10.556 2.633 25.454z"/><path style="fill:#263238" d="M127.356 369.464c.086-.009.283 1.111.51 2.931.228 1.82.483 4.341.682 7.133.202 2.793.295 5.328.294 7.165-.004 1.838-.099 2.973-.18 2.972-.092-.001-.154-1.133-.263-2.958l-.477-7.134-.498-7.136c-.114-1.83-.154-2.964-.068-2.973z"/><path d="M128.528 389.704s6.436-15.492-1.66-25.642c-.284-.356-.851-.251-.973.188-.717 2.59-2.043 10.556 2.633 25.454z" style="opacity:.3"/><path style="fill:#e8505b" d="M108.593 427.037s5.159-15.963-3.734-25.423c-.312-.332-.869-.182-.954.266-.505 2.64-1.18 10.687 4.688 25.157z"/><path style="fill:#263238" d="M105.783 406.959c.085-.016.372 1.084.746 2.88a139.93 139.93 0 0 1 1.258 7.054c.428 2.767.726 5.287.874 7.118.145 1.832.143 2.971.061 2.977-.092.006-.245-1.116-.502-2.927l-1.054-7.072-1.075-7.073c-.26-1.814-.393-2.941-.308-2.957z"/><path d="M108.593 427.037s5.159-15.963-3.734-25.423c-.312-.332-.869-.182-.954.266-.505 2.64-1.18 10.687 4.688 25.157z" style="opacity:.3"/><path style="fill:#e8505b" d="M136.725 370.771s13.743-9.621 12.356-22.529c-.049-.453-.583-.669-.922-.364-1.994 1.8-7.387 7.812-11.434 22.893z"/><path d="M136.725 370.771s13.743-9.621 12.356-22.529c-.049-.453-.583-.669-.922-.364-1.994 1.8-7.387 7.812-11.434 22.893z" style="opacity:.3"/><path style="fill:#263238" d="M146.595 353.061c.078.039-.357 1.089-1.142 2.747a140.65 140.65 0 0 1-3.251 6.386c-1.328 2.465-2.609 4.655-3.596 6.205-.989 1.549-1.678 2.456-1.746 2.411-.077-.05.478-1.038 1.365-2.638l3.425-6.276 3.408-6.29c.885-1.604 1.459-2.583 1.537-2.545z"/><path style="fill:#e8505b" d="M114.134 411.211s16.576-2.584 21.016-14.784c.156-.428-.229-.858-.667-.732-2.583.738-10.073 3.76-20.349 15.516z"/><path d="M114.134 411.211s16.576-2.584 21.016-14.784c.156-.428-.229-.858-.667-.732-2.583.738-10.073 3.76-20.349 15.516z" style="opacity:.3"/><path style="fill:#263238" d="M130.796 399.659c.053.069-.8.821-2.235 1.963a139.912 139.912 0 0 1-5.731 4.301c-2.278 1.628-4.393 3.03-5.961 3.987-1.57.955-2.589 1.466-2.63 1.396-.047-.079.886-.722 2.387-1.767l5.839-4.126 5.83-4.146c1.501-1.05 2.448-1.676 2.501-1.608z"/><path style="fill:#455a64" d="m98.322 441.716-4.835 32.544h30.132l-3.906-32.544z"/><path style="fill:#263238" d="M120.917 451.8c0 .173-5.441.314-12.15.314-6.712 0-12.151-.141-12.151-.314 0-.173 5.439-.314 12.151-.314 6.709.001 12.15.141 12.15.314zM121.515 454.39c0 .173-5.619.314-12.549.314-6.932 0-12.549-.141-12.549-.314 0-.173 5.618-.314 12.549-.314 6.93 0 12.549.141 12.549.314z"/><path style="fill:#e8505b" d="M658.04 430.7c-2.149.525-3.938 2.123-5.028 4.048-1.09 1.926-1.54 4.156-1.666 6.365-.243 4.274 1.415 8.915 3.406 12.705 4.059-2.477 5.792-7.713 6.504-10.425 1.126-4.284.558-12.714-3.216-12.693M649.462 460.036c.971-2.273.43-5.042-1.111-6.974-1.541-1.932-3.965-3.053-6.427-3.284-1.138-.107-2.408.013-3.209.828-.749.762-.889 1.98-.561 2.997.328 1.017 1.053 1.859 1.849 2.572 2.731 2.444 5.822 4.307 9.459 3.861"/><path style="fill:#263238" d="M651.788 473.668c.022-.001.026-.315.021-.882l-.028-2.402c-.057-2.012-.081-4.886-1.129-7.85-1.029-2.954-2.777-5.3-4.366-6.587-.787-.655-1.499-1.087-2.012-1.336-.251-.135-.463-.207-.6-.267-.139-.055-.214-.079-.219-.07-.037.064 1.173.503 2.687 1.838 1.523 1.306 3.204 3.62 4.217 6.524 1.029 2.904 1.09 5.743 1.202 7.755.047 1.012.085 1.833.127 2.399.042.567.079.88.1.878z"/><path style="fill:#263238" d="M657.905 437.158c-.01-.002-.047.125-.108.369l-.249 1.07c-.211.93-.499 2.28-.841 3.951a376.512 376.512 0 0 0-2.422 13.103 375.13 375.13 0 0 0-1.963 13.182 200.794 200.794 0 0 0-.487 4.009l-.112 1.093c-.022.25-.029.382-.018.384.011.001.038-.128.08-.376l.169-1.085.585-3.995a675.208 675.208 0 0 1 2.052-13.161 681.114 681.114 0 0 1 2.331-13.112l.744-3.968.192-1.081c.041-.25.057-.381.047-.383z"/><path style="fill:#e8505b" d="M655.134 463.635c1.672-4.936 5.877-8.937 10.89-10.362 1.276-.363 2.88-.468 3.7.575.821 1.046.333 2.586-.351 3.726-2.848 4.741-8.774 7.418-14.214 6.42"/><path style="fill:#263238" d="M664.77 457.152c-.006-.021-.292.051-.805.198a8.152 8.152 0 0 0-.924.306c-.351.144-.768.271-1.193.491-.432.206-.911.422-1.392.717-.497.267-.995.607-1.516.968a18.287 18.287 0 0 0-3.042 2.777 17.9 17.9 0 0 0-2.279 3.433c-.271.574-.531 1.118-.711 1.654-.212.523-.345 1.032-.474 1.493-.145.457-.197.89-.277 1.261a7.539 7.539 0 0 0-.136.964c-.052.532-.07.826-.048.828.069.009.149-1.175.672-2.994.14-.452.283-.949.503-1.461.187-.524.452-1.055.725-1.616a18.62 18.62 0 0 1 2.26-3.36 19.075 19.075 0 0 1 2.975-2.748c.509-.361.993-.704 1.478-.977.468-.301.936-.524 1.356-.741 1.702-.826 2.849-1.128 2.828-1.193z"/></svg>