<svg xmlns="http://www.w3.org/2000/svg" xmlns:xlink="http://www.w3.org/1999/xlink" width="350" height="350"><defs><clipPath id="b"><path d="M0 0h350v350H0z"/></clipPath><clipPath id="c"><path d="M0 0h350v350H0z"/></clipPath><clipPath id="d"><path d="M0 0h350v350H0z"/></clipPath><clipPath id="e"><path d="M0 0h350v350H0z"/></clipPath><clipPath id="f"><path d="M0 0h350v350H0z"/></clipPath><clipPath id="g"><path d="M0 0h350v350H0z"/></clipPath><clipPath id="h"><path d="M0 0h350v350H0z"/></clipPath><clipPath id="i"><path d="M0 0h350v350H0z"/></clipPath><clipPath id="j"><path d="M0 0h350v350H0z"/></clipPath><clipPath id="k"><path d="M0 0h350v350H0z"/></clipPath><mask id="m"><g filter="url(#a)"><path style="fill:#000;fill-opacity:.501961;stroke:none" d="M0 0h350v350H0z"/></g></mask><mask id="o"><g filter="url(#a)"><path style="fill:#000;fill-opacity:.701961;stroke:none" d="M0 0h350v350H0z"/></g></mask><mask id="q"><g filter="url(#a)"><path style="fill:#000;fill-opacity:.101961;stroke:none" d="M0 0h350v350H0z"/></g></mask><mask id="s"><g filter="url(#a)"><path style="fill:#000;fill-opacity:.101961;stroke:none" d="M0 0h350v350H0z"/></g></mask><mask id="u"><g filter="url(#a)"><path style="fill:#000;fill-opacity:.101961;stroke:none" d="M0 0h350v350H0z"/></g></mask><mask id="w"><g filter="url(#a)"><path style="fill:#000;fill-opacity:.101961;stroke:none" d="M0 0h350v350H0z"/></g></mask><mask id="y"><g filter="url(#a)"><path style="fill:#000;fill-opacity:.101961;stroke:none" d="M0 0h350v350H0z"/></g></mask><mask id="A"><g filter="url(#a)"><path style="fill:#000;fill-opacity:.101961;stroke:none" d="M0 0h350v350H0z"/></g></mask><mask id="C"><g filter="url(#a)"><path style="fill:#000;fill-opacity:.101961;stroke:none" d="M0 0h350v350H0z"/></g></mask><mask id="E"><g filter="url(#a)"><path style="fill:#000;fill-opacity:.101961;stroke:none" d="M0 0h350v350H0z"/></g></mask><g id="l" clip-path="url(#b)"><path style="stroke:none;fill-rule:nonzero;fill:#fff;fill-opacity:1" d="M39.727 179.129c-1.258 7.621 3.898 14.82 11.52 16.078 7.616 1.262 14.816-3.898 16.073-11.516 1.262-7.62-3.894-14.82-11.515-16.078-7.621-1.261-14.817 3.899-16.078 11.516Zm0 0"/><path style="stroke:none;fill-rule:nonzero;fill:#ebebeb;fill-opacity:1" d="M39.64 183.086c.72 6.016 5.325 11.086 11.606 12.121a13.9 13.9 0 0 0 3.832.106ZM45.25 170.137l21.145 16.742c.43-1 .742-2.066.925-3.188.22-1.289.246-2.562.106-3.8l-15.61-12.364a13.999 13.999 0 0 0-6.566 2.61ZM40.027 177.77l20.141 15.945a13.9 13.9 0 0 0 2.273-1.535L40.996 175.2c-.406.808-.73 1.667-.969 2.57ZM43.79 171.375l21.737 17.215c.086-.149.172-.293.254-.442l-21.62-17.12c-.126.113-.25.226-.372.347ZM56.496 167.746l9.649 7.637c-.18-.375-.38-.746-.594-1.106l-7.848-6.214c-.39-.125-.793-.231-1.207-.317Zm0 0"/></g><g id="n" clip-path="url(#c)"><path style="stroke:none;fill-rule:nonzero;fill:#fff;fill-opacity:1" d="m67.055 77.531 6.3 1.375 2.075.465-.434-2.062-1.332-6.22-1.437-.116s.12 1.379.117 1.406l-1.438-.117s.117 1.379.117 1.406l-1.425-.129s.105 1.39.101 1.418l-1.422-.129s.106 1.39.102 1.418l-1.426-.129c0-.004.106 1.39.102 1.414Zm0 0"/></g><g id="p" clip-path="url(#d)"><path style="stroke:none;fill-rule:nonzero;fill:#000;fill-opacity:1" d="M52.266 51.527A294.697 294.697 0 0 1 69.94 69.203a295.853 295.853 0 0 1-17.675-17.676ZM50.707 53.082c6.14 5.64 12.04 11.54 17.68 17.68a294.828 294.828 0 0 1-17.68-17.68ZM49.152 54.64a294.698 294.698 0 0 1 17.676 17.676 294.697 294.697 0 0 1-17.676-17.675ZM47.594 56.2a293.617 293.617 0 0 1 17.68 17.675 295.917 295.917 0 0 1-17.68-17.676Zm0 0"/></g><g id="r" clip-path="url(#e)"><path style="stroke:none;fill-rule:nonzero;fill:#000;fill-opacity:1" d="m236.89 202.434-32.206 16.73s-16.793-36.637-22.512-58.543c-2.102-8.074-2.242-13.074-.617-15.316Zm0 0"/></g><g id="t" clip-path="url(#f)"><path style="stroke:none;fill-rule:nonzero;fill:#37474f;fill-opacity:1" d="M225.2 82.246h6.077v28.195l-3.039.926-3.039-.926ZM220.832 77.895h6.078c2.34 0 4.367 1.894 4.367 4.351H225.2c0-2.457-2.027-4.351-4.367-4.351Zm0 0"/><path style="stroke:none;fill-rule:nonzero;fill:#37474f;fill-opacity:1" d="M225.2 110.441h6.077c0 7.762 6.235 14.09 13.88 14.09h-6.079c-7.644 0-13.879-6.328-13.879-14.09ZM261.621 110.441h6.074c0 12.586-10.062 22.887-22.539 22.887h-6.078c12.477 0 22.543-10.3 22.543-22.887Zm0 0"/><path style="stroke:none;fill-rule:nonzero;fill:#37474f;fill-opacity:1" d="M261.621 82.246h6.074v28.195l-3.039 1.2-3.035-1.2ZM257.328 77.895h6.074c2.422 0 4.293 1.894 4.293 4.351h-6.074c0-2.457-1.875-4.351-4.293-4.351Zm0 0"/></g><g id="v" clip-path="url(#g)"><path style="stroke:none;fill-rule:nonzero;fill:#37474f;fill-opacity:1" d="M277.348 131.5h6.078c-.863 1.11-2.11 1.828-3.438 1.828h-6.078c1.328 0 2.574-.719 3.438-1.828ZM273.973 78.488h6.078c1.304 0 2.586.633 3.375 1.856h-6.078a3.991 3.991 0 0 0-3.375-1.856ZM290.523 113.21h6.079l-13.176 18.29h-6.078ZM277.348 80.344h6.078l13.176 18.215h-6.079ZM309.629 132.453h6.078c-.777.555-1.64.875-2.496.875h-6.078c.855 0 1.719-.32 2.496-.875ZM307.059 78.488h6.078c.883 0 1.777.297 2.57.907h-6.078c-.793-.61-1.688-.907-2.57-.907ZM295.75 105.848h6.078l14.817 20.586h-6.079Zm0 0"/><path style="stroke:none;fill-rule:nonzero;fill:#37474f;fill-opacity:1" d="m310.566 85.418 3.43-1.305 2.649 1.305-14.817 20.43-2.555 1.035-3.523-1.035ZM310.566 126.434h6.075c1.328 1.906 1.02 4.675-.934 6.02h-6.078c1.953-1.345 2.266-4.114.937-6.02Zm0 0"/><path style="stroke:none;fill-rule:nonzero;fill:#37474f;fill-opacity:1" d="M309.629 79.395h6.078c1.953 1.347 2.262 4.035.934 6.023h-6.075c1.329-1.988 1.016-4.676-.937-6.023Zm0 0"/></g><g id="x" clip-path="url(#h)"><path style="stroke:none;fill-rule:nonzero;fill:#000;fill-opacity:1" d="M225.2 82.246h6.077v28.195l-3.039.926-3.039-.926ZM220.832 77.895h6.078c2.34 0 4.367 1.894 4.367 4.351H225.2c0-2.457-2.027-4.351-4.367-4.351Zm0 0"/><path style="stroke:none;fill-rule:nonzero;fill:#000;fill-opacity:1" d="M225.2 110.441h6.077c0 7.762 6.235 14.09 13.88 14.09h-6.079c-7.644 0-13.879-6.328-13.879-14.09ZM261.621 110.441h6.074c0 12.586-10.062 22.887-22.539 22.887h-6.078c12.477 0 22.543-10.3 22.543-22.887Zm0 0"/><path style="stroke:none;fill-rule:nonzero;fill:#000;fill-opacity:1" d="M261.621 82.246h6.074v28.195l-3.039 1.2-3.035-1.2ZM257.328 77.895h6.074c2.422 0 4.293 1.894 4.293 4.351h-6.074c0-2.457-1.875-4.351-4.293-4.351Zm0 0"/></g><g id="z" clip-path="url(#i)"><path style="stroke:none;fill-rule:nonzero;fill:#000;fill-opacity:1" d="M277.348 131.5h6.078c-.863 1.11-2.11 1.828-3.438 1.828h-6.078c1.328 0 2.574-.719 3.438-1.828ZM273.973 78.488h6.078c1.304 0 2.586.633 3.375 1.856h-6.078a3.991 3.991 0 0 0-3.375-1.856ZM290.523 113.21h6.079l-13.176 18.29h-6.078ZM277.348 80.344h6.078l13.176 18.215h-6.079ZM309.629 132.453h6.078c-.777.555-1.64.875-2.496.875h-6.078c.855 0 1.719-.32 2.496-.875ZM307.059 78.488h6.078c.883 0 1.777.297 2.57.907h-6.078c-.793-.61-1.688-.907-2.57-.907ZM295.75 105.848h6.078l14.817 20.586h-6.079Zm0 0"/><path style="stroke:none;fill-rule:nonzero;fill:#000;fill-opacity:1" d="m310.566 85.418 3.43-1.305 2.649 1.305-14.817 20.43-2.555 1.035-3.523-1.035ZM310.566 126.434h6.075c1.328 1.906 1.02 4.675-.934 6.02h-6.078c1.953-1.345 2.266-4.114.937-6.02Zm0 0"/><path style="stroke:none;fill-rule:nonzero;fill:#000;fill-opacity:1" d="M309.629 79.395h6.078c1.953 1.347 2.262 4.035.934 6.023h-6.075c1.329-1.988 1.016-4.676-.937-6.023Zm0 0"/></g><g id="B" clip-path="url(#j)"><path style="stroke:none;fill-rule:nonzero;fill:#000;fill-opacity:1" d="m106.633 128.969 3.039-.64 3.039.64c0 2.457-2.027 4.36-4.367 4.36h-6.078c2.34 0 4.367-1.903 4.367-4.36Zm0 0"/><path style="stroke:none;fill-rule:nonzero;fill:#000;fill-opacity:1" d="M106.633 82.246h6.078v46.723h-6.078Zm0 0"/><path style="stroke:none;fill-rule:nonzero;fill:#000;fill-opacity:1" d="M102.266 77.895h6.078c2.34 0 4.367 1.894 4.367 4.351l-2.941.863-3.137-.863c0-2.457-2.028-4.351-4.367-4.351Zm0 0"/></g><g id="D" clip-path="url(#k)"><path style="stroke:none;fill-rule:nonzero;fill:#000;fill-opacity:1" d="M46.582 82.246h6.078v28.195h-6.078Zm0 0"/><path style="stroke:none;fill-rule:nonzero;fill:#000;fill-opacity:1" d="M42.215 77.895h6.078c2.34 0 4.367 1.894 4.367 4.351l-3.508 1.457-2.57-1.457c0-2.457-2.027-4.351-4.367-4.351ZM46.582 110.441l3.43-1.605 2.648 1.605c0 7.762 6.238 14.09 13.88 14.09h-6.08c-7.64 0-13.878-6.328-13.878-14.09ZM83.004 110.441l3.039-1.265 3.035 1.265c0 12.586-10.062 22.887-22.539 22.887h-6.078c12.477 0 22.543-10.3 22.543-22.887Zm0 0"/><path style="stroke:none;fill-rule:nonzero;fill:#000;fill-opacity:1" d="M83.004 82.246h6.074v28.195h-6.074Zm0 0"/><path style="stroke:none;fill-rule:nonzero;fill:#000;fill-opacity:1" d="M78.71 77.895h6.075c2.422 0 4.293 1.894 4.293 4.351l-3.035 1.457-3.04-1.457c0-2.457-1.874-4.351-4.292-4.351Zm0 0"/></g><filter id="a" filterUnits="objectBoundingBox" x="0%" y="0%" width="100%" height="100%"><feColorMatrix in="SourceGraphic" values="0 0 0 0 1 0 0 0 0 1 0 0 0 0 1 0 0 0 1 0"/></filter></defs><path style="stroke:none;fill-rule:nonzero;fill:#ebebeb;fill-opacity:1" d="m222.96 112.977-2.245 11.632c-.965 5.004-5.45 8.04-10.461 7.07-4.645-.898-8.035-5.449-7.07-10.452l3.59-18.614c.03-.175.214-.136.25-.32-.149-.211-.149-.211-.114-.39.899-4.657 5.809-7.977 10.457-7.083 11.274 2.176 22.13-5.011 24.266-16.105 2.176-11.27-5.262-21.8-16.535-23.973-7.336-1.418-14.536 1.281-19.078 6.528-3.325 3.816-8.97 4.207-12.786.87-3.632-3.288-4.058-8.761-.726-12.566 8.578-9.851 22.195-15.023 35.969-12.367 20.761 4.004 34.511 24.102 30.507 44.855-3.414 17.72-18.629 30.188-36.023 30.915Zm-7.558 39.183-.62 3.219c-.966 5.012-5.45 8.043-10.462 7.078-4.648-.894-8.039-5.45-7.07-10.46l.617-3.22c.934-4.828 5.809-7.968 10.457-7.074 5.012.965 8.008 5.625 7.078 10.457ZM111.309 145.762l-2.797-11.512c-1.203-4.953 1.613-9.578 6.574-10.781 4.598-1.117 9.574 1.613 10.777 6.562l4.477 18.422c.043.172-.137.215-.094.395.223.129.223.129.266.308 1.12 4.61-1.965 9.672-6.563 10.79-11.16 2.71-18.039 13.757-15.37 24.738 2.706 11.152 13.85 17.636 25.01 14.925 7.259-1.765 12.684-7.214 14.63-13.87 1.441-4.856 6.41-7.56 11.265-6.114 4.672 1.484 7.336 6.281 5.887 11.129-3.703 12.527-13.934 22.894-27.566 26.207-20.543 4.992-41.41-7.566-46.399-28.106-4.261-17.53 4.383-35.199 19.903-43.093Zm-9.422-38.778-.774-3.187c-1.207-4.957 1.61-9.582 6.57-10.79 4.598-1.116 9.575 1.614 10.782 6.575l.773 3.188c1.16 4.777-1.965 9.66-6.566 10.777-4.957 1.207-9.625-1.781-10.785-6.563Zm0 0"/><path style="stroke:none;fill-rule:nonzero;fill:#455a64;fill-opacity:1" d="M262.766 272.656s-.121 7.028-4.621 15h-6.34c-4.5-7.972-4.621-15-4.621-15 6.507-3.64 6.675-11.789 6.675-11.789h.66v12.903a1.987 1.987 0 0 0-1.53 1.94c0 1.099.886 1.985 1.984 1.985a1.986 1.986 0 0 0 1.988-1.984c0-.95-.649-1.73-1.531-1.941v-12.903h.656s.172 8.149 6.68 11.79Zm0 0"/><path style="stroke:none;fill-rule:nonzero;fill:#455a64;fill-opacity:1" d="M250.293 286.883h9.363v3.941h-9.363ZM276.719 281.957h-.633c0-11.64-9.469-21.113-21.113-21.113-11.641 0-21.11 9.472-21.11 21.113h-.633c0-11.992 9.754-21.746 21.747-21.746 11.988 0 21.742 9.758 21.742 21.746Zm0 0"/><path style="stroke:none;fill-rule:nonzero;fill:#455a64;fill-opacity:1" d="M233.055 259.95h43.347v.632h-43.347ZM231.316 279.727h4.457v4.46h-4.457Zm0 0"/><path style="stroke:none;fill-rule:nonzero;fill:#455a64;fill-opacity:1" d="M236.09 284.5H231v-5.09h5.09Zm-4.457-.629h3.828v-3.828h-3.828ZM231.316 258.04h4.457v4.456h-4.457Zm0 0"/><path style="stroke:none;fill-rule:nonzero;fill:#455a64;fill-opacity:1" d="M236.09 262.813H231v-5.09h5.09Zm-4.457-.633h3.828v-3.828h-3.828ZM274.176 279.727h4.457v4.46h-4.457Zm0 0"/><path style="stroke:none;fill-rule:nonzero;fill:#455a64;fill-opacity:1" d="M278.95 284.5h-5.09v-5.09h5.09Zm-4.462-.629h3.828v-3.828h-3.828ZM274.176 258.04h4.457v4.456h-4.457Zm0 0"/><path style="stroke:none;fill-rule:nonzero;fill:#455a64;fill-opacity:1" d="M278.95 262.813h-5.09v-5.09h5.09Zm-4.462-.633h3.828v-3.828h-3.828ZM318.86 201.727h-.95v-.633h.317v-.317h.632ZM316.633 201.727h-1.278v-.633h1.278Zm-2.555 0h-1.281v-.633h1.281Zm-2.558 0h-1.278v-.633h1.278Zm-2.555 0h-1.281v-.633h1.28Zm-2.559 0h-1.277v-.633h1.277Zm-2.554 0h-1.282v-.633h1.282Zm-2.559 0h-1.277v-.633h1.277Zm-2.555 0h-1.277v-.633h1.277Zm-2.558 0h-1.278v-.633h1.278Zm-2.555 0h-1.277v-.633h1.277Zm-2.555 0h-1.28v-.633h1.28Zm-2.558 0h-1.278v-.633h1.278Zm-2.559 0h-1.277v-.633h1.277ZM283.398 201.727h-.945v-.95h.629v.317h.316ZM283.082 199.5h-.629v-1.277h.629Zm0-2.555h-.629v-1.28h.629Zm0-2.558h-.629v-1.278h.629Zm0-2.555h-.629v-1.281h.629Zm0-2.559h-.629v-1.277h.629Zm0-2.554h-.629v-1.278h.629Zm0-2.559h-.629v-1.277h.629Zm0-2.555h-.629v-1.277h.629Zm0-2.558h-.629v-1.277h.629Zm0-2.555h-.629v-1.277h.629Zm0-2.558h-.629v-1.278h.629Zm0-2.555h-.629v-1.277h.629Zm0-2.555h-.629v-1.281h.629ZM283.082 166.266h-.629v-.95h.945v.633h-.316ZM316.633 165.95h-1.278v-.634h1.278Zm-2.555 0h-1.281v-.634h1.281Zm-2.558 0h-1.278v-.634h1.278Zm-2.555 0h-1.277v-.634h1.277Zm-2.559 0h-1.277v-.634h1.277Zm-2.554 0h-1.282v-.634h1.282Zm-2.559 0h-1.277v-.634h1.277Zm-2.555 0h-1.277v-.634h1.277Zm-2.558 0h-1.278v-.634h1.278Zm-2.555 0h-1.277v-.634h1.277Zm-2.555 0h-1.28v-.634h1.28Zm-2.558 0h-1.278v-.634h1.278Zm-2.559 0h-1.277v-.634h1.277ZM318.86 166.266h-.633v-.317h-.317v-.633h.95ZM318.86 199.5h-.633v-1.277h.632Zm0-2.555h-.633v-1.28h.632Zm0-2.558h-.633v-1.278h.632Zm0-2.555h-.633v-1.281h.632Zm0-2.559h-.633v-1.277h.632Zm0-2.554h-.633v-1.278h.632Zm0-2.559h-.633v-1.277h.632Zm0-2.555h-.633v-1.277h.632Zm0-2.558h-.633v-1.277h.632Zm0-2.555h-.633v-1.277h.632Zm0-2.558h-.633v-1.278h.632Zm0-2.555h-.633v-1.277h.632Zm0-2.555h-.633v-1.281h.632Zm0 0"/><path style="stroke:none;fill-rule:nonzero;fill:#455a64;fill-opacity:1" d="M280.54 199.18h4.456v4.46h-4.457Zm0 0"/><path style="stroke:none;fill-rule:nonzero;fill:#455a64;fill-opacity:1" d="M285.313 203.957h-5.09v-5.09h5.09Zm-4.458-.633h3.825v-3.828h-3.825ZM280.54 181.293h4.456v4.457h-4.457Zm0 0"/><path style="stroke:none;fill-rule:nonzero;fill:#455a64;fill-opacity:1" d="M285.313 186.066h-5.09v-5.09h5.09Zm-4.458-.629h3.825v-3.828h-3.825ZM280.54 163.406h4.456v4.457h-4.457Zm0 0"/><path style="stroke:none;fill-rule:nonzero;fill:#455a64;fill-opacity:1" d="M285.313 168.18h-5.09v-5.09h5.09Zm-4.458-.633h3.825v-3.824h-3.825ZM316.313 199.18h4.46v4.46h-4.46Zm0 0"/><path style="stroke:none;fill-rule:nonzero;fill:#455a64;fill-opacity:1" d="M321.09 203.957H316v-5.09h5.09Zm-4.461-.633h3.828v-3.828h-3.828ZM316.313 181.293h4.46v4.457h-4.46Zm0 0"/><path style="stroke:none;fill-rule:nonzero;fill:#455a64;fill-opacity:1" d="M321.09 186.066H316v-5.09h5.09Zm-4.461-.629h3.828v-3.828h-3.828ZM316.313 163.406h4.46v4.457h-4.46Zm0 0"/><path style="stroke:none;fill-rule:nonzero;fill:#455a64;fill-opacity:1" d="M321.09 168.18H316v-5.09h5.09Zm-4.461-.633h3.828v-3.824h-3.828ZM298.426 163.406h4.457v4.457h-4.457Zm0 0"/><path style="stroke:none;fill-rule:nonzero;fill:#455a64;fill-opacity:1" d="M303.2 168.18h-5.09v-5.09h5.09Zm-4.458-.633h3.828v-3.824h-3.828ZM298.426 199.18h4.457v4.46h-4.457Zm0 0"/><path style="stroke:none;fill-rule:nonzero;fill:#455a64;fill-opacity:1" d="M303.2 203.957h-5.09v-5.09h5.09Zm-4.458-.633h3.828v-3.828h-3.828ZM301.086 187.777h-7.137l-2.777 7.786h2.703v.687h-5.516v-.688h1.696l9.195-24.765h2.957l9.082 24.766h1.66v.687H301.16v-.688h2.559Zm-6.813-.793h6.528l-3.137-9.449Zm0 0"/><path style="stroke:none;fill-rule:nonzero;fill:#ebebeb;fill-opacity:1" d="m293.79 54.652-22.462 22.301a3.902 3.902 0 0 1-5.512-.02 3.887 3.887 0 0 1 .02-5.507l22.457-22.309Zm0 0"/><path style="stroke:none;fill-rule:nonzero;fill:#c7c7c7;fill-opacity:1" d="m293.79 54.652-6.384 6.34-4.246-6.773 5.133-5.102Zm0 0"/><path style="stroke:none;fill-rule:nonzero;fill:#ebebeb;fill-opacity:1" d="M264.352 78.39a.988.988 0 0 1 .003-1.398l5.082-5.043 1.391 1.399-5.082 5.047a.983.983 0 0 1-1.394-.004Zm0 0"/><path style="stroke:none;fill-rule:nonzero;fill:#ebebeb;fill-opacity:1" d="m270.832 73.348-5.086 5.05a.987.987 0 0 1-1.394-.007.991.991 0 0 1 .003-1.399l.86-.851 4.223-4.192Zm0 0"/><path style="stroke:none;fill-rule:nonzero;fill:#455a64;fill-opacity:1" d="m287.215 47.496 8.215 8.277-3.903 3.872-8.214-8.274Zm0 0"/><path style="stroke:none;fill-rule:nonzero;fill:#455a64;fill-opacity:1" d="m291.852 56.57-5.493-5.53L291 46.433a3.898 3.898 0 0 1 5.492 5.53ZM279.676 68.668l-8.348 8.285a3.876 3.876 0 0 1-4.719.586l-.863.86a.987.987 0 0 1-1.394-.004.996.996 0 0 1 .007-1.403l.856-.851a3.875 3.875 0 0 1 .617-4.715l2.816-2.797Zm0 0"/><path style="stroke:none;fill-rule:nonzero;fill:#ffc727;fill-opacity:1" d="M82.574 256.473H58.813v-9.657h23.761Zm-21.66-2.102h19.559v-5.453H60.914ZM68.43 273.582H44.668v-9.656H68.43Zm-21.66-2.102h19.558v-5.457H46.77ZM82.574 290.691H58.813v-9.66h23.761Zm-21.66-2.101h19.559v-5.457H60.914ZM96.54 273.582H72.776v-9.656H96.54Zm-21.661-2.102h19.558v-5.457H74.88Zm0 0"/><path style="stroke:none;fill-rule:nonzero;fill:#ffc727;fill-opacity:1" d="M57.25 264.973h-1.402v-6.086h14.144v-3.465h1.403v4.863H57.25Zm0 0"/><path style="stroke:none;fill-rule:nonzero;fill:#ffc727;fill-opacity:1" d="M85.54 264.973h-1.403v-4.688H69.992v-4.863h1.403v3.465h14.144ZM71.395 282.082h-1.403v-4.687H55.848v-4.864h1.402v3.461h14.145ZM72.262 204.32l-3.059 2.192-7.844-10.946 3.063-2.191Zm0 0"/><path style="stroke:none;fill-rule:nonzero;fill:#263238;fill-opacity:1" d="m75.273 216.664 4.633-3.316-8.941-12.48-4.63 3.316Zm0 0"/><path style="stroke:none;fill-rule:nonzero;fill:#ffc727;fill-opacity:1" d="M71.75 179.035a18.47 18.47 0 0 0-1.926-6.09 18.253 18.253 0 0 0-10.765-9.05 18.24 18.24 0 0 0-14.008 1.218c-4.36 2.266-7.574 6.09-9.043 10.758-1.477 4.668-1.043 9.645 1.219 14.008 2.265 4.36 6.082 7.574 10.757 9.05 1.82.583 3.684.86 5.543.86 2.914 0 5.805-.7 8.465-2.078 4.36-2.274 7.574-6.098 9.051-10.766a18.346 18.346 0 0 0 .707-7.91Zm-4.887 6.586c-2.332 7.352-10.207 11.445-17.554 9.129a13.903 13.903 0 0 1-8.184-6.895 13.88 13.88 0 0 1-.938-10.66 13.906 13.906 0 0 1 6.887-8.183 13.91 13.91 0 0 1 6.45-1.59c1.413 0 2.828.219 4.21.652 3.559 1.125 6.461 3.57 8.192 6.887 1.722 3.324 2.058 7.113.937 10.66Zm0 0"/><use xlink:href="#l" mask="url(#m)"/><path style="stroke:none;fill-rule:nonzero;fill:#fff;fill-opacity:1" d="M49.348 192.434c-1.516-.496-2.899-1.371-4.102-2.446-.61-.531-1.148-1.144-1.644-1.793a13.1 13.1 0 0 1-1.254-2.101 11.569 11.569 0 0 1-1.051-4.746c-.004-1.621.3-3.223.883-4.696-.172 1.575-.235 3.13-.086 4.653.097.757.195 1.511.414 2.238.195.727.433 1.445.765 2.121.625 1.375 1.497 2.629 2.528 3.762a19.55 19.55 0 0 0 3.547 3.008Zm0 0"/><path style="stroke:none;fill-rule:nonzero;fill:#ffc727;fill-opacity:1" d="m51.66 49.086 22.008 22.008-6.523 6.527-22.008-22.008Zm0 0"/><path style="stroke:none;fill-rule:nonzero;fill:#ff9bbc;fill-opacity:1" d="m43.75 54.23-1.379-1.382a4.612 4.612 0 0 1 0-6.528c1.8-1.8 4.723-1.8 6.527 0l1.38 1.383Zm0 0"/><path style="stroke:none;fill-rule:nonzero;fill:#c7c7c7;fill-opacity:1" d="M45.133 55.613 43.75 54.23l6.527-6.527 1.383 1.383Zm0 0"/><path style="stroke:none;fill-rule:nonzero;fill:#ffc727;fill-opacity:1" d="m67.055 77.531 6.3 1.375 2.075.465-.434-2.062-1.332-6.22-1.437-.116s.12 1.379.117 1.406l-1.438-.117s.117 1.379.117 1.406l-1.425-.129s.105 1.39.101 1.418l-1.422-.129s.106 1.39.102 1.418l-1.426-.129c0-.004.106 1.39.102 1.414Zm0 0"/><use xlink:href="#n" mask="url(#o)"/><path style="stroke:none;fill-rule:nonzero;fill:#263238;fill-opacity:1" d="m73.355 78.906 2.075.465-.434-2.062Zm0 0"/><use xlink:href="#p" mask="url(#q)"/><path style="stroke:none;fill-rule:nonzero;fill:#37474f;fill-opacity:1" d="M229.813 323.14H155.57c-.613-2.39-1.207-4.742-1.797-7.054-.68-2.664-1.347-5.262-1.988-7.793-.14-.563-.289-1.129-.43-1.684-.492-1.937-.968-3.828-1.44-5.664-.282-1.117-.563-2.218-.837-3.308-.293-1.114-.566-2.203-.836-3.266-.078-.281-.144-.566-.219-.84-.074-.308-.148-.61-.226-.91-.094-.379-.188-.734-.281-1.101v-.008c-.102-.387-.196-.766-.293-1.14-.188-.716-.368-1.419-.536-2.106-.261-1.02-.515-2.016-.761-2.985-.106-.422-.215-.847-.32-1.261-.18-.676-.348-1.336-.508-1.985-.114-.433-.215-.855-.32-1.27a616.453 616.453 0 0 1-1.223-4.8c-.106-.395-.2-.781-.301-1.156-.16-.649-.32-1.27-.473-1.872a41.796 41.796 0 0 1-.281-1.101c-.328-1.281-.629-2.445-.883-3.473-.074-.273-.14-.535-.207-.789-.168-.68-.328-1.281-.46-1.816-.06-.215-.106-.422-.16-.613-.06-.215-.106-.415-.153-.59-.028-.133-.067-.266-.094-.38-.047-.187-.094-.355-.129-.507a3.72 3.72 0 0 0-.059-.227c-.113-.441-.167-.668-.167-.668h72.265s2.379 8.207 6.192 21.434c.77 2.691 1.609 5.598 2.5 8.684 2.53 8.82 5.488 19.109 8.667 30.25Zm0 0"/><path style="stroke:none;fill-rule:nonzero;fill:#263238;fill-opacity:1" d="M167.723 323.14h-1.852c-2.746-11.374-5.43-22.769-7.988-34.18-.621-2.776-1.235-5.55-1.844-8.335-.059-.266-.113-.52-.168-.781-.031-.14.176-.2.215-.059.027.086.047.172.074.254.84 2.984 1.676 5.977 2.496 8.969 3.133 11.347 6.133 22.73 9.067 34.133Zm0 0"/><path style="stroke:none;fill-rule:nonzero;fill:#263238;fill-opacity:1" d="m210.11 262.777-3.188 15.965-2.617 13.098-4.45 22.316-.46 2.285-.762 3.813-.574 2.887h-42.5c-.602-2.399-1.204-4.75-1.786-7.055-.68-2.664-1.347-5.262-1.988-7.793-.14-.563-.289-1.129-.43-1.684-.492-1.937-.968-3.828-1.44-5.664-.282-1.117-.563-2.218-.837-3.312-.293-1.11-.566-2.2-.836-3.262-.078-.285-.144-.566-.219-.84-.074-.308-.148-.61-.226-.91-.094-.379-.188-.734-.281-1.101v-.012c-.102-.383-.196-.762-.293-1.137-.188-.715-.368-1.422-.536-2.11a893.076 893.076 0 0 1-.761-2.98c-.113-.433-.215-.847-.32-1.261-.18-.676-.348-1.336-.508-1.985-.114-.433-.215-.855-.32-1.27a616.453 616.453 0 0 1-1.223-4.8c-.106-.395-.2-.781-.301-1.156-.16-.649-.32-1.27-.473-1.872a46.116 46.116 0 0 1-.281-1.101c-.328-1.281-.629-2.445-.883-3.473-.074-.273-.14-.535-.207-.789-.168-.68-.328-1.281-.46-1.816-.06-.219-.106-.426-.16-.613-.06-.215-.106-.415-.153-.594-.028-.13-.067-.262-.094-.375-.047-.188-.094-.36-.129-.508a3.72 3.72 0 0 0-.059-.227c-.113-.441-.167-.668-.167-.668h69.921Zm0 0"/><path style="stroke:none;fill-rule:nonzero;fill:#37474f;fill-opacity:1" d="M210.117 262.75v.027c-.027.395-.3 4.703-.996 11.282a331.926 331.926 0 0 1-.707 6.28c-.422 3.567-.95 7.5-1.598 11.661-1.109 7.254-2.558 15.164-4.441 22.898a184.293 184.293 0 0 1-2.184 8.243l-93.285.035s-2.695-5.137-2.484-7.856c.848-10.902 7.226-52.543 7.226-52.543l84.622-.027Zm0 0"/><path style="stroke:none;fill-rule:nonzero;fill:#263238;fill-opacity:1" d="M201.555 271.32c-.102 3.34-.243 6.672-.461 9.993a162.292 162.292 0 0 1-1.024 10.792 7.211 7.211 0 0 1-.047.395 265.375 265.375 0 0 1-1.515 10.074c-.535 3.125-.934 6.492-2.317 9.383-.515 1.09-1.257 2.133-2.18 2.945-.855.75-1.855 1.317-2.984 1.543-.18.047-.367.075-.554.094-.047.008-.102 0-.16.008.066.047.113.105.105.2-.04 1.116-.012 2.257-.133 3.366-.012.047-.012.094-.02.14-.113.97-.292 1.93-.468 2.888h-1.602c.008-.016.008-.036.02-.055.281-1.055.515-2.117.781-3.18.281-1.082.64-2.144.895-3.246.007-.047.047-.074.074-.105-2.031.03-4.082-1.051-4.817-3.02-.535-1.43-.293-2.918-.074-4.383.29-1.91.574-3.82.863-5.73.547-3.508 1.254-6.98 1.875-10.473l.282-1.59c1.25-7.101 2.558-14.203 4.129-21.242.058-.293.12-.582.187-.875.04-.199.36-.14.34.047-.047.469-.094.95-.152 1.422-.27 2.7-.59 5.39-.97 8.07-.448 3.153-.76 6.324-1.202 9.477-.149 1.07-.301 2.144-.461 3.215-.723 5.187-1.477 10.37-2.363 15.535-.41 2.398-1.91 6.699 1.543 7.441.859.192 1.648.047 2.343-.289 1.535-.765 2.653-2.515 3.211-4.058.977-2.747 1.324-5.774 1.832-8.633a247.15 247.15 0 0 0 1.504-9.496v-.008c.567-3.961 1.149-7.914 1.77-11.867.312-2.012.632-4.024.949-6.04.152-.93.305-1.863.453-2.792.04-.2.348-.145.348.054ZM127.371 296.121c3.883-.02 7.75-.582 11.508-1.55 1.734-.446 3.45-1 5.148-1.56 1.633-.534 3.325-1.19 4.641-2.327 2.617-2.258 3.836-5.813 4.973-8.965 1.28-3.563 2.21-7.192 3.015-10.887.04-.18.305-.121.313.05.125 4.145-.469 8.364-1.567 12.36-.937 3.41-2.203 7.219-4.957 9.606-2.902 2.515-6.836 3.398-10.547 3.859-4.191.516-8.367.395-12.539-.176-.257-.031-.261-.41.012-.41ZM120.906 270.945c-.207 5.22-5.449 35.551-5.972 45.88-.094 1.847 3.652 4.472 3.558 6.316h-1.75c.117-1.805-3.605-4.391-3.484-6.2.691-10.39 6.793-40.793 7.199-46.007.027-.293.461-.274.45.011Zm0 0"/><path style="stroke:none;fill-rule:nonzero;fill:#d3766a;fill-opacity:1" d="M199.46 154.93c32.72 29.636 55.985 55.172 55.677 66.785-.696 26.012-14.41 31.629-16.852 30.8-25.805-8.753-42.207-57.878-53.05-87.55-10.77-29.461 4.855-18.52 14.226-10.035Zm0 0"/><path style="stroke:none;fill-rule:nonzero;fill:#ffc727;fill-opacity:1" d="m245.906 197.152-41.226 22.012s-16.79-36.64-22.508-58.543c-5.715-21.902 3.066-21.203 22.258-4.059 19.195 17.145 41.476 40.59 41.476 40.59Zm0 0"/><path style="stroke:none;fill-rule:nonzero;fill:#263238;fill-opacity:1" d="M237.504 190.797c-15.914 10.59-31.309 17.437-34.399 19.183-.144.083-.261-.16-.109-.234 3.117-1.559 20.047-11.918 34.383-19.21.168-.087.277.16.125.26Zm0 0"/><use xlink:href="#r" mask="url(#s)"/><path style="stroke:none;fill-rule:nonzero;fill:#ebebeb;fill-opacity:1" d="m214.398 267.766-103.914 2.722s-5.117-5.293-4.34-11.543c2.872-23.054 39.528-103.867 53.793-113.582 6.383-4.347 20.067-7.75 27.672-2.05 11.817 8.851 23.551 72.171 30.254 107.906 1.922 10.246-3.39 16.449-3.465 16.547Zm0 0"/><path style="stroke:none;fill-rule:nonzero;fill:#263238;fill-opacity:1" d="M160.563 150.582c3.613 5.93 8.585 11.02 14.234 14.211 2.855 1.613 5.937 2.82 9.062 2.82 1.598 0 3.348-.273 4.641-1.3 1.262-1.004 2.152-2.543 2.773-4.141.696-1.797 1.094-3.781 1.262-5.774.192-2.23.25-4.515.145-6.777-.004-.086.113-.074.117.012.101 2.144.355 4.289.308 6.43-.042 1.898-.23 3.789-.722 5.578-.473 1.718-1.23 3.355-2.309 4.648-1.176 1.41-2.707 2.102-4.418 2.352-3.273.484-6.668-.47-9.754-2.04-2.984-1.515-5.859-3.644-8.347-6.117-2.82-2.8-5.262-6.148-7.164-9.808-.063-.13.101-.211.172-.094Zm0 0"/><path style="stroke:none;fill-rule:nonzero;fill:#ffc727;fill-opacity:1" d="M162.871 141.418s4.367 37.605 4.852 55.062c.488 17.454-4.852 116.407-4.852 116.407s-42.535-8.094-47.828-9.5c-5.29-1.407-19.723-15.36-19.723-15.36s33.282-120.226 67.551-146.609ZM187.61 143.313c5.074 6.308 12.624 43.167 13.144 46.93.52 3.76 15.812 118.234 15.812 118.234s9.383-9.297 10.102-12.348c.723-3.047-9.145-58.192-13.711-78.715-5.156-23.18-13.223-57.508-18.61-65.5-3.777-5.598-6.738-8.601-6.738-8.601Zm0 0"/><path style="stroke:none;fill-rule:nonzero;fill:#d3766a;fill-opacity:1" d="M236.426 251.148c-6.82-9.5-13.528-31.886-6.844-77.773.926-6.348 47.102-3.016 46.465 3.816-.805 8.606-5.793 41.825-6.465 44.207-5.664 20.098-28.531 36.2-33.156 29.75Zm0 0"/><path style="stroke:none;fill-rule:nonzero;fill:#263238;fill-opacity:1" d="M231.652 243.203c-1.613-3.144-2.78-6.508-3.707-9.922-.445-1.715-.855-3.437-1.168-5.18-.332-1.765-.5-3.538-.613-5.304a105.351 105.351 0 0 1-.144-10.594c.125-3.523.394-7.055.984-10.531-.14 3.52-.11 7.031-.047 10.539.078 3.508.207 7.012.461 10.496.14 1.742.293 3.477.59 5.172.304 1.723.62 3.437.996 5.144.742 3.418 1.574 6.825 2.648 10.18Zm0 0"/><path style="stroke:none;fill-rule:nonzero;fill:#d3766a;fill-opacity:1" d="M239.559 155.41c-8.2 4.664-9.977 17.965-9.977 17.965l35.977 16.953s7.441-10.598 13.507-13.84c1.766-.941 10.793-6.25 19.88-10.84 10.312-5.21 20.456-11.992 20.949-13.296.945-2.508-2.563-5.29-10.336-3.422-7.77 1.86-22.29 8.129-23.258 8.273-.121.02-.461 0-.985-.047l-.007-.004c-.407-.16-7.332-9.152-12.461-8.996-5.23.153-27.625 4.024-33.29 7.254Zm0 0"/><path style="stroke:none;fill-rule:nonzero;fill:#d3766a;fill-opacity:1" d="M273.668 166.27s19.46-.403 22.73-2.793c3.274-2.387 25.106-13.723 26.102-16.215 1-2.489-2.566-5.29-10.336-3.422-7.773 1.863-22.285 8.129-23.262 8.277-.976.149-17.945-2.293-19.578-2.043-1.629.246 4.344 16.196 4.344 16.196Zm0 0"/><path style="stroke:none;fill-rule:nonzero;fill:#263238;fill-opacity:1" d="M284.66 167.594c2.07-.512 4.117-1.11 6.168-1.7 1.02-.308 2.04-.632 3.05-.976a43.96 43.96 0 0 0 1.52-.54c.254-.089.508-.202.762-.308.266-.125.54-.273.746-.398 3.688-2.098 7.39-4.223 11.07-6.363 3.676-2.168 7.34-4.297 10.977-6.575.906-.609 1.774-1.285 2.52-2.109.37-.41.714-.863.968-1.379.247-.512.426-1.117.301-1.73-.117-.614-.543-1.118-1.02-1.414-.48-.313-1.007-.497-1.534-.622-1.06-.261-2.141-.28-3.204-.246 1.063.086 2.125.211 3.121.536.493.16.973.375 1.368.68.394.296.672.714.718 1.16.11.91-.543 1.82-1.238 2.523-.723.722-1.578 1.328-2.469 1.863a789.187 789.187 0 0 0-11.078 6.336c-3.672 2.168-7.344 4.309-10.957 6.61-.808.558-1.84.906-2.812 1.312-.985.39-1.989.75-2.985 1.121Zm0 0"/><path style="stroke:none;fill-rule:nonzero;fill:#d3766a;fill-opacity:1" d="M270.383 163.348s21.328-.528 24.601-2.914c3.274-2.391 25.106-13.727 26.102-16.215.996-2.492-2.57-5.29-10.34-3.426-7.77 1.863-22.285 8.129-23.262 8.277-.976.149-17.601-.504-19.234-.257-1.629.25 2.133 14.535 2.133 14.535Zm0 0"/><path style="stroke:none;fill-rule:nonzero;fill:#263238;fill-opacity:1" d="M281.023 165.957c2.508-.742 4.985-1.582 7.465-2.426 1.23-.441 2.461-.894 3.684-1.37.61-.24 1.219-.49 1.828-.755a14.39 14.39 0 0 0 1.773-.933c4.508-2.63 9.016-5.286 13.5-7.97l6.704-4.065 1.668-1.036c.546-.343 1.132-.707 1.664-1.14a8.051 8.051 0 0 0 1.457-1.48c.402-.571.78-1.25.773-2.071 0-.402-.137-.824-.371-1.152-.227-.336-.543-.567-.856-.754-.632-.368-1.308-.543-1.972-.664-1.336-.227-2.664-.235-3.98-.16-2.65.152-5.231.824-7.633 1.851 2.488-.789 5.062-1.34 7.648-1.305 1.293-.007 2.594.047 3.828.309.613.133 1.215.328 1.703.637.496.304.801.746.774 1.242-.008.5-.297 1.035-.66 1.504-.38.46-.825.894-1.32 1.27-.977.738-2.169 1.359-3.274 2.038l-6.735 4.008c-4.476 2.695-8.96 5.38-13.386 8.168-.567.379-1.067.672-1.657.961-.578.281-1.168.55-1.761.813a146.366 146.366 0 0 1-3.606 1.52Zm0 0"/><path style="stroke:none;fill-rule:nonzero;fill:#d3766a;fill-opacity:1" d="M270.555 164.008s18.414-4.79 21.457-7.012c3.047-2.223 18.437-9.031 19.367-11.351.926-2.317-2.395-4.922-9.625-3.188-7.234 1.738-15.813 3.824-16.723 3.961-.91.137-15.261 2.164-16.781 2.394-1.516.231 2.305 15.196 2.305 15.196Zm0 0"/><path style="stroke:none;fill-rule:nonzero;fill:#263238;fill-opacity:1" d="M275.855 164.25c3.2-1.05 6.38-2.156 9.563-3.246a286.718 286.718 0 0 0 4.766-1.68l1.187-.433c.399-.141.817-.336 1.188-.524.765-.383 1.503-.789 2.242-1.199a178.808 178.808 0 0 0 8.672-5.215c1.418-.91 2.828-1.836 4.222-2.797a66.707 66.707 0 0 0 2.07-1.472c.684-.52 1.356-1 2.012-1.692.317-.367.641-.894.594-1.523-.035-.625-.398-1.11-.758-1.438-.742-.668-1.593-1.004-2.441-1.265-1.703-.485-3.52-.61-5.258-.239-3.316.692-6.582 1.461-9.867 2.223a631.853 631.853 0 0 0-9.79 2.344c-1.632.324-3.304.597-4.96.883-1.656.304-3.313.605-4.961.964 3.371-.195 6.71-.5 10.078-.906l9.867-2.265c3.281-.73 6.57-1.477 9.848-2.137 1.558-.332 3.203-.238 4.734.187.75.22 1.504.535 2.016 1 .531.493.566.93.101 1.477-.496.535-1.187 1.058-1.84 1.558-.66.5-1.343.989-2.027 1.47-1.37.96-2.77 1.89-4.172 2.812-2.82 1.82-5.636 3.66-8.523 5.367-.723.426-1.445.851-2.18 1.238-.718.406-1.488.668-2.281.985l-4.7 1.832Zm0 0"/><path style="stroke:none;fill-rule:nonzero;fill:#d3766a;fill-opacity:1" d="M185.523 162.945c-6.492 2.203-18.859-6.847-24.148-14.64-.36-.535-.063-6.559-.05-13.899-.012-4.453-.13-9.41-.563-13.926-.09-.925 28.988 4.168 28.988 4.168s-1.879 9.735-1.078 17.602c.074.656.2 1.262.375 1.836.016.082.05.184.07.3.91 3.47 2.676 16.423-3.594 18.56Zm0 0"/><path style="stroke:none;fill-rule:nonzero;fill:#263238;fill-opacity:1" d="M189.754 124.648s-1.34 6.93-1.274 13.832c-13.765 4.73-24.632-2.601-27.156-4.535-.015-4.332-.14-9.11-.558-13.465Zm0 0"/><path style="stroke:none;fill-rule:nonzero;fill:#d3766a;fill-opacity:1" d="M203.578 86.89c1.434 10.45-8.46 38.38-16.578 43.657-11.77 7.644-28.73 5.828-34.645-7.793-5.73-13.2 7.805-49.371 16.66-53.93 13.04-6.71 32.442 2.625 34.563 18.067Zm0 0"/><path style="stroke:none;fill-rule:nonzero;fill:#263238;fill-opacity:1" d="M175.035 100.254c.04-.063.113.14.086.219-.715 1.855-1.223 4.101.258 5.316.043.04.004.133-.055.102-1.969-1.016-1.265-3.993-.289-5.637Zm0 0"/><path style="stroke:none;fill-rule:nonzero;fill:#263238;fill-opacity:1" d="M177.395 98.883c3.101.824 1.218 6.96-1.653 6.195-2.824-.754-.945-6.89 1.653-6.195ZM163.637 96.188c.004-.075-.18.046-.2.124-.507 1.926-1.417 4.04-3.332 4.157-.058.004-.082.101-.015.113 2.191.332 3.37-2.488 3.547-4.394Zm0 0"/><path style="stroke:none;fill-rule:nonzero;fill:#263238;fill-opacity:1" d="M162.527 93.691c-2.992-1.152-5.07 4.922-2.297 5.989 2.727 1.047 4.81-5.024 2.297-5.989ZM180.992 96.25c-.808-.402-1.484-.91-2.238-1.39-.856-.544-1.59-.887-2.016-1.856-.226-.516.086-1.285.57-1.555 1.122-.625 2.333-.219 3.387.395 1.14.664 1.852 1.465 2.32 2.699.454 1.2-.96 2.242-2.023 1.707ZM162.293 86.95c.898.058 1.738-.04 2.633-.071 1.012-.043 1.82.031 2.676-.59.457-.332.574-1.156.293-1.629-.653-1.105-1.903-1.367-3.122-1.37-1.324 0-2.343.335-3.367 1.163-.996.809-.3 2.418.887 2.496Zm0 0"/><path style="stroke:none;fill-rule:nonzero;fill:#263238;fill-opacity:1" d="M169.832 115.262c-2.105-1.707-5.297-2.367-7.328-2.739-.207-.101-.27-.593-.242-.812l.004-.016 1.379-3.968c-.61.097-3.676.464-3.399-.278 2.332-6.12 4.926-12.93 8.54-18.531.109-.191.41-.043.327.156-2.008 5.973-5.054 11.555-7.164 17.52.957-.055 2.547-.219 3.297.031.188.125-1.676 4.129-1.809 4.797 0 0 4.188.055 6.684 3.023.649.77.715 1.63-.289.817ZM172.105 119.3c-.59.294-1.23.755-1.93.595-.667-.153-1.34-.692-1.863-1.118-.054-.039-.132.004-.113.07.258.876 1.137 1.657 2.055 1.782.898.121 1.55-.477 2.008-1.188.062-.097-.07-.183-.157-.14ZM191.871 102.848c-.18-6.348 6.074-14.953 4-18.418-4.496-7.5-20.508-.707-29.258-3.34-8.48-2.555-9.633-8.867-5.992-15.266 3.645-6.394 10.899-9.215 20.832-7.707 10.277 1.559 18.016 8.274 21.926 12.895 0 0-1.082-4.086.043-4.907 1.129-.82 4.258 3.754 5.094 5.547.847 1.825.816 4.72.816 4.72s1.684.015 3.988.788c2.133.719 4.328 3.238 4.325 3.79 0 .554-3.204 0-5.399-.56 0 0 2.379 6.59.887 11.137-1.496 4.551-15.309 24.094-17.094 23.801-2.289-.375-4.094-9.898-4.168-12.48Zm0 0"/><path style="stroke:none;fill-rule:nonzero;fill:#263238;fill-opacity:1" d="M211.582 79.582c-.062-.07-.2.004-.144.09 1.511 2.414 2.542 4.996 2.585 7.883.047 3.351-1.171 6.578-2.812 9.457-3.188 5.597-7.805 10.144-12.066 14.906-.125.137.109.355.242.223 4.836-4.754 9.879-9.985 13.015-16.051 2.68-5.176 3.348-11.871-.82-16.508ZM196.89 82.313c-2.378-1.114-5.214-1.731-7.831-1.864-2.579-.133-5.082.727-7.586 1.23-5.61 1.133-11.508 1.536-16.961-.515-.07-.027-.106.078-.04.106 4.883 2.203 10.317 2.222 15.516 1.363 2.625-.434 5.274-1.395 7.93-1.504 3.023-.129 5.941.812 8.809 1.633.296.086.441-.32.164-.45ZM198.902 67c-2.867-2.785-6.222-5.07-9.754-6.93-3.39-1.789-7.015-3.226-10.832-3.75-6.586-.91-13.578 1.309-17.03 7.297-1.75 3.031-2.513 6.719-1.735 10.168.054.23.394.168.367-.066-.844-6.434 2.27-12.957 8.336-15.64 6.512-2.88 13.84-1 19.941 2 3.84 1.886 7.317 4.32 10.672 6.956.024.016.055-.015.035-.035Zm0 0"/><path style="stroke:none;fill-rule:nonzero;fill:#d3766a;fill-opacity:1" d="M193.2 110.516s8.863-7.332 12.359-3.926c3.496 3.402-4.918 15.254-10.254 15.719-5.34.464-5.868-4.47-5.868-4.47Zm0 0"/><path style="stroke:none;fill-rule:nonzero;fill:#263238;fill-opacity:1" d="M203.063 109.926c.078.015.062.129-.012.136-3.774.438-6.43 3.09-8.582 6.008 1.36-.976 2.922-1.285 4.273.38.07.09-.054.202-.144.155-1.309-.68-2.375-.714-3.625.137-.88.606-1.61 1.477-2.34 2.254-.242.262-.742-.05-.531-.371.015-.023.03-.047.05-.07 1.11-4.352 6.145-9.477 10.91-8.63Zm0 0"/><path style="stroke:none;fill-rule:nonzero;fill:#d3766a;fill-opacity:1" d="M144.637 154.926c-31.305 31.125-53.356 56.148-52.508 67.734 1.902 25.953 16.621 30.434 19.02 29.492 25.367-9.945 38.714-57.718 48.167-87.867 9.387-29.93-5.71-18.273-14.68-9.36Zm0 0"/><path style="stroke:none;fill-rule:nonzero;fill:#ffc727;fill-opacity:1" d="m100.207 197.695 42.207 20.07s15.066-35.816 19.758-57.96c4.691-22.145-4.047-21.035-22.422-3.02-18.375 18.02-39.543 40.91-39.543 40.91Zm0 0"/><path style="stroke:none;fill-rule:nonzero;fill:#263238;fill-opacity:1" d="M108.305 190.953c16.39 9.84 32.086 15.965 35.254 17.567.148.074.254-.172.097-.243-3.187-1.41-20.582-10.972-35.242-17.59-.168-.074-.266.172-.11.266Zm0 0"/><path style="stroke:none;fill-rule:nonzero;fill:#263238;fill-opacity:1" d="M139.691 216.371c.27.004 2.137.75 2.524.914 3.34-8.031 2.758-6.203 6.172-14.203 1.672-3.918 3.351-7.836 5.015-11.762 1.73-4.078 3.243-8.304 5.196-12.285.058-.117.218-.043.183.078-1.023 3.82-2.511 7.555-3.91 11.266.328-.582.637-1.176.996-1.746.809-1.266 1.598-2.535 2.301-3.863.11-.204.445-.067.336.14-.672 1.266-1.254 2.563-1.828 3.88-.574 1.315-1.223 2.581-1.887 3.855-.644 1.226-1.363 2.402-2.09 3.582-.09.144-.176.289-.265.433-.899 2.324-1.766 4.66-2.72 6.969-3.335 8.07-6.913 14.488-7.054 14.46-.547-.1-2.832-1.35-3.058-1.495-.122-.074-.024-.227.09-.223Zm0 0"/><path style="stroke:none;fill-rule:nonzero;fill:#d3766a;fill-opacity:1" d="M113.574 250.668c6.82-9.5 13.528-31.887 6.844-77.773-.926-6.352-47.102-3.016-46.465 3.816.805 8.605 5.793 41.82 6.465 44.207 5.664 20.098 28.531 36.195 33.156 29.75Zm0 0"/><path style="stroke:none;fill-rule:nonzero;fill:#263238;fill-opacity:1" d="M118.348 242.723c1.613-3.145 2.78-6.512 3.707-9.926.445-1.711.855-3.438 1.168-5.18.332-1.765.5-3.535.613-5.304.234-3.532.266-7.063.144-10.59-.125-3.528-.394-7.055-.984-10.532.14 3.52.11 7.028.043 10.536-.078 3.507-.203 7.011-.457 10.5-.144 1.738-.293 3.476-.59 5.171a128.46 128.46 0 0 1-.996 5.145c-.742 3.418-1.574 6.82-2.648 10.18Zm0 0"/><path style="stroke:none;fill-rule:nonzero;fill:#d3766a;fill-opacity:1" d="M110.441 154.926c8.2 4.668 9.977 17.969 9.977 17.969l-35.977 16.953S77 179.25 70.934 176.008c-1.766-.946-10.79-6.254-19.875-10.844-10.313-5.21-20.461-11.988-20.954-13.293-.945-2.512 2.567-5.293 10.336-3.422 7.77 1.86 22.29 8.125 23.262 8.274.121.015.457-.004.98-.047l.008-.008c.407-.16 7.332-9.148 12.461-8.996 5.23.156 27.625 4.027 33.29 7.254Zm0 0"/><path style="stroke:none;fill-rule:nonzero;fill:#d3766a;fill-opacity:1" d="M76.332 165.79s-19.46-.407-22.73-2.794c-3.274-2.387-25.106-13.723-26.102-16.215-1-2.492 2.566-5.289 10.336-3.426 7.773 1.868 22.285 8.13 23.262 8.278.976.148 17.945-2.29 19.578-2.043 1.629.25-4.344 16.2-4.344 16.2Zm0 0"/><path style="stroke:none;fill-rule:nonzero;fill:#263238;fill-opacity:1" d="M65.34 167.113c-2.07-.511-4.117-1.113-6.168-1.703-1.02-.308-2.04-.633-3.05-.972-.509-.176-1.017-.348-1.52-.543-.254-.09-.508-.204-.762-.305a7.656 7.656 0 0 1-.746-.403c-3.688-2.093-7.39-4.222-11.07-6.359-3.676-2.168-7.34-4.297-10.977-6.574-.906-.61-1.774-1.285-2.52-2.11-.37-.414-.715-.863-.968-1.382-.247-.512-.426-1.117-.301-1.73.117-.614.543-1.114 1.02-1.415.48-.308 1.007-.492 1.535-.62 1.058-.263 2.14-.282 3.203-.243-1.063.086-2.125.21-3.121.531-.493.164-.973.38-1.368.684-.394.297-.672.71-.718 1.156-.11.914.539 1.82 1.238 2.527.723.723 1.578 1.328 2.465 1.864a732.527 732.527 0 0 1 11.082 6.332c3.672 2.172 7.343 4.312 10.953 6.609.812.563 1.844.91 2.816 1.313.985.39 1.985.75 2.98 1.125Zm0 0"/><path style="stroke:none;fill-rule:nonzero;fill:#d3766a;fill-opacity:1" d="M79.617 162.867s-21.328-.531-24.601-2.918c-3.274-2.387-25.106-13.722-26.102-16.215-.996-2.488 2.57-5.289 10.34-3.422 7.77 1.864 22.285 8.13 23.262 8.278.976.144 17.601-.504 19.234-.258 1.629.246-2.133 14.535-2.133 14.535Zm0 0"/><path style="stroke:none;fill-rule:nonzero;fill:#263238;fill-opacity:1" d="M68.977 165.477c-2.508-.747-4.985-1.586-7.465-2.426-1.23-.442-2.461-.895-3.684-1.371a51.57 51.57 0 0 1-1.828-.754 14.943 14.943 0 0 1-1.773-.934 1472.197 1472.197 0 0 1-13.5-7.969l-6.704-4.066-1.668-1.039c-.546-.34-1.132-.703-1.664-1.137a7.953 7.953 0 0 1-1.457-1.484c-.402-.57-.78-1.246-.773-2.067 0-.406.137-.824.371-1.152.227-.336.543-.566.855-.758.633-.363 1.31-.539 1.973-.66 1.336-.226 2.664-.234 3.98-.16 2.65.148 5.231.824 7.633 1.852-2.488-.793-5.062-1.344-7.648-1.305-1.293-.008-2.594.043-3.828.308-.613.133-1.215.329-1.703.637-.496.305-.801.746-.774 1.242.008.5.297 1.036.66 1.5.38.465.825.899 1.32 1.274.977.738 2.169 1.36 3.274 2.039l6.735 4.008c4.476 2.691 8.96 5.379 13.386 8.168.567.379 1.067.672 1.657.96.578.282 1.168.551 1.761.813 1.192.524 2.399 1.024 3.606 1.516Zm0 0"/><path style="stroke:none;fill-rule:nonzero;fill:#d3766a;fill-opacity:1" d="M79.445 163.523s-18.414-4.789-21.457-7.011c-3.047-2.223-18.437-9.032-19.367-11.348-.93-2.32 2.39-4.926 9.625-3.187 7.234 1.734 15.813 3.82 16.723 3.96.91.137 15.258 2.165 16.781 2.395 1.516.23-2.305 15.191-2.305 15.191Zm0 0"/><path style="stroke:none;fill-rule:nonzero;fill:#263238;fill-opacity:1" d="M74.145 163.766c-3.2-1.051-6.38-2.153-9.563-3.246a254.938 254.938 0 0 1-4.766-1.676l-1.187-.438a9.753 9.753 0 0 1-1.188-.52 53.346 53.346 0 0 1-2.242-1.202 178.736 178.736 0 0 1-8.672-5.211 164.38 164.38 0 0 1-4.222-2.797 74.009 74.009 0 0 1-2.07-1.473c-.684-.52-1.356-1-2.012-1.691-.317-.367-.641-.895-.594-1.524.035-.625.398-1.11.758-1.437.742-.668 1.593-1.004 2.441-1.266 1.703-.484 3.52-.613 5.258-.242 3.316.695 6.582 1.465 9.867 2.227 3.262.761 6.594 1.542 9.79 2.343 1.632.32 3.304.594 4.96.88 1.656.308 3.313.609 4.961.968-3.371-.195-6.71-.5-10.078-.906l-9.867-2.266c-3.282-.73-6.57-1.48-9.848-2.137-1.559-.332-3.203-.238-4.734.188-.75.219-1.504.535-2.02 1-.531.492-.562.93-.101 1.472.5.536 1.191 1.063 1.84 1.563.664.5 1.343.988 2.03 1.469 1.372.96 2.77 1.89 4.173 2.808 2.82 1.825 5.636 3.66 8.523 5.371.719.426 1.445.848 2.18 1.239.715.402 1.488.664 2.277.984l4.703 1.832ZM36.18 323.45c88.937-.427 188.703-.43 277.64 0-88.937.433-188.703.429-277.64 0Zm0 0"/><path style="stroke:none;fill-rule:nonzero;fill:#fff;fill-opacity:1" d="M148.324 69.777a3.156 3.156 0 0 0 3.16 3.157 3.157 3.157 0 1 0-3.16-3.157Zm0 0"/><path style="stroke:none;fill-rule:nonzero;fill:#263238;fill-opacity:1" d="M148.324 69.777c.145 4 5.875 3.899 5.969 0-.098-3.894-5.824-3.996-5.969 0Zm0 0c.13-4.39 6.524-4.43 6.668 0-.148 4.43-6.539 4.391-6.668 0Zm0 0"/><path style="stroke:none;fill-rule:nonzero;fill:#fff;fill-opacity:1" d="M148.992 60.29a4.546 4.546 0 1 1-9.094 0 4.545 4.545 0 0 1 4.547-4.544 4.545 4.545 0 0 1 4.547 4.543Zm0 0"/><path style="stroke:none;fill-rule:nonzero;fill:#263238;fill-opacity:1" d="M139.898 60.29c-.054 3.91 4.946 5.87 7.551 3.003 1.582-1.621 1.582-4.383-.004-6.004-2.605-2.863-7.601-.906-7.547 3Zm0 0c-.066-4.063 5.036-6.29 7.977-3.427 1.934 1.758 1.934 5.098-.004 6.856-2.937 2.86-8.039.636-7.973-3.43Zm0 0"/><path style="stroke:none;fill-rule:nonzero;fill:#fff;fill-opacity:1" d="M139.887 34.086c-4.711-14.164-20.012-21.824-34.176-17.113-14.164 4.715-21.824 20.015-17.113 34.18 4.71 14.163 20.015 21.824 34.18 17.113 14.16-4.715 21.824-20.016 17.109-34.18Zm0 0"/><path style="stroke:none;fill-rule:nonzero;fill:#263238;fill-opacity:1" d="M100.09 19.59c-9.14 5.523-14.309 16.742-12.43 27.27 3.055 18.722 24.41 28.476 40.543 18.488 12.484-7.485 16.563-24.407 8.914-36.785-7.554-12.668-24.504-16.75-37.027-8.973Zm0 0c12.48-7.86 29.644-3.793 37.328 8.789 7.988 12.621 3.914 29.812-8.852 37.562-16.523 10.141-38.199.121-41.125-19.05-1.726-10.578 3.442-21.801 12.649-27.301Zm0 0"/><path style="stroke:none;fill-rule:nonzero;fill:#ffc727;fill-opacity:1" d="M123 44.078v2.672c0 1.148-.863 2.008-2.012 2.008a2.01 2.01 0 0 1-2.011-2.008v-4.273c0-.04.039-.04.039-.082-.04-.04-.04-.04-.04-.083 0-1.066.942-2.011 2.012-2.011 2.586 0 4.68-2.055 4.68-4.598 0-2.59-2.094-4.601-4.68-4.601a4.551 4.551 0 0 0-3.945 2.257 2.02 2.02 0 0 1-2.79.743 2 2 0 0 1-.698-2.75 8.607 8.607 0 0 1 7.433-4.274c4.762 0 8.664 3.86 8.664 8.625 0 4.063-2.836 7.473-6.652 8.375Zm0 8.992v.739c0 1.152-.863 2.015-2.012 2.015a2.014 2.014 0 0 1-2.011-2.015v-.739c0-1.105.941-2.011 2.011-2.011A1.99 1.99 0 0 1 123 53.07ZM105.477 41.156v-2.668c0-1.148.863-2.011 2.015-2.011 1.067 0 2.008.863 2.008 2.011v4.27c0 .039-.04.039-.04.082.04.039.04.039.04.082 0 1.066-.941 2.012-2.008 2.012-2.59 0-4.683 2.054-4.683 4.601 0 2.586 2.093 4.598 4.683 4.598 1.684 0 3.16-.903 3.942-2.258a2.017 2.017 0 0 1 2.789-.738 2 2 0 0 1 .699 2.75 8.61 8.61 0 0 1-7.43 4.27c-4.765 0-8.668-3.86-8.668-8.622 0-4.066 2.836-7.476 6.653-8.379Zm0-8.992v-.738c0-1.153.863-2.012 2.015-2.012a2.01 2.01 0 0 1 2.008 2.012v.738c0 1.11-.941 2.012-2.008 2.012a1.99 1.99 0 0 1-2.015-2.012Zm0 0"/><path style="stroke:none;fill-rule:nonzero;fill:#37474f;fill-opacity:1" d="M225.2 82.246h6.077v28.195H225.2ZM220.832 77.895h6.078c2.34 0 4.367 1.894 4.367 4.351H225.2c0-2.457-2.027-4.351-4.367-4.351ZM225.2 110.441h6.077c0 7.762 6.235 14.09 13.88 14.09h-6.079c-7.644 0-13.879-6.328-13.879-14.09ZM261.621 110.441h6.074c0 12.586-10.062 22.887-22.539 22.887h-6.078c12.477 0 22.543-10.3 22.543-22.887ZM261.621 82.246h6.074v28.195h-6.074ZM257.328 77.895h6.074c2.422 0 4.293 1.894 4.293 4.351h-6.074c0-2.457-1.875-4.351-4.293-4.351Zm0 0"/><use xlink:href="#t" mask="url(#u)"/><path style="stroke:none;fill-rule:nonzero;fill:#37474f;fill-opacity:1" d="M257.328 77.895c2.418 0 4.293 1.894 4.293 4.351v28.195c0 12.586-10.066 22.887-22.543 22.887-12.555 0-22.539-10.3-22.539-22.887V82.246c0-2.457 1.875-4.351 4.293-4.351 2.34 0 4.367 1.894 4.367 4.351v28.195c0 7.762 6.238 14.09 13.88 14.09 7.718 0 13.878-6.328 13.878-14.09V82.246c0-2.457 1.957-4.351 4.371-4.351ZM277.348 131.5h6.078c-.863 1.11-2.11 1.828-3.438 1.828h-6.078c1.328 0 2.574-.719 3.438-1.828ZM273.973 78.488h6.078c1.304 0 2.586.633 3.375 1.856h-6.078a3.991 3.991 0 0 0-3.375-1.856ZM290.523 113.21h6.079l-13.176 18.29h-6.078ZM277.348 80.344h6.078l13.176 18.215h-6.079ZM309.629 132.453h6.078c-.777.555-1.64.875-2.496.875h-6.078c.855 0 1.719-.32 2.496-.875ZM307.059 78.488h6.078c.883 0 1.777.297 2.57.907h-6.078c-.793-.61-1.688-.907-2.57-.907ZM295.75 105.848h6.078l14.817 20.586h-6.079Zm0 0"/><path style="stroke:none;fill-rule:nonzero;fill:#37474f;fill-opacity:1" d="M310.566 85.418h6.079l-14.817 20.43h-6.078ZM310.566 126.434h6.075c1.328 1.906 1.02 4.675-.934 6.02h-6.078c1.953-1.345 2.266-4.114.937-6.02ZM309.629 79.395h6.078c1.953 1.347 2.262 4.035.934 6.023h-6.075c1.329-1.988 1.016-4.676-.937-6.023Zm0 0"/><use xlink:href="#v" mask="url(#w)"/><path style="stroke:none;fill-rule:nonzero;fill:#37474f;fill-opacity:1" d="M307.059 78.488c.882 0 1.777.297 2.57.907 1.953 1.347 2.266 4.035.937 6.023l-14.816 20.43 14.816 20.586c1.329 1.906 1.016 4.675-.937 6.02-.777.554-1.64.874-2.496.874-1.403 0-2.649-.719-3.504-1.828l-13.106-18.29-13.175 18.29c-.864 1.11-2.11 1.828-3.438 1.828-.93 0-1.793-.32-2.496-.875-1.945-1.344-2.336-4.113-1.008-6.02l14.813-20.585-14.813-20.43c-1.328-1.988-.937-4.676 1.008-6.023a4.083 4.083 0 0 1 2.559-.907c1.304 0 2.586.633 3.375 1.856l13.175 18.215 13.106-18.215c.875-1.223 2.14-1.856 3.43-1.856Zm0 0"/><path style="stroke:none;fill-rule:nonzero;fill:#455a64;fill-opacity:1" d="M225.2 82.246h6.077v28.195H225.2ZM220.832 77.895h6.078c2.34 0 4.367 1.894 4.367 4.351H225.2c0-2.457-2.027-4.351-4.367-4.351ZM225.2 110.441h6.077c0 7.762 6.235 14.09 13.88 14.09h-6.079c-7.644 0-13.879-6.328-13.879-14.09ZM261.621 110.441h6.074c0 12.586-10.062 22.887-22.539 22.887h-6.078c12.477 0 22.543-10.3 22.543-22.887ZM261.621 82.246h6.074v28.195h-6.074ZM257.328 77.895h6.074c2.422 0 4.293 1.894 4.293 4.351h-6.074c0-2.457-1.875-4.351-4.293-4.351Zm0 0"/><use xlink:href="#x" mask="url(#y)"/><path style="stroke:none;fill-rule:nonzero;fill:#455a64;fill-opacity:1" d="M257.328 77.895c2.418 0 4.293 1.894 4.293 4.351v28.195c0 12.586-10.066 22.887-22.543 22.887-12.555 0-22.539-10.3-22.539-22.887V82.246c0-2.457 1.875-4.351 4.293-4.351 2.34 0 4.367 1.894 4.367 4.351v28.195c0 7.762 6.238 14.09 13.88 14.09 7.718 0 13.878-6.328 13.878-14.09V82.246c0-2.457 1.957-4.351 4.371-4.351ZM277.348 131.5h6.078c-.863 1.11-2.11 1.828-3.438 1.828h-6.078c1.328 0 2.574-.719 3.438-1.828ZM273.973 78.488h6.078c1.304 0 2.586.633 3.375 1.856h-6.078a3.991 3.991 0 0 0-3.375-1.856ZM290.523 113.21h6.079l-13.176 18.29h-6.078ZM277.348 80.344h6.078l13.176 18.215h-6.079ZM309.629 132.453h6.078c-.777.555-1.64.875-2.496.875h-6.078c.855 0 1.719-.32 2.496-.875ZM307.059 78.488h6.078c.883 0 1.777.297 2.57.907h-6.078c-.793-.61-1.688-.907-2.57-.907ZM295.75 105.848h6.078l14.817 20.586h-6.079Zm0 0"/><path style="stroke:none;fill-rule:nonzero;fill:#455a64;fill-opacity:1" d="M310.566 85.418h6.079l-14.817 20.43h-6.078ZM310.566 126.434h6.075c1.328 1.906 1.02 4.675-.934 6.02h-6.078c1.953-1.345 2.266-4.114.937-6.02ZM309.629 79.395h6.078c1.953 1.347 2.262 4.035.934 6.023h-6.075c1.329-1.988 1.016-4.676-.937-6.023Zm0 0"/><use xlink:href="#z" mask="url(#A)"/><path style="stroke:none;fill-rule:nonzero;fill:#455a64;fill-opacity:1" d="M307.059 78.488c.882 0 1.777.297 2.57.907 1.953 1.347 2.266 4.035.937 6.023l-14.816 20.43 14.816 20.586c1.329 1.906 1.016 4.675-.937 6.02-.777.554-1.64.874-2.496.874-1.403 0-2.649-.719-3.504-1.828l-13.106-18.29-13.175 18.29c-.864 1.11-2.11 1.828-3.438 1.828-.93 0-1.793-.32-2.496-.875-1.945-1.344-2.336-4.113-1.008-6.02l14.813-20.585-14.813-20.43c-1.328-1.988-.937-4.676 1.008-6.023a4.083 4.083 0 0 1 2.559-.907c1.304 0 2.586.633 3.375 1.856l13.175 18.215 13.106-18.215c.875-1.223 2.14-1.856 3.43-1.856Zm0 0"/><path style="stroke:none;fill-rule:nonzero;fill:#ffc727;fill-opacity:1" d="M108.344 77.895h-6.078c-2.41 0-4.286 1.894-4.286 4.351v46.723c0 2.457 1.875 4.36 4.286 4.36h6.078c2.34 0 4.367-1.903 4.367-4.36V82.246c0-2.457-2.027-4.351-4.367-4.351ZM84.785 77.895h-6.074c-2.414 0-4.363 1.894-4.363 4.351v28.195c0 6.704-4.602 12.332-10.832 13.743-6.196-1.41-10.856-7.04-10.856-13.743V82.246c0-2.457-2.027-4.351-4.367-4.351h-6.078c-2.418 0-4.293 1.894-4.293 4.351v28.195c0 12.586 9.984 22.887 22.539 22.887h6.078c12.477 0 22.54-10.3 22.54-22.887V82.246c0-2.457-1.872-4.351-4.294-4.351Zm0 0"/><path style="stroke:none;fill-rule:nonzero;fill:#ffc727;fill-opacity:1" d="M102.266 77.895c2.34 0 4.367 1.894 4.367 4.351v46.723c0 2.457-2.028 4.36-4.367 4.36-2.414 0-4.286-1.903-4.286-4.36V82.246c0-2.457 1.875-4.351 4.286-4.351Zm0 0"/><path style="stroke:none;fill-rule:nonzero;fill:#ffc727;fill-opacity:1" d="M106.633 128.969h6.078c0 2.457-2.027 4.36-4.367 4.36h-6.078c2.34 0 4.367-1.903 4.367-4.36ZM106.633 82.246h6.078v46.723h-6.078ZM102.266 77.895h6.078c2.34 0 4.367 1.894 4.367 4.351h-6.078c0-2.457-2.028-4.351-4.367-4.351Zm0 0"/><use xlink:href="#B" mask="url(#C)"/><path style="stroke:none;fill-rule:nonzero;fill:#ffc727;fill-opacity:1" d="M46.582 82.246h6.078v28.195h-6.078ZM42.215 77.895h6.078c2.34 0 4.367 1.894 4.367 4.351h-6.078c0-2.457-2.027-4.351-4.367-4.351ZM46.582 110.441h6.078c0 7.762 6.238 14.09 13.88 14.09h-6.08c-7.64 0-13.878-6.328-13.878-14.09ZM83.004 110.441h6.078c0 12.586-10.066 22.887-22.543 22.887h-6.074c12.472 0 22.539-10.3 22.539-22.887ZM83.004 82.246h6.074v28.195h-6.074ZM78.71 77.895h6.075c2.422 0 4.293 1.894 4.293 4.351H83c.004-2.457-1.871-4.351-4.29-4.351Zm0 0"/><use xlink:href="#D" mask="url(#E)"/><path style="stroke:none;fill-rule:nonzero;fill:#ffc727;fill-opacity:1" d="M78.71 77.895c2.419 0 4.294 1.894 4.294 4.351v28.195c0 12.586-10.067 22.887-22.543 22.887-12.555 0-22.54-10.3-22.54-22.887V82.246c0-2.457 1.876-4.351 4.294-4.351 2.34 0 4.367 1.894 4.367 4.351v28.195c0 7.762 6.238 14.09 13.879 14.09 7.727 0 13.887-6.328 13.887-14.09V82.246c0-2.457 1.949-4.351 4.363-4.351Zm0 0"/></svg>