<svg xmlns="http://www.w3.org/2000/svg" viewBox="0 0 500 500" style="enable-background:new 0 0 500 500" xml:space="preserve"><path style="fill:#fafafa" d="M79.8 246.356c-93.996 54.269-93.993 142.256.005 196.525 93.999 54.269 246.398 54.269 340.394 0 93.996-54.269 93.993-142.256-.005-196.525-93.998-54.269-246.398-54.269-340.394 0z"/><ellipse style="fill:#e0e0e0" cx="416.901" cy="368.834" rx="54.079" ry="31.223"/><ellipse style="fill:#e0e0e0" cx="89.259" cy="406.023" rx="27.155" ry="15.678"/><path style="fill:#e0e0e0" d="m258.985 339.031-143.399 82.742c-1.677.968-1.677 2.538 0 3.507l22.441 12.923c1.677.968 4.397.968 6.075 0l143.4-82.743c1.678-.968 1.678-2.539 0-3.507L265.06 339.03c-1.678-.967-4.398-.967-6.075.001zM325.614 443.053c-2.011 0-3.81-1.49-4.184-3.466l-.707-3.729a47.398 47.398 0 0 1-4.752-1.18l-7.253 3.359a4.89 4.89 0 0 1-2.048.433c-.63 0-1.573-.11-2.483-.637l-7.424-4.286c-1.134-.655-1.85-1.793-1.913-3.046-.062-1.254.535-2.459 1.598-3.224l3.893-2.8c-.184-.269-.36-.54-.526-.813l-9.068-.573a4.136 4.136 0 0 1-3.866-4.118l.001-5.52a4.132 4.132 0 0 1 3.869-4.117l9.064-.574c.166-.273.342-.544.526-.812l-3.892-2.801c-1.063-.761-1.662-1.967-1.599-3.222.062-1.254.779-2.395 1.916-3.049l7.421-4.284c.914-.526 1.855-.637 2.484-.637.73 0 1.439.15 2.051.434l7.249 3.358a47.262 47.262 0 0 1 4.752-1.18l.708-3.731c.377-1.977 2.176-3.465 4.184-3.465h10.915c2.011 0 3.81 1.49 4.184 3.467l.707 3.729a47.4 47.4 0 0 1 4.752 1.18l7.253-3.359a4.884 4.884 0 0 1 2.047-.433c.63 0 1.574.11 2.484.637l7.424 4.285c1.134.656 1.85 1.796 1.912 3.048.063 1.253-.534 2.458-1.598 3.223l-3.893 2.8c.185.269.361.54.526.812l9.068.573a4.136 4.136 0 0 1 3.866 4.118v5.519a4.136 4.136 0 0 1-3.864 4.118l-9.07.573c-.167.273-.341.544-.526.812l3.892 2.8c1.065.768 1.663 1.974 1.6 3.227-.064 1.253-.78 2.392-1.916 3.046l-7.419 4.284c-.913.526-1.855.637-2.485.637a4.897 4.897 0 0 1-2.047-.432l-7.254-3.36c-1.52.465-3.113.86-4.752 1.18l-.708 3.731c-.373 1.974-2.172 3.464-4.183 3.464h-10.916zm5.459-33.941c-4.134 0-8.134.939-10.972 2.578-2.305 1.33-3.626 2.978-3.626 4.521 0 1.544 1.321 3.192 3.625 4.522 2.838 1.638 6.836 2.577 10.971 2.577 4.134 0 8.134-.939 10.972-2.578 2.303-1.33 3.625-2.978 3.625-4.521 0-1.543-1.321-3.192-3.625-4.522-2.838-1.637-6.836-2.577-10.97-2.577zM254.785 467.014c-.183 0-.365-.01-.543-.028l-7.596-.794a4.997 4.997 0 0 1-3.411-1.863 5.004 5.004 0 0 1-1.062-3.743l.142-1.174a34.177 34.177 0 0 1-1.879-.746c.023.011.017.013-.004.013l-.087-.004-5.768 1.808a5.863 5.863 0 0 1-1.75.26c-1.501 0-2.979-.513-4.054-1.406l-3.878-3.23c-1.232-1.024-1.864-2.54-1.691-4.055.174-1.514 1.133-2.848 2.564-3.568l1.316-.659-3.559-.61a4.88 4.88 0 0 1-3.356-2.255 4.895 4.895 0 0 1-.481-4.018l1.053-3.357c.694-2.218 2.894-3.831 5.228-3.831l6.455.256-.83-.883c-1.081-1.152-1.529-2.714-1.204-4.182.326-1.468 1.393-2.694 2.855-3.278l6.075-2.433a6.076 6.076 0 0 1 2.266-.418c1.293 0 2.549.36 3.535 1.013l3.939 2.616a.228.228 0 0 0 .039.006 44.8 44.8 0 0 1 3.46-.452l1.174-2.287c.949-1.844 2.994-3.08 5.092-3.08.186 0 .37.01.551.029l7.59.792a4.993 4.993 0 0 1 3.413 1.867 4.994 4.994 0 0 1 1.059 3.74l-.142 1.174c.645.235 1.274.484 1.881.748-.026-.012-.021-.016.004-.016l.087.004 5.765-1.807a5.863 5.863 0 0 1 1.75-.26c1.501 0 2.979.513 4.054 1.406l3.878 3.23c1.233 1.026 1.865 2.543 1.689 4.059-.175 1.516-1.136 2.849-2.572 3.567l-1.309.657 3.56.609a4.896 4.896 0 0 1 3.359 2.257 4.89 4.89 0 0 1 .478 4.015l-1.053 3.359c-.694 2.219-2.893 3.831-5.227 3.831l-6.457-.257.832.885c1.078 1.147 1.529 2.709 1.205 4.178-.325 1.468-1.391 2.695-2.852 3.28l-6.079 2.435a6.076 6.076 0 0 1-2.266.418c-1.293 0-2.549-.36-3.535-1.013l-3.939-2.616-.041-.007a43.848 43.848 0 0 1-3.458.452l-1.174 2.287c-.945 1.84-2.991 3.079-5.091 3.079zm2.008-27.87c-2.493 0-4.873.425-6.882 1.23-2.667 1.068-3.768 2.428-3.901 3.268-.131.828.72 1.677 1.24 2.11 2.035 1.694 5.703 2.746 9.568 2.746 2.495 0 4.876-.426 6.885-1.23 2.667-1.068 3.768-2.428 3.901-3.268.131-.828-.721-1.676-1.24-2.109-2.038-1.693-5.705-2.747-9.571-2.747z"/><path style="fill:#ba68c8" d="M337.038 95.861h-.973V94.38a2.73 2.73 0 0 0-.012-.226l-.063-.189.016-.054-.026-.087a.526.526 0 0 0-.064-.138l-.188-.231c-.251-.127-.361-.116-.525-.089l-.166-.958a1.65 1.65 0 0 1 1.288.277c.084.066.146.124.204.192l.105.127c.035.045.082.105.119.187.069.112.123.234.16.362.015.036.035.098.051.173l.075.15-.031.079.014.111c.008.104.016.208.016.313v1.482zM286.066 202.126c-.111 0-.236-.016-.373-.047a1.3 1.3 0 0 1-.287-.1c-.074-.036-.13-.063-.218-.114-.35-.201-.618-.658-.747-.912-.17-.333-.276-.83-.276-1.294v-1.058h.973v1.058c0 .306.07.656.171.853.16.316.319.484.367.512.058.034.093.05.12.063l.116.045a.735.735 0 0 0 .163.022l.108.971-.116.001h-.001zm3.712-1.859-.486-.842 3.326-1.922.486.842-3.326 1.922zm6.652-3.844-.486-.842 3.326-1.922.486.842-3.326 1.922zm-11.293-1.664h-.973v-3.842h.973v3.842zm17.945-2.179-.486-.842 3.326-1.922.486.842-3.326 1.922zm6.653-3.844-.486-.842 3.325-1.922.486.842-3.325 1.922zm-24.598-1.66h-.973v-3.841h.973v3.841zm31.249-2.184-.486-.842 3.326-1.922.486.842-3.326 1.922zm6.653-3.844-.486-.842 3.326-1.921.486.842-3.326 1.921zm-37.902-1.654h-.973v-3.841h.973v3.841zm44.554-2.189-.486-.842 3.326-1.922.486.842-3.326 1.922zm6.502-4.384-.816-.53c.438-.673.688-1.425.688-2.066v-1.356h.973v1.356c0 .823-.308 1.769-.845 2.596zm-51.056-1.11h-.973v-3.841h.973v3.841zm51.901-6.684h-.973v-3.841h.973v3.841zm-51.901-.999h-.973v-3.841h.973v3.841zm51.901-6.683h-.973v-3.841h.973v3.841zm-51.901-1h-.973v-3.841h.973v3.841zm51.901-6.683h-.973v-3.842h.973v3.842zm-51.901-.999h-.973v-3.841h.973v3.841zm51.901-6.684h-.973v-3.841h.973v3.841zm-51.901-.999h-.973v-3.841h.973v3.841zm51.901-6.684h-.973v-3.841h.973v3.841zm-51.901-.999h-.973v-3.841h.973v3.841zm51.901-6.683h-.973v-3.842h.973v3.842zm-51.901-1h-.973v-1.284c0-.846.324-1.816.89-2.661l.809.541c-.454.679-.726 1.471-.726 2.12v1.284zm3.598-5.535-.486-.843 3.327-1.92.486.843-3.327 1.92zm48.303-1.148h-.973v-3.841h.973v3.841zm-41.649-2.692-.486-.843 3.327-1.92.486.843-3.327 1.92zm6.654-3.84-.486-.843 3.327-1.92.486.843-3.327 1.92zm34.995-1.151h-.973v-3.841h.973v3.841zm-28.34-2.689-.486-.843 3.327-1.92.486.843-3.327 1.92zm6.654-3.84-.486-.843 3.327-1.92.486.843-3.327 1.92zm21.686-1.154h-.973v-3.841h.973v3.841zm-15.032-2.686-.486-.843 3.327-1.92.486.843-3.327 1.92zm6.655-3.84-.486-.843 3.327-1.92.486.843-3.327 1.92zM89.746 288.109h-.973v-1.481c0-.073-.007-.147-.012-.215l-.062-.189.017-.059-.031-.098a.446.446 0 0 0-.062-.135l-.211-.253a.77.77 0 0 0-.501-.065l-.166-.959a1.662 1.662 0 0 1 1.29.278c.082.064.145.124.201.19l.111.137c.026.033.074.093.114.179.07.114.124.237.16.366a.865.865 0 0 1 .046.154l.086.149-.038.096.013.11c.009.11.017.211.017.312v1.483zM38.764 394.374a1.644 1.644 0 0 1-.656-.151 3.043 3.043 0 0 1-.21-.109c-.352-.203-.62-.659-.749-.914-.17-.333-.276-.829-.276-1.294v-1.059h.973v1.059c0 .306.07.656.17.853.16.316.319.484.367.512.063.037.101.055.131.068l.109.04a.647.647 0 0 0 .16.023l.108.971-.125.002-.002-.001zm3.722-1.86-.486-.842 3.326-1.922.486.842-3.326 1.922zm6.652-3.844-.486-.842 3.325-1.922.486.842-3.325 1.922zm-11.293-1.664h-.973v-3.842h.973v3.842zm17.945-2.179-.486-.842 3.326-1.922.486.842-3.326 1.922zm6.652-3.844-.486-.842 3.326-1.922.486.842-3.326 1.922zm-24.597-1.659h-.973v-3.842h.973v3.842zm31.249-2.185-.486-.842 3.326-1.922.486.842-3.326 1.922zm6.653-3.844-.486-.842 3.326-1.922.486.842-3.326 1.922zm-37.902-1.654h-.973v-3.842h.973v3.842zm44.554-2.189-.486-.842 3.326-1.921.486.842-3.326 1.921zm6.501-4.385-.816-.529c.438-.673.688-1.426.689-2.066v-1.354h.973v1.355c-.001.822-.31 1.769-.846 2.594zm-51.055-1.11h-.973v-3.841h.973v3.841zm51.901-6.682h-.973v-3.842h.973v3.842zm-51.901-1h-.973v-3.841h.973v3.841zm51.901-6.683h-.973v-3.842h.973v3.842zm-51.901-1h-.973v-3.841h.973v3.841zm51.901-6.682h-.973v-3.842h.973v3.842zm-51.901-1h-.973v-3.842h.973v3.842zm51.901-6.683h-.973v-3.842h.973v3.842zm-51.901-1h-.973v-3.842h.973v3.842zm51.901-6.684h-.973v-3.841h.973v3.841zm-51.901-.999h-.973v-3.842h.973v3.842zm51.901-6.683h-.973v-3.841h.973v3.841zm-51.901-1h-.973v-1.284c0-.845.324-1.814.89-2.66l.809.541c-.454.679-.726 1.472-.726 2.119v1.284zm3.598-5.535-.486-.842 3.327-1.92.486.842-3.327 1.92zm48.303-1.148h-.973v-3.842h.973v3.842zm-41.649-2.692-.486-.842 3.327-1.92.486.842-3.327 1.92zm6.654-3.84-.486-.842 3.327-1.921.486.842-3.327 1.921zm34.995-1.15h-.973v-3.842h.973v3.842zm-28.34-2.691-.486-.842 3.327-1.92.486.842-3.327 1.92zm6.654-3.84-.486-.842 3.327-1.92.486.842-3.327 1.92zm21.686-1.152h-.973v-3.842h.973v3.842zm-15.032-2.688-.486-.842 3.327-1.92.486.842-3.327 1.92zm6.655-3.839-.486-.842 3.327-1.92.486.842-3.327 1.92z"/><path style="fill:#37474f" d="M78.335 398.938c.001-.044-.006-.089-.003-.133l3.085-81.613c0-1.16.764-2.309 2.293-3.173 3.057-1.728 8.015-1.66 11.072.152 1.529.906 2.294 2.076 2.294 3.236v.001l3.108 81.696c.003.042-.004.084-.003.127.002.074.011.145.011.219.001 6.054-4.894 10.895-10.932 10.812-6.039-.083-10.934-5.058-10.935-11.112-.001-.074.008-.142.01-.212z"/><path style="fill:#263238" d="M94.781 314.169c3.058 1.812 3.058 4.681.001 6.409-3.057 1.728-8.014 1.66-11.072-.152-3.058-1.812-3.058-4.681-.001-6.409 3.057-1.728 8.015-1.659 11.072.152z"/><path style="fill:#455a64" d="m93.293 396.195-1.763-74.536c1.189-.194 2.308-.553 3.252-1.077 1.519-.863 2.287-1.991 2.294-3.153l3.107 81.673c.003.042-.004.084-.003.127.002.074.011.145.011.219.001 6.054-4.894 10.895-10.932 10.812 3.396-.828 4.235-6.736 4.034-14.065z"/><path style="fill:#e0e0e0" d="M85.897 293.697c1.849-1.045 4.846-1.004 6.695.092.924.548 1.387 1.256 1.387 1.957h.002l.001 21.617h-.002c0 .701-.462 1.396-1.386 1.919-1.849 1.045-4.846 1.004-6.695-.092-.924-.548-1.387-1.255-1.387-1.957l-.001-21.617c0-.702.462-1.397 1.386-1.919z"/><path style="opacity:.25" d="M93.982 307.629v-8.034c-3.18.713-6.344 1.281-9.47 1.7v7.905c3.155-.389 6.318-.915 9.47-1.571z"/><path style="fill:#ba68c8" d="m138.835 179.58-16-9.243c-8.96-5.168-21.341-4.421-35.021 3.469-27.351 15.796-49.526 54.199-49.526 85.79 0 15.796 5.546 26.887 14.513 32.063l15.969 9.219c3.752 2.171 8.102 3.296 12.901 3.296 6.655 0 14.167-2.171 22.12-6.765 27.351-15.788 49.526-54.199 49.526-85.782 0-15.779-5.538-26.871-14.482-32.047zm-22.813 67.706c-8.676 15.025-20.09 27.131-32.142 34.093-6.317 3.642-12.452 5.617-17.786 5.703-2.58-4.586-3.965-10.769-3.965-18.266 0-13.915 4.775-29.853 13.452-44.877 8.676-15.025 20.09-27.131 32.142-34.092 6.317-3.65 12.46-5.617 17.794-5.703 2.572 4.594 3.957 10.777 3.957 18.266 0 13.914-4.775 29.851-13.452 44.876z"/><path style="opacity:.1;fill:#fff" d="m51.234 213.569 22.789 13.157c.505-.932 1.024-1.862 1.559-2.788a112.546 112.546 0 0 1 8.963-13.275l-22.838-13.186a120.446 120.446 0 0 0-10.473 16.092zm22.545-29.314a100.696 100.696 0 0 0-6.683 6.761l22.935 13.242a88.67 88.67 0 0 1 6.883-6.646l-23.135-13.357z"/><path style="opacity:.25" d="m68.707 300.839-15.906-9.18c-8.967-5.176-14.513-16.267-14.513-32.063 0-.606.024-1.212.039-1.825l15.961 9.219a69.81 69.81 0 0 0-.024 1.825c0 15.749 5.522 26.833 14.443 32.024z"/><path style="fill:#ba68c8" d="M125.91 184.135c-.126 0-.26 0-.393.008 2.572 4.594 3.957 10.777 3.957 18.266 0 13.916-4.775 29.853-13.452 44.877-8.676 15.025-20.09 27.131-32.142 34.093-6.317 3.642-12.452 5.617-17.786 5.703 3.335 5.955 8.669 9.227 15.575 9.227 5.428 0 11.713-1.975 18.187-5.711 12.051-6.954 23.465-19.06 32.142-34.085 8.677-15.025 13.451-30.97 13.451-44.885.001-17.212-7.299-27.493-19.539-27.493z"/><path style="opacity:.25" d="M125.91 184.135c-.126 0-.26 0-.393.008 2.572 4.594 3.957 10.777 3.957 18.266 0 13.916-4.775 29.853-13.452 44.877-8.676 15.025-20.09 27.131-32.142 34.093-6.317 3.642-12.452 5.617-17.786 5.703 3.335 5.955 8.669 9.227 15.575 9.227 5.428 0 11.713-1.975 18.187-5.711 12.051-6.954 23.465-19.06 32.142-34.085 8.677-15.025 13.451-30.97 13.451-44.885.001-17.212-7.299-27.493-19.539-27.493z"/><path style="opacity:.3;fill:#fff" d="M138.017 207.356c0 13.915-4.775 29.861-13.451 44.885-8.676 15.025-20.09 27.131-32.142 34.085-6.474 3.737-12.759 5.711-18.187 5.711-1.731 0-3.351-.204-4.877-.606h-.008c-1.235-1.235-2.321-2.69-3.257-4.35-2.58-4.586-3.965-10.769-3.965-18.266 0-13.915 4.775-29.853 13.452-44.877 8.676-15.025 20.09-27.131 32.142-34.092 6.317-3.65 12.46-5.617 17.794-5.703.134-.008.268-.008.393-.008 1.739 0 3.375.205 4.901.621 4.64 4.634 7.205 12.398 7.205 22.6z"/><path style="fill:#ba68c8" d="M103.79 183.034c-27.353 15.792-49.528 54.199-49.528 85.784 0 31.585 22.175 44.387 49.528 28.595 27.353-15.792 49.527-54.199 49.527-85.784.001-31.585-22.173-44.388-49.527-28.595zm-3.933 107.564c-6.474 3.736-12.759 5.711-18.187 5.711-6.907 0-12.24-3.272-15.575-9.227-2.58-4.586-3.965-10.769-3.965-18.266 0-13.915 4.775-29.853 13.452-44.877 8.676-15.025 20.09-27.131 32.142-34.092 6.317-3.65 12.46-5.617 17.794-5.703.134-.008.268-.008.393-.008 12.24 0 19.54 10.281 19.54 27.493 0 13.915-4.775 29.86-13.451 44.885-8.678 15.023-20.092 27.13-32.143 34.084z"/><g style="opacity:.3"><path style="fill:#fff" d="M103.79 183.034c-27.353 15.792-49.528 54.199-49.528 85.784 0 31.585 22.175 44.387 49.528 28.595 27.353-15.792 49.527-54.199 49.527-85.784.001-31.585-22.173-44.388-49.527-28.595zm-3.933 107.564c-6.474 3.736-12.759 5.711-18.187 5.711-6.907 0-12.24-3.272-15.575-9.227-2.58-4.586-3.965-10.769-3.965-18.266 0-13.915 4.775-29.853 13.452-44.877 8.676-15.025 20.09-27.131 32.142-34.092 6.317-3.65 12.46-5.617 17.794-5.703.134-.008.268-.008.393-.008 12.24 0 19.54 10.281 19.54 27.493 0 13.915-4.775 29.86-13.451 44.885-8.678 15.023-20.092 27.13-32.143 34.084z"/></g><g style="opacity:.3"><path style="fill:#fff" d="M66.276 224.542c-4.507 8.923-8.015 18.367-10.058 28.141-.984 4.89-1.626 9.858-1.685 14.843-.095 4.98.388 9.979 1.626 14.792 1.266 4.784 3.309 9.448 6.566 13.207 3.212 3.774 7.612 6.514 12.44 7.678 4.827 1.204 9.942.947 14.771-.226 4.868-1.106 9.485-3.148 13.854-5.565-4.321 2.501-8.907 4.637-13.786 5.846-4.854 1.22-10.021 1.515-14.932.326-4.911-1.148-9.421-3.912-12.719-7.737-3.343-3.811-5.453-8.538-6.764-13.381-1.223-4.887-1.674-9.936-1.546-14.949.092-5.02.771-10.01 1.791-14.914 1.045-4.902 2.485-9.713 4.221-14.409a122.355 122.355 0 0 1 6.221-13.652z"/></g><g style="opacity:.3"><path style="fill:#fff" d="M125.91 184.135c2.47-.013 4.962.383 7.265 1.332 2.302.946 4.368 2.451 6.042 4.306 1.689 1.854 2.922 4.071 3.897 6.361.999 2.295 1.604 4.733 2.06 7.182.821 4.921.896 9.943.421 14.894-.445 4.96-1.428 9.858-2.767 14.648-1.324 4.797-3.064 9.473-5.113 14.004a114.494 114.494 0 0 1-6.994 13.166c-5.232 8.451-11.517 16.305-18.995 22.926-3.759 3.278-7.815 6.241-12.186 8.683-4.371 2.419-9.096 4.358-14.121 5.098-2.503.374-5.089.389-7.615-.087-2.515-.503-4.955-1.523-7.009-3.084a16.803 16.803 0 0 1-2.809-2.624 19.556 19.556 0 0 1-2.215-3.116c-1.28-2.199-2.188-4.585-2.815-7.018-1.259-4.879-1.504-9.924-1.251-14.89a76.7 76.7 0 0 1 2.308-14.712 96.12 96.12 0 0 1 4.82-14.057 109.44 109.44 0 0 1 6.749-13.209c-4.753 8.658-8.613 17.844-10.82 27.45a76.591 76.591 0 0 0-2.065 14.574c-.178 4.894.142 9.84 1.428 14.531.64 2.341 1.543 4.606 2.782 6.662 1.223 2.058 2.782 3.922 4.7 5.318 1.896 1.426 4.132 2.348 6.461 2.805 2.34.427 4.762.409 7.144.041 4.776-.725 9.351-2.615 13.595-4.993 4.251-2.4 8.206-5.323 11.883-8.552 7.37-6.461 13.61-14.176 18.818-22.499 5.19-8.34 9.353-17.338 12.164-26.75 1.39-4.709 2.43-9.529 2.94-14.413.544-4.876.528-9.825-.193-14.67-.391-2.412-.927-4.82-1.851-7.086-.901-2.263-2.054-4.46-3.662-6.31-1.593-1.852-3.58-3.371-5.824-4.362-2.238-1.008-4.701-1.483-7.172-1.549z"/></g><path style="fill:#37474f" d="m275.419 347.681-.001-287.931c0-7.409-3.681-9.451-6.948-11.338-3.267-1.886-8.648-3.03-13.293-.349l-118.898 68.645c-4.644 2.681-8.409 9.202-8.409 14.564v287.933c0 5.362 3.364 8.523 6.632 10.41 3.267 1.886 8.966 3.958 13.61 1.276l118.898-68.646c4.644-2.68 8.408-7.095 8.409-14.564z"/><path style="fill:#263238" d="m267.856 350.407-122.263 70.589.038-289.177-15.298-8.832c-1.521 2.635-2.462 5.606-2.462 8.286v287.933c0 5.362 3.364 8.523 6.632 10.41 3.267 1.886 8.966 3.958 13.61 1.276l118.898-68.646c2.901-1.675 5.769-4.191 7.28-8.123l-.473-.273-5.962-3.443z"/><path style="fill:#455a64" d="m266.79 57.262-119.239 68.846c-3.252 1.873-5.906 6.469-5.906 10.214v285.594c0 5.757 4.09 8.112 9.077 5.228l116.068-67.008c3.677-2.126 6.687-7.33 6.687-11.582V61.122c0-4.251-3.01-5.986-6.687-3.86z"/><path d="M267.659 74.772v266.965c0 4.049-2.855 9.001-6.35 11.011l-107.495 62.064c-3.505 2.039-6.35.398-6.35-3.661V142.225c0-3.282 1.864-7.156 4.457-9.574.204-.184.398-.369.602-.544.418-.33.855-.631 1.291-.883l30.236-17.458s.883-.515 1.971-1.136c1.087-.631 1.971-.126 1.971 1.136 0 1.253.942 1.738 2.107 1.058l35.236-20.342c1.155-.67 2.107-2.233 2.107-3.486 0-1.175.776-2.602 1.767-3.301.068-.048.136-.087.204-.126l29.576-17.07.631-.369c4.427-2.553 8.039-.466 8.039 4.642z"/><path style="fill:#263238" d="M252.083 345.619c3.496-2.01 6.35-6.962 6.35-11.011V70.82l-29.021 16.749a2.504 2.504 0 0 0-.204.126c-.991.699-1.767 2.127-1.767 3.301 0 1.253-.952 2.816-2.107 3.486l-35.236 20.341c-1.165.68-2.107.194-2.107-1.058 0-1.262-.884-1.767-1.971-1.136-1.087.621-1.971 1.136-1.971 1.136l-30.236 17.458c-.437.252-.874.553-1.291.883-.204.175-.398.359-.602.544-2.593 2.418-4.457 6.292-4.457 9.574v263.798l104.62-60.403z"/><path style="fill:#263238" d="m195.448 104.079 16.153-9.326c.964-.556 1.745-.161 1.745.882 0 1.044-.781 2.341-1.745 2.897l-16.153 9.326c-.964.556-1.745.161-1.745-.883 0-1.043.782-2.34 1.745-2.896zM219.889 89.201c1.086-.627 1.965-.119 1.966 1.135 0 1.254-.88 2.778-1.966 3.405-1.085.627-1.965.119-1.965-1.135-.001-1.254.879-2.778 1.965-3.405z"/><path style="fill:#455a64" d="M138.901 165.816c0-2.113-1.391-4.629-3.108-5.62-.828-.478-1.577-.509-2.13-.176-.39.235-1.924 1.089-2.331 1.334-.591.354-.959 1.121-.959 2.206v23.461c0 2.113 1.391 4.629 3.108 5.62.791.457 1.509.505 2.054.219a102.95 102.95 0 0 0 2.403-1.374c.593-.353.963-1.121.963-2.209v-23.461z"/><path style="fill:#37474f" d="M136.589 167.149v23.462c0 2.113-1.391 3.022-3.108 2.031-1.717-.991-3.108-3.507-3.108-5.62V163.56c0-2.113 1.391-3.022 3.108-2.031 1.717.992 3.108 3.507 3.108 5.62z"/><path style="fill:#455a64" d="M138.901 206.878c0-2.113-1.391-4.629-3.108-5.62-.828-.478-1.577-.509-2.13-.176-.39.235-1.924 1.089-2.331 1.333-.591.354-.959 1.121-.959 2.207v23.461c0 2.113 1.391 4.629 3.108 5.62.791.457 1.509.505 2.054.218a99.47 99.47 0 0 0 2.403-1.374c.593-.353.963-1.121.963-2.209v-23.46z"/><path style="fill:#37474f" d="M136.589 208.212v23.462c0 2.113-1.391 3.022-3.108 2.031-1.717-.991-3.108-3.507-3.108-5.62v-23.461c0-2.113 1.391-3.022 3.108-2.031 1.717.99 3.108 3.506 3.108 5.619z"/><path style="fill:#ba68c8" d="M285.457 81.12c-1.477-.847-3.509-.729-5.75.563l-.64.375-30.023 17.328a2.322 2.322 0 0 0-.207.128c-1.006.71-1.794 2.159-1.794 3.351 0 1.271-.966 2.858-2.139 3.538l-35.769 20.649c-.027.016-.053.023-.08.038-.019-.596-.238-1.016-.583-1.216-.361-.209-1.7-.986-2.063-1.194-.362-.208-.862-.175-1.413.145-1.104.631-2.001 1.153-2.001 1.153L172.302 143.7c-.444.256-.887.562-1.311.897-.207.177-.404.365-.611.552-2.632 2.454-4.524 6.387-4.524 9.719v272.995c0 2.053.72 3.491 1.881 4.165.35.203 1.735 1 2.083 1.201 1.165.673 2.772.576 4.549-.458l109.121-63.003c3.549-2.04 6.446-7.067 6.446-11.177V87.586c0-2.586-.914-4.406-2.386-5.261l-2.093-1.205z"/><path style="opacity:.3" d="M174.978 431.884v.533l-.615.352c-1.772 1.031-3.381 1.13-4.547.461l-2.079-1.202c-1.166-.678-1.88-2.115-1.88-4.167V154.868c0-2.233.859-4.737 2.224-6.888l2.459 1.419c-1.338 2.106-2.161 4.556-2.161 6.662v272.994c0 1.302.307 2.377.886 3.109.542.678 1.311 1.04 2.215 1.04.805 0 1.727-.289 2.658-.832l.84-.488zM250.317 101.969c-.461.642-.75 1.419-.75 2.088 0 .778-.307 1.645-.795 2.396l-2.477-1.428c.452-.678.75-1.464.75-2.16 0-.75.316-1.609.804-2.323l2.468 1.427z"/><path style="fill:#fafafa" d="M171.48 433.202c-.909 0-1.673-.359-2.212-1.036-.581-.731-.888-1.806-.888-3.112V156.06c0-3.12 1.8-6.979 4.378-9.384l.196-.179c.133-.123.265-.244.4-.36.405-.32.828-.608 1.241-.847l30.693-17.722c.003-.002.899-.522 1.999-1.152.244-.142.475-.216.671-.216.582 0 .644.679.644.97 0 1.104.64 1.847 1.591 1.847.395 0 .811-.127 1.237-.375l35.768-20.648c1.329-.771 2.369-2.5 2.369-3.937 0-1.036.703-2.344 1.6-2.976.058-.042.114-.073.169-.103l30.026-17.33.643-.376c1.183-.682 2.358-1.044 3.398-1.044 2.512 0 4.073 2.054 4.073 5.36v271.004c0 3.973-2.789 8.808-6.217 10.78l-109.121 63.003c-.932.54-1.85.827-2.658.827z"/><path style="fill:#ba68c8" d="M285.404 82.229c-1.039 0-2.214.361-3.398 1.044l-.644.376-30.026 17.33c-.055.031-.111.061-.169.103-.897.632-1.6 1.939-1.6 2.976 0 1.437-1.04 3.166-2.369 3.937l-35.767 20.648c-.426.249-.843.376-1.238.376-.952 0-1.591-.742-1.591-1.847 0-.291-.062-.97-.644-.97-.196 0-.427.074-.671.216-1.1.63-1.996 1.15-1.999 1.152l-30.693 17.722a10.67 10.67 0 0 0-1.241.847c-.136.116-.267.237-.401.36l-.196.179c-2.578 2.405-4.378 6.264-4.378 9.384v28.828l121.096-69.933V87.588c.002-3.305-1.559-5.359-4.071-5.359z"/><g style="opacity:.3"><path style="fill:#fff" d="M285.404 82.229c-1.039 0-2.214.361-3.398 1.044l-.644.376-30.026 17.33c-.055.031-.111.061-.169.103-.897.632-1.6 1.939-1.6 2.976 0 1.437-1.04 3.166-2.369 3.937l-35.767 20.648c-.426.249-.843.376-1.238.376-.952 0-1.591-.742-1.591-1.847 0-.291-.062-.97-.644-.97-.196 0-.427.074-.671.216-1.1.63-1.996 1.15-1.999 1.152l-30.693 17.722a10.67 10.67 0 0 0-1.241.847c-.136.116-.267.237-.401.36l-.196.179c-2.578 2.405-4.378 6.264-4.378 9.384v28.828l121.096-69.933V87.588c.002-3.305-1.559-5.359-4.071-5.359z"/></g><path style="fill:#fafafa" d="M177.114 156.153a.372.372 0 0 1-.049.179.308.308 0 0 1-.114.13l-.245.142c-.044.025-.082.027-.114.001-.033-.023-.048-.064-.048-.123v-4.402l-.97 1.542c-.037.064-.076.103-.12.118s-.08.008-.108-.018l-.144-.164c-.028-.031-.039-.079-.033-.141a.402.402 0 0 1 .063-.18l1.282-2.05a.43.43 0 0 1 .096-.112.877.877 0 0 1 .096-.063l.245-.142c.044-.026.081-.026.114-.002.032.024.049.065.049.124v5.161zM179.636 154.697a.383.383 0 0 1-.049.179.305.305 0 0 1-.114.129l-.245.143c-.044.025-.082.026-.114.001-.033-.023-.049-.065-.049-.124v-4.401l-.97 1.542c-.037.064-.076.103-.12.118s-.08.008-.108-.018l-.144-.165c-.028-.031-.039-.078-.033-.14a.402.402 0 0 1 .063-.18l1.282-2.05a.447.447 0 0 1 .192-.174l.245-.143c.044-.025.081-.026.114-.001.032.024.049.065.049.124v5.16zM181.05 150.332c.045-.026.082-.026.115-.002.032.024.048.066.048.124v.535a.386.386 0 0 1-.048.18.316.316 0 0 1-.115.13l-.401.231c-.044.026-.082.027-.114.002-.031-.024-.048-.066-.048-.125v-.535c0-.059.017-.118.048-.18a.296.296 0 0 1 .114-.128l.401-.232zm0 2.796c.045-.026.082-.026.115-.002.032.024.048.066.048.125v.535a.386.386 0 0 1-.048.18.31.31 0 0 1-.115.13l-.401.231c-.044.026-.082.027-.114.002-.031-.024-.048-.065-.048-.124v-.536c0-.059.017-.118.048-.179a.305.305 0 0 1 .114-.129l.401-.233zM182.44 151.839c.052.221.166.354.342.399.176.044.379 0 .611-.134a1.853 1.853 0 0 0 .674-.678 2.01 2.01 0 0 0 .278-1.03c0-.192-.025-.347-.075-.465a.476.476 0 0 0-.203-.246.465.465 0 0 0-.302-.041c-.116.019-.24.066-.372.142a1.52 1.52 0 0 0-.362.278 2.489 2.489 0 0 0-.223.271 6.671 6.671 0 0 0-.155.234.482.482 0 0 1-.159.159l-.306.176c-.036.021-.067.022-.093.002-.026-.02-.039-.053-.039-.101l.18-2.773c0-.059.016-.118.048-.179a.303.303 0 0 1 .115-.13l2.114-1.221c.044-.025.083-.027.114-.001.032.024.048.064.048.123v.288a.386.386 0 0 1-.048.18.314.314 0 0 1-.114.13l-1.743 1.007-.096 1.437a3.1 3.1 0 0 1 .278-.285c.118-.109.265-.213.441-.314.208-.119.404-.191.59-.212a.732.732 0 0 1 .485.092.834.834 0 0 1 .327.401c.079.187.12.425.12.718s-.041.579-.12.856a3.586 3.586 0 0 1-.327.781c-.138.242-.3.46-.485.652a2.673 2.673 0 0 1-.59.467c-.2.115-.39.189-.573.219a.887.887 0 0 1-.479-.038.698.698 0 0 1-.333-.296 1.098 1.098 0 0 1-.131-.542c0-.048.012-.097.038-.147a.266.266 0 0 1 .093-.106l.276-.159a.1.1 0 0 1 .093-.01c.03.013.051.044.063.096zM185.987 149.895c.02.073.048.143.083.207.037.064.091.11.162.136a.545.545 0 0 0 .285-.001c.117-.026.27-.092.459-.202.124-.072.241-.158.353-.263.112-.105.21-.224.293-.357.084-.134.151-.279.201-.432.05-.155.076-.32.076-.496a.88.88 0 0 0-.072-.393.326.326 0 0 0-.194-.175c-.082-.026-.18-.02-.291.012s-.234.086-.365.162l-.497.288c-.045.026-.082.026-.115.002-.032-.024-.048-.066-.048-.125v-.288c0-.048.011-.097.032-.15.023-.053.043-.101.064-.145l1.078-2.171-1.726.996c-.044.025-.082.025-.114.001s-.049-.065-.049-.124v-.288c0-.059.017-.118.049-.179a.308.308 0 0 1 .114-.13l2.361-1.363c.044-.026.081-.026.114-.002.032.024.048.065.048.124v.288c0 .048-.01.1-.03.158-.02.056-.046.115-.078.177l-1.061 2.138c.201-.11.383-.174.549-.193a.656.656 0 0 1 .425.082c.118.072.21.191.275.353.067.161.1.367.1.617 0 .271-.04.538-.12.801a3.217 3.217 0 0 1-.795 1.34 2.716 2.716 0 0 1-.577.454c-.269.155-.499.247-.693.277-.194.029-.354.012-.48-.051a.607.607 0 0 1-.281-.293 1.126 1.126 0 0 1-.098-.458.319.319 0 0 1 .13-.252l.276-.158c.044-.026.079-.029.104-.009a.131.131 0 0 1 .053.085zM195.337 140.485h.005m-.005 0-1.846 6.299v-2.743l-2.057 1.188 3.903-4.744m.001-.469-.028.001a.472.472 0 0 0-.323.157l-.014.016-3.901 4.741a.47.47 0 0 0 .596.704l1.354-.781v1.93a.47.47 0 0 0 .919.132l1.834-6.258a.467.467 0 0 0-.432-.643l-.005.001zm-.001.938h.005-.005zM259.403 108.797l-1.003.579v-1.962l1.003-.579zM260.994 107.879l-1.004.579v-2.809l1.004-.579zM262.585 106.96l-1.004.579v-3.869l1.004-.579z"/><path style="fill:#ba68c8" d="m264.175 106.042-1.003.579v-4.896l1.003-.579z"/><path style="fill:#fafafa" d="M271.164 96.98c-1.033.596-1.973 1.692-2.655 2.971l.664.526c.516-.974 1.217-1.784 1.991-2.231.783-.452 1.484-.439 2-.073l.664-1.293c-.691-.485-1.631-.496-2.664.1zm-1.733 3.705.608.485c.295-.551.691-1.014 1.125-1.264.442-.256.848-.256 1.134-.04l.608-1.187c-.452-.329-1.06-.334-1.742.06-.673.388-1.281 1.095-1.733 1.946zm.895.713.839.671.848-1.657c-.221-.155-.516-.157-.848.035-.333.191-.628.533-.839.951z"/><path style="fill:#ba68c8" d="M283.271 90.121c.359-.207.651.013.651.492v3.161c0 .479-.291 1.036-.651 1.243l-5.641 3.257c-.359.207-.651-.013-.651-.492v-3.161c0-.479.291-1.036.651-1.243l5.641-3.257m0-.271-5.641 3.257c-.471.272-.854 1.004-.854 1.631v3.161c0 .628.383.917.854.645l5.641-3.257c.471-.272.854-1.004.854-1.631v-3.161c-.001-.627-.384-.916-.854-.645z"/><path style="fill:#fafafa" d="m280.987 95.549-3.177 1.834c-.146.084-.264-.005-.264-.199v-2.619c0-.194.118-.42.264-.504l3.177-1.834c.146-.084.264.005.264.199v2.62c-.001.194-.119.419-.264.503z"/><path style="fill:#ba68c8" d="m284.729 92.581-.226.131v-1.708l.226-.131c.125-.072.227.252.227.724-.001.471-.102.912-.227.984z"/><path style="fill:#fafafa" d="M274.679 110.228c-.593.342-1.073 1.26-1.073 2.051 0 .79.48 1.154 1.073.811.593-.342 1.073-1.26 1.073-2.051 0-.79-.481-1.153-1.073-.811zm8.169-4.717c-.593.342-1.073 1.26-1.073 2.051 0 .79.48 1.154 1.073.812.593-.342 1.073-1.26 1.073-2.051 0-.791-.48-1.154-1.073-.812zm-4.085 2.359c-.593.342-1.073 1.26-1.073 2.051 0 .79.48 1.154 1.073.812.593-.342 1.073-1.26 1.073-2.051 0-.791-.48-1.155-1.073-.812z"/><path style="fill:#ba68c8" d="M285.404 82.686c2.263 0 3.613 1.832 3.613 4.901v271.004c0 3.762-2.741 8.516-5.987 10.383l-109.124 63.004c-.86.5-1.699.765-2.425.765-1.654 0-2.642-1.379-2.642-3.688V156.06c0-3.003 1.74-6.724 4.222-9.038l.209-.191c.128-.117.254-.233.356-.322.4-.316.804-.593 1.201-.822l30.696-17.724c.001-.001.895-.521 2-1.152.236-.137.384-.152.436-.152.181 0 .186.459.186.511 0 1.357.843 2.305 2.05 2.305.477 0 .971-.147 1.466-.436l35.771-20.65c1.456-.844 2.596-2.747 2.596-4.332 0-.887.63-2.055 1.409-2.604.043-.031.086-.054.133-.081l30.027-17.33.636-.372c1.115-.644 2.212-.984 3.171-.984m-.001-.917c-1.094 0-2.327.356-3.629 1.106l-.641.374-30.023 17.328a2.322 2.322 0 0 0-.207.128c-1.005.71-1.794 2.159-1.794 3.351 0 1.271-.966 2.858-2.139 3.538l-35.77 20.649c-.364.212-.706.313-1.007.313-.674 0-1.132-.507-1.132-1.387 0-.907-.45-1.429-1.104-1.429-.27 0-.575.089-.897.276-1.104.631-2.001 1.153-2.001 1.153l-30.693 17.722c-.444.256-.887.562-1.311.897-.207.177-.404.365-.611.552-2.632 2.454-4.524 6.387-4.524 9.719v272.995c0 2.919 1.449 4.606 3.559 4.606.869 0 1.849-.286 2.887-.889l109.121-63.003c3.549-2.04 6.446-7.067 6.446-11.177V87.586c.002-3.682-1.847-5.818-4.53-5.817zM268.551 424.867c-.713-.22-1.226-.974-1.136-1.715l.349-2.885c.09-.74-.44-1.404-1.181-1.481l-7.593-.793c-.742-.077-1.62.398-1.961 1.061l-1.513 2.947c-.34.664-1.222 1.226-1.966 1.282-1.323.1-2.639.262-3.934.488-.735.129-1.831-.078-2.452-.491l-4.086-2.714c-.622-.413-1.687-.523-2.38-.245l-6.076 2.433c-.402.161-.614.454-.626.777l-.005-.004V423.606l-.003 6.206.005-.002c-.001.226.093.464.299.684l.352.375c-.515.316-1.148.54-1.672.518l-6.943-.28c-.746-.03-1.531.523-1.754 1.235l-1.052 3.357a1.235 1.235 0 0 0-.042.414l-.018-.003-.001 6.268.006-.001c.019.539.395.992.981 1.092l5.379.921-2.096 1.052c-.366.184-.547.466-.547.761l-.007-.004-.001 6.278.007-.004c.006.237.125.482.378.693l3.878 3.228c.574.477 1.615.683 2.327.46l5.91-1.852c.712-.223 1.83-.133 2.514.164a30.96 30.96 0 0 0 3.167 1.167c.31.096.578.296.779.549l-.001 4.233.006.002a1.32 1.32 0 0 0 1.185 1.297l7.593.793c.742.077 1.62-.398 1.96-1.061l1.513-2.947c.341-.663 1.222-1.226 1.966-1.282 1.323-.1 2.639-.262 3.933-.488.735-.128 1.83.079 2.452.491l4.086 2.714c.621.413 1.687.523 2.379.245l6.076-2.434c.416-.167.631-.474.629-.81l.004.004.001-6.258-.004-.002c-.002-.223-.096-.458-.3-.675l-.353-.375c.515-.317 1.148-.54 1.672-.518l6.942.28c.745.03 1.531-.523 1.754-1.235l1.052-3.358a1.28 1.28 0 0 0 .054-.381l.007-.001.001-6.24-.024.012a1.125 1.125 0 0 0-.964-1.161l-5.38-.921 2.096-1.052c.371-.186.552-.474.546-.773l.008.005.001-6.236-.007.003c.005-.246-.115-.503-.378-.722l-3.878-3.228c-.574-.477-1.616-.684-2.328-.461l-5.91 1.853c-.712.223-1.829.133-2.514-.164a31.601 31.601 0 0 0-3.161-1.164zm-25.202 15.731c1.021-1.467 2.765-2.786 5.184-3.754 6.586-2.637 15.628-1.693 20.197 2.109a8.814 8.814 0 0 1 1.546 1.635c-1.019 1.474-2.769 2.799-5.197 3.771-6.585 2.638-15.628 1.694-20.196-2.109a8.346 8.346 0 0 1-1.534-1.652z"/><path style="opacity:.2;fill:#fff" d="M268.551 424.867c-.713-.22-1.226-.974-1.136-1.715l.349-2.885c.09-.74-.44-1.404-1.181-1.481l-7.593-.793c-.742-.077-1.62.398-1.961 1.061l-1.513 2.947c-.34.664-1.222 1.226-1.966 1.282-1.323.1-2.639.262-3.934.488-.735.129-1.831-.078-2.452-.491l-4.086-2.714c-.622-.413-1.687-.523-2.38-.245l-6.076 2.433c-.402.161-.614.454-.626.777l-.005-.004V423.606l-.003 6.206.005-.002c-.001.226.093.464.299.684l.352.375c-.515.316-1.148.54-1.672.518l-6.943-.28c-.746-.03-1.531.523-1.754 1.235l-1.052 3.357a1.235 1.235 0 0 0-.042.414l-.018-.003-.001 6.268.006-.001c.019.539.395.992.981 1.092l5.379.921-2.096 1.052c-.366.184-.547.466-.547.761l-.007-.004-.001 6.278.007-.004c.006.237.125.482.378.693l3.878 3.228c.574.477 1.615.683 2.327.46l5.91-1.852c.712-.223 1.83-.133 2.514.164a30.96 30.96 0 0 0 3.167 1.167c.31.096.578.296.779.549l-.001 4.233.006.002a1.32 1.32 0 0 0 1.185 1.297l7.593.793c.742.077 1.62-.398 1.96-1.061l1.513-2.947c.341-.663 1.222-1.226 1.966-1.282 1.323-.1 2.639-.262 3.933-.488.735-.128 1.83.079 2.452.491l4.086 2.714c.621.413 1.687.523 2.379.245l6.076-2.434c.416-.167.631-.474.629-.81l.004.004.001-6.258-.004-.002c-.002-.223-.096-.458-.3-.675l-.353-.375c.515-.317 1.148-.54 1.672-.518l6.942.28c.745.03 1.531-.523 1.754-1.235l1.052-3.358a1.28 1.28 0 0 0 .054-.381l.007-.001.001-6.24-.024.012a1.125 1.125 0 0 0-.964-1.161l-5.38-.921 2.096-1.052c.371-.186.552-.474.546-.773l.008.005.001-6.236-.007.003c.005-.246-.115-.503-.378-.722l-3.878-3.228c-.574-.477-1.616-.684-2.328-.461l-5.91 1.853c-.712.223-1.829.133-2.514-.164a31.601 31.601 0 0 0-3.161-1.164zm-25.202 15.731c1.021-1.467 2.765-2.786 5.184-3.754 6.586-2.637 15.628-1.693 20.197 2.109a8.814 8.814 0 0 1 1.546 1.635c-1.019 1.474-2.769 2.799-5.197 3.771-6.585 2.638-15.628 1.694-20.196-2.109a8.346 8.346 0 0 1-1.534-1.652z"/><path style="opacity:.1" d="M232.371 439.893c-.214-.713-.886-1.419-1.611-1.544l-6.61-1.13c-.565-.105-.94-.518-.976-1.029l-.005 6.192c.02.539.398.99.977 1.092l5.38.922 2.783-1.399c.672-.336.876-1.113.555-1.79a8.861 8.861 0 0 1-.493-1.314zm1.614-10.084.009.006c-.003.218.092.457.292.684l.358.379c.222-.13.422-.284.574-.442a14.511 14.511 0 0 1 1.664-1.48c.584-.46.679-1.239.168-1.779l-2.761-2.931c-.206-.217-.301-.456-.297-.675l-.007 6.238zM248.535 430.592c-5.682 2.277-7.684 6.469-5.18 10.013 1.012-1.477 2.761-2.785 5.176-3.759 6.588-2.636 15.628-1.699 20.201 2.107.643.543 1.154 1.083 1.535 1.634 1.76-2.517 1.352-5.487-1.531-7.888-4.573-3.806-13.612-4.743-20.201-2.107z"/><path style="fill:#ba68c8" d="M258.732 452.217c-.27.212-.499.46-.629.729l-1.519 2.95c-.216.415-.645.756-1.118.937l-.004 6.254c.482-.176.902-.522 1.117-.937l1.52-2.95c.13-.268.378-.506.648-.718l-.015-6.265zm20.892-.83-.009-.005c.013.339-.21.639-.63.814l-6.067 2.434c-.449.183-1.053.189-1.593.061l-.004 6.254c.545.118 1.145.121 1.593-.062l6.081-2.438c.415-.165.628-.472.624-.805l.005-6.253zm-40.318-2.62-5.831 1.835c-.431.131-.978.122-1.469-.026l-.008 6.239c.496.139 1.036.181 1.473.041l5.84-1.829-.005-6.26zm51.144-9.885a1.709 1.709 0 0 1-.065.367l-1.044 3.36c-.229.714-1.014 1.267-1.754 1.232l-6.942-.279c-.337-.011-.719.076-1.084.22l-.004 6.254c.366-.145.747-.231 1.084-.221l6.942.279c.746.026 1.531-.527 1.754-1.232l1.044-3.359a.98.98 0 0 0 .061-.382l.008-6.239zm-3.709-10.128a.7.7 0 0 1-.051.216.687.687 0 0 1-.21.321 1.39 1.39 0 0 1-.308.215l-4.873 2.449a.898.898 0 0 0-.293.211 1.174 1.174 0 0 0-.33.508c-.052.154-.08.309-.072.486.005.076.014.167.028.249.031.116.067.223.113.335.202.436.372.865.497 1.305.209.722.881 1.428 1.615 1.558l1.221.202 2.1-1.045c.369-.192.548-.481.547-.776l.009.005.007-6.239z"/><path style="opacity:.7;fill:#fff" d="M258.732 452.217c-.27.212-.499.46-.629.729l-1.519 2.95c-.216.415-.645.756-1.118.937l-.004 6.254c.482-.176.902-.522 1.117-.937l1.52-2.95c.13-.268.378-.506.648-.718l-.015-6.265zm20.892-.83-.009-.005c.013.339-.21.639-.63.814l-6.067 2.434c-.449.183-1.053.189-1.593.061l-.004 6.254c.545.118 1.145.121 1.593-.062l6.081-2.438c.415-.165.628-.472.624-.805l.005-6.253zm-40.318-2.62-5.831 1.835c-.431.131-.978.122-1.469-.026l-.008 6.239c.496.139 1.036.181 1.473.041l5.84-1.829-.005-6.26zm51.144-9.885a1.709 1.709 0 0 1-.065.367l-1.044 3.36c-.229.714-1.014 1.267-1.754 1.232l-6.942-.279c-.337-.011-.719.076-1.084.22l-.004 6.254c.366-.145.747-.231 1.084-.221l6.942.279c.746.026 1.531-.527 1.754-1.232l1.044-3.359a.98.98 0 0 0 .061-.382l.008-6.239zm-3.709-10.128a.7.7 0 0 1-.051.216.687.687 0 0 1-.21.321 1.39 1.39 0 0 1-.308.215l-4.873 2.449a.898.898 0 0 0-.293.211 1.174 1.174 0 0 0-.33.508c-.052.154-.08.309-.072.486.005.076.014.167.028.249.031.116.067.223.113.335.202.436.372.865.497 1.305.209.722.881 1.428 1.615 1.558l1.221.202 2.1-1.045c.369-.192.548-.481.547-.776l.009.005.007-6.239z"/><path style="fill:#ba68c8" d="m280.141 424.347-5.91 1.852c-.712.223-1.829.133-2.514-.164a30.873 30.873 0 0 0-3.167-1.167c-.713-.22-1.226-.974-1.136-1.715l.349-2.885c.09-.74-.44-1.404-1.181-1.481l-7.593-.793c-.742-.078-1.62.398-1.961 1.062l-1.512 2.946c-.341.664-1.222 1.226-1.966 1.282-1.323.1-2.639.262-3.934.488-.735.128-1.831-.078-2.452-.491l-4.086-2.714c-.622-.413-1.687-.523-2.38-.245l-6.076 2.433c-.693.277-.84.943-.329 1.487l2.757 2.932c.511.544.419 1.318-.169 1.777-.611.476-1.165.971-1.663 1.482-.521.534-1.5.986-2.245.956l-6.943-.28c-.746-.03-1.531.523-1.754 1.235l-1.052 3.357c-.223.712.192 1.391.928 1.517l6.603 1.13c.735.126 1.402.832 1.612 1.547.13.44.295.878.498 1.313.315.676.109 1.455-.557 1.79l-4.874 2.447c-.667.335-.742.993-.169 1.47l3.878 3.228c.574.477 1.616.684 2.327.46l5.91-1.852c.712-.223 1.83-.133 2.514.164a30.96 30.96 0 0 0 3.167 1.167c.713.221 1.226.975 1.136 1.715l-.349 2.884a1.323 1.323 0 0 0 1.181 1.481l7.593.793c.742.077 1.62-.398 1.961-1.062l1.512-2.946c.341-.664 1.222-1.226 1.966-1.283 1.323-.1 2.639-.262 3.934-.488.735-.129 1.83.079 2.452.491l4.086 2.713c.622.413 1.687.523 2.379.245l6.076-2.434c.693-.277.84-.943.329-1.486l-2.757-2.932c-.511-.544-.419-1.318.169-1.777.61-.477 1.165-.972 1.662-1.483.521-.534 1.5-.986 2.246-.956l6.943.28c.745.03 1.531-.523 1.754-1.234l1.052-3.357c.223-.712-.192-1.391-.928-1.517l-6.604-1.13c-.735-.126-1.401-.831-1.612-1.547a9.398 9.398 0 0 0-.498-1.313c-.315-.676-.11-1.455.557-1.79l4.874-2.446c.667-.335.743-.993.169-1.47l-3.878-3.228c-.57-.475-1.613-.681-2.325-.458zm-11.41 8.352c4.568 3.803 2.933 9.022-3.653 11.66-6.585 2.638-15.628 1.694-20.196-2.109-4.568-3.802-2.933-9.023 3.653-11.661 6.585-2.636 15.628-1.692 20.196 2.11z"/><path style="opacity:.55;fill:#fff" d="m280.141 424.347-5.91 1.852c-.712.223-1.829.133-2.514-.164a30.873 30.873 0 0 0-3.167-1.167c-.713-.22-1.226-.974-1.136-1.715l.349-2.885c.09-.74-.44-1.404-1.181-1.481l-7.593-.793c-.742-.078-1.62.398-1.961 1.062l-1.512 2.946c-.341.664-1.222 1.226-1.966 1.282-1.323.1-2.639.262-3.934.488-.735.128-1.831-.078-2.452-.491l-4.086-2.714c-.622-.413-1.687-.523-2.38-.245l-6.076 2.433c-.693.277-.84.943-.329 1.487l2.757 2.932c.511.544.419 1.318-.169 1.777-.611.476-1.165.971-1.663 1.482-.521.534-1.5.986-2.245.956l-6.943-.28c-.746-.03-1.531.523-1.754 1.235l-1.052 3.357c-.223.712.192 1.391.928 1.517l6.603 1.13c.735.126 1.402.832 1.612 1.547.13.44.295.878.498 1.313.315.676.109 1.455-.557 1.79l-4.874 2.447c-.667.335-.742.993-.169 1.47l3.878 3.228c.574.477 1.616.684 2.327.46l5.91-1.852c.712-.223 1.83-.133 2.514.164a30.96 30.96 0 0 0 3.167 1.167c.713.221 1.226.975 1.136 1.715l-.349 2.884a1.323 1.323 0 0 0 1.181 1.481l7.593.793c.742.077 1.62-.398 1.961-1.062l1.512-2.946c.341-.664 1.222-1.226 1.966-1.283 1.323-.1 2.639-.262 3.934-.488.735-.129 1.83.079 2.452.491l4.086 2.713c.622.413 1.687.523 2.379.245l6.076-2.434c.693-.277.84-.943.329-1.486l-2.757-2.932c-.511-.544-.419-1.318.169-1.777.61-.477 1.165-.972 1.662-1.483.521-.534 1.5-.986 2.246-.956l6.943.28c.745.03 1.531-.523 1.754-1.234l1.052-3.357c.223-.712-.192-1.391-.928-1.517l-6.604-1.13c-.735-.126-1.401-.831-1.612-1.547a9.398 9.398 0 0 0-.498-1.313c-.315-.676-.11-1.455.557-1.79l4.874-2.446c.667-.335.743-.993.169-1.47l-3.878-3.228c-.57-.475-1.613-.681-2.325-.458zm-11.41 8.352c4.568 3.803 2.933 9.022-3.653 11.66-6.585 2.638-15.628 1.694-20.196-2.109-4.568-3.802-2.933-9.023 3.653-11.661 6.585-2.636 15.628-1.692 20.196 2.11z"/><g style="opacity:.55"><path style="fill:#fff" d="M258.827 418.741c.028 0 .056.001.083.004l7.593.793a.568.568 0 0 1 .511.64l-.349 2.884c-.132 1.088.599 2.199 1.663 2.527a30.29 30.29 0 0 1 3.089 1.138c.514.223 1.196.351 1.872.351.432 0 .836-.055 1.168-.159l5.91-1.852c.116-.036.26-.055.417-.055.442 0 .936.154 1.202.375l3.878 3.228c.077.064.102.11.112.115a.388.388 0 0 1-.137.1l-4.874 2.446c-1.016.51-1.404 1.707-.903 2.784.185.396.339.802.458 1.207.306 1.038 1.235 1.911 2.209 2.078l6.604 1.13c.14.024.246.089.306.188.061.099.07.223.028.359l-1.052 3.357c-.118.376-.573.706-1.001.706h-.001l-6.943-.28-.102-.002c-.903 0-2.045.498-2.715 1.185-.476.488-1.01.964-1.587 1.414-.465.363-.745.868-.788 1.422a1.912 1.912 0 0 0 .533 1.467l2.757 2.932c.085.09.1.153.1.161-.005.011-.045.061-.16.108l-6.076 2.434a1.693 1.693 0 0 1-.608.099c-.403 0-.824-.107-1.073-.272l-4.086-2.713c-.6-.398-1.539-.655-2.394-.655a3.59 3.59 0 0 0-.605.049 40.11 40.11 0 0 1-3.861.479c-1.016.077-2.125.804-2.58 1.691l-1.513 2.946c-.184.358-.7.66-1.127.66a.756.756 0 0 1-.083-.004l-7.593-.793a.572.572 0 0 1-.51-.64l.349-2.884c.132-1.088-.599-2.198-1.663-2.527a30.377 30.377 0 0 1-3.089-1.138c-.514-.223-1.196-.351-1.872-.351-.433 0-.837.055-1.169.159l-5.91 1.852c-.116.036-.26.056-.417.056-.442 0-.936-.155-1.202-.376l-3.878-3.228c-.077-.064-.103-.11-.112-.115a.388.388 0 0 1 .137-.1l4.874-2.447c1.017-.51 1.405-1.707.903-2.784a8.571 8.571 0 0 1-.458-1.207c-.306-1.037-1.235-1.911-2.209-2.078l-6.604-1.13a.429.429 0 0 1-.307-.188.428.428 0 0 1-.028-.359l1.052-3.357c.118-.376.573-.706 1.002-.706h.001l6.942.28.102.002c.903 0 2.045-.499 2.715-1.185.477-.489 1.01-.964 1.586-1.414.465-.363.745-.868.788-1.422a1.911 1.911 0 0 0-.533-1.468l-2.756-2.932c-.085-.09-.1-.153-.1-.161.004-.011.045-.061.16-.107l6.076-2.433c.159-.064.376-.099.608-.099.403 0 .824.107 1.073.272l4.086 2.714c.599.398 1.539.655 2.394.655.215 0 .419-.017.606-.049a40.05 40.05 0 0 1 3.86-.479c1.016-.077 2.126-.803 2.581-1.691l1.513-2.946c.183-.359.7-.661 1.127-.661m-2.009 27.869c3.057 0 6.01-.536 8.54-1.549 3.791-1.518 6.213-3.964 6.647-6.711.352-2.226-.64-4.439-2.792-6.23-2.843-2.366-7.486-3.779-12.421-3.779-3.056 0-6.009.536-8.539 1.549-3.79 1.518-6.213 3.964-6.647 6.712-.352 2.227.64 4.439 2.792 6.23 2.843 2.365 7.486 3.778 12.42 3.778m2.009-28.624c-.704 0-1.482.454-1.799 1.07l-1.513 2.946c-.341.664-1.222 1.226-1.966 1.282a40.83 40.83 0 0 0-3.934.488 2.75 2.75 0 0 1-.476.038c-.677 0-1.479-.198-1.977-.529l-4.086-2.714c-.39-.259-.954-.398-1.491-.398-.32 0-.631.05-.889.153l-6.076 2.433c-.692.277-.84.943-.329 1.487l2.757 2.932c.511.544.419 1.318-.169 1.777-.611.476-1.165.971-1.663 1.482-.504.517-1.439.958-2.174.958l-.071-.001-6.942-.28-.058-.001c-.728 0-1.479.542-1.696 1.236l-1.052 3.357c-.223.712.192 1.391.928 1.517l6.604 1.13c.735.126 1.401.832 1.612 1.547.129.44.295.878.498 1.313.315.676.11 1.455-.557 1.79l-4.874 2.447c-.667.335-.743.993-.169 1.47l3.878 3.228c.417.347 1.08.55 1.685.55.228 0 .447-.029.643-.09l5.91-1.852c.271-.085.601-.124.943-.124.557 0 1.147.105 1.571.289a30.96 30.96 0 0 0 3.167 1.167c.713.221 1.226.975 1.136 1.715l-.349 2.884a1.323 1.323 0 0 0 1.181 1.481l7.593.793c.053.006.107.008.161.008.704 0 1.483-.454 1.799-1.07l1.513-2.946c.341-.664 1.222-1.226 1.966-1.283 1.323-.1 2.639-.262 3.934-.488.146-.026.307-.038.476-.038.677 0 1.479.199 1.977.529l4.086 2.713c.39.259.953.398 1.49.398.32 0 .63-.05.889-.153l6.076-2.434c.693-.277.84-.943.329-1.486l-2.757-2.932c-.511-.544-.419-1.318.169-1.777.61-.477 1.165-.972 1.663-1.483.504-.517 1.439-.957 2.174-.957l.072.001 6.943.28.059.001c.727 0 1.478-.542 1.695-1.236l1.052-3.357c.223-.712-.192-1.391-.928-1.517l-6.604-1.13c-.735-.126-1.401-.831-1.612-1.547a9.398 9.398 0 0 0-.498-1.313c-.315-.676-.11-1.455.557-1.79l4.874-2.446c.667-.335.743-.993.169-1.47l-3.878-3.228c-.417-.347-1.08-.55-1.685-.55-.228 0-.448.029-.643.09l-5.91 1.852c-.271.085-.6.124-.942.124-.557 0-1.147-.105-1.571-.289a30.941 30.941 0 0 0-3.166-1.167c-.713-.22-1.226-.974-1.137-1.715l.349-2.885c.09-.74-.44-1.404-1.181-1.481l-7.593-.793a2.24 2.24 0 0 0-.163-.006zm-2.009 27.869c-4.597 0-9.118-1.258-11.937-3.604-4.569-3.802-2.933-9.023 3.653-11.661 2.522-1.01 5.405-1.495 8.258-1.495 4.598 0 9.119 1.258 11.938 3.604 4.568 3.803 2.933 9.022-3.653 11.66-2.521 1.011-5.405 1.496-8.259 1.496z"/></g><path style="fill:#ba68c8" d="m363.811 395.159-7.424-4.286c-.443-.256-1.179-.289-1.643-.074l-7.525 3.486c-.464.215-1.233.256-1.721.103a44.632 44.632 0 0 0-5.842-1.389c-.504-.086-.992-.554-1.088-1.057l-.942-4.959a1.161 1.161 0 0 0-1.099-.91h-10.915c-.512 0-1.004.408-1.099.91l-.942 4.959c-.095.503-.583.971-1.088 1.057a44.654 44.654 0 0 0-5.841 1.388c-.488.153-1.258.112-1.722-.103l-7.525-3.486c-.464-.215-1.2-.182-1.643.073l-7.423 4.286c-.229.132-.343.316-.345.505h-.003l-.018 6.435.002-.001c-.002.176.094.356.295.5l3.415 2.457c-.258.193-.558.332-.842.35l-9.892.626a1 1 0 0 0-.924.985v4.204l-.002.009-.015 7.74a1 1 0 0 0 .924.985l9.892.626c.29.019.597.164.859.363l-3.396 2.444c-.198.143-.294.32-.294.494l-.003.001-.018 6.441h.002c.002.188.116.372.345.504l7.423 4.286c.443.256 1.179.289 1.643.074l7.525-3.486c.464-.215 1.233-.256 1.721-.103a44.709 44.709 0 0 0 5.842 1.389c.504.086.992.554 1.088 1.057l.941 4.958c.096.503.588.91 1.099.91h10.915c.512 0 1.004-.407 1.099-.91l.941-4.958c.096-.503.583-.971 1.087-1.056a44.709 44.709 0 0 0 5.842-1.389c.488-.153 1.258-.112 1.722.103l7.525 3.486c.464.215 1.199.182 1.642-.074l7.424-4.286c.224-.13.34-.309.346-.493h.001l.018-6.454-.003-.001c-.001-.174-.096-.35-.294-.493l-3.415-2.457c.258-.192.558-.332.842-.35l9.892-.626c.51-.032.924-.473.925-.985l.013-6.409c0-.009.005-.017.005-.026v-5.519a1 1 0 0 0-.924-.985l-9.892-.626c-.29-.018-.597-.164-.859-.363l3.396-2.443c.198-.143.293-.319.294-.493l.003.001.018-6.443-.002-.001c0-.186-.114-.369-.343-.501zm-50.112 16.673c.533-1.778 2.12-3.519 4.83-5.083 6.926-3.999 18.155-3.999 25.082 0 2.54 1.467 4.196 3.08 4.945 4.732-.59 2.027-2.234 3.971-4.943 5.534-6.926 3.999-18.156 3.999-25.082 0-2.552-1.473-4.16-3.284-4.832-5.183z"/><path style="opacity:.2;fill:#fff" d="m363.811 395.159-7.424-4.286c-.443-.256-1.179-.289-1.643-.074l-7.525 3.486c-.464.215-1.233.256-1.721.103a44.632 44.632 0 0 0-5.842-1.389c-.504-.086-.992-.554-1.088-1.057l-.942-4.959a1.161 1.161 0 0 0-1.099-.91h-10.915c-.512 0-1.004.408-1.099.91l-.942 4.959c-.095.503-.583.971-1.088 1.057a44.654 44.654 0 0 0-5.841 1.388c-.488.153-1.258.112-1.722-.103l-7.525-3.486c-.464-.215-1.2-.182-1.643.073l-7.423 4.286c-.229.132-.343.316-.345.505h-.003l-.018 6.435.002-.001c-.002.176.094.356.295.5l3.415 2.457c-.258.193-.558.332-.842.35l-9.892.626a1 1 0 0 0-.924.985v4.204l-.002.009-.015 7.74a1 1 0 0 0 .924.985l9.892.626c.29.019.597.164.859.363l-3.396 2.444c-.198.143-.294.32-.294.494l-.003.001-.018 6.441h.002c.002.188.116.372.345.504l7.423 4.286c.443.256 1.179.289 1.643.074l7.525-3.486c.464-.215 1.233-.256 1.721-.103a44.709 44.709 0 0 0 5.842 1.389c.504.086.992.554 1.088 1.057l.941 4.958c.096.503.588.91 1.099.91h10.915c.512 0 1.004-.407 1.099-.91l.941-4.958c.096-.503.583-.971 1.087-1.056a44.709 44.709 0 0 0 5.842-1.389c.488-.153 1.258-.112 1.722.103l7.525 3.486c.464.215 1.199.182 1.642-.074l7.424-4.286c.224-.13.34-.309.346-.493h.001l.018-6.454-.003-.001c-.001-.174-.096-.35-.294-.493l-3.415-2.457c.258-.192.558-.332.842-.35l9.892-.626c.51-.032.924-.473.925-.985l.013-6.409c0-.009.005-.017.005-.026v-5.519a1 1 0 0 0-.924-.985l-9.892-.626c-.29-.018-.597-.164-.859-.363l3.396-2.443c.198-.143.293-.319.294-.493l.003.001.018-6.443-.002-.001c0-.186-.114-.369-.343-.501zm-50.112 16.673c.533-1.778 2.12-3.519 4.83-5.083 6.926-3.999 18.155-3.999 25.082 0 2.54 1.467 4.196 3.08 4.945 4.732-.59 2.027-2.234 3.971-4.943 5.534-6.926 3.999-18.156 3.999-25.082 0-2.552-1.473-4.16-3.284-4.832-5.183z"/><path style="opacity:.1" d="M302.172 415.033c-.244-.452-.826-.856-1.337-.89l-9.894-.623a.997.997 0 0 1-.92-.985l-.003-1.306-.017 7.737c.005.516.416.955.926.989l9.893.623c.293.017.607.157.869.359l2.476-1.783c.416-.298.454-.831.108-1.208a15.02 15.02 0 0 1-2.101-2.913zm-4.207-12.934.006.004c-.007.173.093.348.293.497l3.416 2.46c.205-.151.383-.342.489-.542.543-.999 1.247-1.971 2.104-2.915.346-.381.306-.909-.11-1.208l-5.885-4.23c-.168-.131-.267-.28-.297-.432l-.016 6.366zM343.611 402.538c-6.927-3.999-18.153-4.004-25.08-.004-4.378 2.527-5.989 6.047-4.834 9.304.521-1.777 2.117-3.521 4.832-5.091 6.927-4 18.153-3.995 25.079.004 2.536 1.464 4.198 3.072 4.951 4.726.922-3.153-.734-6.506-4.948-8.939z"/><path style="fill:#ba68c8" d="M372.117 412.662a1.02 1.02 0 0 1-.916.859l-9.89.624a1.35 1.35 0 0 0-.498.133l-.011 6.445a1.42 1.42 0 0 1 .485-.141l9.893-.63a.996.996 0 0 0 .927-.979l.01-6.311zm-7.958-17.001-.006-.004a.396.396 0 0 1-.038.197.403.403 0 0 1-.119.192.799.799 0 0 1-.134.116l-5.884 4.232a.585.585 0 0 0-.141.129.767.767 0 0 0-.193.612c.007.046.018.086.028.126a.938.938 0 0 0 .198.341c.043.042.076.086.109.131a14.674 14.674 0 0 1 1.993 2.783c.109.189.271.375.468.53l3.403-2.442c.195-.148.297-.325.294-.495l.006.004.016-6.452zm0 28.278c-.023.171-.141.331-.347.456l-7.427 4.283c-.305.177-.749.249-1.151.202l-.011 6.428c.402.047.843-.018 1.148-.196l7.421-4.286c.227-.13.345-.306.349-.488l.018-6.399zm-48.496 1.146a2.4 2.4 0 0 0-.741.177l-7.523 3.488a1.557 1.557 0 0 1-.671.142l-.017 6.425c.242-.012.479-.043.674-.133l7.523-3.487a2.38 2.38 0 0 1 .738-.171l.017-6.441zm21.783 7.9c-.21.291-.555.495-.914.49l-10.92.004a1.11 1.11 0 0 1-.668-.242l-.008 6.438c.194.146.42.234.661.239l10.91-.001c.388-.003.754-.229.957-.55l-.018-6.378z"/><path style="opacity:.7;fill:#fff" d="M372.117 412.662a1.02 1.02 0 0 1-.916.859l-9.89.624a1.35 1.35 0 0 0-.498.133l-.011 6.445a1.42 1.42 0 0 1 .485-.141l9.893-.63a.996.996 0 0 0 .927-.979l.01-6.311zm-7.958-17.001-.006-.004a.396.396 0 0 1-.038.197.403.403 0 0 1-.119.192.799.799 0 0 1-.134.116l-5.884 4.232a.585.585 0 0 0-.141.129.767.767 0 0 0-.193.612c.007.046.018.086.028.126a.938.938 0 0 0 .198.341c.043.042.076.086.109.131a14.674 14.674 0 0 1 1.993 2.783c.109.189.271.375.468.53l3.403-2.442c.195-.148.297-.325.294-.495l.006.004.016-6.452zm0 28.278c-.023.171-.141.331-.347.456l-7.427 4.283c-.305.177-.749.249-1.151.202l-.011 6.428c.402.047.843-.018 1.148-.196l7.421-4.286c.227-.13.345-.306.349-.488l.018-6.399zm-48.496 1.146a2.4 2.4 0 0 0-.741.177l-7.523 3.488a1.557 1.557 0 0 1-.671.142l-.017 6.425c.242-.012.479-.043.674-.133l7.523-3.487a2.38 2.38 0 0 1 .738-.171l.017-6.441zm21.783 7.9c-.21.291-.555.495-.914.49l-10.92.004a1.11 1.11 0 0 1-.668-.242l-.008 6.438c.194.146.42.234.661.239l10.91-.001c.388-.003.754-.229.957-.55l-.018-6.378z"/><path style="fill:#ba68c8" d="m354.745 390.799-7.525 3.486c-.464.215-1.233.255-1.721.103a44.709 44.709 0 0 0-5.842-1.389c-.504-.086-.992-.554-1.088-1.057l-.941-4.959a1.161 1.161 0 0 0-1.099-.91h-10.915c-.512 0-1.004.408-1.099.91l-.942 4.959c-.095.503-.583.971-1.088 1.056a44.654 44.654 0 0 0-5.841 1.388c-.488.153-1.258.112-1.722-.103l-7.525-3.486c-.464-.215-1.2-.182-1.643.074l-7.423 4.286c-.443.256-.465.705-.05 1.004l5.883 4.233c.415.299.455.83.109 1.207a14.817 14.817 0 0 0-2.101 2.913c-.244.45-.826.856-1.337.888l-9.892.626a1.002 1.002 0 0 0-.925.985v5.518a1 1 0 0 0 .924.985l9.892.626c.511.033 1.092.438 1.337.887a14.782 14.782 0 0 0 2.101 2.914c.345.378.306.909-.109 1.208l-5.883 4.233c-.415.299-.393.748.05 1.004l7.423 4.286c.443.256 1.178.289 1.643.074l7.525-3.486c.464-.215 1.233-.256 1.721-.103a44.709 44.709 0 0 0 5.842 1.389c.504.086.992.554 1.088 1.057l.941 4.958c.096.503.588.91 1.099.91h10.915c.512 0 1.004-.407 1.099-.91l.941-4.959c.095-.503.583-.971 1.087-1.056a44.709 44.709 0 0 0 5.842-1.389c.488-.152 1.258-.112 1.722.103l7.525 3.486c.464.215 1.199.182 1.643-.074l7.423-4.286c.443-.256.466-.705.05-1.004l-5.883-4.233c-.415-.299-.454-.83-.109-1.207a14.823 14.823 0 0 0 2.101-2.914c.244-.45.826-.855 1.336-.888l9.893-.626a1 1 0 0 0 .924-.985v-5.519a1 1 0 0 0-.924-.985l-9.892-.626c-.511-.032-1.092-.438-1.336-.887a14.816 14.816 0 0 0-2.1-2.914c-.345-.378-.306-.909.109-1.208l5.883-4.233c.415-.299.393-.748-.05-1.004l-7.424-4.286c-.442-.252-1.178-.285-1.642-.07zm-11.132 11.736c6.926 3.999 6.926 10.482 0 14.481-6.926 3.999-18.156 3.999-25.082 0-6.926-3.999-6.926-10.483 0-14.481 6.927-3.999 18.155-3.999 25.082 0z"/><path style="opacity:.55;fill:#fff" d="m354.745 390.799-7.525 3.486c-.464.215-1.233.255-1.721.103a44.709 44.709 0 0 0-5.842-1.389c-.504-.086-.992-.554-1.088-1.057l-.941-4.959a1.161 1.161 0 0 0-1.099-.91h-10.915c-.512 0-1.004.408-1.099.91l-.942 4.959c-.095.503-.583.971-1.088 1.056a44.654 44.654 0 0 0-5.841 1.388c-.488.153-1.258.112-1.722-.103l-7.525-3.486c-.464-.215-1.2-.182-1.643.074l-7.423 4.286c-.443.256-.465.705-.05 1.004l5.883 4.233c.415.299.455.83.109 1.207a14.817 14.817 0 0 0-2.101 2.913c-.244.45-.826.856-1.337.888l-9.892.626a1.002 1.002 0 0 0-.925.985v5.518a1 1 0 0 0 .924.985l9.892.626c.511.033 1.092.438 1.337.887a14.782 14.782 0 0 0 2.101 2.914c.345.378.306.909-.109 1.208l-5.883 4.233c-.415.299-.393.748.05 1.004l7.423 4.286c.443.256 1.178.289 1.643.074l7.525-3.486c.464-.215 1.233-.256 1.721-.103a44.709 44.709 0 0 0 5.842 1.389c.504.086.992.554 1.088 1.057l.941 4.958c.096.503.588.91 1.099.91h10.915c.512 0 1.004-.407 1.099-.91l.941-4.959c.095-.503.583-.971 1.087-1.056a44.709 44.709 0 0 0 5.842-1.389c.488-.152 1.258-.112 1.722.103l7.525 3.486c.464.215 1.199.182 1.643-.074l7.423-4.286c.443-.256.466-.705.05-1.004l-5.883-4.233c-.415-.299-.454-.83-.109-1.207a14.823 14.823 0 0 0 2.101-2.914c.244-.45.826-.855 1.336-.888l9.893-.626a1 1 0 0 0 .924-.985v-5.519a1 1 0 0 0-.924-.985l-9.892-.626c-.511-.032-1.092-.438-1.336-.887a14.816 14.816 0 0 0-2.1-2.914c-.345-.378-.306-.909.109-1.208l5.883-4.233c.415-.299.393-.748-.05-1.004l-7.424-4.286c-.442-.252-1.178-.285-1.642-.07zm-11.132 11.736c6.926 3.999 6.926 10.482 0 14.481-6.926 3.999-18.156 3.999-25.082 0-6.926-3.999-6.926-10.483 0-14.481 6.927-3.999 18.155-3.999 25.082 0z"/><g style="opacity:.55"><path style="fill:#fff" d="M336.53 386.603a.64.64 0 0 1 .58.48l.941 4.958c.136.72.789 1.355 1.519 1.479 2.009.341 3.951.803 5.773 1.372.242.076.535.116.846.116.463 0 .921-.089 1.255-.243l7.525-3.486c.127-.059.312-.093.506-.093.25 0 .493.054.65.145l7.424 4.286c.043.025.067.047.078.047h.001a.295.295 0 0 1-.074.07l-5.883 4.233c-.32.23-.517.562-.556.935-.039.382.09.758.365 1.058.818.895 1.5 1.84 2.026 2.809.337.62 1.097 1.12 1.767 1.163l9.893.626a.471.471 0 0 1 .429.457v5.519a.47.47 0 0 1-.429.457l-9.893.626c-.671.043-1.43.543-1.767 1.163a14.318 14.318 0 0 1-2.026 2.809 1.347 1.347 0 0 0-.365 1.057c.039.373.236.706.556.936l5.883 4.233c.041.03.063.055.074.055a.3.3 0 0 1-.08.063l-7.423 4.286c-.157.091-.4.145-.65.145-.194 0-.379-.034-.506-.093l-7.525-3.486c-.334-.154-.791-.243-1.254-.243-.312 0-.605.04-.847.116a44.256 44.256 0 0 1-5.772 1.372c-.729.124-1.382.759-1.518 1.479l-.941 4.959a.64.64 0 0 1-.58.48h-10.915a.64.64 0 0 1-.58-.48l-.941-4.959c-.137-.719-.789-1.355-1.519-1.479a44.256 44.256 0 0 1-5.772-1.373 2.88 2.88 0 0 0-.846-.116c-.463 0-.92.089-1.255.243l-7.525 3.486a1.267 1.267 0 0 1-.506.093c-.25 0-.493-.054-.65-.145l-7.423-4.286c-.043-.025-.067-.047-.078-.047h-.001a.315.315 0 0 1 .074-.07l5.883-4.233c.319-.23.517-.562.555-.935a1.35 1.35 0 0 0-.365-1.059c-.818-.895-1.5-1.84-2.027-2.809-.337-.62-1.097-1.12-1.768-1.162l-9.892-.626a.471.471 0 0 1-.43-.457v-5.518c0-.233.197-.443.429-.458l9.892-.627c.671-.042 1.431-.542 1.768-1.163a14.307 14.307 0 0 1 2.027-2.809c.275-.301.404-.677.365-1.058a1.313 1.313 0 0 0-.556-.935l-5.883-4.233c-.041-.03-.063-.055-.074-.055a.284.284 0 0 1 .08-.062l7.424-4.286c.157-.091.4-.145.65-.145.194 0 .379.034.506.093l7.525 3.486c.334.155.791.243 1.254.243.312 0 .605-.04.847-.116a44.224 44.224 0 0 1 5.772-1.372c.729-.124 1.382-.76 1.518-1.479l.942-4.959a.64.64 0 0 1 .58-.48l10.913.002m-5.459 33.94c4.829 0 9.377-1.09 12.806-3.07 3.52-2.032 5.459-4.766 5.459-7.698 0-2.932-1.939-5.666-5.459-7.698-3.429-1.979-7.976-3.07-12.805-3.07-4.828 0-9.376 1.09-12.805 3.07-3.52 2.032-5.459 4.766-5.459 7.698 0 2.932 1.939 5.666 5.459 7.698 3.428 1.98 7.975 3.07 12.804 3.07m5.459-34.469h-10.915c-.511 0-1.004.407-1.099.91l-.942 4.959c-.095.503-.583.971-1.088 1.056a44.654 44.654 0 0 0-5.841 1.388c-.197.061-.44.092-.69.092-.37 0-.755-.066-1.032-.194l-7.525-3.486a1.778 1.778 0 0 0-.728-.142c-.331 0-.668.073-.914.215l-7.424 4.286c-.443.256-.465.705-.05 1.004l5.883 4.233c.415.299.455.83.109 1.207-.86.94-1.559 1.915-2.101 2.913-.244.45-.826.856-1.337.888l-9.892.626c-.51.033-.924.473-.925.985v5.518a1 1 0 0 0 .924.985l9.892.626c.511.033 1.092.438 1.337.887a14.823 14.823 0 0 0 2.101 2.914c.345.378.306.909-.109 1.208l-5.883 4.233c-.415.299-.393.748.05 1.004l7.423 4.286c.247.142.584.216.914.216.263 0 .522-.047.729-.142l7.525-3.486c.277-.128.663-.194 1.033-.194.249 0 .492.03.688.092a44.709 44.709 0 0 0 5.842 1.389c.505.086.992.554 1.088 1.057l.941 4.958c.096.503.588.91 1.099.91h10.915c.512 0 1.004-.407 1.099-.91l.941-4.959c.095-.503.583-.971 1.087-1.056a44.655 44.655 0 0 0 5.841-1.389c.197-.061.44-.092.689-.092.37 0 .755.066 1.033.194l7.525 3.486c.206.095.465.142.729.142.33 0 .667-.073.914-.216l7.423-4.286c.443-.256.466-.705.05-1.004l-5.883-4.233c-.415-.299-.455-.83-.109-1.207a14.823 14.823 0 0 0 2.101-2.914c.244-.45.826-.855 1.336-.888l9.893-.626a1 1 0 0 0 .924-.985v-5.519a1 1 0 0 0-.924-.985l-9.892-.626c-.511-.032-1.092-.438-1.336-.887a14.816 14.816 0 0 0-2.1-2.914c-.345-.378-.306-.909.109-1.208l5.883-4.233c.415-.299.393-.748-.05-1.004l-7.424-4.286c-.247-.142-.584-.216-.914-.216-.263 0-.522.047-.728.142l-7.525 3.486c-.277.128-.663.195-1.033.195-.249 0-.492-.03-.688-.092a44.709 44.709 0 0 0-5.842-1.389c-.504-.086-.992-.554-1.088-1.057l-.941-4.959c-.095-.498-.587-.906-1.098-.906zm-5.459 33.941c-4.539 0-9.077-.999-12.54-2.999-6.926-3.999-6.926-10.483 0-14.481 3.463-1.999 8.002-2.999 12.541-2.999s9.078 1 12.541 2.999c6.926 3.999 6.926 10.482 0 14.481-3.463 1.999-8.003 2.999-12.542 2.999z"/></g><path style="fill:#ba68c8" d="M236.087 174.65h-.973v-1.481a2.73 2.73 0 0 0-.012-.226l-.066-.192.018-.057-.024-.081a.473.473 0 0 0-.063-.136l-.193-.238a.732.732 0 0 0-.52-.084l-.166-.958a1.665 1.665 0 0 1 1.285.274l.065.055c.052.043.098.088.141.139l.109.134a.81.81 0 0 1 .115.181c.069.111.123.232.16.363.015.036.035.098.051.173l.075.15-.031.078c.007.041.01.079.014.112.008.104.016.208.016.313v1.481zM185.124 280.916a1.652 1.652 0 0 1-.674-.152c-.059-.028-.116-.055-.213-.111-.346-.198-.616-.655-.746-.909-.172-.339-.277-.835-.277-1.297v-1.058h.973v1.058c0 .305.07.656.171.855.161.314.319.481.367.509.063.037.098.054.126.066l.002.517.108-.474a.773.773 0 0 0 .163.022l.109.97-.109.004zm3.705-1.861-.486-.842 3.326-1.922.486.842-3.326 1.922zm6.651-3.844-.486-.842 3.326-1.922.486.842-3.326 1.922zm-11.293-1.663h-.973v-3.842h.973v3.842zm17.945-2.18-.486-.842 3.326-1.922.486.842-3.326 1.922zm6.653-3.844-.486-.842 3.326-1.922.486.842-3.326 1.922zm-24.598-1.659h-.973v-3.841h.973v3.841zm31.25-2.185-.486-.842 3.326-1.922.486.842-3.326 1.922zm6.652-3.844-.486-.842 3.326-1.922.486.842-3.326 1.922zm-37.902-1.654h-.973v-3.841h.973v3.841zm44.555-2.188-.486-.842 3.326-1.922.486.842-3.326 1.922zm6.501-4.386-.816-.529c.438-.673.688-1.426.688-2.065v-1.357h.973v1.357c-.001.822-.308 1.768-.845 2.594zm-51.056-1.109h-.973v-3.841h.973v3.841zm51.9-6.684h-.973v-3.841h.973v3.841zm-51.9-.998h-.973v-3.841h.973v3.841zm51.9-6.685h-.973v-3.842h.973v3.842zm-51.9-.998h-.973v-3.842h.973v3.842zm51.9-6.685h-.973v-3.841h.973v3.841zm-51.9-.998h-.973v-3.841h.973v3.841zm51.9-6.684h-.973v-3.841h.973v3.841zm-51.9-.998h-.973v-3.841h.973v3.841zm51.9-6.685h-.973v-3.841h.973v3.841zm-51.9-.998h-.973v-3.841h.973v3.841zm51.9-6.685h-.973v-3.841h.973v3.841zm-51.9-.998h-.973v-1.285c0-.846.324-1.815.89-2.66l.809.541c-.454.679-.726 1.471-.726 2.119v1.285zm3.598-5.535-.486-.843 3.327-1.92.486.843-3.327 1.92zm48.302-1.15h-.973v-3.841h.973v3.841zm-41.648-2.691-.486-.843 3.327-1.92.486.843-3.327 1.92zm6.654-3.839-.486-.843 3.327-1.92.486.843-3.327 1.92zm34.994-1.152h-.973v-3.841h.973v3.841zm-28.339-2.688-.486-.843 3.327-1.92.486.843-3.327 1.92zm6.654-3.84-.486-.843 3.327-1.92.486.843-3.327 1.92zm21.685-1.155h-.973v-3.841h.973v3.841zm-15.031-2.686-.486-.843 3.327-1.92.486.843-3.327 1.92zm6.654-3.839-.486-.843 3.327-1.92.486.843-3.327 1.92zM236.087 285.558h-.973v-1.48c0-.077-.006-.154-.012-.227l-.065-.191.018-.056-.026-.083a.446.446 0 0 0-.06-.132l-.19-.236a.712.712 0 0 0-.525-.089l-.166-.959a1.65 1.65 0 0 1 1.025.125c.085.036.179.09.263.152l.079.074a.475.475 0 0 1 .122.115l.016.011.099.129a.815.815 0 0 1 .112.177c.069.111.123.233.161.365a.996.996 0 0 1 .051.179l.071.151-.028.07c.007.041.01.078.014.11.008.105.016.209.016.314v1.481zM185.106 391.824c-.105 0-.23-.017-.366-.049a1.213 1.213 0 0 1-.289-.102c-.069-.034-.123-.06-.21-.109-.351-.203-.62-.659-.75-.913-.171-.338-.276-.834-.276-1.295v-1.058h.973v1.058c0 .304.07.655.171.855.161.315.32.482.368.511l.24.108a.675.675 0 0 0 .158.022l.109.971-.126.002-.002-.001zm3.723-1.86-.486-.842 3.326-1.922.486.842-3.326 1.922zm6.652-3.843-.486-.842 3.326-1.922.486.842-3.326 1.922zm-11.294-1.664h-.973v-3.841h.973v3.841zm17.945-2.18-.486-.842 3.326-1.922.486.842-3.326 1.922zm6.653-3.844-.486-.842 3.326-1.922.486.842-3.326 1.922zm-24.598-1.659h-.973v-3.841h.973v3.841zm31.25-2.185-.486-.842 3.326-1.922.486.842-3.326 1.922zm6.652-3.843-.486-.842 3.326-1.922.486.842-3.326 1.922zm-37.902-1.655h-.973v-3.842h.973v3.842zm44.555-2.189-.486-.842 3.326-1.922.486.842-3.326 1.922zm6.501-4.385-.816-.529c.438-.673.688-1.426.688-2.065v-1.357h.973v1.357c-.001.823-.308 1.768-.845 2.594zm-51.056-1.108h-.973v-3.842h.973v3.842zm51.9-6.685h-.973v-3.841h.973v3.841zm-51.9-.998h-.973v-3.842h.973v3.842zm51.9-6.684h-.973V343.2h.973v3.842zm-51.9-.999h-.973v-3.841h.973v3.841zm51.9-6.684h-.973v-3.842h.973v3.842zm-51.9-.999h-.973v-3.841h.973v3.841zm51.9-6.684h-.973v-3.842h.973v3.842zm-51.9-.999h-.973v-3.841h.973v3.841zm51.9-6.683h-.973v-3.842h.973v3.842zm-51.9-.999h-.973v-3.842h.973v3.842zm51.9-6.685h-.973v-3.841h.973v3.841zm-51.9-.998h-.973v-1.285c0-.846.324-1.815.89-2.659l.809.541c-.454.679-.726 1.47-.726 2.118v1.285zm3.598-5.536-.486-.842 3.327-1.92.486.842-3.327 1.92zm48.302-1.148h-.973v-3.841h.973v3.841zm-41.648-2.692-.486-.842 3.327-1.92.486.842-3.327 1.92zm6.654-3.84-.486-.842 3.327-1.92.486.842-3.327 1.92zm34.994-1.151h-.973v-3.842h.973v3.842zm-28.339-2.689-.486-.842 3.327-1.92.486.842-3.327 1.92zm6.654-3.84-.486-.842 3.327-1.92.486.842-3.327 1.92zm21.685-1.154h-.973v-3.842h.973v3.842zm-15.031-2.686-.486-.842 3.327-1.92.486.842-3.327 1.92zm6.654-3.84-.486-.842 3.327-1.92.486.842-3.327 1.92zM372.881 36.076l-48.353 27.891c-.986.569-1.786 1.953-1.786 3.091v44.822c0 1.138.805 2.513 1.796 3.072l3.4 1.929c.992.56 2.594.552 3.58-.017l48.353-27.891c.986-.569 1.785-1.953 1.785-3.092v-44.82c0-1.138-.804-2.515-1.795-3.074l-3.4-1.929c-.991-.559-2.594-.552-3.58.018z"/><path style="opacity:.2" d="M331.518 116.864c-.95.551-2.686.57-3.583.021l-3.397-1.936c-.989-.553-1.796-1.931-1.796-3.069V67.058c0-.593.222-1.245.568-1.822l6.95 4.022c-.329.552-.527 1.187-.527 1.756v44.816c0 1.042.734 1.644 1.785 1.034z"/><g style="opacity:.2"><path style="fill:#fff" d="M381.632 40.738c-.14-.899-.874-1.221-1.764-.709l-48.346 27.893c-.495.288-.94.775-1.262 1.336l-6.958-4.022c.322-.536.75-.998 1.229-1.27l48.355-27.893c.981-.569 2.581-.577 3.578-.016l3.397 1.927c.898.511 1.648 1.69 1.771 2.754z"/></g><path style="fill:#ba68c8" d="m379.871 40.031-48.353 27.891c-.986.569-1.785 1.953-1.785 3.092v44.82c0 1.138.8 1.6 1.785 1.03l48.353-27.891c.986-.569 1.785-1.953 1.785-3.092v-44.82c0-1.138-.799-1.599-1.785-1.03z"/><path style="fill:#fff" d="M334.517 90.254c0-.432.068-.802.199-1.108.131-.306.32-.651.566-1.037l10.543-17.043c.069-.093.127-.16.171-.201a.815.815 0 0 1 .119-.088c.158-.092.289-.086.394.015.106.101.159.274.159.518v6.573c0 .541-.102.997-.304 1.372a9.457 9.457 0 0 1-.54.9l-4.612 7.085 4.612 1.8c.158.045.338.131.54.257.202.127.304.461.304 1.002v6.573c0 .243-.053.477-.159.7-.105.223-.236.38-.394.471a.368.368 0 0 1-.29.045l-10.543-4.869a1.45 1.45 0 0 1-.566-.383c-.131-.152-.199-.446-.199-.879v-1.703zM357.5 61.363c.089-.347.22-.7.395-1.059a1.89 1.89 0 0 1 .765-.826l3.531-2.039c.158-.091.293-.081.408.028.113.11.171.286.171.529 0 .109-.018.24-.053.397l-8.909 37.969a4.855 4.855 0 0 1-.369 1.024 1.911 1.911 0 0 1-.79.863l-3.453 1.993c-.156.091-.293.081-.407-.029-.115-.111-.173-.287-.173-.53 0-.108.018-.24.055-.395l8.829-37.925zM376.871 67.506c0 .434-.066.804-.198 1.108a7.54 7.54 0 0 1-.568 1.038l-10.542 17.042a1.312 1.312 0 0 1-.171.201.827.827 0 0 1-.118.089c-.159.091-.29.086-.395-.016-.106-.101-.158-.274-.158-.517v-6.573c0-.541.1-.992.302-1.351s.383-.655.54-.881l4.612-7.126-4.612-1.759a1.944 1.944 0 0 1-.54-.276c-.202-.142-.302-.481-.302-1.023v-6.573c0-.243.052-.477.158-.7.105-.222.236-.38.395-.471a.444.444 0 0 1 .118-.049.431.431 0 0 1 .171.003l10.542 4.87c.246.101.435.228.568.382.131.154.198.448.198.88v1.702z"/><path style="opacity:.15" d="M307.685 129.351c-.284 0-.604.093-.944.287l-47.644 27.493c-1.172.677-2.128 2.331-2.128 3.684v75.329c0 .391.089.81.223 1.075.151.297.364.6.558.712.099.057.146.077.188.098a1.2 1.2 0 0 0 .454.098h.03c.209 0 .442-.07.675-.203l47.644-27.528c1.172-.677 2.128-2.323 2.128-3.684v-75.845c0-.091-.007-.182-.014-.265a.883.883 0 0 0-.035-.196c.007-.014 0-.028-.007-.042a.728.728 0 0 0-.049-.188.976.976 0 0 0-.125-.272.36.36 0 0 0-.07-.111c-.021-.028-.035-.056-.063-.077a.71.71 0 0 0-.139-.14l-.014-.014a1.116 1.116 0 0 0-.668-.211z"/><path style="fill:#455a64" d="M318.36 133.69c-.284 0-.603.093-.944.287l-47.644 27.493c-1.172.677-2.128 2.331-2.128 3.684v75.329c0 .391.089.81.223 1.075.151.297.364.6.558.712.099.057.147.077.188.098a1.2 1.2 0 0 0 .454.098l.03.001c.209 0 .442-.07.675-.203l47.644-27.528c1.172-.677 2.128-2.323 2.128-3.684v-75.845c0-.091-.007-.182-.014-.265a.883.883 0 0 0-.035-.196c.007-.014 0-.028-.007-.042a.728.728 0 0 0-.049-.188.948.948 0 0 0-.125-.272.36.36 0 0 0-.07-.111c-.021-.028-.035-.056-.063-.077a.71.71 0 0 0-.139-.14l-.014-.014a.968.968 0 0 0-.181-.105 1.08 1.08 0 0 0-.487-.107z"/><path style="fill:#37474f" d="M318.846 133.791c-.386-.179-.876-.132-1.433.189l-47.637 27.485c-.575.339-1.112.914-1.489 1.574h-.009l-5.448-3.11c.377-.65.905-1.225 1.48-1.546l47.647-27.495c.612-.358 1.15-.368 1.546-.132.385.236 4.89 2.799 5.343 3.035z"/><path style="fill:#fafafa" d="M307.478 142.655c-.663.383-1.201 1.521-1.201 2.543 0 1.021.538 1.538 1.201 1.156.663-.383 1.201-1.521 1.201-2.543 0-1.022-.537-1.539-1.201-1.156zM311.802 140.154c-.663.383-1.201 1.521-1.201 2.543 0 1.021.538 1.539 1.201 1.156s1.201-1.521 1.201-2.543-.537-1.539-1.201-1.156zM316.126 137.652c-.663.383-1.201 1.521-1.201 2.543 0 1.021.538 1.539 1.201 1.156s1.201-1.521 1.201-2.543-.537-1.538-1.201-1.156z"/><path style="fill:#263238" d="M267.868 241.557c-.143-.293-.203-.656-.224-1.075v-68.378l.004.002v-6.952c0-.689.241-1.444.635-2.113l-5.452-3.112c-.394.675-.647 1.437-.647 2.126l-.001 6.911.003.002v68.376c0 .412.091.802.244 1.123.077.167.313.528.649.726.04.024 4.886 2.803 5.082 2.921.098.056.189.105.265.154-.021-.013-.325-.232-.558-.711z"/><path style="fill:#ba68c8" d="m311.402 204.396-35.616 20.563c-1.561.901-2.827-.055-2.827-2.137v-45.663c0-2.082 1.266-4.5 2.827-5.401l35.616-20.563c1.561-.901 2.827.055 2.827 2.137v45.663c0 2.082-1.265 4.5-2.827 5.401z"/><path style="fill:#fafafa" d="m277.388 213.958 32.414-18.715-8.103-11.888-4.053 10.812-9.039-19.733zM305.751 169.098c0 2.52-1.532 5.447-3.422 6.538-1.89 1.091-3.422-.067-3.422-2.587s1.532-5.447 3.422-6.538c1.89-1.091 3.422.067 3.422 2.587z"/><path style="opacity:.15" d="M307.685 240.379c-.284 0-.604.093-.944.287l-47.644 27.493c-1.172.677-2.128 2.331-2.128 3.684v75.329c0 .391.089.81.223 1.075.151.297.364.6.558.712.099.057.146.077.188.098a1.2 1.2 0 0 0 .454.098h.03c.209 0 .442-.07.675-.203l47.644-27.528c1.172-.677 2.128-2.323 2.128-3.684v-75.845a3.19 3.19 0 0 0-.014-.265.883.883 0 0 0-.035-.196c.007-.014 0-.028-.007-.042a.728.728 0 0 0-.049-.188.976.976 0 0 0-.125-.272.376.376 0 0 0-.07-.112c-.021-.028-.035-.056-.063-.077a.683.683 0 0 0-.139-.14l-.014-.014a1.13 1.13 0 0 0-.668-.21z"/><path style="fill:#455a64" d="M318.36 244.718c-.284 0-.603.093-.944.286l-47.644 27.493c-1.172.677-2.128 2.331-2.128 3.684v75.329c0 .391.089.81.223 1.075.151.297.364.6.558.712.099.057.147.077.188.098a1.2 1.2 0 0 0 .454.098l.03.001c.209 0 .442-.07.675-.203l47.644-27.528c1.172-.677 2.128-2.323 2.128-3.684v-75.845a3.19 3.19 0 0 0-.014-.265.883.883 0 0 0-.035-.196c.007-.014 0-.028-.007-.042a.728.728 0 0 0-.049-.188.948.948 0 0 0-.125-.272.376.376 0 0 0-.07-.112c-.021-.028-.035-.056-.063-.077a.683.683 0 0 0-.139-.14l-.014-.014a1.12 1.12 0 0 0-.668-.21z"/><path style="fill:#37474f" d="M318.846 244.819c-.386-.179-.876-.132-1.433.189l-47.637 27.485c-.575.339-1.112.914-1.489 1.574h-.009l-5.448-3.111c.377-.65.905-1.225 1.48-1.546l47.647-27.495c.612-.358 1.15-.368 1.546-.132.385.237 4.89 2.801 5.343 3.036z"/><path style="fill:#fafafa" d="M307.478 253.683c-.663.383-1.201 1.521-1.201 2.543 0 1.021.538 1.538 1.201 1.156.663-.383 1.201-1.521 1.201-2.542 0-1.023-.537-1.54-1.201-1.157zM311.802 251.182c-.663.383-1.201 1.521-1.201 2.543 0 1.021.538 1.539 1.201 1.156s1.201-1.521 1.201-2.542-.537-1.54-1.201-1.157zM316.126 248.68c-.663.383-1.201 1.521-1.201 2.543s.538 1.539 1.201 1.156 1.201-1.521 1.201-2.543-.537-1.538-1.201-1.156z"/><path style="fill:#263238" d="M267.868 352.585c-.143-.292-.203-.656-.224-1.075v-68.378l.004.002v-6.952c0-.689.241-1.444.635-2.113l-5.452-3.112c-.394.675-.647 1.438-.647 2.126l-.001 6.911.003.002v68.376c0 .412.091.802.244 1.124.077.167.313.528.649.726.04.024 4.886 2.803 5.082 2.921.098.056.189.105.265.154-.021-.014-.325-.233-.558-.712z"/><path style="fill:#ba68c8" d="m311.402 315.424-35.616 20.563c-1.561.901-2.827-.055-2.827-2.137v-45.663c0-2.081 1.266-4.5 2.827-5.401l35.616-20.563c1.561-.901 2.827.055 2.827 2.137v45.663c0 2.082-1.265 4.5-2.827 5.401z"/><path style="fill:#fafafa" d="M309.228 297.459v-7.227c0-3.873-1.13-7.252-5.775-4.57-1.915 1.105-3.736 2.835-4.991 4.598l.628 1.952c1.067-1.494 2.542-2.905 3.955-3.72 3.107-1.794 3.453.882 3.453 2.478v.4c-5.87 3.348-9.134 7.788-9.134 12.46 0 2.794 1.57 4.643 4.646 2.867 2.166-1.25 3.798-3.55 4.645-5.556l.094-.054.22 2.308 2.511-1.45c-.189-1.21-.252-2.81-.252-4.486zm-2.668-.337c0 .359-.063.795-.157 1.209-.439 1.89-1.695 4.213-3.672 5.355-1.413.816-2.605.425-2.605-1.85 0-3.752 3.421-6.406 6.435-8.066v3.352zm-21.662-7.895-7.188 31.059 2.825-1.631 2.197-9.732 7.502-4.331 2.26 7.159 2.919-1.685-7.219-22.741-3.296 1.902zm-1.6 16.654 2.072-8.981c.408-1.872.753-3.709 1.067-5.487l.062-.036c.314 1.376.628 2.792 1.099 4.276l2.071 6.549-6.371 3.679z"/><path style="opacity:.15" d="M203.783 337.902c-.284 0-.604.093-.944.287l-47.644 27.493c-1.172.677-2.128 2.331-2.128 3.684v75.329c0 .391.089.81.223 1.075.151.297.364.6.558.712.099.057.146.077.188.098a1.2 1.2 0 0 0 .454.098h.03c.209 0 .442-.07.675-.203l47.644-27.529c1.172-.677 2.128-2.323 2.128-3.684v-75.845a3.19 3.19 0 0 0-.014-.265.864.864 0 0 0-.035-.195c.007-.014 0-.028-.007-.042a.728.728 0 0 0-.049-.188.95.95 0 0 0-.126-.272.376.376 0 0 0-.07-.112c-.021-.028-.035-.056-.063-.077a.683.683 0 0 0-.139-.14l-.014-.014a1.12 1.12 0 0 0-.667-.21z"/><path style="fill:#455a64" d="M214.459 342.24c-.285 0-.604.093-.944.287l-47.644 27.493c-1.172.677-2.128 2.331-2.128 3.684v75.329c0 .391.089.81.223 1.075.151.297.364.6.558.712.099.057.146.077.188.098a1.2 1.2 0 0 0 .454.098l.03.001c.209 0 .442-.07.675-.203l47.644-27.529c1.172-.677 2.128-2.323 2.128-3.684v-75.845c0-.091-.007-.182-.014-.265a.883.883 0 0 0-.035-.196c.007-.014 0-.028-.007-.042a.728.728 0 0 0-.049-.188.95.95 0 0 0-.126-.272.376.376 0 0 0-.07-.112c-.021-.028-.035-.056-.063-.077a.678.678 0 0 0-.139-.139l-.014-.014a1.12 1.12 0 0 0-.667-.211z"/><path style="fill:#37474f" d="M214.944 342.342c-.386-.179-.876-.132-1.433.189l-47.637 27.485c-.575.339-1.112.914-1.489 1.574h-.01l-5.448-3.11c.377-.65.905-1.225 1.48-1.546l47.647-27.495c.613-.358 1.15-.368 1.546-.132.386.236 4.892 2.799 5.344 3.035z"/><path style="fill:#fafafa" d="M203.577 351.206c-.663.383-1.201 1.521-1.201 2.543 0 1.021.538 1.538 1.201 1.156.663-.383 1.201-1.522 1.201-2.543 0-1.022-.538-1.54-1.201-1.156zM207.901 348.704c-.663.383-1.201 1.521-1.201 2.543 0 1.021.538 1.539 1.201 1.156s1.201-1.521 1.201-2.542c0-1.022-.538-1.54-1.201-1.157zM212.225 346.203c-.663.383-1.201 1.521-1.201 2.543s.538 1.539 1.201 1.156 1.201-1.522 1.201-2.543c0-1.021-.538-1.539-1.201-1.156z"/><path style="fill:#263238" d="M163.967 450.108c-.143-.293-.202-.656-.224-1.075v-68.378l.004.002v-6.952c0-.689.241-1.444.635-2.113l-5.451-3.112c-.395.676-.647 1.437-.647 2.126l-.001 6.911.003.002v68.376c0 .412.091.802.244 1.123.077.168.313.528.649.726.04.024 4.886 2.803 5.082 2.922.098.056.189.105.265.154-.022-.015-.327-.233-.559-.712z"/><path style="fill:#ba68c8" d="m207.501 412.947-35.616 20.563c-1.561.901-2.827-.056-2.827-2.137V385.71c0-2.081 1.266-4.5 2.827-5.401l35.616-20.563c1.561-.901 2.827.055 2.827 2.137v45.663c0 2.082-1.266 4.5-2.827 5.401z"/><path style="fill:#fff" d="M184.432 385.244a.291.291 0 0 0 .06-.009c.008-.004.017-.004.025-.004.004 0 .004-.004.009-.004.004-.004.013-.004.017-.004s.009-.004.009-.004c.026-.008.047-.021.068-.034l10.143-5.856a.924.924 0 0 0 .419-.727v-4.467c0-.021 0-.047-.004-.068 0-.004 0-.009-.004-.013-.034-.21-.205-.278-.41-.163l-10.143 5.86a.81.81 0 0 0-.295.312.83.83 0 0 0-.124.41v4.471c-.001.188.093.3.23.3zm.111.826h-.009c-.004.004-.008.004-.008.004.004-.004.013-.004.017-.004zm4.911 29.405v-18.811c-.633.216-1.114-.241-1.114-1.128 0-.996.605-2.153 1.352-2.584.745-.431 1.35.027 1.35 1.021 0 .888-.481 1.902-1.114 2.416V415.2l6.923-22.517c.078-.255-.005-.62-.175-.825-1.662-1.998-2.888-4.971-3.318-8.979-.028-.265-.234-.372-.465-.239l-6.403 3.698a1.044 1.044 0 0 0-.46.722c-.436 4.633-1.715 9.146-3.446 13.152-.106.245-.101.637.014.878l6.856 14.385zm13.023-6.34a.95.95 0 0 0-.95.95c0 .092.017.179.042.264l-8.922 5.151c5.449-4.589 9.581-12.436 9.926-19.261a.95.95 0 1 0-.353.002c-.404 7.865-5.906 17.109-12.615 20.983-3.343 1.93-6.477 2.247-8.824.892-2.156-1.245-3.418-3.775-3.61-7.171a.949.949 0 1 0-1.175-.92c0 .479.356.871.817.936.198 3.523 1.524 6.154 3.79 7.462 1.014.585 2.163.876 3.405.876.915 0 1.882-.161 2.882-.474l-9.253 5.342a.945.945 0 0 0-.127-.126c-.011-.012-.024-.019-.035-.029a.94.94 0 0 0-.565-.19.95.95 0 1 0 .95.95c0-.103-.021-.2-.051-.293l23.923-13.812a.923.923 0 0 0 .184.18c.01.008.018.017.028.023a.95.95 0 1 0 .533-1.735z"/><path style="fill:#ba68c8" d="m68.693 143.008-4.211-7.918 3.388-9.78v-5.987l-10.369 5.987v5.987l4.458 7.721c.075.13.183.215.303.269l-.002.004 6.433 3.717z"/><path style="opacity:.2" d="m68.693 143.008-4.211-7.918 3.388-9.78v-5.987l-10.369 5.987v5.987l4.458 7.721c.075.13.183.215.303.269l-.002.004 6.433 3.717z"/><path style="fill:#ba68c8" d="M145.747 42.027c0-1.982-1.391-4.393-3.109-5.385l-2.531-1.461c-1.716-.991-4.5-.991-6.217 0L40.468 89.445c-1.717.991-3.109 3.402-3.109 5.385v41.938c0 1.983 1.392 4.393 3.109 5.385l2.531 1.462c1.717.991 4.501.991 6.218 0l14.795-8.547 4.449 7.706a.664.664 0 0 0 1.202-.114l4.702-13.572 68.275-39.737c1.717-.991 3.108-3.401 3.108-5.384l-.001-41.94z"/><path style="opacity:.2" d="M37.359 136.768c0 1.983 1.392 4.393 3.109 5.384l2.531 1.462c1.552.896 3.967.974 5.686.25-1.463.553-2.577-.272-2.577-2.045V99.88c0-.991.348-2.089.91-3.064l-8.748-5.051c-.563.974-.91 2.072-.91 3.064v41.939z"/><path style="opacity:.3;fill:#fff" d="M145.646 41.143c-.363-1.32-1.566-1.741-3.002-.914l-93.429 54.27c-.855.493-1.639 1.334-2.19 2.32l-8.745-5.047c.566-.986 1.335-1.828 2.19-2.321l93.415-54.27c1.726-.986 4.51-.986 6.222 0l2.538 1.465c1.464.843 2.696 2.728 3.001 4.497z"/><path style="fill:#fff" d="M70.52 93.618c.213-.123.397-.126.553-.009.155.119.234.319.234.604v15.931c0 1.606-.175 3.158-.525 4.655a17.893 17.893 0 0 1-1.573 4.25 16.414 16.414 0 0 1-2.623 3.671 15.916 15.916 0 0 1-3.642 2.861c-1.399.807-2.618 1.259-3.657 1.353-1.04.095-1.909-.122-2.609-.65-.7-.529-1.219-1.342-1.559-2.442-.34-1.098-.511-2.45-.511-4.057v-15.931c0-.285.077-.575.233-.873.156-.297.341-.507.554-.631l2.361-1.363c.213-.123.397-.125.552-.008.156.118.234.319.234.604v15.737c0 1.063.107 1.908.32 2.535.213.629.515 1.069.904 1.324.389.255.855.336 1.398.241.544-.094 1.137-.326 1.778-.696a9.005 9.005 0 0 0 1.792-1.365 7.941 7.941 0 0 0 1.414-1.865 9.914 9.914 0 0 0 .917-2.375c.224-.88.336-1.851.336-2.913V96.467c0-.285.077-.575.233-.873.156-.297.339-.507.554-.631l2.332-1.345zM76.494 117.368c-.214.124-.398.127-.554.009-.156-.117-.233-.319-.233-.604V91.672c0-.285.077-.575.233-.873.156-.297.34-.507.554-.631l2.36-1.363c.213-.123.398-.126.553-.009.156.118.234.319.234.604v25.101c0 .285-.078.576-.234.873-.155.298-.34.507-.553.631l-2.36 1.363zM92.463 78.773a5.25 5.25 0 0 1 .437-1.05c.194-.358.476-.644.845-.857l2.157-1.245c.175-.101.325-.102.451-.008.126.097.19.26.19.493 0 .103-.02.232-.058.383l-9.85 37.121a4.778 4.778 0 0 1-.408 1.012c-.194.371-.487.67-.875.894l-2.069 1.195c-.175.101-.326.104-.452.008s-.189-.26-.189-.493c0-.104.019-.231.058-.383l9.763-37.07zM115.281 67.775c.213-.123.398-.126.554-.009.155.119.233.319.233.604V84.3c0 1.606-.175 3.158-.525 4.655a17.893 17.893 0 0 1-1.573 4.25 16.442 16.442 0 0 1-2.622 3.671 15.934 15.934 0 0 1-3.644 2.861c-1.397.807-2.618 1.259-3.656 1.353-1.041.095-1.909-.122-2.609-.65-.7-.529-1.22-1.342-1.559-2.442-.341-1.098-.511-2.45-.511-4.057v-15.93c0-.285.077-.575.233-.873.156-.297.34-.507.553-.631l2.361-1.363c.213-.123.397-.125.553-.008.156.118.233.319.233.604v15.737c0 1.063.107 1.908.32 2.535.214.629.516 1.069.904 1.324.389.255.856.336 1.4.241.544-.094 1.137-.326 1.777-.696a9.04 9.04 0 0 0 1.793-1.365 7.97 7.97 0 0 0 1.413-1.866 9.915 9.915 0 0 0 .918-2.375c.224-.88.335-1.851.335-2.914V70.624c0-.285.078-.575.233-.873.156-.297.34-.507.554-.631l2.332-1.345zM133.669 84.358c-.389.225-.67.258-.844.099a5.985 5.985 0 0 1-.38-.363l-4.633-5.912-4.604 11.246c-.078.175-.204.442-.378.801a2.046 2.046 0 0 1-.845.877l-2.448 1.413c-.214.124-.398.127-.553.009-.156-.117-.234-.319-.234-.604 0-.129.029-.289.087-.478l6.674-16.249-6.381-8.166a.86.86 0 0 1-.088-.376c0-.285.077-.575.233-.873.156-.297.341-.507.554-.631l2.449-1.414c.388-.224.67-.257.844-.099.175.158.3.28.38.363l4.401 5.658 4.37-10.723c.078-.174.204-.441.38-.801.175-.36.456-.652.844-.877l2.448-1.413c.214-.124.398-.126.554-.009.156.118.233.319.233.604 0 .13-.029.289-.087.478l-6.441 15.725 6.615 8.421a.867.867 0 0 1 .087.377c0 .285-.077.576-.233.873-.155.297-.34.507-.553.63l-2.451 1.414z"/><path style="fill:#ba68c8" d="M353.149 246.148c1.432.827 3.411.708 5.597-.555 4.371-2.524 7.915-8.662 7.915-13.709 0-2.524-.886-4.297-2.318-5.124l-5.047-2.914c-1.432-.827-3.411-.707-5.597.555-4.371 2.524-7.915 8.662-7.915 13.71 0 2.524.886 4.297 2.318 5.124l5.047 2.913z"/><path style="opacity:.3" d="M353.149 246.148c1.432.827 3.411.708 5.597-.555 4.371-2.524 7.915-8.662 7.915-13.709 0-2.524-.886-4.297-2.318-5.124l-5.047-2.914c-1.432-.827-3.411-.707-5.597.555-4.371 2.524-7.915 8.662-7.915 13.71 0 2.524.886 4.297 2.318 5.124l5.047 2.913z"/><path style="fill:#ba68c8" d="M366.661 231.884c0-2.524-.886-4.297-2.318-5.124s-3.411-.707-5.597.555c-4.371 2.524-7.915 8.662-7.915 13.709 0 2.524.886 4.297 2.318 5.124s3.411.707 5.597-.555c4.371-2.524 7.915-8.662 7.915-13.709z"/><path style="fill:#e0e0e0" d="M353.149 276.353c1.432.827 3.411.708 5.597-.555 4.371-2.524 7.915-8.662 7.915-13.709 0-2.524-.886-4.297-2.318-5.124l-5.047-2.914c-1.432-.827-3.411-.707-5.597.555-4.371 2.524-7.915 8.662-7.915 13.71 0 2.524.886 4.297 2.318 5.124l5.047 2.913z"/><path style="fill:#f5f5f5" d="M366.661 262.089c0-2.524-.886-4.297-2.318-5.124s-3.411-.707-5.597.555c-4.371 2.524-7.915 8.662-7.915 13.709 0 2.524.886 4.297 2.318 5.124s3.411.707 5.597-.555c4.371-2.524 7.915-8.662 7.915-13.709z"/><path style="fill:#263238" d="M353.149 306.558c1.432.827 3.411.708 5.597-.555 4.371-2.524 7.915-8.662 7.915-13.709 0-2.524-.886-4.297-2.318-5.124l-5.047-2.914c-1.432-.827-3.411-.707-5.597.555-4.371 2.524-7.915 8.662-7.915 13.71 0 2.524.886 4.297 2.318 5.124l5.047 2.913z"/><path style="fill:#455a64" d="M366.661 292.294c0-2.524-.886-4.297-2.318-5.124s-3.411-.707-5.597.555c-4.371 2.524-7.915 8.662-7.915 13.709 0 2.524.886 4.297 2.318 5.124s3.411.707 5.597-.555c4.371-2.524 7.915-8.662 7.915-13.709z"/><path style="fill:#ba68c8" d="M353.149 215.943c1.432.827 3.411.708 5.597-.555 4.371-2.524 7.915-8.662 7.915-13.709 0-2.524-.886-4.297-2.318-5.124l-5.047-2.914c-1.432-.827-3.411-.707-5.597.555-4.371 2.524-7.915 8.662-7.915 13.71 0 2.524.886 4.297 2.318 5.124l5.047 2.913z"/><path style="fill:#ba68c8" d="M366.661 201.679c0-2.524-.886-4.297-2.318-5.124s-3.411-.707-5.597.555c-4.371 2.524-7.915 8.662-7.915 13.709 0 2.524.886 4.297 2.318 5.124s3.411.707 5.597-.555c4.371-2.524 7.915-8.662 7.915-13.709z"/><path style="opacity:.3;fill:#fff" d="M366.661 201.679c0-2.524-.886-4.297-2.318-5.124s-3.411-.707-5.597.555c-4.371 2.524-7.915 8.662-7.915 13.709 0 2.524.886 4.297 2.318 5.124s3.411.707 5.597-.555c4.371-2.524 7.915-8.662 7.915-13.709z"/><path style="fill:#ffa8a7" d="M459.191 232.406c-.381 4.08.112 7.671-.198 9.695-.311 2.024-.389 3.131-.806 4.737-.417 1.606-1.736 3.351-1.736 3.351s-.855 2.461-1.803 3.954c-.944 1.487-3.2 3.391-3.205 3.403-.815 1.924-.803 2.123-1.154 2.946-.113.266-.241.6-.487.752-.211.13-.527.05-.724-.099-.546-.412-.599-.978-.651-1.257-.234-1.255.27-2.447.608-3.678.462-1.677.952-3.29 1.136-5.025-.028.264-.269.642-.383.876-.215.441-.321.915-.521 1.369l-2.84 6.47c-.088.199-.185.41-.369.526-.216.136-.509.101-.725-.036-.215-.137-.362-.36-.466-.593-.391-.881-.229-1.9-.019-2.84a34.224 34.224 0 0 1 1.024-3.635c.426-1.246.844-2.595 1.078-3.898.299-1.663.764-3.535.557-5.234-.161-1.322-1.548.375-1.831.769-.477.664-.896 1.376-1.484 1.951-.732.717-1.737 1.21-2.758 1.128-.156-.013-.317-.04-.449-.124-.28-.179-.356-.57-.275-.893.081-.323.284-.599.463-.879.044-.068.086-.138.128-.207 1.635-2.753 1.931-5.794 3.373-8.254.453-.772 1.284-2.396 1.813-3.543.466-1.011 1.34-2.064 1.616-4.255s-.356-25.525-.356-25.525l-8.163-22.671c-2.01-9.077-.893-16.67 1.763-20.354 6.508-.685 9.29 2.607 11.797 8.77 1.143 2.81 2.195 4.901 4.727 12.74 2.605 8.065 2.987 9.209 4.437 16.042.764 3.598-.008 6.676-.942 15.021-.814 7.272-1.794 14.421-2.175 18.5z"/><path style="fill:#f28f8f" d="M453.069 237.715c.122-.399.219-.806.295-1.216.065-.354.16-.706-.007-1.049-.194.195-.193.394-.252.667a9.744 9.744 0 0 1-.32 1.125 11.655 11.655 0 0 1-.913 1.946 5.337 5.337 0 0 1-.988 1.251c-.541.502-1.225.838-1.728 1.377-.066.071-.132.152-.14.248.156.084.348.028.513-.037 1.135-.447 2.031-1.189 2.642-2.229a9.824 9.824 0 0 0 .898-2.083zm-.228 8.495c-.199 2.456-.88 4.925-1.908 7.165-.416.907-1.123 1.867-1.114 2.904.005.597.32 1.473 1 1.557.107.013.098-.202.04-.246-1.139-.861-.609-1.996-.064-3.07.424-.835.8-1.694 1.111-2.578.65-1.843.95-3.773 1.049-5.72.006-.109-.105-.124-.114-.012zm3.373 4.081a57.109 57.109 0 0 0-1.416 1.408c-.175.198-.373.389-.623.476-.573.202-.925-.254-.952-.777-.02-.407.054-.891.245-1.25.206-.386.448-.751.657-1.135 1.031-1.894 1.856-4.212 1.709-6.396-.003-.039-.041-.019-.047.007-.314 1.415-.536 2.835-1.047 4.2a16.086 16.086 0 0 1-1.065 2.3c-.319.563-.674 1.076-.733 1.74a2.03 2.03 0 0 0 .248 1.214.98.98 0 0 0 .423.38c.569.282 1.102-.356 1.456-.722.398-.412.745-.892 1.112-1.333.028-.032.056-.076.033-.112z"/><path style="fill:#ba68c8" d="M439.954 159.143c8.694-.839 12.284 2.633 15.577 13.697 3.046 10.234 5.021 16.938 5.021 16.938s-2.639 3.5-7.101 5.578c-5.851 2.725-8.53 2.446-8.53 2.446s-4.845-12.541-5.756-16.018c-.911-3.476-3.938-18.651.789-22.641z"/><path style="fill:#263238" d="M408.379 357.092c-.635-.076-.677 1.478-.297 2.23 1.093 2.163 4.199 4.528 8.793 5.637 4.594 1.109 13.648.069 16.387.018 2.739-.051 7.432 1.43 10.15 1.923 4.949.898 8.377-.412 10.034-1.975.649-.613.729-1.535.725-2.331-.01-1.888-.168-2.273-.379-2.262l-45.413-3.24z"/><path style="fill:#37474f" d="M453.36 354.819c.365 1.853.606 4.938.304 6.816-.602 1.394-2.155 2.163-3.393 2.525-3.267.954-6.446.695-10.005-.136-2.133-.499-4.457-1.034-7.031-.944-2.828.1-9.071.611-11.907.593-2.408-.016-5.485-.565-7.682-1.637-1.855-.906-4.655-2.888-5.258-4.349-.548-3.405-.162-5.419 1.816-6.53 2.089-1.174 5.046-1.356 9.132-1.585 1.224-.068 2.766-.109 3.42-.168 2.475-.224 4.787-.363 6.663-.445 1.606-.07 3.18-.157 4.636-.918.694-.363 1.216-.738 1.55-1.444.407-.861-.107-2.127.653-2.185.001 0 14.454 2.647 15.582 2.785 1.304.158.415 2.007 1.52 7.622z"/><path style="fill:#fafafa" d="M421.68 349.254c-.412.262-.837.821-1.054 1.202a6.929 6.929 0 0 0-.673 1.609c-.199.71.677.868 1.036.057.246-.555.498-1.185 1.04-1.92.259-.351.824-.806 1.23-.842l.708-.059c-.18-.534-1.739-.395-2.287-.047zM427.999 348.642c-.498-.065-.909.06-1.323.374-.488.371-.796.899-1.018 1.456-.18.451-.54 1.612-.603 2.097-.06.458 1.019.463 1.146-.034.125-.49.379-1.398.588-1.911.129-.315.711-1.507 1.457-1.613l.336-.013c.006-.159-.205-.273-.353-.311a1.832 1.832 0 0 0-.23-.045zM431.698 348.606c-.362.119-.587.156-.828.458-.227.283-.491.743-.599 1.095-.297.972-.332 1.418-.371 2.252-.027.59 1.05.455 1.094.061.139-1.242.156-2.055.764-2.952.502-.739.946-.955.946-.955-.027-.106-.186-.122-.29-.107a6.106 6.106 0 0 0-.716.148z"/><path style="fill:#ffa8a7" d="M451.771 331.283s-.037 12.912-.072 15.897c-.011.953-1.763 1.494-2.647 1.977-.884.483-2.279 1.25-2.998 2.107-2.128 2.537-3.841 3.241-5.619-.701-.364-.807-.933-1.119-1.983-.826-.786.22-1.566.648-2.385.559-.131-.07-.074-.267-.002-.397.563-.99.84-1.61.556-3.291-.879-5.199-1.577-10.432-2.349-15.65l17.499.325z"/><path style="fill:#263238" d="M374.592 373.349c-.637-.063-.648 1.49-.253 2.236 1.135 2.142 4.286 4.446 8.901 5.465 4.615 1.019 13.647-.196 16.384-.301 2.738-.104 7.459 1.285 10.185 1.725 4.966.801 8.367-.575 9.993-2.17.637-.625.699-1.549.679-2.345-.047-1.888-.213-2.269-.423-2.254l-45.466-2.356z"/><path style="fill:#37474f" d="M419.521 370.201c.401 1.846.702 4.926.436 6.809-.574 1.405-2.112 2.205-3.343 2.59-3.248 1.017-6.432.821-10.005.058-2.142-.457-4.476-.947-7.048-.807-2.826.155-9.057.788-11.893.824-2.408.031-5.495-.458-7.712-1.487-1.873-.869-4.71-2.796-5.341-4.246-.614-3.394-.267-5.414 1.689-6.564 2.066-1.215 5.019-1.454 9.1-1.762 1.222-.092 2.763-.162 3.416-.234 2.471-.272 4.779-.456 6.653-.575 1.605-.102 3.176-.219 4.617-1.008.687-.376 1.201-.761 1.521-1.474.391-.869.381-2.135 1.14-2.207 0 0 13.973 2.376 15.104 2.491 1.305.134.452 1.999 1.666 7.592z"/><path style="fill:#fafafa" d="M387.738 365.254c-.407.27-.821.837-1.03 1.222a6.942 6.942 0 0 0-.642 1.622c-.185.713.693.855 1.037.037.235-.56.475-1.194 1.002-1.94.252-.356.808-.822 1.214-.866l.707-.073c-.19-.53-1.746-.361-2.288-.002zM394.045 364.519c-.499-.055-.908.078-1.315.4-.481.38-.778.915-.99 1.475-.171.455-.508 1.623-.562 2.109-.051.459 1.027.443 1.145-.056.116-.493.352-1.406.551-1.922.122-.317.681-1.52 1.425-1.641l.336-.02c.003-.159-.21-.269-.359-.305a1.861 1.861 0 0 0-.231-.04zM397.743 364.41c-.36.126-.584.168-.819.474-.221.288-.477.753-.577 1.106-.279.977-.305 1.425-.327 2.259-.016.59 1.059.435 1.096.04.115-1.244.116-2.058.707-2.967.487-.749.927-.973.927-.973-.029-.105-.188-.119-.292-.101a6.431 6.431 0 0 0-.715.162z"/><path style="fill:#ffa8a7" d="M419.267 347.556s-1.207 12.856-1.512 15.825c-.098.948-1.891 1.328-2.815 1.73-.924.401-2.383 1.038-3.177 1.827-2.349 2.334-4.119 2.88-5.533-1.207-.289-.837-.828-1.199-1.9-1.002-.803.147-1.618.504-2.426.341-.124-.081-.049-.273.034-.395.651-.935.983-1.527.852-3.227-.404-5.257-.625-10.532-.922-15.798l17.399 1.906z"/><path style="fill:#455a64" d="M452.495 295.929c-.343-3.456-1.664-7.912-2.561-10.831 0 0 1.554-22.527 2.228-39.544.55-13.88-1.771-25.594-1.771-25.594l-52.649.753s-.355 29.491-.241 47.493c.11 17.358.361 22.105 1.138 33.124.413 5.864 1.211 16.852 1.694 26.575.523 10.536 1.784 25.643 1.784 25.643s3.741 1.981 7.303 2.03c7.158.098 8.422-.94 9.448-1.672 0 0 .931-7.736 2.923-22.259 1.303-9.497 1.899-16.498 1.884-21.113-.015-3.473.261-6.072-.358-10.143l1.88-20.699c.433 2.92.909 5.841 1.507 9.436.964 5.799 2.795 16.662 4.193 26.297 1.515 10.44 4.195 25.36 4.195 25.36s4.784 1.54 8.335 1.252c7.135-.578 7.961-2.279 8.913-3.105 0 0 .325-7.356.939-22.002.401-9.577-.334-16.408-.784-21.001z"/><path style="opacity:.2" d="M431.469 254.564c11.296-4.053 12.344-9.985 12.344-9.985-7.963 6.627-14.586 7.135-14.586 7.135l-4.031 27.979 2.826 17.381-.559-17.416 4.006-25.094z"/><path style="fill:#37474f" d="M444.969 160.204c4.448 2.176 7.874 8.884 7.266 17.945-.563 8.385-1.084 13.581-2.181 22.427-.38 3.07-.572 6.742-.234 12.843.394 7.112 1.568 14.804 1.568 14.804s-5.818 9.15-21.68 10.554c-19.162 1.696-32.229-3.148-32.229-3.148s-.381-26.295-.381-32.503c0-15.671-.263-21.475 1.387-26.554 1.214-2.806 7.165-15.418 10.443-14.458 4.031 1.181 8.901-.1 12.895-.602 14.36-1.802 18.494-3.584 23.146-1.308z"/><path style="fill:#ffa8a7" d="m416.901 155.625.362 6.922c4.313.737 14.206.951 16.525-.765l-.308-7.529-16.579 1.372z"/><path style="fill:#f28f8f" d="M409.39 133.386s-1.883 2.438-4.442 7.093l2.779 1.781 1.663-8.874z"/><path style="fill:#ffa8a7" d="M418.178 119.973c-5.373-.339-7.688 4.837-9.741 16.375-1.998 11.225-1.088 15.698.178 17.424 3.085 2.264 6.436 3.011 11.216 2.391 3.643-.472 12.919-1.995 17.431-7.141 5.306-6.054 7.851-15.987 3.699-20.354-5.843-6.146-19.937-8.515-22.783-8.695z"/><path style="fill:#b16668" d="M411.099 146.26c-.063.013-.129.021-.181.063-.038.03-.069.074-.104.109a2.816 2.816 0 0 1-.821.565c-.386.183-.791.242-1.208.306a.082.082 0 0 0-.069.055c-.014.038-.031.079-.008.118.053.088.205.09.3.097.111.008.228-.006.339-.02a2.83 2.83 0 0 0 1.344-.523 2.966 2.966 0 0 0 .397-.342c.077-.082.082-.153.103-.263.006-.045-.016-.18-.092-.165z"/><path style="fill:#f28f8f" d="M408.615 153.773c.701.955 5.389 3.115 8.355 3.173l-.086-2.321c0-.001-4.164.239-8.269-.852z"/><path style="fill:#263238" d="M416.747 127.928s-.312 1.443.33 2.667c.642 1.224 1.475 2.048 2.643 2.545a10.648 10.648 0 0 0-1.822 4.535c-.077.511-.112 1.056.112 1.522.394.821 1.245.858 1.73.208.582-.78 1.028-1.613 1.78-2.257.87-.745 1.986-1.251 3.132-1.215 4.331.138 3.406 6.925 1.375 8.998-3.325 3.392-5.292.676-5.292.676s-2.246 5.61 1.525 8.664c0 0 6.384 2.431 11.236.687 3.506-4.129 7.499-7.641 9.823-11.162 5.506-8.343 4.702-15.742.841-17.862-.032-3.696-3.036-6.393-6.079-7.99-4.145-2.176-8.579-1.329-13.037-1.952a14.995 14.995 0 0 1-6.376-2.474c-.844-.579-1.88-1.276-2.796-.821-.363.18-.623.517-.823.868a4.73 4.73 0 0 0-.229 4.154c-1.056-1.007-3.181-.903-4.493-.119-1.886 1.127-2.377 2.697-2.091 5.024.177 1.446 2.328 6.242 8.511 5.304z"/><path style="fill:#263238" d="m443.802 126.806 4.401-1.822a2.382 2.382 0 0 0-4.401 1.822z"/><path style="fill:#f28f8f" d="M364.099 113.609c-.57-3.418-1.025-4.965-1.706-6.126-.681-1.161-2.65-5.671-3.606-7.19-.607-.964-2.146-.006-1.968 1.84.137 1.422 1.325 4.252 1.747 5.596.423 1.344.133 5.15.133 5.15l5.4.73z"/><path style="fill:#ffa8a7" d="M405.754 162.071c-.104-.06-27.502-14.437-27.606-14.498 0 0-12.081-16.937-12.987-18.941-.906-2.004-.408-9.57-.504-11.912-.131-3.188-1.159-3.764-2.125-4.447-3.162-2.238-3.991-2.587-4.933-2.777-.942-.19-1.57.56-1.57.56-.822-.613-1.898-1.69-3.197-.62-.857.706-.971.924-.971.924s-.289-.227-.74-.184c-1.29.121-2.592 3.575-2.5 4.811.065.867.681 1.559 1.669 2.279.84.612 1.221-.476 1.221-.476l.981 1.06c.716 3.753-2.207 7.026.095 10.575.486.749 1.793 1.969 2.953 4.187 4.446 10.824 10.982 23.851 12.738 26.723 1.218 1.993 3.148 3.359 9.932 8.245l15.326 11.039 12.218-16.548z"/><path style="fill:#f28f8f" d="m356.03 109.751 3.918 2.487-3.413-2.876a1.803 1.803 0 0 0-.505.389zM351.862 110.055l4.248 3.135-3.832-3.578a2.77 2.77 0 0 0-.416.443zM350.763 112.197c-.072.304-.022.634.085.929.101.302.254.576.434.84l-.016-.084c-.089.294-.168.591-.243.889l.175-.026a1.061 1.061 0 0 0-.742-.429c-.287-.034-.565.052-.803.178.26-.078.532-.091.78-.043.242.061.47.207.602.398l.117.169.058-.195c.088-.295.171-.59.245-.889l.012-.047-.027-.037a5.07 5.07 0 0 1-.461-.776c-.121-.275-.229-.564-.216-.877z"/><path style="fill:#f28f8f" d="M351.3 113.646c.301.439 1.275 1.408 1.275 1.408s-.23.298-.227 1.177c.001.471.145 1.315.145 1.315l-.981-1.06s.192-.708-.572-1.786l.36-1.054z"/><path style="fill:#ba68c8" d="M409.221 162.151c-2.148-1.576-6.884-2.828-10.856-4.561-1.545-.674-7.523-3.21-12.372-5.896-3.854 4.026-6.907 7.44-8.566 13.185a22.416 22.416 0 0 0-.574 2.566c5.335 3.985 11.988 8.92 15.091 12.398 5.733 6.425 5.309 7.126 5.816 8.442.508 1.316 6.684 2.681 10.204-5.888 3.497-8.511 2.889-16.623 1.257-20.246z"/></svg>