<svg xmlns="http://www.w3.org/2000/svg" viewBox="0 0 500 500" style="enable-background:new 0 0 500 500" xml:space="preserve"><path style="fill:#ebebeb" d="M416.779 398.494h33.122v.25h-33.122zM322.527 401.208h8.693v.25h-8.693zM396.586 389.208h19.192v.25h-19.192zM52.459 390.888h43.193v.25H52.459zM104.556 390.888h6.333v.25h-6.333zM131.471 395.111h93.676v.25h-93.676zM237.014 337.8H43.915a5.715 5.715 0 0 1-5.708-5.708V60.66a5.715 5.715 0 0 1 5.708-5.708h193.099a5.715 5.715 0 0 1 5.707 5.708v271.432a5.715 5.715 0 0 1-5.707 5.708zM43.915 55.203a5.464 5.464 0 0 0-5.458 5.458v271.432a5.464 5.464 0 0 0 5.458 5.458h193.099a5.463 5.463 0 0 0 5.457-5.458V60.66a5.464 5.464 0 0 0-5.457-5.458H43.915zM453.31 337.8H260.212a5.714 5.714 0 0 1-5.707-5.708V60.66a5.715 5.715 0 0 1 5.707-5.708H453.31a5.714 5.714 0 0 1 5.708 5.708v271.432a5.714 5.714 0 0 1-5.708 5.708zM260.212 55.203a5.463 5.463 0 0 0-5.457 5.458v271.432a5.463 5.463 0 0 0 5.457 5.458H453.31a5.464 5.464 0 0 0 5.458-5.458V60.66a5.464 5.464 0 0 0-5.458-5.458H260.212zM0 382.398h500v.25H0z"/><path style="fill:#e0e0e0" d="M449.389 116.234c-1.159 3.553-2.99 6.929-5.687 9.513-6.908 6.628-21.245 5.232-28.137-4.06-3.309-4.46-5.07-10.251-3.428-15.554 1.493-4.823 5.117-8.634 7.884-12.85 3.446-5.257 5.645-11.906 3.595-17.855 0 0 6.84 7.713 6.328 10.806 2.676-8.369.404-12.546-3.996-20.387 2.633 3.537 5 5.388 8.053 7.535 2.943 2.072 5.584 4.578 7.868 7.382.194.535.756 1.159.952 1.49.481.808.94 1.638 1.358 2.48 1.678 3.331 2.857 8.476 3.186 13.875.022-.304 1.068-2.551.737-7.3 3.228 7.934 3.956 16.791 1.287 24.925z"/><path style="fill:#f5f5f5" d="M434.31 120.186c2.091 1.562 3 5.059 2.495 8.597-.263 1.841-.954 3.63-1.643 5.366-6.333 15.963-13.515 31.426-21.48 46.26-.535-5.444-3.337-9.444-6.622-12.352-2.575-2.28-9.414-4.462-10.482-8.677-.001 0 25.596-48.263 37.732-39.194z"/><path style="fill:#e6e6e6" d="M345.19 240.393c9.556-19.044 19.108-38.078 29.792-56.197 5.642-9.569 11.853-19.143 19.688-24.832 7.696-5.589 18.148-4.266 22.588 2.925 3.446 5.58 2.169 12.687-.175 20.719-2.332 7.99-6.458 15.317-10.6 22.408-25.683 43.969-55.464 86.596-86.259 130.663-5.324 7.619-10.726 15.341-17.085 22.318-4.957 5.439-16.504 11.59-14.628 1.233.558-3.079 9.096-20.313 11.302-25.263 8.972-20.134 18.595-40.128 28.422-60.015 5.612-11.353 11.287-22.664 16.955-33.959z"/><path style="fill:#fafafa" d="M389.326 170.008c2.746-3.425 6.089-7.053 11.606-4.891 3 3.996.645 6.11-1.412 7.927-27.986 24.716-97.393 171.472-103.177 180.09 2.578-2.953 66.655-150.287 92.983-183.126z"/><path style="fill:#e0e0e0" d="m87.182 381.69-1.835-.795c.273-.631 27.125-64.002 10.503-136.917-16.563-72.661-51.084-89.272-51.431-89.431l.831-1.819c1.452.662 35.74 17.063 52.55 90.805 16.771 73.575-10.343 137.519-10.618 138.157z"/><path transform="rotate(26.224 87.587 211.996)" style="fill:#e0e0e0" d="M83.782 208.186h7.613v7.613h-7.613z"/><path style="fill:#e0e0e0" d="M43.228 152.518h5.709v5.709h-5.709zM84.264 378.921h5.709v5.709h-5.709zM125.777 320.293 73.139 169.444a.501.501 0 0 0-.945.329l52.639 150.85a.5.5 0 0 0 .944-.33z"/><path style="fill:#e0e0e0" d="M75.241 169.634a2.574 2.574 0 1 1-5.149-.05 2.574 2.574 0 0 1 5.149.05zM127.874 321.044a2.574 2.574 0 1 1-5.149-.05 2.574 2.574 0 0 1 5.149.05z"/><path style="fill:#ebebeb" d="m130.327 251.092-2.469 26.922-29.879 10.323-18.561-19.657 5.194-51.375 9.92-3.427z"/><path style="fill:#e0e0e0" d="m131.447 288.444-28.894 10.531-3.711-10.743 28.893-10.532z"/><path transform="rotate(-19.062 97.725 241.09)" style="fill:#fff" d="M96.633 214.322h2.222v53.603h-2.222z"/><path style="fill:#fff" d="M108.81 265.656a2.449 2.449 0 0 1-4.627 1.599 2.448 2.448 0 0 1 4.627-1.599z"/><path style="fill:#e0e0e0" d="m137.25 176.464-74.135-33.117 33.117-74.135 74.135 33.117-33.117 74.135zm-71.494-34.128 70.483 31.486 31.486-70.482-70.482-31.486-31.487 70.482z"/><ellipse style="fill:#f5f5f5" cx="250" cy="415.693" rx="193.889" ry="11.323"/><path style="fill:#407bff" d="M422.237 274.613c-1.374-43.713-20.702-96.062-45.573-115.169-80.954-62.191-140.695 1.896-151.379 19.055-10.694 17.169-16.373 38.134-20.667 58.991-4.024 19.545-6.993 39.583-6.531 59.657.471 20.084 4.55 40.329 13.704 56.889 4.559 8.234 11.015 15.907 19.148 16.928 11.381 1.441 20.947-10.309 27.781-21.664 6.833-11.365 14.047-24.359 25.258-27.445 9.646-2.644 19.747 3.31 26.172 12.352 6.425 9.042 9.786 20.721 12.401 32.297 1.997 8.886 3.658 17.971 6.975 26.227 3.307 8.256 8.538 15.781 15.603 18.95 6.75 3.039 14.483 1.747 21.08-1.961 6.597-3.708 12.203-9.639 17.311-15.974 25.276-31.376 40.08-75.411 38.717-119.133zm-78.309 82.166c-7.936-.245-14.165-6.87-13.921-14.806.244-7.926 6.87-14.165 14.806-13.92 7.926.244 14.165 6.88 13.92 14.806-.244 7.936-6.879 14.164-14.805 13.92z"/><path style="fill:#407bff" d="M419.068 272.56c-1.374-43.713-20.702-96.062-45.573-115.169-80.954-62.191-140.695 1.896-151.379 19.055-10.694 17.169-16.373 38.134-20.668 58.991-4.024 19.545-6.993 39.583-6.531 59.657.471 20.084 4.55 40.329 13.704 56.889 4.559 8.234 11.015 15.907 19.148 16.928 11.381 1.441 20.947-10.309 27.781-21.664 6.833-11.365 14.047-24.359 25.258-27.445 9.646-2.644 19.747 3.31 26.172 12.352 6.425 9.042 9.786 20.721 12.401 32.297 1.997 8.886 3.658 17.971 6.975 26.227 3.307 8.256 8.538 15.781 15.603 18.95 6.75 3.039 14.483 1.747 21.081-1.961s12.203-9.638 17.31-15.974c25.277-31.375 40.081-75.41 38.718-119.133zm-78.309 82.167c-7.936-.245-14.165-6.87-13.921-14.806.244-7.926 6.87-14.165 14.806-13.92 7.926.244 14.165 6.88 13.92 14.806-.244 7.935-6.879 14.164-14.805 13.92z"/><g style="opacity:.5"><path style="fill:#fff" d="M419.068 272.56c-1.374-43.713-20.702-96.062-45.573-115.169-80.954-62.191-140.695 1.896-151.379 19.055-10.694 17.169-16.373 38.134-20.668 58.991-4.024 19.545-6.993 39.583-6.531 59.657.471 20.084 4.55 40.329 13.704 56.889 4.559 8.234 11.015 15.907 19.148 16.928 11.381 1.441 20.947-10.309 27.781-21.664 6.833-11.365 14.047-24.359 25.258-27.445 9.646-2.644 19.747 3.31 26.172 12.352 6.425 9.042 9.786 20.721 12.401 32.297 1.997 8.886 3.658 17.971 6.975 26.227 3.307 8.256 8.538 15.781 15.603 18.95 6.75 3.039 14.483 1.747 21.081-1.961s12.203-9.638 17.31-15.974c25.277-31.375 40.081-75.41 38.718-119.133zm-78.309 82.167c-7.936-.245-14.165-6.87-13.921-14.806.244-7.926 6.87-14.165 14.806-13.92 7.926.244 14.165 6.88 13.92 14.806-.244 7.935-6.879 14.164-14.805 13.92z"/></g><path style="fill:#263238" d="M312.363 257.861c-2.306 3.126-3.792 6.778-5.001 10.469-.649 1.981-1.232 4.044-1.045 6.121.187 2.076 1.298 4.189 3.21 5.018.694.301 1.475.431 2.075.892 1.527 1.173 1.022 3.629 1.948 5.317 1.08 1.97 3.9 2.342 5.967 1.461 2.067-.882 3.588-2.656 5.151-4.269 1.157-1.194 2.396-2.344 3.874-3.107 1.072-.553 2.241-.888 3.35-1.362 5.053-2.16 8.514-7.138 9.941-12.444.424-1.575.689-3.259.24-4.827-.688-2.401-2.964-4.082-5.37-4.754-2.406-.672-4.956-.509-7.448-.337.197-.014-2.487-3.488-2.9-3.782-1.388-.991-2.909-1.497-4.578-1.315-3.553.387-7.436 4.237-9.414 6.919z"/><path style="fill:#fff" d="M299.215 237.02c-2.306 3.126-3.792 6.778-5.001 10.469-.649 1.981-1.232 4.044-1.045 6.121.187 2.076 1.298 4.189 3.21 5.018.694.301 1.475.431 2.075.892 1.527 1.173 1.022 3.629 1.948 5.317 1.08 1.97 3.9 2.342 5.967 1.461 2.067-.882 3.588-2.656 5.151-4.269 1.157-1.194 2.396-2.344 3.874-3.107 1.072-.553 2.241-.888 3.35-1.362 5.053-2.16 8.514-7.138 9.941-12.444.424-1.575.689-3.259.24-4.827-.688-2.401-2.964-4.081-5.37-4.754-2.406-.672-4.956-.509-7.448-.337.197-.014-2.487-3.487-2.9-3.782-1.388-.991-2.909-1.497-4.578-1.315-3.553.386-7.436 4.236-9.414 6.919z"/><path style="opacity:.6;fill:#fff" d="M398.603 317.989c3.677.247 7.373-.041 11.054.152.474.025.987.074 1.335.397.797.739.044 2.086-.861 2.687-3.625 2.411-8.458.645-12.416-1.167-.386 1.039.57 2.037 1.324 2.849.755.812 1.326 2.247.426 2.894-.618.444-1.474.13-2.156-.207a60.584 60.584 0 0 1-13.563-9.176c1.928-3.207 11.585 1.351 14.857 1.571z"/><path style="fill:#407bff" d="M403.11 296.988c-2.036.088-3.635 2.359-3.112 4.328.524 1.969 2.941 3.152 4.849 2.438 1.712-.641 2.779-2.589 2.539-4.402-.24-1.813-1.675-3.369-3.423-3.903-.693-.212-1.796.475-1.213.905l.36.634zM395.431 303.208c-.671.029-1.198.778-1.026 1.427.173.649.969 1.039 1.598.804.564-.211.916-.854.837-1.451-.079-.598-.552-1.111-1.129-1.287-.229-.07-.592.156-.4.298l.12.209z"/><path style="fill:#263238" d="M377.097 310.535c-1.455.063-2.598 1.686-2.224 3.093.374 1.407 2.102 2.253 3.465 1.742 1.224-.458 1.986-1.85 1.815-3.146-.171-1.296-1.197-2.408-2.447-2.789-.495-.151-1.283.339-.867.647l.258.453z"/><path style="fill:#407bff" d="M374.979 321.862a17.331 17.331 0 0 0-10.076 10.572c-.691 2.058-1.048 4.322-.586 6.464.231 1.072.664 2.101.791 3.191.615 5.29-5.835 9.038-6.284 14.344-.103 1.218.17 2.574 1.642 3.068 1.201.403 2.518-.136 3.283-1.145 1.73-2.281 1.031-5.094 1.478-7.691.477-2.77 1.536-3.918 4.065-5.145 3.761-.592-2.524 14.67-1.767 24.874.088 1.182-1.339 7.092-.216 7.468 3.569 1.196 4.241-6.254 3.694-11.142-.377-3.372-.309-7.052.943-10.119.689-1.689 3.228-.78 2.715.97-.281.959-.661 1.92-.979 2.828-.861 2.463-.598 6.088 1.964 6.586 1.427-3.516.9-7.47.975-11.264.044-2.228.416-4.615 1.38-6.592.851-1.745 3.475-1.295 3.713.633.36 2.915.389 5.87.083 8.791 1.552.66 3.285-.901 3.576-2.563.292-1.661-.334-3.326-.697-4.973-.363-1.648-.379-3.593.834-4.766.665-.643 1.584-.933 2.433-1.303 16.293-7.099 3.097-29.373-12.964-23.086z"/><path style="opacity:.7" d="M374.979 321.862a17.331 17.331 0 0 0-10.076 10.572c-.691 2.058-1.048 4.322-.586 6.464.231 1.072.664 2.101.791 3.191.615 5.29-5.835 9.038-6.284 14.344-.103 1.218.17 2.574 1.642 3.068 1.201.403 2.518-.136 3.283-1.145 1.73-2.281 1.031-5.094 1.478-7.691.477-2.77 1.536-3.918 4.065-5.145 3.761-.592-2.524 14.67-1.767 24.874.088 1.182-1.339 7.092-.216 7.468 3.569 1.196 4.241-6.254 3.694-11.142-.377-3.372-.309-7.052.943-10.119.689-1.689 3.228-.78 2.715.97-.281.959-.661 1.92-.979 2.828-.861 2.463-.598 6.088 1.964 6.586 1.427-3.516.9-7.47.975-11.264.044-2.228.416-4.615 1.38-6.592.851-1.745 3.475-1.295 3.713.633.36 2.915.389 5.87.083 8.791 1.552.66 3.285-.901 3.576-2.563.292-1.661-.334-3.326-.697-4.973-.363-1.648-.379-3.593.834-4.766.665-.643 1.584-.933 2.433-1.303 16.293-7.099 3.097-29.373-12.964-23.086z"/><path style="fill:#407bff" d="M359.275 369.52c-1.455.063-2.598 1.686-2.224 3.093.374 1.407 2.102 2.253 3.465 1.742 1.224-.458 1.986-1.85 1.815-3.146-.171-1.296-1.197-2.408-2.447-2.789-.495-.151-1.283.339-.867.647l.258.453z"/><path style="fill:#407bff" d="M359.275 369.52c-1.455.063-2.598 1.686-2.224 3.093.374 1.407 2.102 2.253 3.465 1.742 1.224-.458 1.986-1.85 1.815-3.146-.171-1.296-1.197-2.408-2.447-2.789-.495-.151-1.283.339-.867.647l.258.453z"/><path style="fill:#407bff" d="M359.275 369.52c-1.455.063-2.598 1.686-2.224 3.093.374 1.407 2.102 2.253 3.465 1.742 1.224-.458 1.986-1.85 1.815-3.146-.171-1.296-1.197-2.408-2.447-2.789-.495-.151-1.283.339-.867.647l.258.453z"/><path style="opacity:.7" d="M359.275 369.52c-1.455.063-2.598 1.686-2.224 3.093.374 1.407 2.102 2.253 3.465 1.742 1.224-.458 1.986-1.85 1.815-3.146-.171-1.296-1.197-2.408-2.447-2.789-.495-.151-1.283.339-.867.647l.258.453z"/><g style="opacity:.8"><path style="fill:#fff" d="M387.815 318.869c-2.036.088-3.635 2.359-3.112 4.328.524 1.969 2.941 3.152 4.849 2.438 1.712-.641 2.779-2.589 2.539-4.402-.24-1.813-1.675-3.369-3.424-3.903-.693-.212-1.795.475-1.213.905l.361.634zM380.136 325.09c-.671.029-1.199.778-1.026 1.427.173.649.969 1.039 1.598.804.564-.211.916-.854.837-1.451-.079-.598-.552-1.111-1.128-1.287-.229-.07-.592.156-.4.298l.119.209z"/></g><path style="fill:#407bff" d="M379.151 260.168c-3.676 3.887-7.016 9.501-4.663 14.307.609 1.244 1.587 2.383 1.663 3.765.112 2.05-1.807 4.092-.935 5.951l1.685-.011a57.124 57.124 0 0 0-9.612 11.005l8.955-8.039-4.999 7.912a47.721 47.721 0 0 1 10.057-9.676 14.297 14.297 0 0 1-2.566 6.082c2.072.844 3.958-1.864 6.191-2.013 1.069-.072 2.074.46 3.116.712 2.157.524 4.577-.249 6.032-1.925 1.455-1.677 1.878-4.182 1.055-6.243 4.582-.586 7.597-5.295 8.375-9.848.265-1.552.36-3.169 1.041-4.59 1.679-3.504 2.914-5.335.625-3.644 1.156-1.98-1.054-3.181-3.315-1.803 2.584-2.668 1.309-4.795-1.1-2.44-1.005-.573-2.328-.763-3.43-.944.017-10.349-15.211-1.692-18.175 1.442zM364.954 275.439c-1.043-.352-2.204.373-2.722 1.345-.518.972-.552 2.12-.574 3.221-.01.475-.017.967.167 1.405.52 1.239 2.214 1.423 3.527 1.141 1.446-.311 2.872-.993 3.752-2.182.88-1.189 1.08-2.945.208-4.14-.871-1.195-2.888-1.451-3.841-.319l-.517-.471z"/><g style="opacity:.4"><path d="M379.151 260.168c-3.676 3.887-7.016 9.501-4.663 14.307.609 1.244 1.587 2.383 1.663 3.765.112 2.05-1.807 4.092-.935 5.951l1.685-.011a57.124 57.124 0 0 0-9.612 11.005l8.955-8.039-4.999 7.912a47.721 47.721 0 0 1 10.057-9.676 14.297 14.297 0 0 1-2.566 6.082c2.072.844 3.958-1.864 6.191-2.013 1.069-.072 2.074.46 3.116.712 2.157.524 4.577-.249 6.032-1.925 1.455-1.677 1.878-4.182 1.055-6.243 4.582-.586 7.597-5.295 8.375-9.848.265-1.552.36-3.169 1.041-4.59 1.679-3.504 2.914-5.335.625-3.644 1.156-1.98-1.054-3.181-3.315-1.803 2.584-2.668 1.309-4.795-1.1-2.44-1.005-.573-2.328-.763-3.43-.944.017-10.349-15.211-1.692-18.175 1.442zM364.954 275.439c-1.043-.352-2.204.373-2.722 1.345-.518.972-.552 2.12-.574 3.221-.01.475-.017.967.167 1.405.52 1.239 2.214 1.423 3.527 1.141 1.446-.311 2.872-.993 3.752-2.182.88-1.189 1.08-2.945.208-4.14-.871-1.195-2.888-1.451-3.841-.319l-.517-.471z"/></g><path style="fill:#407bff" d="M339.556 166.551c-4.859 3.104-7.961 8.355-9.991 13.752-1.286 3.419-2.224 7.113-1.583 10.71.641 3.597 3.198 7.049 6.777 7.781.91.186 1.874.202 2.711.604 1.007.483 1.699 1.464 2.685 1.988 1.33.707 3.077.527 4.215 1.514.991.86 1.174 2.316 1.157 3.628-.017 1.312-.151 2.693.427 3.871s2.224 1.942 3.234 1.105l.766-9.698c.127-1.612.541-3.591 2.1-4.019l.013 6.138c.529.535 1.509.273 1.963-.328.454-.601.525-1.398.572-2.15.225-3.599.282-7.208.171-10.812l-1.813-.126.125-3.992a7.962 7.962 0 0 1 3.751-.455 27.7 27.7 0 0 0 1.266 9.594c2.112-.795 2.245-3.688 2.006-5.932l-1.114-10.45c.181 1.702 2.578-1.759 2.566-1.738.678-1.189.021-4.511-.285-5.793-.589-2.469-1.349-4.538-3.498-6.036-4.644-3.238-13.851-1.947-18.221.844zM320.337 180.683c-1.125.049-2.009 1.303-1.719 2.391.289 1.088 1.625 1.742 2.679 1.347.946-.354 1.535-1.431 1.403-2.432-.132-1.002-.925-1.861-1.892-2.157-.383-.117-.992.262-.67.5l.199.351zM333.987 203.1c-.66.029-1.178.764-1.008 1.402.17.638.953 1.021 1.571.79.555-.208.9-.839.823-1.426-.078-.587-.543-1.092-1.109-1.265-.225-.069-.582.154-.393.293l.116.206z"/><g style="opacity:.8"><path style="fill:#407bff" d="M339.556 166.551c-4.859 3.104-7.961 8.355-9.991 13.752-1.286 3.419-2.224 7.113-1.583 10.71.641 3.597 3.198 7.049 6.777 7.781.91.186 1.874.202 2.711.604 1.007.483 1.699 1.464 2.685 1.988 1.33.707 3.077.527 4.215 1.514.991.86 1.174 2.316 1.157 3.628-.017 1.312-.151 2.693.427 3.871s2.224 1.942 3.234 1.105l.766-9.698c.127-1.612.541-3.591 2.1-4.019l.013 6.138c.529.535 1.509.273 1.963-.328.454-.601.525-1.398.572-2.15.225-3.599.282-7.208.171-10.812l-1.813-.126.125-3.992a7.962 7.962 0 0 1 3.751-.455 27.7 27.7 0 0 0 1.266 9.594c2.112-.795 2.245-3.688 2.006-5.932l-1.114-10.45c.181 1.702 2.578-1.759 2.566-1.738.678-1.189.021-4.511-.285-5.793-.589-2.469-1.349-4.538-3.498-6.036-4.644-3.238-13.851-1.947-18.221.844zM320.337 180.683c-1.125.049-2.009 1.303-1.719 2.391.289 1.088 1.625 1.742 2.679 1.347.946-.354 1.535-1.431 1.403-2.432-.132-1.002-.925-1.861-1.892-2.157-.383-.117-.992.262-.67.5l.199.351zM333.987 203.1c-.66.029-1.178.764-1.008 1.402.17.638.953 1.021 1.571.79.555-.208.9-.839.823-1.426-.078-.587-.543-1.092-1.109-1.265-.225-.069-.582.154-.393.293l.116.206z"/></g><g style="opacity:.4"><path style="opacity:.5;fill:#fff" d="M339.556 166.551c-4.859 3.104-7.961 8.355-9.991 13.752-1.286 3.419-2.224 7.113-1.583 10.71.641 3.597 3.198 7.049 6.777 7.781.91.186 1.874.202 2.711.604 1.007.483 1.699 1.464 2.685 1.988 1.33.707 3.077.527 4.215 1.514.991.86 1.174 2.316 1.157 3.628-.017 1.312-.151 2.693.427 3.871s2.224 1.942 3.234 1.105l.766-9.698c.127-1.612.541-3.591 2.1-4.019l.013 6.138c.529.535 1.509.273 1.963-.328.454-.601.525-1.398.572-2.15.225-3.599.282-7.208.171-10.812l-1.813-.126.125-3.992a7.962 7.962 0 0 1 3.751-.455 27.7 27.7 0 0 0 1.266 9.594c2.112-.795 2.245-3.688 2.006-5.932l-1.114-10.45c.181 1.702 2.578-1.759 2.566-1.738.678-1.189.021-4.511-.285-5.793-.589-2.469-1.349-4.538-3.498-6.036-4.644-3.238-13.851-1.947-18.221.844z"/><g style="opacity:.2"><path style="fill:#fff" d="M320.337 180.683c-1.125.049-2.009 1.303-1.719 2.391.289 1.088 1.625 1.742 2.679 1.347.946-.354 1.535-1.431 1.403-2.432-.132-1.002-.925-1.861-1.892-2.157-.383-.117-.992.262-.67.5l.199.351z"/></g><g style="opacity:.2"><path style="fill:#fff" d="M333.987 203.1c-.66.029-1.178.764-1.008 1.402.17.638.953 1.021 1.571.79.555-.208.9-.839.823-1.426-.078-.587-.543-1.092-1.109-1.265-.225-.069-.582.154-.393.293l.116.206z"/></g></g><path style="fill:#407bff" d="M369.524 208.181c-3.424 1.662-5.834 4.98-7.101 8.569-1.267 3.589-1.506 7.455-1.509 11.261-.002 2.395.414 5.299 2.621 6.228.588.247 1.251.317 1.797.647.769.465 1.162 1.348 1.75 2.027.589.679 1.682 1.149 2.354.552.49-1.234-.45-2.517-1.109-3.669-1.784-3.119-1.579-7.267.503-10.194a1.532 1.532 0 0 0-.366 1.264c3.274.22 6.607-.529 9.472-2.129a22.841 22.841 0 0 1-4.378 4.678l4.423-2.043a5.006 5.006 0 0 1-1.68 3.823l5.289-.302a17.736 17.736 0 0 1-6.547 9.583c2.414 1.048 5.476.33 7.173-1.682.552-.655.982-1.438 1.687-1.924.695-.479 1.568-.606 2.345-.938 1.504-.644 2.557-2.009 3.519-3.332 3.18-4.374 6.251-9.989 4.012-14.911-4.119-9.062-15.584-11.795-24.255-7.508z"/><path style="fill:#407bff" d="M392.074 226.246c-1.458.063-2.604 1.69-2.229 3.1.375 1.41 2.107 2.258 3.473 1.746 1.227-.459 1.991-1.855 1.819-3.153-.172-1.299-1.2-2.413-2.452-2.796-.496-.152-1.286.34-.869.649l.258.454zM377.53 238.409c-1.458.063-2.604 1.69-2.229 3.1.375 1.41 2.107 2.258 3.473 1.746 1.227-.459 1.991-1.855 1.819-3.153-.172-1.299-1.2-2.413-2.452-2.796-.496-.152-1.286.34-.869.649l.258.454zM360.391 243.872c-.924.04-1.649 1.07-1.412 1.964.238.893 1.334 1.43 2.2 1.106.777-.291 1.261-1.175 1.152-1.997-.109-.822-.76-1.528-1.553-1.771-.314-.096-.814.215-.55.411l.163.287zM312.875 142.12c-3.528.139-7.163.637-10.183 2.467-3.485 2.111-5.759 5.761-7.366 9.505-.483 1.125-.926 2.311-.879 3.535.065 1.696 1.066 3.334.747 5.001-.464 2.422-3.564 4.548-2.311 6.672.59 1 1.971 1.29 3.088.973 1.117-.318 2.033-1.101 2.91-1.862.695.492.622 1.57.225 2.323-.397.753-1.034 1.379-1.304 2.186-.542 1.615.742 3.478 2.408 3.833s3.434-.588 4.366-2.013l-2.195 7.656c-.281.98-.549 2.086-.044 2.972.674 1.183 2.395 1.306 3.647.773 5.035-2.143 4.061-10.128 8.167-13.745 1.956-1.723 4.939-2.303 6.258-4.551.454-.775.665-1.691 1.231-2.388.702-.864 1.819-1.242 2.794-1.779 4.658-2.566 5.692-10.239 3.479-14.804-2.625-5.418-9.6-6.968-15.038-6.754z"/><path style="opacity:.8;fill:#fff" d="M312.875 142.12c-3.528.139-7.163.637-10.183 2.467-3.485 2.111-5.759 5.761-7.366 9.505-.483 1.125-.926 2.311-.879 3.535.065 1.696 1.066 3.334.747 5.001-.464 2.422-3.564 4.548-2.311 6.672.59 1 1.971 1.29 3.088.973 1.117-.318 2.033-1.101 2.91-1.862.695.492.622 1.57.225 2.323-.397.753-1.034 1.379-1.304 2.186-.542 1.615.742 3.478 2.408 3.833s3.434-.588 4.366-2.013l-2.195 7.656c-.281.98-.549 2.086-.044 2.972.674 1.183 2.395 1.306 3.647.773 5.035-2.143 4.061-10.128 8.167-13.745 1.956-1.723 4.939-2.303 6.258-4.551.454-.775.665-1.691 1.231-2.388.702-.864 1.819-1.242 2.794-1.779 4.658-2.566 5.692-10.239 3.479-14.804-2.625-5.418-9.6-6.968-15.038-6.754z"/><path style="fill:#407bff" d="M304.313 194.059c-.283 1.171-.172 2.577.764 3.336.741.601 1.791.63 2.734.49 1.317-.196 2.731-.796 3.224-2.034.317-.795.181-1.712-.174-2.491-.792-1.736-2.14-2.36-3.389-3.561-1.557.94-2.73 2.485-3.159 4.26z"/><path style="opacity:.8;fill:#fff" d="M304.313 194.059c-.283 1.171-.172 2.577.764 3.336.741.601 1.791.63 2.734.49 1.317-.196 2.731-.796 3.224-2.034.317-.795.181-1.712-.174-2.491-.792-1.736-2.14-2.36-3.389-3.561-1.557.94-2.73 2.485-3.159 4.26z"/><g style="opacity:.6"><path style="fill:#fff" d="M294.655 188.335c-.586.213-.656 1.144-.164 1.528.492.384 1.277.201 1.656-.294s.393-1.202.164-1.782l-1.128.143-.528.405z"/></g><g style="opacity:.6"><path style="fill:#fff" d="M295.675 179.051c-.116.588-.663 1.051-.667 1.65-.004.644.789 1.142 1.368.861.202.493.012 1.048-.005 1.58s.323 1.188.849 1.107c.419-.064.616-.541.737-.947l.489-1.645c.116-.392.232-.818.085-1.2-.147-.382-.684-.626-.979-.342l.011-1.149a1.74 1.74 0 0 0-1.414.118c-.251.141-.727.203-.672-.079l.198.046z"/></g><path style="fill:#407bff" d="M262.88 227.175c6.185 5.818 35.425 17.559 37.321 17.83 1.853.265 3.102-.325 3.944-1.23 1.894-2.036 1.322-5.349-1.012-6.862-7.201-4.667-19.829-13.393-25.064-17.953-4.089-3.562 9.832-35.209 1.728-39.916-13.134-7.629-24.226 41.257-16.917 48.131z"/><path d="M262.88 227.175c6.185 5.818 35.425 17.559 37.321 17.83 1.853.265 3.102-.325 3.944-1.23 1.894-2.036 1.322-5.349-1.012-6.862-7.201-4.667-19.829-13.393-25.064-17.953-4.089-3.562 9.832-35.209 1.728-39.916-13.134-7.629-24.226 41.257-16.917 48.131z" style="opacity:.1"/><path style="fill:#ffb373" d="m299.043 245.004 6.92 5.681s6.25-5.966 6.579-6.752c0 0-3.041-3.815-7.043-4.699l-2.635-.352a2.64 2.64 0 0 0-2.017.571l-1.798 1.468a2.638 2.638 0 0 0-.006 4.083z"/><path style="fill:#ffb373" d="m304.51 249.564 7.741-5.861 3.177 2.963c.591.551.56 1.497-.066 2.008l-4.088 3.337a2.552 2.552 0 0 1-3.072.118l-3.692-2.565z"/><path style="fill:#407bff" d="M278.089 178.36c8.673 6.178-5.328 39.412-8.697 58.918-.915 5.299-35.613 2.414-39.897-3.493l3.359-53.301c-.203-6.157 4.945-11.147 11.093-10.762 2.473.155 15.528-4.62 34.142 8.638z"/><path style="opacity:.1" d="M230.89 211.65s.93-14.88 2.09-23.49c3.45.24 6.02.16 6.97-.37 2.11-1.17 4.63-4.8 6.01-8.57-3.239 17.156-15.07 32.43-15.07 32.43z"/><path style="fill:#263238" d="M269.112 238.003s-.036 10.803 2.901 19.232c3.303 9.483-11.189 12.085-19.621 6.633l-5.457-3.528s-2.634-.414-21.538-10.744c-.393-.215-1.263-2.242-.06-7.268.94-3.927.575-4.343 2.842-7.684l17.179 4.5c.001 0 12.704 1.98 23.754-1.141z"/><path style="fill:#ffb373" d="m267.211 379.853-5.421 24.527c-.867.237-9.993 1.542-9.616-.842 1.15-7.278 3.607-22.554 3.607-22.554l11.43-1.131z"/><path style="fill:#407bff" d="M265.343 398.737a.271.271 0 0 1-.172-.235.269.269 0 0 1 .163-.243c.167-.068 4.091-1.669 5.771-.96.324.117.585.363.719.68a.934.934 0 0 1-.126 1.084c-.477.551-1.799.566-3.145.375a17.346 17.346 0 0 1-3.21-.701zm5.131-1.107a11.163 11.163 0 0 0-4.24.825c1.897.523 4.553.86 5.133.249.069-.088.149-.225.013-.56a.759.759 0 0 0-.432-.411 2.52 2.52 0 0 0-.477-.118l.003.015z"/><path style="fill:#407bff" d="M265.232 398.607a.238.238 0 0 1-.03-.252c.034-.116.676-2.888 2.16-3.814a1.84 1.84 0 0 1 1.431-.171c.673.159.798.543.832.826.048 1.206-2.752 3.135-4.092 3.535l-.11.013-.191-.137zm2.393-3.603a5.792 5.792 0 0 0-1.806 3.039c1.394-.613 3.393-2.175 3.308-2.883-.008-.063-.012-.238-.44-.346l-.157.019a1.261 1.261 0 0 0-.905.171z"/><path style="fill:#263238" d="m263.986 396.586-10.046-1.866a.903.903 0 0 0-1.001.566l-3.512 7.952c-.299.822 1.13 2.087 1.224 2.103 6.029 1.736 19.186 4.455 23.563 5.177 4.377.722 5.657-3.514 3.933-4.202-7.736-3.08-10.366-6.004-12.541-8.727a2.591 2.591 0 0 0-1.62-1.003z"/><path d="m254.572 388.539 1.208-7.554 11.431-1.132-2.339 10.01z" style="opacity:.2"/><path style="fill:#ffb373" d="m182.697 358.43-17.987 17.534c-.855-.277-9.201-4.192-7.578-5.979a11907 11907 0 0 1 15.387-16.88l10.178 5.325z"/><path style="fill:#407bff" d="M170.777 373.195a.27.27 0 0 1-.015-.29.271.271 0 0 1 .269-.114c.177.035 4.336.849 5.352 2.363.207.275.29.624.228.963a.935.935 0 0 1-.699.837c-.701.199-1.814-.514-2.836-1.411a17.53 17.53 0 0 1-2.299-2.348zm4.898 1.889a11.17 11.17 0 0 0-3.997-1.636c1.299 1.478 3.335 3.217 4.156 3.024.106-.036.248-.107.318-.461a.755.755 0 0 0-.136-.58 2.587 2.587 0 0 0-.333-.361l-.008.014z"/><path style="fill:#407bff" d="M170.756 373.025a.239.239 0 0 1 .113-.227c.092-.078 2.15-2.044 3.899-2.004.5.029.966.261 1.29.642.475.502.37.892.243 1.147-.622 1.035-4.021 1.112-5.36.711a6.769 6.769 0 0 1-.099-.05l-.086-.219zm3.977-1.7a5.793 5.793 0 0 0-3.177 1.55c1.502.252 4.03.042 4.348-.596.028-.057.12-.206-.178-.531l-.142-.07a1.264 1.264 0 0 0-.851-.353z"/><path style="fill:#263238" d="m170.822 370.652-7.376-7.07a.904.904 0 0 0-1.148-.076L155 368.228c-.701.523-.2 2.365-.13 2.43 4.089 4.759 13.598 14.249 16.862 17.253 3.263 3.004 6.658.165 5.593-1.356-4.779-6.819-5.374-10.706-5.699-14.176a2.579 2.579 0 0 0-.804-1.727z"/><path d="m167.366 358.76 5.154-5.654 10.177 5.324-7.446 7.087z" style="opacity:.2"/><path style="fill:#263238" d="M242.292 263.886c.412 10.809 15.072 40.967 18.053 59.732 2.3 14.474-4.18 41.895-7.613 57.28-.318 1.425-.052 2.953.875 4.08 0 0 8.925 1.552 11.746 1.683 9.01.418 16.034-44.371 17.654-55.327 2.748-18.592-2.367-51.054-13.93-82.529-1.938-5.274-7.688-3.499-14.904-3.063-1.316.077-12.281 7.657-11.881 18.144z"/><path style="opacity:.2" d="M250.421 252.423c-1.362-2.234-5.339 21.859-5.339 21.859l6.393 19.664c0 .001 9.38-24.417-1.054-41.523z"/><path style="fill:#263238" d="M225.473 247.797c-40.17 96.431-59.337 100.029-56.962 107.457 0 0 7.143 5.638 8.898 7.85 4.159 5.241 36.008-28.195 41.397-37.87 12.049-21.633 26.634-45.399 33.582-71.086 1.467-5.424-.758-11.411-7.03-15.005-1.141-.657-15.849-1.033-19.885 8.654zM281.815 144.137c1.39-.059 2.529-1.292 2.843-2.647.314-1.355-.046-2.782-.6-4.058-.763-1.757-1.944-3.391-3.602-4.351-2.063-1.194-4.61-1.212-6.957-.798s-4.615 1.221-6.972 1.574c-1.703.255-3.447.272-5.108.727-1.66.455-3.293 1.454-3.941 3.049-.648 1.595.108 3.778 1.779 4.19-2.425.701-6.039 1.178-7.914 2.868-1.876 1.689-2.898 4.611-1.65 6.805.341.6 1.746 2.598 3.884 3.214 0 0-4.02 9.068 2.139 11.444 5.541 2.138 16.963 2.54 16.963 2.54 5.002-3.204 9.136-24.557 9.136-24.557z"/><path style="fill:#263238" d="M289.141 153.769c.269 1.728.531 3.538-.041 5.191-.572 1.653-2.273 3.056-3.977 2.666 1.411 1.661.566 4.412-1.191 5.702-1.757 1.29-4.07 1.485-6.249 1.513a59.635 59.635 0 0 1-6.892-.312c-1.278-.133-2.658-.359-3.542-1.29-1.401-1.476-.865-3.878-.077-5.754 1.954-4.649 4.888-8.816 7.961-12.814 1.731-2.252 6.009-7.719 9.484-6.265 3.399 1.418 4.049 8.304 4.524 11.363z"/><path style="fill:#ffb373" d="M260.569 166.242c.02 0 .02 0 .01-.01.93-2.71 1.36-5.82 1.61-8.35l7.26 8.51c-1.73 2.94-3.34 6.59-.28 8.91 1.15.87 1.86 2.23 1.86 3.64 0 .41-.06.83-.19 1.24-1.13 3.56-5.6 4.71-8.29 2.12-3.4-3.27-4.94-5.8-5.63-7.53-.52-1.34-.11-2.82.93-3.81.84-.81 1.52-1.87 2.07-3.06l.65-1.66z"/><path style="opacity:.3;enable-background:new" d="M260.559 166.262s.02-.01.02-.02c.01 0 .01 0 0-.01.2-.25.39-.52.56-.79l7.855 1.754c-2.825 2.477-7.355 1.866-9.075.706l.64-1.64z"/><path style="fill:#263238" d="M274.306 165.089c.246-.123.483-.247.729-.37.018-.005.018-.005.02-.012 2.327-1.906 3.6-4.378 5.272-8.287.439-1.006.889-2.102 1.398-3.312a11.412 11.412 0 0 0 .483-7.778c-1.768 3.424-2.738 7.167-3.891 10.818-.999 3.139-2.123 6.199-4.011 8.941z"/><path style="fill:#ffb373" d="M256.722 156.227c-.595 5.566 2.932 9.897 7.676 11.02l.064.014c1.779.406 3.722.369 5.679-.229.666-.199 1.32-.46 1.981-.786.264-.127.521-.265.76-.397a14.138 14.138 0 0 0 2.153-1.456c.018-.005.018-.005.02-.013 2.327-1.905 3.6-4.378 5.272-8.286.439-1.006.889-2.102 1.398-3.312a11.412 11.412 0 0 0 .483-7.778 9.376 9.376 0 0 0-.415-1.143c-1.741-4.193-5.912-7.007-10.657-6.742-3.866.172-7.027 2.585-9.405 5.876-.24.326-.465.664-.682 1.003-2.444 3.781-3.914 8.457-4.327 12.229z"/><path style="opacity:.2;enable-background:new" d="M277.979 158.722c-.08.95-.21 1.9-.4 2.84-.73 1.09-1.53 2.01-2.52 2.82-.01.01-.01.01-.02.01-.63.52-1.34 1-2.16 1.46-.24.13-.49.27-.76.39-.66.33-1.31.59-1.98.79-1.95.6-3.9.63-5.68.23l-.06-.02c-4.74-1.12-8.27-5.45-7.68-11.02.08-.72.2-1.47.36-2.23 1.1 1.4 4.86 3.54 18.05 2.24.58-.06 1.14-.43 1.7-.26 1.03.31 1.23 1.67 1.15 2.75z"/><path style="fill:#263238" d="M268.913 150.823c-.228.628-.735 1.025-1.136.887-.4-.138-.553-.779-.337-1.409.216-.63.735-1.025 1.136-.887.4.138.515.799.337 1.409zM261.926 148.349c-.229.64-.735 1.025-1.135.887-.4-.138-.553-.779-.337-1.409.216-.63.735-1.025 1.134-.875.398.15.554.768.338 1.397z"/><path style="fill:#e8483f" d="M263.679 150.26a17.973 17.973 0 0 1-3.628 3.241 2.843 2.843 0 0 0 2.062 1.208l1.566-4.449z"/><path style="fill:#263238" d="M262.121 158.422a5.6 5.6 0 0 1-.935-.256.191.191 0 0 1-.124-.241l.002-.007a.202.202 0 0 1 .254-.113 5.155 5.155 0 0 0 4.676-.533.19.19 0 0 1 .27.035.199.199 0 0 1-.037.275 5.314 5.314 0 0 1-4.106.84zM272.224 150.392a.38.38 0 0 1-.314-.333 4.57 4.57 0 0 0-2.254-2.902.399.399 0 0 1-.167-.534.379.379 0 0 1 .524-.163 5.263 5.263 0 0 1 2.663 3.504.388.388 0 0 1-.333.432.229.229 0 0 1-.119-.004zM260.984 144.315a.4.4 0 0 1-.3-.259.403.403 0 0 1 .235-.505 3.72 3.72 0 0 1 3.537.378.378.378 0 0 1 .071.546.377.377 0 0 1-.537.076 3.035 3.035 0 0 0-2.776-.254.377.377 0 0 1-.23.018zM275.912 157.75c.241.516 1.833-1.61 2.404-1.602.68.006 1.359.095 2.01.272-1.672 3.908-2.945 6.381-5.272 8.286 3.605-1.903 6.978-4.471 9.035-8.026 2.201-3.792 1.927-9.38-.556-12.953-.198-.287-.622-.271-.963-.211-.264.052-2.023.054-2.716.028-1.121-.027-1.991.599-2.65 1.422 1.626 5.758-2.037 11.191-1.292 12.784z"/><path style="fill:#ffb373" d="M281.7 159.807a5.84 5.84 0 0 1-3.881 2.185c-2.026.21-2.688-1.716-1.828-3.492.787-1.59 2.782-3.62 4.678-3.043 1.364.464 2.091 1.968 1.624 3.359-.124.37-.327.708-.593.991z"/><path style="fill:#263238" d="M263.727 138.884c-.657.356-1.319.771-1.712 1.407s-.434 1.547.096 2.075c.484.483 1.254.503 1.935.443 1.948-.171 3.86-.74 5.583-1.663-.631.291-1.277.593-1.76 1.093-.482.5-.77 1.25-.534 1.904.305.844 1.302 1.189 2.187 1.336 3.059.508 6.184-.051 9.234-.609 1.527-.279 3.284-.732 3.908-2.153.747-1.699-.7-3.622-2.363-4.444-5.355-2.646-11.355-2.215-16.574.611zM265.888 160.198c-.694 1.16-1.121 2.529-1.365 3.633-.243 1.103-.537 2.217-.517 3.347-.194-.988-.737-2.024-1.099-2.964-.22-.569-1.431-4.059-.968-3.808 1.938 1.053 3.949-.208 3.949-.208z"/><path style="fill:#407bff" d="M245.96 179.22c-1.38 3.77-3.9 7.4-6.01 8.57-.95.53-3.52.61-6.97.37-11.85-.84-33.99-5.58-35.52-9.56-1.29-3.35-1.58-5.55-1.34-6.99l-7.54-39.4c-.04-.21-.39-2.62-.23-2.76l-2.48-.87c1.02-.48 2.08-.76 3.1-.91 3.41-.49 6.72 1.38 8.18 4.5l5.45 11.64a70.136 70.136 0 0 1 6.46 24.72l.01.13c12.87.04 35.13.48 36.03 1.12 2.47 1.76 2.24 5.67.86 9.44zM195.889 415.502l36.669-12.845-89.371-255.133-61.897 21.682 80.534 229.905c4.881 13.933 20.132 21.271 34.065 16.391z"/><g style="opacity:.8"><path style="fill:#fff" d="m195.889 415.502 36.669-12.845-89.371-255.133-61.897 21.682 80.534 229.905c4.881 13.933 20.132 21.271 34.065 16.391z"/></g><path transform="rotate(-19.462 183.399 358.914)" style="fill:#263238" d="M157.366 332.887h52.076v52.076h-52.076z"/><path transform="rotate(-19.462 163.454 302.471)" style="fill:#263238" d="M137.419 276.441h52.076v52.076h-52.076z"/><path transform="rotate(-19.462 163.454 302.471)" style="opacity:.2;fill:#fff" d="M137.419 276.441h52.076v52.076h-52.076z"/><path transform="rotate(-19.462 143.505 246.025)" style="fill:#263238" d="M117.472 219.994h52.076v52.076h-52.076z"/><path transform="rotate(-19.462 143.505 246.025)" style="opacity:.4;fill:#fff" d="M117.472 219.994h52.076v52.076h-52.076z"/><path transform="rotate(-19.462 123.56 189.58)" style="fill:#263238" d="M97.524 163.548H149.6v52.076H97.524z"/><path transform="rotate(-19.462 123.56 189.58)" style="opacity:.6;fill:#fff" d="M97.524 163.548H149.6v52.076H97.524z"/><path style="fill:#407bff" d="m194.433 408.131 38.33-6.354-44.207-266.694-64.701 10.725 39.836 240.323c2.414 14.564 16.178 24.414 30.742 22z"/><g style="opacity:.8"><path style="fill:#fff" d="m194.433 408.131 38.33-6.354-44.207-266.694-64.701 10.725 39.836 240.323c2.414 14.564 16.178 24.414 30.742 22z"/></g><path transform="rotate(-9.564 191.923 350.32)" style="fill:#407bff" d="M165.816 324.212h52.076v52.076h-52.076z"/><path transform="rotate(-9.564 181.967 291.276)" style="fill:#407bff" d="M155.864 265.178h52.076v52.076h-52.076z"/><path transform="rotate(-9.564 181.967 291.276)" style="opacity:.2;fill:#fff" d="M155.864 265.178h52.076v52.076h-52.076z"/><path transform="rotate(-9.564 172.008 232.228)" style="fill:#407bff" d="M145.912 206.144h52.076v52.076h-52.076z"/><path transform="rotate(-9.564 172.008 232.228)" style="opacity:.4;fill:#fff" d="M145.912 206.144h52.076v52.076h-52.076z"/><path transform="rotate(-9.564 162.048 173.178)" style="fill:#407bff" d="M135.959 147.11h52.076v52.076h-52.076z"/><path transform="rotate(-9.564 162.048 173.178)" style="opacity:.6;fill:#fff" d="M135.959 147.11h52.076v52.076h-52.076z"/><path style="fill:#407bff" d="m195.063 401.619 38.853.107.743-270.332-65.584-.18-.67 243.601c-.04 14.762 11.895 26.763 26.658 26.804z"/><g style="opacity:.8"><path style="fill:#fff" d="m195.063 401.619 38.853.107.743-270.332-65.584-.18-.67 243.601c-.04 14.762 11.895 26.763 26.658 26.804z"/></g><path style="fill:none;stroke:#407bff;stroke-width:2;stroke-miterlimit:10" d="M196.044 385.135a7.16 7.16 0 1 1-14.32 0 7.16 7.16 0 0 1 14.32 0z"/><path style="fill:#407bff" d="M176.104 318.077h52.076v52.076h-52.076zM176.104 258.209h52.076v52.076h-52.076z"/><path style="opacity:.2" d="M176.104 258.209h52.076v52.076h-52.076z"/><path style="fill:#407bff" d="M176.104 198.342h52.076v52.076h-52.076z"/><path style="opacity:.4" d="M176.104 198.342h52.076v52.076h-52.076z"/><path style="fill:#407bff" d="M176.104 138.475h52.076v52.076h-52.076z"/><path style="opacity:.6" d="M176.104 138.475h52.076v52.076h-52.076z"/><path style="fill:#ffb373" d="M181.395 131.364s.184 6.312 1.704 6.007c1.012-.203 3.247-.136 4.628-.068a1.993 1.993 0 0 0 1.797-.954l3.045-4.984h-11.174zM181.395 131.364l4.473-2.788h3.6a6.444 6.444 0 0 1 5.307 2.788h-13.38z"/></svg>