<svg xmlns="http://www.w3.org/2000/svg" viewBox="0 0 500 500" style="enable-background:new 0 0 500 500" xml:space="preserve"><path style="fill:#ebebeb" d="M0 382.398h500v.25H0zM416.779 398.494h33.122v.25h-33.122zM322.527 401.208h8.693v.25h-8.693zM396.586 389.208h19.192v.25h-19.192zM52.459 390.888h43.193v.25H52.459zM104.556 390.888h6.333v.25h-6.333zM131.471 395.111h93.676v.25h-93.676zM237.014 337.8H43.915a5.715 5.715 0 0 1-5.708-5.708V60.66a5.715 5.715 0 0 1 5.708-5.708h193.099a5.715 5.715 0 0 1 5.707 5.708v271.432a5.715 5.715 0 0 1-5.707 5.708zM43.915 55.203a5.464 5.464 0 0 0-5.458 5.458v271.432a5.464 5.464 0 0 0 5.458 5.458h193.099a5.463 5.463 0 0 0 5.457-5.458V60.66a5.464 5.464 0 0 0-5.457-5.458H43.915zM453.31 337.8H260.212a5.714 5.714 0 0 1-5.707-5.708V60.66a5.715 5.715 0 0 1 5.707-5.708H453.31a5.714 5.714 0 0 1 5.708 5.708v271.432a5.714 5.714 0 0 1-5.708 5.708zM260.212 55.203a5.463 5.463 0 0 0-5.457 5.458v271.432a5.463 5.463 0 0 0 5.457 5.458H453.31a5.464 5.464 0 0 0 5.458-5.458V60.66a5.464 5.464 0 0 0-5.458-5.458H260.212z"/><path style="fill:#f0f0f0" d="m156.066 304.361-13.846 11.581 19.73 28.674 15.764-8.795c8.325 7.969 18.152 14.485 29.185 18.984l-1.596 17.93 34.224 6.323 4.916-17.315c11.912-.258 23.418-2.836 34.039-7.303l11.583 13.847 28.671-19.73-8.793-15.764c7.969-8.326 14.485-18.151 18.983-29.184l17.929 1.595 6.324-34.224-17.316-4.917c-.259-11.912-2.834-23.419-7.301-34.042l13.846-11.58-19.728-28.673-15.764 8.792c-8.326-7.965-18.151-14.485-29.185-18.982l1.596-17.93-34.224-6.325-4.918 17.317c-11.91.26-23.419 2.836-34.04 7.301l-11.581-13.844-28.673 19.73 8.792 15.766c-7.967 8.323-14.483 18.148-18.984 29.183l-17.929-1.596-6.324 34.223 17.318 4.918c.259 11.912 2.835 23.417 7.302 34.04zm39.915-44.729c4.728-25.588 29.304-42.499 54.891-37.771 25.59 4.728 42.5 29.304 37.773 54.892-4.728 25.588-29.304 42.499-54.894 37.772-25.586-4.729-42.498-29.306-37.77-54.893zM384.886 318.829l10.819 1.999 1.553-5.473a29.39 29.39 0 0 0 10.761-2.309l3.661 4.378 9.063-6.238-2.78-4.983a29.379 29.379 0 0 0 6.001-9.225l5.667.505 1.999-10.818-5.473-1.554a29.356 29.356 0 0 0-2.309-10.76l4.377-3.661-6.237-9.064-4.983 2.779a29.407 29.407 0 0 0-9.226-6.001l.505-5.666-10.819-2-1.553 5.474a29.43 29.43 0 0 0-10.761 2.308l-3.661-4.376-9.064 6.238 2.78 4.984a29.38 29.38 0 0 0-6.001 9.224l-5.668-.505-1.999 10.819 5.474 1.554a29.383 29.383 0 0 0 2.307 10.76l-4.376 3.661 6.236 9.064 4.983-2.781a29.405 29.405 0 0 0 9.227 6.001l-.503 5.666zm-2.946-35.753c1.495-8.088 9.263-13.433 17.351-11.939 8.09 1.495 13.434 9.263 11.941 17.351-1.495 8.089-9.263 13.434-17.353 11.94-8.088-1.495-13.433-9.264-11.939-17.352zM83.251 317.483l8.241 1.522 1.183-4.169a22.389 22.389 0 0 0 8.197-1.759l2.789 3.335 6.904-4.752-2.117-3.796a22.372 22.372 0 0 0 4.571-7.027l4.316.384 1.523-8.241-4.169-1.184a22.384 22.384 0 0 0-1.759-8.197l3.335-2.789-4.751-6.905-3.796 2.117a22.383 22.383 0 0 0-7.028-4.571l.385-4.316-8.241-1.524-1.183 4.17a22.408 22.408 0 0 0-8.197 1.758l-2.789-3.334-6.904 4.751 2.117 3.796a22.378 22.378 0 0 0-4.571 7.027l-4.317-.384-1.523 8.241 4.17 1.184a22.391 22.391 0 0 0 1.757 8.197l-3.334 2.789 4.75 6.905 3.796-2.118a22.399 22.399 0 0 0 7.029 4.571l-.384 4.319zm-2.244-27.235c1.138-6.161 7.056-10.233 13.217-9.095 6.162 1.139 10.234 7.056 9.096 13.217-1.139 6.162-7.056 10.234-13.218 9.095-6.161-1.137-10.233-7.055-9.095-13.217zM230.403 133.856l6.235 1.152.895-3.155a16.93 16.93 0 0 0 6.202-1.331l2.11 2.523 5.224-3.595-1.602-2.872a16.943 16.943 0 0 0 3.459-5.317l3.266.291 1.152-6.235-3.154-.896a16.905 16.905 0 0 0-1.331-6.202l2.523-2.11-3.595-5.224-2.872 1.602a16.96 16.96 0 0 0-5.317-3.459l.291-3.266-6.235-1.153-.895 3.155a16.965 16.965 0 0 0-6.202 1.33l-2.11-2.522-5.224 3.595 1.602 2.872a16.917 16.917 0 0 0-3.458 5.317l-3.266-.291-1.152 6.235 3.155.895a16.93 16.93 0 0 0 1.33 6.202l-2.522 2.11 3.594 5.224 2.872-1.603a16.945 16.945 0 0 0 5.318 3.458l-.293 3.27zm-1.698-20.606a8.583 8.583 0 0 1 10-6.881 8.584 8.584 0 1 1-3.119 16.881 8.584 8.584 0 0 1-6.881-10zM384.083 197.495l4.159.768.597-2.104a11.294 11.294 0 0 0 4.136-.887l1.407 1.683 3.484-2.398-1.068-1.915a11.306 11.306 0 0 0 2.307-3.546l2.178.194.768-4.158-2.104-.597a11.255 11.255 0 0 0-.888-4.136l1.683-1.407-2.397-3.484-1.915 1.068a11.306 11.306 0 0 0-3.546-2.307l.194-2.178-4.159-.769-.597 2.104a11.315 11.315 0 0 0-4.136.887l-1.407-1.682-3.484 2.398 1.068 1.916a11.274 11.274 0 0 0-2.306 3.546l-2.179-.194-.768 4.158 2.104.597c.031 1.447.344 2.846.887 4.136l-1.682 1.407 2.397 3.484 1.915-1.069a11.29 11.29 0 0 0 3.547 2.306l-.195 2.179zm-1.132-13.743a5.725 5.725 0 1 1 11.259 2.08 5.725 5.725 0 0 1-11.259-2.08z"/><path style="fill:#f0f0f0" d="M333.351 335.352a19.713 19.713 0 0 0 1.548 7.218l-2.937 2.456 4.184 6.079 3.343-1.865a19.717 19.717 0 0 0 6.188 4.025l-.338 3.802 7.257 1.341 1.042-3.671a19.719 19.719 0 0 0 7.218-1.549l2.455 2.936 6.08-4.183-1.864-3.343a19.712 19.712 0 0 0 4.025-6.188l3.801.339 1.341-7.257-3.671-1.042a19.713 19.713 0 0 0-1.548-7.218l2.936-2.456-4.184-6.079-3.342 1.864a19.712 19.712 0 0 0-6.188-4.025l.338-3.801-7.257-1.341-1.042 3.672a19.727 19.727 0 0 0-7.219 1.548l-2.455-2.935-6.079 4.183 1.865 3.343a19.705 19.705 0 0 0-4.025 6.188l-3.802-.339-1.34 7.257 3.67 1.041zm10.011-2.266c1.003-5.425 6.214-9.011 11.64-8.008 5.425 1.002 9.011 6.214 8.009 11.639-1.003 5.426-6.213 9.011-11.639 8.009-5.426-1.004-9.012-6.215-8.01-11.64z"/><path style="fill:#e0e0e0" d="M152.11 202.705c.911 4.509-4.537 9.413-12.167 10.954-7.63 1.541-14.554-.865-15.464-5.373-.911-4.509 4.537-9.413 12.167-10.954 7.63-1.541 14.554.865 15.464 5.373z"/><path style="fill:#ebebeb" d="M155.056 186.535c.619-1.002.889-1.997.698-2.944-.894-4.427-11.033-6.114-22.645-3.769-11.612 2.345-20.3 7.835-19.406 12.262.191.946.826 1.758 1.786 2.442-.131.504-.168 1.001-.07 1.485.189.936.83 1.735 1.802 2.402a3.162 3.162 0 0 0-.087 1.524c.188.93.839 1.721 1.832 2.372-.17.528-.218 1.049-.116 1.554.187.926.848 1.71 1.868 2.347-.19.537-.256 1.067-.153 1.579.743 3.681 9.172 5.084 18.826 3.134 9.654-1.949 16.877-6.514 16.134-10.194-.104-.513-.37-.976-.754-1.397.693-.982.998-1.962.811-2.888-.102-.505-.348-.967-.71-1.387.662-.986.956-1.967.768-2.897a3.163 3.163 0 0 0-.671-1.372c.637-.992.917-1.978.729-2.913-.098-.482-.325-.926-.642-1.34z"/><path style="fill:#f5f5f5" d="M164.545 143.724c-4.326-21.422-25.903-34.96-47.343-29.069-18.498 5.083-30.388 23.611-27.352 42.553 1.974 12.311 9.588 22.185 19.703 27.555 1.835.975 3.112 2.762 3.323 4.829.01.101.026.201.046.301.908 4.495 11.203 6.209 22.995 3.827 11.792-2.381 20.615-7.956 19.707-12.452a3.416 3.416 0 0 0-.072-.286c-.609-2.012-.1-4.166 1.226-5.797 6.905-8.495 10.104-19.891 7.767-31.461z"/><path style="fill:#e0e0e0" d="M141.189 186.327a.456.456 0 0 1-.568-.414c-.043-.741-.929-17.463 6.273-25.475l-5.521 1.115a.454.454 0 0 1-.466-.188l-2.734-3.981-2.424 9.611a.477.477 0 0 1-.351.335.453.453 0 0 1-.454-.172l-6.035-8.009-2.641 8.59c-.049.158-.168.299-.345.312a.456.456 0 0 1-.44-.153l-5.734-6.854-.987 4.793a.432.432 0 0 1-.356.354l-5.942 1.201c3.016 2.146 12.606 9.759 14.928 21.258a.452.452 0 0 1-.356.536.454.454 0 0 1-.536-.356c-2.675-13.244-15.299-21.205-15.426-21.284a.456.456 0 0 1-.209-.468c.033-.183.174-.342.358-.365l6.708-1.355 1.116-5.422a.458.458 0 0 1 .333-.35h.002a.455.455 0 0 1 .461.149l5.802 6.934 2.657-8.642a.44.44 0 0 1 .357-.315.455.455 0 0 1 .442.175l5.999 7.962 2.438-9.666a.455.455 0 0 1 .817-.146l3.133 4.564 6.707-1.354a.454.454 0 0 1 .393.786c-8.047 7.169-7.069 25.641-7.058 25.827a.457.457 0 0 1-.341.467z"/><ellipse style="fill:#f5f5f5" cx="250" cy="416.238" rx="193.889" ry="11.323"/><path style="fill:#407bff" d="M369.384 150.555c0-5.856-3.059-11.148-7.984-14.949.16-.763.247-1.546.247-2.345 0-7.803-7.929-14.144-17.795-14.324-2.982-7.542-11.926-13.018-22.497-13.018-8.427 0-15.817 3.483-19.979 8.716a23.097 23.097 0 0 0-3.185-.223c-10.065 0-18.224 6.417-18.224 14.333 0 1.367.248 2.687.703 3.939-6.411 3.367-10.636 9.108-10.636 15.626 0 6.279 3.922 11.833 9.94 15.243-.001.067-.006.133-.006.201 0 7.683 7.687 13.953 17.342 14.315 5.324 5.199 13.481 8.529 22.63 8.529 6.423 0 12.356-1.643 17.165-4.419.81.087 1.636.135 2.476.135 10.065 0 18.224-6.417 18.224-14.333 0-.049-.004-.098-.005-.147 6.993-3.773 11.584-10.104 11.584-17.279zM269.191 192.66c0 1.309-1.518 2.37-3.391 2.37s-3.391-1.061-3.391-2.37c0-1.309 1.518-2.37 3.391-2.37s3.391 1.061 3.391 2.37zM292.667 187.025c0 3.789-4.409 6.86-9.848 6.86s-9.848-3.071-9.848-6.86 4.409-6.86 9.848-6.86 9.848 3.071 9.848 6.86z"/><path style="opacity:.7;fill:#fff;enable-background:new" d="M369.384 150.555c0-5.856-3.059-11.148-7.984-14.949.16-.763.247-1.546.247-2.345 0-7.803-7.929-14.144-17.795-14.324-2.982-7.542-11.926-13.018-22.497-13.018-8.427 0-15.817 3.483-19.979 8.716a23.097 23.097 0 0 0-3.185-.223c-10.065 0-18.224 6.417-18.224 14.333 0 1.367.248 2.687.703 3.939-6.411 3.367-10.636 9.108-10.636 15.626 0 6.279 3.922 11.833 9.94 15.243-.001.067-.006.133-.006.201 0 7.683 7.687 13.953 17.342 14.315 5.324 5.199 13.481 8.529 22.63 8.529 6.423 0 12.356-1.643 17.165-4.419.81.087 1.636.135 2.476.135 10.065 0 18.224-6.417 18.224-14.333 0-.049-.004-.098-.005-.147 6.993-3.773 11.584-10.104 11.584-17.279zM269.191 192.66c0 1.309-1.518 2.37-3.391 2.37s-3.391-1.061-3.391-2.37c0-1.309 1.518-2.37 3.391-2.37s3.391 1.061 3.391 2.37zM292.667 187.025c0 3.789-4.409 6.86-9.848 6.86s-9.848-3.071-9.848-6.86 4.409-6.86 9.848-6.86 9.848 3.071 9.848 6.86z"/><path style="fill:#407bff" d="M320.18 120.416c9.726 0 15.752 4.572 15.752 12.702 0 10.961-11.18 12.415-11.18 20.906H315.1c0-11.177 8.928-11.83 8.928-18.799 0-3.05-1.888-4.43-5.08-4.43-3.558 0-5.447 2.107-5.518 6.463h-9.944c.07-10.671 6.315-16.842 16.694-16.842zm5.807 45.37c0 3.7-2.612 6.315-6.242 6.315-3.629 0-6.171-2.615-6.171-6.315 0-3.703 2.542-6.245 6.171-6.245 3.629 0 6.242 2.542 6.242 6.245zM102.152 353.581s-6.528-7.77-10.706-4.146c-4.178 3.624-2.065 11.311 2.754 11.558 4.819.248 7.952-2.43 7.952-2.43v-4.982z"/><path style="opacity:.2;fill:#fff;enable-background:new" d="M102.152 353.581s-6.528-7.77-10.706-4.146c-4.178 3.624-2.065 11.311 2.754 11.558 4.819.248 7.952-2.43 7.952-2.43v-4.982z"/><path style="fill:#407bff" d="M128.787 333.875s5.484-5.744 8.878-4.77c3.395.974 3.041 14.697-7.488 9.141l-1.39-4.371z"/><path style="opacity:.3;fill:#fff;enable-background:new" d="M128.787 333.875s5.484-5.744 8.878-4.77c3.395.974 3.041 14.697-7.488 9.141l-1.39-4.371z"/><path style="fill:#407bff" d="M109.202 376.728s-18.018-24.649-3.395-29.643c14.623-4.994 17.235 19.832 13.056 26.743-4.177 6.911-9.661 2.9-9.661 2.9zM117.558 326.262s11.177-25.951-5.379-26.735c-16.556-.783-18.359 25.732.691 29.578l4.688-2.843z"/><path style="opacity:.3;fill:#fff;enable-background:new" d="M109.202 376.728s-18.018-24.649-3.395-29.643c14.623-4.994 17.235 19.832 13.056 26.743-4.177 6.911-9.661 2.9-9.661 2.9zM117.558 326.262s11.177-25.951-5.379-26.735c-16.556-.783-18.359 25.732.691 29.578l4.688-2.843z"/><path style="fill:#407bff" d="M113.593 347.51s-5.435-22.914 5.01-24.742c10.445-1.828 20.756 18.875-.851 29.284 0-.001-3.706-2.3-4.159-4.542z"/><path style="opacity:.2;fill:#fff;enable-background:new" d="M113.593 347.51s-5.435-22.914 5.01-24.742c10.445-1.828 20.756 18.875-.851 29.284 0-.001-3.706-2.3-4.159-4.542z"/><path style="fill:#407bff" d="M111.967 324.408c-6.235-4.555-10.549-13.358-6.877-20.775-.146.69-.332 1.44-.499 2.125-1.23 7.036 2.619 13.74 7.376 18.65zM108.001 302.137c7.126 1.392 10.385 9.145 9.524 15.793-.164.944-.3 1.885-.489 2.814.041-1.891.124-3.765-.064-5.64-.449-5.534-3.494-10.936-8.971-12.967zM120.662 324.408c4.376 1.552 6.896 6.542 6.533 11.052-.366 3.283-2.204 6.228-4.241 8.692a32.103 32.103 0 0 1-5.598 5.283c.92-.892 1.82-1.796 2.659-2.756 2.479-2.795 4.927-5.88 5.988-9.504 1.458-4.717-.904-10.49-5.341-12.767zM117.558 326.262c1.078 3.352 2.034 7.366.28 10.666-1.461 2.139-1.613 4.937-1.645 7.491-.022.886.016 1.773.059 2.666a20.19 20.19 0 0 1-.582-5.344c.02-1.808.429-3.754 1.454-5.26 1.615-3.089.842-6.875.434-10.219zM110.208 349.435c4.226 2.282 5.888 16.597 5.742 21.273a59.607 59.607 0 0 0-.45-2.77c-.801-4.58-1.632-9.175-2.842-13.662-.57-1.687-.932-3.738-2.45-4.841zM105.09 350.231c-2.022 6.672-.547 14.066 4.113 19.293-.641-.588-1.316-1.166-1.896-1.83-4.181-4.665-5.002-11.889-2.217-17.463zM133.04 336.674c1.917-.517 3.549-.985 4.952-2.393-.347 2.144-3.071 3.155-4.952 2.393zM131.921 332.887c.902-1.836 3.978-2.979 5.288-.979-1.843-.804-3.636.202-5.288.979zM99.169 354.741c-2.102-1.485-4.28-4.008-7.006-2.69 2.213-2.629 5.956.332 7.006 2.69zM99.169 358.564c-2.767 1.01-8.204 1.098-8.586-2.763 1.576 3.14 5.593 2.45 8.586 2.763z"/><path style="fill:#263238" d="M86.896 366.558h55.972l-4.674 35.812H91.57z"/><g style="opacity:.2"><path style="fill:#fafafa" d="m142.87 366.561-1.64 12.52-.1.79-.93 7.12-.24 1.85-.69 5.27-.55 4.22-.53 4.04H91.57l-.53-4.04-.55-4.22-.68-5.27-.25-1.85-.92-7.12-.11-.79-1.63-12.52z"/></g><path style="opacity:.2;fill:#fafafa" d="m139.27 394.111-.55 4.22H91.04l-.55-4.22zM140.2 386.991l-.24 1.85H89.81l-.25-1.85zM141.23 379.081l-.1.79H88.64l-.11-.79z"/><path style="fill:#263238" d="M371.428 348.868h11.67v23.934h-11.67z"/><path style="fill:#263238" d="M410.268 386.99c0-8.317-6.365-15.6-15.895-19.623v-5.049h-34.22v5.052c-9.529 4.023-15.895 11.305-15.895 19.62 0 3.86 1.38 7.5 3.81 10.7v4.24h58.39v-4.23c2.43-3.2 3.81-6.84 3.81-10.71z"/><path style="opacity:.6;fill:#fafafa" d="M410.268 386.99c0-8.317-6.365-15.6-15.895-19.623v-5.049h-34.22v5.052c-9.529 4.023-15.895 11.305-15.895 19.62 0 3.86 1.38 7.5 3.81 10.7v4.24h58.39v-4.23c2.43-3.2 3.81-6.84 3.81-10.71z"/><path style="fill:#263238" d="M395.233 367.17h-35.939a2.055 2.055 0 0 1-2.052-2.052v-55.612h1v55.612c0 .58.472 1.052 1.052 1.052h35.939c.58 0 1.052-.472 1.052-1.052v-55.612h1v55.612a2.055 2.055 0 0 1-2.052 2.052z"/><path style="fill:#407bff" d="M412.246 355.801h-69.965l15.347-59.42h39.271z"/><path style="opacity:.2" d="M348.068 397.69h58.39v4.24h-58.39zM360.154 362.319h34.22v5.049h-34.22z"/><path style="opacity:.6;fill:#fafafa" d="M412.246 355.801h-69.965l15.347-59.42h39.271z"/><path style="fill:#dc897c" d="M268.939 269.805c8.866 11.506 18.309 23.592 29.749 32.343 2.52 1.837 4.657 3.022 6.775 3.65.171.057-.033.142-.206.283-.105.121-.113.12-.112.196-.087.063-.316.28-.398.357-.961.931-1.768 2.398-1.782 3.677.005.278.059.258.059.076-.613-4.592-3.399-9.128-5.764-13.415-9.545-16.132-21.562-31.199-33.092-46.198l9.03-8.826c10.216 8.676 19.603 17.831 28.603 27.766 6.878 7.699 13.606 15.778 18.819 25.069 5.192 8.884 8.291 21.497-.944 29.326-3.86 3.401-9.681 5.404-14.594 5.305-17.5-.238-33.497-16.733-44.227-28.593-4.555-5.225-8.871-10.681-12.794-16.39l20.878-14.626z"/><path style="fill:#e4897b" d="m243.503 231.383 10.545-.51a5.612 5.612 0 0 1 3.323.896l16.34 10.587-2.682 11.389c-10.179 6.425-18.87.524-21.529-1.667a5.563 5.563 0 0 0-2.107-1.081l-5.786-1.545a5.614 5.614 0 0 1-4.136-5.992l.717-7.039a5.617 5.617 0 0 1 5.315-5.038z"/><path style="fill:#407bff" d="m299.917 302.129-10.575 33.709s-1.189-.628-3.129-1.716c-5.114-2.871-15.453-8.893-23.09-14.859-4.441-3.465-7.962-6.908-9.016-9.7-3.544-9.409 17.584-42.737 17.584-42.737 6.639 1.66 14.702 13.704 14.702 13.704s10.978 15.498 13.524 21.599z"/><path style="opacity:.2" d="M286.213 334.122c-5.114-2.871-15.453-8.893-23.09-14.859a60.186 60.186 0 0 1 1.088-14.186c.001.001 16.979 9.623 22.002 29.045z"/><path style="fill:#263238" d="M271.692 266.838s20.476 52.766.668 150.892l-93.373-.226c-.609-14.335 5.882-81.433-7.779-149.002 0 0 3.831-4.678 33.952-6.672 11.919-.789 29.206-.885 39.692.098 13.824 1.295 26.84 4.91 26.84 4.91z"/><path style="opacity:.6;fill:#fafafa" d="M280.786 348.6a367.384 367.384 0 0 1-.549 11.034 452.735 452.735 0 0 1-.718 9.431 377.819 377.819 0 0 1-1.245 11.842 418.05 418.05 0 0 1-1.301 10.126 448.282 448.282 0 0 1-2.007 12.739 461.215 461.215 0 0 1-2.602 13.961l-93.379-.224c-.135-3.117.067-8.736.325-16.305.112-3.028.224-6.381.325-10.003.079-2.635.146-5.428.202-8.343a714.986 714.986 0 0 0 .157-18.795c-.011-3.409-.056-6.93-.134-10.541a535.31 535.31 0 0 0-.213-8.175 545.656 545.656 0 0 0-1.895-31.063c-1.346-14.814-3.42-30.289-6.549-45.787 0 0 3.835-4.676 33.956-6.672 11.92-.785 29.201-.886 39.697.101 13.815 1.301 26.835 4.912 26.835 4.912s10.956 28.215 9.095 81.762z"/><path style="opacity:.2" d="M189.381 309.979s-.83 22.282-9.734 35.369a545.656 545.656 0 0 0-1.895-31.063c3.644-2.77 7.614-4.43 11.629-4.306z"/><g style="opacity:.6"><path style="fill:#fafafa" d="M280.786 348.6a367.384 367.384 0 0 1-.549 11.034l-9.801 11.539-14.074-16.563-14.062 16.563-14.074-16.563-14.062 16.563-14.074-16.563-14.062 16.563-6.033-7.11c-.011-3.409-.056-6.93-.134-10.541l6.168 7.256 14.062-16.563 14.073 16.563 14.062-16.563 14.074 16.563 14.062-16.563 14.074 16.563 10.35-12.178z"/></g><g style="opacity:.6"><path style="fill:#fafafa" d="M279.519 369.065a377.819 377.819 0 0 1-1.245 11.842l-7.839 9.24-14.074-16.563-14.062 16.563-14.074-16.563-14.062 16.563-14.073-16.563-14.062 16.563-6.19-7.289c.067-3.241.123-6.65.146-10.216l6.044 7.11 14.062-16.563 14.073 16.563 14.062-16.563 14.074 16.563 14.062-16.563 14.074 16.563 9.084-10.687z"/></g><g style="opacity:.6"><path style="fill:#fafafa" d="M276.973 391.033a448.282 448.282 0 0 1-2.007 12.739l-4.531 5.338-14.074-16.552-14.062 16.552-14.074-16.552-14.062 16.552-14.073-16.552-14.062 16.552-6.717-7.906c.112-3.028.224-6.381.325-10.003l6.392 7.525 14.062-16.563 14.073 16.563 14.062-16.563 14.074 16.563 14.062-16.563 14.074 16.563 6.538-7.693z"/></g><path style="fill:#e4897b" d="M203.958 220.644c3.684 12.482 8.355 35.547.253 44.865 12.668 4.036 21.787 6.704 32.991 15.022 2.942-8.155 6.528-18.724 6.528-18.724-14.497-2.057-15.116-12.612-13.572-22.723l-26.2-18.44z"/><path style="opacity:.2" d="m214.64 228.17 15.506 10.906c-.374 2.394-.612 4.808-.561 7.129-5.49-.275-13.489-5.525-14.595-11.142-.551-2.803-.687-5.533-.35-6.893z"/><path style="fill:#407bff" d="m193.355 262.784 8.944-8.417 23.977 8.236 10.48 16.107 3.917-16.325 5.412-4.893 9.493 5.806-1.466 10.356-6.867-3.362-8.284 13.569-18.533-10.878-5.169 4.954z"/><path style="opacity:.2" d="m238.961 283.861 4.838-16.96 10.313 6.753-6.867-3.362zM238.961 283.861l-16.336-16.002-7.366 10.078 5.169-4.954z"/><path style="fill:#dc897c" d="M199.456 295.497c5.968 7.234 14.204 17.272 20.285 24.17 7.253 8.063 14.462 16.621 23.225 22.802.344.215-.05-.001-.214-.029a.969.969 0 0 0-.288-.057c-.084.007-.011.02-.012.049 3.94.868 8.373-.055 12.577-.623 12.834-2.159 25.453-5.79 38.299-9.097l5.052 11.572c-4.865 2.965-9.724 5.543-14.762 8.017-12.611 5.931-35.63 16.621-49.559 11.381-5.39-2.325-9.963-5.71-14.27-9.161-6.729-5.499-12.929-11.594-18.796-17.798a325.9 325.9 0 0 1-16.494-18.938 241.235 241.235 0 0 1-5.19-6.667l20.147-15.621z"/><path style="fill:#407bff" d="M162.939 280.06c-10.231 32.416 35.733 64.163 35.733 64.163l24.556-27.922s-10.821-20.024-23.075-37.778c-12.838-18.602-31.826-15.535-37.214 1.537z"/><path style="fill:#e4897b" d="m291.33 334.236 17.279-17.935 13.066 17.416s-10.316 14.235-24.345 10.564l-6-10.045z"/><path style="fill:#e4897b" d="m325.46 310.803 6.631 15.313-10.417 7.602-13.066-17.417z"/><path style="fill:#263238" d="M237.347 174.253c8.897 3.486 14.994 27.732 4.193 33.566-10.801 5.833-21.044-40.169-4.193-33.566z"/><path style="fill:#e4897b" d="M199.025 202.78c4.609 16.963 6.44 27.094 16.973 34.403 15.843 10.994 35.505-.5 36.077-18.317.515-16.037-7.108-41.082-25.402-45.016-18.023-3.876-32.256 11.967-27.648 28.93z"/><path style="fill:#263238" d="m214.182 180.925-1.883-14.949c-3.934 1.96-8.147 2.933-12.053 2.261-17.966-3.09-30.848 9.103-22.007 18.54-8.139 4.131-2.823 15.309 3.217 22.277 8.391 9.683 16.962 13.969 22.404 9.028 4.963-2.815 4.725-20.568 2.631-27.025-3.155-9.732 7.691-10.132 7.691-10.132z"/><path style="fill:#e4897b" d="M195.989 220.883c3.255 3.529 7.589 5.487 11.217 5.917 5.457.646 6.418-4.428 3.421-9.128-2.697-4.231-8.787-9.665-13.552-8.139-4.694 1.503-4.808 7.315-1.086 11.35z"/><path style="fill:#263238" d="M225.055 203.095c.289 1.396 1.267 2.4 2.185 2.243.918-.157 1.428-1.416 1.139-2.812-.289-1.396-1.268-2.4-2.185-2.243-.919.158-1.428 1.416-1.139 2.812zM240.927 200.379c.289 1.396 1.267 2.4 2.185 2.243.918-.157 1.428-1.416 1.139-2.812-.289-1.396-1.268-2.4-2.186-2.243-.917.158-1.427 1.416-1.138 2.812z"/><path style="fill:#de5753" d="M237.146 201.937s4.861 7.507 9.18 10.791c-2.007 2.73-6.449 2.4-6.449 2.4l-2.731-13.191z"/><path style="fill:#263238" d="M230.144 195.776a.838.838 0 0 1 .188 1.43c-3.604 2.814-7.262 1.515-7.415 1.458-.423-.11-.657-.639-.496-1.074a.837.837 0 0 1 1.073-.497c.152.053 2.978 1.005 5.809-1.206a.83.83 0 0 1 .841-.111zM245.506 192.775a.835.835 0 0 1-.76-.185c-2.848-2.523-5.88-1.814-5.91-1.807a.836.836 0 0 1-.406-1.624l.005-.001c.159-.039 3.923-.921 7.419 2.179a.837.837 0 0 1-.348 1.438zM199.297 170.209s12.425-23.972 35.546-19.094c0 0-4.425.984-6.304 2.673 0 0 20.183-1.755 26.474 12.418l-3.865-2.262s5.145 11.743-.874 19.486l-1.131-3.893s-8.259 10.257-20.591 7.346l4.257-2.167s-21.237-.65-26.504-6.061c-5.267-5.412-7.008-8.446-7.008-8.446zM241.968 222.463a.672.672 0 0 1-.494-.215c-3.136-3.386-8.623-2.091-8.678-2.078a.673.673 0 0 1-.323-1.307c.256-.064 6.305-1.504 9.987 2.469a.673.673 0 0 1-.492 1.131z"/><path style="fill:#407bff" d="M76.802 401.931h338.976v15.803H76.802z"/><path style="opacity:.2;fill:#fafafa" d="M76.802 401.931h338.976v15.803H76.802z"/><path style="fill:#407bff" d="M420.847 401.931H72.699a3.951 3.951 0 0 0 0 7.902h348.148a3.952 3.952 0 0 0 0-7.902z"/><path style="opacity:.4;fill:#fafafa" d="M420.847 401.931H72.699a3.951 3.951 0 0 0 0 7.902h348.148a3.952 3.952 0 0 0 0-7.902z"/></svg>