<svg xmlns="http://www.w3.org/2000/svg" viewBox="0 0 500 500" style="enable-background:new 0 0 500 500" xml:space="preserve"><path style="fill:#f5f5f5" d="M292.29 459.706c-1.227-1.052-3.966-4.387-1.854-8.267.774-1.422 2.418-2.126 3.906-2.752 1.488-.627 3.052-1.171 4.283-2.219 2.322-1.976 2.963-5.258 4.504-7.894 1.77-3.025 5.073-5.292 8.563-5.134 3.996.182 7.329 3.446 8.84 7.167 1.511 3.721 1.564 7.854 1.595 11.873.017 2.222-.081 4.727-1.713 6.228-1.504 1.384-3.769 1.401-5.808 1.338l-21.839-.671"/><path style="fill:#e0e0e0" d="M334.06 399.652h-57.434l10.346 61.689a6.888 6.888 0 0 0 4.904 5.492c.066.021.134.036.201.055.171.044.336.102.511.132.379.078.77.118 1.168.134l.009.059.28-.044h25.599c.482 0 .951-.05 1.407-.14a6.916 6.916 0 0 0 5.81-6.029l4.987-42.505.225-1.69h-.027l1.975-16.833.039-.32zm-10.835 39.35h-5.894l.595-17.904h6.829l-1.53 17.904zm2.102-17.904h5.643l-2.101 17.904h-5.072l1.53-17.904zm-16.839 37.751-.358-15.554h8.488l-.517 15.554h-7.613zm-9.175-15.553h8.247l.358 15.554h-7.397l-1.208-15.554zm.637 15.553h-6.915c-.657-4.199-1.512-9.657-2.438-15.554h8.143l1.21 15.554zm-.971-19.847-1.391-17.904h9.461l.412 17.904h-8.482zm9.052 0-.412-17.904h9.736l-.595 17.904h-8.729zm-.511-22.197-.382-16.58h10.91l-.551 16.58h-9.977zm-.57 0h-9.696l-1.289-16.58h10.603l.382 16.58zm-10.268 0h-10.259c-.363-2.29-.708-4.458-1.019-6.408-1.07-6.704-1.473-9.224-1.696-10.173h11.684l1.29 16.581zm.334 4.293 1.391 17.904h-8.484l-.863-5.493c-.665-4.226-1.331-8.451-1.957-12.41h9.913zm-7.67 17.904h-5.542l-3.003-17.904h5.724c.875 5.533 1.845 11.691 2.821 17.904zm.675 4.294c.845 5.382 1.676 10.689 2.437 15.554h-5.325l-2.609-15.554h5.497zm26.651 15.553.517-15.554h5.67l-1.329 15.554h-4.858zm1.397-42.044.551-16.58h7.919l-1.416 16.58h-7.054zm-34.903-16.581c.228 1.199 1.276 7.723 2.68 16.58h-5.765l-2.781-16.58h5.866zm43.375 58.625h-4.439l1.329-15.554h4.935l-1.825 15.554zm4.933-42.044h-5.78l1.417-16.58h6.308l-1.945 16.58z"/><path style="fill-rule:evenodd;clip-rule:evenodd;fill:#e0e0e0" d="M217.878 125.95a33.589 33.589 0 0 1-.378 8.909l6.544 5.052-5.761 12.406-8.082-1.739a33.506 33.506 0 0 1-6.563 6.038l1.055 8.197-12.847 4.698-4.484-6.942a33.427 33.427 0 0 1-8.91-.379l-5.053 6.544-12.405-5.76 1.738-8.083a33.537 33.537 0 0 1-6.037-6.564l-8.197 1.056-4.7-12.847 6.943-4.484a33.461 33.461 0 0 1 .378-8.909l-6.545-5.054 5.761-12.406 8.083 1.74a33.591 33.591 0 0 1 6.563-6.037l-1.054-8.196 12.846-4.699 4.483 6.942a33.469 33.469 0 0 1 8.91.378l5.053-6.545 12.405 5.76-1.739 8.084a33.514 33.514 0 0 1 6.038 6.564l8.196-1.055 4.699 12.846-6.94 4.485zm-19.574-1.406c-2.784-7.61-11.21-11.524-18.822-8.74-7.611 2.784-11.523 11.212-8.74 18.822 2.784 7.611 11.211 11.524 18.822 8.74 7.611-2.785 11.524-11.211 8.74-18.822z"/><path style="fill-rule:evenodd;clip-rule:evenodd;fill:#f5f5f5" d="M212.899 51.271a22.175 22.175 0 0 1-.25 5.888l4.326 3.34-3.808 8.2-5.342-1.149a22.144 22.144 0 0 1-4.338 3.991l.697 5.418-8.491 3.105-2.964-4.588a22.098 22.098 0 0 1-5.889-.25l-3.34 4.326-8.199-3.807 1.149-5.343a22.147 22.147 0 0 1-3.99-4.339l-5.418.698-3.107-8.492 4.589-2.964a22.1 22.1 0 0 1 .25-5.889l-4.326-3.34 3.808-8.2 5.343 1.15a22.205 22.205 0 0 1 4.338-3.991l-.697-5.417 8.491-3.106 2.963 4.589a22.105 22.105 0 0 1 5.89.25l3.34-4.326 8.199 3.807-1.149 5.343a22.174 22.174 0 0 1 3.991 4.338l5.417-.697 3.106 8.491-4.589 2.964zm-12.938-.929c-1.84-5.03-7.41-7.617-12.441-5.777-5.031 1.84-7.617 7.41-5.777 12.441 1.84 5.031 7.41 7.617 12.441 5.777 5.031-1.841 7.617-7.41 5.777-12.441zM271.349 149.826a17.463 17.463 0 0 1-.197 4.642l3.41 2.633-3.002 6.465-4.212-.906a17.502 17.502 0 0 1-3.42 3.147l.549 4.272-6.694 2.448-2.337-3.617a17.429 17.429 0 0 1-4.643-.197l-2.633 3.41-6.464-3.002.906-4.212a17.503 17.503 0 0 1-3.146-3.421l-4.271.55-2.449-6.695 3.618-2.337a17.429 17.429 0 0 1 .197-4.643l-3.411-2.633 3.002-6.465 4.212.907a17.526 17.526 0 0 1 3.42-3.146l-.549-4.271 6.694-2.449 2.336 3.618a17.427 17.427 0 0 1 4.643.197l2.633-3.41 6.464 3.002-.906 4.212a17.467 17.467 0 0 1 3.146 3.42l4.271-.55 2.449 6.694-3.616 2.337zm-10.201-.733a7.646 7.646 0 0 0-9.808-4.554 7.646 7.646 0 1 0 9.808 4.554z"/><path style="fill-rule:evenodd;clip-rule:evenodd;fill:#ebebeb" d="M265.008 95.907a20.013 20.013 0 0 1-.226 5.319l3.907 3.017-3.44 7.407-4.826-1.038a20.005 20.005 0 0 1-3.919 3.605l.63 4.894-7.67 2.805-2.677-4.145a19.98 19.98 0 0 1-5.32-.226l-3.017 3.907-7.407-3.439 1.038-4.826a20 20 0 0 1-3.604-3.919l-4.894.63-2.806-7.671 4.145-2.677a19.971 19.971 0 0 1 .226-5.319l-3.908-3.017 3.44-7.407 4.827 1.039a20.058 20.058 0 0 1 3.918-3.605l-.629-4.894 7.67-2.806 2.677 4.145a19.937 19.937 0 0 1 5.32.226l3.017-3.908 7.407 3.439-1.038 4.826a20.005 20.005 0 0 1 3.605 3.919l4.894-.63 2.806 7.67-4.146 2.679zm-11.688-.84a8.762 8.762 0 1 0-16.455 6.02 8.762 8.762 0 0 0 16.455-6.02zM83.459 225.055a20.013 20.013 0 0 1-.226 5.319l3.907 3.017-3.44 7.407-4.826-1.038a20.005 20.005 0 0 1-3.919 3.605l.63 4.894-7.67 2.805-2.677-4.145a19.98 19.98 0 0 1-5.32-.226l-3.017 3.907-7.406-3.439 1.038-4.826a20 20 0 0 1-3.604-3.919l-4.894.63-2.806-7.671 4.145-2.677a19.971 19.971 0 0 1 .226-5.319l-3.908-3.017 3.44-7.407 4.826 1.039a20.058 20.058 0 0 1 3.918-3.605l-.629-4.894 7.67-2.806 2.677 4.145a19.937 19.937 0 0 1 5.32.226l3.017-3.908 7.407 3.439-1.038 4.827a20.005 20.005 0 0 1 3.605 3.919l4.894-.63 2.805 7.67-4.145 2.678zm-11.688-.84a8.762 8.762 0 1 0-16.455 6.02 8.762 8.762 0 0 0 16.455-6.02z"/><path style="fill:#ebebeb" d="m418.404 84.874 7.699 24.354h-5.574l-2.457-8.398z"/><path style="fill:#ebebeb" d="M318.984 109.206h114.971v6.873H318.984z"/><path style="fill:#ebebeb" d="M335.007 114.573h5.562v10.549h-5.562zM406.792 114.573h5.562v10.549h-5.562zM322.889 77.348s-5.16 3.931-.216 9.125a.447.447 0 0 0 .327.138l45.081-.263s3.85-4.318.655-9.293l-45.847.293z"/><path style="fill:#e0e0e0" d="M358.117 81.451c0 .05-5.614.091-12.537.091-6.925 0-12.538-.041-12.538-.091s5.612-.091 12.538-.091c6.924 0 12.537.04 12.537.091zM351.105 83.082c0 .05-2.639.091-5.894.091-3.256 0-5.895-.041-5.895-.091 0-.05 2.639-.091 5.895-.091 3.255 0 5.894.04 5.894.091zM362.727 86.203c-.029-.008.099-.518.239-1.353.141-.834.271-1.999.26-3.289a19.328 19.328 0 0 0-.322-3.284c-.155-.832-.293-1.34-.264-1.348.012-.004.058.12.131.347.075.226.165.559.26.975a15.976 15.976 0 0 1 .062 6.622c-.086.418-.17.752-.241.98-.069.229-.113.354-.125.35zM366.091 76.998c.011-.006.082.111.201.328.061.108.132.242.2.404.07.161.159.341.23.551.161.413.309.922.429 1.496.11.576.187 1.219.196 1.897a10.9 10.9 0 0 1-.166 1.9 9.573 9.573 0 0 1-.405 1.503c-.068.211-.154.393-.221.555a3.778 3.778 0 0 1-.194.407c-.115.219-.184.337-.196.331-.031-.015.22-.501.488-1.334.137-.415.262-.922.362-1.491.09-.57.151-1.203.149-1.87a11.749 11.749 0 0 0-.179-1.867 10.907 10.907 0 0 0-.385-1.484c-.281-.829-.54-1.31-.509-1.326zM330.002 86.263c-.011.007-.085-.101-.21-.301a3.105 3.105 0 0 1-.211-.376c-.074-.151-.167-.319-.241-.518a7.959 7.959 0 0 1-.44-1.422 9.115 9.115 0 0 1-.175-1.816c.013-.649.1-1.263.223-1.811a7.92 7.92 0 0 1 .478-1.41c.079-.197.177-.363.255-.512.076-.15.153-.272.221-.37.131-.197.207-.302.218-.296.031.019-.259.455-.575 1.228-.161.385-.31.86-.433 1.397a9.664 9.664 0 0 0-.205 1.776c-.005.636.06 1.239.157 1.781a8.75 8.75 0 0 0 .395 1.408c.296.781.575 1.224.543 1.242zM325.135 87.363c-.011.007-.092-.115-.232-.342a3.82 3.82 0 0 1-.235-.423c-.083-.17-.188-.359-.273-.582a9.546 9.546 0 0 1-.516-1.591 10.942 10.942 0 0 1-.254-2.034c-.012-.729.056-1.422.164-2.044.12-.619.273-1.168.445-1.613.075-.226.171-.42.247-.593.074-.174.15-.318.216-.433.129-.233.205-.358.216-.352.033.017-.256.53-.558 1.421-.155.444-.293.988-.401 1.599a11.761 11.761 0 0 0-.147 2.011c.02.716.111 1.394.236 2.002.136.605.298 1.143.472 1.579.341.877.652 1.377.62 1.395z"/><path style="fill:#ebebeb" d="M366.427 100.077v8.627h-16.693v-8.627h16.693z"/><path style="fill:#e0e0e0" d="m312.515 104.47.01.229c.135 2.61 2.352 4.629 4.966 4.629h49.715v-.624h-11.802a4.313 4.313 0 0 1 0-8.626h11.802v-.917l-49.73.168c-2.808.009-5.064 2.336-4.961 5.141z"/><path style="fill:#e0e0e0" d="M366.427 104.506c0 .05-3.432.091-7.665.091-4.235 0-7.666-.041-7.666-.091s3.431-.091 7.666-.091c4.233 0 7.665.04 7.665.091zM366.185 106.45c0 .05-3.248.091-7.253.091-4.007 0-7.254-.041-7.254-.091 0-.05 3.247-.091 7.254-.091 4.006 0 7.253.04 7.253.091zM366.427 108.227c0 .05-2.92.091-6.521.091-3.603 0-6.522-.041-6.522-.091s2.919-.091 6.522-.091c3.601 0 6.521.041 6.521.091zM366.427 102.759c0 .05-3.362.091-7.508.091-4.148 0-7.509-.041-7.509-.091s3.361-.091 7.509-.091c4.146 0 7.508.041 7.508.091zM366.185 101.013c0 .05-2.992.091-6.683.091-3.692 0-6.684-.041-6.684-.091 0-.05 2.992-.091 6.684-.091 3.691 0 6.683.04 6.683.091z"/><path style="fill:#f5f5f5" d="M318.538 99.473c.028.028-.486.417-1.056 1.256-.569.825-1.151 2.163-1.134 3.71a6.585 6.585 0 0 0 1.222 3.683c.59.826 1.112 1.202 1.085 1.231-.006.008-.139-.079-.359-.265a5.68 5.68 0 0 1-.83-.89 6.434 6.434 0 0 1-1.3-3.757 6.431 6.431 0 0 1 1.211-3.786c.304-.417.594-.719.809-.909.214-.191.345-.281.352-.273z"/><path style="fill:#f5f5f5" d="M316.857 99.289c.028.028-.486.417-1.056 1.256-.569.825-1.151 2.163-1.134 3.71a6.585 6.585 0 0 0 1.222 3.683c.59.825 1.112 1.202 1.085 1.231-.006.008-.139-.079-.359-.265a5.726 5.726 0 0 1-.831-.89 6.434 6.434 0 0 1-1.3-3.757 6.431 6.431 0 0 1 1.211-3.786c.303-.417.594-.719.809-.909.215-.191.346-.281.353-.273zM350.637 99.473c.028.028-.486.417-1.056 1.256-.569.825-1.151 2.163-1.134 3.71a6.585 6.585 0 0 0 1.222 3.683c.59.826 1.112 1.202 1.085 1.231-.006.008-.139-.079-.359-.265a5.726 5.726 0 0 1-.831-.89 6.434 6.434 0 0 1-1.3-3.757 6.431 6.431 0 0 1 1.211-3.786c.304-.417.594-.719.809-.909.216-.191.347-.281.353-.273z"/><path style="fill:#f5f5f5" d="M348.956 99.289c.028.028-.486.417-1.056 1.256-.569.825-1.151 2.163-1.134 3.71a6.585 6.585 0 0 0 1.222 3.683c.59.825 1.113 1.202 1.086 1.231-.006.008-.139-.079-.359-.265a5.726 5.726 0 0 1-.831-.89 6.434 6.434 0 0 1-1.3-3.757 6.431 6.431 0 0 1 1.211-3.786c.303-.417.594-.719.809-.909.215-.191.346-.281.352-.273zM324.196 105.683l-.047-3.508c-.004-.306-.01-.62-.123-.903-.114-.284-.361-.535-.666-.562-.439-.194-1.124.172-1.431.678-.307.506-.341 1.127-.345 1.719a24.66 24.66 0 0 0 .135 2.771c.046.438.108.887.326 1.269.219.382.632.684 1.07.643.435-.04.784-.405.937-.814.153-.408.149-.857.144-1.293zM343.504 104.674c0 .05-3.594.091-8.026.091-4.434 0-8.027-.041-8.027-.091s3.593-.091 8.027-.091c4.432 0 8.026.041 8.026.091zM320.865 99.128l-.092-8.177h4.452l.153 8.177z"/><path style="fill:#e0e0e0" d="M324.962 92.406c0 .05-.926.091-2.068.091-1.143 0-2.069-.041-2.069-.091 0-.05.926-.091 2.069-.091 1.142 0 2.068.041 2.068.091zM324.962 93.668c0 .05-.926.091-2.068.091-1.143 0-2.069-.041-2.069-.091 0-.05.926-.091 2.069-.091 1.142 0 2.068.041 2.068.091zM324.962 94.93c0 .05-.926.091-2.068.091-1.143 0-2.069-.041-2.069-.091s.926-.091 2.069-.091c1.142 0 2.068.041 2.068.091zM324.962 96.192c0 .05-.926.091-2.068.091-1.143 0-2.069-.041-2.069-.091s.926-.091 2.069-.091c1.142 0 2.068.041 2.068.091zM324.962 97.454c0 .05-.926.091-2.068.091-1.143 0-2.069-.041-2.069-.091s.926-.091 2.069-.091c1.142 0 2.068.041 2.068.091z"/><path style="fill:#ebebeb" d="M320.537 90.734h49.334c.609 2.708.523 5.688 0 8.839h-49.123v-.601h3.002c.783 0 1.418-.635 1.418-1.417v-4.891c0-.783-.635-1.418-1.418-1.418h-3.212v-.512z"/><path style="fill:#fafafa" d="M332.2 95.159h.823c.031 0 .061.007.089.022a.167.167 0 0 1 .088.155.17.17 0 0 1-.007.053 3.26 3.26 0 0 1-.056.21 2.356 2.356 0 0 1-.515.932c-.227.242-.461.363-.702.363a.669.669 0 0 1-.099-.007c-.224-.034-.411-.169-.56-.405-.164-.264-.246-.594-.246-.991 0-.233.032-.468.098-.706.104-.384.268-.701.489-.954.231-.262.479-.394.741-.394.111 0 .214.023.312.071.213.104.373.305.48.601a.174.174 0 0 1-.004.17.167.167 0 0 1-.153.088.215.215 0 0 1-.055-.008.168.168 0 0 1-.113-.111l-.009-.016a.938.938 0 0 0-.099-.195c-.108-.157-.239-.235-.394-.235a.463.463 0 0 0-.272.099c-.173.124-.323.339-.449.646-.13.316-.195.625-.195.929 0 .292.047.535.142.73.105.215.248.323.43.323.122-.001.255-.081.398-.24a2.2 2.2 0 0 0 .423-.765c-.379 0-.576-.002-.591-.007-.128-.021-.194-.087-.197-.199a.19.19 0 0 1 .018-.06c.032-.066.094-.099.185-.099zM335.001 93.552a.491.491 0 0 1 .022.06c.035.121.228 1.14.581 3.057a.136.136 0 0 1 .008.044.184.184 0 0 1-.024.09c-.035.06-.084.09-.147.09l-.028-.002a.161.161 0 0 1-.136-.122l-.196-1.016h-1.013l-.487 1.019a.26.26 0 0 1-.016.034c-.046.058-.097.086-.153.086a.172.172 0 0 1-.096-.029.17.17 0 0 1-.081-.148c0-.017.004-.035.011-.053a152.625 152.625 0 0 1 1.423-3.076c.04-.081.097-.122.171-.124.07.004.124.033.161.09zm-.221.684-.548 1.153h.774l-.226-1.153zM337.753 96.894h-1.487a.171.171 0 0 1-.095-.029c-.043-.031-.071-.093-.084-.186v-.002c0-.06.137-1.075.41-3.044a.443.443 0 0 1 .009-.065c.031-.072.084-.109.16-.109.03 0 .057.007.082.02a.165.165 0 0 1 .093.157c-.013.134-.047.412-.101.834-.17 1.299-.259 1.986-.266 2.058h1.264c.034 0 .066.006.095.018.075.031.113.086.113.166a.19.19 0 0 1-.009.058c-.026.068-.087.11-.184.124zM339.786 93.552a.491.491 0 0 1 .022.06c.035.121.228 1.14.581 3.057a.136.136 0 0 1 .008.044.184.184 0 0 1-.024.09c-.035.06-.084.09-.147.09l-.028-.002a.161.161 0 0 1-.136-.122l-.196-1.016h-1.013l-.487 1.019a.26.26 0 0 1-.016.034c-.046.058-.097.086-.153.086a.174.174 0 0 1-.096-.029.17.17 0 0 1-.081-.148c0-.017.004-.035.011-.053a152.625 152.625 0 0 1 1.423-3.076c.04-.081.097-.122.171-.124.07.004.124.033.161.09zm-.221.684-.548 1.153h.774l-.226-1.153zM342.155 95.307l.269.745c.153.424.23.647.23.671 0 .032-.01.062-.029.09a.169.169 0 0 1-.149.081c-.066-.001-.115-.041-.147-.12l-.028-.075a19.341 19.341 0 0 1-.398-1.048l-.841 1.15c-.047.061-.099.092-.157.093a.191.191 0 0 1-.092-.024.163.163 0 0 1-.084-.149l.002-.037a.427.427 0 0 1 .088-.144c.282-.364.593-.798.935-1.302l-.103-.281c-.316-.848-.474-1.286-.474-1.314 0-.033.007-.063.022-.091a.155.155 0 0 1 .144-.089.18.18 0 0 1 .166.098l.496 1.338.992-1.35a.196.196 0 0 1 .158-.084c.029 0 .056.006.081.02.057.032.086.085.086.158a.222.222 0 0 1-.018.082l-1.149 1.582zM345.834 93.475c.028 0 .055.006.082.02a.174.174 0 0 1 .095.153 254.988 254.988 0 0 1-.403 3.116 1.894 1.894 0 0 1-.319.812c-.238.323-.566.485-.987.485-.136 0-.294-.042-.476-.126-.254-.118-.428-.271-.524-.46a.194.194 0 0 1-.02-.086c0-.031.008-.061.024-.089a.167.167 0 0 1 .153-.088.172.172 0 0 1 .135.073c.22.287.474.432.761.434.228-.001.425-.101.591-.3.187-.228.297-.54.328-.935a.893.893 0 0 1-.852.4c-.227-.033-.415-.168-.564-.405-.165-.264-.248-.594-.248-.991 0-.18.008-.366.025-.558.028-.301.095-.728.201-1.281a.189.189 0 0 1 .016-.051c.031-.081.084-.121.159-.121a.17.17 0 0 1 .086.024c.059.034.088.081.088.141 0 .091-.027.318-.082.678-.078.531-.118.876-.118 1.037 0 .33.044.599.133.806.102.242.249.363.44.363a.258.258 0 0 0 .06-.007c.144-.029.293-.148.445-.356.174-.239.296-.512.367-.82l.226-1.695a.217.217 0 0 1 .022-.075.166.166 0 0 1 .156-.098z"/><path style="fill:#f5f5f5" d="M368.018 99.688c-.05 0-.091-2.03-.091-4.534 0-2.505.041-4.534.091-4.534s.091 2.03.091 4.534-.041 4.534-.091 4.534z"/><path style="fill:#e0e0e0" d="M327.648 99.688c-.05 0-.091-2.03-.091-4.534 0-2.505.041-4.534.091-4.534.05 0 .091 2.03.091 4.534s-.041 4.534-.091 4.534z"/><path style="fill:#f5f5f5" d="M368.883 99.688c-.05 0-.091-2.03-.091-4.534 0-2.505.041-4.534.091-4.534.05 0 .091 2.03.091 4.534s-.04 4.534-.091 4.534z"/><path style="fill:#e0e0e0" d="M326.839 99.688c-.05 0-.091-2.03-.091-4.534 0-2.505.041-4.534.091-4.534.05 0 .091 2.03.091 4.534s-.041 4.534-.091 4.534zM356.056 92.114l-.008-.016 5.214 4.207.046.037-.057.015-.694.183-4.402 1.155-.009.003-.008-.004-3.99-1.692-1.129-.484-.298-.13-.076-.035c-.017-.008-.026-.012-.025-.013l.027.009.078.03.301.122 1.135.47 3.998 1.672-.017-.001 4.401-1.161.694-.182-.011.052-5.203-4.22-.008-.006v-.01"/><path style="fill:#e0e0e0" d="m360.791 95.649.284.268.382-.082-.167.353.196.337-.387-.049-.26.291-.073-.384-.357-.157.342-.188zM355.789 97.307l.194.162.244-.068-.094.234.14.211-.252-.017-.157.198-.062-.245-.237-.087.214-.135zM350.265 95.041l.309.019.192-.244.077.3.291.107-.262.166-.011.31-.239-.197-.298.084.114-.288zM363.128 92.18l.31.019.191-.244.078.3.291.107-.262.166-.012.31-.238-.197-.299.084.114-.288zM355.803 91.976l.198.013.122-.156.049.192.186.068-.167.106-.007.198-.153-.126-.19.054.072-.184z"/><path style="fill:#e0e0e0" d="M363.563 92.397c-.001.02-1.688-.036-3.767-.125-2.08-.089-3.765-.177-3.764-.198.001-.02 1.687.036 3.767.125s3.765.178 3.764.198zM365.458 90.658h-50.034c-.655-1.487-.816-2.899 0-4.165h50.034c.656 1.515.601 2.893 0 4.165z"/><path style="fill:#ebebeb" d="M325.784 87.683h27.107v1.516h-27.107z"/><path style="fill:#e0e0e0" d="M317.344 90.68c-.015.013-.194-.159-.395-.504a3.657 3.657 0 0 1-.457-1.478 3.645 3.645 0 0 1 .192-1.535c.138-.374.284-.575.301-.565.027.014-.077.233-.178.604-.103.37-.183.899-.133 1.481.053.582.224 1.089.39 1.435.163.346.304.544.28.562zM318.426 90.68c-.015.013-.194-.159-.395-.504a3.657 3.657 0 0 1-.457-1.478 3.645 3.645 0 0 1 .192-1.535c.138-.374.284-.575.301-.565.027.014-.077.233-.178.604-.103.37-.183.899-.133 1.481.053.582.224 1.089.39 1.435.164.346.304.544.28.562z"/><path style="fill:#f5f5f5" d="M363.433 90.583c-.055-.02.353-.887.352-2.036.015-1.15-.384-2.021-.328-2.04.033-.03.524.843.511 2.041-.001 1.198-.502 2.065-.535 2.035zM362.502 90.573c-.055-.013.156-.892.15-1.994.003-1.103-.21-1.981-.155-1.994.042-.016.34.862.337 1.994.006 1.131-.29 2.01-.332 1.994z"/><path style="fill:#e0e0e0" d="M384.067 64.854h34.337v44.804h-34.103z"/><path transform="rotate(-180 398.643 87.248)" style="fill:#fff" d="M381.574 65.074h34.137v44.349h-34.137z"/><path style="fill:#e0e0e0" d="M415.881 64.904v44.688h-34.476V64.904h34.476zm-.339 44.35V65.243h-33.799v44.011h33.799z"/><path style="fill:#fff" d="M385.134 69.885h26.135v34.743h-26.135z"/><path style="fill:#e0e0e0" d="M385.082 69.877s.003.058.005.169l.005.489.01 1.892.021 7.126.04 25.067-.079-.079 26.133-.009h.003l-.088.088.016-34.743.072.072-18.978-.038-5.284-.019-1.392-.008c-.317-.002-.484-.007-.484-.007s.156-.005.466-.008l1.378-.008 5.268-.019 19.023-.038h.072v.073l.016 34.743v.088h-.091l-26.133-.009h-.08v-.08l.04-25.119.021-7.108.009-1.877.005-.48c.003-.106.006-.158.006-.158z"/><path style="fill:#e0e0e0" d="M381.495 109.423c-.02-.014.157-.3.461-.75a49.8 49.8 0 0 1 1.225-1.732c.493-.667.958-1.256 1.306-1.673.348-.417.577-.663.596-.649.019.016-.175.29-.498.726l-1.263 1.701-1.265 1.7c-.329.431-.542.691-.562.677zM381.574 65.074c.039-.029.857 1.023 1.825 2.35.969 1.327 1.722 2.425 1.683 2.454-.039.029-.856-1.023-1.825-2.35-.969-1.327-1.722-2.426-1.683-2.454z"/><path style="fill:#fff" d="m415.711 65.074-4.493 4.979"/><path style="fill:#e0e0e0" d="M411.218 70.053c-.036-.033.94-1.174 2.181-2.549s2.276-2.464 2.312-2.431c.036.033-.94 1.174-2.181 2.549-1.241 1.376-2.276 2.464-2.312 2.431zM415.711 109.423c-.036.033-1.026-1.005-2.211-2.318-1.185-1.313-2.116-2.404-2.08-2.436.036-.033 1.026 1.005 2.211 2.318 1.185 1.312 2.116 2.403 2.08 2.436zM386.333 104.619s2.813-8.712 4.481-9.638c1.797-.997 4.49-1.962 7.34-1.987 3.868-.034 5.713.252 7.983 1.813 2.62 1.803 4.395 9.724 4.395 9.724M394.13 78.676c-2.404.107-2.991 3.334-2.828 5.175.078.873.344 1.821-.097 2.579-.312.537-.927.859-1.186 1.423-.315.685-.011 1.477.217 2.196.227.719.327 1.627-.248 2.116 1.365.354 2.741.71 4.149.782 1.408.072 2.868-.16 4.065-.906"/><path style="fill:#e0e0e0" d="M392.414 85.118c-1.583-3.632.567-5.854 1.969-6.653.835-.476 1.828-.578 2.789-.604.949-.025 1.907.015 2.826.251s1.801.68 2.451 1.372c1.153 1.228 1.421 3.051 1.319 4.732a13.203 13.203 0 0 1-1.659 5.663c-.125.222-.267.45-.49.574-.223.123-.549.097-.681-.122"/><path style="fill:#f5f5f5" d="M397.769 97.586c1.632.11 3.056-1.289 3.227-3.804l.87-12.78-.06.883a1.025 1.025 0 0 0-.922-1.038l-5.065-.521a3.082 3.082 0 0 0-3.391 2.883c-.117 1.946-.183 4.326.052 5.776.472 2.917 2.71 3.282 2.71 3.282l-.175 2.118a2.964 2.964 0 0 0 2.754 3.201z"/><path style="fill:#e0e0e0" d="M393.4 84.856a.375.375 0 0 0 .362.377.359.359 0 0 0 .385-.339.375.375 0 0 0-.362-.377.358.358 0 0 0-.385.339zM392.948 84.445c.047.049.33-.162.732-.162.402-.006.698.201.742.151.021-.022-.026-.11-.155-.203a1.024 1.024 0 0 0-.594-.181.985.985 0 0 0-.583.19c-.123.095-.165.184-.142.205zM397.269 84.856a.375.375 0 0 0 .362.377.359.359 0 0 0 .385-.339.375.375 0 0 0-.362-.377.358.358 0 0 0-.385.339z"/><path style="fill:#e0e0e0" d="M396.908 84.509c.047.049.33-.162.732-.162.402-.006.699.201.742.151.021-.022-.026-.11-.155-.203a1.024 1.024 0 0 0-.594-.181.985.985 0 0 0-.583.19c-.123.095-.165.183-.142.205zM395.454 87.5c.002-.023-.249-.065-.655-.116-.103-.01-.2-.031-.218-.101-.025-.074.018-.185.068-.305l.302-.784c.419-1.116.722-2.034.677-2.05-.045-.016-.421.875-.84 1.991l-.289.789c-.039.117-.105.25-.052.404a.26.26 0 0 0 .17.15c.066.02.124.021.175.024.408.02.661.021.662-.002z"/><path style="fill:#ebebeb" d="M395.19 92.267s1.964.121 3.906-1.054c0 0-1.042 2.022-3.964 1.757l.058-.703z"/><path style="fill:#e0e0e0" d="M395.628 88.47a.724.724 0 0 1 .65-.271c.175.018.352.102.458.244s.129.344.033.48c-.108.153-.335.189-.528.135-.192-.054-.358-.18-.516-.306-.043-.035-.088-.071-.115-.119-.027-.048-.033-.11 0-.15"/><path style="fill:#e0e0e0" d="M396.641 87.775c-.066-.004-.065.434-.438.745-.373.312-.839.265-.842.326-.006.027.104.085.301.09a1.09 1.09 0 0 0 .703-.247.944.944 0 0 0 .339-.625c.016-.183-.033-.291-.063-.289zM396.724 83.804c.04.109.442.056.915.112.474.046.855.183.918.085.028-.047-.039-.15-.193-.255a1.54 1.54 0 0 0-.681-.236 1.538 1.538 0 0 0-.715.086c-.174.07-.261.156-.244.208zM393.093 83.279c.071.091.348-.005.682-.01.333-.017.616.06.681-.036.028-.047-.016-.138-.14-.224a.942.942 0 0 0-.555-.148.94.94 0 0 0-.543.186c-.118.093-.156.188-.125.232z"/><path style="fill:#e0e0e0" d="M394.707 78.292c2.827-1.59 5.863-.479 8.151 1.82.504.507.96 1.103 1.616 1.385.71.305 1.656.255 2.078.902.494.756-.171 1.823.189 2.651.332.763 1.377.983 1.767 1.718.306.577.115 1.277-.03 1.913-.145.637-.199 1.401.28 1.846l-6.084 2.31c-.272.103-.569.15-.855.093-.864-.172-.927-.972-.845-1.634.061-.494.168-1.02-.04-1.473-.247-.534-.875-.822-1.097-1.367-.392-.963.696-1.965.566-2.996-.082-.648-.639-1.144-1.239-1.405-.599-.261-1.259-.346-1.881-.545-1.435-.459-2.616-1.773-3.229-3.236a1.575 1.575 0 0 1 .653-1.982zM397.005 377.114a31.949 31.949 0 0 0-13.674-4.706c-2.234-.23-4.676-.164-6.468 1.189-.38.287-.751.712-.666 1.181.063.345.354.595.633.808 5.563 4.244 13.979 4.78 20.175 1.528M396.654 376.727c-3.095-2.416-6.209-4.848-8.832-7.77-2.622-2.922-4.754-6.392-5.537-10.24-.238-1.167-.311-2.5.438-3.427 7.04 5.498 12.57 12.609 13.931 21.437"/><path style="fill:#e0e0e0" d="M396.932 377.061c-.53-3.851-.721-7.81.164-11.595.884-3.786 2.944-7.409 6.176-9.568 1.217 2.843.694 6.119-.163 9.091a44.175 44.175 0 0 1-6.124 12.894M403.833 389.427c-4.189.509-7.838 2.717-10.966 5.55a20.74 20.74 0 0 0-6.272 10.768c4.109-.254 7.595-3.152 10.124-6.401 2.528-3.249 4.28-6.814 7.057-9.853M405.332 391.405c-3.374-8.312-2.152-18.327 3.123-25.583 2.387 8.489 1.511 18.079-3.123 25.583M414.451 402.262a19.689 19.689 0 0 0-10.969 2.57 19.69 19.69 0 0 0-7.731 8.194c-.232.463-.436 1.052-.126 1.466.27.36.791.394 1.24.365 3.685-.239 6.952-2.456 9.647-4.981 2.695-2.525 5.043-5.442 8.021-7.625M414.16 401.671a34.834 34.834 0 0 1-.348-19.455c.685-2.504 1.836-5.141 4.152-6.315.197-.1.428-.19.635-.112.197.074.311.276.401.465.824 1.721 1.064 3.675.979 5.581-.085 1.906-.48 3.783-.875 5.65-.729 3.453-1.117 7.164-3.011 10.143a20.786 20.786 0 0 0-1.204 2.228c-.359.757-.361 1.023-.69 1.625M438.296 405.267c-1.788-6.802.11-15.048 4.396-20.625.316-.411.734-.851 1.25-.803.789.073.994 1.125.959 1.917a37.269 37.269 0 0 1-6.605 19.511M440.473 406.754c8.264 2.151 17.745.06 24.618-5.007a19.936 19.936 0 0 0-13.327-1.636c-4.452 1.019-8.52 3.014-11.291 6.643M442.308 402.225c4.629-7.546 13.502-12.471 22.343-12.919-1.018 3.596-3.973 6.391-7.308 8.079-3.334 1.689-7.056 2.424-10.725 3.137-1.427.277-3.385.582-4.31 1.703M438.756 380.248c1.253-4.294 2.514-8.625 2.858-13.085.344-4.46-.292-9.116-2.606-12.943-4.323 8.366-4.761 18.14-.381 26.477M453.312 372.892c5.056-9.189 15.371-16.529 25.808-17.557-4.026 10.024-15.007 17.772-25.808 17.557M450.131 374.692c7.54 1.149 13.964 5.964 21.011 8.884 1.507.624 3.133 1.122 4.75.91 1.617-.212 3.213-1.297 3.576-2.887.301-1.321-.3-2.723-1.248-3.69-.948-.968-2.2-1.572-3.45-2.093-7.675-3.195-15.905-3.275-23.99-1.337"/><path style="fill:#e0e0e0" d="M445.768 379.981c1.707.489 2.29 1.373 3.642 2.524a39.294 39.294 0 0 0 15.933 8.185c.609.151 1.407.211 1.709-.339.263-.48-.07-1.062-.412-1.49-2.45-3.065-5.943-5.161-9.62-6.531-3.677-1.369-6.863-3.02-11.251-2.666M440.844 348.04c6.131 5.723 14.768 8.661 23.117 7.865.38-.036.794-.097 1.052-.378.582-.633-.116-1.61-.794-2.138-6.796-5.299-15.029-7.496-23.375-5.349"/><path style="fill:#e0e0e0" d="M446.682 345.903c8.105-6.076 19.219-7.91 28.846-4.76-3.633 3.58-8.673 5.506-13.746 6.035-5.073.529-10.153-.034-15.1-1.275M444.362 331.226c-.668-6.784-.234-12.139-.705-18.954-.038-.544-.155-1.2-.664-1.396-.709-.273-1.301.599-1.533 1.322-2.02 6.283-.916 13.489 2.892 18.879"/><path style="fill:#e0e0e0" d="M443.874 331.976c4.598-2.843 8.047-6.557 11.237-10.922 2.219-3.037 4.091-6.675 3.586-10.403-3.117-.063-6.079 1.657-8.106 4.025-2.027 2.368-3.232 5.329-4.132 8.314-.9 2.985-1.53 6.052-2.585 8.986M454.914 328.908a90.619 90.619 0 0 0 27.655-16.307c-3.304-1.331-7.086-.534-10.388.799-7.546 3.046-13.71 8.187-17.411 15.434M446.978 335.687c5.105.558 10.291.921 15.356.075 4.978-.832 9.683-2.805 14.336-4.763.385-.162.805-.357.974-.74.183-.416-.012-.922-.349-1.227-.337-.305-.785-.451-1.222-.573-5.058-1.415-10.516-.753-15.492.926-4.978 1.678-9.058 3.671-13.603 6.302M417.827 348.272c-3.483-7.03-3.257-15.235-.248-22.481 2.118 3.227 2.377 7.337 1.989 11.178-.387 3.841-1.556 7.793-1.632 11.653M403.913 341.254c-8.696-.166-17.395 3.54-23.3 9.926 4.34.682 8.81-.438 12.758-2.365 3.948-1.928 7.456-4.632 10.933-7.318M394.559 338.126c-4.254-.345-8.348-.872-12.438.382-4.09 1.253-7.813 4.099-9.48 8.038 3.979.449 8.014-.549 11.661-2.202 3.646-1.653 6.963-3.942 10.257-6.218M408.409 338.269c-3.827-2.508-7.757-5.061-12.213-6.1-4.456-1.039-9.62-.271-12.727 3.087 3.607 2.117 7.984 2.367 12.166 2.363 4.182-.003 9.31-.051 13.253 1.345"/><path style="fill:#e0e0e0" d="M408.432 338.471c-6.543-6.425-9.023-17.966-6.391-26.75 5.143 7.814 7.446 17.455 6.391 26.75M426.423 320.267c1.234-2.869 2.102-5.879 3.209-8.799 1.107-2.92 2.483-5.793 4.575-8.112 2.092-2.318 4.984-4.045 8.103-4.2-1.952 8.84-7.824 16.739-15.727 21.157M423.167 324.06c-2.042-2.811-4.401-6.626-7.17-8.724s-6.375-3.368-9.754-2.562c3.437 6.145 9.931 10.476 16.924 11.286M423.819 320.501c-1.338-3.401-2.686-6.838-3.228-10.453-.541-3.615-.212-7.475 1.636-10.628 3.591 6.789 4.748 14.077 1.774 21.158M426.456 299.42c2.034-6.73 8.197-11.685 14.85-13.959.839-.287 1.728-.526 2.604-.39.876.135 1.735.734 1.919 1.602.243 1.145-.703 2.171-1.593 2.931a50.562 50.562 0 0 1-17.78 9.816M426.529 293.916c.259-4.339.529-8.741 1.941-12.853 1.411-4.112 4.132-7.968 8.089-9.768.673 4.383-1.26 8.743-3.592 12.514-2.332 3.771-5.143 7.331-6.543 11.538M426.423 296.903c-1.681-4.905-1.855-11.135-4.792-15.408-2.053-2.987-5.341-5.022-7.11-8.185-1.175 2.955-.815 6.359.414 9.292 1.229 2.933 3.26 5.457 5.433 7.778 2.173 2.322 4.034 4.068 6.055 6.523"/><path style="fill:#e0e0e0" d="M426.456 441.346c-.131 0-.244-32.72-.253-73.073-.009-40.367.089-73.08.22-73.08s.244 32.713.253 73.079c.009 40.354-.09 73.074-.22 73.074z"/><path style="fill:#e0e0e0" d="M455.049 343.335c.009.031-.43.194-1.23.462l-3.386 1.142a197.762 197.762 0 0 0-11.032 4.125c-4.214 1.808-8.189 3.276-10.452 5.237-1.131.968-1.78 2.015-2.1 2.779-.325.768-.383 1.238-.426 1.23-.016-.002-.011-.12.014-.343.037-.22.094-.55.24-.953.276-.807.907-1.927 2.05-2.962 1.138-1.037 2.721-1.969 4.535-2.817 1.814-.847 3.825-1.73 5.96-2.607a136.383 136.383 0 0 1 11.108-4.005c1.443-.45 2.62-.782 3.436-1.001.818-.216 1.274-.319 1.283-.287z"/><path style="fill:#e0e0e0" d="M464.422 320.313c.011.012-.108.139-.345.368l-1.05.986-3.92 3.561-13.046 11.616c-5.093 4.533-9.493 8.864-12.543 12.125a145.372 145.372 0 0 0-3.55 3.92l-.948 1.083c-.22.245-.341.369-.354.359-.013-.01.084-.154.28-.419.198-.263.486-.655.881-1.141a87.894 87.894 0 0 1 3.446-4.028c2.995-3.328 7.372-7.71 12.474-12.252 5.11-4.523 9.76-8.585 13.14-11.514l4.019-3.448c.448-.371.814-.676 1.109-.919.256-.207.396-.309.407-.297z"/><path style="fill:#e0e0e0" d="M440.564 341.453c-.133-.06.93-2.516 1.99-5.622 1.07-3.106 1.573-5.728 1.709-5.705.123.013-.178 2.711-1.261 5.857a38.053 38.053 0 0 1-1.584 3.932c-.464.981-.796 1.564-.854 1.538zM426.486 361.258c-.026.019-.305-.306-.785-.911l-2.01-2.578a853.174 853.174 0 0 0-6.64-8.493 858.66 858.66 0 0 0-6.766-8.396l-2.054-2.543c-.48-.605-.734-.95-.709-.971.025-.021.326.283.849.851.524.568 1.266 1.404 2.17 2.447a259.337 259.337 0 0 1 6.88 8.316 258.998 258.998 0 0 1 6.537 8.587 113.91 113.91 0 0 1 1.891 2.669c.435.64.663 1.002.637 1.022z"/><path style="fill:#e0e0e0" d="M420.216 353.209c-.077.083-1.75-1.902-2.627-4.917-.647-2.125-.675-4.069-.596-4.957l.209.017c-.094.379-.162.579-.199.573-.037-.006-.039-.217-.008-.606l.209.017c.076.882.21 2.758.839 4.822.846 2.921 2.3 4.971 2.173 5.051zM412.122 343.027c-.061.066-.599-.613-1.834-1.065-1.225-.474-3.068-.578-5.091-.405a31.473 31.473 0 0 0-5.127.827c-1.294.321-2.085.573-2.11.506-.022-.056.732-.42 2.02-.828a23.396 23.396 0 0 1 5.181-.977c2.046-.177 3.986-.019 5.252.567 1.284.569 1.752 1.364 1.709 1.375zM410.204 340.56c-.036.074-1.068-.428-2.81-1.023a28.98 28.98 0 0 0-7.009-1.443 28.982 28.982 0 0 0-7.148.363c-1.811.324-2.907.663-2.932.585-.01-.031.255-.142.745-.318.488-.182 1.213-.39 2.122-.596 1.814-.416 4.402-.72 7.25-.507 2.846.221 5.358.914 7.088 1.6.867.341 1.552.657 2.007.91.457.25.702.4.687.429zM426.423 330.126c-.127.032-1.044-3.155-2.049-7.117-1.005-3.964-1.717-7.202-1.591-7.234.127-.032 1.044 3.154 2.049 7.117s1.718 7.202 1.591 7.234z"/><path style="fill:#e0e0e0" d="M426.553 330.126c-.141.046-.731-2.084-2.271-4.261-1.499-2.223-3.413-3.339-3.342-3.449.025-.049.553.145 1.29.665.739.514 1.652 1.386 2.439 2.513 1.599 2.265 1.999 4.523 1.884 4.532zM426.456 423.904c-.051.008-.147-.787-.516-2.176-.365-1.389-1.051-3.36-2.186-5.665-2.261-4.62-6.374-10.477-11.601-16.344-2.59-2.959-5.103-5.751-7.236-8.423-2.136-2.669-3.892-5.213-5.174-7.462-1.286-2.248-2.123-4.177-2.612-5.538a22.787 22.787 0 0 1-.513-1.584c-.104-.366-.15-.56-.134-.565.042-.013.28.749.819 2.083.539 1.333 1.416 3.226 2.729 5.435 1.309 2.211 3.08 4.717 5.225 7.358 2.141 2.645 4.658 5.421 7.252 8.386 5.241 5.882 9.345 11.814 11.546 16.509 1.107 2.343 1.752 4.352 2.064 5.766.152.709.254 1.261.29 1.641.046.378.063.577.047.579z"/><path style="fill:#e0e0e0" d="M452.294 394.72c.016.035-.479.285-1.354.76a29.677 29.677 0 0 0-3.513 2.322c-1.412 1.081-2.991 2.5-4.613 4.207-1.619 1.71-3.287 3.697-4.989 5.825-3.403 4.27-6.586 8.048-8.492 11.064a45.199 45.199 0 0 0-2.132 3.642c-.465.883-.711 1.379-.745 1.363-.015-.007.029-.139.125-.384.101-.243.238-.609.455-1.061.412-.914 1.076-2.209 2.014-3.739 1.851-3.089 5.009-6.919 8.406-11.182 1.706-2.132 3.394-4.122 5.043-5.83 1.652-1.705 3.273-3.115 4.727-4.173a24.625 24.625 0 0 1 3.628-2.217c.449-.225.815-.363 1.057-.468.245-.099.376-.144.383-.129z"/><path style="fill:#e0e0e0" d="M452.8 404.188c.006.069-1.093.202-2.862.416-1.763.228-4.217.523-6.788 1.337-2.562.834-4.691 2.105-6.078 3.19-1.401 1.083-2.062 1.978-2.127 1.926-.023-.017.114-.26.424-.659.306-.401.807-.937 1.491-1.526 1.365-1.176 3.515-2.524 6.144-3.381 2.634-.833 5.121-1.075 6.9-1.22 1.785-.13 2.89-.145 2.896-.083z"/><path style="fill:#e0e0e0" d="M435.78 410.016c-.149-.085 1.141-2.055 2.141-4.705.939-2.674 1.159-5.019 1.327-4.992.061.007.059.594-.048 1.536a16.45 16.45 0 0 1-.835 3.618c-.5 1.372-1.156 2.519-1.66 3.318-.51.797-.872 1.257-.925 1.225zM460.662 369.302c.006.015-.152.099-.458.243l-1.345.611c-.589.253-1.304.573-2.11.998-.809.417-1.752.847-2.735 1.437l-1.562.888c-.541.311-1.077.681-1.647 1.038-1.151.698-2.304 1.558-3.535 2.436a66.614 66.614 0 0 0-7.379 6.49 66.51 66.51 0 0 0-6.236 7.598c-.835 1.26-1.656 2.442-2.314 3.617-.337.582-.688 1.13-.981 1.681l-.834 1.591c-.556 1.002-.953 1.96-1.343 2.782-.397.82-.693 1.545-.925 2.143l-.565 1.365c-.134.311-.212.471-.228.466-.015-.005.032-.177.138-.498l.483-1.4c.207-.61.479-1.348.854-2.182.368-.836.746-1.809 1.286-2.827l.812-1.615c.286-.56.631-1.116.964-1.706.648-1.191 1.462-2.389 2.294-3.666a63.571 63.571 0 0 1 6.254-7.679 63.525 63.525 0 0 1 7.46-6.511c1.247-.875 2.417-1.729 3.585-2.417.578-.352 1.122-.716 1.672-1.021l1.586-.867c.998-.575 1.958-.986 2.781-1.382.82-.404 1.549-.701 2.152-.928l1.382-.531c.319-.115.488-.169.494-.154z"/><path style="fill:#e0e0e0" d="M440.213 383.003c-.042-.007.186-.801 1.124-1.675.916-.872 2.586-1.68 4.531-1.738 1.939-.051 3.62.491 4.767.931 1.154.453 1.825.821 1.803.876-.027.066-.746-.193-1.913-.56-1.162-.356-2.805-.825-4.643-.775-1.831.056-3.411.761-4.327 1.519-.936.756-1.267 1.468-1.342 1.422zM437.156 386.157c-.13-.072 1.023-1.763 1.286-4.185.302-2.418-.431-4.329-.288-4.369.052-.022.309.423.531 1.219.224.792.371 1.945.227 3.205-.149 1.259-.558 2.347-.958 3.066-.399.723-.752 1.096-.798 1.064zM403.858 428.592c.705 12.504 4.473 25.221 10.269 38.078h25.203c5.527-12.73 9.035-25.427 9.659-38.078h-45.131z"/><path style="fill:#fafafa" d="M444.904 448.826c0 .131-8.298.237-18.532.237-10.238 0-18.534-.106-18.534-.237s8.297-.236 18.534-.236c10.233 0 18.532.105 18.532.236zM444.341 453.356c0 .131-7.779.237-17.374.237-9.598 0-17.375-.106-17.375-.237 0-.13 7.778-.236 17.375-.236 9.594 0 17.374.105 17.374.236zM414.533 436.802c.131 0 .237 2.599.237 5.805 0 3.207-.106 5.806-.237 5.806-.13 0-.236-2.599-.236-5.806 0-3.206.106-5.805.236-5.805z"/><path style="fill:#fafafa" d="M428.037 436.802c.131 0 .236 2.692.236 6.012 0 3.321-.106 6.012-.236 6.012-.131 0-.236-2.691-.236-6.012-.001-3.32.105-6.012.236-6.012zM440.714 436.7c.131 0 .236 2.746.236 6.132 0 3.387-.106 6.132-.236 6.132-.131 0-.236-2.745-.236-6.132-.001-3.386.105-6.132.236-6.132z"/><path style="fill:#fafafa" d="M448.188 436.802c0 .131-9.733.237-21.736.237-12.008 0-21.738-.106-21.738-.237s9.731-.236 21.738-.236c12.003 0 21.736.106 21.736.236z"/><path style="fill:#e8505b" d="M75.122 389.741c4.091-2.111 8.909-2.385 13.451-1.634 2.44.403 4.984 1.133 6.645 2.966 1.66 1.833 1.975 5.059.068 6.634-1.135.937-2.718 1.08-4.189 1.063-3.556-.042-7.501-.668-10.342 1.472-1.621 1.221-2.699 3.25-4.637 3.85-1.896.587-4.035-.531-5.04-2.242-1.005-1.711-1.039-3.85-.57-5.778-.001-.001.493-4.205 4.614-6.331zM65.749 371.646c2.502 3.573 7.364 2.39 9.618.209 2.254-2.181 3.207-5.342 4.075-8.356 1.982-6.887 3.98-14.112 2.506-21.126-.441-2.097-1.225-4.188-2.698-5.744-1.473-1.556-3.739-2.481-5.811-1.934-2.451.648-3.975 3.049-5.076 5.333a50.371 50.371 0 0 0-4.977 21.611c-.011 3.482.399 7.133 2.363 10.007M58.879 376.773c2.716-3.224 3.232-7.926 2.023-11.964-1.209-4.039-3.939-7.474-7.086-10.279a38.142 38.142 0 0 0-12.689-7.487c-1.835-.645-3.771-1.154-5.707-.969-1.936.185-3.886 1.175-4.789 2.897-1.336 2.547-.055 5.636 1.33 8.157a96.79 96.79 0 0 0 8.334 12.692c2.498 3.221 5.36 6.398 9.167 7.853 3.807 1.456 7.762 1.284 9.78-1.356"/><path style="fill:#263238" d="M65.579 425.546c.047.003.123-.576.226-1.624l.431-4.431c.206-1.864.479-4.083.997-6.499.516-2.41 1.324-5.022 2.362-7.671 1.075-2.633 2.385-5.027 3.917-6.941 1.521-1.923 3.289-3.314 4.952-4.117a13.852 13.852 0 0 1 4.17-1.299c1.036-.106 1.616-.188 1.617-.234 0-.046-.581-.054-1.645-.025-1.054.07-2.602.337-4.349 1.132-1.752.777-3.629 2.19-5.224 4.153-1.608 1.954-2.966 4.4-4.06 7.081-1.056 2.695-1.852 5.334-2.346 7.796-.492 2.458-.717 4.702-.864 6.582a86.605 86.605 0 0 0-.219 4.458c-.022 1.053-.01 1.636.035 1.639z"/><path style="fill:#263238" d="M65.885 422.136c.023-.001.037-.261.044-.754l-.006-2.154a235.08 235.08 0 0 1 .096-7.916c.166-6.682.741-13.874 1.852-24.012 1.052-9.534 2.465-20.629 3.955-27.842.32-1.641.642-3.117.945-4.41.289-1.296.536-2.413.774-3.317l.503-2.094c.108-.481.154-.737.132-.743-.022-.006-.112.237-.262.706l-.625 2.064c-.278.895-.562 2.005-.886 3.296a97.842 97.842 0 0 0-1.044 4.398c-1.475 6.536-3.036 15.672-4.158 25.835-1.114 10.16-1.615 19.411-1.659 26.109-.04 3.349.031 6.061.117 7.932l.132 2.153c.036.493.067.751.09.749z"/><path style="fill:#263238" d="M65.929 404.294c.047-.002.038-.801-.016-2.25-.083-1.446-.282-3.537-.689-6.097-.432-2.555-1.035-5.588-1.983-8.883-.411-1.507-1.376-5.117-3.715-10.512-3.081-7.309-7.267-13.285-10.909-16.987-.854-.982-1.806-1.691-2.566-2.385-.394-.333-.742-.665-1.096-.928l-.996-.686c-1.199-.82-1.87-1.252-1.895-1.213-.108.146 2.684 1.789 6.21 5.54 3.511 3.743 7.581 9.678 10.637 16.926a83.122 83.122 0 0 1 3.736 10.415c.974 3.264 1.621 6.266 2.11 8.795.465 2.535.734 4.604.896 6.037.134 1.434.23 2.23.276 2.228zM48.684 435.768l1.788 24.494h31.466l1.788-24.494z"/><path style="fill:#263238" d="M45.645 426.113h41.836v9.655H45.645z"/><path style="fill:#455a64" d="M45.645 459.324V462H86.789v-2.676zM49.537 466.71 47.61 462h37.68l-2.248 4.71z"/><path style="fill:#e0e0e0" d="M83.142 443.773c.007.006-.043.082-.147.225l-.47.624-1.833 2.346-.081.104-.079-.109-4.503-6.229h.259l-4.434 6.278-.139.197-.156-.185-5.258-6.256.303-.004-.289.363-4.702 5.895-.157.197-.145-.205-4.436-6.277.258.012-5.463 6.225-.097.111-.074-.124-1.711-2.874-.439-.765c-.097-.175-.142-.268-.134-.273.008-.005.071.078.183.243l.486.737 1.796 2.822-.171-.014 5.376-6.3.135-.159.123.171 4.476 6.248-.301-.008 4.691-5.903.289-.363.149-.188.154.184 5.244 6.268-.294.012 4.478-6.246.131-.183.128.183 4.408 6.296-.16-.005 1.907-2.286.511-.591c.116-.135.18-.2.188-.194z"/><path style="fill:#455a64" d="M84.164 435.606c0 .108-7.884.196-17.608.196-9.727 0-17.61-.088-17.61-.196 0-.108 7.883-.196 17.61-.196 9.723 0 17.608.088 17.608.196z"/><path style="fill:#263238" d="M85.753 462.264c0 .108-8.569.196-19.136.196-10.571 0-19.139-.088-19.139-.196 0-.108 8.567-.196 19.139-.196 10.568.001 19.136.088 19.136.196z"/><path style="fill:#fff" d="m166.196 62.07-17.727.146c-2.377.02-4.288 2.051-4.265 4.535l.027 3.215c.022 2.485-1.888 4.516-4.265 4.535l-34.554.284c-2.377.02-4.322-1.979-4.343-4.465l-.027-3.215c-.022-2.485-1.966-4.484-4.344-4.465l-6.235.051-15.515.128c-7.705.064-13.9 6.363-13.833 14.069l1.929 223.735c.066 7.702 6.362 13.892 14.063 13.829l91.249-.752c7.705-.063 13.899-6.363 13.833-14.068L180.26 75.896c-.068-7.699-6.363-13.889-14.064-13.826z"/><path style="fill:#263238" d="M166.196 62.07s.16 0 .478.01c.316.027.795-.014 1.415.097 1.238.135 3.122.52 5.249 1.761 1.074.593 2.168 1.45 3.205 2.551a13.953 13.953 0 0 1 2.693 4.141c.705 1.652 1.096 3.587 1.095 5.654l.066 6.576.741 78.701 1.049 116.723.147 16.675.037 4.23c-.003 1.417-.082 2.876-.497 4.26-.39 1.384-.949 2.735-1.747 3.947a15.085 15.085 0 0 1-2.877 3.25c-2.252 1.84-5.083 3.027-8.028 3.198-2.924.111-5.829.073-8.766.117l-17.765.149-36.458.303-18.647.154-9.418.078c-3.16.189-6.447-.616-9.107-2.429-2.672-1.799-4.656-4.538-5.597-7.589-.505-1.52-.61-3.147-.624-4.714l-.04-4.703-.16-18.653-.312-36.468-.583-68.94-.52-62.383-.232-28.271-.028-3.384c.003-.562.038-1.131.064-1.693.093-.556.131-1.121.271-1.665a14.265 14.265 0 0 1 2.882-5.937 14.515 14.515 0 0 1 5.139-3.912c1.955-.903 4.109-1.235 6.191-1.228l12.159-.093 5.85-.044 2.866-.022c.958-.056 1.959.198 2.752.743a4.614 4.614 0 0 1 1.726 2.226c.366.893.289 1.861.307 2.753l.011 1.358c.005.453-.007.901.055 1.329.118.863.49 1.686 1.062 2.326a4.118 4.118 0 0 0 2.143 1.305 4.75 4.75 0 0 0 1.258.113l1.285-.01 5.035-.037 18.394-.135 8.109-.058c.64-.017 1.292.018 1.9-.041a4.105 4.105 0 0 0 1.702-.615 4.41 4.41 0 0 0 1.93-2.828c.123-.559.096-1.128.094-1.695l-.012-1.669c.002-.544-.036-1.092.059-1.627a4.73 4.73 0 0 1 .513-1.499 4.403 4.403 0 0 1 2.21-1.988c.913-.406 1.888-.294 2.768-.32l9.048-.056 5.564-.026c1.254-.004 1.896.004 1.896.004s-.642.019-1.895.036l-5.564.065-9.048.093c-.889.029-1.842-.077-2.721.32a4.266 4.266 0 0 0-2.138 1.936 4.602 4.602 0 0 0-.494 1.456c-.091.515-.052 1.055-.053 1.604l.016 1.669c.003.56.033 1.146-.093 1.727a4.575 4.575 0 0 1-1.993 2.933 4.274 4.274 0 0 1-1.769.644c-.645.063-1.27.028-1.918.046a74587.502 74587.502 0 0 1-32.822.3 4.976 4.976 0 0 1-1.314-.117 4.34 4.34 0 0 1-2.266-1.375 4.65 4.65 0 0 1-1.122-2.448c-.067-.459-.053-.913-.059-1.361l-.012-1.358c-.02-.91.052-1.829-.296-2.669A4.362 4.362 0 0 0 99 63.467a4.202 4.202 0 0 0-2.61-.696l-2.866.025-5.85.052-12.159.107c-2.063-.004-4.157.322-6.076 1.209a14.238 14.238 0 0 0-5.03 3.837 13.963 13.963 0 0 0-2.816 5.815c-.136.532-.172 1.086-.264 1.63-.024.552-.058 1.102-.061 1.662l.031 3.383.255 28.271.556 62.382.606 68.94.317 36.468.162 18.652.041 4.703c.015 1.564.115 3.117.607 4.603.915 2.965 2.844 5.628 5.441 7.377 2.599 1.761 5.75 2.545 8.882 2.361l9.418-.077 18.647-.153a554900.333 554900.333 0 0 1 54.223-.441c2.927-.043 5.865-.005 8.743-.113 2.866-.165 5.62-1.319 7.814-3.109a14.747 14.747 0 0 0 2.802-3.163c.778-1.18 1.322-2.495 1.702-3.841.405-1.352.481-2.756.485-4.159l-.036-4.23-.14-16.675-.964-116.723-.616-78.702a179380 179380 0 0 1-.048-6.576c.007-2.055-.373-3.967-1.067-5.61a13.88 13.88 0 0 0-2.657-4.119c-1.026-1.097-2.109-1.954-3.173-2.549-2.108-1.246-3.981-1.642-5.214-1.79-.617-.118-1.095-.083-1.41-.117-.318-.018-.479-.031-.479-.031z"/><path style="fill:#263238" d="M169.092 84.638c.001.06-2.304.148-5.147.197-2.844.049-5.15.039-5.151-.021-.001-.06 2.303-.148 5.147-.197 2.844-.048 5.15-.039 5.151.021zM169.137 87.273c.001.06-2.303.148-5.147.197-2.844.049-5.15.039-5.151-.021-.001-.06 2.303-.148 5.147-.197 2.844-.048 5.15-.039 5.151.021zM169.182 89.908c.001.06-2.304.148-5.147.196-2.844.049-5.15.04-5.151-.02-.001-.06 2.303-.148 5.147-.197 2.844-.049 5.15-.039 5.151.021zM75.496 93.741a1.74 1.74 0 0 1 .214-.016l.596-.025 2.198-.072-.06.062-.04-1.594c0-.296-.031-.576-.005-.918a.844.844 0 0 1 .732-.684c.354-.01.666-.029 1.05-.015a.854.854 0 0 1 .729.843l.047 2.325-.103-.099 2.774-.053-.104.108-.061-3.456-.015-.88c-.004-.271-.17-.451-.396-.652l-1.223-1.185-1.18-1.144-.572-.555c-.197-.186-.351-.379-.577-.423a.747.747 0 0 0-.635.127c-.167.144-.344.346-.512.512l-.986 1.013c-.62.656-1.267 1.256-1.736 1.821-.197.312-.119.691-.13 1.036l.007.978.004 1.575-.002 1.007a3.515 3.515 0 0 1-.014.364 2.705 2.705 0 0 1-.022-.333l-.037-.991-.05-1.587-.027-.996-.013-.545a1.157 1.157 0 0 1 .148-.582c.507-.633 1.115-1.195 1.74-1.87l.979-1.021c.176-.176.321-.351.531-.535a.944.944 0 0 1 .803-.166c.296.063.49.303.67.471l.574.553 1.184 1.14 1.226 1.182c.098.102.216.189.313.333a.9.9 0 0 1 .149.467l.016.885.057 3.456.002.107-.106.002-2.774.042-.102.002-.001-.101-.033-2.326a.668.668 0 0 0-.566-.668c-.319-.014-.696 0-1.006.006a.68.68 0 0 0-.593.545c-.024.279-.001.604-.004.886l.015 1.595.001.062h-.061l-2.236.004-.582-.005a1.262 1.262 0 0 1-.195-.012z"/><path style="fill:#f5f5f5" d="m161.443 124.605-82.346.726a7.46 7.46 0 0 1-7.526-7.395l-.024-2.772a7.46 7.46 0 0 1 7.395-7.526l82.346-.726a7.46 7.46 0 0 1 7.526 7.395l.024 2.772a7.461 7.461 0 0 1-7.395 7.526z"/><path style="fill:#263238" d="M161.443 124.605s.189-.024.558-.052a8.024 8.024 0 0 0 1.602-.326c.68-.23 1.504-.6 2.329-1.251a7.314 7.314 0 0 0 2.194-2.832c.265-.623.49-1.315.567-2.067.093-.746.052-1.548.046-2.384-.021-.836.026-1.713-.138-2.591a7.35 7.35 0 0 0-.988-2.585c-1.003-1.631-2.779-2.99-4.939-3.368-1.069-.194-2.215-.089-3.383-.098l-3.594.038-76.75.73a7.29 7.29 0 0 0-7.196 6.738c-.054.882-.001 1.813-.007 2.712-.014.914.042 1.781.299 2.629a7.339 7.339 0 0 0 3.05 4.095c.722.473 1.53.804 2.365.984.837.19 1.687.183 2.561.17l5.152-.043 9.974-.082 34.505-.265 23.263-.148 6.325-.022 1.645.003c.37.005.56.015.56.015s-.19.014-.56.023l-1.645.033-6.324.09-23.262.263-34.505.343-9.974.094-5.152.048c-.857.014-1.764.023-2.64-.176a7.37 7.37 0 0 1-2.481-1.03A7.689 7.689 0 0 1 71.699 120c-.27-.876-.329-1.832-.314-2.726.006-.912-.048-1.8.007-2.741a7.651 7.651 0 0 1 7.552-7.074l76.751-.624 3.594-.026c1.163.014 2.31-.089 3.426.115 2.227.398 4.048 1.807 5.07 3.488a7.488 7.488 0 0 1 1.001 2.659c.163.91.109 1.791.125 2.622 0 .833.037 1.637-.063 2.405-.084.767-.318 1.471-.594 2.104a7.4 7.4 0 0 1-2.256 2.86 7.654 7.654 0 0 1-2.374 1.236 7.526 7.526 0 0 1-1.621.294c-.37.014-.56.013-.56.013z"/><path style="fill:#263238" d="M162.863 115.324c-.035.002-.034-.285-.175-.764a3.2 3.2 0 0 0-1.19-1.67 3.086 3.086 0 0 0-2.9-.382c-1.072.383-1.988 1.536-1.964 2.87-.001 1.335.936 2.472 2.014 2.836a3.086 3.086 0 0 0 2.893-.433 3.199 3.199 0 0 0 1.16-1.691c.133-.481.127-.768.162-.766.012 0 .022.07.028.206.009.136-.002.339-.053.594a3.194 3.194 0 0 1-1.14 1.86c-.718.602-1.945.969-3.161.546-1.204-.385-2.267-1.651-2.265-3.147-.027-1.496 1.012-2.78 2.209-3.186 1.207-.445 2.441-.1 3.169.49a3.193 3.193 0 0 1 1.173 1.839c.055.254.07.457.063.592-.003.135-.011.206-.023.206z"/><path style="fill:#263238" d="M164.676 120.834c-.073.069-.781-.566-1.581-1.417-.8-.851-1.39-1.597-1.317-1.665.073-.068.78.566 1.581 1.417.8.851 1.39 1.597 1.317 1.665z"/><path style="fill:#e0e0e0" d="m84.674 114.665-1.735.015-.004-.451 3.992-.035.004.451-1.735.015.04 4.486-.522.005-.04-4.486zM90.524 117.4l-3.104.027c.063.775.66 1.285 1.471 1.278.451-.004.852-.17 1.132-.497l.285.322c-.328.398-.841.614-1.426.619-1.157.01-1.954-.773-1.964-1.873-.01-1.1.752-1.89 1.796-1.899 1.044-.009 1.805.753 1.815 1.868.002.042-.005.098-.005.155zm-3.106-.347 2.631-.023c-.07-.726-.604-1.229-1.33-1.222-.72.006-1.244.518-1.301 1.245zM93.826 119.071l-1.191-1.541-1.172 1.562-.564.005 1.45-1.917-1.412-1.793.564-.005 1.127 1.443 1.101-1.463.55-.005-1.381 1.818 1.498 1.891-.57.005zM97.182 118.815c-.196.178-.492.265-.781.268-.698.006-1.09-.385-1.096-1.07l-.02-2.243-.663.006-.004-.423.663-.006-.007-.811.501-.004.007.811 1.129-.01.004.423-1.129.01.02 2.215c.004.437.232.675.648.671a.831.831 0 0 0 .549-.195l.179.358z"/><path transform="matrix(1 -.0088 .0088 1 -1.324 .77)" style="fill:#e8505b" d="M75.962 139.971h21.291v21.291H75.962z"/><path style="fill:#e8505b" d="M138.134 141.661c.001.1-7.118.244-15.897.321-8.783.077-15.901.059-15.902-.041-.001-.1 7.116-.244 15.899-.321 8.78-.077 15.899-.059 15.9.041z"/><path style="fill:#263238" d="M163.548 147.964c.001.1-12.794.294-28.575.433-15.786.139-28.58.171-28.581.071-.001-.1 12.791-.294 28.578-.433 15.781-.14 28.577-.171 28.578-.071zM162.917 152.63c.001.1-12.644.293-28.239.43-15.6.138-28.243.168-28.244.068-.001-.1 12.641-.292 28.241-.43 15.595-.137 28.241-.167 28.242-.068zM139.822 157.281c.001.1-7.464.247-16.672.328-9.211.081-16.676.066-16.677-.034-.001-.1 7.463-.247 16.674-.328 9.207-.082 16.674-.066 16.675.034z"/><path transform="matrix(1 -.0088 .0088 1 -1.636 .773)" style="fill:#e8505b" d="M76.273 175.296h21.291v21.291H76.273z"/><path style="fill:#e8505b" d="M138.447 177.132c.001.1-7.117.244-15.897.321-8.783.077-15.901.059-15.902-.041-.001-.1 7.116-.244 15.899-.321 8.779-.077 15.899-.059 15.9.041z"/><path style="fill:#263238" d="M163.861 183.434c.001.1-12.794.294-28.575.433-15.786.139-28.58.171-28.581.071-.001-.1 12.791-.294 28.577-.433 15.781-.139 28.578-.17 28.579-.071zM163.229 188.101c.001.1-12.644.293-28.239.43-15.6.138-28.243.168-28.244.068-.001-.1 12.641-.292 28.241-.43 15.596-.137 28.242-.168 28.242-.068zM140.135 192.751c.001.1-7.465.247-16.672.328-9.211.081-16.676.066-16.677-.034s7.463-.247 16.674-.328c9.207-.081 16.674-.065 16.675.034z"/><path transform="matrix(1 -.0088 .0088 1 -1.949 .778)" style="fill:#455a64" d="M76.586 210.767h21.291v21.291H76.586z"/><path style="fill:#e8505b" d="M138.76 212.602c.001.1-7.118.244-15.897.321-8.783.077-15.901.059-15.902-.041-.001-.1 7.116-.244 15.899-.321 8.779-.077 15.899-.058 15.9.041z"/><path style="fill:#263238" d="M164.173 218.905c.001.1-12.794.294-28.575.433-15.786.139-28.58.171-28.581.071-.001-.1 12.791-.294 28.577-.433 15.782-.139 28.579-.171 28.579-.071zM163.542 223.572c.001.1-12.644.293-28.239.43-15.6.138-28.243.168-28.244.068-.001-.1 12.641-.293 28.241-.43 15.595-.137 28.241-.168 28.242-.068zM140.447 228.222c.001.1-7.464.247-16.672.328-9.211.081-16.676.066-16.677-.034-.001-.1 7.463-.247 16.674-.328 9.208-.081 16.675-.066 16.675.034z"/><path transform="matrix(1 -.0088 .0088 1 -2.263 .782)" style="fill:#e8505b" d="M76.899 246.237H98.19v21.291H76.899z"/><path style="fill:#455a64" d="M139.073 248.073c.001.1-7.118.244-15.897.321-8.783.077-15.901.059-15.902-.041-.001-.1 7.116-.244 15.899-.321 8.779-.077 15.899-.059 15.9.041z"/><path style="fill:#263238" d="M164.486 254.376c.001.1-12.794.294-28.575.433-15.786.139-28.58.171-28.581.071-.001-.1 12.791-.294 28.578-.433 15.781-.139 28.577-.171 28.578-.071zM163.855 259.043c.001.1-12.644.293-28.239.43-15.6.138-28.243.168-28.244.068-.001-.1 12.641-.293 28.241-.43 15.595-.137 28.241-.168 28.242-.068zM140.76 263.693c.001.1-7.464.247-16.672.328-9.211.081-16.676.066-16.677-.034s7.463-.247 16.674-.328c9.207-.081 16.674-.066 16.675.034z"/><path transform="matrix(1 -.0088 .0088 1 -2.575 .786)" style="fill:#e0e0e0" d="M77.211 281.708h21.291v21.291H77.211z"/><path style="fill:#e0e0e0" d="M139.385 283.544c.001.1-7.117.244-15.897.321-8.783.077-15.901.059-15.902-.041-.001-.1 7.116-.244 15.899-.321 8.78-.077 15.9-.059 15.9.041z"/><path style="fill:#ebebeb" d="M164.799 289.847c.001.1-12.794.294-28.575.433-15.786.139-28.58.171-28.581.071-.001-.1 12.791-.294 28.577-.433 15.782-.139 28.578-.171 28.579-.071zM164.168 294.514c.001.1-12.644.293-28.239.43-15.6.138-28.244.168-28.244.068-.001-.1 12.641-.293 28.241-.43 15.595-.138 28.241-.168 28.242-.068zM141.073 299.164c.001.1-7.464.247-16.672.328-9.211.081-16.676.066-16.677-.034-.001-.1 7.463-.247 16.674-.328 9.207-.081 16.674-.066 16.675.034z"/><path transform="matrix(1 -.0088 .0088 1 -2.263 .782)" d="M76.899 246.237H98.19v21.291H76.899z" style="opacity:.3"/><path style="fill:#fff" d="m415.366 305.349-11.834-.083c-1.586-.011-2.882 1.321-2.893 2.975l-.015 2.14c-.01 1.654-1.306 2.987-2.893 2.976l-23.066-.161c-1.586-.011-2.865-1.361-2.854-3.016l.015-2.14c.011-1.654-1.267-3.005-2.854-3.016l-4.162-.03-10.357-.072c-5.144-.036-9.342 4.094-9.376 9.224l-.861 95.982c-.034 5.127 4.105 9.311 9.246 9.347l60.911.426c5.143.036 9.341-4.093 9.375-9.223l.861-95.983c.036-5.126-4.102-9.31-9.243-9.346z"/><path style="fill:#263238" d="m415.366 305.349.989.05c.645.093 1.625.235 2.796.763 1.149.534 2.539 1.416 3.65 2.936 1.146 1.476 1.937 3.627 1.846 6.067l-.335 41.085-.242 28.371-.137 15.805-.072 8.265c-.031 1.386.069 2.822-.31 4.216a9.358 9.358 0 0 1-1.963 3.8 9.704 9.704 0 0 1-3.499 2.556c-1.35.582-2.853.771-4.321.731l-8.907-.061a295019.282 295019.282 0 0 1-37.403-.258l-9.734-.068c-1.636-.026-3.266.01-4.923-.068-1.662-.1-3.279-.716-4.657-1.652-1.366-.966-2.485-2.276-3.169-3.795-.741-1.5-.907-3.214-.853-4.838l.088-9.737.172-19.037.329-35.989.155-16.759.074-8.028.036-3.921c.018-1.288-.03-2.602.306-3.853.62-2.504 2.31-4.649 4.473-5.865a9.314 9.314 0 0 1 3.479-1.146c1.216-.132 2.41-.052 3.593-.061l6.956.052 3.367.026 1.655.013a2.972 2.972 0 0 1 1.603.403c.973.563 1.525 1.684 1.49 2.76l-.012 1.577c-.014.526-.014 1.036.168 1.514.322.958 1.167 1.706 2.137 1.877.974.098 1.987.04 2.956.068l11.036.085 9.601.073c1.496.008 2.663-1.292 2.776-2.608.038-.663.02-1.327.033-1.964-.016-.632.031-1.291.321-1.839.528-1.127 1.737-1.757 2.82-1.662l3.014.026 4.724.043 3.894.047-3.895-.006-4.724-.023-3.014-.016c-1.067-.089-2.232.527-2.747 1.626-.281.539-.325 1.164-.308 1.805-.011.642.009 1.292-.029 1.973-.112 1.354-1.313 2.701-2.865 2.697l-9.603-.056-11.036-.069c-.981-.027-1.958.035-2.98-.066-1.02-.178-1.906-.963-2.244-1.965-.191-.496-.191-1.046-.178-1.561l.01-1.577c.032-1.035-.497-2.098-1.422-2.633a2.819 2.819 0 0 0-1.529-.38l-1.655-.011-3.367-.022-6.956-.045c-1.181.01-2.387-.067-3.572.063a9.146 9.146 0 0 0-3.417 1.129c-2.124 1.196-3.782 3.304-4.388 5.762-.329 1.225-.281 2.515-.298 3.813l-.034 3.921-.069 8.028-.146 16.759-.317 35.989-.169 19.037-.087 9.737c-.052 1.626.109 3.275.835 4.749.669 1.486 1.764 2.766 3.099 3.711 1.349.915 2.928 1.519 4.554 1.616 1.628.077 3.278.041 4.908.067l9.734.069 19.033.135 18.37.131 8.907.064c1.462.039 2.916-.145 4.244-.714a9.52 9.52 0 0 0 3.428-2.502 9.18 9.18 0 0 0 1.925-3.722c.372-1.357.275-2.775.307-4.171l.076-8.265.147-15.805.267-28.371.402-41.084c.096-2.427-.681-4.557-1.815-6.03-1.099-1.514-2.477-2.397-3.618-2.935-1.163-.531-2.138-.681-2.781-.78l-.983-.072z"/><path transform="translate(.851 -.92)" style="fill:#e8505b" d="M352.252 332.72h64.361v44.69h-64.361z"/><path style="fill:#fff" d="M393.773 355.003a9.34 9.34 0 0 1-9.363 9.318 9.34 9.34 0 0 1-9.318-9.363 9.34 9.34 0 0 1 9.363-9.318c5.158.012 9.33 4.204 9.318 9.363z"/><path style="fill:#e8505b" d="m382.134 354.975.01-4.208 3.639 2.113 3.639 2.113-3.649 2.095-3.649 2.096z"/><path style="fill:#263238" d="m359.148 384.035.002-.72c0-.064.07-.105.126-.072l.623.362.623.362a.084.084 0 0 1 0 .145l-.625.359-.624.358a.083.083 0 0 1-.125-.073v-.721zM364.994 383.485l-.543-.001a.084.084 0 0 0-.084.084l-.001.48-.001.48c0 .046.037.084.083.084l.543.001.833.837.003-1.399.003-1.399-.836.833zM361.023 384.905a.143.143 0 0 1-.143-.144l.003-1.443a.144.144 0 0 1 .287.001l-.003 1.443a.144.144 0 0 1-.144.143zM366.166 383.177l-.001.233-.003 1.283-.001.233a.938.938 0 0 0 .005-1.749z"/><path style="fill:#263238" d="m366.168 382.51-.001.365a1.225 1.225 0 0 1-.005 2.354l-.001.365a1.579 1.579 0 0 0 .007-3.084zM370.68 383.487l-.004 1.696-.24-.001.004-1.485-.383-.001v-.211l.623.002zM371.044 384.052c0-.097.076-.164.165-.164.087 0 .16.068.159.165a.161.161 0 0 1-.16.167.164.164 0 0 1-.164-.168zm-.003.978c0-.097.076-.164.165-.164.087 0 .16.068.159.165a.161.161 0 0 1-.16.167.164.164 0 0 1-.164-.168zM371.597 384.337c.001-.552.298-.867.695-.866.395.001.69.316.688.869-.001.552-.298.866-.693.865-.396-.001-.691-.316-.69-.868zm1.141.002c.001-.434-.183-.652-.447-.653-.266-.001-.451.217-.452.651-.001.434.183.652.449.652.265.001.449-.216.45-.65zM373.732 383.494l-.004 1.696-.24-.001.004-1.485-.383-.001.001-.211.622.002zM375.37 383.154h.211l-.805 2.28h-.211l.805-2.28zM377.591 384.719c-.001.308-.263.498-.677.497-.412-.001-.671-.193-.67-.5 0-.194.107-.337.299-.409a.384.384 0 0 1-.237-.366c.001-.284.246-.46.612-.459.368.001.615.178.614.462a.384.384 0 0 1-.241.365c.194.075.3.216.3.41zm-.242-.008c0-.187-.164-.303-.433-.304-.269-.001-.429.115-.429.302 0 .191.159.311.428.311.268.001.433-.117.434-.309zm-.803-.76c0 .167.137.271.37.272.235.001.378-.103.379-.27 0-.169-.15-.274-.377-.275-.228 0-.371.104-.372.273zM377.81 384.068c0-.097.076-.164.165-.164.087 0 .16.068.159.165a.161.161 0 0 1-.16.167.164.164 0 0 1-.164-.168zm-.003.979c0-.097.076-.164.165-.164.087 0 .16.068.159.165a.161.161 0 0 1-.16.167.165.165 0 0 1-.164-.168zM378.363 384.353c.001-.552.298-.867.695-.866.395.001.69.316.688.869-.001.552-.298.866-.693.865-.396 0-.691-.316-.69-.868zm1.141.003c.001-.434-.183-.652-.447-.653-.266-.001-.451.217-.452.651-.001.434.183.652.449.653.265 0 .449-.218.45-.651zM379.978 384.357c.001-.552.297-.866.695-.866.395.001.69.317.688.869-.001.552-.298.866-.693.865-.397-.001-.691-.316-.69-.868zm1.141.002c.001-.434-.182-.652-.447-.653-.266-.001-.451.217-.452.651-.001.434.183.652.449.653.264 0 .449-.217.45-.651zM352.964 384.895a.286.286 0 0 1-.285-.286l.004-1.493a.286.286 0 0 1 .571.001l-.004 1.493a.285.285 0 0 1-.286.285zM354.26 384.898a.286.286 0 0 1-.285-.286l.004-1.493a.286.286 0 0 1 .571.001l-.004 1.493a.285.285 0 0 1-.286.285z"/><path style="fill:#e0e0e0" d="m416.244 381.46-63.445-.152a.611.611 0 0 1 .003-1.221l63.445.152a.61.61 0 0 1-.003 1.221z"/><path style="fill:#e8505b" d="m376.116 381.364-23.317-.056a.611.611 0 0 1 .003-1.221l23.317.056a.53.53 0 0 1 .529.531v.161a.53.53 0 0 1-.532.529z"/><path style="fill:#e8505b" d="M377.265 380.757a1.164 1.164 0 1 1-2.329-.004 1.164 1.164 0 0 1 2.329.004z"/><path style="fill:#263238" d="M416.353 392.704c0 .144-14.179.226-31.664.185-17.492-.042-31.667-.192-31.666-.336 0-.144 14.176-.227 31.667-.185 17.485.042 31.663.192 31.663.336zM416.338 398.964c0 .144-14.179.227-31.664.185-17.492-.042-31.667-.192-31.666-.336 0-.144 14.176-.226 31.668-.185 17.484.042 31.662.192 31.662.336zM416.323 405.224c0 .144-14.179.227-31.664.185-17.492-.042-31.667-.192-31.666-.336 0-.144 14.176-.227 31.667-.185 17.485.042 31.663.192 31.663.336z"/><path style="fill:#fff" d="m415.768 132.558-11.834-.054c-1.586-.007-2.879 1.328-2.885 2.982l-.01 2.14c-.006 1.654-1.299 2.99-2.885 2.982l-23.066-.106c-1.586-.007-2.868-1.354-2.861-3.009l.01-2.14c.007-1.654-1.274-3.002-2.861-3.009l-4.162-.02-10.357-.047c-5.144-.024-9.332 4.117-9.354 9.246l-.631 148.934c-.022 5.127 4.127 9.301 9.268 9.325l60.911.281c5.143.024 9.332-4.115 9.353-9.246l.631-148.935c.022-5.127-4.126-9.301-9.267-9.324z"/><path style="fill:#263238" d="m415.768 132.558.318.012c.21.021.53-.002.941.078.823.1 2.075.372 3.481 1.215a9.348 9.348 0 0 1 3.878 4.497c.457 1.105.702 2.395.684 3.772l-.014 4.381-.189 52.434a1766268.77 1766268.77 0 0 0-.352 88.875c-.056 1.858.166 3.786-.409 5.642-.283.914-.695 1.79-1.23 2.592a10.068 10.068 0 0 1-1.976 2.1c-1.523 1.186-3.428 1.927-5.385 1.986-1.944.038-3.882-.005-5.838-.003l-11.836-.053-24.29-.11-12.423-.057-6.274-.029c-2.104.098-4.278-.458-6.035-1.679a9.49 9.49 0 0 1-3.669-5.077c-.323-1.014-.384-2.093-.38-3.137l.013-3.133.053-12.427.104-24.296.201-45.93.186-41.561.086-18.835c.035-1.5-.103-3.024.29-4.481.365-1.444 1.045-2.802 2.018-3.893a9.666 9.666 0 0 1 3.478-2.518c1.321-.552 2.752-.745 4.137-.715l8.101.041 3.897.02 1.909.01a2.92 2.92 0 0 1 1.806.557c.512.379.901.916 1.092 1.514.215.602.15 1.236.157 1.833.012.601-.043 1.216.031 1.79.083.578.345 1.123.73 1.549a2.79 2.79 0 0 0 1.448.855c.551.111 1.136.053 1.701.072l3.354.017 12.254.065 5.403.029c.427-.006.859.024 1.266-.015.41-.048.801-.191 1.141-.406a2.95 2.95 0 0 0 1.303-1.883c.128-.75.049-1.517.078-2.243-.031-.722.053-1.472.42-2.07a2.913 2.913 0 0 1 1.497-1.287c.612-.253 1.257-.17 1.845-.18l6.028.038 4.971.044-4.97-.002-6.028-.018c-.592.012-1.227-.068-1.82.181a2.845 2.845 0 0 0-1.459 1.26c-.358.59-.438 1.304-.406 2.034-.028.731.055 1.48-.075 2.259a3.033 3.033 0 0 1-1.337 1.938 2.84 2.84 0 0 1-1.176.42c-.427.041-.846.011-1.277.018l-5.403-.02-12.254-.048-3.354-.013c-.568-.02-1.141.042-1.728-.073a2.925 2.925 0 0 1-1.514-.892 3.075 3.075 0 0 1-.763-1.613c-.077-.61-.021-1.202-.035-1.81-.007-.606.054-1.221-.152-1.792a2.926 2.926 0 0 0-1.046-1.448c-1.007-.788-2.382-.456-3.637-.537l-3.897-.016-8.101-.034c-1.378-.028-2.775.163-4.078.707a9.508 9.508 0 0 0-3.42 2.48c-.957 1.074-1.624 2.41-1.982 3.829-.385 1.424-.249 2.936-.282 4.444l-.074 18.835-.167 41.561-.189 45.93-.101 24.296-.052 12.427-.013 3.133c-.003 1.042.055 2.082.371 3.078a9.288 9.288 0 0 0 3.588 4.964c1.725 1.194 3.827 1.737 5.917 1.642l6.274.029 12.423.058 24.29.113 11.836.056c1.952-.001 3.904.041 5.828.005 1.916-.058 3.78-.782 5.272-1.943a9.803 9.803 0 0 0 1.935-2.056 9.82 9.82 0 0 0 1.205-2.536c.563-1.803.347-3.718.402-5.586l.049-11.109.352-77.765.255-52.433c-.068-3.073.35-5.908-.646-8.129a9.323 9.323 0 0 0-3.842-4.485 8.82 8.82 0 0 0-3.462-1.23c-.41-.083-.729-.063-.939-.088-.168-.01-.253-.016-.318-.021z"/><path style="fill:#263238" d="M414.621 154.138c0 .146-12.865.263-28.73.263-15.872 0-28.733-.118-28.733-.263 0-.146 12.861-.263 28.733-.263 15.866 0 28.73.118 28.73.263z"/><path style="fill:#e8505b" d="M359.831 250.03h52.219v36.259h-52.219z"/><path style="fill:#fff" d="m307.195 168.983-17.728-.01c-2.377-.001-4.305 2.013-4.305 4.497l-.001 3.216c0 2.485-1.928 4.499-4.305 4.498l-34.555-.02c-2.377-.001-4.304-2.017-4.304-4.503l.001-3.216c0-2.485-1.927-4.501-4.304-4.503l-6.235-.004-15.516-.009c-7.706-.004-13.955 6.24-13.957 13.946l-.044 223.744c-.002 7.703 6.239 13.948 13.941 13.952l91.252.053c7.705.005 13.955-6.24 13.957-13.946l.044-223.745c.001-7.7-6.239-13.945-13.941-13.95z"/><path style="fill:#263238" d="M307.195 168.983s.16.001.478.014c.315.03.796-.007 1.414.11 1.236.146 3.118.547 5.233 1.807 1.068.602 2.155 1.469 3.183 2.579a13.94 13.94 0 0 1 2.656 4.165c.691 1.659 1.064 3.596 1.045 5.663l.008 6.576.047 78.704.019 116.727v20.906c-.016 1.417-.107 2.875-.535 4.255-.402 1.38-.973 2.726-1.782 3.931a15.071 15.071 0 0 1-2.906 3.224c-2.268 1.82-5.11 2.982-8.056 3.127-2.925.086-5.829.022-8.767.04l-17.766-.008-36.459-.018-18.648-.01-9.418-.005c-3.161.161-6.442-.673-9.085-2.509-2.656-1.823-4.616-4.579-5.53-7.638-.492-1.525-.583-3.152-.583-4.719l.001-4.703.004-18.653.01-36.469.025-68.942.03-62.385.017-28.272.002-3.384c.008-.562.048-1.13.079-1.692.098-.555.141-1.12.286-1.663.511-2.184 1.521-4.229 2.934-5.911 1.423-1.673 3.209-3 5.174-3.867 1.963-.886 4.12-1.199 6.201-1.173l12.16.014 5.85.007 2.866.004c.958-.048 1.958.215 2.746.767a4.614 4.614 0 0 1 1.707 2.241c.358.896.272 1.863.283 2.755l-.001 1.358c.001.453-.015.901.044 1.33.111.863.476 1.69 1.041 2.335a4.114 4.114 0 0 0 2.132 1.324c.412.103.823.132 1.257.124l1.285.002 5.035.007 18.394.027 8.109.013c.64-.011 1.292.029 1.9-.024a4.096 4.096 0 0 0 1.707-.6 4.414 4.414 0 0 0 1.955-2.811c.128-.558.106-1.127.109-1.694l.003-1.669c.007-.544-.027-1.092.073-1.627a4.739 4.739 0 0 1 .526-1.494 4.4 4.4 0 0 1 2.227-1.968c.916-.398 1.891-.277 2.77-.296l9.048.024 5.564.023c1.257.007 1.899.021 1.899.021s-.642.013-1.896.019l-5.564.016-9.049.014c-.89.021-1.842-.093-2.723.296a4.273 4.273 0 0 0-2.155 1.917 4.608 4.608 0 0 0-.507 1.452c-.095.514-.061 1.054-.067 1.604l.001 1.669c-.002.56.023 1.146-.108 1.726a4.576 4.576 0 0 1-2.019 2.916 4.246 4.246 0 0 1-1.775.628c-.646.057-1.27.016-1.919.029l-8.11.004-18.394.005-5.035.001h-1.285c-.426.01-.884-.02-1.313-.129a4.35 4.35 0 0 1-2.254-1.395 4.652 4.652 0 0 1-1.101-2.458c-.063-.459-.045-.913-.047-1.361l-.001-1.358c-.011-.911.068-1.829-.272-2.672a4.366 4.366 0 0 0-1.616-2.118 4.206 4.206 0 0 0-2.604-.719H216.506c-2.063-.022-4.16.285-6.087 1.156a14.247 14.247 0 0 0-5.064 3.793 13.977 13.977 0 0 0-2.867 5.79c-.141.531-.181 1.084-.278 1.627-.029.552-.068 1.102-.076 1.661l.001 3.384.006 28.272.006 62.385-.002 68.942-.004 36.469-.003 18.653-.001 4.703c.001 1.564.088 3.118.567 4.608.889 2.973 2.794 5.653 5.376 7.425 2.583 1.784 5.727 2.595 8.861 2.439a2320452.7 2320452.7 0 0 1 82.291.055c2.928-.017 5.865.047 8.744-.036 2.867-.14 5.631-1.27 7.841-3.04a14.705 14.705 0 0 0 2.83-3.138c.788-1.173 1.344-2.483 1.736-3.826.417-1.348.505-2.752.522-4.155l.002-4.23.007-16.676.065-116.727.078-78.704.01-6.576c.025-2.055-.339-3.97-1.018-5.619a13.862 13.862 0 0 0-2.621-4.142c-1.016-1.106-2.092-1.973-3.151-2.577-2.097-1.264-3.966-1.678-5.198-1.835-.616-.123-1.095-.092-1.409-.129-.314-.023-.475-.038-.475-.038z"/><path style="fill:#263238" d="M310.033 193.07c0 .06-2.305.128-5.148.151-2.844.024-5.15-.006-5.151-.066 0-.06 2.304-.128 5.149-.151 2.844-.024 5.15.006 5.15.066zM310.055 195.705c0 .06-2.305.128-5.148.151-2.845.023-5.15-.006-5.151-.066-.001-.06 2.304-.128 5.149-.151 2.844-.024 5.15.006 5.15.066zM310.077 198.34c0 .06-2.305.128-5.148.151-2.845.023-5.15-.006-5.151-.066-.001-.06 2.304-.128 5.149-.151 2.843-.024 5.149.006 5.15.066zM212.044 200.029c.004-.004.077-.009.214-.014l.596-.02 2.199-.052-.061.062-.026-1.594c.003-.296-.025-.576.003-.918a.846.846 0 0 1 .738-.678c.355-.007.667-.023 1.051-.005.396.048.733.43.721.849l.026 2.326-.102-.1 2.774-.028-.105.107-.031-3.456-.008-.88c-.001-.271-.166-.453-.39-.656l-1.213-1.195-1.17-1.154-.567-.56c-.195-.188-.348-.382-.574-.428a.744.744 0 0 0-.636.122c-.168.142-.347.343-.516.508l-.995 1.004c-.626.65-1.278 1.244-1.752 1.806-.2.31-.125.69-.14 1.035l-.002.977-.01 1.575-.011 1.007a3.382 3.382 0 0 1-.013.36 2.725 2.725 0 0 1-.019-.334l-.028-.991-.036-1.587a495.868 495.868 0 0 1-.026-1.542c-.002-.197.049-.4.153-.581.513-.629 1.126-1.186 1.756-1.855l.988-1.012c.178-.175.324-.348.535-.531a.942.942 0 0 1 .804-.158c.295.065.487.307.666.476l.569.558 1.174 1.151 1.215 1.193c.097.103.215.191.31.336.09.138.141.302.146.468l.008.885.026 3.456.001.107-.106.001-2.774.018-.101.001-.001-.101-.012-2.326a.668.668 0 0 0-.561-.673c-.319-.017-.696-.006-1.006-.003a.681.681 0 0 0-.598.539c-.027.279-.006.604-.012.886l.001 1.595v.063h-.061l-2.236-.016-.582-.01c-.131-.006-.197-.009-.193-.013z"/><path style="fill:#e8505b" d="M217.737 342.815h21.291v21.291h-21.291zM279.986 345.105c0 .1-7.119.181-15.9.181-8.783 0-15.901-.081-15.901-.181 0-.1 7.118-.181 15.901-.181 8.781 0 15.9.081 15.9.181z"/><path style="fill:#263238" d="M305.344 351.632c0 .1-12.796.181-28.577.181-15.787 0-28.58-.081-28.58-.181 0-.1 12.794-.181 28.58-.181 15.78 0 28.577.081 28.577.181zM304.671 356.293c0 .1-12.646.181-28.241.181-15.601 0-28.244-.081-28.244-.181 0-.1 12.643-.181 28.244-.181 15.595 0 28.241.081 28.241.181zM281.536 360.739c0 .1-7.466.181-16.674.181-9.211 0-16.676-.081-16.676-.181 0-.1 7.465-.181 16.676-.181 9.208 0 16.674.081 16.674.181z"/><path d="M217.737 342.815h21.291v21.291h-21.291z" style="opacity:.3"/><path style="fill:#e8505b" d="M217.737 377.467h21.291v21.291h-21.291zM279.986 379.758c0 .1-7.119.181-15.9.181-8.783 0-15.901-.081-15.901-.181 0-.1 7.118-.181 15.901-.181 8.781 0 15.9.081 15.9.181z"/><path style="fill:#263238" d="M305.344 386.284c0 .1-12.796.181-28.577.181-15.787 0-28.58-.081-28.58-.181 0-.1 12.794-.181 28.58-.181 15.78 0 28.577.081 28.577.181zM304.671 390.945c0 .1-12.646.181-28.241.181-15.601 0-28.244-.081-28.244-.181 0-.1 12.643-.181 28.244-.181 15.595 0 28.241.081 28.241.181zM281.536 395.392c0 .1-7.466.181-16.674.181-9.211 0-16.676-.081-16.676-.181 0-.1 7.465-.181 16.676-.181 9.208 0 16.674.081 16.674.181z"/><path d="M217.737 377.467h21.291v21.291h-21.291z" style="opacity:.3"/><path transform="rotate(-89.679 262.367 255.038)" style="fill:#e8505b" d="M237.714 222.251h49.293v65.582h-49.293z"/><path style="fill:#e8505b" d="m228.584 279.506 23.076-30.512 14.083 19.249 9.681-10.195 18.741 21.823zM271.894 245.353a5.164 5.164 0 1 1-10.328-.058 5.164 5.164 0 0 1 10.328.058z"/><path d="m228.584 279.506 23.076-30.512 14.083 19.249 9.681-10.195 18.741 21.823zM271.894 245.353a5.164 5.164 0 1 1-10.328-.058 5.164 5.164 0 0 1 10.328.058z" style="opacity:.2"/><path style="fill:#263238" d="M304.049 289.24c0 .144-19.046.26-42.535.26-23.497 0-42.539-.116-42.539-.26 0-.144 19.042-.26 42.539-.26 23.489-.001 42.535.116 42.535.26zM304.049 294.777c0 .144-19.046.26-42.535.26-23.497 0-42.539-.116-42.539-.26 0-.144 19.042-.26 42.539-.26 23.489 0 42.535.117 42.535.26z"/><path style="fill:#e8505b" d="M275.381 321.32h-27.737a7.27 7.27 0 0 1 0-14.54h27.737a7.27 7.27 0 0 1 0 14.54z"/><path style="fill:#e0e0e0" d="M319.942 328.546c0 .144-26.224.26-58.565.26-32.352 0-58.57-.117-58.57-.26s26.218-.26 58.57-.26c32.341-.001 58.565.116 58.565.26z"/><path style="fill:#e8505b" d="M285.647 218.211c0 .144-10.806.26-24.134.26-13.332 0-24.136-.117-24.136-.26 0-.144 10.804-.26 24.136-.26 13.328 0 24.134.117 24.134.26zM290.478 314.05a1.581 1.581 0 1 1-3.162 0 1.581 1.581 0 0 1 3.162 0z"/><path style="fill:#e8505b" d="M354.471 209.809c0 .008-.131.017-.386.025l-1.137.024-4.393.046-16.355.08.175-.175-.039 62.529-.117 41.712-.001.227-.226-.001-31.232-.094-8.762-.063-2.31-.034-.592-.018a.855.855 0 0 1-.2-.018c0-.006.068-.012.2-.018l.592-.018 2.31-.034 8.762-.063 31.232-.094-.226.226.049-41.712.209-62.529.001-.176.175.001 16.355.08 4.393.046 1.137.024c.256.01.386.019.386.027z"/><circle style="fill:#fff" cx="385.94" cy="268.091" r="7.579"/><path style="fill:#e8505b" d="M384.075 268.091v-3.414l2.957 1.707 2.957 1.707-2.957 1.707-2.957 1.707z"/><path transform="rotate(-89.679 385.065 182.234)" style="fill:#455a64" d="M365.602 156.354h38.914v51.774h-38.914z"/><path style="fill:#263238" d="m358.394 201.553 18.218-24.087 11.117 15.196 7.643-8.048 14.795 17.228zM392.585 174.592a4.078 4.078 0 0 1-8.153-.045 4.078 4.078 0 0 1 8.153.045z"/><path style="fill:#455a64" d="M365.104 209.275h40.079v2.681h-40.079z"/><path style="fill:#263238" d="M413.876 219.653c0 .145-12.865.263-28.73.263-15.872 0-28.733-.118-28.733-.263 0-.146 12.861-.264 28.733-.264 15.865 0 28.73.118 28.73.264zM413.876 226.992c0 .146-12.865.264-28.73.264-15.872 0-28.733-.118-28.733-.264 0-.145 12.861-.263 28.733-.263 15.865 0 28.73.117 28.73.263zM413.876 234.331c0 .145-12.865.263-28.73.263-15.872 0-28.733-.118-28.733-.263 0-.146 12.861-.264 28.733-.264 15.865.001 28.73.118 28.73.264zM413.876 241.67c0 .145-12.865.264-28.73.264-15.872 0-28.733-.118-28.733-.264 0-.145 12.861-.264 28.733-.264 15.865.001 28.73.119 28.73.264z"/><path style="fill:#e8505b" d="M356.052 209.809a1.581 1.581 0 1 1-3.162 0 1.581 1.581 0 0 1 3.162 0zM387.466 291.221c0 .746-.683 1.351-1.526 1.351-.842 0-1.526-.605-1.526-1.351s.683-1.351 1.526-1.351 1.526.605 1.526 1.351zM387.466 326.876c0 .746-.683 1.351-1.526 1.351-.842 0-1.526-.605-1.526-1.351s.683-1.351 1.526-1.351 1.526.605 1.526 1.351z"/><path style="fill:#e8505b" d="M385.94 326.876c-.144 0-.26-7.982-.26-17.827 0-9.848.117-17.828.26-17.828.144 0 .26 7.98.26 17.828.001 9.845-.116 17.827-.26 17.827zM261.375 205.686c-.008 0-.015-.091-.023-.27l-.022-.796-.042-3.081-.074-11.498-.091-39.376.253.253-17.449.008-51.252-.076-15.531-.083-4.223-.049-1.098-.026c-.247-.009-.374-.018-.374-.027 0-.009.127-.018.374-.027l1.098-.026 4.223-.049 15.531-.083 51.252-.076 17.449.008h.253l-.001.253-.091 39.376-.074 11.498-.042 3.081-.022.796c-.009.179-.017.27-.024.27z"/><path style="fill:#e8505b" d="M262.956 205.686a1.581 1.581 0 1 1-3.162 0 1.581 1.581 0 0 1 3.162 0zM173.029 150.664a1.581 1.581 0 1 1-3.162 0 1.581 1.581 0 0 1 3.162 0z"/><path style="fill:#ffbe9d" d="m142.074 153.281 4.99 6.488s2.418 3.733.531 4.531c-1.66.702-2.739-1.391-2.739-1.391s-1.055-4.763-3.121-3.595c-.287.162.216 3.542.491 5.258a2.48 2.48 0 0 0 .941 1.577l5.485 4.204a7.096 7.096 0 0 0 3.501 1.417l1.948.226 1.603 3.206 8.864-3.61-7.054-9.127-3.787-5.791a2.272 2.272 0 0 0-2.075-.499l-.879.228-.652-.658a1.51 1.51 0 0 0-1.486-.39l-.542.154-1.481-1.473c-.49-.488-3.868-3.635-4.501-3.355.004.001-1.267 1-.037 2.6z"/><path style="fill:#eb996e" d="M152.116 159.438c-.029.014-.144-.319-.507-.729-.362-.425-.979-.833-1.846-1.016-.681-.583-1.134-1.175-1.475-1.63-.325-.457-.46-.779-.444-.787.023-.012.192.287.535.719.34.416.86 1.035 1.458 1.555.181.059.383.103.582.173a2.928 2.928 0 0 1 1.277.912c.178.221.286.425.347.569.062.145.081.231.073.234zM153.143 158.126c-.017.004-.072-.17-.301-.347-.215-.183-.618-.317-1.044-.183l-.047.015-.035-.037a10.535 10.535 0 0 0-.11-.117c-.684-.731-1.212-1.349-1.18-1.379.032-.03.613.538 1.297 1.269l.109.117-.081-.022c.478-.149.949.03 1.16.254.233.216.258.431.232.43z"/><path style="fill:#e8505b" d="m143.005 436.093-3.136 28.68 15.44 2.002 3.2-28.729z"/><path style="fill:#263238" d="M147.614 464.68c.13.013.842-6.264 1.592-14.017.75-7.756 1.253-14.051 1.123-14.064-.129-.012-.842 6.263-1.592 14.019-.749 7.753-1.252 14.05-1.123 14.062z"/><path style="fill:#263238" d="m140.085 462.796 15.449 1.95-.225 2.029-15.44-2.002zM156.331 457.593c.025-.015-.083-.258-.33-.669a10.796 10.796 0 0 0-1.225-1.621 10.584 10.584 0 0 0-2.324-1.941c-.972-.605-2.184-1.087-3.52-1.215-2.678-.277-5.067.797-6.313 1.988a7.128 7.128 0 0 0-1.31 1.564c-.245.415-.345.661-.32.675.08.056.559-.919 1.847-1.986 1.251-1.076 3.511-2.032 6.052-1.772 2.534.252 4.486 1.751 5.646 2.916 1.186 1.194 1.727 2.108 1.797 2.061z"/><path d="m157.598 446.223-.352 3.159-15.467-2.076.26-2.38z" style="opacity:.3"/><path style="fill:#e8505b" d="M120.776 437.991 122 466.816l15.564-.349-1.166-28.883z"/><path style="fill:#263238" d="M129.642 465.557c.13-.007-.111-6.319-.539-14.097-.428-7.78-.88-14.08-1.01-14.073-.13.007.111 6.318.539 14.099.428 7.777.88 14.078 1.01 14.071z"/><path style="fill:#263238" d="m121.915 464.829 15.567-.401.082 2.039-15.564.349zM137.191 457.237c.023-.019-.121-.242-.427-.611a10.796 10.796 0 0 0-1.455-1.418 10.565 10.565 0 0 0-2.59-1.568c-1.052-.451-2.323-.745-3.663-.67-2.689.129-4.889 1.552-5.941 2.916a7.115 7.115 0 0 0-1.059 1.744c-.18.447-.241.706-.215.715.087.043.415-.993 1.527-2.242 1.074-1.252 3.165-2.538 5.716-2.664 2.543-.133 4.699 1.054 6.022 2.032 1.35 1 2.023 1.823 2.085 1.766z"/><path d="m136.73 445.805.128 3.176-15.603.28-.102-2.392z" style="opacity:.3"/><path style="fill:#263238" d="m138.213 374.6-.608-78.9h-30.663s-2.42 19.584-1.268 27.479 9.319 51.535 9.319 51.535 2.646 57.935 3.95 72.819l19.141-1.728.129-71.205z"/><path style="fill:#263238" d="M156.977 279.056s9.546 8.143 11.677 21.876c2.131 13.733-4.312 68.69-4.312 68.69l-5.432 76.183h-18.928l.611-73.351-3.273-54.638-2.126-17.28 21.783-21.48z"/><path style="fill:#455a64" d="M140.18 368.513c-.018.001-.045-.162-.08-.473l-.127-1.363a7231.96 7231.96 0 0 0-.362-5.018 904.047 904.047 0 0 1-.917-16.571c-.301-6.476-.501-12.343-.57-16.591a155.89 155.89 0 0 1-.021-5.032l.037-1.368c.014-.313.031-.477.048-.477.018 0 .037.164.057.477l.06 1.367.186 5.024.722 16.577.764 16.575.196 5.026.029 1.368c.004.313-.004.478-.022.479zM163.324 372.97c-.014.081-1.066-.061-2.77-.176a42.302 42.302 0 0 0-6.653.076c-2.59.245-4.902.728-6.553 1.157-1.653.428-2.661.763-2.689.686-.022-.057.943-.516 2.588-1.04 1.642-.525 3.978-1.073 6.606-1.322 2.628-.243 5.025-.137 6.736.076 1.712.211 2.746.483 2.735.543zM132.998 373.705c-.028.085-.917-.196-2.386-.417a18.687 18.687 0 0 0-5.763.052 18.676 18.676 0 0 0-5.462 1.843c-1.315.691-2.063 1.247-2.117 1.177-.035-.041.637-.707 1.937-1.498 1.293-.792 3.256-1.643 5.555-2.035 2.3-.384 4.433-.225 5.915.099 1.487.32 2.341.729 2.321.779zM133.195 374.698c.056.121-2.397 1.293-5.638 2.095-3.239.814-5.954.93-5.962.797-.016-.153 2.642-.499 5.836-1.302 3.196-.791 5.706-1.733 5.764-1.59z"/><path style="fill:#455a64" d="M139.185 320.876c.024.025-.227.303-.704.79-.235.248-.537.536-.903.857-.357.331-.777.693-1.262 1.071a24.755 24.755 0 0 1-3.605 2.412c-1.453.771-3.102 1.546-5.054 1.877l.036-.007-.924.218c-3.974.871-7.712.546-10.278-.042a20.98 20.98 0 0 1-2.993-.903c-.685-.275-1.049-.459-1.037-.489.033-.09 1.541.542 4.104 1.031 2.549.487 6.207.746 10.094-.107l.904-.213.009-.002.027-.004c1.8-.3 3.469-1.046 4.89-1.775 1.43-.744 2.632-1.563 3.61-2.281 1.949-1.45 3.023-2.499 3.086-2.433zM145.64 301.423c.018.014.084.314.195.866l.462 2.372 1.558 8.406-.134-.163 8.232 3.119-.29.081 4.15-5.386 1-1.294-.052.189-1.276-11.264.343.172c-1.975 1.042-3.95 1.445-5.675 1.825a61.49 61.49 0 0 1-4.524.738c-1.262.16-2.258.255-2.939.306-.691.052-1.034.054-1.05.033-.016-.021.367-.083 1.033-.176l2.916-.432a73.38 73.38 0 0 0 4.483-.839c1.698-.402 3.668-.846 5.523-1.851l.303-.164.04.336 1.337 11.257.013.105-.065.084-.999 1.294-4.163 5.376-.115.149-.175-.068-8.204-3.191-.115-.045-.019-.119-1.358-8.583-.346-2.341c-.074-.531-.107-.805-.089-.792zM128.79 304.16c.016-.015.014.261-.002.798l-.088 2.365-.409 8.68-.006.12-.11.057-7.805 4.071-.166.087-.131-.136-4.727-4.887-1.135-1.177-.074-.077.001-.105.095-11.336.003-.338.32.13c1.954.796 3.961 1.021 5.693 1.235 1.746.192 3.282.281 4.548.343l2.946.109c.673.019 1.06.038 1.047.061-.013.023-.355.058-1.046.081a58.58 58.58 0 0 1-2.955.018 61.453 61.453 0 0 1-4.578-.238c-1.756-.189-3.763-.373-5.841-1.191l.322-.208-.034 11.336-.073-.182 1.136 1.177 4.715 4.899-.297-.049 7.84-4.003-.115.177.627-8.526.2-2.409c.05-.56.083-.867.099-.882zM137.699 317.606c-.066.014-.318-.825-.593-2.211a41.613 41.613 0 0 1-.682-5.478 41.6 41.6 0 0 1 .037-5.521c.111-1.409.263-2.271.33-2.265.158.013-.107 3.485.153 7.755.241 4.271.91 7.689.755 7.72zM163.322 322.346c.013.034-.257.164-.758.372-.498.214-1.241.469-2.174.736-1.863.536-4.529 1.019-7.501 1.022-2.973-.005-5.638-.491-7.501-1.029-.932-.267-1.675-.523-2.173-.738-.501-.208-.77-.339-.757-.372.03-.082 1.156.315 3.022.753 1.864.441 4.488.859 7.409.865a33.205 33.205 0 0 0 7.409-.858c1.867-.437 2.994-.833 3.024-.751z"/><path style="fill:#e8505b" d="M115.566 197.408s-13.793 7.542-17.838 9.313l5.513 26.373 8.676 31.628-5.818 33.362s20.459 3.612 30.493 2.314c13.728-1.777 31.227-6.826 31.227-6.826L154.195 252.9l3.485-28.082-5.853-23.671-14.254-1.691-22.007-2.048z"/><path d="M109.091 223.78c.934 1.851 3.056 2.743 5.055 3.291 1.999.548 4.146.949 5.71 2.31 2.784 2.423 2.708 6.956 5.27 9.612 1.643 1.703 4.299 2.343 6.537 1.576 1.412-.484 2.667-1.475 4.154-1.618 1.032-.099 2.067.228 3.102.154 2.915-.208 4.618-3.293 5.782-5.975 1.205-2.778 2.436-5.709 2.14-8.723-.443-4.51-4.195-8.146-4.765-12.641-.211-1.664.03-3.359-.151-5.026-.181-1.668-.924-3.436-2.446-4.142" style="opacity:.3"/><path style="fill:#e8505b" d="m164.074 194.195-10.678-21.37 8.577-5.497s10.723 11.062 12.759 13.212c0 0 12.341 11.382 9.12 16.868-2.743 4.673-7.079 8.278-7.079 8.278l-12.699-11.491zM97.728 206.721c-.186.561-28.718 40.019-30.243 44.21-.085.233-.165.473-.242.719-1.7 5.46-.236 11.419 3.581 15.677l23.522 26.245 10.284-11.887-16.359-28.832 15.624-17.258-6.167-28.874z"/><path style="fill:#ffbe9d" d="M115.615 283.443c-.954.058-2.694 1.377-3.466 2a1.3 1.3 0 0 1-2.062-.641l-1.02-3.429a3.178 3.178 0 0 0-2.477 1.56l-1.135 1.937-1.953-1.882-9.154 10.452s3.604 3.886 5.891 3.949c2.287.062 13.024-8.764 13.024-8.764l2.847-2.509c0-.001 2.296-2.842-.495-2.673z"/><path style="fill:#e8505b" d="m145.262 200.368 8.093.363 11.531-8.819 16.32 8.952s-7.344 7.857-14.263 15.909c-5.595 6.51-9.579 10.577-9.579 10.577l-12.102-26.982z"/><path style="fill:#263238" d="M152.859 269.85c.025.026-.388.462-1.158 1.23-.764.774-1.918 1.845-3.386 3.121-2.932 2.555-7.215 5.838-12.315 8.891-5.108 3.044-10.031 5.257-13.671 6.626-1.82.687-3.31 1.196-4.353 1.501-1.041.314-1.621.471-1.632.436-.011-.034.548-.257 1.567-.628 1.021-.364 2.488-.923 4.283-1.652a100.97 100.97 0 0 0 13.538-6.73 100.938 100.938 0 0 0 12.344-8.725 111.072 111.072 0 0 0 3.486-2.988c.811-.721 1.272-1.108 1.297-1.082zM124.526 265.187c.121.078-2.754 4.74-6.42 10.411-3.668 5.673-6.738 10.207-6.858 10.129-.121-.078 2.754-4.739 6.421-10.412 3.665-5.672 6.736-10.206 6.857-10.128zM156.393 225.182c-.077-.006-.055-1.161-.133-3.028a142.177 142.177 0 0 0-.48-7.284c-.271-2.838-.6-5.399-.948-7.229-.328-1.837-.716-2.922-.641-2.953.056-.028.577 1.037 1.002 2.877.445 1.832.834 4.405 1.106 7.258.258 2.854.356 5.448.33 7.327-.017 1.879-.169 3.039-.236 3.032zM176.043 192.731c-.041.07-.727-.305-1.883-.77-1.151-.459-2.808-.992-4.688-1.029-1.887-.06-3.554.43-4.6 1.072-1.057.63-1.571 1.235-1.638 1.171-.042-.028.375-.732 1.44-1.482 1.049-.762 2.838-1.349 4.808-1.283 1.98.041 3.689.657 4.827 1.213 1.146.565 1.767 1.055 1.734 1.108z"/><path style="fill:#263238" d="M170.831 188.172c.027.193-2.275-.058-4.486 1.37-2.19 1.452-2.946 3.631-3.111 3.525-.056-.022.065-.565.479-1.363a7.14 7.14 0 0 1 2.348-2.598 6.876 6.876 0 0 1 3.332-1.078c.9-.04 1.443.085 1.438.144z"/><path d="M125.427 260.391c-.153-.932-.761-1.939-1.704-1.984-1.08-.052-1.757 1.118-2.177 2.115l-9.95 23.666-.35 1.54c4.016-6.372 8.003-12.483 12.019-18.855 1.244-1.973 2.539-4.182 2.162-6.482zM163.235 192.773c1.237-1.812 2.3-3.873 4.447-4.323a8.698 8.698 0 0 1 6.322 1.128c.41.257.848.685.699 1.146-.11.342-.496.505-.845.59-1.887.463-3.851-.082-5.777-.336-1.926-.254-3.415.585-4.703 2.039" style="opacity:.3"/><path style="fill:#263238" d="M102.224 231.389c-.062.024-.545-1.012-1.186-2.743a62.037 62.037 0 0 1-2.076-6.905 62.04 62.04 0 0 1-1.27-7.099c-.211-1.834-.248-2.976-.182-2.982.077-.008.244 1.119.546 2.931.302 1.812.762 4.306 1.411 7.03a105.402 105.402 0 0 0 1.918 6.908c.551 1.751.911 2.832.839 2.86z"/><path style="fill:#ffbe9d" d="m117.172 205.395 20.244.291-1.895-18.301s1.495.752 1.792-6.742c.297-7.494.988-20.221.988-20.221a26.062 26.062 0 0 0-26.268 2.577l-1.134.825 6.273 41.571z"/><path style="fill:#ffbe9d" d="M112.997 173.108c-.126-.059-5.109-1.664-5.085 3.466.024 5.129 5.169 4.047 5.177 3.9.008-.147-.092-7.366-.092-7.366zM137.096 172.694c.129-.052 4.731-1.159 4.428 3.961-.303 5.12-5.382 3.76-5.382 3.612 0-.147.954-7.573.954-7.573z"/><path style="fill:#263238" d="M125.068 151.436s-6.986-.253-9.485 1.024c-4.15 2.121-7.369 8.033-7.436 15.335-.066 7.302 3.253 17.216 8.614 22.11 5.362 4.894 9.596 5.797 9.596 5.797s11.354-6.196 12.621-15.247c1.267-9.052 2.133-17.78-1.413-22.176-3.546-4.396-9.921-6.728-12.497-6.843z"/><path style="fill:#263238" d="M109.093 172.51c-.408-4.643-.8-9.437.656-13.864 1.456-4.427 5.262-8.43 9.919-8.603 1.493-.056 3 .276 4.472.022 1.271-.219 2.424-.859 3.624-1.332 2.052-.809 4.382-1.127 6.465-.404 2.084.723 3.827 2.646 3.899 4.851.03.904-.205 1.846.111 2.694.325.871 1.154 1.435 1.732 2.164.912 1.149 1.174 2.708 1.027 4.167-.147 1.46-.666 2.853-1.179 4.227l-3.814 10.202"/><path style="fill:#263238" d="M120.794 175.107c2.651-1.295 5.93-1.213 8.512.214 2.582 1.426 4.398 4.159 4.713 7.092.326 3.034.329 3.521 2.29 5.859 1.21 1.443 2.375 1.357 3.797 2.591 1.841 1.598 2.404 4.491 1.296 6.663 3.671-.175 7.104-.412 8.358 3.043-5.483-1.132-10.966 3.987-16.449 2.855-1.734-.358-3.531-.744-4.943-1.811-1.619-1.224-2.501-3.165-3.318-5.024l-4.412-10.028c-.99-2.251-1.999-4.591-1.954-7.049.045-2.458 1.46-5.074 3.84-5.691"/><path style="fill:#e8505b" d="M118.581 178.463c-1.005-3.158.114-6.755 2.659-8.545 2.545-1.789 6.329-1.64 8.989.355 1.971 1.478 3.294 3.97 3.073 6.353-.221 2.383-2.155 4.459-4.516 4.507"/><path style="fill:#263238" d="M130.602 173.49c-3.228-2.643-8.043-2.085-10.659.532-2.616 2.617-2.878 8.014-2.085 11.629.853 3.89 3.228 7.656 2.441 11.56-.48 2.379-2.111 4.792-1.166 7.028.764 1.808 2.908 2.602 4.068 4.184 1.706 2.327.861 5.601-.284 8.249-1.145 2.649-2.556 5.512-1.758 8.285.62 2.153 2.435 3.702 3.88 5.414 1.445 1.712 2.605 4.113 1.637 6.133 1.847 1.381 4.556 1.482 6.5.242 1.945-1.24 2.995-3.739 2.522-5.996a6.803 6.803 0 0 1 1.922 4.392c3.136-.276 6.064-2.281 7.457-5.105 1.392-2.824 1.2-6.367-.49-9.023-1.235-1.942-3.237-3.515-3.658-5.777-.501-2.695 1.452-5.336 1.2-8.066-.226-2.45-2.16-4.378-4.137-5.843-1.977-1.465-4.19-2.775-5.471-4.876-2.071-3.398-1.111-7.735-.309-11.633.803-3.899 1.185-8.497-1.61-11.329"/><path style="fill:#263238" d="M118.777 175.874c-2.77 1.87-2.948 5.84-2.57 9.161.378 3.32.92 7.046-1.122 9.692-1.376 1.784-3.783 2.816-4.487 4.956-.857 2.608 1.286 5.225 1.532 7.959.178 1.976-.653 3.898-1.606 5.637-.953 1.74-2.063 3.437-2.526 5.366-.463 1.929-.129 4.208 1.408 5.462.968.79 2.25 1.059 3.485 1.249 4.415.68 8.937.665 13.348-.044 1.318-5.427 2.644-10.918 2.64-16.503-.008-11.095-5.247-21.669-5.386-32.763"/><path style="fill:#455a64" d="M126.551 232.768c-.014.011-.17-.163-.454-.502l-1.236-1.488c-1.057-1.305-2.682-3.125-4.356-5.646-.826-1.263-1.638-2.738-2.146-4.467-.531-1.704-.597-3.766.114-5.675.662-1.922 1.79-3.711 2.823-5.593.999-1.866 2.016-3.959 1.759-6.182-.202-2.224-1.692-4.055-2.357-6.174a6.622 6.622 0 0 1-.298-1.646c-.001-.56.078-1.12.265-1.639.379-1.043 1.084-1.851 1.737-2.597.66-.745 1.322-1.444 1.779-2.23.474-.773.683-1.645.721-2.5.065-1.726-.446-3.309-.88-4.738-.445-1.433-.811-2.775-.851-3.994-.053-1.222.236-2.267.624-3.027.389-.768.892-1.24 1.257-1.494.374-.251.607-.309.607-.309.061.052-.958.372-1.682 1.892-.345.743-.593 1.754-.515 2.923.065 1.175.444 2.475.911 3.899.454 1.421 1.008 3.034.96 4.866-.028.905-.25 1.871-.757 2.713-.486.851-1.166 1.574-1.815 2.318-.643.742-1.299 1.517-1.629 2.448a4.35 4.35 0 0 0-.229 1.457c.024.502.126 1.006.28 1.506.616 1.999 2.147 3.847 2.389 6.274.126 1.183-.056 2.374-.435 3.449-.376 1.078-.874 2.078-1.394 3.033-1.051 1.898-2.17 3.662-2.817 5.505-.69 1.831-.644 3.735-.152 5.401.471 1.672 1.244 3.128 2.04 4.386 1.613 2.515 3.196 4.375 4.204 5.718a49.76 49.76 0 0 1 1.16 1.551c.259.356.387.551.373.562z"/><path style="fill:#455a64" d="M115.653 194.195c-.091-.04.748-1.344 1.07-3.744.169-1.192.213-2.631.166-4.233-.042-1.601-.163-3.378-.057-5.256.111-1.873.486-3.683 1.287-5.147.805-1.455 1.943-2.501 3.042-3.095 1.104-.601 2.146-.755 2.838-.706.348.029.613.069.787.129.175.049.264.082.26.1-.011.053-.381-.043-1.049-.026-.664.014-1.633.217-2.653.823-1.016.601-2.068 1.622-2.802 3.003-.73 1.385-1.083 3.125-1.19 4.951-.104 1.835.001 3.6.017 5.216.021 1.617-.062 3.086-.282 4.3-.22 1.215-.561 2.164-.868 2.78-.304.619-.544.919-.566.905zM145.077 230.038c-.024-.006.028-.223.068-.638.048-.415.046-1.035-.015-1.828a23.138 23.138 0 0 0-1.579-6.521c-.573-1.274-1.472-2.597-2.146-4.163-.342-.781-.636-1.629-.777-2.543-.156-.915-.099-1.88.044-2.825.14-.949.358-1.895.482-2.862a9.49 9.49 0 0 0-.062-2.944 9.839 9.839 0 0 0-2.891-5.382c-1.526-1.485-3.651-2.164-5.219-3.64-1.573-1.472-2.361-3.472-2.715-5.347-.371-1.896-.306-3.737-.177-5.419.134-1.687.334-3.241.428-4.663.089-1.419.113-2.716-.048-3.823-.159-1.108-.555-2.012-1.064-2.606-1.045-1.222-2.092-1.181-2.048-1.24 0 0 .229-.03.644.084.407.122 1.007.408 1.557 1.023.56.603 1.008 1.551 1.198 2.692.194 1.144.194 2.455.128 3.892-.071 1.438-.25 3-.364 4.673-.109 1.67-.154 3.466.218 5.296.355 1.812 1.122 3.702 2.592 5.066 1.45 1.377 3.583 2.057 5.228 3.635a10.307 10.307 0 0 1 3.036 5.672 9.921 9.921 0 0 1 .052 3.097c-.134 1-.359 1.946-.501 2.87-.145.923-.204 1.824-.065 2.684.125.862.397 1.678.721 2.441.641 1.541 1.506 2.843 2.088 4.19a21.806 21.806 0 0 1 1.442 6.652c.031.806-.001 1.435-.083 1.854-.025.211-.085.366-.112.471-.031.102-.051.154-.06.152z"/><path style="fill:#455a64" d="M141.107 201.769c-.043-.025.25-.416.435-1.243.18-.813.261-2.085-.207-3.511-.489-1.387-1.671-2.898-3.443-3.773-.881-.393-1.979-.877-2.723-1.784-.762-.91-1.182-1.972-1.712-3.044-.934-2.27-.808-4.61-.814-6.618.023-2.021-.096-3.847-.636-5.257-.52-1.417-1.348-2.372-2.014-2.879-.668-.519-1.138-.653-1.118-.701.006-.017.122.01.342.078.213.082.532.21.895.459.732.477 1.649 1.443 2.238 2.91.612 1.465.769 3.358.772 5.389.027 2.019-.063 4.298.813 6.416.504 1.023.951 2.122 1.62 2.915.341.398.741.729 1.177.994.432.271.904.448 1.377.694 1.878.965 3.093 2.576 3.575 4.087.448 1.527.3 2.841.052 3.675-.12.423-.291.724-.406.921-.131.191-.208.282-.223.272zM117.175 174.695c-.023.046-.882-.312-2.057-1.235-1.174-.913-2.605-2.463-3.648-4.503-1.035-2.044-1.446-4.114-1.493-5.601-.054-1.493.162-2.398.213-2.389.091.008.009.918.155 2.363.14 1.442.591 3.418 1.59 5.391 1.007 1.968 2.339 3.496 3.422 4.458 1.08.968 1.864 1.437 1.818 1.516zM116.238 176.065c-.059.124-1.715-.567-3.52-1.826-1.811-1.253-3.036-2.563-2.94-2.662.102-.11 1.461 1.006 3.237 2.234 1.77 1.235 3.291 2.12 3.223 2.254zM138.14 162.933c.124-.007-.1 2.87-1.798 5.917-1.671 3.063-3.985 4.787-4.045 4.678-.117-.118 1.975-1.964 3.589-4.929 1.646-2.947 2.092-5.702 2.254-5.666zM139.769 166.913c.131.031-.341 2.272-1.531 4.818-1.18 2.552-2.59 4.356-2.698 4.276-.127-.086 1.068-1.991 2.226-4.496 1.169-2.498 1.856-4.64 2.003-4.598zM137.414 153.948c-.081.032-.366-.749-.964-1.902-.309-.567-.726-1.222-1.354-1.77a3.53 3.53 0 0 0-2.427-.916c-1.951.03-3.436 1.268-4.355 2.146-.937.912-1.491 1.525-1.552 1.471-.047-.041.398-.729 1.289-1.729.453-.491 1.032-1.061 1.801-1.543.768-.477 1.737-.857 2.814-.866a3.902 3.902 0 0 1 2.752 1.08c.677.628 1.085 1.353 1.363 1.963.533 1.239.686 2.046.633 2.066zM135.399 232.096c-.013.013-.177-.128-.478-.408-.297-.285-.735-.705-1.26-1.287a16.414 16.414 0 0 1-1.746-2.266c-.58-.949-1.157-2.148-1.256-3.594a6.16 6.16 0 0 1 .293-2.229c.248-.744.623-1.464 1.035-2.177.812-1.415 1.815-2.906 1.865-4.71.086-1.787-.578-3.642-1.567-5.341-.995-1.709-2.351-3.292-3.547-5.077-1.218-1.768-2.081-3.779-2.378-5.8-.327-2.017-.271-3.989-.096-5.833.37-3.693 1.095-6.938 1.207-9.714.178-2.771-.164-5.014-.631-6.488-.471-1.476-.938-2.215-.887-2.241.016-.009.132.173.34.53.205.357.473.908.739 1.648.535 1.477.94 3.762.807 6.569-.067 2.813-.76 6.091-1.098 9.74-.16 1.823-.202 3.756.122 5.706.298 1.96 1.115 3.858 2.308 5.595 1.172 1.751 2.532 3.342 3.555 5.11 1.012 1.753 1.709 3.698 1.605 5.621-.075 1.96-1.163 3.523-1.971 4.902-.415.701-.783 1.389-1.027 2.088a5.834 5.834 0 0 0-.306 2.081c.07 1.357.594 2.523 1.138 3.463.56.941 1.153 1.687 1.649 2.284.497.597.911 1.039 1.183 1.347.275.303.415.469.402.481z"/><path style="fill:#263238" d="M475.082 466.774c0 .144-100.781.26-225.071.26-124.334 0-225.093-.117-225.093-.26 0-.144 100.759-.26 225.093-.26 124.29 0 225.071.117 225.071.26z"/></svg>