<svg xmlns="http://www.w3.org/2000/svg" width="350" height="262"><path d="M83.503 237.96c-50.532-29.175-50.532-76.476 0-105.65 50.532-29.175 132.461-29.175 182.993 0 50.532 29.174 50.532 76.475 0 105.65-50.532 29.176-132.46 29.176-182.993 0z" fill="#FAFAFA"/><path d="m140.412 8.762.57.328v78.205c0 1.848-1.124 3.996-2.51 4.796l-77.06 44.486c-.594.343-1.14.382-1.569.17-.123-.062-.552-.317-.65-.373-.527-.309-.86-1.016-.86-2.022V56.15l82.079-47.39z" fill="#E0E0E0"/><path d="M60.416 136.556c-.724 0-1.191-.737-1.191-1.876V56.665L140.66 9.648v77.647c0 1.743-1.054 3.769-2.349 4.517l-77.06 44.486c-.296.172-.577.258-.835.258z" fill="#FAFAFA"/><path d="M140.337 10.206v77.089c0 1.612-1.001 3.553-2.187 4.238l-77.06 44.486c-.243.14-.477.215-.674.215-.642 0-.87-.838-.87-1.554V56.85l80.791-46.644zm.645-1.116-82.08 47.389v78.2c0 1.377.624 2.2 1.514 2.2.306 0 .643-.098.997-.302l77.06-44.486c1.386-.8 2.51-2.948 2.51-4.796V9.09h-.001z" fill="#E0E0E0"/><path d="m65.231 93.6 5.612-3.24v-8.639l-5.612 3.24V93.6zm-.61 12.101 5.611-3.24v-8.638l-5.611 3.24z" fill-opacity=".149"/><path d="m71.12 102.237-5.801 3.304-.52-7.014 5.834-3.37.488 7.08z" fill="#F0F0F0"/><path d="m70.634 95.158-5.835 3.37v-1.082l5.835-3.37v1.082z" fill="#E0E0E0"/><path d="m70.634 95.158-5.835 3.37v-1.082l5.835-3.37v1.082z" fill="#E6E6E6" fill-opacity=".098"/><path d="M71.607 90.071s-3.444 1.93-3.877 2.17c-.433.24-.716-.456-.72-.879-.432.277-1.32.45-1.364-.102l-.36-4.899 5.834-3.37.487 7.08z" fill="#FFF"/><path d="m71.12 82.992-5.834 3.369V85.28l5.835-3.369v1.081zm-5.29 8.562 1.596.705-.496-1.301z" fill="#F0F0F0"/><path d="m74.32 97.358 59.772-34.554v-40.2L74.32 57.157v40.2z" fill-opacity=".149"/><path d="m75.766 96.904-.163-.093c-.259-.15-.469-.514-.469-.814V58.19c0-.3.21-.664.47-.814l58.505-33.86c.26-.15.68-.15.94 0l.161.093c.26.15.47.514.47.814V62.23c0 .3-.21.664-.47.813L76.704 96.904c-.258.15-.679.15-.938 0z" fill="#F0F0F0"/><path d="M75.136 58.19v37.808c0 .3.207.662.468.816l.16.094c.228.126.582.147.836.046-.214.06-.368-.06-.368-.321V58.824c0-.147.054-.314.14-.461l-1.102-.635c-.081.147-.134.314-.134.461z" fill="#E0E0E0"/><path d="M135.21 24.151 76.706 58.012c-.26.15-.47.514-.47.813v37.808c0 .3.21.42.47.27l58.506-33.86c.259-.15.47-.514.47-.813V24.422c0-.3-.211-.42-.47-.27z" fill="#FFF"/><path d="m81.147 89.575.013-.007c.385-.223.697-.715.697-1.105a.485.485 0 0 0-.072-.27l4.328-8.574c.11.168.35.192.625.031.385-.22.697-.716.697-1.102 0-.159-.055-.277-.144-.34l4.469-5.954c.127.098.33.092.556-.038.385-.223.697-.72.697-1.106a.568.568 0 0 0-.02-.157l4.225-9.605c.075.264.347.331.676.145.385-.223.697-.719.697-1.105a.462.462 0 0 0-.075-.27l4.332-4.684c.11.166.347.187.622.029.195-.11.367-.29.494-.489l4.59 1.972c-.124.2-.203.419-.203.613 0 .39.312.522.697.302.384-.223.697-.719.697-1.105a.57.57 0 0 0-.02-.157l4.225-3.506c.075.264.35.33.676.141.384-.22.697-.716.697-1.102 0-.221-.104-.36-.264-.393v-.003l4.71-8.643c.12.027.27-.002.435-.098.385-.222.697-.713.697-1.102v-.003l4.181-2.413c0 .386.312.522.7.298.385-.222.697-.716.697-1.105 0-.221-.103-.36-.26-.397l4.689-8.61c.12.036.278.006.453-.093v33.596l-50.214 28.99v-2.581z" fill="#F0F0F0"/><path d="m131.025 29.828-.383.028-4.5 8.263a.887.887 0 0 0-.447.13c-.415.239-.74.738-.776 1.165l-3.885 2.243a.453.453 0 0 0-.25-.28c-.188-.08-.424-.048-.666.091-.438.254-.783.798-.783 1.24 0 .214.084.373.23.464l-4.579 8.406a.882.882 0 0 0-.446.13c-.438.253-.783.798-.783 1.24 0 .042.008.08.014.117l-3.981 3.3a.447.447 0 0 0-.163-.125c-.186-.08-.423-.047-.664.092-.173.1-.33.245-.458.41l-4.312-1.85c.092-.183.146-.372.146-.546 0-.243-.103-.421-.29-.502-.187-.08-.423-.048-.664.092-.44.253-.783.798-.783 1.24 0 .1.022.186.055.262l-4.133 4.467c-.018-.01-.033-.024-.052-.033-.187-.08-.423-.047-.665.092-.44.254-.783.798-.783 1.24a.67.67 0 0 0 .033.204l-4.07 9.246a.446.446 0 0 0-.093-.06c-.188-.08-.423-.047-.665.093-.439.253-.783.798-.783 1.24 0 .147.042.267.114.36l-4.3 5.73c-.177-.054-.39-.02-.609.106-.439.254-.783.798-.783 1.24a.62.62 0 0 0 .07.301l-4.188 8.292-.012-.008c-.187-.08-.422-.048-.664.092-.44.253-.783.798-.783 1.24 0 .243.102.421.29.502a.573.573 0 0 0 .267.042.948.948 0 0 0 .397-.134c.44-.253.784-.798.784-1.24 0-.096-.02-.179-.052-.253l4.206-8.325c.074.028.156.041.243.035a.946.946 0 0 0 .397-.133c.439-.253.783-.798.783-1.24a.598.598 0 0 0-.09-.332l4.312-5.747c.056.013.113.02.175.015a.945.945 0 0 0 .397-.133c.44-.253.783-.798.783-1.24a.737.737 0 0 0-.015-.136l4.089-9.29c.019.012.035.026.056.036a.573.573 0 0 0 .267.041.946.946 0 0 0 .397-.133c.44-.253.783-.798.783-1.24a.658.658 0 0 0-.04-.226l4.149-4.484c.008.003.013.01.021.013.081.035.172.048.268.042a.95.95 0 0 0 .397-.134c.182-.109.34-.253.467-.423l4.31 1.85c-.096.186-.154.38-.154.559 0 .243.103.421.29.502a.573.573 0 0 0 .267.041.948.948 0 0 0 .398-.133c.44-.253.783-.798.783-1.24 0-.028-.006-.053-.009-.08l3.996-3.312a.45.45 0 0 0 .143.1.565.565 0 0 0 .266.042.945.945 0 0 0 .398-.134c.44-.253.783-.798.783-1.24 0-.196-.07-.347-.194-.442l4.589-8.424h.002a.945.945 0 0 0 .398-.133c.405-.233.725-.714.774-1.133l3.898-2.251a.45.45 0 0 0 .24.256.566.566 0 0 0 .268.041.945.945 0 0 0 .398-.133c.439-.253.782-.798.782-1.24 0-.197-.07-.348-.194-.442l4.57-8.389zm-49.95 59.617c-.129.075-.246.1-.321.066-.075-.032-.119-.125-.119-.255 0-.334.28-.777.612-.968a.554.554 0 0 1 .226-.08.208.208 0 0 1 .096.013c.075.032.118.125.118.255 0 .335-.28.778-.612.97zm5.578-9.916c-.13.074-.247.098-.322.066-.012-.006-.021-.015-.032-.023a.133.133 0 0 0-.05-.072l-.007-.002a.393.393 0 0 1-.03-.159c0-.333.28-.776.612-.968.13-.074.246-.099.322-.066.075.032.118.125.118.255 0 .333-.28.777-.611.969zm5.577-7.437c-.124.071-.236.095-.31.069a.147.147 0 0 0-.04-.034c-.007-.004-.015-.004-.023-.007-.042-.046-.066-.121-.066-.217 0-.333.28-.777.61-.969.13-.074.247-.098.323-.066.075.033.118.126.118.256 0 .333-.28.776-.612.968zm5.577-10.723c-.128.075-.245.1-.32.066a.165.165 0 0 1-.078-.075.128.128 0 0 0-.035-.111.472.472 0 0 1-.006-.069c0-.333.28-.777.611-.968.13-.075.247-.099.322-.066.075.032.118.125.118.255 0 .333-.28.777-.612.968zm5.578-6.028c-.128.074-.246.098-.32.066-.011-.004-.02-.013-.028-.02a.13.13 0 0 0-.051-.074l-.011-.005a.395.395 0 0 1-.03-.156c0-.334.28-.778.612-.97a.55.55 0 0 1 .226-.079.2.2 0 0 1 .096.014c.074.032.118.125.118.255 0 .334-.28.777-.612.969zm5.578 2.395c-.129.075-.246.099-.322.066-.075-.032-.118-.125-.118-.255 0-.153.06-.329.156-.493.017-.013.035-.025.046-.043a.141.141 0 0 0 .021-.062c.102-.15.234-.275.388-.37a.551.551 0 0 1 .226-.08.205.205 0 0 1 .095.013c.075.032.119.126.119.256 0 .333-.28.777-.611.968zm5.577-4.624c-.129.074-.246.1-.32.066a.167.167 0 0 1-.08-.078.127.127 0 0 0-.032-.1.507.507 0 0 1-.007-.077c0-.333.28-.777.611-.969.13-.074.246-.098.321-.066.075.033.119.125.119.255 0 .334-.28.777-.612.97zm5.578-10.24c-.129.075-.246.099-.32.066-.076-.032-.12-.125-.12-.255 0-.333.28-.777.612-.968.129-.075.246-.1.321-.066.075.032.119.125.119.255 0 .334-.28.777-.612.968zm5.577-3.22c-.129.075-.246.1-.32.066-.063-.027-.102-.096-.114-.192a.129.129 0 0 0 0-.12c.03-.326.293-.73.606-.912.129-.074.246-.099.322-.066.075.033.118.125.118.255 0 .335-.28.778-.612.97z" fill="#E0E0E0"/><path d="M131.138 31.424c-.102.007-.185-.058-.185-.147V29.85l-1.483.699c-.093.044-.203.016-.245-.062-.042-.078-.001-.177.092-.22l1.745-.822a.209.209 0 0 1 .176-.002.144.144 0 0 1 .085.13v1.676c0 .09-.083.167-.185.175z" fill="#E0E0E0"/><path d="m74.32 121.647 35.182-20.343V80.371L74.32 100.712v20.935z" fill-opacity=".149"/><path d="m75.766 121.193-.163-.093c-.259-.15-.469-.514-.469-.814v-18.541c0-.3.21-.664.47-.814l33.915-19.649c.26-.15.68-.15.939 0l.162.094c.26.15.47.514.47.813v18.542c0 .3-.21.664-.47.813l-33.916 19.65c-.258.15-.679.15-.938 0z" fill="#F0F0F0"/><path d="M75.136 101.744v18.542c0 .301.207.663.468.816l.16.094c.228.127.582.147.836.047-.214.06-.368-.06-.368-.322V102.38c0-.147.054-.314.14-.462l-1.102-.635a1.01 1.01 0 0 0-.134.462z" fill="#E0E0E0"/><path d="m110.62 81.918-33.915 19.65c-.26.15-.47.513-.47.813v18.541c0 .3.21.421.47.271l33.915-19.65c.26-.149.47-.513.47-.812V82.189c0-.3-.21-.42-.47-.271z" fill="#FFF"/><path d="m61.625 129.491 11.512-6.646v-19.356l-11.512 6.646v19.356z" fill-opacity=".149"/><path d="m62.465 129.674 10.933-6.312a.64.64 0 0 0 .29-.502v-18.687c0-.185-.13-.26-.29-.167l-10.933 6.312a.64.64 0 0 0-.289.501v18.688c0 .185.13.26.29.167z" fill="#FFF"/><path d="m63.572 113.145 8.72-5.034c.179-.103.325-.306.325-.453 0-.146-.145-.18-.325-.077l-8.72 5.034c-.179.104-.324.306-.324.453 0 .146.145.181.324.077zm0 1.379 8.72-5.034c.179-.103.325-.306.325-.453 0-.146-.145-.181-.325-.077l-8.72 5.034c-.179.103-.324.306-.324.452 0 .147.145.182.324.078zm0 2.864 8.72-5.035c.179-.103.325-.306.325-.452 0-.147-.145-.182-.325-.078l-8.72 5.034c-.179.104-.324.306-.324.453 0 .146.145.181.324.078zm0 1.378 8.72-5.034c.179-.103.325-.306.325-.453 0-.146-.145-.18-.325-.077l-8.72 5.034c-.179.104-.324.306-.324.453 0 .146.145.18.324.077zm0 4.243 8.72-5.034c.179-.104.325-.306.325-.453 0-.147-.145-.181-.325-.077l-8.72 5.034c-.179.103-.324.306-.324.452 0 .147.145.181.324.078zm0-1.38 8.72-5.033c.179-.103.325-.306.325-.453 0-.146-.145-.181-.325-.078l-8.72 5.035c-.179.103-.324.306-.324.452 0 .146.145.182.324.078zm4.996-12.698-.017.015a.145.145 0 0 1-.038.03c-.03.019-.045-.004-.073-.018l-.219-.128-.308-.184c-.112-.069-.233-.14-.351-.216-.035-.024.03-.14.069-.12.125.065.247.133.362.196.116.063.223.123.314.176l.221.125c.026.017.053.018.052.053a.146.146 0 0 1-.007.05l-.005.02z" fill="#E0E0E0"/><path d="M68.794 109.09c-.17.293-.447.453-.739.294a.122.122 0 0 1-.022-.012c-.077-.048-.123-.145-.123-.282a.98.98 0 0 1 .442-.767c.114-.065.218-.075.296-.039.006.002.011.006.017.009l.026.017c.272.175.27.49.103.78z" fill="#E0E0E0"/><path d="M68.794 109.09c-.17.293-.447.453-.739.294a.122.122 0 0 1-.022-.012c-.077-.048-.123-.145-.123-.282a.98.98 0 0 1 .442-.767c.114-.065.218-.075.296-.039.006.002.011.006.017.009l.026.017c.272.175.27.49.103.78z" fill-opacity=".149"/><path d="m69.15 109.67.327-.559c-.058-.037-.442-.226-.69-.477l-.013-.013-.011-.011-.001.002c-.053-.041-.13-.043-.218.008a.636.636 0 0 0-.288.499c0 .092.032.156.084.186a3.002 3.002 0 0 1 .81.366z" fill="#E0E0E0"/><path d="M69.76 109.218a.345.345 0 0 0-.469-.322l-.007.002-.014.007c-.017.007-.035.014-.054.025a.773.773 0 0 0-.35.605.37.37 0 0 0 .01.088.344.344 0 0 0 .685-.06l-.003-.032a.344.344 0 0 0 .201-.313z" fill="#E0E0E0"/><path d="M69.76 109.218a.345.345 0 0 0-.469-.322l-.007.002-.014.007c-.017.007-.035.014-.054.025a.773.773 0 0 0-.35.605.37.37 0 0 0 .01.088.344.344 0 0 0 .685-.06l-.003-.032a.344.344 0 0 0 .201-.313z" fill-opacity=".149"/><path d="M69.414 109.043c.193-.112.35-.021.35.202a.774.774 0 0 1-.35.605c-.193.112-.35.021-.35-.201 0-.224.157-.495.35-.606z" fill="#E0E0E0"/><path d="m112.391 99.073 11.513-6.646V73.07l-11.513 6.647v19.355z" fill-opacity=".149"/><path d="m113.232 99.256 10.933-6.312a.64.64 0 0 0 .29-.501V73.755c0-.184-.13-.26-.29-.167L113.232 79.9a.64.64 0 0 0-.289.502v18.687c0 .184.13.26.29.167z" fill="#FFF"/><path d="m114.34 82.727 8.718-5.034c.18-.104.325-.306.325-.453 0-.146-.145-.181-.325-.077l-8.719 5.034c-.18.103-.325.306-.325.452 0 .147.146.182.325.078zm0 1.38 8.718-5.035c.18-.104.325-.306.325-.453 0-.146-.145-.18-.325-.077l-8.719 5.034c-.18.104-.325.306-.325.453 0 .146.146.18.325.077zm0 2.863 8.718-5.034c.18-.104.325-.306.325-.453 0-.147-.145-.181-.325-.077l-8.719 5.034c-.18.103-.325.306-.325.452 0 .147.146.181.325.078zm0 1.379 8.718-5.035c.18-.103.325-.306.325-.452 0-.146-.145-.182-.325-.078l-8.719 5.034c-.18.104-.325.306-.325.453 0 .146.146.18.325.078zm0 4.242 8.718-5.034c.18-.104.325-.306.325-.453 0-.147-.145-.181-.325-.078l-8.719 5.035c-.18.103-.325.306-.325.452 0 .146.146.182.325.078zm0-1.379 8.718-5.034c.18-.104.325-.306.325-.453 0-.146-.145-.18-.325-.077l-8.719 5.034c-.18.104-.325.306-.325.453 0 .146.146.18.325.077zm4.995-12.7-.016.015a.16.16 0 0 1-.04.03c-.029.02-.044-.004-.071-.017l-.22-.129c-.09-.053-.196-.115-.308-.184-.112-.068-.233-.14-.351-.215-.035-.024.03-.14.069-.121.125.065.247.134.363.197.115.062.222.123.314.175l.22.125c.026.018.053.019.052.054a.165.165 0 0 1-.006.049l-.006.021z" fill="#E0E0E0"/><path d="M119.56 78.671c-.17.294-.446.454-.738.295a.084.084 0 0 1-.016-.009.022.022 0 0 1-.007-.004c-.076-.047-.123-.144-.123-.282a.98.98 0 0 1 .443-.766c.114-.066.218-.075.296-.04l.016.01a.226.226 0 0 1 .027.017c.273.175.27.49.102.78z" fill="#E0E0E0"/><path d="M119.56 78.671c-.17.294-.446.454-.738.295a.084.084 0 0 1-.016-.009.022.022 0 0 1-.007-.004c-.076-.047-.123-.144-.123-.282a.98.98 0 0 1 .443-.766c.114-.066.218-.075.296-.04l.016.01a.226.226 0 0 1 .027.017c.273.175.27.49.102.78z" fill-opacity=".149"/><path d="m119.917 79.253.327-.56c-.058-.036-.443-.226-.691-.477l-.013-.013-.01-.01h-.002c-.053-.04-.13-.042-.218.01a.636.636 0 0 0-.287.498c0 .092.032.156.084.186.017.01.036.015.055.017.267.08.52.198.755.349z" fill="#E0E0E0"/><path d="M120.526 78.8a.345.345 0 0 0-.468-.322l-.007.003a.303.303 0 0 0-.013.006c-.018.007-.036.014-.055.025a.774.774 0 0 0-.35.606.37.37 0 0 0 .011.087.345.345 0 0 0 .685-.06l-.003-.032a.345.345 0 0 0 .2-.313z" fill="#E0E0E0"/><path d="M120.526 78.8a.345.345 0 0 0-.468-.322l-.007.003a.303.303 0 0 0-.013.006c-.018.007-.036.014-.055.025a.774.774 0 0 0-.35.606.37.37 0 0 0 .011.087.345.345 0 0 0 .685-.06l-.003-.032a.345.345 0 0 0 .2-.313z" fill-opacity=".149"/><path d="M120.18 78.625c.194-.112.35-.021.35.201a.774.774 0 0 1-.35.606c-.193.112-.349.021-.349-.202 0-.222.156-.494.35-.605z" fill="#E0E0E0"/><path d="m125.1 91.858 11.512-6.647V65.856l-11.513 6.646v19.356z" fill-opacity=".149"/><path d="m125.94 92.04 10.933-6.312a.64.64 0 0 0 .29-.501V66.54c0-.185-.13-.26-.29-.168l-10.933 6.313a.64.64 0 0 0-.29.501v18.687c0 .185.13.26.29.168z" fill="#FFF"/><path d="m127.047 75.512 8.719-5.034c.18-.103.325-.306.325-.453 0-.146-.145-.181-.325-.077l-8.72 5.034c-.179.103-.324.306-.324.453 0 .146.145.18.325.077zm0 1.379 8.719-5.034c.18-.104.325-.306.325-.453 0-.147-.145-.181-.325-.078l-8.72 5.034c-.179.104-.324.306-.324.453 0 .146.145.181.325.078zm0 2.863 8.719-5.034c.18-.103.325-.306.325-.452 0-.147-.145-.182-.325-.078l-8.72 5.034c-.179.104-.324.306-.324.453 0 .146.145.18.325.077zm0 1.379 8.719-5.034c.18-.104.325-.306.325-.453 0-.146-.145-.181-.325-.077l-8.72 5.034c-.179.103-.324.306-.324.452 0 .147.145.182.325.078zm0 4.242 8.719-5.034c.18-.103.325-.306.325-.452 0-.147-.145-.182-.325-.078l-8.72 5.034c-.179.103-.324.306-.324.453 0 .146.145.181.325.077zm0-1.378 8.719-5.034c.18-.104.325-.306.325-.453 0-.146-.145-.181-.325-.078l-8.72 5.034c-.179.104-.324.306-.324.453 0 .146.145.181.325.078zm4.995-12.7-.016.015a.152.152 0 0 1-.04.03c-.029.02-.044-.004-.071-.017l-.22-.129c-.09-.053-.196-.115-.309-.184-.112-.068-.232-.14-.35-.215-.036-.024.03-.14.069-.12.124.065.246.133.362.196.116.062.222.123.314.176l.221.125c.026.018.053.019.051.054a.165.165 0 0 1-.006.05l-.005.02z" fill="#E0E0E0"/><path d="M132.268 71.456c-.17.294-.446.453-.738.295a.084.084 0 0 1-.016-.01l-.007-.003c-.076-.048-.123-.145-.123-.282a.98.98 0 0 1 .443-.767c.114-.065.217-.075.296-.04.015.008.029.017.042.027.273.176.271.49.103.78z" fill="#E0E0E0"/><path d="M132.268 71.456c-.17.294-.446.453-.738.295a.084.084 0 0 1-.016-.01l-.007-.003c-.076-.048-.123-.145-.123-.282a.98.98 0 0 1 .443-.767c.114-.065.217-.075.296-.04.015.008.029.017.042.027.273.176.271.49.103.78z" fill-opacity=".149"/><path d="m132.624 72.037.328-.56c-.059-.035-.443-.225-.692-.477l-.012-.012-.011-.011-.001.001c-.053-.04-.13-.042-.218.009a.636.636 0 0 0-.288.499c0 .091.033.156.085.186.017.009.035.015.055.016.266.081.52.198.754.35z" fill="#E0E0E0"/><path d="M133.234 71.585a.345.345 0 0 0-.468-.322l-.007.002a.774.774 0 0 0-.417.637.37.37 0 0 0 .01.088.345.345 0 0 0 .685-.06c0-.011-.002-.022-.003-.032a.346.346 0 0 0 .2-.313z" fill="#E0E0E0"/><path d="M133.234 71.585a.345.345 0 0 0-.468-.322l-.007.002a.774.774 0 0 0-.417.637.37.37 0 0 0 .01.088.345.345 0 0 0 .685-.06c0-.011-.002-.022-.003-.032a.346.346 0 0 0 .2-.313z" fill-opacity=".149"/><path d="M132.889 71.41c.193-.112.35-.022.35.2a.774.774 0 0 1-.35.607c-.194.111-.35.02-.35-.202 0-.223.156-.494.35-.606z" fill="#E0E0E0"/><path d="m61.625 83.843 11.512-6.647V57.84l-11.512 6.647v19.356z" fill-opacity=".149"/><path d="m62.465 84.025 10.933-6.312a.64.64 0 0 0 .29-.502V58.524c0-.185-.13-.26-.29-.167l-10.933 6.312a.64.64 0 0 0-.29.501v18.688c.001.185.13.26.29.167z" fill="#FFF"/><path d="m63.572 67.496 8.72-5.034c.179-.103.325-.306.325-.452 0-.147-.146-.182-.325-.078l-8.72 5.034c-.179.104-.324.306-.324.453 0 .146.145.18.324.077zm0 1.38 8.72-5.035c.179-.104.325-.306.325-.453 0-.146-.146-.181-.325-.077l-8.72 5.034c-.179.104-.324.306-.324.453 0 .146.145.18.324.077zm0 2.863 8.72-5.034c.179-.104.325-.306.325-.453 0-.146-.146-.181-.325-.078l-8.72 5.034c-.179.104-.324.306-.324.453 0 .146.145.181.324.078zm0 1.378 8.72-5.034c.179-.103.325-.306.325-.452 0-.147-.146-.182-.325-.078l-8.72 5.034c-.179.103-.324.306-.324.453 0 .146.145.181.324.077zm0 4.243 8.72-5.034c.179-.104.325-.306.325-.453 0-.147-.146-.181-.325-.078l-8.72 5.034c-.179.104-.324.306-.324.453 0 .146.145.181.324.078zm0-1.379 8.72-5.034c.179-.103.325-.306.325-.453 0-.146-.146-.181-.325-.077l-8.72 5.034c-.179.103-.324.306-.324.453 0 .146.145.18.324.077zm4.996-12.7-.017.016a.162.162 0 0 1-.039.03c-.03.019-.044-.004-.072-.018l-.219-.129c-.09-.053-.196-.115-.308-.184-.112-.068-.233-.14-.351-.216-.035-.023.03-.14.069-.12.125.065.247.134.362.197.116.062.223.123.314.175l.221.126c.026.018.053.019.052.054a.146.146 0 0 1-.007.048l-.005.022z" fill="#E0E0E0"/><path d="M68.794 63.44c-.17.294-.447.453-.739.295a.083.083 0 0 1-.016-.009.022.022 0 0 1-.006-.004c-.077-.048-.123-.145-.123-.282a.98.98 0 0 1 .442-.767c.114-.065.218-.075.296-.04.016.008.03.017.043.027.272.176.27.49.103.78z" fill="#E0E0E0"/><path d="M68.794 63.44c-.17.294-.447.453-.739.295a.083.083 0 0 1-.016-.009.022.022 0 0 1-.006-.004c-.077-.048-.123-.145-.123-.282a.98.98 0 0 1 .442-.767c.114-.065.218-.075.296-.04.016.008.03.017.043.027.272.176.27.49.103.78z" fill-opacity=".149"/><path d="m69.15 64.022.327-.56c-.058-.037-.443-.226-.691-.477l-.013-.013-.01-.01h-.002c-.053-.04-.13-.042-.218.01a.636.636 0 0 0-.288.498c0 .092.032.156.085.186.017.01.036.015.055.017.266.08.52.198.754.349z" fill="#E0E0E0"/><path d="M69.76 63.57a.345.345 0 0 0-.476-.32l-.013.006c-.018.007-.036.014-.055.025a.773.773 0 0 0-.35.606.37.37 0 0 0 .01.087.345.345 0 0 0 .686-.06l-.003-.032a.345.345 0 0 0 .2-.313z" fill="#E0E0E0"/><path d="M69.76 63.57a.345.345 0 0 0-.476-.32l-.013.006c-.018.007-.036.014-.055.025a.773.773 0 0 0-.35.606.37.37 0 0 0 .01.087.345.345 0 0 0 .686-.06l-.003-.032a.345.345 0 0 0 .2-.313z" fill-opacity=".149"/><path d="M69.414 63.394c.193-.112.35-.02.35.202a.773.773 0 0 1-.35.606c-.193.111-.35.02-.35-.202a.77.77 0 0 1 .35-.606z" fill="#E0E0E0"/><path d="m58.497 58.903-1.916-3.329 84.002-48.498.002.003c.248-.16.596-.15.985.075.75.432 1.359 1.486 1.359 2.352 0 .416-.143.71-.373.859l.003.004-.028.016h-.001L58.497 58.903z" fill="#F0F0F0"/><path d="M58.903 58.02c0-.866-.608-1.92-1.359-2.352-.75-.433-1.358-.083-1.358.784 0 .866.608 1.919 1.358 2.352.75.433 1.359.082 1.359-.784z" fill="#E0E0E0"/><path d="m77.157 102.614 33.16-19.144-.031 17.368-33.2 19.168.07-17.392z" fill="#FFF"/><path d="m77.086 120.012 33.21-19.174v-3.85c0-.06-.432.481-.469.56-.177.374-.22.813-.298 1.205-.06.309-.086.286-.21.527-.127.25-.09.373-.169.625-.181.575-.468.717-.759.779-.397.085-.723.454-1.113.753-.156.12-.335.267-.494.344-.212.103-.332-.049-.503-.118-.335-.136-.76-.14-1.146.239-.355.347-.726.324-1.078.701-.295.317-.567.732-.87 1.02-.36.343-.716.356-1.083.626-.306.224-.515.458-.828.566-.6.207-1.09.93-1.665 1.305-.974.635-.692-1.15-1.127-1.75-.245-.338-.147-.93-.26-1.435-.047-.21-.125-.335-.214-.48-.084-.14-.127-.377-.215-.496-.046-.063-.207-.138-.285-.069-.155.136-.112.493-.246.663-.088.11-.185.033-.275.104-.139.11-.194.314-.281.513-.213.482-.442.638-.694.998-.22.313-.298.695-.552.996-.191.225-.387.33-.56.22-.266-.169-.317-1.934-.45-2.183-.164-.308-.2-.82-.41-1.056-.163-.18-.183.163-.324.097-.065-.03-.066-.167-.14-.186-.094-.024-.168.08-.25.205-.139.212-.248.506-.384.712-.23.348-.243.033-.407.038-.186.005-.255.421-.331.635-.114.317-.254.619-.32.944-.045.219-.113 1.041-.246 1.2-.062.074-.068-.048-.11-.004-.08.084-.09.211-.118.34-.063.274-.115.615-.282.83-.21.268-.291-.003-.467.036-.145.033-.291.233-.437.235-.097.002-.143-.104-.25-.055-.048.021-.109.114-.166.14-.146.069-.15-.035-.298.182-.09.133-.16.295-.268.39a.459.459 0 0 1-.38.113c-.134-.024-.187-.16-.276-.278-.104-.136-.17-.03-.298-.04-.132-.009-.189-.116-.32.163-.12.256-.131.644-.173.913a32.51 32.51 0 0 1-.178 1.03c-.1.535-.237 1.265-.559 1.68-.155.2-.314.354-.481.374-.158.02-.336-.078-.505.045-.086.063-.103.137-.175.207-.207.202-.411.141-.615.368-.18.199-.317.342-.508.462-.237.149-.468.543-.684.793-.275.32-.56.523-.846.57-.276.045-.565.125-.814.04-.18-.061-.317.09-.522.23-.162.111-.253.022-.399.047-.15.027-.311.213-.46.255-.125.035-.211-.076-.33-.063-.13.014-.23.034-.35-.02-.365-.169-.504-.64-.62-1.211-.11-.542-.148-1.042-.452-1.333-.269-.256-.717-.2-.821-.753-.16-.838-.322-2.188-.405-3.684-.117-2.102-.305-3.837-.45-3.65-.172.223.013 3.927-.535 5.01l-.002 10.86z" fill="#F0F0F0"/><path d="m245.504 235.052-63.932-36.911 48.5-28.002 63.932 36.911-48.5 28.002zM79.823 222.224c0-11.102 15.588-20.102 34.817-20.102s34.817 9 34.817 20.102-15.588 20.101-34.817 20.101c-19.23 0-34.817-9-34.817-20.101M79.855 195.293c5.402 3.153 5.401 8.266 0 11.42s-14.158 3.154-19.56 0c-5.401-3.154-5.401-8.266 0-11.42 5.402-3.154 14.159-3.154 19.56 0z" fill="#E0E0E0"/><path d="m217.686 172.187-30.66-17.708-40.14 23.15 30.657 17.709 40.143-23.15z" fill="#E6E6E6"/><path d="M190.92 241.526c-.955 0-1.809-.708-1.986-1.646l-.336-1.772a22.293 22.293 0 0 1-2.257-.56l-3.445 1.596a2.323 2.323 0 0 1-.972.205c-.3 0-.747-.052-1.18-.302l-3.524-2.035c-.54-.31-.88-.852-.91-1.447a1.783 1.783 0 0 1 .76-1.532l1.847-1.33a7.943 7.943 0 0 1-.25-.386l-4.307-.272a1.965 1.965 0 0 1-1.836-1.957v-2.62a1.965 1.965 0 0 1 1.836-1.957l4.307-.272c.079-.13.162-.259.25-.386l-1.849-1.33a1.781 1.781 0 0 1-.76-1.53c.03-.596.37-1.137.909-1.449l3.527-2.035c.432-.25.88-.302 1.18-.302.335-.003.666.068.972.206l3.444 1.595a22.545 22.545 0 0 1 2.257-.56l.336-1.772a2.05 2.05 0 0 1 1.987-1.646h5.184a2.05 2.05 0 0 1 1.987 1.645l.336 1.773c.762.147 1.515.334 2.257.56l3.443-1.595c.306-.138.638-.209.974-.206.3 0 .746.052 1.18.302l3.525 2.035c.54.311.88.853.91 1.448a1.777 1.777 0 0 1-.76 1.53l-1.848 1.331c.087.128.17.256.25.386l4.304.273a1.962 1.962 0 0 1 1.838 1.955v2.621a1.965 1.965 0 0 1-1.835 1.957l-4.307.272c-.08.13-.163.258-.25.386l1.849 1.33c.505.363.788.935.759 1.53a1.78 1.78 0 0 1-.909 1.447l-3.526 2.036a2.37 2.37 0 0 1-1.18.303 2.32 2.32 0 0 1-.972-.206l-3.445-1.596c-.742.226-1.495.413-2.256.56l-.336 1.772a2.05 2.05 0 0 1-1.987 1.646h-5.184zm-2.618-14.897c-1.094.632-1.722 1.415-1.722 2.148 0 .733.628 1.516 1.722 2.148 1.348.778 3.247 1.224 5.21 1.224 1.965 0 3.864-.446 5.212-1.224 1.094-.632 1.721-1.414 1.721-2.148 0-.733-.627-1.516-1.722-2.147-1.348-.779-3.248-1.225-5.211-1.225s-3.862.446-5.21 1.224zm-25.625-9.172-.473-.921a17.65 17.65 0 0 1-1.392-.182.167.167 0 0 1-.017.002l-1.586 1.054a2.6 2.6 0 0 1-1.424.408 2.448 2.448 0 0 1-.913-.168l-2.448-.98a1.874 1.874 0 0 1-1.149-1.321c-.13-.592.05-1.221.485-1.683l.335-.357-2.6.104c-.94 0-1.826-.65-2.105-1.544l-.425-1.353a1.97 1.97 0 0 1 .193-1.617 1.971 1.971 0 0 1 1.353-.909l1.434-.245-.528-.265c-.578-.289-.965-.826-1.036-1.436-.07-.61.184-1.222.681-1.635l1.562-1.301c.433-.36 1.028-.567 1.633-.567.246 0 .483.036.705.105l2.322.728.035-.002c.01 0 .012.002.002.007.244-.107.498-.207.757-.302l-.057-.472a2.012 2.012 0 0 1 .427-1.506 2.01 2.01 0 0 1 1.374-.752l3.057-.32a2.07 2.07 0 0 1 .222-.01c.845 0 1.669.497 2.051 1.24l.473.921c.468.043.935.104 1.393.182a.17.17 0 0 0 .016-.003l1.586-1.053a2.6 2.6 0 0 1 1.424-.409c.326 0 .634.057.912.169l2.447.98a1.874 1.874 0 0 1 1.15 1.32c.131.591-.05 1.22-.485 1.684l-.334.356 2.6-.103c.94 0 1.826.65 2.105 1.543l.424 1.352a1.968 1.968 0 0 1-.193 1.618 1.966 1.966 0 0 1-1.352.908l-1.433.246.53.266c.576.29.962.827 1.032 1.437.07.61-.185 1.221-.681 1.633l-1.562 1.301c-.433.36-1.028.567-1.633.567-.246 0-.483-.036-.705-.105l-2.323-.728-.035.001c-.008 0-.01 0-.001-.005-.245.106-.498.207-.757.3l.057.473a2.015 2.015 0 0 1-.427 1.508 2.009 2.009 0 0 1-1.374.75l-3.06.32a2.158 2.158 0 0 1-.219.01 2.348 2.348 0 0 1-2.05-1.24zm-2.612-8.877c-.21.174-.552.516-.5.85.054.338.498.885 1.572 1.315.809.325 1.768.496 2.773.496 1.556 0 3.033-.424 3.853-1.106.21-.174.552-.517.5-.85-.054-.338-.498-.886-1.572-1.316-.81-.325-1.768-.496-2.772-.496-1.556 0-3.033.424-3.854 1.107z" fill="#E0E0E0"/><path d="M177.8 219.017h-.002l.009 3.06h.001c0 .082.046.167.14.234l1.613 1.16a.784.784 0 0 1-.408.173l-4.698.297a.475.475 0 0 0-.44.468v2.621c0 .005.003.008.004.013l.006 3.044c0 .243.196.452.439.468l4.698.297a.781.781 0 0 1 .4.166l-1.622 1.167c-.094.068-.14.151-.14.234h-.001l.008 3.066c.004.087.059.172.165.234l3.526 2.035a.95.95 0 0 0 .78.035l3.575-1.656c.22-.102.585-.12.818-.048.89.278 1.82.497 2.774.66.24.04.471.262.516.501l.447 2.355c.046.239.28.432.522.432h5.184a.551.551 0 0 0 .522-.432l.447-2.355a.675.675 0 0 1 .517-.502 21.258 21.258 0 0 0 2.775-.66c.232-.072.597-.053.817.05l3.574 1.655a.95.95 0 0 0 .78-.035l3.526-2.036c.109-.063.163-.15.164-.24h.001l-.008-3.059h-.002c0-.083-.045-.167-.14-.235l-1.613-1.16a.784.784 0 0 1 .408-.173l4.698-.297a.475.475 0 0 0 .44-.468l-.008-3.677-.001-.004v-1.997a.475.475 0 0 0-.44-.468l-4.697-.297a.787.787 0 0 1-.4-.166l1.621-1.167c.096-.069.141-.154.14-.238h.001l-.008-3.055h-.001c0-.09-.055-.177-.164-.24l-3.526-2.036a.95.95 0 0 0-.78-.035l-3.575 1.656c-.22.102-.586.12-.818.049a21.135 21.135 0 0 0-2.774-.66.676.676 0 0 1-.516-.502l-.448-2.355a.552.552 0 0 0-.522-.432h-5.184a.551.551 0 0 0-.522.432l-.447 2.355a.676.676 0 0 1-.516.502 21.23 21.23 0 0 0-2.775.66 1.311 1.311 0 0 1-.817-.049l-3.574-1.656a.95.95 0 0 0-.78.036l-3.526 2.035c-.109.064-.163.15-.164.24zm21.67 10.142c-3.29 1.9-8.624 1.899-11.913 0-1.287-.743-2.068-1.666-2.348-2.629.356-.784 1.142-1.55 2.349-2.247 3.29-1.9 8.623-1.9 11.912 0 1.287.743 2.041 1.57 2.294 2.414-.319.902-1.083 1.762-2.295 2.462z" fill="#BA68C8"/><path d="M177.8 219.017h-.002l.009 3.06h.001c0 .082.046.167.14.234l1.613 1.16a.784.784 0 0 1-.408.173l-4.698.297a.475.475 0 0 0-.44.468v2.621c0 .005.003.008.004.013l.006 3.044c0 .243.196.452.439.468l4.698.297a.781.781 0 0 1 .4.166l-1.622 1.167c-.094.068-.14.151-.14.234h-.001l.008 3.066c.004.087.059.172.165.234l3.526 2.035a.95.95 0 0 0 .78.035l3.575-1.656c.22-.102.585-.12.818-.048.89.278 1.82.497 2.774.66.24.04.471.262.516.501l.447 2.355c.046.239.28.432.522.432h5.184a.551.551 0 0 0 .522-.432l.447-2.355a.675.675 0 0 1 .517-.502 21.258 21.258 0 0 0 2.775-.66c.232-.072.597-.053.817.05l3.574 1.655a.95.95 0 0 0 .78-.035l3.526-2.036c.109-.063.163-.15.164-.24h.001l-.008-3.059h-.002c0-.083-.045-.167-.14-.235l-1.613-1.16a.784.784 0 0 1 .408-.173l4.698-.297a.475.475 0 0 0 .44-.468l-.008-3.677-.001-.004v-1.997a.475.475 0 0 0-.44-.468l-4.697-.297a.787.787 0 0 1-.4-.166l1.621-1.167c.096-.069.141-.154.14-.238h.001l-.008-3.055h-.001c0-.09-.055-.177-.164-.24l-3.526-2.036a.95.95 0 0 0-.78-.035l-3.575 1.656c-.22.102-.586.12-.818.049a21.135 21.135 0 0 0-2.774-.66.676.676 0 0 1-.516-.502l-.448-2.355a.552.552 0 0 0-.522-.432h-5.184a.551.551 0 0 0-.522.432l-.447 2.355a.676.676 0 0 1-.516.502 21.23 21.23 0 0 0-2.775.66 1.311 1.311 0 0 1-.817-.049l-3.574-1.656a.95.95 0 0 0-.78.036l-3.526 2.035c-.109.064-.163.15-.164.24zm21.67 10.142c-3.29 1.9-8.624 1.899-11.913 0-1.287-.743-2.068-1.666-2.348-2.629.356-.784 1.142-1.55 2.349-2.247 3.29-1.9 8.623-1.9 11.912 0 1.287.743 2.041 1.57 2.294 2.414-.319.902-1.083 1.762-2.295 2.462z" fill="#FFF" fill-opacity=".2"/><path d="M206.24 229.601c-.164.179-.146.432.052.573l1.176.847a.786.786 0 0 1 .413-.17l4.699-.296a.478.478 0 0 0 .44-.47l-.009-3.675-.002.62a.473.473 0 0 1-.437.468l-4.699.296c-.242.017-.52.208-.635.423-.275.5-.61.965-.998 1.384zm2.99-10.55a.356.356 0 0 1-.142.205l-2.795 2.009c-.197.142-.216.393-.052.574.406.448.741.91 1 1.384.05.094.134.185.232.257l1.622-1.168c.095-.071.143-.154.14-.237l.003-.001-.009-3.024zm-21.672 3.231c3.29-1.9 8.622-1.901 11.911-.002 2.08 1.2 2.845 2.872 2.296 4.42-.247-.844-1.006-1.673-2.295-2.419-3.29-1.899-8.622-1.897-11.912.003-1.204.695-1.994 1.458-2.352 2.244-.437-1.497.35-3.09 2.352-4.246z" fill-opacity=".098"/><path d="M174.023 230.088a.472.472 0 0 0 .44.465l4.7.3c.074.004.153.03.23.066l-.006-3.061a.636.636 0 0 0-.236-.064l-4.697-.296a.485.485 0 0 1-.435-.407l.004 2.997zm3.782-8.007.003-.002c-.001.08.047.165.14.235l1.617 1.16a.907.907 0 0 0 .222-.252c.263-.476.58-.92.947-1.322.015-.02.031-.042.051-.061a.45.45 0 0 0 .108-.223.364.364 0 0 0-.091-.29.29.29 0 0 0-.067-.061l-2.795-2.01a.388.388 0 0 1-.064-.055.187.187 0 0 1-.056-.091.185.185 0 0 1-.018-.094l-.003.002.006 3.064zm.002 13.405c.002.087.058.17.165.232l3.525 2.036a.92.92 0 0 0 .545.093l-.006-3.054a.926.926 0 0 1-.546-.095l-3.528-2.035c-.098-.059-.154-.135-.165-.216l.01 3.04zm23.032.564c.127.011.254.038.351.082l3.573 1.656a.875.875 0 0 0 .32.063l-.007-3.052a.743.743 0 0 1-.32-.067l-3.572-1.657a1.139 1.139 0 0 0-.352-.084l.007 3.06zm-10.363 3.723c.096.152.27.26.455.26l5.182.001a.537.537 0 0 0 .313-.113l-.003-3.058a.527.527 0 0 1-.317.115l-5.187-.002a.543.543 0 0 1-.434-.232l-.009 3.029z" fill="#BA68C8"/><path d="M174.023 230.088a.472.472 0 0 0 .44.465l4.7.3c.074.004.153.03.23.066l-.006-3.061a.636.636 0 0 0-.236-.064l-4.697-.296a.485.485 0 0 1-.435-.407l.004 2.997zm3.782-8.007.003-.002c-.001.08.047.165.14.235l1.617 1.16a.907.907 0 0 0 .222-.252c.263-.476.58-.92.947-1.322.015-.02.031-.042.051-.061a.45.45 0 0 0 .108-.223.364.364 0 0 0-.091-.29.29.29 0 0 0-.067-.061l-2.795-2.01a.388.388 0 0 1-.064-.055.187.187 0 0 1-.056-.091.185.185 0 0 1-.018-.094l-.003.002.006 3.064zm.002 13.405c.002.087.058.17.165.232l3.525 2.036a.92.92 0 0 0 .545.093l-.006-3.054a.926.926 0 0 1-.546-.095l-3.528-2.035c-.098-.059-.154-.135-.165-.216l.01 3.04zm23.032.564c.127.011.254.038.351.082l3.573 1.656a.875.875 0 0 0 .32.063l-.007-3.052a.743.743 0 0 1-.32-.067l-3.572-1.657a1.139 1.139 0 0 0-.352-.084l.007 3.06zm-10.363 3.723c.096.152.27.26.455.26l5.182.001a.537.537 0 0 0 .313-.113l-.003-3.058a.527.527 0 0 1-.317.115l-5.187-.002a.543.543 0 0 1-.434-.232l-.009 3.029z" fill="#FFF" fill-opacity=".698"/><path d="m181.489 216.742-3.526 2.036c-.21.121-.221.335-.024.477l2.794 2.01c.197.142.215.395.051.574a7.018 7.018 0 0 0-.997 1.384c-.116.214-.392.406-.635.421l-4.698.297a.475.475 0 0 0-.44.468v2.621c0 .243.197.453.44.468l4.699.298c.242.015.518.208.634.422.275.5.61.965.998 1.384.164.179.145.43-.052.573l-2.794 2.01c-.197.142-.186.356.024.477l3.526 2.036a.95.95 0 0 0 .78.035l3.574-1.656c.22-.102.586-.12.818-.048.89.278 1.821.497 2.775.66.24.04.47.262.516.501l.447 2.356c.045.239.28.432.522.432h5.184a.551.551 0 0 0 .522-.432l.447-2.356a.676.676 0 0 1 .516-.502 21.225 21.225 0 0 0 2.775-.66c.232-.072.597-.053.817.05l3.574 1.655a.95.95 0 0 0 .78-.035l3.526-2.036c.21-.121.221-.335.024-.477l-2.794-2.01c-.197-.142-.216-.395-.052-.574.387-.419.723-.884.998-1.384.115-.213.392-.406.635-.421l4.698-.298a.475.475 0 0 0 .439-.468v-2.62a.475.475 0 0 0-.44-.469l-4.697-.297c-.243-.015-.52-.208-.635-.422-.275-.5-.61-.965-.998-1.384-.164-.18-.145-.432.052-.573l2.794-2.01c.197-.143.187-.356-.024-.478l-3.526-2.035a.95.95 0 0 0-.78-.035l-3.574 1.655c-.22.103-.586.121-.818.05a21.136 21.136 0 0 0-2.774-.66.675.675 0 0 1-.517-.502l-.448-2.355a.552.552 0 0 0-.521-.433h-5.184a.551.551 0 0 0-.522.433l-.447 2.355a.676.676 0 0 1-.517.502 21.23 21.23 0 0 0-2.774.66 1.311 1.311 0 0 1-.818-.05l-3.574-1.655a.949.949 0 0 0-.78.035zm17.98 5.539c3.29 1.899 3.29 4.978 0 6.878-3.29 1.9-8.623 1.899-11.912 0-3.29-1.9-3.29-4.979 0-6.878 3.29-1.9 8.623-1.9 11.912 0z" fill="#BA68C8"/><path d="m181.489 216.742-3.526 2.036c-.21.121-.221.335-.024.477l2.794 2.01c.197.142.215.395.051.574a7.018 7.018 0 0 0-.997 1.384c-.116.214-.392.406-.635.421l-4.698.297a.475.475 0 0 0-.44.468v2.621c0 .243.197.453.44.468l4.699.298c.242.015.518.208.634.422.275.5.61.965.998 1.384.164.179.145.43-.052.573l-2.794 2.01c-.197.142-.186.356.024.477l3.526 2.036a.95.95 0 0 0 .78.035l3.574-1.656c.22-.102.586-.12.818-.048.89.278 1.821.497 2.775.66.24.04.47.262.516.501l.447 2.356c.045.239.28.432.522.432h5.184a.551.551 0 0 0 .522-.432l.447-2.356a.676.676 0 0 1 .516-.502 21.225 21.225 0 0 0 2.775-.66c.232-.072.597-.053.817.05l3.574 1.655a.95.95 0 0 0 .78-.035l3.526-2.036c.21-.121.221-.335.024-.477l-2.794-2.01c-.197-.142-.216-.395-.052-.574.387-.419.723-.884.998-1.384.115-.213.392-.406.635-.421l4.698-.298a.475.475 0 0 0 .439-.468v-2.62a.475.475 0 0 0-.44-.469l-4.697-.297c-.243-.015-.52-.208-.635-.422-.275-.5-.61-.965-.998-1.384-.164-.18-.145-.432.052-.573l2.794-2.01c.197-.143.187-.356-.024-.478l-3.526-2.035a.95.95 0 0 0-.78-.035l-3.574 1.655c-.22.103-.586.121-.818.05a21.136 21.136 0 0 0-2.774-.66.675.675 0 0 1-.517-.502l-.448-2.355a.552.552 0 0 0-.521-.433h-5.184a.551.551 0 0 0-.522.433l-.447 2.355a.676.676 0 0 1-.517.502 21.23 21.23 0 0 0-2.774.66 1.311 1.311 0 0 1-.818-.05l-3.574-1.655a.949.949 0 0 0-.78.035zm17.98 5.539c3.29 1.899 3.29 4.978 0 6.878-3.29 1.9-8.623 1.899-11.912 0-3.29-1.9-3.29-4.979 0-6.878 3.29-1.9 8.623-1.9 11.912 0z" stroke="#FFF" stroke-width=".34584000000000004" fill="#FFF" fill-opacity=".549"/><path d="M157.909 202.193c-.276.12-.726.156-1.013.066l-2.38-.746a1.111 1.111 0 0 0-.938.185l-1.562 1.3c-.106.088-.154.192-.152.291l-.003-.001v2.511l.004-.002c-.002.12.07.237.22.312l.844.424-2.167.37a.453.453 0 0 0-.388.467l-.01-.005v2.513h.003c0 .051.006.102.022.154l.424 1.353a.75.75 0 0 0 .706.497l2.796-.113c.211-.008.466.082.673.209l-.142.15a.406.406 0 0 0-.12.273h-.002v2.521l.002-.002c0 .135.086.26.253.327l2.448.98c.278.112.708.068.958-.098l1.646-1.094c.25-.166.692-.249.988-.198.524.092 1.053.157 1.584.197.3.022.654.25.791.517l.61 1.186c.137.268.49.459.79.428l3.058-.32a.532.532 0 0 0 .477-.522h.003v-1.705a.656.656 0 0 1 .312-.221c.443-.137.87-.294 1.276-.47.275-.12.726-.156 1.013-.066l2.38.746c.287.09.707.007.938-.186l1.562-1.3a.378.378 0 0 0 .152-.279l.003.002v-2.53l-.003.002c0-.119-.073-.232-.22-.306l-.845-.424 2.167-.371a.458.458 0 0 0 .395-.44h.002v-2.525l-.007.001a.494.494 0 0 0-.017-.166l-.424-1.352a.75.75 0 0 0-.706-.498l-2.796.113c-.211.008-.466-.081-.673-.209l.142-.15a.4.4 0 0 0 .12-.276l.002.001-.001-2.5v-.031l-.002.001c-.005-.13-.09-.248-.253-.313l-2.447-.98a1.159 1.159 0 0 0-.958.099l-1.646 1.093c-.25.166-.692.25-.988.198a16.401 16.401 0 0 0-1.584-.197c-.3-.023-.655-.25-.792-.517l-.61-1.187a.856.856 0 0 0-.789-.427l-3.058.319a.534.534 0 0 0-.476.597l.14 1.162a.667.667 0 0 1-.457.69c-.443.14-.87.296-1.275.472zm10.808 6.531c-1.84 1.532-5.482 1.912-8.134.85-.979-.392-1.683-.926-2.094-1.52.158-.22.36-.44.623-.657 1.84-1.532 5.482-1.912 8.134-.85.974.39 1.677.921 2.089 1.512a3.416 3.416 0 0 1-.618.665z" fill="#BA68C8"/><path d="M157.909 202.193c-.276.12-.726.156-1.013.066l-2.38-.746a1.111 1.111 0 0 0-.938.185l-1.562 1.3c-.106.088-.154.192-.152.291l-.003-.001v2.511l.004-.002c-.002.12.07.237.22.312l.844.424-2.167.37a.453.453 0 0 0-.388.467l-.01-.005v2.513h.003c0 .051.006.102.022.154l.424 1.353a.75.75 0 0 0 .706.497l2.796-.113c.211-.008.466.082.673.209l-.142.15a.406.406 0 0 0-.12.273h-.002v2.521l.002-.002c0 .135.086.26.253.327l2.448.98c.278.112.708.068.958-.098l1.646-1.094c.25-.166.692-.249.988-.198.524.092 1.053.157 1.584.197.3.022.654.25.791.517l.61 1.186c.137.268.49.459.79.428l3.058-.32a.532.532 0 0 0 .477-.522h.003v-1.705a.656.656 0 0 1 .312-.221c.443-.137.87-.294 1.276-.47.275-.12.726-.156 1.013-.066l2.38.746c.287.09.707.007.938-.186l1.562-1.3a.378.378 0 0 0 .152-.279l.003.002v-2.53l-.003.002c0-.119-.073-.232-.22-.306l-.845-.424 2.167-.371a.458.458 0 0 0 .395-.44h.002v-2.525l-.007.001a.494.494 0 0 0-.017-.166l-.424-1.352a.75.75 0 0 0-.706-.498l-2.796.113c-.211.008-.466-.081-.673-.209l.142-.15a.4.4 0 0 0 .12-.276l.002.001-.001-2.5v-.031l-.002.001c-.005-.13-.09-.248-.253-.313l-2.447-.98a1.159 1.159 0 0 0-.958.099l-1.646 1.093c-.25.166-.692.25-.988.198a16.401 16.401 0 0 0-1.584-.197c-.3-.023-.655-.25-.792-.517l-.61-1.187a.856.856 0 0 0-.789-.427l-3.058.319a.534.534 0 0 0-.476.597l.14 1.162a.667.667 0 0 1-.457.69c-.443.14-.87.296-1.275.472zm10.808 6.531c-1.84 1.532-5.482 1.912-8.134.85-.979-.392-1.683-.926-2.094-1.52.158-.22.36-.44.623-.657 1.84-1.532 5.482-1.912 8.134-.85.974.39 1.677.921 2.089 1.512a3.416 3.416 0 0 1-.618.665z" fill="#FFF" fill-opacity=".2"/><path d="M173.558 208.304c-.13.273-.047.586.223.721l1.121.564 2.167-.372a.46.46 0 0 0 .393-.44l-.002-2.493c-.014.206-.165.372-.393.414l-2.662.455c-.293.05-.563.335-.649.621a3.657 3.657 0 0 1-.198.53zm-.455-7.104a.39.39 0 0 1-.12.272l-1.112 1.18c-.206.218-.168.532.068.718.247.188.472.39.67.596.061.063.142.126.231.178l.144-.153a.416.416 0 0 0 .118-.275l.004-.003-.003-2.513zm-5.858 2.828c2.289.917 3.096 2.606 2.086 4.033-.407-.595-1.112-1.122-2.084-1.514-2.654-1.061-6.294-.684-8.137.85a3.463 3.463 0 0 0-.618.657c-.71-1.014-.545-2.21.616-3.177 1.843-1.532 5.484-1.91 8.137-.849z" fill-opacity=".098"/><path d="M163.133 215.262a.901.901 0 0 1 .26.29l.613 1.188a.83.83 0 0 0 .45.377l-.002-2.52a.855.855 0 0 1-.45-.376l-.612-1.189a.88.88 0 0 0-.253-.293l-.006 2.523zm-8.407-.34c-.002.135.084.258.251.325l2.45.982c.18.074.422.072.642.025l-.002-2.52c-.218.052-.461.05-.642-.024l-2.443-.98c-.17-.07-.26-.192-.254-.328l-.004.002.002 2.519zm16.235-1.052 2.352.736c.176.057.394.04.593-.016l-.003-2.513a1.06 1.06 0 0 1-.591.01l-2.349-.738-.002 2.52zm-20.594-3.99a.395.395 0 0 0 .024.154l.421 1.353c.09.284.406.507.707.497l2.796-.113c.135-.004.289.03.436.089l-.002-2.519a1.123 1.123 0 0 0-.436-.088l-2.796.112a.748.748 0 0 1-.706-.496l-.421-1.353a.696.696 0 0 1-.026-.148l.003 2.512zm1.494-4.079.003-.002c0 .119.072.235.22.313l.846.42.492-.08c.296-.053.566-.338.65-.628.051-.178.12-.35.2-.526.019-.045.034-.088.046-.135a.87.87 0 0 0 .011-.1.525.525 0 0 0-.28-.486l-1.962-.986a.565.565 0 0 1-.124-.087.278.278 0 0 1-.084-.129.288.288 0 0 1-.02-.087l.002 2.513z" fill="#BA68C8"/><path d="M163.133 215.262a.901.901 0 0 1 .26.29l.613 1.188a.83.83 0 0 0 .45.377l-.002-2.52a.855.855 0 0 1-.45-.376l-.612-1.189a.88.88 0 0 0-.253-.293l-.006 2.523zm-8.407-.34c-.002.135.084.258.251.325l2.45.982c.18.074.422.072.642.025l-.002-2.52c-.218.052-.461.05-.642-.024l-2.443-.98c-.17-.07-.26-.192-.254-.328l-.004.002.002 2.519zm16.235-1.052 2.352.736c.176.057.394.04.593-.016l-.003-2.513a1.06 1.06 0 0 1-.591.01l-2.349-.738-.002 2.52zm-20.594-3.99a.395.395 0 0 0 .024.154l.421 1.353c.09.284.406.507.707.497l2.796-.113c.135-.004.289.03.436.089l-.002-2.519a1.123 1.123 0 0 0-.436-.088l-2.796.112a.748.748 0 0 1-.706-.496l-.421-1.353a.696.696 0 0 1-.026-.148l.003 2.512zm1.494-4.079.003-.002c0 .119.072.235.22.313l.846.42.492-.08c.296-.053.566-.338.65-.628.051-.178.12-.35.2-.526.019-.045.034-.088.046-.135a.87.87 0 0 0 .011-.1.525.525 0 0 0-.28-.486l-1.962-.986a.565.565 0 0 1-.124-.087.278.278 0 0 1-.084-.129.288.288 0 0 1-.02-.087l.002 2.513z" fill="#FFF" fill-opacity=".698"/><path d="m153.578 201.699-1.562 1.3c-.231.192-.2.457.068.592l1.963.985c.269.135.351.448.225.72a3.72 3.72 0 0 0-.2.53c-.085.288-.354.572-.65.623l-2.66.455a.463.463 0 0 0-.373.611l.424 1.352a.75.75 0 0 0 .706.498l2.796-.113c.3-.012.695.17.905.385.2.206.423.405.67.597.236.185.273.497.067.716l-1.11 1.18c-.206.22-.147.488.133.6l2.447.98c.279.112.708.068.959-.098l1.645-1.093c.25-.166.692-.25.988-.198a16.41 16.41 0 0 0 1.584.196c.3.023.655.25.792.517l.609 1.187a.855.855 0 0 0 .79.427l3.058-.319a.534.534 0 0 0 .476-.597l-.14-1.161a.667.667 0 0 1 .457-.692c.434-.133.86-.29 1.276-.47.276-.12.726-.156 1.013-.066l2.38.747c.287.09.707.006.938-.186l1.562-1.3c.23-.192.2-.457-.068-.592l-1.963-.986c-.269-.134-.352-.448-.225-.72.08-.172.148-.349.201-.53.085-.288.353-.572.65-.623l2.66-.454a.463.463 0 0 0 .373-.611l-.424-1.352a.75.75 0 0 0-.706-.498l-2.796.113c-.3.012-.695-.17-.904-.385a6.617 6.617 0 0 0-.67-.597c-.237-.185-.274-.497-.068-.716l1.11-1.18c.206-.22.147-.488-.132-.6l-2.447-.98a1.16 1.16 0 0 0-.959.099l-1.646 1.093c-.25.166-.691.25-.987.198a16.404 16.404 0 0 0-1.585-.197c-.3-.022-.655-.25-.792-.517l-.609-1.186a.855.855 0 0 0-.79-.428l-3.058.32a.533.533 0 0 0-.476.595l.14 1.162a.667.667 0 0 1-.457.69c-.442.137-.869.294-1.275.47-.276.12-.726.157-1.013.067l-2.38-.746c-.29-.09-.71-.007-.94.186zm13.668 2.329c2.652 1.062 3.311 3.165 1.471 4.696-1.84 1.532-5.482 1.912-8.134.85-2.653-1.062-3.311-3.165-1.472-4.696 1.84-1.532 5.482-1.912 8.135-.85z" fill="#BA68C8"/><path d="m153.578 201.699-1.562 1.3c-.231.192-.2.457.068.592l1.963.985c.269.135.351.448.225.72a3.72 3.72 0 0 0-.2.53c-.085.288-.354.572-.65.623l-2.66.455a.463.463 0 0 0-.373.611l.424 1.352a.75.75 0 0 0 .706.498l2.796-.113c.3-.012.695.17.905.385.2.206.423.405.67.597.236.185.273.497.067.716l-1.11 1.18c-.206.22-.147.488.133.6l2.447.98c.279.112.708.068.959-.098l1.645-1.093c.25-.166.692-.25.988-.198a16.41 16.41 0 0 0 1.584.196c.3.023.655.25.792.517l.609 1.187a.855.855 0 0 0 .79.427l3.058-.319a.534.534 0 0 0 .476-.597l-.14-1.161a.667.667 0 0 1 .457-.692c.434-.133.86-.29 1.276-.47.276-.12.726-.156 1.013-.066l2.38.747c.287.09.707.006.938-.186l1.562-1.3c.23-.192.2-.457-.068-.592l-1.963-.986c-.269-.134-.352-.448-.225-.72.08-.172.148-.349.201-.53.085-.288.353-.572.65-.623l2.66-.454a.463.463 0 0 0 .373-.611l-.424-1.352a.75.75 0 0 0-.706-.498l-2.796.113c-.3.012-.695-.17-.904-.385a6.617 6.617 0 0 0-.67-.597c-.237-.185-.274-.497-.068-.716l1.11-1.18c.206-.22.147-.488-.132-.6l-2.447-.98a1.16 1.16 0 0 0-.959.099l-1.646 1.093c-.25.166-.691.25-.987.198a16.404 16.404 0 0 0-1.585-.197c-.3-.022-.655-.25-.792-.517l-.609-1.186a.855.855 0 0 0-.79-.428l-3.058.32a.533.533 0 0 0-.476.595l.14 1.162a.667.667 0 0 1-.457.69c-.442.137-.869.294-1.275.47-.276.12-.726.157-1.013.067l-2.38-.746c-.29-.09-.71-.007-.94.186zm13.668 2.329c2.652 1.062 3.311 3.165 1.471 4.696-1.84 1.532-5.482 1.912-8.134.85-2.653-1.062-3.311-3.165-1.472-4.696 1.84-1.532 5.482-1.912 8.135-.85z" stroke="#FFF" stroke-width=".428108" fill="#FFF" fill-opacity=".549"/><path d="M176.372 191.617v-19.041l-24.735-14.281v19.041l24.735 14.281z" fill="#EBEBEB"/><path d="m176.372 172.576 34.218-19.73v19.042l-34.218 19.73v-19.042z" fill="#E0E0E0"/><path d="m151.423 157.865 34.431-19.856 24.95 14.41-34.432 19.857-24.949-14.41z" fill="#FAFAFA"/><path d="m185.854 138.308 24.43 14.111-33.912 19.557-24.43-14.111 33.912-19.557zm0-.6-34.95 20.157 25.469 14.71 34.95-20.155-25.469-14.711z" fill="#EBEBEB"/><path d="M176.372 172.576v4.76l-25.468-14.704v-4.767l25.468 14.71z" fill="#EBEBEB"/><path d="m211.323 152.42-34.95 20.156v4.76l34.95-20.152v-4.764z" fill="#E0E0E0"/><path d="M151.637 163.055v1.046l24.735 14.282v-1.047l-24.735-14.281zm58.953-5.448-34.218 19.73v1.046l34.218-19.73v-1.046z" fill-opacity=".098"/><path d="m168.23 175.47-8.45-4.879c-.364-.21-.66-.04-.66.38v4.997c0 .42.296.932.66 1.142l8.45 4.878c.364.21.659.04.659-.38v-4.996c0-.421-.295-.932-.66-1.142z" fill="#E0E0E0"/><path d="m168.23 175.47-8.45-4.879c-.364-.21-.66-.04-.66.38v4.997c0 .42.296.932.66 1.142l8.45 4.878c.364.21.659.04.659-.38v-4.996c0-.421-.295-.932-.66-1.142z" fill-opacity=".098"/><path d="m167.688 176.036-7.367-4.253c-.242-.14-.44-.026-.44.254v3.745c0 .28.198.621.44.761l7.367 4.253c.243.14.44.027.44-.253v-3.745a.972.972 0 0 0-.44-.762z" fill="#F5F5F5"/><path d="M167.483 177.026a.107.107 0 0 0 .053-.2l-6.956-4.016a.107.107 0 1 0-.107.185l6.956 4.016a.11.11 0 0 0 .054.015zm0 .92a.107.107 0 0 0 .053-.2l-6.956-4.016a.107.107 0 1 0-.107.185l6.956 4.016a.11.11 0 0 0 .054.014zm0 .918a.107.107 0 0 0 .053-.2l-6.956-4.015a.107.107 0 1 0-.107.185l6.956 4.016a.1.1 0 0 0 .054.014zm0 .92a.107.107 0 0 0 .053-.2l-6.956-4.015a.107.107 0 1 0-.107.185l6.956 4.016a.11.11 0 0 0 .054.014z" fill-opacity=".2"/><path d="m209.292 151.246-34.343 19.806-23.437-13.538 34.342-19.805 23.438 13.537z" fill-opacity=".098"/><path d="M174.74 169.548v-19.042l-24.736-14.28v19.041l24.736 14.281z" fill="#EBEBEB"/><path d="m174.74 150.506 34.217-19.728v19.041l-34.217 19.73v-19.043z" fill="#E0E0E0"/><path d="m149.79 135.796 34.43-19.857 24.95 14.411-34.43 19.857-24.95-14.41z" fill="#FAFAFA"/><path d="m184.22 116.239 24.432 14.111-33.912 19.558-24.43-14.112 33.91-19.557zm0-.6-34.949 20.157 25.469 14.71 34.95-20.156-25.47-14.71z" fill="#EBEBEB"/><path d="M174.74 150.506v4.761l-25.469-14.705v-4.766l25.469 14.71z" fill="#EBEBEB"/><path d="m209.69 130.35-34.95 20.156v4.761l34.95-20.152v-4.764z" fill="#E0E0E0"/><path d="M150.004 140.986v1.046l24.736 14.282v-1.046l-24.736-14.282zm58.953-5.448-34.217 19.73v1.046l34.217-19.73v-1.046z" fill-opacity=".098"/><path d="m166.596 153.4-8.45-4.878c-.364-.21-.66-.04-.66.38v4.997c0 .42.296.932.66 1.142l8.45 4.878c.364.21.66.04.66-.38v-4.997c0-.42-.295-.931-.66-1.142z" fill="#E0E0E0"/><path d="m166.596 153.4-8.45-4.878c-.364-.21-.66-.04-.66.38v4.997c0 .42.296.932.66 1.142l8.45 4.878c.364.21.66.04.66-.38v-4.997c0-.42-.295-.931-.66-1.142z" fill-opacity=".098"/><path d="m166.055 153.967-7.367-4.253c-.243-.14-.44-.027-.44.253v3.746c0 .28.197.62.44.761l7.367 4.253c.242.14.44.027.44-.254v-3.745c0-.28-.198-.62-.44-.761z" fill="#F5F5F5"/><path d="M165.85 154.956a.107.107 0 0 0 .053-.2l-6.956-4.015a.107.107 0 0 0-.107.185l6.956 4.016a.11.11 0 0 0 .053.014zm0 .92a.107.107 0 0 0 .053-.2l-6.956-4.016a.107.107 0 1 0-.107.186l6.956 4.016a.11.11 0 0 0 .053.014zm0 .92a.107.107 0 0 0 .053-.2l-6.956-4.016a.107.107 0 1 0-.107.185l6.956 4.016c.016.01.035.014.053.014zm0 .92a.107.107 0 0 0 .053-.2l-6.956-4.016a.107.107 0 1 0-.107.185l6.956 4.016a.11.11 0 0 0 .053.014z" fill-opacity=".2"/><path d="M61.401 201.862c-4.64-4.788-7.365-17.644-2.84-21.441h23.027c4.524 3.795 1.802 16.645-2.835 21.436-.04.044-.086.087-.127.131a9.075 9.075 0 0 1-.58.536l-.11.088c-.114.09-.226.18-.35.267a6.534 6.534 0 0 1-.6.388c-3.817 2.228-10.004 2.228-13.82 0h-.002a6.482 6.482 0 0 1-.603-.39c-.116-.082-.22-.165-.326-.25-.046-.037-.092-.07-.137-.108a6.405 6.405 0 0 1-.405-.364l-.184-.183c-.036-.037-.074-.073-.108-.11z" fill="#EBEBEB"/><path d="M79.588 178.892c5.254 3.067 5.254 8.04 0 11.108-5.254 3.067-13.772 3.067-19.026 0s-5.254-8.041 0-11.108c5.254-3.068 13.772-3.068 19.026 0z" fill="#FAFAFA"/><path d="M77.06 180.367c3.859 2.252 3.859 5.905 0 8.157-3.857 2.253-10.113 2.253-13.971 0-3.858-2.252-3.858-5.905 0-8.157 3.859-2.253 10.114-2.253 13.972 0z" fill="#E0E0E0"/><path d="M63.09 184.238c3.858-2.252 10.113-2.252 13.971 0 1.072.626 1.835 1.362 2.311 2.144-.477.781-1.24 1.517-2.31 2.143-3.859 2.252-10.114 2.252-13.973 0-1.071-.626-1.835-1.362-2.311-2.143.476-.783 1.24-1.518 2.311-2.144z" fill="#F5F5F5"/><path d="m73.125 148.713-5.402 7.074 5.774-4.675s.88 3.274.433 6.483c0 0-2.733 2.736-4.176 4.899l4.51-3.25s1.181 3.216 1.084 8.605c-.026 1.41-.87 4.307-1.33 6.428a22.309 22.309 0 0 1-.82 2.883c-.017.06-.04.117-.061.178a72.413 72.413 0 0 0-4.057-1.001c-1.235-1.492-3.346-5.411-4.594-8.743-4.768-12.757 3.25-22.791 10.588-27.334 0 0-1.87 4.131-1.949 8.453z" fill="#E0E0E0"/><path d="M67.611 150.694c-1.029 1.737-1.373 3.77-1.53 5.752a27.458 27.458 0 0 0 .238 5.982c.573 3.952 2.017 7.79 4.319 11.032l.002.003a.196.196 0 1 1-.322.225c-2.292-3.343-3.68-7.245-4.193-11.233a27.617 27.617 0 0 1-.142-6.018c.19-1.986.57-4.022 1.628-5.743z" fill="#FFF"/><path d="M46.626 157.01s.003.006.01.012c.173.23 3.002 4.02 7.105 11.312l7.438 1.643-5.593.647 2.7 4.88 7.301 1.956-5.824.605s1.276 5.723 5.27 8.31c2.206 1.428 3.193 1.516 4.031 1.079 1.023-.534 1.588-2.123 2.126-4.51.539-2.388-.017-7.305-2.019-12.165-.531-1.293-1.27-2.498-2.163-3.613-5.114-6.402-15.271-9.934-20.382-10.155z" fill="#E6E6E6"/><path d="M54.339 159.922c3.784 1.928 7.323 4.478 10.027 7.817a20.59 20.59 0 0 1 3.268 5.516 19.505 19.505 0 0 1 1.277 6.265c0 .011-.008.02-.02.021a.021.021 0 0 1-.02-.018c-.308-2.107-.806-4.169-1.623-6.113a23.131 23.131 0 0 0-3.143-5.463c-2.607-3.34-6.061-5.957-9.785-7.988a.021.021 0 0 1-.008-.028.02.02 0 0 1 .027-.009z" fill="#FFF"/><path d="M92.612 154.117a18.42 18.42 0 0 0-2.204.363c-2.401.534-5.33 1.573-8.236 3.064a37.049 37.049 0 0 0-2.877 1.64 33.88 33.88 0 0 0-1.394.928c-2.287 1.608-4.366 3.51-5.917 5.678a15.64 15.64 0 0 0-1.866 3.407c-.061.156-.13.31-.185.467l-.001.004c-.139.398-.267.8-.385 1.205-1.373 4.455-1.185 7.413-.683 10.658.39 2.517 1.59 5.305 2.139 5.722.075.057.155.1.24.137.774.374 1.888-.029 3.89-1.48 4.01-2.907 4.978-9.188 4.978-9.188l-6.087-.31 7.481-2.432 2.54-5.222-5.85-.366 7.642-2.115c3.865-7.805 6.597-11.898 6.764-12.148.008-.007.011-.012.011-.012z" fill="#F0F0F0"/><path d="M90.408 154.48c-2.401.534-5.33 1.573-8.236 3.064a37.049 37.049 0 0 0-2.877 1.64 33.88 33.88 0 0 0-1.394.928c-2.287 1.608-4.366 3.51-5.917 5.678a15.64 15.64 0 0 0-1.866 3.407c-.061.156-.13.31-.185.467l-.001.004c-.139.398-.267.8-.385 1.205-1.373 4.455-1.185 7.413-.683 10.658.39 2.517 1.59 5.305 2.139 5.722.075.057.155.1.24.137.148.072.315.106.492.118-.991-3.857-.236-14.023 2.201-18.455 2.535-4.61 9.012-11.628 18.665-14.924l-.01-.009c-.734.076-1.463.197-2.183.36z" fill="#E6E6E6"/><path d="M71.712 187.512c-.553-2.87-.662-5.816-.46-8.734.238-2.913.771-5.832 1.905-8.56 1.166-2.73 3.029-5.07 5.054-7.186 2.074-2.078 4.398-3.91 6.94-5.356a.025.025 0 0 1 .026.042c-2.384 1.68-4.627 3.543-6.612 5.656a31.394 31.394 0 0 0-2.809 3.308c-.864 1.159-1.657 2.377-2.238 3.694-1.155 2.648-1.737 5.536-2.022 8.423-.265 2.893-.223 5.829.263 8.705a.024.024 0 0 1-.02.028.025.025 0 0 1-.027-.02z" fill="#FFF"/><path d="M186.014 196.811c.533-1.507 2.103-2.413 4.708-2.717l56.02 32.31v5.436l-60.728-35.029z" fill="#455A64"/><path d="M289.108 207.382c-.533-1.508-2.102-2.414-4.707-2.718l-37.658 21.74v5.436l42.365-24.458z" fill="#37474F"/><path d="M246.741 226.404v-37.78l14.123-16.307 23.537-13.588v45.933l-37.66 21.742z" fill="#BA68C8"/><path d="M246.741 226.404v-37.78l14.123-16.307 23.537-13.588v45.933l-37.66 21.742z" fill="#FFF" fill-opacity=".447"/><path d="m246.741 226.404-56.02-32.31v-37.782l56.02 32.312v37.78z" fill="#BA68C8"/><path d="m246.741 226.404-56.02-32.31v-37.782l56.02 32.312v37.78z" fill="#FFF" fill-opacity=".647"/><path d="m190.722 156.313 14.122-16.306 23.537-13.59 56.02 32.312-23.537 13.588-14.122 16.307-56.02-32.311z" fill="#BA68C8"/><path d="m190.722 156.313 14.122-16.306 23.537-13.59 56.02 32.312-23.537 13.588-14.122 16.307-56.02-32.311z" fill="#FFF" fill-opacity=".749"/><path d="m204.844 140.007 56.02 32.31 23.537-13.588-56.02-32.311-23.537 13.589z" fill="#FFF" fill-opacity=".247"/><path d="m199.214 183.566 5.54 3.183c.866.5 1.57 1.719 1.57 2.72v3.179c0 1.001-.704 1.407-1.57.907l-5.54-3.183c-.868-.501-1.57-1.719-1.57-2.72v-3.179c0-1.002.702-1.408 1.57-.907z" fill="#455A64"/><path d="m200.707 187.15.72-.416.006-.003c.248-.139.586-.118.96.099.754.435 1.365 1.494 1.365 2.364 0 .434-.152.74-.399.883l-.67.384-.121-.202a1.388 1.388 0 0 1-.392-.152c-.754-.436-1.365-1.494-1.365-2.365 0-.129.017-.243.043-.348l-.147-.244z" fill="#BA68C8"/><path d="m200.707 187.15.72-.416.006-.003c.248-.139.586-.118.96.099.754.435 1.365 1.494 1.365 2.364 0 .434-.152.74-.399.883l-.67.384-.121-.202a1.388 1.388 0 0 1-.392-.152c-.754-.436-1.365-1.494-1.365-2.365 0-.129.017-.243.043-.348l-.147-.244z" fill-opacity=".2"/><path d="M201.7 187.227c.754.436 1.365 1.494 1.365 2.365 0 .87-.61 1.223-1.365.788-.754-.436-1.365-1.494-1.365-2.365 0-.87.611-1.223 1.365-.788z" fill="#BA68C8"/><path d="M201.7 187.227c.754.436 1.365 1.494 1.365 2.365 0 .87-.61 1.223-1.365.788-.754-.436-1.365-1.494-1.365-2.365 0-.87.611-1.223 1.365-.788z" fill="#FFF" fill-opacity=".247"/><path d="m199.214 170.055 5.54 3.183c.866.501 1.57 1.719 1.57 2.72v3.178c0 1.002-.704 1.408-1.57.907l-5.54-3.183c-.868-.501-1.57-1.719-1.57-2.72v-3.179c0-1.001.702-1.407 1.57-.906z" fill="#455A64"/><path d="m200.707 173.639.72-.416.006-.003v.001c.248-.14.586-.118.96.098.754.436 1.365 1.494 1.365 2.365 0 .434-.152.74-.399.883l-.67.384-.121-.202a1.388 1.388 0 0 1-.392-.152c-.754-.435-1.365-1.494-1.365-2.364 0-.13.017-.243.043-.35l-.147-.244z" fill="#BA68C8"/><path d="m200.707 173.639.72-.416.006-.003v.001c.248-.14.586-.118.96.098.754.436 1.365 1.494 1.365 2.365 0 .434-.152.74-.399.883l-.67.384-.121-.202a1.388 1.388 0 0 1-.392-.152c-.754-.435-1.365-1.494-1.365-2.364 0-.13.017-.243.043-.35l-.147-.244z" fill-opacity=".2"/><path d="M201.7 173.716c.754.436 1.365 1.494 1.365 2.365 0 .87-.61 1.223-1.365.788-.754-.436-1.365-1.494-1.365-2.364 0-.87.611-1.224 1.365-.789z" fill="#BA68C8"/><path d="M201.7 173.716c.754.436 1.365 1.494 1.365 2.365 0 .87-.61 1.223-1.365.788-.754-.436-1.365-1.494-1.365-2.364 0-.87.611-1.224 1.365-.789z" fill="#FFF" fill-opacity=".247"/><path d="m210.775 175.489 26.864 15.496c.48.278.87.953.87 1.508v7.419c0 .555-.39.78-.87.502l-26.864-15.496c-.481-.278-.87-.953-.87-1.508v-7.419c0-.555.389-.78.87-.502z" fill="#455A64"/><path d="M211.537 178.758c0 .52.39 1.168.87 1.445l23.6 13.611c.48.278.87.08.87-.44 0-.521-.39-1.168-.87-1.445l-23.6-13.611c-.48-.278-.87-.081-.87.44z" fill="#BA68C8"/><path d="M211.537 178.758c0 .52.39 1.168.87 1.445l23.6 13.611c.48.278.87.08.87-.44 0-.521-.39-1.168-.87-1.445l-23.6-13.611c-.48-.278-.87-.081-.87.44z" fill="#FFF" fill-opacity=".447"/><path d="M236.009 197.587c.475.279.87.082.87-.44 0-.521-.395-1.17-.87-1.448l-10.563-6.09v1.877l10.563 6.101z" fill="#BA68C8"/><path d="M211.54 182.528c0 .521.388 1.17.87 1.448l13.037 7.51v-1.883l-13.038-7.516c-.481-.277-.869-.08-.869.441z" fill="#263238"/><path d="m210.775 189.041 26.864 15.497c.48.278.87.953.87 1.508v7.419c0 .554-.39.78-.87.502l-26.864-15.497c-.481-.277-.87-.952-.87-1.507v-7.42c0-.554.389-.78.87-.502z" fill="#455A64"/><path d="M211.537 192.31c0 .521.39 1.168.87 1.446l23.6 13.61c.48.278.87.08.87-.44s-.39-1.167-.87-1.445l-23.6-13.61c-.48-.278-.87-.081-.87.44z" fill="#BA68C8"/><path d="M211.537 192.31c0 .521.39 1.168.87 1.446l23.6 13.61c.48.278.87.08.87-.44s-.39-1.167-.87-1.445l-23.6-13.61c-.48-.278-.87-.081-.87.44z" fill="#FFF" fill-opacity=".447"/><path d="M236.009 211.14c.475.278.87.081.87-.44s-.395-1.17-.87-1.448l-7.295-4.207v1.883l7.295 4.212z" fill="#BA68C8"/><path d="M211.54 196.08c0 .522.388 1.171.87 1.45l16.304 9.397v-1.883l-16.305-9.404c-.481-.278-.869-.08-.869.44z" fill="#263238"/><path d="M280.475 175.002c-.179-.104-.426-.09-.7.068l-27.897 16.106c-.55.318-.996 1.09-.996 1.725v23.584c0 .317.111.537.29.64l.885.51c.179.104.426.09.7-.068l27.896-16.106c.55-.318.996-1.09.996-1.725v-23.584c0-.316-.11-.536-.289-.64-.157-.09-.73-.419-.885-.51z" fill="#BA68C8"/><path d="m252.756 191.683 27.897-16.106c.55-.318.996-.06.996.575v23.584c0 .635-.446 1.407-.996 1.725l-27.897 16.106c-.55.317-.995.06-.995-.575v-23.585c0-.635.446-1.407.995-1.724z" fill="#BA68C8"/><path d="m252.756 191.683 27.897-16.106c.55-.318.996-.06.996.575v23.584c0 .635-.446 1.407-.996 1.725l-27.897 16.106c-.55.317-.995.06-.995-.575v-23.585c0-.635.446-1.407.995-1.724z" fill="#FFF" fill-opacity=".149"/><path d="M252.026 217.617c.047.037.097.06.152.07a.392.392 0 0 1-.12-.05c-.008-.006-.022-.015-.032-.02z" fill="#BA68C8"/><path d="M251.76 216.992c0 .271.083.473.22.597-.216-.124-.67-.382-.81-.464-.178-.1-.289-.322-.289-.64V192.9c0-.317.11-.667.294-.98l.874.506c-.18.313-.29.667-.29.984v23.583z" fill-opacity=".498"/><path d="M271.524 186.626c-1.65-.952-3.773-.773-5.982.501-4.27 2.467-7.617 8.262-7.617 13.195 0 2.55.908 4.478 2.556 5.43a4.584 4.584 0 0 0 2.323.604c1.141 0 2.385-.37 3.658-1.105 4.272-2.467 7.618-8.262 7.618-13.194 0-2.55-.908-4.479-2.556-5.431zm.717 5.431c0 1.469-.363 3.048-.982 4.576-1.326.21-3.527-.086-4.545-.632 1.307-2.62 3.414-5.204 4.926-6.685.39.702.6 1.63.6 2.741zm-3.045-4.194c.522 0 .996.118 1.408.356.116.066.223.145.326.23-1.506 1.456-3.331 3.732-4.633 5.983-.258-2.074-.226-3.947.1-5.67.022-.012.043-.028.065-.041.986-.569 1.917-.858 2.734-.858zm-4.064 1.78c-.216 1.809-.147 3.766.2 5.915-1.105-.202-2.57-.837-3.663-1.726.922-1.626 2.12-3.099 3.463-4.189zm-3.985 5.193c1.062.807 2.437 1.463 3.654 1.751-1.757 1.775-3.273 3.71-4.67 5.965-.238-.622-.367-1.37-.367-2.23 0-1.763.52-3.685 1.383-5.486zm.254 9.324a2.608 2.608 0 0 1-.626-.519c1.333-2.22 2.768-4.124 4.423-5.858-.279 2.225-.25 4.21.092 6.007-1.515.808-2.89.947-3.89.37zm4.912-1.003c-.284-1.79-.25-3.79.105-6.059 1.014.47 2.488.718 3.782.718.184 0 .362-.007.537-.017-1.076 2.147-2.645 4.095-4.424 5.358z" fill="#BA68C8" fill-opacity=".498"/><path d="M267.407 197.511c-1.724 0-4.34-1.222-5.712-2.668l.808-.767c1.298 1.368 3.626 2.322 4.904 2.322v1.113z" fill="#37474F"/><path d="m261.783 205.071-.965-.555c1.804-3.141 3.777-5.673 6.206-7.967l.765.81c-2.348 2.217-4.257 4.668-6.006 7.712z" fill="#37474F"/><path d="M266.867 205.355c-.61-2.437-.611-5.218-.008-8.501l1.095.2c-.574 3.125-.576 5.751-.007 8.03l-1.08.27z" fill="#37474F"/><path d="M271.605 198.581c-1.692 0-3.697-.423-4.571-1.213l.746-.827c.882.796 4.283 1.222 5.512.69l.442 1.023c-.51.22-1.281.327-2.13.327z" fill="#37474F"/><path d="m267.912 197.189-1.01-.47c1.427-3.077 4.264-6.578 6.183-8.185l.715.854c-1.542 1.29-4.387 4.564-5.888 7.8z" fill="#37474F"/><path d="M266.86 197.057c-.602-3.21-.6-5.99.005-8.499l1.083.262c-.568 2.352-.566 4.98.006 8.031l-1.095.206z" fill="#37474F"/><path d="M264.208 207.121c-.84 0-1.624-.2-2.323-.603-1.648-.953-2.556-2.881-2.556-5.43 0-4.933 3.347-10.729 7.618-13.195 2.208-1.275 4.332-1.453 5.981-.502 1.649.953 2.556 2.881 2.556 5.431 0 4.932-3.346 10.728-7.618 13.194-1.272.735-2.516 1.105-3.658 1.105zm6.392-18.493c-.816 0-1.748.289-2.734.858-3.693 2.132-6.697 7.336-6.697 11.6 0 1.865.58 3.229 1.636 3.838 1.055.61 2.526.431 4.142-.502 3.693-2.132 6.698-7.336 6.698-11.6 0-1.865-.581-3.229-1.636-3.838a2.783 2.783 0 0 0-1.409-.356z" fill="#455A64"/><path d="m270.439 196.298-2.107-1.213-.006-.003c-.247-.139-.585-.118-.96.099-.753.434-1.364 1.492-1.364 2.362 0 .435.153.74.398.883h.001l2.057 1.182.12-.202c.125-.029.255-.073.392-.152.754-.435 1.364-1.493 1.364-2.363 0-.129-.017-.243-.042-.348l.147-.245z" fill="#263238"/><path d="M269.446 196.376c-.753.435-1.364 1.493-1.364 2.363 0 .87.61 1.222 1.364.787.754-.435 1.364-1.493 1.364-2.363 0-.87-.61-1.222-1.364-.787z" fill="#455A64"/><path d="m241.922 180.7 8.726-10.008c.288-.33.173-.8-.257-1.049l-39.876-23.06c-.43-.249-1.012-.182-1.3.15l-8.722 10.048c-.287.331-.171.801.259 1.05l39.87 23.016c.43.248 1.012.182 1.3-.148z" fill="#263238"/><path d="m241.922 180.7 8.68-9.954-.003-.002-39.876-23.06c-.43-.249-1.012-.182-1.3.149l-8.674 9.995.003.002 39.87 23.017c.43.248 1.012.182 1.3-.148z" fill="#455A64"/><path d="m217.681 159.948-.082-.351c-.034-.147-.131-.266-.29-.358l-1.346-.777c-.219-.126-.253-.273-.104-.439l.894-.99c.15-.167.334-.187.553-.06l1.1.635c.22.126.254.272.104.439l-.444.492c-.15.166-.116.313.103.439l.091.052c.219.127.403.107.553-.06l.608-.673a.424.424 0 0 0 .11-.4l-.082-.351a.546.546 0 0 0-.284-.364l-1.593-.92a.831.831 0 0 0-.515-.107l-.442.048a.692.692 0 0 0-.446.217l-1.22 1.352a.422.422 0 0 0-.11.4l.082.352c.035.146.135.267.298.362l1.339.772c.218.126.254.273.104.44l-.81.897c-.15.166-.334.186-.553.06l-1.1-.636c-.22-.126-.254-.272-.104-.439l.388-.43c.15-.166.116-.312-.104-.439l-.09-.052c-.22-.126-.404-.106-.554.06l-.551.61a.423.423 0 0 0-.11.401l.085.362a.56.56 0 0 0 .289.357l1.585.915c.158.091.33.127.515.107l.442-.047a.696.696 0 0 0 .445-.217l1.136-1.26a.425.425 0 0 0 .11-.4zm-7.496-3.106c.149-.167.243-.238.282-.216.038.022.15.023.334.002l.442-.047a.866.866 0 0 0 .258-.064.576.576 0 0 0 .19-.142l1.411-1.565a.425.425 0 0 0 .111-.4l-.086-.362c-.034-.147-.13-.266-.29-.358l-2.077-1.2c-.219-.125-.403-.106-.553.061l-3.58 3.971c-.155.17-.121.319.098.445l.09.052c.22.127.406.105.56-.066l1.029-1.14c.15-.167.334-.187.553-.06l.377.218c.22.126.254.273.104.439l-.686.76a.424.424 0 0 0-.111.401l.085.362a.562.562 0 0 0 .29.357l.296.17c.219.127.402.107.553-.059l.062-.069c.15-.166.115-.312-.104-.439l-.058-.033c-.218-.127-.253-.273-.104-.44l.523-.578zm-.723-1.65c-.219-.126-.253-.272-.103-.439l1.085-1.203c.15-.166.334-.186.553-.06l1.092.63c.219.127.253.273.103.44l-1.084 1.203c-.15.166-.335.186-.554.06l-1.092-.63zm2.799 4.11c-.093-.054-.147-.118-.16-.191-.011-.074.018-.15.089-.23l2.569-2.848a.426.426 0 0 1 .246-.143.41.41 0 0 1 .28.058c.192.11.36.085.507-.078l.062-.069c.154-.17.12-.318-.098-.444l-1.248-.72c-.219-.127-.405-.105-.56.065l-.06.069c-.072.079-.102.153-.09.223.012.07.064.132.157.186.093.053.144.117.152.192.008.074-.023.15-.095.23l-2.569 2.848a.42.42 0 0 1-.24.142.4.4 0 0 1-.272-.058.403.403 0 0 0-.272-.058.416.416 0 0 0-.24.141l-.062.07c-.15.166-.115.312.104.438l1.248.72c.219.127.403.107.553-.06l.062-.068c.071-.079.101-.155.092-.226-.01-.073-.063-.136-.155-.19zm7.975 2.395c-.038-.104-.028-.19.032-.256.056-.063.144-.1.264-.113l2.34-.27a.697.697 0 0 0 .446-.217l.439-.486c.149-.166.115-.313-.104-.44l-.09-.052c-.22-.126-.404-.105-.554.06l-.23.256a.695.695 0 0 1-.446.217l-2.016.23c-.138.015-.24.004-.306-.035-.055-.031-.081-.076-.079-.135.003-.059.035-.12.094-.187l1.226-1.359c.15-.166.115-.312-.104-.439l-.09-.052c-.22-.126-.404-.107-.554.06l-3.598 3.99c-.15.166-.115.312.104.438l.09.053c.22.126.403.106.554-.06l1.136-1.26a.387.387 0 0 1 .194-.124.253.253 0 0 1 .194.027c.07.04.123.108.143.187l.508 1.402a.36.36 0 0 1 .027.22.475.475 0 0 1-.113.195l-.332.368c-.15.166-.115.312.104.438l.09.053c.219.126.403.106.553-.06l.58-.642a.46.46 0 0 0 .113-.195.351.351 0 0 0-.027-.22l-.588-1.592zm5.34 5.292-1.839-1.062c-.219-.126-.253-.272-.104-.439l3.081-3.416c.154-.17.121-.318-.098-.445l-.09-.052c-.22-.127-.406-.104-.56.066l-3.243 3.597a.425.425 0 0 0-.111.4l.083.352a.54.54 0 0 0 .284.363l2.086 1.204c.218.126.403.106.553-.06l.062-.069c.15-.166.114-.313-.104-.44zm2.89-.16c.143-.158.324-.174.543-.048l1.846 1.067c.22.126.408.102.565-.073l.062-.068c.142-.158.104-.3-.115-.427l-1.847-1.066c-.219-.127-.25-.277-.092-.452l.753-.835c.15-.167.334-.187.554-.06l1.846 1.067c.22.126.404.106.554-.06l.062-.069c.15-.166.115-.313-.104-.439l-2.586-1.493c-.219-.127-.403-.106-.553.06l-3.238 3.59a.424.424 0 0 0-.112.4l.083.352a.51.51 0 0 0 .274.375l2.085 1.205c.218.126.407.102.565-.073l.061-.068c.143-.158.104-.3-.115-.427l-1.846-1.067c-.22-.126-.25-.276-.093-.451l.849-.94zm14.06 4.372c.153-.17.12-.32-.099-.446l-.09-.052c-.22-.126-.405-.104-.56.066l-3.244 3.597a.424.424 0 0 0-.11.4l.083.352c.03.15.125.271.284.363l2.086 1.204c.218.126.403.107.553-.06l.062-.068c.15-.167.115-.313-.104-.44l-1.84-1.061c-.218-.126-.253-.273-.103-.44l3.081-3.415zm-5.12 2.617-1.848-1.066c-.219-.127-.25-.277-.093-.452l.85-.941c.142-.158.323-.173.542-.047l1.847 1.066c.218.126.407.102.564-.072l.062-.069c.142-.157.104-.3-.115-.426l-1.847-1.067c-.219-.126-.25-.276-.092-.451l.753-.836c.15-.166.334-.186.554-.06l1.847 1.067c.218.126.403.107.553-.06l.062-.068c.15-.166.115-.313-.104-.44l-2.586-1.492c-.219-.127-.403-.107-.553.06l-3.238 3.59a.422.422 0 0 0-.11.4l.082.352a.51.51 0 0 0 .273.376l2.085 1.204c.219.126.407.102.565-.073l.061-.068c.142-.158.104-.3-.115-.427zm.025-5.634c.124-.137.087-.263-.11-.377l-.099-.057c-.197-.113-.384-.108-.563.016l-4.187 2.872c-.175.12-.279.17-.312.151-.033-.018-.006-.113.081-.284l2.062-4.1c.09-.174.037-.319-.16-.433l-.09-.052a.48.48 0 0 0-.272-.072.299.299 0 0 0-.211.096.62.62 0 0 0-.057.09l-2.326 4.725c-.082.174-.027.316.165.427l.599.346c.197.114.383.11.558-.01l4.846-3.269a.385.385 0 0 0 .076-.07z" fill="#FAFAFA"/><path d="M293.684 174.965c0 1.072-.753 2.375-1.68 2.911l-1.37.79c-.838.485-2.144.532-3.074.141.792.3 1.394-.152 1.394-1.111V67.399c0-.536-.188-1.13-.492-1.656l4.73-2.73c.304.526.492 1.12.492 1.655v110.297z" fill="#BA68C8"/><path d="M293.684 174.965c0 1.072-.753 2.375-1.68 2.911l-1.37.79c-.838.485-2.144.532-3.074.141.792.3 1.394-.152 1.394-1.111V67.399c0-.536-.188-1.13-.492-1.656l4.73-2.73c.304.526.492 1.12.492 1.655v110.297z" fill="#FFF" fill-opacity=".298"/><path d="M287.512 178.338c.076.046.144.08.22.108l-.016-.002c.021.004.042.01.063.017.092.03.178.046.255.046.391 0 .45-.455.45-.727V67.482c0-.43-.157-.947-.43-1.416-.26-.47-.627-.862-1.01-1.085l-94.462-54.56c-.189-.109-.368-.166-.515-.166-.084 0-.306 0-.404.37a1.617 1.617 0 0 0-.042.354v110.297c0 1.035 0 1.66 1.281 2.384l94.61 54.678z" fill="#FAFAFA"/><path d="M192.125 10.654c.046.011.12.037.222.095l94.461 54.56c.303.176.613.511.824.893.239.411.375.851.375 1.195v110.297a.86.86 0 0 1-.029.244.507.507 0 0 1-.047-.013l-.032-.01-.004-.002a.698.698 0 0 1-.13-.064l-94.62-54.684c-1.048-.593-1.048-.997-1.048-1.974V10.894c0-.075.01-.157.028-.24zm-.057-.96c-.423 0-.741.259-.865.724a2.086 2.086 0 0 0-.058.476v110.297c0 1.076.01 1.942 1.523 2.798l94.607 54.676c.095.057.19.104.295.142.019.01.038.02.057.02.143.048.279.071.406.071.55 0 .927-.438.927-1.204V67.397c0-.533-.19-1.132-.495-1.656-.295-.533-.724-.99-1.18-1.256L192.82 9.924c-.271-.156-.526-.23-.752-.23z" fill="#BA68C8"/><path d="M191.198 10.415c.196-.714.847-.941 1.623-.494l94.46 54.564c.461.267.885.722 1.183 1.254l4.728-2.729c-.306-.533-.721-.987-1.184-1.254l-94.45-54.564c-.934-.533-2.44-.533-3.365 0l-1.372.792c-.792.455-1.458 1.474-1.623 2.431z" fill="#BA68C8"/><path d="M191.198 10.415c.196-.714.847-.941 1.623-.494l94.46 54.564c.461.267.885.722 1.183 1.254l4.728-2.729c-.306-.533-.721-.987-1.184-1.254l-94.45-54.564c-.934-.533-2.44-.533-3.365 0l-1.372.792c-.792.455-1.458 1.474-1.623 2.431z" fill="#FFF" fill-opacity=".6"/><path d="M195.81 95.363c.19 4.27.92 8.681 2.092 13.114l10.361 1.62 7.732-4.955c-.774-3.041-1.28-6.066-1.41-8.997-.13-2.932.124-5.562.658-7.923l-10.703-9.324-7.732 4.955c-.825 3.395-1.188 7.239-.998 11.51z" fill="#BA68C8"/><path d="M195.81 95.363c.19 4.27.92 8.681 2.092 13.114l10.361 1.62 7.732-4.955c-.774-3.041-1.28-6.066-1.41-8.997-.13-2.932.124-5.562.658-7.923l-10.703-9.324-7.732 4.955c-.825 3.395-1.188 7.239-.998 11.51z" fill="#FFF" fill-opacity=".498"/><path d="m196.787 83.876 10.703 9.323 7.752-4.977-10.703-9.324-7.752 4.978z" fill="#BA68C8"/><path d="m196.787 83.876 10.703 9.323 7.752-4.977-10.703-9.324-7.752 4.978z" fill="#FFF" fill-opacity=".247"/><path d="M206.832 101.122c.131 2.931.637 5.956 1.41 8.997l-10.36-1.619c-1.173-4.433-1.903-8.844-2.093-13.115-.19-4.27.173-8.114.998-11.51L207.49 93.2c-.534 2.36-.788 4.99-.658 7.922z" fill="#BA68C8"/><path d="M206.832 101.122c.131 2.931.637 5.956 1.41 8.997l-10.36-1.619c-1.173-4.433-1.903-8.844-2.093-13.115-.19-4.27.173-8.114.998-11.51L207.49 93.2c-.534 2.36-.788 4.99-.658 7.922z" fill="#FFF" fill-opacity=".749"/><path d="m205.954 69.899 7.736-4.958c-.079.05-.154.105-.232.157a18.713 18.713 0 0 1 3.767-1.93l6.948 13.448c-3.781 1.522-6.639 4.649-8.227 9.109l-7.736 4.958-10.72-9.338c1.72-5.114 4.64-8.986 8.464-11.446z" fill="#BA68C8"/><path d="m205.954 69.899 7.736-4.958c-.079.05-.154.105-.232.157a18.713 18.713 0 0 1 3.767-1.93l6.948 13.448c-3.781 1.522-6.639 4.649-8.227 9.109l-7.736 4.958-10.72-9.338c1.72-5.114 4.64-8.986 8.464-11.446z" fill="#FFF" fill-opacity=".298"/><path d="m208.21 90.683-10.72-9.338c2.218-6.592 6.427-11.122 11.999-13.22l6.947 13.449c-3.78 1.522-6.638 4.65-8.226 9.109z" fill="#BA68C8"/><path d="m208.21 90.683-10.72-9.338c2.218-6.592 6.427-11.122 11.999-13.22l6.947 13.449c-3.78 1.522-6.638 4.65-8.226 9.109z" fill="#FFF" fill-opacity=".498"/><path d="m216.436 81.573-6.947-13.447 7.737-4.958 6.947 13.448-7.737 4.957z" fill="#BA68C8"/><path d="m216.436 81.573-6.947-13.447 7.737-4.958 6.947 13.448-7.737 4.957z" fill="#FFF" fill-opacity=".149"/><path d="M264.12 130.879c-.13-2.933-.635-5.96-1.41-9.002l10.366 1.62c1.174 4.436 1.904 8.85 2.094 13.122.19 4.274-.173 8.12-.998 11.517l-10.71-9.33c.535-2.363.79-4.994.659-7.927z" fill="#BA68C8"/><path d="M264.12 130.879c-.13-2.933-.635-5.96-1.41-9.002l10.366 1.62c1.174 4.436 1.904 8.85 2.094 13.122.19 4.274-.173 8.12-.998 11.517l-10.71-9.33c.535-2.363.79-4.994.659-7.927z" fill-opacity=".4"/><path d="m270.446 116.92 10.366 1.62-7.736 4.957-10.366-1.62 7.736-4.958z" fill="#BA68C8"/><path d="m270.446 116.92 10.366 1.62-7.736 4.957-10.366-1.62 7.736-4.958z" fill-opacity=".298"/><path d="m273.076 123.497 7.736-4.958c1.174 4.436 1.904 8.85 2.094 13.122.19 4.274-.173 8.12-.998 11.517l-7.736 4.957c.825-3.397 1.188-7.243.998-11.516-.19-4.273-.92-8.686-2.094-13.122z" fill="#BA68C8"/><path d="m273.076 123.497 7.736-4.958c1.174 4.436 1.904 8.85 2.094 13.122.19 4.274-.173 8.12-.998 11.517l-7.736 4.957c.825-3.397 1.188-7.243.998-11.516-.19-4.273-.92-8.686-2.094-13.122z" fill-opacity=".498"/><path d="m218.595 80.905-6.968-13.488c6.007-1.482 13.135-.294 20.482 3.232l.554 12.45c-5.04-2.344-9.905-3.125-14.068-2.194z" fill="#BA68C8"/><path d="m218.595 80.905-6.968-13.488c6.007-1.482 13.135-.294 20.482 3.232l.554 12.45c-5.04-2.344-9.905-3.125-14.068-2.194z" fill="#FFF" fill-opacity=".298"/><path d="m239.846 65.692.553 12.449-7.736 4.958-.554-12.45 7.737-4.957z" fill="#BA68C8"/><path d="m239.846 65.692.553 12.449-7.736 4.958-.554-12.45 7.737-4.957z" fill-opacity=".149"/><path d="M232.11 70.65c-7.348-3.526-14.476-4.715-20.483-3.232l7.736-4.958c6.008-1.482 13.136-.294 20.483 3.232l-7.737 4.958zm3.316 13.894-.555-12.478c7.7 4.292 14.966 10.762 21.15 18.427l-6.057 6.702c-4.284-5.225-9.263-9.632-14.538-12.65z" fill="#BA68C8"/><path d="m235.426 84.544-.555-12.478c7.7 4.292 14.966 10.762 21.15 18.427l-6.057 6.702c-4.284-5.225-9.263-9.632-14.538-12.65z" fill="#BA68C8"/><path d="M242.607 67.108c7.701 4.292 14.967 10.762 21.151 18.428l-7.736 4.958c-6.185-7.666-13.45-14.136-21.151-18.428l7.736-4.958z" fill="#BA68C8"/><path d="M242.607 67.108c7.701 4.292 14.967 10.762 21.151 18.428l-7.736 4.958c-6.185-7.666-13.45-14.136-21.151-18.428l7.736-4.958z" fill-opacity=".149"/><path d="m256.022 90.494 7.736-4.958-6.058 6.702-7.737 4.957 6.059-6.701z" fill="#BA68C8"/><path d="m256.022 90.494 7.736-4.958-6.058 6.702-7.737 4.957 6.059-6.701z" fill-opacity=".247"/><path d="m252.277 100.185 6.053-6.694c6.026 8.124 10.847 17.345 13.77 26.606l-10.377-1.622c-2.07-6.36-5.346-12.673-9.446-18.29z" fill="#BA68C8"/><path d="m252.277 100.185 6.053-6.694c6.026 8.124 10.847 17.345 13.77 26.606l-10.377-1.622c-2.07-6.36-5.346-12.673-9.446-18.29z" fill-opacity=".2"/><path d="M272.099 120.097c-2.923-9.261-7.743-18.482-13.77-26.606l7.736-4.959c6.026 8.125 10.848 17.346 13.77 26.607l-7.736 4.958z" fill="#BA68C8"/><path d="M272.099 120.097c-2.923-9.261-7.743-18.482-13.77-26.606l7.736-4.959c6.026 8.125 10.848 17.346 13.77 26.607l-7.736 4.958z" fill-opacity=".349"/><path d="M242.16 125.19c1.14-.658 1.846-2.07 1.846-4.08 0-4.02-2.823-8.908-6.304-10.92-1.74-1.004-3.317-1.099-4.458-.44-.773.446-4.888 2.844-5.662 3.29-1.14.66-1.846 2.071-1.846 4.081 0 4.021 2.823 8.91 6.304 10.919 1.741 1.005 3.317 1.1 4.458.442.773-.447 4.888-2.845 5.662-3.292z" fill="#37474F"/><path d="M225.736 117.122c0-2.01.705-3.422 1.846-4.081 1.141-.659 2.717-.563 4.458.442 3.481 2.01 6.304 6.898 6.304 10.918 0 2.01-.706 3.423-1.846 4.081-1.141.659-2.717.564-4.458-.441-3.481-2.01-6.304-6.9-6.304-10.92z" fill="#455A64"/><path d="M203.865 122.654a.402.402 0 0 1 .15.184c.041.089.063.178.063.267v1.289c0 .089-.022.154-.064.194-.041.041-.092.044-.15.01l-3.656-2.11a.399.399 0 0 1-.15-.184.624.624 0 0 1-.063-.268v-7.854c0-.09.021-.154.063-.195.042-.04.092-.044.15-.01l1.035.597a.408.408 0 0 1 .15.184c.042.09.063.179.063.268v6.237l2.409 1.39zm.631-3.027c.016-.445.08-.836.194-1.172.113-.335.273-.59.481-.767.208-.175.461-.264.759-.267.297-.003.64.109 1.03.334.388.225.735.514 1.027.854.3.348.556.733.762 1.145.207.416.368.857.481 1.324.114.466.178.931.194 1.394.021.722.021 1.443 0 2.165-.016.444-.08.834-.194 1.17-.113.336-.273.594-.481.774-.208.18-.462.268-.762.266-.3-.004-.643-.117-1.027-.338a4.025 4.025 0 0 1-1.03-.85 5.328 5.328 0 0 1-.759-1.143c-.209-.424-.37-.87-.481-1.33a6.856 6.856 0 0 1-.194-1.394 35.576 35.576 0 0 1 0-2.165zm3.467 4.104.016-.477c.01-.362.01-.725 0-1.088-.006-.177-.01-.337-.016-.477a3.492 3.492 0 0 0-.083-.608 2.71 2.71 0 0 0-.19-.553c-.08-.17-.182-.33-.303-.473a1.63 1.63 0 0 0-.427-.356c-.163-.094-.305-.14-.426-.137a.438.438 0 0 0-.304.122.763.763 0 0 0-.19.335 2.087 2.087 0 0 0-.082.511 6.824 6.824 0 0 0-.02.457c-.005.362-.005.725 0 1.088.003.18.01.346.02.498.02.417.112.806.272 1.166.161.36.404.635.731.823.327.188.569.195.727.018.157-.175.25-.458.275-.849zm6.144 2.708.505-3.817c.016-.112.048-.18.096-.2.047-.022.097-.018.149.013l1.035.598a.323.323 0 0 1 .122.15.51.51 0 0 1 .044.31l-1.02 7.096a.327.327 0 0 1-.125.243c-.074.055-.163.052-.269-.01l-.655-.378a.662.662 0 0 1-.257-.294 1.678 1.678 0 0 1-.138-.396l-.592-3.089-.593 2.406a.468.468 0 0 1-.138.236c-.066.06-.151.058-.257-.002l-.655-.379a.722.722 0 0 1-.268-.3 1.029 1.029 0 0 1-.127-.39l-1.018-8.271a.937.937 0 0 1-.009-.102c0-.073.017-.126.052-.159.034-.033.075-.035.122-.009l1.035.598c.052.03.102.083.15.16.048.075.079.179.095.31l.505 4.4.466-1.932c.01-.05.034-.11.072-.177.036-.069.102-.075.197-.02l.742.428a.433.433 0 0 1 .198.248c.036.11.06.197.07.26l.466 2.47zm50.92 24.956a.407.407 0 0 1 .15.184c.043.09.064.178.064.267v7.855c0 .089-.021.154-.063.194-.043.04-.092.044-.15.01l-1.035-.596a.4.4 0 0 1-.15-.185.623.623 0 0 1-.063-.267v-2.979l-1.754-1.012v2.98c0 .088-.02.153-.063.193-.042.04-.092.044-.15.01l-1.034-.596a.404.404 0 0 1-.15-.178.612.612 0 0 1-.063-.274v-7.853c0-.09.021-.154.063-.195.042-.04.092-.044.15-.01l1.035.597a.404.404 0 0 1 .15.184.62.62 0 0 1 .062.267v2.93l1.754 1.013v-2.93c0-.09.02-.154.063-.195.042-.04.092-.044.15-.01l1.034.596zm1.533 9.395a.405.405 0 0 1-.15-.184.624.624 0 0 1-.064-.268v-7.853c0-.09.022-.155.064-.195.042-.04.092-.044.15-.01l1.034.597a.399.399 0 0 1 .15.183c.042.09.064.18.064.268v7.854c0 .09-.022.154-.064.195-.042.04-.092.044-.15.01l-1.034-.597zm4.619-4.02c-.179-.103-.329-.151-.45-.144a.41.41 0 0 0-.295.14.809.809 0 0 0-.17.351 3.252 3.252 0 0 0-.08.49c-.012.141-.019.284-.019.426-.002.185-.004.377-.004.576a23.55 23.55 0 0 0 .024 1.041c.01.192.035.385.075.578.04.193.098.376.174.55.076.174.176.335.3.483.123.149.272.273.446.373.137.08.266.13.387.151.108.023.22.006.316-.05a.54.54 0 0 0 .213-.29c.053-.14.08-.33.08-.574l-.665-.383a.403.403 0 0 1-.15-.184.625.625 0 0 1-.062-.268v-1.288c0-.09.02-.154.062-.195.042-.04.093-.044.15-.01l1.911 1.103a.4.4 0 0 1 .15.184c.043.09.064.179.064.268v1.556c0 .519-.063.949-.19 1.289-.126.34-.3.59-.52.75-.221.161-.481.232-.778.214-.298-.018-.62-.127-.968-.328a3.913 3.913 0 0 1-1.015-.847c-.3-.35-.556-.737-.762-1.15a6.316 6.316 0 0 1-.486-1.333 6.857 6.857 0 0 1-.193-1.382 35.038 35.038 0 0 1 0-2.164c.01-.44.074-.827.19-1.161.115-.335.277-.592.485-.772.208-.18.462-.27.762-.27.3-.002.64.107 1.018.326.375.218.711.496.996.823.288.327.539.685.75 1.066.206.374.365.746.481 1.117.116.37.18.697.19.979.005.075-.011.13-.048.16-.037.033-.078.035-.126.007l-1.05-.606a.46.46 0 0 1-.186-.217 27.23 27.23 0 0 1-.13-.294 3.204 3.204 0 0 0-.3-.575 1.659 1.659 0 0 0-.577-.516zm7.81 2.685a.404.404 0 0 1 .15.185c.042.09.063.178.063.267v7.854c0 .09-.021.154-.063.195-.042.04-.093.044-.15.01l-1.035-.597a.406.406 0 0 1-.15-.184.616.616 0 0 1-.063-.267v-2.98l-1.753-1.012v2.98c0 .088-.022.153-.064.194-.042.04-.092.044-.15.01l-1.034-.597a.404.404 0 0 1-.15-.178.612.612 0 0 1-.064-.274v-7.854c0-.089.022-.154.064-.194.042-.04.092-.044.15-.011l1.035.597a.402.402 0 0 1 .15.184c.041.09.063.179.063.268v2.93l1.753 1.013v-2.93c0-.09.02-.155.063-.195.042-.04.092-.044.15-.01l1.034.596zM229.128 53.24a2.19 2.19 0 0 1-.107-.262l-.742-2.435v4.025c0 .089-.021.154-.064.194-.042.041-.092.044-.149.011l-1.035-.597a.396.396 0 0 1-.15-.184.624.624 0 0 1-.063-.268V45.87c0-.09.021-.154.063-.195.042-.04.093-.044.15-.01l.916.529c.105.06.185.15.237.27a3.2 3.2 0 0 1 .103.254l1.278 4.106 1.28-2.63a.756.756 0 0 1 .102-.134c.053-.059.132-.058.237.003l.916.529a.407.407 0 0 1 .15.184c.042.089.063.178.063.267v7.854c0 .09-.02.155-.063.195-.042.041-.093.044-.15.01l-1.035-.597a.4.4 0 0 1-.15-.183.623.623 0 0 1-.063-.268V52.03l-.742 1.578a.54.54 0 0 1-.107.139c-.045.043-.106.042-.185-.004l-.506-.292a.467.467 0 0 1-.184-.211zm8.248 4.962a.402.402 0 0 1 .15.184c.042.09.063.178.063.267v1.289c0 .089-.021.154-.063.194-.042.041-.092.044-.15.011l-3.743-2.16a.396.396 0 0 1-.15-.185.624.624 0 0 1-.064-.267V49.68c0-.089.022-.153.064-.194.042-.04.092-.044.15-.011l3.679 2.124a.4.4 0 0 1 .15.185c.042.089.063.178.063.267v1.29c0 .088-.02.153-.063.193-.041.041-.092.044-.15.011l-2.432-1.404v1.313l2.259 1.304a.402.402 0 0 1 .15.184c.042.09.062.178.062.268v1.288c0 .09-.02.154-.063.195-.041.04-.092.044-.15.01l-2.258-1.304v1.362l2.496 1.44zm3.427-4.586c.363.21.695.484.994.823.307.349.568.735.778 1.148.219.426.39.884.513 1.373.124.49.194.985.21 1.488.004.174.007.332.007.473v.809c0 .137-.003.286-.008.445-.015.494-.084.912-.205 1.256-.121.343-.288.603-.502.78a1.131 1.131 0 0 1-.762.26c-.295-.004-.624-.112-.987-.321l-2.132-1.232a.396.396 0 0 1-.15-.184.624.624 0 0 1-.063-.268v-7.853c0-.09.021-.154.063-.195.042-.04.092-.044.15-.01l2.094 1.208zm1.034 3.94c-.031-.95-.389-1.623-1.074-2.018l-.805-.466v4.62l.845.488c.663.383 1.008.116 1.034-.8.006-.168.009-.326.009-.476v-.87c0-.159-.004-.318-.009-.478zm2.583 6.658a.396.396 0 0 1-.15-.184.624.624 0 0 1-.064-.268v-7.854c0-.089.022-.153.064-.194.042-.041.092-.045.15-.011l1.034.598a.402.402 0 0 1 .15.184c.042.089.064.178.064.267v7.854c0 .09-.022.154-.064.194-.042.041-.092.044-.15.011l-1.034-.597zm6.886-4.535a.402.402 0 0 1 .15.184c.042.09.063.178.063.268v4.85c0 .56-.058 1.021-.174 1.384-.116.363-.28.628-.493.797a1.065 1.065 0 0 1-.762.222c-.295-.02-.62-.132-.971-.336a4.14 4.14 0 0 1-.98-.79c-.301-.33-.556-.7-.757-1.1a5.976 5.976 0 0 1-.49-1.365 6.957 6.957 0 0 1-.174-1.583v-4.851c0-.09.021-.154.063-.195.042-.04.092-.044.15-.01l1.035.597a.404.404 0 0 1 .15.184c.042.089.063.178.063.267v4.803c0 .486.077.912.233 1.277.155.365.39.639.707.822.316.182.552.18.707-.006.155-.185.232-.522.232-1.008v-4.803c0-.089.021-.154.064-.194.042-.04.091-.045.15-.011l1.034.597zm3.573 8.428a2.224 2.224 0 0 1-.106-.262l-.743-2.435v4.024c0 .09-.02.154-.063.195-.042.04-.092.044-.15.01l-1.034-.597a.396.396 0 0 1-.15-.184.624.624 0 0 1-.064-.268v-7.854c0-.089.022-.153.064-.194.042-.04.092-.044.15-.011l.916.529c.105.06.184.151.236.27.053.12.087.205.103.254l1.279 4.106 1.28-2.629a.72.72 0 0 1 .101-.135c.053-.06.133-.058.237.003l.916.529a.403.403 0 0 1 .15.184c.043.089.064.178.064.267v7.854c0 .089-.021.154-.063.195-.043.04-.093.044-.15.01l-1.035-.597a.4.4 0 0 1-.15-.184.623.623 0 0 1-.063-.267v-4.025l-.742 1.578a.563.563 0 0 1-.107.138c-.045.043-.107.042-.185-.003l-.506-.292a.45.45 0 0 1-.185-.21z" fill="#37474F"/><path d="m202.01 96.399-.998.575 42.102 36.606.996-.575 3.093-3.896-45.194-32.71z" fill="#BA68C8"/><path d="m202.01 96.399-.998.575 42.102 36.606.996-.575 3.093-3.896-45.194-32.71z" fill-opacity=".2"/><path d="m246.206 129.684.997-.575-3.093 3.896-.996.575 3.092-3.896z" fill-opacity=".2"/><path d="m201.012 96.974 42.102 36.606 3.092-3.896-45.194-32.71z" fill="#BA68C8"/><path d="M232.292 122.958c.232-.134.376-.422.376-.831 0-.82-.575-1.815-1.284-2.224-.355-.205-.675-.225-.908-.09-.158.09-.996.58-1.153.67-.233.134-.377.422-.377.83 0 .82.575 1.815 1.285 2.225.354.205.675.224.908.09.157-.09.995-.579 1.153-.67z" fill="#263238"/><path d="M228.946 121.314c0-.409.144-.697.377-.831.232-.134.553-.115.908.09.709.41 1.284 1.405 1.284 2.224 0 .41-.144.697-.376.831-.233.135-.554.115-.908-.09-.71-.409-1.285-1.405-1.285-2.224z" fill="#37474F"/><path d="m123.525 218.436 2.07-1.006-2.035-.586-.035 1.592z" fill="#263238"/><path d="M143.991 222.405s-24.307-11.235-24.62-9.584a2.46 2.46 0 0 0 .005.994c-.021-.03-.046-.06-.065-.09l.43 3.087s1.733 1.508 3.784 1.624l.036-1.59c.75.315 1.468.705 2.143 1.162 1.555 1.051 2.548 2.877 4.193 5.002 1.199 1.549 3.348 2.282 6.538 2.76 3.433.515 6.465-.128 7.325-1.05.685-.735.354-2.1.231-2.315z" fill="#263238"/><path d="M143.322 221.83c-.233-.25-1.096-1.22-2.266-2.278-1.023-.925-2.214-2.094-3.498-3.04-.512-.377-1.298-.98-1.737-1.462-.424-.46-.825-.942-1.202-1.442-1.165-1.559-2.11-3.27-2.91-5.041-.378-.841-.848-1.733-1.008-2.645a16.948 16.948 0 0 1-.27-2.93c-.001-4.425.1-5.127.141-8.496l-10.305.272c.327 1.869.823 4.423.987 6.546.25 3.228.33 3.946-.942 7.156-.375.945-.931 1.853-.985 2.868-.089 1.65 1.19 3.084 2.626 3.901 1.19.678 2.564.974 3.718 1.695 1.214.759 2.154 1.897 3.015 3.02.814 1.062 1.464 2.314 2.61 3.065 1.271.831 2.486 1.096 3.963 1.408 1.7.36 3.881.412 5.334.308 2.533-.183 4.424-1.095 2.73-2.906z" fill="#FFA8A7"/><path d="M141.936 220.018c-1.045-.897-2.525-2.18-4.313-3.624-.4-.209-2.006-.605-3.785.32-3.636 1.891-4.271 4.6-4.271 4.6s.765 1.84 2.939 2.623c4.172 1.868 11.666 1.335 11.752-.603.055-1.235-1.054-2.229-2.322-3.316zm-21.388-12.246s-.248.634-.896 1.878c-.648 1.243-.776 2.486.011 3.739 1.041 1.657 2.332 2.173 3.652 2.532 1.187-3.67-1.319-7.344-2.767-8.15z" fill="#37474F"/><path d="M101.528 212.654c.691 1.11-.204 5.293-.047 8.27.143 2.706.864 7.422.033 10.094-.985 3.168-2.988 6.843-6.71 3.876-2.308-1.84-3.63-4.217-3.946-8.111-.218-2.707.862-6.45 1.79-9.772 1.082-3.878 1.495-5.952 1.495-5.952l7.385 1.595z" fill="#263238"/><path d="M93.885 192.697c-.266 6.31.468 10.742.51 14.784-.042 1.882-.166 3.47-.575 5.458-.53 2.578-1.43 6.163-1.808 7.835-.529 2.335-.929 3.807-.122 6.426.063.203.158.399.264.59 1.127 2.159 3.992 3.79 4.91 3.528.257.426.907.682 1.614.564a2.12 2.12 0 0 0 .61-.198c.61-.3 1.19-.918 1.526-1.984.056-.177.106-.368.147-.571.667-3.251.183-5.352.12-6.623-.071-1.468.014-3.336.143-5.704.13-2.367.693-9.802 1.516-13.356.741-3.012 1.445-5.896 2.175-8.911l-11.03-1.838z" fill="#FFA8A7"/><path d="M91.454 223.814c2.26-.997 8.812-1.137 9.856 2.053.027 3.003.045 5.038-1.851 7.652-2.52 3.472-5.808-.21-7.069-2.547-1.26-2.337-1.244-5.54-.936-7.158z" fill="#37474F"/><path d="M102.429 110.269c-3.192 5.722-5.767 10.544-6.598 25.66-.938 17.057-.798 23.554-.88 25.612-.082 2.06-1.409 5.835-2.535 15.972-1.127 10.137.06 34.715.06 34.715s.797 1.656 4.674 2.032c3.576.347 5.676-.909 5.676-.909s5.685-32.27 7.086-38.371c1.402-6.1 5.492-26.164 5.492-26.164l2.222 16.313s-1.133 5.59-.106 14.495c1.026 8.904 3.033 26.862 3.033 26.862s2.377 1.06 5.42 1.4c3.455.386 6.011-.694 6.011-.694s3.007-36.25 3.08-46.333c.075-10.084-.703-35.247-3.768-50.2l-28.867-.39z" fill="#455A64"/><path d="m118.74 129.448-3.336 19.368 2.222 16.313-.874-16.522 2.97-15.89c2.436-.565 7.99-3.44 9.541-7.594-3.776 3.893-10.522 4.325-10.522 4.325zM107.46 118.03c.439-1.634.915-3.257 1.427-4.87-.926 1.44-1.625 3.015-2.222 4.614-.603 1.6-1.078 3.243-1.495 4.896a51.755 51.755 0 0 0-.96 5.02c-.237 1.686-.4 3.389-.374 5.1.419-1.656.81-3.3 1.198-4.945.397-1.642.77-3.287 1.18-4.92.395-1.637.81-3.269 1.246-4.895zm-2.433-1.239c.556-.99 1.115-1.984 1.627-3.03-.867.778-1.627 1.652-2.326 2.571a24.933 24.933 0 0 0-1.897 2.9c-.553 1.016-1.056 2.063-1.446 3.157-.394 1.09-.7 2.22-.806 3.381l1.574-3.042c.533-.997 1.061-1.993 1.617-2.975.539-.992 1.107-1.968 1.657-2.962zm-2.497 64.734a615.748 615.748 0 0 0-2.745 15.77 615.637 615.637 0 0 0 3.567-15.603 1110.584 1110.584 0 0 0 3.272-15.67c.997-5.261 1.685-10.566 2.238-15.875.565-5.31.988-10.628 1.348-15.954-.773 5.281-1.474 10.57-2.178 15.854-.722 5.28-1.453 10.556-2.464 15.773a1141.939 1141.939 0 0 0-3.038 15.705zm27.768-26.325c.09 2.313.21 4.64.155 6.927-.064 2.297-.223 4.623-.356 6.937l-.402 6.955c-.271 4.637-.49 9.28-.654 13.927.58-4.612 1.078-9.235 1.49-13.866.415-4.634.804-9.25.995-13.928.02-4.701-.345-9.322-.726-13.963-.397-4.633-.92-9.257-1.603-13.858l.768 13.916c.112 2.319.244 4.636.333 6.953z" fill="#37474F"/><path d="M104.306 53.197c-3.117 1.982-3.036 4.77-3.054 11.535-.018 6.765.41 25.228.41 25.228l24.229-.14-.164-28.124s2.218-3.15 1.927-6.375c-.29-3.225-2.246-7.41-8.064-8.612-4.847-1-14.106.078-15.284 6.488z" fill="#263238"/><path d="M122.543 78.009c5.68.98 6.524 1.793 9.56 5.205 3.782 4.249 4.662 5.25 10.2 10.869l17.248-5.494v9.262s-12.128 5.752-16.187 7.122c-3.036 1.026-4.759-.382-7.144-2.583-3.655-3.373-11.045-10.327-11.045-10.327l-2.632-14.054z" fill="#BA68C8"/><path d="M122.543 78.009c5.68.98 6.524 1.793 9.56 5.205 3.782 4.249 4.662 5.25 10.2 10.869l17.248-5.494v9.262s-12.128 5.752-16.187 7.122c-3.036 1.026-4.759-.382-7.144-2.583-3.655-3.373-11.045-10.327-11.045-10.327l-2.632-14.054z" fill-opacity=".149"/><path d="m164.098 76.506.016-.003-.976-.476.003.01c-.218-.096-.508-.067-.842.125l-21.734 12.605c-.74.428-1.393 1.467-1.458 2.321l-1.476 19.527c-.034.452.107.757.356.883l-.007.005 1.008.49-.004-.01c.218.102.513.074.852-.121l21.733-12.605c.742-.428 1.395-1.467 1.459-2.32.289-3.838 1.187-15.69 1.476-19.529.035-.48-.128-.792-.406-.902z" fill="#455A64"/><path d="M140.738 89.988c-.356.473-.612 1.063-.653 1.579l-1.48 19.522c-.027.437.095.741.324.875l-.946-.458.005-.01c-.252-.127-.39-.427-.359-.882l1.478-19.53c.033-.48.268-1.022.593-1.487l1.038.391z" fill="#263238"/><path d="m138.61 111.091 1.476-19.527c.064-.854.717-1.892 1.458-2.32l21.734-12.605c.74-.428 1.29-.084 1.225.77-.288 3.837-1.187 15.689-1.475 19.527-.065.853-.718 1.892-1.46 2.32l-21.733 12.605c-.74.429-1.29.084-1.225-.77z" fill="#37474F"/><path d="m141.088 95.313.276-3.655a.614.614 0 0 1 .273-.434l1.496-.865c.14-.08.242-.016.23.144l-.276 3.655a.614.614 0 0 1-.273.434l-1.497.865c-.139.08-.241.016-.23-.144z" fill="#455A64"/><path d="M141.655 92.438c.03-.388.344-.872.702-1.079.359-.207.626-.059.596.33-.03.388-.345.871-.703 1.078-.358.207-.625.06-.595-.329zm-.119 1.839c.03-.39.345-.872.703-1.08.358-.206.625-.059.595.33-.03.389-.344.872-.702 1.08-.359.206-.625.059-.596-.33z" fill="#263238"/><path d="M165.248 88.706c.586-1.268.483-1.402-.058-1.889-.541-.486-1.688-1.239-3.138-.917-.975.217-1.97.388-2.425.746-.456.357.178 1.339 1.511 1.38 2.1.067 2.192.616 2.192.616s-1.934-.058-2.687.042c-.753.101-2.044.716-2.867 1.012-.824.297-.782 1.424.73 1.526l-1.509.547c-1.055.383-1.315 1.034-.33 1.544.234.12.55.252 1.056.182 0 0-1.16.22-1.11.611.143 1.12.915 1.272 3.39 1.504 2.36.221 3.05 1.337 2.765 2.252 0 0 .8-.697 1.496-1.405.51-.518.92-1.07.48-1.935 0 0 1.282-.22 1.21-1.025-.074-.805-.634-1.635-.634-1.635s.68-.513.453-1.445c-.225-.932-.73-1.3-.73-1.3l.205-.41z" fill="#FFA8A7"/><path d="M158.506 91.222c.455-.16.876-.347 1.383-.423.524-.053.992.077 1.451.172.922.22 1.836.471 2.718.847-.96-.052-1.887-.23-2.807-.438-.46-.105-.917-.241-1.343-.256-.436.012-.927.098-1.402.098zm-.783 2.272a3.171 3.171 0 0 1 1.52-.339c.526 0 1.04.084 1.544.18 1.005.214 1.99.496 2.935.915-1.028-.097-2.025-.305-3.018-.503-.995-.196-1.958-.428-2.98-.253z" fill="#F28F8F"/><path d="M98.21 117.876c-3.063-1.443.288-3.465.956-12.838.172-2.416-.64-8.405-.64-8.405s5.325-6.143 3.912-17.807l10.442-1.388 6.802.052 4.327 1.286c1.465 1.315 4.154 3.395 6.287 6.547 3.077 4.548 3.542 9.492.222 13.108-.05.715.414 11.68 1.31 14.358.83 2.489 1.007 2.769-.331 3.88-4.218 3.072-27.863 3.29-33.287 1.207z" fill="#FAFAFA"/><path d="m119.682 77.49 4.327.743c4.103 3.24 8.945 9.03 9.13 13.412.186 4.382-.764 7.332-.764 7.332s-.468 9.073.45 13.793c.918 4.719 3.077 16.145 3.077 16.145s-2.347 2.413-5.855 3.317c-.94-6.05-3.116-28.889-2.856-34.194.26-5.305.536-13.685-7.51-20.548z" fill="#BA68C8"/><path d="m119.682 77.49 4.327.743c4.103 3.24 8.945 9.03 9.13 13.412.186 4.382-.764 7.332-.764 7.332s-.468 9.073.45 13.793c.918 4.719 3.077 16.145 3.077 16.145s-2.347 2.413-5.855 3.317c-.94-6.05-3.116-28.889-2.856-34.194.26-5.305.536-13.685-7.51-20.548z" fill-opacity=".298"/><path d="M127.792 100.525c.373-1.402.782-2.794 1.195-4.183.419-1.387.81-2.783 1.187-4.176.18-.697.357-1.402.443-2.097.12-.661-.34-1.226-.798-1.758-.951-1.045-2.104-1.943-3.276-2.76l-.109-.077.027-.13c.15-.74.143-1.54.04-2.303a5.988 5.988 0 0 0-.754-2.184c-.416-.652-.975-1.22-1.596-1.704a10.993 10.993 0 0 0-2.023-1.244c.745.283 1.456.66 2.115 1.118a6.46 6.46 0 0 1 1.726 1.687c.444.691.73 1.467.876 2.27.145.81.143 1.64-.005 2.448l-.082-.206c1.207.828 2.383 1.698 3.383 2.8.247.279.477.579.662.92.054.08.082.18.121.272.037.094.078.184.086.295.048.22.023.409.009.6-.101.745-.289 1.447-.478 2.151-.384 1.405-.859 2.777-1.317 4.153-.463 1.375-.954 2.738-1.432 4.108z" fill-opacity=".2"/><path d="M108.16 77.962s1.774 2.388 4.074 7.964c2.3 5.575 4.525 10.647 4.374 15.764-.15 5.116-2.378 34.522-2.378 34.522s-6.148 1.065-14.105 0l.664-9.647-3.12 9.418s-.203.754-3.798-.767c2.074-8.435 4.058-21.757 4.334-26.812.277-5.055.768-29.185.768-29.185l9.186-1.257z" fill="#BA68C8"/><path d="M108.16 77.962s1.774 2.388 4.074 7.964c2.3 5.575 4.525 10.647 4.374 15.764-.15 5.116-2.378 34.522-2.378 34.522s-6.148 1.065-14.105 0l.664-9.647-3.12 9.418s-.203.754-3.798-.767c2.074-8.435 4.058-21.757 4.334-26.812.277-5.055.768-29.185.768-29.185l9.186-1.257z" fill-opacity=".298"/><path d="M115.608 103.193c-.382-1.323-1.142-2.478-1.942-3.578-.799-1.106-1.679-2.153-2.582-3.177-.445-.52-.901-1.03-1.36-1.538l-.69-.764c-.116-.135-.228-.252-.347-.404-.03-.042-.058-.06-.09-.122a1.845 1.845 0 0 1-.082-.196c-.035-.126-.025-.232-.03-.345.105-.795.444-1.397.758-2.026.337-.608.701-1.201 1.092-1.777l.027.341-2.051-2.164-1.02-1.09-.254-.274-.126-.138c-.04-.054-.076-.058-.173-.22-.074-.207-.044-.324-.045-.467.01-.134.029-.263.05-.39.186-1.007.468-1.964.777-2.918.314-.95.635-1.898.998-2.83-.258.966-.526 1.928-.764 2.897-.23.968-.493 1.938-.62 2.906-.028.223-.045.522-.004.627-.034-.052.025.028.07.065l.133.133.267.264 1.057 1.07 2.104 2.153.15.154-.122.188c-.371.565-.717 1.147-1.036 1.744-.304.585-.64 1.218-.717 1.792.006.055-.002.127.01.164a.079.079 0 0 1 .012.043c0 .017.042.057.061.084.09.12.212.254.319.38l.677.774c.452.517.903 1.037 1.343 1.566a41.036 41.036 0 0 1 2.465 3.32c.379.578.72 1.18 1.023 1.8.303.62.549 1.275.662 1.953z" fill-opacity=".2"/><path d="M120.334 93.717c1.958-1.46 2.944-2.024 3.856-2.282.913-.258 4.116-1.591 5.343-1.896.779-.194 1.094 1.044.103 1.896-.764.656-2.75 1.516-3.62 1.993-.87.477-2.581 2.554-2.581 2.554l-3.101-2.265z" fill="#F28F8F"/><path d="M92.82 84.195c1.941-4.136 3.597-4.535 8.294-5.08 4.42 4.309.835 13.95.835 13.95l-2.136 10.128s11.473-1.663 12.797-2.51c1.325-.846 4.878-4.667 6.07-5.81 1.622-1.557 2.427-1.349 3.251-1.225 2.7.405 3.293.632 3.864.995.572.363.525 1.05.525 1.05.717.09 1.79.068 1.928 1.246.091.778.043.943.043.943s.257.026.465.267c.597.692-.426 3.084-1.076 3.667-.457.41-1.107.46-1.961.345-.726-.099-.389-.838-.389-.838l-1.016.06c-2.196 1.56-2.307 4.65-5.21 5.332-.612.143-1.872.126-3.544.688-6.25 2.098-16.495 8.462-22.064 8.941-5.435.468-5.28-2.428-5.364-5.757-.076-2.97 2.753-22.267 4.689-26.392z" fill="#FFA8A7"/><path d="m107.024 101.992 4.123-.865s-.84.869-.592 3.664c.248 2.796 1.853 3.932 1.853 3.932l-5.99 2.914.606-9.645z" fill="#FAFAFA"/><path d="m100.045 102.055-.232 1.138c-2.475.637-5.38 3.904-5.974 5.257.462-2.145 1.85-5.233 6.206-6.395z" fill="#F28F8F"/><path d="M101.293 78.902s-.785.077-2.32.318c-1.534.24-3.743.512-5.41 3.129-1.667 2.616-1.783 3.74-2.752 8.217-.969 4.476-2.636 14.883-2.849 18.759-.213 3.876.213 5.678 1.182 6.473.969.794 3.24 1.42 6.589.368 3.35-1.053 13.275-5.02 13.275-5.02s-1.28.078-1.686-3.7c-.407-3.78.446-5.66.446-5.66l-7.724 1.202 2.413-10.426c.001 0 3.283-10.313-1.164-13.66z" fill="#BA68C8"/><path d="M101.293 78.902s-.785.077-2.32.318c-1.534.24-3.743.512-5.41 3.129-1.667 2.616-1.783 3.74-2.752 8.217-.969 4.476-2.636 14.883-2.849 18.759-.213 3.876.213 5.678 1.182 6.473.969.794 3.24 1.42 6.589.368 3.35-1.053 13.275-5.02 13.275-5.02s-1.28.078-1.686-3.7c-.407-3.78.446-5.66.446-5.66l-7.724 1.202 2.413-10.426c.001 0 3.283-10.313-1.164-13.66z" fill-opacity=".149"/><path d="M100.045 102.988c-2.7.55-4.915 2.362-6.082 4.98.846-4.309 4.183-6.103 6.4-6.353l-.318 1.373z" fill-opacity=".149"/><path d="m126.32 95.694-3.206-.647 3.139.203c.05.151.073.299.066.444zm1.97 2.189-3.69-.48 3.695.052a1.96 1.96 0 0 1-.004.428zm-.486 1.625c-.112.19-.298.333-.496.43-.2.101-.412.174-.631.216l.049-.035c-.099.193-.203.383-.31.57l-.077-.098a.75.75 0 0 1 .587.144.978.978 0 0 1 .322.482c-.091-.163-.22-.3-.376-.403a.747.747 0 0 0-.5-.091l-.142.03.066-.129c.1-.192.201-.383.31-.571l.017-.03.032-.006c.206-.036.414-.096.613-.17.194-.079.39-.173.536-.339z" fill="#F28F8F"/><path d="M126.824 99.983c-.367.076-1.336.094-1.336.094s-.028.263-.459.71c-.23.238-.715.597-.715.597l1.016-.06s.248-.454 1.162-.629l.332-.712z" fill="#F28F8F"/><path d="M107.24 69.77c-1.275.24-2.485-.39-3.26-1.24-1.718-1.889-1.88-3.811-1.08-5.092.656-1.053 2.277-1.727 3.414-1.016 1.216.76 1.254 1.382 1.714 2.242.472.882 1.637.187 1.24-3.27 2.359-1.112 1.978-5.066 3.252-6.679 1.995-2.526 5.282-1.872 6.351-1.28.95-.772 2.86-1.153 4.478-.288 1.586.848 2.643 2.634 3.206 8.775.574 6.26-.506 10.432-1.95 11.76-.993.914-2.842 1.533-5.044 1.407l.014 2.36s6.36 6.633-1.75 6.034c-6.077-.448-9.19-5.205-9.19-5.205l-.055-9.494c0 .001-.13.758-1.34.986z" fill="#FFA8A7"/><path d="M120.556 68.656a1.81 1.81 0 1 1-3.55-.705l3.55.705z" fill="#B16668"/><path d="M116.995 68.542c.1.767.676 1.384 1.433 1.537.211.04.428.042.64.005a1.834 1.834 0 0 0-2.073-1.542z" fill="#F28F8F"/><path d="M116.921 62.47c-.173.566-.756.888-1.3.72-.546-.169-.846-.765-.673-1.332.174-.566.756-.889 1.301-.72.545.168.846.765.672 1.331zm8.324-4.005-2.178-1.167a1.186 1.186 0 0 1 1.636-.536c.602.323.844 1.086.542 1.703zm-2.507 3.732c.204.557.803.847 1.338.65.535-.199.804-.81.6-1.366-.204-.557-.803-.847-1.338-.65-.535.198-.804.81-.6 1.366zm-7.14-4.565-2.323 1.26a1.27 1.27 0 0 1 .483-1.778 1.39 1.39 0 0 1 1.84.518z" fill="#263238"/><path d="M127.939 59.036a16.127 16.127 0 0 0-.464-.033c-1.497-.089-3.444-.046-4.593.351-1.44.5-1.925 1.008-2.739 1.048-.87.035-1.452-.425-3.048-.79-1.272-.286-3.347-.148-4.928.079-.17.025-.334.05-.49.076-.27.046-.543.41-.495.817.047.409.387.72.533.9.065.08.13.197.187.364.21.632.398 1.852.77 2.518.15.267.362.594.69.886.163.144.343.267.534.369.21.11.434.196.664.255.048.012.1.025.15.035.05.011.102.02.156.03.153.026.318.045.492.052.068.005.138.006.21.008.084 0 .172-.001.262-.005 2.02-.083 2.802-1.055 3.239-2.042.438-.985.217-2.344 1.149-2.382a.717.717 0 0 1 .172.01c.699.126.698 1.379 1.192 2.26.19.338.42.672.726.954.108.102.224.195.349.278.08.053.162.102.246.148.275.145.57.248.875.305.025.004.05.01.076.013.327.054.66.071.99.052 1.89-.093 2.47-1.2 2.735-1.894.263-.695.298-1.922.407-2.571a.745.745 0 0 1 .15-.342c.127-.163.368-.55.364-.958-.003-.41-.305-.769-.561-.79zm-9.453 4.035c-.062.374-.211.916-.611 1.374h-.001c-.405.46-1.066.834-2.151.866-1.097.033-1.765-.383-2.182-.885a1.86 1.86 0 0 1-.074-.093 1.44 1.44 0 0 1-.068-.093 1.494 1.494 0 0 1-.107-.167 5.637 5.637 0 0 1-.118-.214v-.001a3.565 3.565 0 0 1-.125-.277l-.003-.007a5.392 5.392 0 0 1-.151-.436l-.015-.052a1.77 1.77 0 0 1-.015-.05c-.201-.666-.475-1.982-.147-2.297.316-.302 1.225-.664 2.738-.589a6.756 6.756 0 0 1 2.02.398c.122.045.242.096.359.154.216.105.381.22.474.332.328.401.297 1.279.177 2.037zm8.753-.68c-.081.532-.256 1.678-1.276 2.222a2.64 2.64 0 0 1-1.103.287c-1.19.075-1.896-.376-2.316-.91a1.302 1.302 0 0 1-.052-.069c-.018-.023-.035-.047-.05-.07l-.026-.036a2.446 2.446 0 0 1-.165-.286l-.016-.033a1.451 1.451 0 0 1-.024-.05c-.006-.014-.013-.027-.017-.04a3.423 3.423 0 0 1-.178-.496c-.205-.742-.345-1.611-.089-2.038.256-.427 1.335-.93 2.394-1.107a6.94 6.94 0 0 1 .688-.08l.082-.005.089-.004a5.34 5.34 0 0 1 .327-.003c.04.002.077.002.114.005a3.868 3.868 0 0 1 .54.057l.083.015c.007 0 .014.002.021.004l.057.012.084.02c.035.008.07.019.102.028.067.019.133.041.198.067.168.065.297.138.386.211.343.285.249 1.62.147 2.3z" fill="#37474F"/><path d="m123.336 65.502-3.434 1.488-.538-4.126c.125-.658.238-1.232.802-1.287l3.17 3.925z" fill="#F28F8F"/><path d="m111.609 59.886-5.295 2.536c.27.18.426.297.82.656l4.61-2.094-.135-1.098z" fill="#37474F"/><path d="M119.562 75.09c-3.172-.118-7.424-1.245-8.565-3.291.634 2.206 2.87 3.348 4.653 3.848 2.167.609 3.888.672 3.888.672l.024-1.23z" fill="#F28F8F"/><path d="M158.954 37.46c-3.042 1.975-5.037 4.96-5.851 8.232l-.287 1.545a13.694 13.694 0 0 0 2.094 9.244c4.131 6.359 12.662 8.174 19.021 4.043a13.692 13.692 0 0 0 5.674-7.59l.363-1.532a13.691 13.691 0 0 0-1.993-9.899c-4.131-6.359-12.663-8.174-19.021-4.043z" fill="#FFF"/><path d="M158.317 36.485c-6.186 4.017-8.401 11.878-5.559 18.433l-2.712 3.758c-.464.642.105 1.518.88 1.356l4.536-.95c4.83 5.265 12.914 6.44 19.103 2.42 6.9-4.475 8.867-13.735 4.387-20.633-4.48-6.898-13.737-8.864-20.635-4.384zm19.657 5.018a13.69 13.69 0 0 1 1.994 9.9l-.364 1.53a13.692 13.692 0 0 1-5.673 7.591c-6.36 4.13-14.891 2.316-19.021-4.044a13.693 13.693 0 0 1-2.094-9.243l.287-1.545c.814-3.272 2.809-6.257 5.85-8.232 6.36-4.131 14.89-2.316 19.021 4.043z" fill="#455A64"/><path d="M177.974 41.503a13.69 13.69 0 0 1 1.994 9.9l-.364 1.53a13.692 13.692 0 0 1-5.673 7.591c-6.36 4.13-14.891 2.316-19.021-4.044a13.693 13.693 0 0 1-2.094-9.243l.287-1.545c.814-3.272 2.809-6.257 5.85-8.232 6.36-4.131 14.89-2.316 19.021 4.043z" fill="#FFF" fill-opacity=".698"/><path d="M164.525 56.242a1.98 1.98 0 0 1-1.445-.626l-4.488-4.792a1.98 1.98 0 0 1 2.89-2.707l2.915 3.112 6.896-8.735a1.98 1.98 0 0 1 3.108 2.454L166.08 55.49a1.98 1.98 0 0 1-1.554.754z" fill="#BA68C8"/></svg>