<svg xmlns="http://www.w3.org/2000/svg" width="350" height="262"><path d="M171.078 90.629c-.371 0-.746-.061-1.106-.186l-5.714-1.98a3.4 3.4 0 0 1-2.219-2.563l-1.142-5.938a3.401 3.401 0 0 1 1.11-3.204l4.572-3.958a3.398 3.398 0 0 1 3.328-.64l5.714 1.98a3.399 3.399 0 0 1 2.22 2.562l1.142 5.939a3.4 3.4 0 0 1-1.11 3.202l-4.573 3.96a3.396 3.396 0 0 1-2.222.826zM165.668 85l5.339 1.85 4.272-3.7-1.068-5.548-5.339-1.85-4.272 3.699L165.668 85zm72.07-11.618a3.37 3.37 0 0 1-1.106-.185l-2.892-1.002a3.4 3.4 0 0 1-2.22-2.564l-.577-3.004a3.399 3.399 0 0 1 1.11-3.203l2.314-2.005a3.397 3.397 0 0 1 3.33-.64l2.89 1.003a3.4 3.4 0 0 1 2.22 2.563l.578 3.005a3.403 3.403 0 0 1-1.109 3.203l-2.315 2.004a3.404 3.404 0 0 1-2.223.825zm-2.588-4.65 2.517.872 2.014-1.744-.503-2.616-2.518-.872-2.014 1.744.504 2.616z" fill="#F5F5F5"/><path d="M317.652 117.359a2.465 2.465 0 0 1-1.92-.92l-1.628-2.032a2.464 2.464 0 0 1-.373-2.428l.946-2.428a2.463 2.463 0 0 1 1.915-1.537l2.576-.394a2.465 2.465 0 0 1 2.289.89l1.629 2.034c.548.685.69 1.61.373 2.428l-.946 2.427a2.463 2.463 0 0 1-1.916 1.537l-2.576.394c-.122.02-.246.03-.37.029zm1.888-7.9c-.03 0-.06.002-.089.006l-2.576.395a.59.59 0 0 0-.46.369l-.945 2.427a.591.591 0 0 0 .09.583l1.629 2.033a.594.594 0 0 0 .549.214l2.575-.395a.59.59 0 0 0 .46-.369l.946-2.427a.59.59 0 0 0-.09-.583l-1.63-2.033a.59.59 0 0 0-.46-.22zM26.926 137.64a3.168 3.168 0 0 1-2.466-1.182l-3.83-4.776a3.167 3.167 0 0 1-.477-3.12l2.221-5.704a3.164 3.164 0 0 1 2.463-1.974l6.05-.929a3.164 3.164 0 0 1 2.942 1.146l3.83 4.776c.703.88.885 2.069.478 3.12l-2.222 5.705a3.166 3.166 0 0 1-2.463 1.975l-6.051.928a3.245 3.245 0 0 1-.475.035zm-3.706-7.952 3.75 4.677 5.925-.908 2.175-5.586-3.75-4.677-5.924.908-2.176 5.586z" fill="#E0E0E0"/><path d="M42.412 95.811h-3.609a2.463 2.463 0 0 1-2.127-1.228l-1.804-3.125a2.462 2.462 0 0 1 0-2.457l1.804-3.125a2.463 2.463 0 0 1 2.127-1.228h3.609a2.464 2.464 0 0 1 2.127 1.228L46.344 89c.437.76.437 1.696 0 2.456l-1.805 3.126a2.463 2.463 0 0 1-2.127 1.228zm-3.61-9.296a.592.592 0 0 0-.51.295l-1.804 3.126a.592.592 0 0 0 0 .59l1.804 3.125a.592.592 0 0 0 .51.295h3.61c.21 0 .405-.113.51-.295l1.804-3.125a.592.592 0 0 0 0-.59l-1.804-3.126a.592.592 0 0 0-.51-.295h-3.61zm65.162-26.004-7.036-4.428-8.64-14.579-12.016-7.358-2.326 2.52 1.222 1.64 3.791 5.088L94.021 63.61l6.142 3.379zm-8.841 10.482-2.016-6.714-22.131-25.283-2.95 1.746 4.671 13.293 12.848 12.62 2.879 7.88z" fill="#EBEBEB"/><path d="M107.108 61.762s24.992 13.715 30.027 18.345c5.034 4.63 16.797 23.907 15.603 26.37-1.195 2.461-2.109 2.778-4.82.41-2.712-2.368-11.473-15.597-13.828-17.734-2.356-2.137-31.629-19.311-31.629-19.311l4.647-8.08z" fill="#E0E0E0"/><path d="M98.081 59.722c0 2.185-.772 4.05-2.318 5.596-1.545 1.545-3.41 2.318-5.596 2.318-2.185 0-4.05-.773-5.596-2.318-1.546-1.545-2.318-3.41-2.318-5.596s.772-4.051 2.318-5.596c1.545-1.546 3.41-2.318 5.596-2.318 2.185 0 4.05.772 5.596 2.318 1.546 1.545 2.318 3.41 2.318 5.596 0 .092-.001.184-.005.276" fill="#EBEBEB"/><path d="M88.176 67.382c.006-.042.68.189 1.933.199.624.015 1.392-.084 2.24-.33a7.846 7.846 0 0 0 2.648-1.38c.865-.692 1.692-1.631 2.235-2.822.533-1.185.856-2.593.695-4.056a7.323 7.323 0 0 0-.533-2.176c-.131-.362-.325-.698-.506-1.045-.215-.327-.421-.665-.683-.967-.994-1.249-2.446-2.184-4.078-2.625-1.64-.41-3.364-.3-4.84.307-.376.135-.72.33-1.068.511-.326.215-.66.414-.95.666a7.332 7.332 0 0 0-1.527 1.642c-.853 1.2-1.256 2.587-1.367 3.881-.105 1.305.159 2.529.577 3.554.383.929.94 1.775 1.642 2.494.622.629 1.243 1.089 1.796 1.38 1.1.6 1.8.727 1.786.767a.503.503 0 0 1-.126-.027l-.363-.102a3.667 3.667 0 0 1-.58-.202c-.225-.092-.488-.192-.762-.353-.566-.282-1.205-.737-1.848-1.368a7.906 7.906 0 0 1-1.703-2.523c-.438-1.043-.719-2.295-.62-3.634.105-1.328.512-2.756 1.384-3.994a7.523 7.523 0 0 1 1.565-1.696c.298-.26.641-.467.977-.688.357-.188.712-.39 1.099-.53 1.52-.629 3.3-.745 4.99-.321 1.683.453 3.18 1.421 4.201 2.71.27.312.482.66.702.998.186.357.384.704.518 1.077.297.73.483 1.49.541 2.242.159 1.506-.18 2.951-.736 4.162-.565 1.218-1.42 2.175-2.31 2.872a7.909 7.909 0 0 1-2.717 1.375c-.867.238-1.647.324-2.28.294-.316.008-.595-.033-.837-.062a3.662 3.662 0 0 1-.605-.105l-.367-.088a.504.504 0 0 1-.123-.037z" fill="#E0E0E0"/><path d="M89.042 64.047a4.47 4.47 0 1 1 2.182-8.668 4.47 4.47 0 0 1-2.182 8.668z" fill="#E0E0E0"/><path d="M89.042 64.047c.006-.03.388.093 1.092.092a4.457 4.457 0 0 0 2.737-.975c.483-.389.943-.916 1.245-1.583.297-.663.476-1.45.384-2.267a4.097 4.097 0 0 0-.3-1.214 4.097 4.097 0 0 0-.664-1.122c-.555-.697-1.365-1.218-2.275-1.464-.915-.23-1.877-.168-2.701.17a4.077 4.077 0 0 0-1.127.656c-.33.26-.617.569-.853.915-.478.67-.705 1.444-.769 2.167-.06.73.085 1.414.317 1.99a4.454 4.454 0 0 0 1.917 2.183c.614.344 1.008.422.997.452 0 0-.401-.044-1.043-.368-.629-.32-1.51-1-2.03-2.2a4.5 4.5 0 0 1-.359-2.07c.058-.758.288-1.573.785-2.28.246-.367.547-.693.892-.969.355-.294.755-.53 1.185-.697.868-.359 1.884-.426 2.85-.184.96.259 1.816.813 2.399 1.549a4.3 4.3 0 0 1 .695 1.185c.169.418.275.852.307 1.28.09.86-.106 1.685-.424 2.374a4.504 4.504 0 0 1-1.322 1.633 4.447 4.447 0 0 1-2.844.933c-.719-.029-1.09-.186-1.09-.186z" fill="#E0E0E0"/><path d="m99 65.875 3.234-5.626a3.445 3.445 0 0 1 4.703-1.27l.303.173a3.445 3.445 0 0 1 1.27 4.704l-3.232 5.626a3.445 3.445 0 0 1-4.704 1.27l-.302-.173A3.445 3.445 0 0 1 99 65.875z" fill="#EBEBEB"/><path d="M99 65.875c.036.012-.279.431-.387 1.314-.05.533.02 1.071.208 1.573.122.309.284.6.483.866.23.291.505.545.815.75.33.206.693.429 1.092.56.42.139.862.195 1.302.163a3.372 3.372 0 0 0 2.463-1.364c1.072-1.79 2.208-3.838 3.428-5.941.59-1.025.576-2.32.016-3.284a3.248 3.248 0 0 0-1.11-1.176c-.462-.294-.927-.547-1.435-.637a3.351 3.351 0 0 0-2.738.653c-.731.558-1.056 1.41-1.486 2.082l-1.919 3.262-.532.88c-.123.2-.192.303-.2.299-.007-.004.048-.115.158-.324l.493-.903 1.851-3.3.618-1.091c.227-.408.53-.77.892-1.063.745-.615 1.832-.927 2.908-.715.54.092 1.048.365 1.516.66.496.312.906.744 1.192 1.256.603 1.03.621 2.423-.013 3.521-1.226 2.113-2.348 4.127-3.458 5.953a3.574 3.574 0 0 1-2.63 1.434 3.559 3.559 0 0 1-1.377-.188c-.43-.149-.785-.375-1.127-.595a3.633 3.633 0 0 1-.842-.799 3.827 3.827 0 0 1-.488-.912 3.56 3.56 0 0 1-.174-1.631c.061-.451.203-.777.297-.993.114-.208.178-.314.185-.31zm-9.647 12.643s9.469 26.89 13.218 32.61c3.75 5.72 20.858 20.462 23.481 19.683 2.624-.777 3.085-1.628 1.19-4.689-1.897-3.06-13.524-13.855-15.25-16.527-1.726-2.672-13.91-34.348-13.91-34.348l-8.729 3.27z" fill="#E0E0E0"/><path d="m94.73 71.187-6.077 2.275a3.445 3.445 0 0 0-2.019 4.434l.123.327a3.445 3.445 0 0 0 4.434 2.019l6.077-2.275a3.445 3.445 0 0 0 2.019-4.435l-.123-.326a3.445 3.445 0 0 0-4.434-2.02z" fill="#EBEBEB"/><path d="M94.73 71.187c-.003-.008.112-.054.336-.132.229-.057.573-.144 1.028-.13.452.011 1.01.128 1.581.436.28.161.562.367.821.63.267.283.487.607.652.96.161.373.326.761.403 1.21.079.46.066.932-.039 1.388a3.573 3.573 0 0 1-1.841 2.362c-1.982.798-4.152 1.578-6.436 2.444-1.187.448-2.559.203-3.476-.56a3.472 3.472 0 0 1-1.045-1.38c-.216-.51-.403-1.054-.406-1.603a3.551 3.551 0 0 1 2.371-3.46l1.177-.432 3.558-1.29.971-.34c.223-.075.342-.11.345-.103.003.008-.11.059-.327.149l-.956.382-3.53 1.363c-.732.315-1.626.497-2.296 1.128a3.35 3.35 0 0 0-1.089 2.596c.007.515.18 1.015.395 1.52.214.503.55.946.98 1.285.86.71 2.136.934 3.243.518 2.274-.862 4.479-1.65 6.42-2.416a3.374 3.374 0 0 0 1.747-2.208c.106-.444.117-.893.05-1.312-.065-.415-.225-.809-.374-1.169a3.515 3.515 0 0 0-.608-.925c-.23-.24-.49-.447-.776-.618a3.535 3.535 0 0 0-1.518-.46c-.89-.038-1.354.204-1.36.167z" fill="#E0E0E0"/><path d="M333.552 225.953c0 .067-71.137.121-158.87.121-87.762 0-158.884-.055-158.884-.121 0-.067 71.122-.122 158.885-.122 87.732 0 158.87.054 158.87.122z" fill="#263238"/><path d="M40.607 172.565c.13-.391 14.67-47.925 14.67-47.925l-.364-5.903 3.803-6.261 4.723 1.56-.646 7.02-3.357 5.103-14.647 47.757-4.182-1.351z" fill="#E0E0E0"/><path d="M40.607 172.565s.098.026.28.082l.808.25 3.107.978-.054.028 14.574-47.78.005-.016.01-.014 3.355-5.104-.019.055.646-7.02.083.127-.39-.13-4.334-1.43.142-.053-3.805 6.261.018-.07.36 5.903.002.022-.006.02-10.551 34.285-3.093 9.992-.837 2.68-.22.694c-.05.157-.081.24-.081.24s.018-.076.063-.23l.202-.686.8-2.665 3.022-9.986 10.47-34.392-.004.042c-.002 0-.367-5.903-.367-5.903l-.002-.037.02-.033 3.8-6.262.05-.083.092.03 4.333 1.431.39.129.093.03-.009.096-.647 7.02-.003.03-.017.025-3.358 5.103.014-.03-14.72 47.734-.013.042-.041-.013-3.115-1.033-.792-.266a7.391 7.391 0 0 1-.261-.093z" fill="#263238"/><path d="m37.097 174.875-6.53 8.831-9.133 33.128s-1.313 6.756 6.151 8.676c8.381 2.156 10.315-4.264 10.315-4.264l8.88-32.354-.133-11.228 2.192-2.468a.924.924 0 0 0-.401-1.491l-10.486-3.463a.924.924 0 0 0-1.21.966l.355 3.667z" fill="#FF725E"/><path d="M46.72 178.054c-.02.064-2.217-.576-4.908-1.43-2.69-.854-4.856-1.598-4.835-1.662.02-.064 2.217.576 4.91 1.43 2.689.854 4.854 1.599 4.834 1.662zm.06 10.838c-.005.016-.237-.026-.655-.115a52.104 52.104 0 0 1-1.76-.418 98.22 98.22 0 0 1-5.736-1.644A98.031 98.031 0 0 1 33 184.73a51.524 51.524 0 0 1-1.675-.68c-.393-.169-.607-.27-.6-.285.005-.015.231.056.634.197l1.702.607c1.436.513 3.426 1.206 5.642 1.915 1.893.602 3.795 1.171 5.707 1.71l1.74.49c.409.118.634.192.63.208z" fill="#263238"/><path d="m24.72 217.773-.224-.066a1.541 1.541 0 0 1-1.04-1.916l8.199-27.692a1.541 1.541 0 0 1 1.916-1.04l.224.067a1.541 1.541 0 0 1 1.04 1.915l-8.2 27.692a1.541 1.541 0 0 1-1.915 1.04zm4.655 1.533-.224-.066a1.541 1.541 0 0 1-1.04-1.916l8.199-27.692a1.541 1.541 0 0 1 1.916-1.04l.224.067a1.541 1.541 0 0 1 1.04 1.915l-8.2 27.692a1.541 1.541 0 0 1-1.915 1.04zm4.942 1.463-.224-.066a1.541 1.541 0 0 1-1.04-1.916l8.198-27.692a1.542 1.542 0 0 1 1.916-1.04l.224.066a1.541 1.541 0 0 1 1.04 1.916l-8.199 27.691a1.541 1.541 0 0 1-1.915 1.04z" fill-opacity=".298"/><path d="M59.39 126.145c-.021.063-.952-.2-2.078-.59-1.126-.39-2.02-.757-1.999-.82.022-.064.953.2 2.079.59 1.126.39 2.02.756 1.999.82zm4.05-12.11c.014.005-.045.235-.165.655l-.53 1.785-1.878 6.047-.037.116-.116-.04-2.15-.75-2.214-.776-.105-.037.03-.107 1.703-6.05.522-1.77c.126-.413.202-.637.216-.633.014.004-.034.235-.136.654l-.454 1.79-1.622 6.072-.075-.144 2.216.772 2.148.754-.152.076 1.958-6.022.597-1.763c.144-.41.23-.633.244-.629z" fill="#263238"/><path d="M201.086 66.564a3.37 3.37 0 0 1-1.106-.186l-5.714-1.98a3.4 3.4 0 0 1-2.22-2.562l-1.141-5.94a3.397 3.397 0 0 1 1.11-3.203l4.572-3.958a3.401 3.401 0 0 1 3.328-.64l5.714 1.98a3.4 3.4 0 0 1 2.22 2.563l1.141 5.938a3.399 3.399 0 0 1-1.11 3.203l-4.572 3.958a3.397 3.397 0 0 1-2.222.827zm-5.41-5.63 5.338 1.85 4.272-3.698-1.068-5.549-5.339-1.85-4.271 3.699 1.067 5.549z" fill="#E0E0E0"/><path d="M201.086 66.564a3.37 3.37 0 0 1-1.106-.186l-5.714-1.98a3.4 3.4 0 0 1-2.22-2.562l-1.141-5.94a3.397 3.397 0 0 1 1.11-3.203l4.572-3.958a3.401 3.401 0 0 1 3.328-.64l5.714 1.98a3.4 3.4 0 0 1 2.22 2.563l1.141 5.938a3.399 3.399 0 0 1-1.11 3.203l-4.572 3.958a3.397 3.397 0 0 1-2.222.827zm-5.41-5.63 5.338 1.85 4.272-3.698-1.068-5.549-5.339-1.85-4.271 3.699 1.067 5.549z" fill="none"/><path d="M195.675 60.935c-.006.006-.039-.122-.095-.37l-.234-1.094-.827-4.068a.091.091 0 0 1 .03-.085l4.255-3.717a.113.113 0 0 1 .113-.022l5.34 1.844c-.07-.082.098.112.08.093l.001.001v.003l.002.005.002.012.004.023.01.046.017.091.035.182.07.363.138.72.27 1.411.513 2.692a.116.116 0 0 1-.038.108l-4.287 3.68a.091.091 0 0 1-.089.018l-3.908-1.4-1.05-.39c-.237-.09-.358-.14-.352-.146.007-.006.142.032.39.11l1.078.35 3.9 1.305-.088.016L205.211 59l-.038.109-.522-2.69-.273-1.411-.139-.72-.07-.362-.035-.182-.018-.091-.009-.046-.004-.023-.002-.01-.001-.007v-.002l-.001-.002c-.017-.02.15.173.078.091l-5.336-1.856.113-.022-4.288 3.68.03-.085.734 4.048.19 1.116c.043.256.062.395.055.4z" fill="#263238"/><path d="M201.086 66.564c0-.013.203-.005.577-.075a3.433 3.433 0 0 0 1.493-.687l4.639-4.064a3.334 3.334 0 0 0 1.045-1.66c.09-.34.126-.694.107-1.046-.021-.355-.116-.722-.184-1.099l-.935-4.8c-.082-.427-.15-.844-.339-1.229a3.294 3.294 0 0 0-1.88-1.71l-1.316-.455-2.701-.934-1.382-.479c-.465-.176-.914-.297-1.401-.295-.478.002-.95.106-1.384.306-.438.192-.787.507-1.155.831l-2.162 1.87-2.083 1.804a3.29 3.29 0 0 0-1.064 2.253c-.031.418.058.82.138 1.236l.232 1.22.442 2.332c.147.748.273 1.488.42 2.168a3.32 3.32 0 0 0 1.825 2.158c.273.123.566.212.84.312l1.563.552 2.501.889c.69.236 1.21.463 1.586.527.375.07.578.062.578.075 0 0-.203.029-.586-.027-.388-.05-.916-.265-1.608-.486l-2.515-.85-1.569-.533c-.277-.099-.564-.182-.858-.31a3.489 3.489 0 0 1-1.938-2.258c-.158-.707-.284-1.426-.436-2.18l-.454-2.329-.237-1.218c-.08-.405-.179-.843-.147-1.29a3.514 3.514 0 0 1 1.132-2.413l2.084-1.812 2.16-1.873c.185-.158.358-.318.56-.476a3.562 3.562 0 0 1 2.136-.72c.512-.008 1.031.136 1.481.308l1.38.48 2.7.937 1.317.458c.889.318 1.613.98 2.01 1.837.201.412.273.867.351 1.282l.913 4.804c.065.376.16.742.181 1.127.017.373-.023.746-.12 1.107a3.505 3.505 0 0 1-1.114 1.74l-4.693 4.008c-.45.346-.981.574-1.543.66-.384.056-.587.027-.587.027z" fill="#263238"/><path d="M161.31 56.849a2.464 2.464 0 0 1-1.919-.92l-1.63-2.033a2.464 2.464 0 0 1-.372-2.428l.946-2.428a2.464 2.464 0 0 1 1.916-1.536l2.576-.395a2.466 2.466 0 0 1 2.289.892l1.629 2.032c.547.686.69 1.61.373 2.428l-.946 2.428a2.463 2.463 0 0 1-1.917 1.537l-2.575.395a2.521 2.521 0 0 1-.37.028zm1.888-7.902a.572.572 0 0 0-.088.007l-2.575.395a.592.592 0 0 0-.46.37l-.945 2.426a.592.592 0 0 0 .089.584l1.63 2.032a.591.591 0 0 0 .55.214l2.574-.394a.59.59 0 0 0 .46-.37l.946-2.427a.593.593 0 0 0-.09-.583l-1.629-2.032a.594.594 0 0 0-.462-.222z" fill="#E0E0E0"/><path d="M161.31 56.849a2.464 2.464 0 0 1-1.919-.92l-1.63-2.033a2.464 2.464 0 0 1-.372-2.428l.946-2.428a2.464 2.464 0 0 1 1.916-1.536l2.576-.395a2.466 2.466 0 0 1 2.289.892l1.629 2.032c.547.686.69 1.61.373 2.428l-.946 2.428a2.463 2.463 0 0 1-1.917 1.537l-2.575.395a2.521 2.521 0 0 1-.37.028zm1.888-7.902a.572.572 0 0 0-.088.007l-2.575.395a.592.592 0 0 0-.46.37l-.945 2.426a.592.592 0 0 0 .089.584l1.63 2.032a.591.591 0 0 0 .55.214l2.574-.394a.59.59 0 0 0 .46-.37l.946-2.427a.593.593 0 0 0-.09-.583l-1.629-2.032a.594.594 0 0 0-.462-.222z" fill="none"/><path d="M163.198 48.947c0-.005.07-.024.201.01a.596.596 0 0 1 .22.116c.078.068.14.154.222.246l1.325 1.593.216.264c.077.107.124.24.129.377.01.14-.049.283-.09.39l-.135.354-.586 1.534-.157.41a.71.71 0 0 1-.348.388c-.176.084-.332.078-.48.11l-.462.072c-.63.094-1.246.202-1.944.292a.713.713 0 0 1-.532-.238l-.311-.388-.6-.75-.577-.724-.14-.177a.708.708 0 0 1-.12-.733l.606-1.526.277-.691c.047-.107.076-.223.158-.337a.677.677 0 0 1 .3-.233c.897-.164 1.576-.228 2.07-.297.484-.06.757-.085.759-.062-.001.01-.065.018-.192.048l-.553.107c-.471.094-1.202.199-2.02.363a.506.506 0 0 0-.218.178c-.053.073-.083.188-.13.3l-.263.697-.586 1.534a.482.482 0 0 0-.005.35c.034.105.145.21.239.333l.582.721.602.748.304.377a.472.472 0 0 0 .35.157l1.909-.285.462-.07c.153-.028.315-.031.413-.084a.479.479 0 0 0 .238-.264l.161-.408.607-1.526.14-.352c.051-.122.09-.21.086-.314a.507.507 0 0 0-.089-.278l-.203-.261-1.265-1.64c-.253-.445-.582-.409-.57-.43z" fill="#263238"/><path d="M161.31 56.849c0-.009.11-.025.312-.049l.89-.155 1.413-.237c.278-.048.568-.081.85-.206.299-.125.57-.309.795-.542.248-.256.436-.564.552-.902l.428-1.116c.253-.781.776-1.578.587-2.47a2.456 2.456 0 0 0-.6-1.212l-.932-1.16-.48-.596a2.68 2.68 0 0 0-.521-.53 2.354 2.354 0 0 0-1.407-.47c-.251-.005-.51.054-.775.09l-.78.119-1.516.236a2.358 2.358 0 0 0-1.604 1.252c-.096.2-.176.43-.263.644l-.497 1.263c-.152.414-.35.8-.409 1.187-.133.796.172 1.538.637 2.048l1.172 1.49c.176.219.323.434.49.594.168.162.342.29.51.383.688.37 1.159.303 1.149.339 0 .004-.027.007-.081.01-.08.003-.158 0-.237-.007a2.374 2.374 0 0 1-.876-.259 2.47 2.47 0 0 1-.545-.383c-.184-.166-.336-.38-.516-.591l-1.2-1.468c-.484-.51-.843-1.328-.703-2.187.064-.435.263-.822.409-1.234l.488-1.267c.088-.218.158-.433.267-.663a2.59 2.59 0 0 1 1.758-1.385c.513-.09 1.012-.16 1.531-.242l.78-.12c.258-.035.524-.097.811-.093.56 0 1.105.183 1.553.519.218.16.41.373.563.574l.478.598.928 1.163c.326.368.563.84.639 1.318.08.468.028.95-.15 1.39l-.47 1.191-.44 1.112c-.13.358-.336.684-.605.954-.513.527-1.2.717-1.747.761l-1.418.197c-.39.05-.69.095-.899.11-.21.01-.318.01-.318.002zm45.464-6.093c.048.042-.471.743-1.201 1.538-.731.797-1.426 1.339-1.47 1.288-.044-.051.568-.665 1.291-1.453.724-.788 1.327-1.419 1.38-1.373zm-8.75-2.683c.061-.022.383.757.624 1.765.243 1.007.312 1.847.247 1.856-.068.01-.243-.804-.484-1.8-.238-.995-.453-1.8-.388-1.821zm-3.48 7.22c-.026.064-.813-.213-1.793-.515-.98-.304-1.785-.52-1.77-.589.011-.063.85.049 1.842.357.993.306 1.748.687 1.722.747zm-.996 8.095c-.051-.043.376-.64.954-1.332.58-.692 1.09-1.219 1.141-1.176.052.043-.375.64-.954 1.332-.579.692-1.09 1.22-1.14 1.176zm7.86 2.556c-.066.01-.213-.663-.328-1.505-.115-.842-.154-1.53-.088-1.538.067-.008.214.666.329 1.505.115.84.154 1.528.088 1.538zm6.64-5.98c-.025.063-.641-.116-1.377-.399-.737-.283-1.314-.563-1.29-.626.025-.062.64.116 1.377.4.736.282 1.314.562 1.29.625zm92.643 35.783c3.163-3.806 6.321-7.65 8.782-11.944 2.461-4.293 4.214-9.092 4.33-14.039.017-.75-.307-5.957-1.027-6.164-.515-.15-.87 4.447-1.291 4.778-4.03 3.154-6.648 7.835-8.154 12.725-1.506 4.89-2.219 9.544-2.64 14.644" fill="#263238"/><path d="M259.538 124.691c1.26-3.26 7.46-19.581 7.435-19.591 0 0-10.691-5.565-7.021-16.894 1.773-5.473 6.341-16.446 10.59-26.327 4.568-10.621 16.528-15.95 27.482-12.25l1.088.367c11.506 4.65 13.986 17.019 9.02 28.392l-22.851 52.967-20.037-6.193-5.706-.47z" fill="#FFBF9D"/><path d="M266.973 105.1s6.97 2.82 16.156.618c0 0-6.356 7.18-17.271 2.364l1.115-2.982z" fill="#FF9A6C"/><path d="M270.54 72.774c-.319.84.132 1.803 1.004 2.15.87.347 1.834-.05 2.151-.891.318-.84-.132-1.804-1.002-2.15-.872-.349-1.836.05-2.154.891zm.833-5.398c.129.278 1.654-.214 3.386.376 1.74.565 2.71 1.886 2.97 1.738.124-.063.049-.511-.37-1.102-.41-.585-1.207-1.29-2.29-1.65-1.082-.359-2.124-.268-2.783-.038-.671.23-.98.549-.913.676zm14.376 11.514c-.317.84.133 1.802 1.005 2.15.87.346 1.834-.051 2.151-.892.318-.84-.132-1.803-1.002-2.15-.872-.348-1.836.051-2.154.892zm2.37-5.078c.128.278 1.656-.212 3.387.377 1.738.565 2.71 1.887 2.97 1.738.123-.063.05-.51-.37-1.101-.41-.586-1.208-1.29-2.29-1.651-1.08-.359-2.124-.268-2.783-.037-.67.229-.98.547-.914.674zM277.4 85.034c.041-.095-.974-.646-2.644-1.459-.428-.195-.818-.424-.79-.751.004-.355.35-.77.739-1.213l2.447-2.929c3.44-4.186 6.088-7.688 5.919-7.825-.17-.137-3.095 3.144-6.534 7.33l-2.4 2.968c-.337.447-.818.92-.816 1.66.007.371.252.721.51.893.253.183.501.272.716.359 1.725.687 2.813 1.063 2.853.967zm4.697 2.923c-.277-.112-.915 1.769-2.977 2.56-2.06.797-3.995-.091-4.099.167-.066.109.323.516 1.163.825.82.31 2.124.452 3.385-.032 1.26-.488 2.05-1.438 2.376-2.189.337-.762.285-1.299.152-1.331zm8.492-21.148c.012.53 1.818.89 3.77 1.822 1.97.893 3.409 2.043 3.822 1.711.188-.161.052-.702-.457-1.382-.504-.678-1.406-1.465-2.581-2.013-1.176-.546-2.36-.73-3.202-.679-.849.05-1.35.293-1.352.541zm-16.554-4.955c.172.497 1.504.492 2.947.958 1.458.415 2.562 1.16 2.981.842.19-.158.132-.617-.273-1.17-.398-.547-1.172-1.147-2.169-1.45-.997-.302-1.973-.234-2.61.001-.643.233-.946.582-.876.82z" fill="#263238"/><path d="M304.39 86.432c.22-.018 8.526.325 5.675 7.955-2.85 7.63-9.923 3.194-9.854 2.97.068-.224 4.179-10.925 4.179-10.925z" fill="#FFBF9D"/><path d="M303.621 95.337c.043-.012.099.143.285.33.181.182.532.392.986.391.917.006 2.073-1.02 2.625-2.382a4.69 4.69 0 0 0 .338-2.042c-.024-.645-.24-1.17-.618-1.394a.722.722 0 0 0-.921.072c-.182.175-.19.345-.236.343-.028.011-.116-.189.064-.48a.906.906 0 0 1 .478-.367 1.07 1.07 0 0 1 .808.081c.573.26.9 1 .946 1.701a4.814 4.814 0 0 1-.334 2.3c-.623 1.519-1.947 2.663-3.17 2.57-.589-.061-.976-.39-1.14-.656-.166-.277-.142-.463-.11-.467z" fill="#FF9A6C"/><path d="M280.297 51.17c-.97-1.152 4.253-3.72 7.803-3.932 5.368-.32 12.837 1.082 16.593 3.895 4.522 3.386 7.77 7.528 8.544 13.124.776 5.597-.331 11.345-2.503 16.56-.662 1.592-1.473 3.205-2.854 4.235-1.707 1.274-4.151 1.55-4.952 3.904-.293.86-.863 1.623-1.68 2.018-1.96.947-3.129-1.097-3.376-2.792-.528-3.62.65-7.247 1.812-10.716.827-2.465 1.679-4.98 3.257-7.047.858-1.125 1.915-2.093 2.71-3.264.795-1.17 1.316-2.645.918-4.003a5.08 5.08 0 0 0-.378-.862 8.494 8.494 0 0 0-7.293-4.517c-4.864-.128-13.045-.672-14.397-2.858-1.946-3.145-2.08-4.76-2.08-4.76l-2.124 1.015z" fill="#263238"/><path d="M305.681 46.478c.49.249 11.956 7.333 11.88 17.664-.076 10.33-1.966 12.86-1.966 12.86s.57.686.914 1.563c.308.785-1.451 3.443-2.96 2.556-10.295-9.551-24.483-15.037-40.667-20.048l-12.209-4.37c-3.57-.782-4.462-2.108-2.718-2.472 1.338-.278 12.426-.839 12.426-.839l2.394-.737 7.479-5.279s-.29-1.192 1.229-1.58c1.518-.387 14.542-4.218 24.198.682z" fill="#FF725E"/><path d="M272.776 52.655s.162.065.477.168l1.379.44c1.205.359 2.92.965 5.027 1.742a100.163 100.163 0 0 1 15.75 7.689c5.893 3.509 10.9 7.2 14.475 9.92 1.791 1.358 3.218 2.486 4.21 3.26l1.142.89c.263.2.408.298.408.298s-.127-.12-.38-.333l-1.118-.921c-.975-.794-2.387-1.94-4.168-3.314-3.553-2.754-8.553-6.47-14.457-9.987a95.876 95.876 0 0 0-15.808-7.646c-4.229-1.545-6.937-2.206-6.937-2.206z" fill="#263238"/><path d="M315.158 55.843s-12.654-6.774-19.646-5.953l.817-.111-6.526.544c-1.102.092-2.369.124-3.127-.68 0 0 3.963-1.68 10.22-1.648 6.257.032 15.439 2.277 18.262 7.848z" fill-opacity=".298"/><path d="M315.328 55.98s-.285-.463-.93-1.2a17.667 17.667 0 0 0-3.07-2.774c-1.417-1.026-3.265-2.043-5.458-2.796-2.18-.752-4.74-1.291-7.42-1.03-1.337.113-2.617.376-3.847.633-1.226.28-2.416.486-3.537.798-1.113.312-2.155.657-3.168.754-1.016.142-1.941-.102-2.768-.369-3.309-1.086-5.096-2.463-4.876-2.62.003-.009-.009.155.174.35.18.187.475.435.894.688.834.514 2.101 1.162 3.76 1.729.819.277 1.796.54 2.835.402 1.038-.093 2.096-.437 3.202-.74 1.105-.302 2.305-.507 3.528-.783 1.228-.254 2.501-.514 3.82-.625 2.645-.257 5.169.267 7.338 1.003 2.177.736 4.017 1.73 5.434 2.732a18.645 18.645 0 0 1 3.83 3.553c.164.198.26.295.26.295z" fill="#263238"/><path d="M317.398 68.41c-2.396-.843-4.004-2.092-6.21-3.433-2.35-1.429-4.716-2.734-6.996-4.274-1.729-1.168-3.826-2.403-4.595-4.207-.523.934-.535 1.94-.045 2.89.49.952 2.57 2.6 3.455 3.202 5.045 3.43 8.55 5.772 14.189 8.158.154-.613.202-2.336.202-2.336" fill-opacity=".298"/><path d="M317.522 62.996c1.295 1.183 2.076 1.949 1.674 3.26-.334 1.092-1.006 2.336-2.134 2.16-.344-.054-.653-.234-.954-.41l-15.434-9.04c-.522-.305-1.083-.656-1.282-1.227-.306-.879.461-1.839 1.358-2.083.898-.244 1.847.023 2.733.309 5.03 1.626 9.62 4.129 14.039 7.03" fill="#FF725E"/><path d="M299.564 58.07c.032-.01-.227-.283-.197-.877.024-.558.415-1.475 1.4-1.858.99-.336 2.302-.11 3.588.408a96.262 96.262 0 0 1 4.218 1.795c2.963 1.34 5.524 2.809 7.266 4.033.693.477 1.368.978 2.025 1.503l.534.431c.123.097.191.145.196.14.005-.006-.053-.065-.168-.173l-.508-.463a27.065 27.065 0 0 0-1.99-1.565c-1.729-1.262-4.292-2.76-7.266-4.105a82.677 82.677 0 0 0-4.235-1.783c-1.314-.515-2.663-.742-3.717-.365-1.05.435-1.428 1.412-1.43 2a1.49 1.49 0 0 0 .144.68c.082.138.136.202.14.199z" fill="#263238"/><path d="m277.907 49.033 10.508 3.366-1.891 2.637-11.262-4.136 2.645-1.867z" fill="#FFF"/><path d="M290.507 63.71c.028-.053-4.396-2.315-9.878-5.05-5.484-2.737-9.95-4.91-9.976-4.857-.027.054 4.395 2.315 9.879 5.052 5.482 2.735 9.949 4.91 9.975 4.856z" fill="#263238"/><path d="m293.157 120.326.138-6.897-23.604 8.768s-4.363-14.17-4.363-14.84l-5.23 3.289-8.694-3.738-8.694-4.297-17.586 30.779-18.447 54.396 43.472 28.99 32.228-34.54 19.593-29.854 10.772-18.91-19.585-13.146z" fill="#FF725E"/><path d="M267.593 122.097c-.014 0-.026-.241-.037-.69l-.024-1.934.106.068a29.529 29.529 0 0 0-7.107 4.867l-.19.176-.014-.258-.054-.964c-.19-3.384-.347-6.447-.45-8.665l-.108-2.627-.017-.715c-.001-.164.002-.25.01-.25.009 0 .022.085.039.247l.062.713.185 2.622c.209 3.215.4 6.408.574 9.625l-.203-.082c2.612-2.43 5.371-3.992 7.209-4.824l.109-.05-.003.117-.045 1.934c-.013.45-.028.69-.042.69zm23.388-1.439c.003.008-.09.058-.27.146l-.79.375-2.925 1.34-9.688 4.333-4.603 2.033-.196.086.036-.21c.383-2.193.563-4.417.538-6.643l.11.066-2.18 1.06-.583.27c-.133.06-.204.088-.207.082-.003-.007.061-.047.188-.119l.566-.307 2.148-1.12.105-.056.004.121a33.928 33.928 0 0 1-.463 6.684l-.16-.124 4.598-2.046 9.717-4.268 2.957-1.269.808-.333c.187-.074.286-.109.29-.1z" fill="#263238"/><path d="M249.715 222.82H71.958a6.798 6.798 0 0 1-6.798-6.798V92.944a6.798 6.798 0 0 1 6.798-6.798h177.756a6.798 6.798 0 0 1 6.798 6.798v123.079a6.797 6.797 0 0 1-6.797 6.797z" fill="#455A64"/><path d="M256.692 225.953H65.987a8.306 8.306 0 0 1-8.306-8.306v-3.654h207.316v3.654a8.305 8.305 0 0 1-8.305 8.306z" fill="#455A64"/><path d="M70.297 91.576H250.84v115.42H70.297V91.576zm71.676 121.136 2.573 4.42h36.2l2.388-4.42z" fill="#263238"/><path d="M245.966 206.627H75.543a1.527 1.527 0 0 1-1.527-1.528V97.01c0-.843.684-1.527 1.527-1.527h170.424a1.527 1.527 0 0 1 1.527 1.527V205.1c0 .843-.684 1.526-1.528 1.527z" fill="#EBEBEB"/><path d="M247.308 206.789H73.83l.186-103h173.293v103z" fill="#FAFAFA"/><path d="M88.591 99.775c0 .827-.64 1.497-1.428 1.497-.79 0-1.429-.67-1.429-1.497 0-.826.64-1.496 1.429-1.496.788 0 1.428.67 1.428 1.496zm-8.658 0c0 .827-.64 1.497-1.43 1.497-.788 0-1.428-.67-1.428-1.497 0-.826.64-1.496 1.429-1.496.79 0 1.429.67 1.429 1.496zm4.45 0c0 .827-.64 1.497-1.429 1.497s-1.428-.67-1.428-1.497c0-.826.64-1.496 1.428-1.496.79 0 1.429.67 1.429 1.496zm170.485 112.937c0 .074-42.47.134-94.85.134-52.396 0-94.858-.06-94.858-.134 0-.074 42.462-.134 94.859-.134 52.378 0 94.85.06 94.85.134z" fill="#263238"/><path d="M142.12 123.548a36.96 36.96 0 0 1 9.025-3.923l1.86-8.933 15.093-.265 2.172 8.862c3.2.787 6.28 2 9.159 3.603l7.628-5 10.86 10.486-4.728 7.798a36.953 36.953 0 0 1 3.922 9.028l8.933 1.859.265 15.094-8.862 2.172c-.788 3.2-2 6.28-3.603 9.158l5 7.629-10.485 10.86-7.8-4.728a36.974 36.974 0 0 1-9.026 3.922l-1.86 8.934-15.093.265-2.172-8.863c-3.2-.788-6.28-2-9.158-3.603l-7.629 5-10.86-10.486 4.728-7.798a36.978 36.978 0 0 1-3.923-9.026l-8.933-1.86-.265-15.093 8.863-2.173c.788-3.2 2-6.28 3.603-9.158l-5-7.63 10.486-10.86 7.8 4.729zm8.046 20.107c-6.212 6.435-6.033 16.687.402 22.899 6.435 6.212 16.687 6.032 22.899-.403 6.211-6.434 6.032-16.686-.403-22.899-6.434-6.211-16.686-6.031-22.898.403z" fill="#E0E0E0"/><path d="M202.418 129.307a12.747 12.747 0 0 1 1.05-3.225l-1.88-2.522 3.383-3.954 2.782 1.465a12.76 12.76 0 0 1 3.024-1.54l.453-3.11 5.188-.406.931 3.003c1.117.205 2.202.559 3.226 1.052l2.521-1.88 3.955 3.382-1.465 2.783a12.737 12.737 0 0 1 1.539 3.023l3.111.454.406 5.187-3.003.931a12.738 12.738 0 0 1-1.051 3.226l1.88 2.522-3.383 3.954-2.783-1.465a12.734 12.734 0 0 1-3.023 1.539l-.453 3.111-5.188.405-.931-3.002a12.758 12.758 0 0 1-3.226-1.052l-2.522 1.88-3.954-3.382 1.465-2.783a12.765 12.765 0 0 1-1.539-3.023l-3.111-.453-.405-5.188 3.003-.932zm7.03 1.574a5.587 5.587 0 0 0 6.53 6.01c2.457-.424 4.382-2.5 4.592-4.983a5.587 5.587 0 0 0-6.531-6.012c-2.456.425-4.38 2.5-4.591 4.985zm-120.68 50.53c.04-1.355.263-2.683.65-3.95l-2.645-2.606 3.238-5.22 3.51 1.212a15.05 15.05 0 0 1 3.251-2.337l-.027-3.71 5.98-1.401 1.624 3.336a15.02 15.02 0 0 1 3.951.65l2.606-2.644 5.219 3.238-1.212 3.51a15.05 15.05 0 0 1 2.337 3.25l3.711-.026 1.401 5.98-3.336 1.623a15.04 15.04 0 0 1-.65 3.951l2.645 2.606-3.239 5.22-3.509-1.213a15.057 15.057 0 0 1-3.251 2.337l.027 3.711-5.98 1.4-1.623-3.336c-1.34-.04-2.67-.258-3.952-.65l-2.606 2.645-5.22-3.238 1.212-3.51a15.062 15.062 0 0 1-2.336-3.25l-3.711.027-1.401-5.98 3.336-1.624zm8.65 1.684a6.589 6.589 0 1 0 12.83-3.005 6.589 6.589 0 0 0-12.83 3.005z" fill="#E0E0E0"/><path d="M99.507 131.55c.154-.843.421-1.66.792-2.432l-1.417-1.901 2.55-2.982 2.098 1.105a9.613 9.613 0 0 1 2.28-1.16l.341-2.346 3.911-.305.702 2.263c.853.156 1.67.426 2.432.793l1.901-1.418 2.982 2.55-1.105 2.098c.487.705.877 1.47 1.16 2.279l2.346.342.305 3.91-2.263.703a9.594 9.594 0 0 1-.793 2.432l1.417 1.9-2.55 2.982-2.097-1.104a9.627 9.627 0 0 1-2.28 1.16l-.341 2.346-3.911.305-.702-2.263a9.612 9.612 0 0 1-2.432-.793l-1.901 1.418-2.982-2.55 1.105-2.098a9.626 9.626 0 0 1-1.16-2.279l-2.346-.342-.305-3.91 2.263-.704zm5.297 1.9a4.208 4.208 0 1 0 8.398-.563 4.208 4.208 0 0 0-8.398.563zm97.81 40.216a8.268 8.268 0 0 1 .68-2.089l-1.218-1.633 2.19-2.56 1.803.948a8.257 8.257 0 0 1 1.957-.997l.294-2.014 3.36-.263.603 1.944a8.262 8.262 0 0 1 2.089.681l1.633-1.217 2.56 2.19-.948 1.802c.418.605.753 1.263.997 1.957l2.014.294.263 3.36-1.945.603a8.264 8.264 0 0 1-.68 2.089l1.217 1.633-2.19 2.56-1.802-.948a8.257 8.257 0 0 1-1.958.997l-.294 2.014-3.36.262-.602-1.944a8.244 8.244 0 0 1-2.09-.681l-1.632 1.217-2.561-2.19.949-1.802a8.275 8.275 0 0 1-.997-1.958l-2.015-.294-.262-3.36 1.945-.601zm4.55 1.632a3.615 3.615 0 1 0 7.209-.563 3.615 3.615 0 0 0-7.209.563z" fill="#EBEBEB"/><path d="M161.34 178.729h-23.218c-5.997 0-9.744-6.491-6.746-11.684l11.61-20.107 11.609-20.108c2.997-5.192 10.493-5.192 13.49 0l11.61 20.108 11.61 20.107c2.997 5.193-.75 11.684-6.746 11.684h-23.22z" fill="#FF725E"/><path d="M186.333 169.368s.065.12.182.361c.088.25.235.632.235 1.16a3.205 3.205 0 0 1-.543 1.833 3.17 3.17 0 0 1-.875.871c-.402.254-.86.404-1.335.436-3.957.043-9.67.036-16.736.053l-24.817.026-3.545.003c-1.26.027-2.456-.867-2.861-2.07a3.377 3.377 0 0 1-.118-1.88 7.54 7.54 0 0 1 .142-.458c.068-.145.133-.294.205-.434l.447-.819 1.812-3.314 7.55-13.803 7.558-13.805 3.595-6.563c.3-.536.573-1.071.89-1.598.32-.533.768-.992 1.306-1.297a3.842 3.842 0 0 1 3.511-.157c.544.253 1.031.632 1.388 1.108.35.488.593 1 .873 1.497l1.613 2.955 3.086 5.65 5.534 10.144 7.998 14.697 2.164 4.002.558 1.043c.125.236.183.36.183.36s-.073-.116-.204-.348l-.579-1.032-2.204-3.98-8.066-14.66-5.56-10.13-3.096-5.644-1.619-2.952c-.278-.494-.532-1.02-.857-1.468a3.442 3.442 0 0 0-1.306-1.04 3.616 3.616 0 0 0-3.301.151 3.409 3.409 0 0 0-1.225 1.22c-.306.509-.586 1.058-.883 1.59l-3.59 6.566-7.553 13.807-7.555 13.801-1.814 3.313c-.287.557-.651 1.07-.773 1.651a3.142 3.142 0 0 0 .108 1.748c.38 1.122 1.48 1.944 2.643 1.921l3.545.002 24.817.026 16.73.025c.46-.028.905-.17 1.297-.412.338-.221.63-.507.86-.841a3.176 3.176 0 0 0 .553-1.793c-.019-1.047-.413-1.513-.368-1.522z" fill="#263238"/><path d="M157.582 165.07c0-2.058 1.64-3.593 3.978-3.593s3.943 1.535 3.943 3.594c0 2.024-1.605 3.665-3.943 3.665s-3.978-1.64-3.978-3.665zm.035-21.078h7.887l-1.326 15.53h-5.27l-1.291-15.53zm4.835-19.471c-.017.049-.543-.261-1.478-.304-.92-.055-2.243.248-3.365 1.125-1.12.883-1.802 2.025-2.225 2.856-.423.84-.622 1.394-.66 1.38-.015-.005.018-.15.098-.403.08-.254.212-.616.408-1.051.388-.86 1.063-2.053 2.23-2.974 1.174-.918 2.57-1.206 3.526-1.105.482.046.86.16 1.105.27.245.11.368.194.361.206zm-9.708 8.532c-.058-.034.171-.528.511-1.102.34-.575.662-1.014.72-.979.058.034-.17.528-.51 1.102-.34.575-.663 1.013-.72.979z" fill="#FFF"/><path d="M172.987 135.32 136.828 157.6l-4.696 8.135 43.408-25.994-2.553-4.422zM178.68 145.194l-47.928 28.272c.137.642.567 1.47 1.04 2.015l47.736-28.82-.847-1.467z" fill="#FFF" fill-opacity=".298"/><path d="M297.134 197.918c-3.84-4.232-9.659-5.591-14.767-3.954l-4.467-4.902-.623-.696-35.34-38.774c2.125-4.925 1.336-10.85-2.503-15.08-3.265-3.599-7.963-5.122-12.438-4.491l-1.726.686 6.011 4.037-.318 6.554-4.86 4.41-6.554-.319-4.285-4.722-1.771.692c-.507 3.956 2.145 8.937 5.034 12.122 3.834 4.225 9.642 5.586 14.745 3.961l35.931 39.424 1.105 1.225 3.406 3.737c-2.113 4.92-1.32 10.834 2.513 15.059 2.878 3.172 6.695 5.29 10.666 5.183l1.771-.693-4.285-4.723.319-6.554 4.86-4.41 6.554.32 2.514 5.414 1.771-.692a14.099 14.099 0 0 0-3.263-12.814z" fill="#E0E0E0"/><path d="M297.134 197.918c-3.84-4.232-9.659-5.591-14.767-3.954l-4.467-4.902-.623-.696-35.34-38.774c2.125-4.925 1.336-10.85-2.503-15.08-3.265-3.599-7.963-5.122-12.438-4.491l-1.726.686 6.011 4.037-.318 6.554-4.86 4.41-6.554-.319-4.285-4.722-1.771.692c-.507 3.956 2.145 8.937 5.034 12.122 3.834 4.225 9.642 5.586 14.745 3.961l35.931 39.424 1.105 1.225 3.406 3.737c-2.113 4.92-1.32 10.834 2.513 15.059 2.878 3.172 6.695 5.29 10.666 5.183l1.771-.693-4.285-4.723.319-6.554 4.86-4.41 6.554.32 2.514 5.414 1.771-.692a14.099 14.099 0 0 0-3.263-12.814z" fill-opacity=".298"/><path d="M295.363 198.61c-3.84-4.231-9.659-5.59-14.768-3.954l-4.467-4.901-.622-.696-35.34-38.774c2.124-4.926 1.336-10.85-2.503-15.08-3.266-3.6-7.964-5.122-12.438-4.492l4.285 4.723-.318 6.554-4.86 4.41-6.555-.319-4.284-4.723a14.1 14.1 0 0 0 3.263 12.814c3.834 4.226 9.641 5.587 14.744 3.962l35.932 39.423 1.105 1.226 3.405 3.736c-2.112 4.921-1.32 10.834 2.513 15.06 3.265 3.598 7.963 5.121 12.438 4.49l-4.285-4.723.318-6.554 4.86-4.41 6.554.32 4.285 4.722a14.093 14.093 0 0 0-3.262-12.814z" fill="#E0E0E0"/><path d="M295.363 198.61s.203.226.592.676c.36.473.913 1.172 1.461 2.204.55 1.026 1.092 2.383 1.418 4.066a14.44 14.44 0 0 1-.159 5.88l-.022.093-.064-.07-4.292-4.717.041.02-6.554-.31.049-.018-4.855 4.415.025-.053-.313 6.555-.02-.06 4.288 4.72.111.122-.163.023c-2.3.326-4.645.085-6.83-.703a14.15 14.15 0 0 1-5.968-4.137 14.046 14.046 0 0 1-3.223-6.917 14.316 14.316 0 0 1 .962-7.92l.018.112-40.453-44.375.126.034c-2.557.809-5.29.885-7.888.22a14.193 14.193 0 0 1-6.987-4.22 14.223 14.223 0 0 1-3.287-12.92l.054-.222.153.169 4.285 4.723-.083-.04 6.554.32-.086.03 4.86-4.408-.039.082.32-6.553.03.084-4.284-4.724-.147-.163.217-.03c2.638-.357 5.34.007 7.71 1.06a14.211 14.211 0 0 1 5.866 4.776c1.46 2.046 2.357 4.447 2.573 6.873a14.488 14.488 0 0 1-1.096 7.02l-.018-.113 40.39 44.406-.056-.015c2.529-.804 4.932-.777 6.906-.428 1.977.392 3.553 1.085 4.714 1.796 1.172.704 1.93 1.42 2.444 1.88.481.5.72.757.72.757s-.253-.245-.74-.736c-.519-.452-1.28-1.16-2.453-1.853-1.16-.7-2.732-1.381-4.7-1.763-1.963-.338-4.35-.356-6.858.45l-.032.01-.024-.025-40.466-44.337-.046-.05.027-.062a14.277 14.277 0 0 0 1.074-6.915c-.216-2.39-1.1-4.752-2.539-6.764a13.993 13.993 0 0 0-5.777-4.698c-2.332-1.035-4.992-1.391-7.586-1.038l.07-.193 4.286 4.722.032.036-.002.049-.317 6.554-.003.049-.036.033-4.86 4.41-.036.033-.05-.002-6.554-.318-.05-.002-.033-.037-4.286-4.722.208-.053a14.063 14.063 0 0 0 .027 6.712 13.979 13.979 0 0 0 3.204 5.987 13.948 13.948 0 0 0 6.868 4.15c2.554.653 5.24.578 7.754-.217l.074-.024.052.058 40.43 44.396.046.05-.027.062a14.116 14.116 0 0 0-.956 7.805 13.845 13.845 0 0 0 3.172 6.823 13.965 13.965 0 0 0 5.882 4.09 14.07 14.07 0 0 0 6.744.704l-.052.144-4.281-4.726-.023-.025.002-.034.325-6.554.001-.03.023-.022 4.865-4.404.021-.019.028.001 6.554.328h.026l.016.02 4.278 4.73-.086.021a14.4 14.4 0 0 0 .181-5.843 14.448 14.448 0 0 0-1.388-4.055c-.538-1.032-1.083-1.735-1.435-2.212a46.306 46.306 0 0 1-.574-.694z" fill="#263238"/><path d="M238.554 152.546c.015.008-.04.132-.153.349a7.84 7.84 0 0 1-.544.88 11.375 11.375 0 0 1-5.347 4.11c-.412.149-.751.25-.99.3-.24.053-.372.075-.376.059-.011-.04.508-.184 1.304-.517 1.034-.435 2.01-1 2.901-1.681a13.236 13.236 0 0 0 2.371-2.372c.526-.684.799-1.148.834-1.128z" fill="#263238"/><path d="m278.02 169.387-13.444-6.254-12-1.496 4.408 3.711s-15.511 5.406-15.783 6.625c-.272 1.219 1.225 4.493 3.957 3.889 0 0-1.537 1.849-.897 3.921.64 2.072 2.053 2.447 4.66 1.966 0 0-1.773 2.656-.382 4.01 1.39 1.354 3.554 1.01 3.554 1.01s.027 3.235 1.735 3.518c1.71.283 6.47-.053 8.246-.6l9.03-2.79 5.885-1.29 1.031-16.22z" fill="#FFBF9D"/><path d="M253.314 173.493c.052.178-1.733.852-3.986 1.507-2.253.654-4.121 1.04-4.173.863-.051-.178 1.733-.852 3.987-1.507 2.252-.655 4.12-1.041 4.172-.863zm2.284 6.383c.053.178-1.365.761-3.166 1.304-1.803.542-3.307.838-3.36.661-.054-.177 1.364-.76 3.166-1.303 1.802-.543 3.306-.839 3.36-.662zm2.048 5.304c.031.2-1.256.472-2.769.851-1.505.395-2.69.913-2.783.738-.087-.146 1.002-.96 2.612-1.386 1.602-.4 2.916-.368 2.94-.203zm1.696-20.347c.05.182-1.712.82-3.888 1.572-2.178.747-3.959 1.327-4.03 1.153-.071-.167 1.612-1.032 3.812-1.787 2.2-.758 4.058-1.113 4.106-.938z" fill="#FF9A6C"/><path d="m275.493 168.212 29.067 10.527-1.698 19.951-32.002-12.902 4.633-17.576z" fill="#FFBF9D"/><path d="M312.788 133.3s3.79 3.916 5.996 10.958c2.19 6.993 12.615 36.893 12.35 46.393-.275 9.823-6.888 16.832-21.42 12.95-8.673-2.316-19.002-6.06-19.002-6.06l7.342-24.143 5.745 1.448-9.276-17.413 18.265-24.134z" fill="#FF725E"/><path d="M306.138 144.712c.055.039-3.965 5.766-8.977 12.79-5.014 7.026-9.12 12.689-9.175 12.65-.055-.04 3.964-5.765 8.977-12.791 5.012-7.025 9.12-12.689 9.175-12.65zm11.12 33.437c-.01.017-.25-.123-.705-.331a13.08 13.08 0 0 0-1.993-.705c-.861-.238-1.907-.46-3.067-.713l-3.773-.834c-2.285-.51-4.563-1.031-6.842-1.567l-2.068-.502c-.486-.124-.754-.2-.75-.217.004-.016.279.029.772.125l2.084.426c1.758.37 4.183.9 6.86 1.498l3.767.852c1.157.264 2.2.505 3.065.767.864.26 1.541.546 1.987.785.224.117.391.219.501.293.111.074.167.116.162.123z" fill="#263238"/><path d="M324.69 179.2c-.116-1.153-.98-2.127-2-2.674-1.022-.548-2.193-.739-3.34-.896-5.225-.717-10.504-.915-15.774-1.113l.488.212a98.336 98.336 0 0 1 19.016 5.54c.353.143.754.288 1.101.133.425-.19.555-.74.508-1.202zM204.93 86.627c-4.899-.833-10.759.589-15.657-.244-.733-.125-1.533-.238-2.177.133-.773.445-1.04 1.432-1.078 2.323-.105 2.467 1.036 4.9 2.816 6.61 1.78 1.71 4.15 2.73 6.583 3.144 1.956.332 4.057.268 5.802-.676 3.044-1.65 4.518-7.922 3.71-11.29z" fill-opacity=".298"/><path d="M185.916 95.592s-2.973-3.482-3.404-5.09c-.286-1.066-.142-4.045-.013-5.935.089-1.295.893-2.478 2.122-2.895.428-.145.834-.163 1.109.09 0 0 .188-.326 1.354-1.52 1.167-1.194 1.72-2.004 4.289-1.26 0 0 1.888-1.995 2.975-1.846a17 17 0 0 1 2.163.466s4.139-.174 4.987 1.14c.372.575 1.137.977 1.88 1.247 1.307.474 2.381 1.426 2.953 2.694.777 1.725.826 3.608.826 3.608l-4.212.167s.298 9.662-.76 10.442c-1.058.78-1.463.502-1.463.502s-.807 2.268-3.956.59c0 0-2.614.788-3.73-.29-1.115-1.077-5.216-11.433-5.216-11.433l.114 5.146s2.16 3.331 1.103 4.11c-1.057.78-3.121.067-3.121.067z" fill="#FFBF9D"/><path d="M191.16 82.494c.017-.005.101.211.24.606l.569 1.683a421.388 421.388 0 0 1 1.788 5.577c.691 2.181 1.248 4.178 1.895 5.523.246.534.533 1.049.857 1.54.228.349.374.53.357.544-.006.005-.049-.035-.124-.117a4.408 4.408 0 0 1-.31-.373 9.491 9.491 0 0 1-.935-1.52c-.696-1.346-1.282-3.348-1.972-5.524a421.605 421.605 0 0 1-1.72-5.599l-.495-1.705c-.112-.404-.166-.63-.15-.635zm5.168-1.193c.016-.004.092.22.214.626l.497 1.73c.53 1.906 1.046 3.812 1.55 5.726a433.627 433.627 0 0 1 1.482 5.746l.423 1.749c.094.414.139.645.122.65-.016.005-.091-.219-.214-.625l-.496-1.729a431.938 431.938 0 0 1-1.551-5.729c-.508-1.914-1-3.826-1.482-5.746l-.422-1.749c-.094-.413-.14-.644-.123-.649z" fill="#FF9A6C"/></svg>