<svg xmlns="http://www.w3.org/2000/svg" viewBox="0 0 500 500" style="enable-background:new 0 0 500 500" xml:space="preserve"><path style="fill:#fafafa" d="M123.685 313.002c-69.76 40.276-69.758 105.577.004 145.853 69.762 40.276 182.867 40.276 252.627 0 69.76-40.276 69.758-105.577-.004-145.853-69.762-40.277-182.867-40.277-252.627 0z"/><ellipse style="fill:#e0e0e0" cx="250.136" cy="394.183" rx="60.54" ry="34.953"/><path style="fill:#455a64" d="m312.404 342.182.559-1.867.685-2.249 35.703-117.287c-1.239.939-4.112 1.099-7.092.307-3.47-.924-6.499-2.87-7.016-4.669L299.72 333.106l-1.292 4.305c.991-2.74 14.933 2.008 13.976 4.771z"/><path style="fill:#ebebeb" d="m299.651 333.303-1.244 4.17c-.401 1.197 1.943 2.742 4.835 3.899 3.837 1.547 8.64 2.408 9.174.823l.923-3.072.31-1.104c-.534 1.584-5.338.727-9.175-.82-2.77-1.112-5.042-2.593-4.85-3.763l.004-.013a.238.238 0 0 1 .023-.12z"/><path style="fill:#ba68c8" d="M299.349 334.346c-.936 2.777 13.064 7.496 14 4.719l1.259-4.169c-.937 2.777-14.934-1.942-13.999-4.719l-1.26 4.169z"/><path style="fill:#ebebeb" d="m301.807 326.205-1.244 4.116c-.939 2.721 12.53 7.408 13.928 4.961.029-.04.05-.095.071-.15l1.22-4.156c-.99 2.74-14.932-2.009-13.975-4.771z"/><path style="fill:#f28f8f" d="m298.404 337.419.026-.007-.011.06c-.426 1.195 1.931 2.734 4.831 3.893 3.769 1.536 8.482 2.409 9.13.898l-5.234 17.393c-.557 1.43-1.991 2.06-3.724 2.126-4.667.188-11.564-3.715-10.077-7.555l5.059-16.808zM345.944 203.6c2.012.866 2.825.543 2.825.543l.581 16.633c-2.042 2.143-6.197 2.018-9.496.484l.23-.789 5.86-16.871z"/><path style="fill:#37474f" d="m348.61 199.618.159 4.526s-.792.391-2.825-.543l1.504-4.332a.637.637 0 0 1 .878-.161.62.62 0 0 1 .284.51z"/><path style="fill:#ffa8a7" d="m335.239 216.43.004-.014-.009-.003 9.83-13.797c.173.411.487.771.88.984l-5.859 16.872-.23.789c-2.253-1.045-4.104-2.747-4.616-4.831z"/><path style="fill:#455a64" d="M345.944 203.6c-.501-.195-.87-.762-.88-.984l2.384-3.348-1.504 4.332z"/><path style="opacity:.2" d="M339.854 221.262 299.332 361.1c1.386.471 2.819.73 4.087.676 1.744-.061 3.159-.697 3.721-2.127l5.264-17.467.559-1.867.685-2.249 35.703-117.287c-2.54 2.635-7.458 1.541-9.497.483z"/><path style="fill:#ba68c8" d="m156.547 235.971-.004.002s6.017 31.275 15.641 61.046c9.543 29.519 25.461 59.957 28.161 64.576l.032.056.042.072.007-.003a2.305 2.305 0 0 0 1.767 1.072 2.319 2.319 0 0 0 2.495-2.128c.014-.18.003-.355-.023-.527l.004-.001s-4.962-40.224-14.357-69.255c-9.395-29.03-23.072-58.417-23.072-58.417l-.002.001c-.329-.675-1.068-1.2-2.181-1.437-2.49-.53-5.89.572-7.594 2.463-.777.858-1.063 1.732-.916 2.48z"/><path style="opacity:.1" d="M204.687 360.663c.014-.18.003-.355-.023-.527l.004-.001s-4.962-40.224-14.357-69.255c-6.319-19.527-14.576-39.215-19.305-50.013l-6.395 3.378s39.457 117.817 37.581 118.546a2.318 2.318 0 0 0 2.495-2.128z"/><path style="fill:#ebebeb" d="m167.239 232.463-.002.001c-.329-.675-1.069-1.2-2.181-1.437-2.49-.53-5.89.572-7.594 2.463-.775.859-1.061 1.733-.914 2.48l-.004.002s.807 4.189 2.297 10.944c4.486 2.039 10.847.006 12.899-4.201.013-.027.022-.061.035-.089-2.737-6.295-4.536-10.163-4.536-10.163z"/><path style="opacity:.1" d="M164.833 247.5c2.957-.57 5.689-2.291 6.906-4.784.013-.027.022-.061.035-.089-2.735-6.296-4.534-10.164-4.534-10.164l-.002.001c-.329-.675-1.069-1.2-2.181-1.437-1.422-.303-3.135-.06-4.666.546l4.442 15.927z"/><path style="fill:#455a64" d="M169.411 218.852c-.11-1.85-.43-3.83-1.04-5.95-.28-.97-.64-1.88-1.06-2.73-3.17-2-5.13-.11-8.12.74-.95.27-1.99.44-3.21.34-4.17-.33-4.8-3.74-7.92-4.32-3.11-.58-4.82 4.88-4.84 4.93 0 .59-.01 1.18-.01 1.78 0 3.84.22 7.99 3.11 12.74 4.28 7.03 10.22 9.59 10.22 9.59 1.02.15 2.04.2 3.05.13 3.03-.18 5.87-1.35 7.65-3.64.34-1.22.73-2.52 1.09-3.92.09-.35.18-.7.26-1.06.17-.73.33-1.48.46-2.26.2-1.16.34-2.39.39-3.68.03-.87.03-1.76-.03-2.69z"/><path style="fill:#37474f" d="M169.411 218.852a27.713 27.713 0 0 0-1.043-5.953 16.144 16.144 0 0 0-1.059-2.726 5.894 5.894 0 0 0-1.502-.696c-1.769-.521-3.214.149-4.879.818-.55.221-1.122.442-1.74.618 3.988 6.907.988 22.117.405 25.187 3.027-.181 5.863-1.349 7.643-3.635l.001-.007c.153-.544.318-1.112.484-1.691.204-.716.41-1.453.609-2.227.09-.35.18-.7.26-1.06.17-.73.33-1.48.46-2.26.047-.276.079-.568.119-.851.128-.911.232-1.847.271-2.834.005-.118.002-.242.005-.361.02-.752.018-1.52-.034-2.322z"/><path style="fill:#ba68c8" d="M167.29 210.134a16.755 16.755 0 0 0-.728-1.313c-.026-.042-.055-.082-.082-.124-.2-.317-.413-.62-.63-.918-.084-.115-.167-.232-.253-.344-.068-.088-.141-.172-.211-.259a15.854 15.854 0 0 0-.87-1.003 18.476 18.476 0 0 0-1.174-1.137 20.505 20.505 0 0 0-2.554-1.919c-3.053-1.947-6.399-3.017-9.008-3.468a20.972 20.972 0 0 0-.889-.134 18.398 18.398 0 0 0-.791-.085 27.852 27.852 0 0 0-4.845.025 26.36 26.36 0 0 0-3.728.618 23.721 23.721 0 0 0-1.377.381c-.401.124-.741.243-1.017.346-.552.206-.846.35-.846.35s3.567 1.7 4.664 7.134c.229 1.131.279 2.329.275 3.581.014-.046 1.732-5.506 4.839-4.93 3.121.578 3.746 3.992 7.914 4.324 1.221.097 2.267-.072 3.212-.341 2.986-.852 4.955-2.745 8.12-.741l-.021-.043z"/><path style="opacity:.6;fill:#fff" d="M167.29 210.134a16.755 16.755 0 0 0-.728-1.313c-.026-.042-.055-.082-.082-.124-.2-.317-.413-.62-.63-.918-.084-.115-.167-.232-.253-.344-.068-.088-.141-.172-.211-.259a15.854 15.854 0 0 0-.87-1.003 18.476 18.476 0 0 0-1.174-1.137 20.505 20.505 0 0 0-2.554-1.919c-3.053-1.947-6.399-3.017-9.008-3.468a20.972 20.972 0 0 0-.889-.134 18.398 18.398 0 0 0-.791-.085 27.852 27.852 0 0 0-4.845.025 26.36 26.36 0 0 0-3.728.618 23.721 23.721 0 0 0-1.377.381c-.401.124-.741.243-1.017.346-.552.206-.846.35-.846.35s3.567 1.7 4.664 7.134c.229 1.131.279 2.329.275 3.581.014-.046 1.732-5.506 4.839-4.93 3.121.578 3.746 3.992 7.914 4.324 1.221.097 2.267-.072 3.212-.341 2.986-.852 4.955-2.745 8.12-.741l-.021-.043z"/><path style="opacity:.3;fill:#ba68c8" d="M138.286 201.147c.001 0 8.987-1.045 18.078 6.388 1.166.953 2.091 2.106 2.826 3.379 2.987-.852 4.955-2.745 8.12-.741l-.02-.04a16.755 16.755 0 0 0-.728-1.313c-.026-.042-.055-.082-.082-.124-.2-.317-.413-.62-.63-.918-.084-.114-.166-.232-.253-.344-.069-.089-.141-.172-.211-.259a15.854 15.854 0 0 0-.87-1.003 18.476 18.476 0 0 0-1.174-1.137 20.505 20.505 0 0 0-2.554-1.919c-3.053-1.947-6.399-3.017-9.008-3.468a18.632 18.632 0 0 0-.695-.109l-.194-.025c-.273-.034-.54-.065-.79-.085a27.95 27.95 0 0 0-4.845.025 26.36 26.36 0 0 0-3.728.618 23.081 23.081 0 0 0-1.377.38c-.401.124-.741.243-1.017.346-.554.205-.848.349-.848.349z"/><circle style="fill:#fff" cx="349.185" cy="378.629" r="32.253"/><path style="fill:#ba68c8" d="M349.185 411.821c-18.302 0-33.192-14.89-33.192-33.192 0-18.303 14.89-33.193 33.192-33.193 18.303 0 33.193 14.89 33.193 33.193-.001 18.302-14.891 33.192-33.193 33.192zm0-64.506c-17.266 0-31.314 14.047-31.314 31.314 0 17.266 14.047 31.313 31.314 31.313s31.314-14.047 31.314-31.313c0-17.267-14.048-31.314-31.314-31.314z"/><path style="fill:#ba68c8" d="M342.822 356.441h12.727v5.727h-12.727z"/><path style="opacity:.6;fill:#fff" d="M342.822 356.441h12.727v5.727h-12.727z"/><path style="fill:#ba68c8" d="M359.535 386.948h12.727v5.727h-12.727z"/><path style="opacity:.6;fill:#fff" d="M359.535 386.948h12.727v5.727h-12.727z"/><path style="fill:#455a64" d="M355.941 362.561h-13.512v-6.512h13.512v6.512zm-12.727-.785h11.942v-4.941h-11.942v4.941zM345.814 372.661h-13.513v-6.512h13.513v6.512zm-12.728-.786h11.942v-4.941h-11.942v4.941zM366.004 372.661h-13.513v-6.512h13.513v6.512zm-12.727-.786h11.942v-4.941h-11.942v4.941zM366.004 382.06h-13.513v-6.513h13.513v6.513zm-12.727-.785h11.942v-4.942h-11.942v4.942zM345.814 382.06h-13.513v-6.513h13.513v6.513zm-12.728-.785h11.942v-4.942h-11.942v4.942zM339.227 393.067h-13.512v-6.513h13.512v6.513zm-12.726-.785h11.941v-4.942h-11.941v4.942zM355.941 393.067h-13.512v-6.513h13.512v6.513zm-12.727-.785h11.942v-4.942h-11.942v4.942zM372.655 393.067h-13.512v-6.513h13.512v6.513zm-12.727-.785h11.941v-4.942h-11.941v4.942z"/><path style="fill:#455a64" d="M348.793 362.168h.785v2.077h-.785z"/><path style="fill:#455a64" d="M359.641 366.542h-.785v-1.904H339.45v1.904h-.785v-2.689h20.976zM338.697 381.658h.785v2.077h-.785z"/><path style="fill:#455a64" d="M349.546 387.03h-.786v-2.902h-15.674v2.902h-.785v-3.688h17.245zM338.665 372.268h.785v3.672h-.785zM358.856 372.268h.785v3.672h-.785z"/><path style="fill:#455a64" d="M366.292 386.947h-.786v-2.819h-16.353v-.786h17.139zM317.337 428.009v-7.849c0-.199.176-.3.528-.3h.275c.344 0 .517.101.517.3v7.849c0 .199-.173.3-.517.3h-.275c-.352 0-.528-.101-.528-.3zM320.373 428.009v-7.849c0-.199.176-.3.528-.3h.288c.128 0 .233.018.318.054a.392.392 0 0 1 .197.21l2.604 4.944c.103.2.216.473.336.816l.06-.024a3.98 3.98 0 0 1-.096-.84v-4.86c0-.199.176-.3.528-.3h.18c.352 0 .528.101.528.3v7.849c0 .199-.177.3-.528.3h-.24c-.264 0-.428-.076-.492-.229l-2.699-5.124a4.243 4.243 0 0 1-.313-.756l-.06.024c.064.296.096.564.096.804v4.98c0 .199-.176.3-.528.3h-.18c-.352.001-.527-.1-.527-.299zM327.513 428.009v-7.729c0-.136.027-.235.084-.3.056-.064.147-.096.275-.096h3.168c.177 0 .265.143.265.432v.24c0 .288-.088.432-.265.432h-2.22v2.448h2.04c.176 0 .264.144.264.432v.24c0 .288-.088.432-.264.432h-2.04v3.469c0 .199-.176.3-.528.3h-.252c-.351 0-.527-.101-.527-.3zM333.051 427.307c-.517-.708-.775-1.786-.775-3.234 0-2.848 1.012-4.272 3.036-4.272 2.032 0 3.048 1.424 3.048 4.272 0 2.864-1.016 4.296-3.048 4.296-.991 0-1.745-.354-2.261-1.062zm3.552-.81c.284-.512.426-1.319.426-2.424 0-1.104-.142-1.906-.426-2.406-.284-.499-.71-.75-1.278-.75-.575 0-1.004.248-1.283.744-.28.496-.42 1.301-.42 2.412 0 1.104.142 1.912.426 2.424.283.513.71.769 1.277.769.568-.001.994-.257 1.278-.769zM339.753 428.009v-7.729c0-.264.124-.395.372-.395h1.848c.776 0 1.364.172 1.765.516.399.344.6.904.6 1.68 0 .96-.372 1.637-1.116 2.028v.048c.168.088.316.248.444.48.128.232.256.544.384.936l.744 2.34.024.09a.29.29 0 0 1 .012.078c0 .152-.185.229-.552.229h-.265a.903.903 0 0 1-.348-.061c-.096-.04-.156-.096-.18-.168l-.696-2.34c-.12-.376-.258-.632-.414-.768-.156-.136-.386-.204-.69-.204h-.624v3.24c0 .199-.181.3-.54.3h-.228c-.361 0-.54-.101-.54-.3zm2.352-4.392c.256 0 .474-.13.653-.39.181-.26.271-.582.271-.966 0-.433-.088-.752-.265-.96-.176-.208-.416-.313-.72-.313h-.996v2.628h1.057zM348.717 425.273l-1.261-2.437a6.352 6.352 0 0 1-.323-.756l-.049.024c.04.296.061.56.061.792v5.112c0 .199-.176.3-.528.3h-.216c-.353 0-.528-.101-.528-.3v-7.849c0-.199.176-.3.528-.3h.288c.271 0 .448.084.528.252l1.8 3.48c.088.176.151.368.191.575.057-.224.124-.415.204-.575l1.8-3.48c.089-.168.265-.252.528-.252h.288c.352 0 .528.101.528.3v7.849c0 .199-.177.3-.528.3h-.216c-.353 0-.528-.101-.528-.3v-5.112c0-.232.021-.496.061-.792l-.049-.024c-.111.305-.22.557-.323.756l-1.261 2.437c-.056.136-.164.204-.323.204h-.349c-.16 0-.267-.068-.323-.204zM353.457 428.093c0-.024.008-.084.023-.181l2.076-7.788c.056-.176.24-.264.553-.264h.504c.336 0 .519.088.552.264l2.076 7.788a.624.624 0 0 1 .036.181c0 .143-.156.216-.469.216h-.323c-.297 0-.461-.068-.492-.204l-.456-1.824h-2.364l-.444 1.824c-.031.136-.191.204-.479.204h-.313c-.32 0-.48-.072-.48-.216zm3.84-2.892-.768-3.071a10.007 10.007 0 0 1-.133-.78h-.06l-.048.288a4.22 4.22 0 0 1-.096.492l-.757 3.071h1.862zM361.161 428.009v-7.021h-1.62c-.088 0-.152-.034-.192-.102-.04-.068-.06-.179-.06-.33v-.24c0-.152.02-.262.06-.33.04-.067.104-.101.192-.101h4.536c.096 0 .164.034.204.101.04.068.059.178.059.33v.24c0 .151-.02.262-.059.33-.04.067-.108.102-.204.102h-1.608v7.021c0 .199-.176.3-.527.3h-.253c-.353 0-.528-.101-.528-.3zM365.445 428.009v-7.849c0-.199.176-.3.528-.3h.275c.344 0 .517.101.517.3v7.849c0 .199-.173.3-.517.3h-.275c-.352 0-.528-.101-.528-.3zM369.003 427.307c-.517-.708-.774-1.786-.774-3.234 0-2.848 1.012-4.272 3.036-4.272 2.032 0 3.048 1.424 3.048 4.272 0 2.864-1.016 4.296-3.048 4.296-.993 0-1.747-.354-2.262-1.062zm3.551-.81c.284-.512.426-1.319.426-2.424 0-1.104-.142-1.906-.426-2.406-.284-.499-.71-.75-1.278-.75-.575 0-1.004.248-1.283.744-.28.496-.42 1.301-.42 2.412 0 1.104.142 1.912.426 2.424.283.513.71.769 1.277.769.568-.001.994-.257 1.278-.769zM375.668 428.009v-7.849c0-.199.176-.3.528-.3h.288c.128 0 .233.018.318.054a.392.392 0 0 1 .197.21l2.604 4.944c.103.2.216.473.336.816l.06-.024a3.98 3.98 0 0 1-.096-.84v-4.86c0-.199.176-.3.528-.3h.18c.351 0 .528.101.528.3v7.849c0 .199-.177.3-.528.3h-.24c-.264 0-.428-.076-.492-.229l-2.699-5.124a4.243 4.243 0 0 1-.313-.756l-.06.024c.063.296.096.564.096.804v4.98c0 .199-.176.3-.528.3h-.18c-.351.001-.527-.1-.527-.299zM324.322 442.493c0-.023.008-.084.023-.18l2.076-7.788c.056-.176.24-.264.553-.264h.504c.336 0 .52.088.552.264l2.076 7.788a.625.625 0 0 1 .036.18c0 .145-.156.216-.469.216h-.323c-.297 0-.461-.067-.492-.204l-.456-1.823h-2.364l-.444 1.823c-.031.137-.192.204-.48.204h-.313c-.319-.001-.479-.072-.479-.216zm3.84-2.892-.768-3.072a9.917 9.917 0 0 1-.133-.78h-.059l-.048.288a4.18 4.18 0 0 1-.096.492l-.757 3.072h1.861zM331.101 442.409v-7.727c0-.265.124-.397.372-.397h1.848c.776 0 1.364.172 1.765.517.399.344.6.903.6 1.68 0 .96-.372 1.636-1.116 2.028v.048c.168.088.316.248.444.479.128.233.256.544.384.937l.744 2.34.024.09a.285.285 0 0 1 .012.078c0 .152-.185.228-.552.228h-.265a.904.904 0 0 1-.348-.06c-.096-.04-.156-.096-.18-.168l-.696-2.34c-.12-.376-.258-.632-.414-.769-.156-.136-.386-.204-.689-.204h-.624v3.24c0 .2-.181.3-.54.3h-.228c-.361-.001-.541-.1-.541-.3zm2.353-4.392c.256 0 .474-.13.653-.391.181-.26.271-.582.271-.966 0-.432-.088-.752-.265-.96-.176-.208-.416-.312-.72-.312h-.996v2.628h1.057zM337.732 441.725c-.509-.696-.763-1.78-.763-3.252 0-1.44.26-2.513.78-3.217.52-.703 1.315-1.056 2.388-1.056.208 0 .416.02.624.061.208.04.389.088.54.143.097.032.162.08.198.144a.514.514 0 0 1 .054.253c-.008.191-.05.382-.126.569-.076.189-.178.25-.306.187a2.206 2.206 0 0 0-.96-.217c-.632 0-1.098.255-1.398.763-.3.508-.449 1.298-.449 2.37s.149 1.865.449 2.382c.301.516.767.773 1.398.773.368 0 .712-.084 1.032-.252a.372.372 0 0 1 .107-.023c.12 0 .214.08.282.24.067.16.102.332.102.516 0 .192-.103.332-.311.42a3.38 3.38 0 0 1-1.26.24c-1.079 0-1.873-.349-2.381-1.044zM342.79 442.409v-7.848c0-.2.176-.3.527-.3h.276c.336 0 .504.1.504.3v3.264h2.844v-3.264c0-.2.176-.3.528-.3h.252c.352 0 .528.1.528.3v7.848c0 .2-.177.3-.528.3h-.252c-.353 0-.528-.1-.528-.3v-3.468h-2.844v3.468c0 .2-.168.3-.504.3h-.276c-.352-.001-.527-.1-.527-.3zM350.049 442.409v-7.848c0-.2.176-.3.528-.3h.275c.344 0 .517.1.517.3v7.848c0 .2-.173.3-.517.3h-.275c-.352-.001-.528-.1-.528-.3zM354.357 442.409v-7.02h-1.62c-.088 0-.152-.034-.192-.103-.04-.067-.06-.178-.06-.33v-.239c0-.152.02-.263.06-.33.04-.068.104-.103.192-.103h4.536c.096 0 .164.034.204.103.04.067.06.178.06.33v.239c0 .152-.02.263-.06.33-.04.068-.108.103-.204.103h-1.608v7.02c0 .2-.176.3-.527.3h-.253c-.352-.001-.528-.1-.528-.3zM358.677 442.588c-.057-.064-.084-.163-.084-.3v-7.607c0-.137.027-.236.084-.301.056-.064.147-.096.275-.096h3.48c.176 0 .264.145.264.433v.239c0 .288-.088.433-.264.433H359.9v2.447h2.268c.176 0 .264.145.264.433v.24c0 .287-.088.432-.264.432H359.9v2.64h2.532c.096 0 .164.034.204.103.04.067.06.178.06.33v.239c0 .152-.02.263-.06.33-.04.068-.108.103-.204.103h-3.48c-.127-.001-.219-.033-.275-.098zM364.527 441.725c-.509-.696-.763-1.78-.763-3.252 0-1.44.26-2.513.78-3.217.52-.703 1.315-1.056 2.388-1.056.208 0 .416.02.624.061.208.04.389.088.54.143.097.032.162.08.198.144a.514.514 0 0 1 .054.253c-.008.191-.05.382-.126.569-.076.189-.178.25-.306.187a2.206 2.206 0 0 0-.96-.217c-.632 0-1.098.255-1.398.763-.3.508-.449 1.298-.449 2.37s.149 1.865.449 2.382c.301.516.767.773 1.398.773.368 0 .712-.084 1.032-.252a.372.372 0 0 1 .107-.023c.12 0 .214.08.282.24.067.16.102.332.102.516 0 .192-.104.332-.312.42a3.38 3.38 0 0 1-1.26.24c-1.078 0-1.872-.349-2.38-1.044zM370.797 442.409v-7.02h-1.62c-.088 0-.152-.034-.192-.103-.04-.067-.06-.178-.06-.33v-.239c0-.152.02-.263.06-.33.04-.068.104-.103.192-.103h4.536c.096 0 .164.034.204.103.04.067.06.178.06.33v.239c0 .152-.02.263-.06.33-.04.068-.108.103-.204.103h-1.608v7.02c0 .2-.176.3-.527.3h-.253c-.353-.001-.528-.1-.528-.3z"/><circle style="fill:#fff" cx="414.97" cy="289.501" r="32.253"/><path style="fill:#ba68c8" d="M414.971 322.694c-18.303 0-33.193-14.89-33.193-33.192 0-18.303 14.89-33.193 33.193-33.193 18.302 0 33.192 14.89 33.192 33.193 0 18.301-14.89 33.192-33.192 33.192zm0-64.507c-17.267 0-31.314 14.047-31.314 31.314 0 17.266 14.047 31.314 31.314 31.314 17.266 0 31.314-14.047 31.314-31.314-.001-17.266-14.048-31.314-31.314-31.314z"/><path style="fill:#ba68c8" d="M423.873 305.178a.848.848 0 0 0-.109-.035c-.005-.002-.005.002-.011-.001-.005.002-.016-.003-.022-.005-.005-.002-.011-.001-.011-.001-.033-.006-.06-.005-.087-.005h-15.938c-.294-.001-.534.206-.534.464v5.629c0 .021 0 .045.005.068 0 .004 0 .008.006.015.044.219.262.379.523.382l15.938-.004a.545.545 0 0 0 .376-.135.419.419 0 0 0 .158-.324v-5.633a.463.463 0 0 0-.294-.415z"/><path style="opacity:.6;fill:#fff" d="M423.873 305.178a.848.848 0 0 0-.109-.035c-.005-.002-.005.002-.011-.001-.005.002-.016-.003-.022-.005-.005-.002-.011-.001-.011-.001-.033-.006-.06-.005-.087-.005h-15.938c-.294-.001-.534.206-.534.464v5.629c0 .021 0 .045.005.068 0 .004 0 .008.006.015.044.219.262.379.523.382l15.938-.004a.545.545 0 0 0 .376-.135.419.419 0 0 0 .158-.324v-5.633a.463.463 0 0 0-.294-.415z"/><path style="fill:#455a64" d="M407.696 312.189c-.483-.006-.896-.314-1.004-.741a.477.477 0 0 1-.015-.054l-.004-.02c-.003-.021-.006-.042-.007-.063a1.218 1.218 0 0 1-.005-.088v-5.629c0-.531.464-.964 1.034-.964l15.938.001a1.632 1.632 0 0 1 .167.012l.011.001.022.003.033.008a.202.202 0 0 1 .033.009.225.225 0 0 0-.048-.014c.024.004.049.01.072.018.058.018.104.032.14.047l.011.005c.361.157.595.5.595.872v5.633a.918.918 0 0 1-.341.711.916.916 0 0 1-.7.249l-15.932.004zm-.034-.984.001.004 15.971-.023.034-5.549-.016-.004-.021-.003-15.935.002-.034 5.573zM423.467 302.692h-15.741a.5.5 0 0 1-.5-.5v-2.401c-.417-.364-1.479-1.358-2.83-3.126-1.023-1.338-2.009-2.941-3.053-4.64-.7-1.139-1.424-2.315-2.179-3.44a88.576 88.576 0 0 0-1.005-1.456c-1.448-2.067-2.404-3.434-1.397-4.467.546-.559 2.193-1.094 4.008-.467 1.785.618 3.647 2.25 5.106 3.786v-18.909a3.185 3.185 0 0 1 3.179-3.18 3.185 3.185 0 0 1 3.18 3.18v8.214c1.14-.173 3.536-.285 4.882 1.504 1.463-.437 3.981-.413 5.356 2.179 1.152-.073 3.07.365 4.031 2.572 1.163 2.678.776 6.852.026 9.864-.59 2.369-2.318 7.51-2.564 8.235v2.552a.498.498 0 0 1-.499.5zm-15.241-1h14.741v-2.134a.51.51 0 0 1 .026-.16c.02-.058 1.955-5.777 2.566-8.235.711-2.853 1.091-6.774.026-9.224-1.02-2.346-3.216-1.958-3.309-1.939a.504.504 0 0 1-.551-.284c-1.414-3.108-4.491-1.918-4.622-1.864a.502.502 0 0 1-.616-.207c-1.276-2.128-4.59-1.276-4.625-1.267a.5.5 0 0 1-.629-.483v-8.822a2.184 2.184 0 0 0-2.18-2.18 2.184 2.184 0 0 0-2.179 2.18v20.2a.5.5 0 0 1-.876.329c-2.085-2.382-4.007-3.924-5.558-4.461-1.462-.508-2.697-.054-2.964.219-.43.44.38 1.597 1.5 3.195.314.449.657.94 1.016 1.474a101.965 101.965 0 0 1 2.2 3.474c1.03 1.676 2.003 3.258 2.996 4.556 1.633 2.137 2.834 3.1 2.846 3.109a.502.502 0 0 1 .189.392v2.132z"/><path style="fill:#455a64" d="M411.735 279.298a.5.5 0 0 1-.5-.5v-2.904a.5.5 0 0 1 1 0v2.904a.5.5 0 0 1-.5.5zM416.918 280.586a.5.5 0 0 1-.5-.5v-2.698a.5.5 0 0 1 1 0v2.698a.5.5 0 0 1-.5.5zM422.182 282.452a.5.5 0 0 1-.5-.5v-2.442a.5.5 0 0 1 1 0v2.442a.5.5 0 0 1-.5.5zM384.192 338.814v-7.848c0-.2.176-.3.528-.3h.275c.344 0 .517.1.517.3v7.848c0 .2-.173.3-.517.3h-.275c-.352 0-.528-.1-.528-.3zM387.227 338.814v-7.848c0-.2.176-.3.528-.3h.288c.128 0 .233.018.318.054a.392.392 0 0 1 .197.21l2.604 4.944c.104.199.216.472.336.815l.06-.023a3.983 3.983 0 0 1-.096-.841v-4.859c0-.2.176-.3.528-.3h.18c.352 0 .528.1.528.3v7.848c0 .2-.177.3-.528.3h-.24c-.264 0-.428-.075-.492-.228l-2.699-5.124a4.243 4.243 0 0 1-.313-.756l-.06.023c.063.296.096.565.096.805v4.979c0 .2-.176.3-.528.3h-.18c-.351.001-.527-.099-.527-.299zM395.58 338.814v-7.02h-1.62c-.088 0-.152-.034-.192-.103-.04-.067-.06-.178-.06-.33v-.239c0-.152.02-.263.06-.33.04-.068.104-.103.192-.103h4.536c.096 0 .164.034.204.103.04.067.06.178.06.33v.239c0 .152-.02.263-.06.33-.04.068-.108.103-.204.103h-1.608v7.02c0 .2-.176.3-.527.3h-.253c-.353 0-.528-.1-.528-.3zM399.9 338.994c-.057-.064-.084-.163-.084-.3v-7.607c0-.137.027-.236.084-.301.056-.064.147-.096.275-.096h3.48c.176 0 .264.145.264.433v.239c0 .288-.088.433-.264.433h-2.532v2.447h2.269c.176 0 .264.145.264.433v.24c0 .287-.088.432-.264.432h-2.269v2.64h2.532c.096 0 .164.034.204.103.04.067.06.178.06.33v.239c0 .152-.02.263-.06.33-.04.068-.108.103-.204.103h-3.48c-.128-.002-.219-.034-.275-.098zM405.275 338.814v-7.728c0-.265.124-.396.372-.396h1.848c.776 0 1.364.172 1.765.517.399.344.6.903.6 1.68 0 .96-.372 1.636-1.116 2.028v.048c.168.088.316.248.444.479.128.232.256.544.384.936l.744 2.34.024.09a.285.285 0 0 1 .012.078c0 .152-.185.228-.552.228h-.265a.904.904 0 0 1-.348-.06c-.096-.04-.156-.096-.18-.168l-.696-2.34c-.12-.376-.258-.632-.414-.768-.156-.136-.386-.204-.689-.204h-.624v3.24c0 .2-.181.3-.54.3h-.228c-.361 0-.541-.1-.541-.3zm2.353-4.392c.256 0 .474-.13.653-.391.181-.26.27-.582.27-.966 0-.432-.088-.752-.265-.96-.176-.208-.416-.311-.72-.311h-.996v2.628h1.058zM410.711 338.898c0-.023.008-.084.023-.18l2.076-7.788c.056-.176.24-.264.553-.264h.504c.336 0 .52.088.552.264l2.076 7.788a.625.625 0 0 1 .036.18c0 .145-.156.216-.469.216h-.323c-.297 0-.461-.067-.492-.204l-.456-1.823h-2.364l-.444 1.823c-.031.137-.191.204-.479.204h-.313c-.319 0-.48-.071-.48-.216zm3.84-2.892-.768-3.072a9.917 9.917 0 0 1-.133-.78h-.06l-.048.288a4.18 4.18 0 0 1-.096.492l-.757 3.072h1.862zM417.965 338.13c-.509-.696-.763-1.78-.763-3.252 0-1.44.26-2.513.78-3.217.52-.703 1.315-1.056 2.388-1.056.208 0 .416.021.624.061.208.04.389.088.54.144.097.032.162.08.198.144a.514.514 0 0 1 .054.253c-.008.191-.05.382-.126.569-.076.188-.178.25-.306.186a2.206 2.206 0 0 0-.96-.217c-.632 0-1.098.255-1.398.763-.3.508-.449 1.298-.449 2.37s.149 1.865.449 2.382c.301.516.767.773 1.398.773.368 0 .712-.084 1.032-.252a.372.372 0 0 1 .107-.023c.12 0 .214.08.282.24.067.16.102.332.102.516 0 .192-.103.332-.311.42a3.38 3.38 0 0 1-1.26.24c-1.079 0-1.873-.348-2.381-1.044zM424.235 338.814v-7.02h-1.62c-.088 0-.152-.034-.192-.103-.04-.067-.06-.178-.06-.33v-.239c0-.152.019-.263.06-.33.04-.068.104-.103.192-.103h4.536c.096 0 .164.034.204.103.04.067.06.178.06.33v.239c0 .152-.02.263-.06.33-.04.068-.108.103-.204.103h-1.608v7.02c0 .2-.176.3-.527.3h-.253c-.352 0-.528-.1-.528-.3zM428.519 338.814v-7.848c0-.2.176-.3.528-.3h.275c.344 0 .517.1.517.3v7.848c0 .2-.173.3-.517.3h-.275c-.352 0-.528-.1-.528-.3zM432.077 338.112c-.517-.708-.775-1.786-.775-3.233 0-2.849 1.012-4.272 3.036-4.272 2.032 0 3.048 1.424 3.048 4.272 0 2.863-1.016 4.296-3.048 4.296-.992-.001-1.746-.355-2.261-1.063zm3.552-.81c.284-.512.426-1.32.426-2.424 0-1.104-.142-1.906-.426-2.406-.284-.5-.71-.75-1.278-.75-.575 0-1.004.248-1.283.744-.28.496-.42 1.3-.42 2.412 0 1.104.142 1.912.426 2.424.283.512.71.768 1.277.768s.993-.256 1.278-.768zM438.743 338.814v-7.848c0-.2.176-.3.528-.3h.288c.128 0 .233.018.318.054a.392.392 0 0 1 .197.21l2.604 4.944c.104.199.216.472.336.815l.06-.023a3.983 3.983 0 0 1-.096-.841v-4.859c0-.2.176-.3.528-.3h.18c.352 0 .528.1.528.3v7.848c0 .2-.177.3-.528.3h-.24c-.264 0-.428-.075-.492-.228l-2.699-5.124a4.243 4.243 0 0 1-.313-.756l-.06.023c.064.296.096.565.096.805v4.979c0 .2-.176.3-.528.3h-.18c-.352.001-.527-.099-.527-.299zM398.669 353.394c-.057-.065-.084-.164-.084-.3v-7.608c0-.136.027-.235.084-.3.056-.064.147-.096.275-.096h2.088c2.017 0 3.024 1.399 3.024 4.199 0 1.465-.26 2.53-.78 3.198-.52.668-1.267 1.002-2.244 1.002h-2.088c-.127.001-.219-.031-.275-.095zm2.329-1.008c.552 0 .976-.244 1.272-.732.296-.487.444-1.275.444-2.364 0-2.064-.572-3.096-1.716-3.096h-1.093v6.192h1.093zM405.593 353.394c-.057-.065-.084-.164-.084-.3v-7.608c0-.136.027-.235.084-.3.056-.064.147-.096.275-.096h3.48c.176 0 .264.143.264.432v.24c0 .288-.088.432-.264.432h-2.532v2.448h2.269c.176 0 .264.144.264.432v.24c0 .288-.088.432-.264.432h-2.269v2.641h2.532c.096 0 .164.034.204.102.04.068.06.179.06.33v.24c0 .152-.02.262-.06.33-.04.067-.108.102-.204.102h-3.48c-.127-.001-.219-.033-.275-.097zM411.485 353.412c-.337-.1-.62-.241-.853-.426a.587.587 0 0 1-.107-.138.366.366 0 0 1-.036-.174c0-.168.036-.343.107-.522.072-.18.156-.27.252-.27.04 0 .086.014.139.042l.126.066c.399.296.871.444 1.416.444.367 0 .67-.104.905-.313.236-.208.354-.504.354-.888 0-.352-.101-.628-.3-.828-.2-.199-.5-.403-.9-.611a7.926 7.926 0 0 1-1.044-.631 2.254 2.254 0 0 1-.642-.743c-.164-.301-.246-.67-.246-1.11 0-.728.229-1.3.69-1.716.46-.416 1.058-.624 1.794-.624.28 0 .553.034.816.102.264.068.492.162.684.282.08.048.12.12.12.216 0 .145-.04.316-.12.517-.08.199-.164.3-.252.3a.82.82 0 0 1-.216-.072 2.457 2.457 0 0 0-1.02-.216c-.36 0-.652.098-.876.294-.225.196-.337.466-.337.81 0 .248.055.458.162.63.108.173.25.318.427.438.176.12.432.273.768.456.392.208.712.408.96.6s.448.435.6.727c.152.292.229.653.229 1.086 0 .736-.23 1.324-.69 1.764-.46.44-1.073.66-1.842.66a3.791 3.791 0 0 1-1.068-.152zM416.285 353.214v-7.849c0-.199.176-.3.528-.3h.275c.344 0 .517.101.517.3v7.849c0 .199-.173.3-.517.3h-.275c-.352 0-.528-.1-.528-.3zM424.384 349.206v3.469c0 .296-.23.52-.69.672-.46.151-.97.228-1.529.228-1.032 0-1.807-.348-2.322-1.044-.517-.695-.774-1.76-.774-3.191 0-1.465.265-2.553.792-3.265.528-.712 1.324-1.067 2.389-1.067.311 0 .624.04.936.12.313.079.565.182.762.306.196.124.294.242.294.354 0 .128-.061.294-.186.498-.124.204-.234.307-.33.307-.024 0-.108-.04-.252-.12a3.052 3.052 0 0 0-.504-.216 2.126 2.126 0 0 0-.672-.097c-.664 0-1.145.261-1.441.78-.296.521-.443 1.296-.443 2.328 0 2.12.592 3.18 1.775 3.18.328 0 .632-.04.912-.12v-2.412h-.912c-.176 0-.264-.144-.264-.432v-.24c0-.288.088-.432.264-.432h1.836c.239-.002.359.13.359.394zM425.944 353.214v-7.849c0-.199.176-.3.528-.3h.288c.128 0 .233.019.318.054a.392.392 0 0 1 .197.21l2.604 4.944c.104.2.216.473.336.816l.06-.025a3.98 3.98 0 0 1-.096-.84v-4.86c0-.199.176-.3.528-.3h.18c.352 0 .528.101.528.3v7.849c0 .199-.177.3-.528.3h-.24c-.264 0-.428-.076-.492-.228l-2.699-5.124a4.211 4.211 0 0 1-.313-.756l-.06.024c.063.296.096.564.096.804v4.98c0 .199-.176.3-.528.3h-.18c-.351.001-.527-.099-.527-.299z"/><circle style="fill:#fff" cx="429.109" cy="184.573" r="32.253"/><path style="fill:#ba68c8" d="M429.109 217.765c-18.303 0-33.193-14.89-33.193-33.192 0-18.303 14.89-33.193 33.193-33.193 18.302 0 33.192 14.89 33.192 33.193 0 18.302-14.89 33.192-33.192 33.192zm0-64.506c-17.267 0-31.314 14.047-31.314 31.314 0 17.266 14.047 31.314 31.314 31.314 17.266 0 31.314-14.047 31.314-31.314-.001-17.267-14.048-31.314-31.314-31.314z"/><path style="fill:#ba68c8" d="M433.523 189.651c-.285-2.318-1.288-4.337-2.727-5.774-1.432-1.431-3.296-2.286-5.313-2.286h-10.562c-4.044 0-7.472 3.436-8.04 8.06l-.449 3.661h27.541l-.45-3.661zM420.202 179.74a7.472 7.472 0 0 1-5.299-2.195 7.495 7.495 0 1 1 5.299 2.195z"/><g style="opacity:.6"><path style="fill:#fff" d="M433.523 189.651c-.285-2.318-1.288-4.337-2.727-5.774-1.432-1.431-3.296-2.286-5.313-2.286h-10.562c-4.044 0-7.472 3.436-8.04 8.06l-.449 3.661h27.541l-.45-3.661zM420.202 179.74a7.472 7.472 0 0 1-5.299-2.195 7.495 7.495 0 1 1 5.299 2.195z"/></g><path style="fill:none;stroke:#455a64;stroke-linecap:round;stroke-miterlimit:10" d="M433.523 189.651c-.285-2.318-1.288-4.337-2.727-5.774-1.432-1.431-3.296-2.286-5.313-2.286h-10.562c-4.044 0-7.472 3.436-8.04 8.06l-.449 3.661h27.541l-.45-3.661z"/><path style="fill:#455a64" d="M420.203 180.24a7.945 7.945 0 0 1-5.653-2.341 7.939 7.939 0 0 1-2.341-5.653c0-4.408 3.586-7.995 7.994-7.995 2.136 0 4.144.831 5.652 2.342a7.94 7.94 0 0 1 2.342 5.653c0 4.408-3.586 7.994-7.994 7.994zm0-14.989c-3.856 0-6.994 3.138-6.994 6.995 0 1.869.728 3.625 2.048 4.946a6.95 6.95 0 0 0 4.946 2.048 7.002 7.002 0 0 0 6.994-6.994 6.948 6.948 0 0 0-2.049-4.946 6.944 6.944 0 0 0-4.945-2.049zM436.54 197.407a9.353 9.353 0 0 1-6.659-2.759 9.357 9.357 0 0 1-2.759-6.66c0-2.516.979-4.881 2.759-6.66a9.353 9.353 0 0 1 6.659-2.759c2.517 0 4.882.98 6.66 2.759a9.357 9.357 0 0 1 2.759 6.66 9.353 9.353 0 0 1-2.759 6.66 9.355 9.355 0 0 1-6.66 2.759zm0-17.837a8.363 8.363 0 0 0-5.952 2.466 8.364 8.364 0 0 0-2.466 5.953c0 2.249.876 4.362 2.466 5.953a8.363 8.363 0 0 0 5.952 2.466 8.364 8.364 0 0 0 5.953-2.466 8.364 8.364 0 0 0 2.466-5.953 8.364 8.364 0 0 0-2.466-5.953 8.364 8.364 0 0 0-5.953-2.466z"/><path style="fill:#455a64" d="M446.173 198.122a.502.502 0 0 1-.354-.146l-3.208-3.208a.5.5 0 0 1 .707-.707l3.208 3.208a.5.5 0 0 1-.353.853z"/><path style="fill:#455a64" d="M450.409 203.53c-.428 0-.857-.163-1.183-.49l-4.235-4.235a1.674 1.674 0 0 1 2.365-2.366l4.235 4.235a1.674 1.674 0 0 1-1.182 2.856zM394.172 233.625c-.48-.432-.72-1.036-.72-1.812v-5.748c0-.2.176-.3.528-.3h.252c.352 0 .528.1.528.3v5.736c0 .4.134.728.401.984.269.256.614.384 1.038.384s.769-.128 1.032-.384c.264-.256.396-.584.396-.984v-5.736c0-.2.176-.3.528-.3h.252c.352 0 .528.1.528.3v5.748c0 .776-.24 1.38-.721 1.812-.479.432-1.151.648-2.016.648-.87 0-1.546-.216-2.026-.648zM401.048 234.111a2.51 2.51 0 0 1-.853-.426.587.587 0 0 1-.107-.138.363.363 0 0 1-.036-.174c0-.168.036-.342.107-.522.072-.18.156-.27.252-.27.04 0 .086.014.139.042l.126.066c.399.296.871.444 1.416.444.367 0 .67-.104.905-.312.236-.208.355-.504.355-.888 0-.352-.101-.628-.3-.828-.2-.2-.5-.404-.9-.612a7.826 7.826 0 0 1-1.044-.63 2.256 2.256 0 0 1-.642-.744c-.164-.3-.246-.67-.246-1.11 0-.728.229-1.3.689-1.716.46-.416 1.058-.624 1.794-.624.28 0 .553.034.816.102.264.068.492.162.684.282.08.048.12.12.12.216 0 .144-.04.316-.12.516-.08.2-.164.3-.252.3a.782.782 0 0 1-.216-.072 2.457 2.457 0 0 0-1.02-.216c-.36 0-.652.098-.876.294-.225.196-.337.466-.337.81 0 .248.055.458.162.63.108.172.25.318.427.438.176.12.432.272.768.456.392.208.712.408.96.6s.448.434.6.726c.152.292.229.654.229 1.086 0 .736-.23 1.324-.69 1.764-.46.44-1.073.66-1.842.66-.376 0-.732-.05-1.068-.15zM405.884 234.093c-.057-.064-.084-.164-.084-.3v-7.608c0-.136.027-.236.084-.3.056-.064.147-.096.275-.096h3.48c.176 0 .264.144.264.432v.24c0 .288-.088.432-.264.432h-2.532v2.448h2.269c.176 0 .264.144.264.432v.24c0 .288-.088.432-.264.432h-2.269v2.64h2.532c.096 0 .164.034.204.102.04.068.06.178.06.33v.24c0 .152-.02.262-.06.33-.04.068-.108.102-.204.102h-3.48c-.127 0-.219-.032-.275-.096zM411.259 233.913v-7.728c0-.264.124-.396.372-.396h1.848c.776 0 1.364.172 1.765.516.399.344.6.904.6 1.68 0 .96-.372 1.636-1.116 2.028v.048c.168.088.316.248.444.48.128.232.256.544.384.936l.744 2.34.024.09a.285.285 0 0 1 .012.078c0 .152-.185.228-.552.228h-.265a.904.904 0 0 1-.348-.06c-.096-.04-.156-.096-.18-.168l-.696-2.34c-.12-.376-.258-.632-.414-.768-.156-.136-.386-.204-.689-.204h-.624v3.24c0 .2-.181.3-.54.3h-.228c-.361 0-.541-.1-.541-.3zm2.353-4.392c.256 0 .474-.13.653-.39.181-.26.271-.582.271-.966 0-.432-.088-.752-.265-.96-.176-.208-.416-.312-.72-.312h-.996v2.628h1.057zM419.059 233.913v-7.728c0-.264.124-.396.372-.396h1.848c.776 0 1.364.172 1.765.516.4.344.6.904.6 1.68 0 .96-.372 1.636-1.116 2.028v.048c.168.088.317.248.444.48.128.232.256.544.384.936l.744 2.34.024.09a.285.285 0 0 1 .012.078c0 .152-.185.228-.552.228h-.265a.904.904 0 0 1-.348-.06c-.096-.04-.156-.096-.18-.168l-.696-2.34c-.12-.376-.258-.632-.414-.768-.156-.136-.386-.204-.689-.204h-.624v3.24c0 .2-.181.3-.54.3h-.228c-.361 0-.541-.1-.541-.3zm2.353-4.392c.256 0 .474-.13.653-.39.181-.26.271-.582.271-.966 0-.432-.088-.752-.265-.96-.176-.208-.416-.312-.72-.312h-.996v2.628h1.057zM425.324 234.093c-.057-.064-.084-.164-.084-.3v-7.608c0-.136.027-.236.084-.3.056-.064.148-.096.275-.096h3.48c.176 0 .264.144.264.432v.24c0 .288-.088.432-.264.432h-2.532v2.448h2.269c.176 0 .264.144.264.432v.24c0 .288-.088.432-.264.432h-2.269v2.64h2.532c.096 0 .164.034.204.102.04.068.06.178.06.33v.24c0 .152-.02.262-.06.33-.04.068-.108.102-.204.102h-3.48c-.128 0-.22-.032-.275-.096zM431.215 234.111c-.337-.1-.62-.242-.852-.426a.587.587 0 0 1-.107-.138.352.352 0 0 1-.036-.174c0-.168.036-.342.108-.522.072-.18.156-.27.252-.27.04 0 .086.014.139.042l.126.066c.399.296.871.444 1.416.444.367 0 .67-.104.905-.312.236-.208.354-.504.354-.888 0-.352-.101-.628-.3-.828-.2-.2-.5-.404-.9-.612a7.826 7.826 0 0 1-1.044-.63 2.268 2.268 0 0 1-.642-.744c-.164-.3-.246-.67-.246-1.11 0-.728.229-1.3.69-1.716.46-.416 1.058-.624 1.794-.624.28 0 .553.034.816.102.264.068.492.162.684.282.08.048.12.12.12.216 0 .144-.04.316-.12.516-.08.2-.164.3-.252.3a.782.782 0 0 1-.216-.072 2.457 2.457 0 0 0-1.02-.216c-.36 0-.652.098-.876.294-.225.196-.337.466-.337.81 0 .248.055.458.162.63.108.172.25.318.427.438.176.12.432.272.767.456.392.208.712.408.96.6s.448.434.6.726c.152.292.229.654.229 1.086 0 .736-.23 1.324-.69 1.764-.46.44-1.073.66-1.842.66-.377 0-.733-.05-1.069-.15zM436.051 234.093c-.057-.064-.084-.164-.084-.3v-7.608c0-.136.027-.236.084-.3.056-.064.147-.096.275-.096h3.48c.176 0 .264.144.264.432v.24c0 .288-.088.432-.264.432h-2.532v2.448h2.268c.176 0 .264.144.264.432v.24c0 .288-.088.432-.264.432h-2.268v2.64h2.532c.096 0 .164.034.204.102.04.068.06.178.06.33v.24c0 .152-.02.262-.06.33-.04.068-.108.102-.204.102h-3.48c-.127 0-.219-.032-.275-.096zM440.707 233.997c0-.024.008-.084.023-.18l2.076-7.788c.056-.176.24-.264.553-.264h.504c.336 0 .519.088.552.264l2.076 7.788a.625.625 0 0 1 .036.18c0 .144-.156.216-.469.216h-.323c-.297 0-.461-.068-.492-.204l-.456-1.824h-2.364l-.444 1.824c-.031.136-.191.204-.479.204h-.313c-.32 0-.48-.072-.48-.216zm3.84-2.892-.768-3.072a9.917 9.917 0 0 1-.133-.78h-.06l-.048.288a4.22 4.22 0 0 1-.096.492l-.757 3.072h1.862zM447.486 233.913v-7.728c0-.264.124-.396.372-.396h1.848c.776 0 1.364.172 1.765.516.399.344.6.904.6 1.68 0 .96-.372 1.636-1.116 2.028v.048c.168.088.316.248.444.48.128.232.256.544.384.936l.744 2.34.024.09a.285.285 0 0 1 .012.078c0 .152-.185.228-.552.228h-.265a.904.904 0 0 1-.348-.06c-.096-.04-.156-.096-.18-.168l-.696-2.34c-.12-.376-.258-.632-.414-.768-.156-.136-.386-.204-.69-.204h-.624v3.24c0 .2-.181.3-.54.3h-.228c-.36 0-.54-.1-.54-.3zm2.353-4.392c.256 0 .474-.13.653-.39.181-.26.271-.582.271-.966 0-.432-.088-.752-.265-.96-.176-.208-.416-.312-.72-.312h-.996v2.628h1.057zM454.117 233.229c-.509-.696-.763-1.78-.763-3.252 0-1.44.26-2.512.78-3.216.52-.704 1.315-1.056 2.388-1.056.208 0 .416.02.624.06.208.04.389.088.54.144.097.032.162.08.198.144a.512.512 0 0 1 .054.252c-.008.192-.05.382-.126.57s-.178.25-.306.186a2.219 2.219 0 0 0-.96-.216c-.632 0-1.098.254-1.398.762-.3.508-.449 1.298-.449 2.37s.149 1.866.449 2.382c.301.516.767.774 1.398.774.368 0 .712-.084 1.032-.252a.383.383 0 0 1 .107-.024c.12 0 .214.08.282.24.067.16.101.332.101.516 0 .192-.103.332-.311.42a3.38 3.38 0 0 1-1.26.24c-1.079 0-1.872-.348-2.38-1.044zM459.174 233.913v-7.848c0-.2.176-.3.527-.3h.276c.336 0 .504.1.504.3v3.264h2.844v-3.264c0-.2.176-.3.528-.3h.252c.352 0 .528.1.528.3v7.848c0 .2-.177.3-.528.3h-.252c-.353 0-.528-.1-.528-.3v-3.468h-2.844v3.468c0 .2-.168.3-.504.3h-.276c-.351 0-.527-.1-.527-.3z"/><circle style="fill:#fff" cx="388.625" cy="88.083" r="32.253"/><path style="fill:#ba68c8" d="M388.625 121.276c-18.302 0-33.192-14.89-33.192-33.193 0-18.302 14.89-33.192 33.192-33.192s33.193 14.89 33.193 33.192c0 18.303-14.89 33.193-33.193 33.193zm0-64.506c-17.267 0-31.314 14.047-31.314 31.313 0 17.267 14.047 31.314 31.314 31.314s31.314-14.047 31.314-31.314c0-17.266-14.047-31.313-31.314-31.313z"/><path style="fill:#ba68c8" d="m393.095 76.647.865-.759c.24-.262.463-.539.663-.835l-.07-.015c-2.774-.606-5.229-.107-7.471-2.368-2.065-2.083-2.572-5.331-1.771-8.076a7.23 7.23 0 0 0-3.922 6.428 7.218 7.218 0 0 0 2.755 5.675h5.399c.112-.067 3.552-.05 3.552-.05z"/><path style="fill:#ba68c8" d="M389.542 76.696h-5.505a2.649 2.649 0 0 0-2.649 2.649h6.245c.28-1.075.832-2.01 1.909-2.649zM390.326 94.834c-2.556-3.09-3.02-7.787-2.992-11.614.01-1.31-.011-2.677.3-3.874h-3.722c0 5.254-.804 10.278-3.014 15.905h9.809c-.128-.139-.262-.273-.381-.417z"/><path style="fill:#ba68c8" d="M391.339 98.793c-.25-1.088-.408-2.164-.328-3.21-.107-.106-.203-.223-.305-.334h-12.739v4.421h13.772c-.177-.271-.327-.557-.4-.877zM395.909 104.883h-20.864v4.421h21.541c-.1-1.487-.027-3.024-.677-4.421z"/><path style="fill:#ba68c8" d="M395.381 103.995c-1.114-1.46-2.555-2.355-3.389-3.955-.099-.117-.175-.247-.257-.374h-11.604a12.252 12.252 0 0 0-3.245 5.222h19.025a4.683 4.683 0 0 0-.53-.893z"/><g style="opacity:.6"><path style="fill:#fff" d="m393.095 76.647.865-.759s.463-.539.663-.835l-.07-.015c-2.774-.606-5.229-.107-7.471-2.368-2.065-2.083-2.572-5.331-1.771-8.076a7.23 7.23 0 0 0-3.922 6.428 7.218 7.218 0 0 0 2.755 5.675h5.399c.112-.067 3.552-.05 3.552-.05z"/><path style="fill:#fff" d="M389.542 76.696h-5.505a2.649 2.649 0 0 0-2.649 2.649h6.245c.28-1.075.832-2.01 1.909-2.649zM390.326 94.834c-2.556-3.09-3.02-7.787-2.992-11.614.01-1.31-.011-2.677.3-3.874h-3.722c0 5.254-.804 10.278-3.014 15.905h9.809c-.128-.139-.262-.273-.381-.417z"/><path style="fill:#fff" d="M391.339 98.793c-.25-1.088-.408-2.164-.328-3.21-.107-.106-.203-.223-.305-.334h-12.739v4.421h13.772c-.177-.271-.327-.557-.4-.877zM395.909 104.883h-20.864v4.421h21.541c-.1-1.487-.027-3.024-.677-4.421z"/><path style="fill:#fff" d="M395.381 103.995c-1.114-1.46-2.555-2.355-3.389-3.955-.099-.117-.175-.247-.257-.374h-11.604a12.252 12.252 0 0 0-3.245 5.222h19.025a4.683 4.683 0 0 0-.53-.893z"/></g><path style="fill:#455a64" d="M393.282 77.196h-9.313l-.137-.108a7.696 7.696 0 0 1-2.944-6.067c0-4.266 3.471-7.737 7.737-7.737s7.736 3.471 7.736 7.737a7.697 7.697 0 0 1-2.943 6.067l-.136.108zm-8.962-1h8.611a6.698 6.698 0 0 0 2.431-5.175 6.744 6.744 0 0 0-6.736-6.737 6.744 6.744 0 0 0-6.737 6.737 6.692 6.692 0 0 0 2.431 5.175z"/><path style="fill:#455a64" d="M396.362 79.845h-15.474v-.5a3.153 3.153 0 0 1 3.149-3.149h9.176a3.152 3.152 0 0 1 3.148 3.149v.5zm-14.415-1h13.356a2.152 2.152 0 0 0-2.09-1.649h-9.176a2.153 2.153 0 0 0-2.09 1.649z"/><path style="fill:#455a64" d="M397.087 95.749h-16.924l.268-.683c2.062-5.245 2.98-10.093 2.98-15.721v-.5h10.428v.5c0 5.628.919 10.477 2.98 15.721l.268.683zm-15.462-1h14.002c-1.842-4.897-2.731-9.665-2.784-14.904h-8.434c-.053 5.24-.943 10.007-2.784 14.904z"/><path style="fill:#455a64" d="M399.784 100.17h-22.317v-5.421h22.317v5.421zm-21.318-1h20.317v-3.421h-20.317v3.421zM402.706 109.804h-28.16v-5.421h28.16v5.421zm-27.16-1h26.16v-3.421h-26.16v3.421z"/><path style="fill:#455a64" d="M401.043 105.388h-24.836l.201-.648a12.775 12.775 0 0 1 3.377-5.435l.146-.139h17.39l.146.139a12.76 12.76 0 0 1 3.376 5.435l.2.648zm-23.457-1h22.078a11.783 11.783 0 0 0-2.747-4.222h-16.583a11.794 11.794 0 0 0-2.748 4.222zM367.004 137.667a2.51 2.51 0 0 1-.853-.426.587.587 0 0 1-.107-.138.363.363 0 0 1-.036-.174c0-.168.036-.342.107-.522.072-.18.156-.27.252-.27.04 0 .086.014.139.042l.126.066c.399.296.871.444 1.416.444.367 0 .67-.104.905-.312.236-.208.354-.504.354-.888 0-.352-.101-.628-.3-.828-.2-.2-.5-.404-.9-.612a7.826 7.826 0 0 1-1.044-.63 2.256 2.256 0 0 1-.642-.744c-.164-.3-.246-.67-.246-1.11 0-.728.23-1.3.689-1.716.46-.416 1.058-.624 1.794-.624.28 0 .553.034.816.102.264.068.492.162.684.282.08.048.12.12.12.216 0 .144-.04.316-.12.516-.08.2-.164.3-.252.3a.782.782 0 0 1-.216-.072 2.457 2.457 0 0 0-1.02-.216c-.36 0-.652.098-.876.294-.225.196-.337.466-.337.81 0 .248.055.458.162.63.108.172.25.318.427.438.176.12.432.272.768.456.392.208.712.408.96.6s.448.434.6.726c.152.292.228.654.228 1.086 0 .736-.23 1.324-.69 1.764-.46.44-1.073.66-1.842.66-.374 0-.73-.049-1.066-.15zM372.968 137.47v-7.02h-1.62c-.088 0-.152-.034-.192-.102-.04-.068-.06-.178-.06-.33v-.24c0-.152.02-.262.06-.33.04-.068.104-.102.192-.102h4.536c.096 0 .164.034.204.102.04.068.06.178.06.33v.24c0 .152-.02.262-.06.33-.04.068-.108.102-.204.102h-1.608v7.02c0 .2-.176.3-.527.3h-.253c-.352 0-.528-.101-.528-.3zM377.18 137.47v-7.728c0-.264.124-.396.372-.396h1.848c.776 0 1.364.172 1.765.516.399.344.6.904.6 1.68 0 .96-.372 1.636-1.116 2.028v.048c.168.088.316.248.444.48.128.232.256.544.384.936l.744 2.34.024.09a.285.285 0 0 1 .012.078c0 .152-.185.228-.552.228h-.265a.904.904 0 0 1-.348-.06c-.096-.04-.156-.096-.18-.168l-.696-2.34c-.12-.376-.258-.632-.414-.768-.156-.136-.386-.204-.689-.204h-.624v3.24c0 .2-.181.3-.54.3h-.228c-.361 0-.541-.101-.541-.3zm2.353-4.392c.256 0 .474-.13.653-.39.181-.26.271-.582.271-.966 0-.432-.088-.752-.265-.96-.176-.208-.416-.312-.72-.312h-.996v2.628h1.057zM382.617 137.554c0-.024.008-.084.023-.18l2.076-7.788c.056-.176.24-.264.553-.264h.504c.336 0 .52.088.552.264l2.076 7.788a.625.625 0 0 1 .036.18c0 .144-.156.216-.469.216h-.323c-.297 0-.461-.068-.492-.204l-.456-1.824h-2.364l-.444 1.824c-.031.136-.191.204-.479.204h-.313c-.32 0-.48-.072-.48-.216zm3.84-2.892-.768-3.072a9.917 9.917 0 0 1-.133-.78h-.06l-.048.288a4.22 4.22 0 0 1-.096.492l-.757 3.072h1.862zM390.321 137.47v-7.02h-1.62c-.088 0-.152-.034-.192-.102-.04-.068-.06-.178-.06-.33v-.24c0-.152.02-.262.06-.33.04-.068.105-.102.192-.102h4.536c.096 0 .164.034.204.102.04.068.06.178.06.33v.24c0 .152-.02.262-.06.33-.04.068-.108.102-.204.102h-1.608v7.02c0 .2-.176.3-.527.3h-.253c-.352 0-.528-.101-.528-.3zM394.641 137.649c-.057-.064-.084-.163-.084-.3v-7.608c0-.136.027-.236.084-.3.056-.064.147-.096.275-.096h3.48c.176 0 .264.144.264.432v.24c0 .288-.088.432-.264.432h-2.532v2.448h2.269c.176 0 .264.144.264.432v.24c0 .288-.088.432-.264.432h-2.269v2.64h2.532c.096 0 .164.034.204.102.04.068.06.178.06.33v.24c0 .152-.02.262-.06.33-.04.068-.108.102-.204.102h-3.48c-.127.001-.219-.031-.275-.096zM405.044 133.462v3.468c0 .296-.23.52-.69.672-.46.152-.97.228-1.529.228-1.032 0-1.807-.348-2.322-1.044-.517-.696-.774-1.76-.774-3.192 0-1.464.265-2.552.792-3.264.528-.712 1.324-1.068 2.389-1.068.311 0 .624.04.935.12.313.08.565.182.762.306.196.124.294.242.294.354 0 .128-.061.294-.186.498-.124.204-.234.306-.33.306-.024 0-.108-.04-.252-.12a3.016 3.016 0 0 0-.504-.216 2.127 2.127 0 0 0-.672-.096c-.664 0-1.145.26-1.44.78-.296.52-.443 1.296-.443 2.328 0 2.12.592 3.18 1.775 3.18.328 0 .632-.04.912-.12v-2.412h-.912c-.176 0-.264-.144-.264-.432v-.24c0-.288.088-.432.264-.432h1.836c.239 0 .359.132.359.396zM408.044 137.47v-3.48l-1.98-4.212a.65.65 0 0 1-.084-.24c0-.144.188-.216.564-.216h.324c.144 0 .26.014.348.042a.278.278 0 0 1 .18.15l1.345 3.264 1.355-3.276c.024-.072.08-.12.168-.144.088-.024.208-.036.36-.036h.264c.36.008.54.08.54.216a.566.566 0 0 1-.072.24l-1.991 4.248v3.444c0 .2-.177.3-.528.3h-.252c-.361 0-.541-.101-.541-.3z"/><circle transform="rotate(-80.781 251.223 64.392)" style="fill:#fff" cx="251.222" cy="64.396" r="32.253"/><path style="fill:#ba68c8" d="M251.222 97.589c-18.302 0-33.192-14.89-33.192-33.193 0-18.302 14.89-33.192 33.192-33.192 18.303 0 33.193 14.89 33.193 33.192-.001 18.303-14.891 33.193-33.193 33.193zm0-64.506c-17.266 0-31.314 14.047-31.314 31.314s14.047 31.314 31.314 31.314 31.314-14.047 31.314-31.314-14.048-31.314-31.314-31.314z"/><path style="fill:#ba68c8" d="M230.081 48.322h24.865v17.166h-24.865z"/><path style="opacity:.6;fill:#fff" d="M230.081 48.322h24.865v17.166h-24.865z"/><path style="fill:#455a64" d="M255.318 65.859h-25.609V47.951h25.609v17.908zm-24.865-.743h24.121V48.694h-24.121v16.422z"/><path transform="rotate(-55.38 242.529 56.907)" style="fill:#455a64" d="M242.141 41.798h.744v30.215h-.744z"/><path transform="rotate(-34.57 242.507 56.908)" style="fill:#455a64" d="M227.406 56.533h30.215v.744h-30.215z"/><path style="fill:#455a64" d="M258.359 49.519h14.008v.743h-14.008zM258.359 52.325h14.008v.743h-14.008zM258.359 55.13h14.008v.743h-14.008zM258.359 57.936h14.008v.743h-14.008zM258.359 60.742h14.008v.743h-14.008zM258.359 63.548h14.008v.743h-14.008zM272.433 79.512h-42.725V69.56h42.725v9.952zm-41.98-.743h41.236v-8.465h-41.236v8.465z"/><path transform="rotate(-77.626 251.07 74.531)" style="fill:#455a64" d="M250.699 53.047h.744v42.979h-.744z"/><path transform="rotate(-12.427 251.081 74.537)" style="fill:#455a64" d="M229.582 74.164h42.979v.744h-42.979z"/><path style="fill:#455a64" d="m223.011 113.878-1.632-7.836-.024-.156c0-.168.184-.252.553-.252h.203c.345 0 .532.08.564.24l.948 5.4c.031.168.076.492.132.972l.06.504.252-1.5 1.009-5.4a.218.218 0 0 1 .138-.168.884.884 0 0 1 .33-.048h.348a.88.88 0 0 1 .33.048.22.22 0 0 1 .138.168l1.009 5.424c.063.32.136.816.216 1.488l.143-.888.097-.6.924-5.4c.023-.16.212-.24.563-.24h.168c.368 0 .553.084.553.252l-.024.156-1.656 7.836c-.023.136-.18.204-.468.204h-.576c-.28 0-.432-.068-.456-.204l-.983-4.824-.181-1.44-.18 1.44-.984 4.824c-.031.136-.188.204-.468.204h-.563c-.29 0-.45-.068-.483-.204zM231.112 113.782v-7.848c0-.2.176-.3.528-.3h.275c.344 0 .517.1.517.3v7.848c0 .2-.173.3-.517.3h-.275c-.352 0-.528-.1-.528-.3zM234.183 113.782v-7.728c0-.264.124-.396.372-.396h1.848c.776 0 1.364.172 1.765.516.399.344.6.904.6 1.68 0 .96-.372 1.636-1.116 2.028v.048c.168.088.316.248.444.48.128.232.256.544.384.936l.744 2.34.024.09a.285.285 0 0 1 .012.078c0 .152-.185.228-.552.228h-.265a.904.904 0 0 1-.348-.06c-.096-.04-.156-.096-.18-.168l-.696-2.34c-.12-.376-.258-.632-.414-.768-.156-.136-.386-.204-.689-.204h-.624v3.24c0 .2-.181.3-.54.3h-.229c-.36 0-.54-.1-.54-.3zm2.353-4.392c.256 0 .474-.13.653-.39.181-.26.27-.582.27-.966 0-.432-.088-.752-.265-.96-.176-.208-.416-.312-.72-.312h-.996v2.628h1.058zM240.448 113.962c-.057-.064-.084-.163-.084-.3v-7.608c0-.136.027-.236.084-.3.056-.064.148-.096.275-.096h3.48c.176 0 .264.144.264.432v.24c0 .288-.088.432-.264.432h-2.532v2.448h2.269c.176 0 .264.144.264.432v.24c0 .287-.088.432-.264.432h-2.269v2.64h2.532c.096 0 .164.034.204.102.04.068.06.178.06.33v.24c0 .152-.02.262-.06.33-.04.068-.108.102-.204.102h-3.48c-.128 0-.22-.032-.275-.096zM245.847 113.782v-7.728c0-.136.027-.236.084-.3.056-.064.148-.096.275-.096h3.168c.177 0 .265.144.265.432v.24c0 .288-.088.432-.265.432h-2.22v2.448h2.04c.176 0 .264.144.264.432v.24c0 .287-.088.432-.264.432h-2.04v3.468c0 .2-.176.3-.528.3h-.252c-.351 0-.527-.1-.527-.3zM250.899 113.782v-7.728c0-.264.124-.396.372-.396h1.848c.776 0 1.364.172 1.765.516.399.344.6.904.6 1.68 0 .96-.372 1.636-1.116 2.028v.048c.168.088.316.248.444.48.128.232.256.544.384.936l.744 2.34.024.09a.285.285 0 0 1 .012.078c0 .152-.185.228-.552.228h-.265a.904.904 0 0 1-.348-.06c-.096-.04-.156-.096-.18-.168l-.696-2.34c-.12-.376-.258-.632-.414-.768-.156-.136-.386-.204-.689-.204h-.624v3.24c0 .2-.181.3-.54.3h-.229c-.36 0-.54-.1-.54-.3zm2.353-4.392c.256 0 .474-.13.653-.39.181-.26.27-.582.27-.966 0-.432-.088-.752-.265-.96-.176-.208-.416-.312-.72-.312h-.996v2.628h1.058zM256.336 113.866c0-.024.008-.084.023-.18l2.076-7.788c.056-.176.24-.264.553-.264h.504c.336 0 .52.088.552.264l2.076 7.788a.625.625 0 0 1 .036.18c0 .144-.156.216-.469.216h-.323c-.297 0-.461-.068-.492-.204l-.456-1.824h-2.364l-.444 1.824c-.031.136-.191.204-.479.204h-.313c-.32 0-.48-.072-.48-.216zm3.839-2.892-.768-3.072a9.917 9.917 0 0 1-.133-.78h-.06l-.048.288a4.22 4.22 0 0 1-.096.492l-.757 3.072h1.862zM265.923 111.046l-1.261-2.436a6.676 6.676 0 0 1-.323-.756l-.049.024c.04.296.061.56.061.792v5.112c0 .2-.176.3-.528.3h-.216c-.353 0-.528-.1-.528-.3v-7.848c0-.2.176-.3.528-.3h.288c.271 0 .448.084.528.252l1.8 3.48c.088.176.151.368.191.576.057-.224.124-.416.204-.576l1.8-3.48c.089-.168.265-.252.528-.252h.288c.352 0 .528.1.528.3v7.848c0 .2-.177.3-.528.3h-.216c-.353 0-.528-.1-.528-.3v-5.112c0-.232.02-.496.061-.792l-.049-.024c-.111.304-.22.556-.323.756l-1.261 2.436c-.056.136-.164.204-.323.204h-.349c-.16 0-.267-.068-.323-.204zM271.491 113.962c-.057-.064-.084-.163-.084-.3v-7.608c0-.136.027-.236.084-.3.056-.064.147-.096.275-.096h3.48c.176 0 .264.144.264.432v.24c0 .288-.088.432-.264.432h-2.532v2.448h2.269c.176 0 .264.144.264.432v.24c0 .287-.088.432-.264.432h-2.269v2.64h2.532c.096 0 .164.034.204.102.04.068.06.178.06.33v.24c0 .152-.02.262-.06.33-.04.068-.108.102-.204.102h-3.48c-.128 0-.219-.032-.275-.096zM277.382 113.98c-.337-.1-.62-.242-.852-.426a.587.587 0 0 1-.107-.138.363.363 0 0 1-.036-.174c0-.168.036-.342.107-.522.072-.18.156-.27.252-.27.04 0 .086.014.139.042l.126.066c.399.296.871.444 1.416.444.367 0 .67-.104.905-.312.236-.208.354-.504.354-.888 0-.352-.101-.628-.3-.828-.2-.2-.5-.404-.9-.612a7.826 7.826 0 0 1-1.044-.63 2.268 2.268 0 0 1-.642-.744c-.164-.3-.246-.67-.246-1.11 0-.728.23-1.3.689-1.716.46-.416 1.058-.624 1.794-.624.28 0 .553.034.816.102.264.068.492.162.684.282.08.048.12.12.12.216 0 .144-.04.316-.12.516-.08.2-.164.3-.252.3a.782.782 0 0 1-.216-.072 2.456 2.456 0 0 0-1.019-.216c-.36 0-.652.098-.876.294-.225.196-.337.466-.337.81 0 .248.055.458.162.63.108.172.25.318.427.438.176.12.432.272.768.456.392.209.712.408.96.6s.448.434.6.726c.152.292.228.654.228 1.086 0 .736-.23 1.324-.69 1.764-.46.44-1.073.66-1.842.66-.376 0-.732-.05-1.068-.15z"/><circle style="fill:#fff" cx="110.968" cy="88.083" r="32.253"/><path style="fill:#ba68c8" d="M110.968 121.276c-18.302 0-33.192-14.89-33.192-33.193 0-18.302 14.89-33.192 33.192-33.192s33.193 14.89 33.193 33.192c-.001 18.303-14.891 33.193-33.193 33.193zm0-64.506c-17.266 0-31.314 14.047-31.314 31.313 0 17.267 14.047 31.314 31.314 31.314s31.314-14.047 31.314-31.314c0-17.266-14.048-31.313-31.314-31.313z"/><path style="fill:#455a64" d="M103.268 111.154c-3.01.001-6.052-1.104-8.654-3.194-5.521-4.435-8.547-10.272-9.249-17.844-.695-7.495 2.323-15.276 7.876-20.308 3.833-3.471 10.572-7.19 20.908-5.19 13.329 2.577 16.617 14.235 16.071 19.157-.381 3.43-1.288 6.984-5.314 9.742-1.837 1.259-3.732 1.725-5.739 2.218-.336.082-.677.166-1.026.256-1.782.457-3.05.781-3.932 1.961-.872 1.168-.99 2.325-1.126 3.665-.057.56-.116 1.14-.236 1.738-.823 4.078-3.101 6.591-6.771 7.47-.922.221-1.863.329-2.808.329zm5.263-46.096c-6.92 0-11.672 2.821-14.618 5.492-5.325 4.824-8.219 12.287-7.552 19.474.686 7.39 3.507 12.841 8.88 17.157 3.175 2.55 7.038 3.525 10.604 2.671 3.257-.78 5.283-3.032 6.022-6.695.111-.55.167-1.105.222-1.642.139-1.363.281-2.772 1.32-4.163 1.093-1.462 2.651-1.862 4.456-2.324.381-.098.726-.182 1.063-.266 1.999-.491 3.726-.916 5.414-2.072 3.486-2.389 4.474-5.336 4.884-9.027.515-4.635-2.615-15.618-15.267-18.065a28.73 28.73 0 0 0-5.428-.54z"/><path style="fill:#455a64" d="M103.554 106.54a4.96 4.96 0 0 1-2.264-.546 5.002 5.002 0 0 1-2.176-6.721 5.003 5.003 0 0 1 6.721-2.175 4.96 4.96 0 0 1 2.479 2.91 4.962 4.962 0 0 1-.304 3.811 4.999 4.999 0 0 1-4.456 2.721zm-3.548-6.811a4 4 0 0 0 1.74 5.375 3.999 3.999 0 0 0 5.375-1.74c.485-.95.571-2.033.243-3.048a3.997 3.997 0 0 0-7.358-.587z"/><path style="fill:#ba68c8" d="M94.12 75.385a3.11 3.11 0 1 1 5.54 2.83 3.11 3.11 0 0 1-5.54-2.83z"/><path style="opacity:.6;fill:#fff" d="M94.12 75.385a3.11 3.11 0 1 1 5.54 2.83 3.11 3.11 0 0 1-5.54-2.83z"/><path style="fill:#455a64" d="M96.883 80.41a3.588 3.588 0 0 1-1.637-.395 3.614 3.614 0 0 1-1.572-4.857 3.583 3.583 0 0 1 2.104-1.792 3.59 3.59 0 0 1 2.754.22 3.616 3.616 0 0 1 1.573 4.858 3.618 3.618 0 0 1-3.222 1.966zm.009-6.222c-.271 0-.542.043-.807.128a2.598 2.598 0 0 0-1.521 1.296 2.614 2.614 0 0 0 1.137 3.512 2.613 2.613 0 0 0 3.513-1.137 2.613 2.613 0 0 0-2.322-3.799z"/><path style="fill:#ba68c8" d="M90.06 85.311a3.11 3.11 0 1 1 5.54 2.83 3.11 3.11 0 0 1-5.54-2.83z"/><path style="opacity:.6;fill:#fff" d="M90.06 85.311a3.11 3.11 0 1 1 5.54 2.83 3.11 3.11 0 0 1-5.54-2.83z"/><path style="fill:#455a64" d="M92.826 90.338a3.592 3.592 0 0 1-1.639-.397 3.593 3.593 0 0 1-1.793-2.103 3.584 3.584 0 0 1 .22-2.754 3.588 3.588 0 0 1 2.104-1.793 3.59 3.59 0 0 1 2.754.22 3.616 3.616 0 0 1 1.573 4.858 3.583 3.583 0 0 1-2.104 1.792 3.624 3.624 0 0 1-1.115.177zm.006-6.224c-.271 0-.542.042-.807.128a2.598 2.598 0 0 0-1.521 1.296 2.596 2.596 0 0 0-.159 1.991 2.594 2.594 0 0 0 1.297 1.521 2.588 2.588 0 0 0 1.991.159 2.598 2.598 0 0 0 1.521-1.296 2.613 2.613 0 0 0-2.322-3.799z"/><path style="fill:#ba68c8" d="M103.904 70.227a3.11 3.11 0 1 1 5.54 2.83 3.11 3.11 0 0 1-5.54-2.83z"/><path style="opacity:.6;fill:#fff" d="M103.904 70.227a3.11 3.11 0 1 1 5.54 2.83 3.11 3.11 0 0 1-5.54-2.83z"/><path style="fill:#455a64" d="M106.671 75.254a3.592 3.592 0 0 1-1.639-.397 3.593 3.593 0 0 1-1.793-2.103 3.584 3.584 0 0 1 .22-2.754 3.616 3.616 0 0 1 4.858-1.573 3.614 3.614 0 0 1 1.572 4.857 3.588 3.588 0 0 1-2.104 1.793c-.364.118-.74.177-1.114.177zm-2.322-4.799a2.596 2.596 0 0 0-.159 1.991 2.594 2.594 0 0 0 1.297 1.521 2.592 2.592 0 0 0 1.991.159 2.593 2.593 0 0 0 1.52-1.296 2.614 2.614 0 0 0-1.137-3.512 2.616 2.616 0 0 0-3.512 1.137z"/><path style="fill:#ba68c8" d="M114.743 72.114a3.11 3.11 0 1 1 5.54 2.831 3.11 3.11 0 0 1-5.54-2.831z"/><path style="opacity:.6;fill:#fff" d="M114.743 72.114a3.11 3.11 0 1 1 5.54 2.831 3.11 3.11 0 0 1-5.54-2.831z"/><path style="fill:#455a64" d="M117.506 77.139a3.588 3.588 0 0 1-1.637-.395 3.615 3.615 0 0 1-1.572-4.858 3.587 3.587 0 0 1 2.104-1.792 3.585 3.585 0 0 1 2.754.22 3.583 3.583 0 0 1 1.793 2.103 3.614 3.614 0 0 1-3.442 4.722zm-2.318-4.798a2.61 2.61 0 1 0 4.65 2.376 2.61 2.61 0 0 0-4.65-2.376z"/><path style="fill:#ba68c8" d="M120.548 81.404a3.11 3.11 0 1 1 5.54 2.831 3.11 3.11 0 0 1-5.54-2.831z"/><path style="opacity:.6;fill:#fff" d="M120.548 81.404a3.11 3.11 0 1 1 5.54 2.831 3.11 3.11 0 0 1-5.54-2.831z"/><path style="fill:#455a64" d="M123.311 86.428a3.576 3.576 0 0 1-1.637-.395 3.614 3.614 0 0 1-1.572-4.857 3.591 3.591 0 0 1 2.104-1.793 3.59 3.59 0 0 1 2.754.22 3.616 3.616 0 0 1 1.573 4.858 3.616 3.616 0 0 1-3.222 1.967zm.009-6.221c-.271 0-.542.042-.807.128a2.598 2.598 0 0 0-1.521 1.296 2.614 2.614 0 0 0 1.137 3.512 2.613 2.613 0 0 0 3.513-1.137 2.613 2.613 0 0 0-2.322-3.799z"/><path style="fill:#fff" d="M122.294 99.703c-2.963 1.299-4.807 4.173-4.781 7.333.025 3.16 2.601 5.401 4.107 5.479 0 0-1.25-1.338.911-3.049 2.161-1.711 4.355-4.663 3.268-8.046l-3.505-1.717zM126.958 98.699s2.355-1.879 4.038-5.313c1.262-2.574 7.586-17.605 5.589-18.584-1.997-.979-10.003 13.228-11.265 15.802-1.683 3.434-1.726 6.447-1.726 6.447l3.364 1.648z"/><path style="fill:#455a64" d="m127.012 99.189-3.838-1.881.004-.264c.002-.127.064-3.146 1.768-6.624.086-.176 9.104-17.322 11.823-15.994 2.719 1.333-5.312 18.967-5.398 19.142-1.705 3.478-4.053 5.377-4.152 5.456l-.207.165zm-2.987-2.392 2.869 1.406c.591-.527 2.387-2.267 3.727-5.001 2.309-4.711 7.071-17.393 5.78-18.026-1.284-.621-8.397 10.9-10.707 15.612-1.339 2.733-1.614 5.219-1.669 6.009z"/><path transform="rotate(-63.889 124.63 99.205)" style="fill:#fff" d="M123.148 97.329h2.955v3.743h-2.955z"/><path style="fill:#455a64" d="m125.859 101.947-4.162-2.04 1.693-3.454 4.162 2.04-1.693 3.454zm-2.968-2.448 2.56 1.254.908-1.852-2.56-1.255-.908 1.853z"/><path style="fill:#ba68c8" d="M121.62 112.516s-1.25-1.338.911-3.049c.263-.209.527-.437.786-.681-.825-.29-1.564-.819-2.032-1.56-.716-1.134-.818-2.564-1.479-3.731a4.226 4.226 0 0 0-.854-1.048 7.873 7.873 0 0 0-1.44 4.588c.026 3.161 2.602 5.403 4.108 5.481z"/><path style="opacity:.6;fill:#fff" d="M121.62 112.516s-1.25-1.338.911-3.049c.263-.209.527-.437.786-.681-.825-.29-1.564-.819-2.032-1.56-.716-1.134-.818-2.564-1.479-3.731a4.226 4.226 0 0 0-.854-1.048 7.873 7.873 0 0 0-1.44 4.588c.026 3.161 2.602 5.403 4.108 5.481z"/><path style="fill:#455a64" d="m121.62 112.962-.023-.001c-1.806-.094-4.504-2.621-4.53-5.921-.025-3.349 1.956-6.389 5.05-7.745a.454.454 0 0 1 .375.008l3.505 1.718a.45.45 0 0 1 .229.264c1.385 4.31-2.265 7.62-3.417 8.531-.672.533-1.052 1.083-1.096 1.59-.043.485.227.796.238.809a.45.45 0 0 1-.331.747zm.668-12.766c-2.659 1.251-4.352 3.912-4.329 6.836.018 2.405 1.612 4.185 2.881 4.802a2.129 2.129 0 0 1-.02-.479c.059-.778.541-1.531 1.434-2.238 1.021-.809 4.227-3.701 3.176-7.381l-3.142-1.54zM94.457 136.786c-.509-.696-.763-1.78-.763-3.252 0-1.44.26-2.512.78-3.216.52-.704 1.315-1.056 2.388-1.056.208 0 .416.02.624.06.208.04.389.088.54.144.097.032.162.08.198.144a.512.512 0 0 1 .054.252c-.008.192-.05.382-.126.57-.076.188-.178.25-.306.186a2.219 2.219 0 0 0-.96-.216c-.632 0-1.098.254-1.398.762-.3.508-.449 1.298-.449 2.37s.149 1.866.449 2.382c.301.516.767.774 1.398.774.368 0 .712-.084 1.032-.252a.383.383 0 0 1 .107-.024c.12 0 .214.08.282.24.067.16.102.332.102.516 0 .192-.104.332-.312.42a3.38 3.38 0 0 1-1.26.24c-1.079 0-1.873-.348-2.38-1.044zM99.688 136.768c-.517-.708-.774-1.786-.774-3.234 0-2.848 1.012-4.272 3.036-4.272 2.032 0 3.048 1.424 3.048 4.272 0 2.864-1.016 4.296-3.048 4.296-.992 0-1.746-.354-2.262-1.062zm3.552-.81c.284-.512.426-1.32.426-2.424 0-1.104-.142-1.906-.426-2.406-.284-.499-.71-.75-1.278-.75-.575 0-1.004.248-1.283.744-.28.496-.42 1.3-.42 2.412 0 1.104.142 1.912.426 2.424.283.512.71.768 1.277.768.568 0 .994-.256 1.278-.768zM106.499 137.649c-.057-.064-.084-.163-.084-.3v-7.728c0-.2.176-.3.527-.3h.252c.353 0 .528.1.528.3v7.02h2.292c.096 0 .166.034.21.102.044.068.066.178.066.33v.24c0 .152-.022.262-.066.33-.044.068-.114.102-.21.102h-3.24c-.128.001-.22-.031-.275-.096zM111.533 136.768c-.517-.708-.774-1.786-.774-3.234 0-2.848 1.012-4.272 3.036-4.272 2.032 0 3.048 1.424 3.048 4.272 0 2.864-1.016 4.296-3.048 4.296-.993 0-1.747-.354-2.262-1.062zm3.552-.81c.284-.512.426-1.32.426-2.424 0-1.104-.142-1.906-.426-2.406-.284-.499-.71-.75-1.278-.75-.575 0-1.004.248-1.283.744-.28.496-.42 1.3-.42 2.412 0 1.104.142 1.912.426 2.424.283.512.71.768 1.277.768.568 0 .993-.256 1.278-.768zM118.235 137.47v-7.728c0-.264.124-.396.372-.396h1.848c.776 0 1.364.172 1.765.516.399.344.6.904.6 1.68 0 .96-.372 1.636-1.116 2.028v.048c.168.088.316.248.444.48.128.232.256.544.384.936l.744 2.34.024.09a.285.285 0 0 1 .012.078c0 .152-.184.228-.552.228h-.265a.904.904 0 0 1-.348-.06c-.096-.04-.156-.096-.18-.168l-.696-2.34c-.12-.376-.258-.632-.414-.768-.156-.136-.386-.204-.689-.204h-.624v3.24c0 .2-.181.3-.54.3h-.229c-.36 0-.54-.101-.54-.3zm2.353-4.392c.256 0 .474-.13.653-.39.181-.26.271-.582.271-.966 0-.432-.088-.752-.265-.96-.176-.208-.416-.312-.72-.312h-.996v2.628h1.057zM124.908 137.667a2.51 2.51 0 0 1-.853-.426.587.587 0 0 1-.107-.138.363.363 0 0 1-.036-.174c0-.168.036-.342.107-.522.072-.18.156-.27.252-.27.04 0 .086.014.139.042l.126.066c.399.296.871.444 1.416.444.367 0 .67-.104.905-.312.236-.208.354-.504.354-.888 0-.352-.101-.628-.3-.828-.2-.2-.5-.404-.9-.612a7.826 7.826 0 0 1-1.044-.63 2.256 2.256 0 0 1-.642-.744c-.164-.3-.246-.67-.246-1.11 0-.728.229-1.3.689-1.716.46-.416 1.058-.624 1.794-.624.28 0 .553.034.816.102.264.068.492.162.684.282.08.048.12.12.12.216 0 .144-.04.316-.12.516-.08.2-.164.3-.252.3a.792.792 0 0 1-.216-.072 2.457 2.457 0 0 0-1.02-.216c-.36 0-.652.098-.876.294-.225.196-.337.466-.337.81 0 .248.055.458.162.63.108.172.25.318.427.438.176.12.432.272.768.456.392.208.712.408.96.6s.448.434.6.726c.152.292.229.654.229 1.086 0 .736-.23 1.324-.69 1.764-.46.44-1.073.66-1.842.66-.376 0-.731-.049-1.067-.15z"/><circle transform="rotate(-80.781 70.487 184.572)" style="fill:#fff" cx="70.484" cy="184.573" r="32.253"/><path style="fill:#ba68c8" d="M70.483 217.765c-18.302 0-33.192-14.89-33.192-33.192 0-18.303 14.89-33.193 33.192-33.193 18.303 0 33.193 14.89 33.193 33.193 0 18.302-14.89 33.192-33.193 33.192zm0-64.506c-17.266 0-31.314 14.047-31.314 31.314 0 17.266 14.047 31.314 31.314 31.314s31.314-14.047 31.314-31.314-14.047-31.314-31.314-31.314z"/><path style="fill:#ba68c8" d="m55.451 188.854-2.319 6.699h-4.865l9.082-26.308h6.169l9.475 26.308h-5.205l-2.421-6.699h-9.916zm8.804-4.089c-2.088-6.019-3.343-9.609-3.955-11.851h-.038c-.647 2.47-2.038 6.707-3.715 11.851h7.708z"/><path style="opacity:.6;fill:#fff" d="m55.451 188.854-2.319 6.699h-4.865l9.082-26.308h6.169l9.475 26.308h-5.205l-2.421-6.699h-9.916zm8.804-4.089c-2.088-6.019-3.343-9.609-3.955-11.851h-.038c-.647 2.47-2.038 6.707-3.715 11.851h7.708z"/><path style="fill:#ba68c8" d="M91.997 190.766c0 1.834.152 4.285.267 4.787h-4.52c-.152-.403-.267-1.4-.289-2.129-.7 1.167-2.107 2.585-5.679 2.585-4.68 0-6.661-3.066-6.661-6.079 0-4.424 3.526-6.46 9.286-6.46h2.974v-1.353c0-1.503-.518-3.118-3.414-3.118-2.615 0-3.132 1.189-3.417 2.643h-4.516c.281-3.212 2.268-6.125 8.104-6.099 5.083.026 7.864 2.039 7.864 6.624v8.599zm-4.61-4.327h-2.528c-3.475 0-4.98 1.023-4.98 3.201 0 1.623 1.045 2.912 3.148 2.912 3.866 0 4.36-2.654 4.36-5.563v-.55z"/><path style="opacity:.6;fill:#fff" d="M91.997 190.766c0 1.834.152 4.285.267 4.787h-4.52c-.152-.403-.267-1.4-.289-2.129-.7 1.167-2.107 2.585-5.679 2.585-4.68 0-6.661-3.066-6.661-6.079 0-4.424 3.526-6.46 9.286-6.46h2.974v-1.353c0-1.503-.518-3.118-3.414-3.118-2.615 0-3.132 1.189-3.417 2.643h-4.516c.281-3.212 2.268-6.125 8.104-6.099 5.083.026 7.864 2.039 7.864 6.624v8.599zm-4.61-4.327h-2.528c-3.475 0-4.98 1.023-4.98 3.201 0 1.623 1.045 2.912 3.148 2.912 3.866 0 4.36-2.654 4.36-5.563v-.55z"/><path style="fill:#455a64" d="M73.705 196.053h-6.268l-2.421-6.699h-9.208l-2.319 6.699h-5.923l9.427-27.308h6.877l9.835 27.308zm-5.567-1h4.143l-9.114-25.308h-5.461l-8.737 25.308h3.808l2.319-6.699h10.622l2.42 6.699zm-3.179-9.788h-9.1l.502-1.54c1.571-4.819 2.813-8.625 3.418-10.937l.098-.374h.768l.139.368c.576 2.11 1.727 5.424 3.631 10.914l.544 1.569zm-7.723-1h6.316l-.083-.24c-1.487-4.288-2.517-7.253-3.176-9.367-.683 2.328-1.727 5.531-2.982 9.377l-.075.23zM81.777 196.509c-4.947 0-7.161-3.304-7.161-6.579 0-4.488 3.476-6.96 9.786-6.96h2.474v-.853c0-1.294-.347-2.618-2.914-2.618-2.309 0-2.669.928-2.927 2.239l-.079.404h-5.473l.048-.543c.215-2.452 1.61-6.555 8.525-6.555h.079c5.549.029 8.362 2.426 8.362 7.124v8.599c0 1.896.158 4.255.254 4.676l.14.611h-5.492l-.122-.323c-.091-.241-.161-.605-.213-.991-1.19 1.187-2.933 1.769-5.287 1.769zm2.625-12.539c-4.008 0-8.786 1.034-8.786 5.96 0 2.574 1.613 5.579 6.161 5.579 2.587 0 4.305-.766 5.25-2.342l.876-1.46.053 1.702c.017.573.089 1.226.173 1.645h3.563c-.104-1.022-.194-2.908-.194-4.287v-8.599c0-4.152-2.341-6.098-7.367-6.124h-.078c-4.435 0-6.941 1.714-7.46 5.099h3.549c.325-1.343 1.044-2.643 3.82-2.643 2.598 0 3.914 1.217 3.914 3.618v1.853h-3.474zm-1.375 9.083c-2.217 0-3.648-1.339-3.648-3.412 0-3.317 3.128-3.701 5.48-3.701h3.028v1.051c0 2.997-.577 6.062-4.86 6.062zm1.832-6.114c-3.948 0-4.48 1.365-4.48 2.701 0 1.51.99 2.412 2.648 2.412 3.215 0 3.86-1.937 3.86-5.063v-.051h-2.028zM41.625 233.913v-7.02h-1.62c-.088 0-.152-.034-.192-.102-.04-.068-.06-.178-.06-.33v-.24c0-.152.02-.262.06-.33.04-.068.104-.102.192-.102h4.536c.096 0 .164.034.204.102.04.068.06.178.06.33v.24c0 .152-.019.262-.06.33-.04.068-.108.102-.204.102h-1.608v7.02c0 .2-.176.3-.527.3h-.253c-.353 0-.528-.1-.528-.3zM47.241 233.913v-3.48l-1.98-4.212a.65.65 0 0 1-.084-.24c0-.144.188-.216.564-.216h.324c.144 0 .26.014.348.042a.278.278 0 0 1 .18.15l1.345 3.264 1.355-3.276c.024-.072.08-.12.168-.144.088-.024.208-.036.36-.036h.264c.36.008.54.08.54.216a.566.566 0 0 1-.072.24l-1.991 4.248v3.444c0 .2-.177.3-.528.3h-.252c-.361 0-.541-.1-.541-.3zM51.621 233.913v-7.728c0-.136.029-.236.09-.3.06-.064.153-.096.282-.096h2.004a2.52 2.52 0 0 1 1.559.516c.456.344.684.984.684 1.92 0 .672-.13 1.194-.39 1.566-.26.372-.554.622-.882.75-.328.128-.62.192-.876.192h-1.176v3.18c0 .2-.177.3-.528.3h-.24c-.351 0-.527-.1-.527-.3zm2.376-4.272c.239 0 .456-.104.647-.312.192-.208.288-.576.288-1.104 0-.496-.098-.842-.294-1.038a.958.958 0 0 0-.702-.294h-1.02v2.748h1.081zM57.915 233.211c-.517-.708-.774-1.786-.774-3.234 0-2.848 1.012-4.272 3.036-4.272 2.032 0 3.048 1.424 3.048 4.272 0 2.864-1.016 4.296-3.048 4.296-.993 0-1.747-.354-2.262-1.062zm3.551-.81c.284-.512.426-1.32.426-2.424s-.142-1.906-.426-2.406c-.284-.499-.71-.75-1.278-.75-.575 0-1.004.248-1.283.744-.28.496-.42 1.3-.42 2.412 0 1.104.142 1.912.426 2.424.283.512.71.768 1.277.768.568 0 .994-.256 1.278-.768zM69.644 229.905v3.468c0 .296-.23.52-.69.672-.46.152-.97.228-1.529.228-1.032 0-1.807-.348-2.322-1.044-.517-.696-.774-1.76-.774-3.192 0-1.464.265-2.552.792-3.264.528-.712 1.324-1.068 2.389-1.068.312 0 .624.04.936.12.313.08.565.182.762.306.196.124.294.242.294.354 0 .128-.062.294-.186.498-.124.204-.234.306-.33.306-.024 0-.108-.04-.252-.12a3.052 3.052 0 0 0-.504-.216 2.127 2.127 0 0 0-.672-.096c-.664 0-1.145.26-1.44.78-.296.52-.443 1.296-.443 2.328 0 2.12.592 3.18 1.775 3.18.328 0 .632-.04.912-.12v-2.412h-.912c-.176 0-.264-.144-.264-.432v-.24c0-.288.088-.432.264-.432h1.836c.238 0 .358.132.358.396zM71.24 233.913v-7.728c0-.264.124-.396.372-.396h1.848c.776 0 1.364.172 1.765.516.399.344.6.904.6 1.68 0 .96-.372 1.636-1.116 2.028v.048c.168.088.316.248.444.48.128.232.256.544.384.936l.744 2.34.024.09a.285.285 0 0 1 .012.078c0 .152-.185.228-.552.228H75.5a.904.904 0 0 1-.348-.06c-.096-.04-.156-.096-.18-.168l-.696-2.34c-.12-.376-.258-.632-.414-.768-.156-.136-.386-.204-.689-.204h-.624v3.24c0 .2-.181.3-.54.3h-.229c-.36 0-.54-.1-.54-.3zm2.352-4.392c.256 0 .474-.13.653-.39.181-.26.271-.582.271-.966 0-.432-.088-.752-.265-.96-.176-.208-.416-.312-.72-.312h-.996v2.628h1.057zM76.676 233.997c0-.024.008-.084.023-.18l2.076-7.788c.056-.176.24-.264.553-.264h.504c.336 0 .519.088.552.264l2.076 7.788a.625.625 0 0 1 .036.18c0 .144-.156.216-.469.216h-.323c-.297 0-.461-.068-.492-.204l-.456-1.824h-2.364l-.444 1.824c-.031.136-.191.204-.479.204h-.313c-.319 0-.48-.072-.48-.216zm3.84-2.892-.768-3.072a9.917 9.917 0 0 1-.133-.78h-.06l-.048.288a4.22 4.22 0 0 1-.096.492l-.757 3.072h1.862zM83.432 233.913v-7.728c0-.136.029-.236.09-.3.059-.064.153-.096.282-.096h2.004c.583 0 1.104.172 1.56.516.456.344.684.984.684 1.92 0 .672-.13 1.194-.39 1.566-.26.372-.554.622-.882.75-.328.128-.62.192-.876.192h-1.176v3.18c0 .2-.177.3-.528.3h-.24c-.352 0-.528-.1-.528-.3zm2.376-4.272c.239 0 .456-.104.648-.312.192-.208.288-.576.288-1.104 0-.496-.098-.842-.294-1.038a.958.958 0 0 0-.702-.294h-1.019v2.748h1.079zM89.264 233.913v-7.848c0-.2.176-.3.527-.3h.276c.336 0 .504.1.504.3v3.264h2.844v-3.264c0-.2.176-.3.528-.3h.252c.352 0 .528.1.528.3v7.848c0 .2-.177.3-.528.3h-.252c-.353 0-.528-.1-.528-.3v-3.468h-2.844v3.468c0 .2-.168.3-.504.3h-.276c-.351 0-.527-.1-.527-.3zM97.856 233.913v-3.48l-1.98-4.212a.65.65 0 0 1-.084-.24c0-.144.188-.216.564-.216h.324c.144 0 .26.014.348.042a.278.278 0 0 1 .18.15l1.345 3.264 1.355-3.276c.024-.072.08-.12.168-.144.088-.024.208-.036.36-.036h.264c.36.008.54.08.54.216a.566.566 0 0 1-.072.24l-1.991 4.248v3.444c0 .2-.177.3-.528.3h-.252c-.361 0-.541-.1-.541-.3z"/><circle style="fill:#fff" cx="84.623" cy="289.501" r="32.253"/><path style="fill:#ba68c8" d="M84.623 322.694c-18.303 0-33.193-14.89-33.193-33.192 0-18.303 14.89-33.193 33.193-33.193 18.302 0 33.192 14.89 33.192 33.193 0 18.301-14.89 33.192-33.192 33.192zm0-64.507c-17.267 0-31.314 14.047-31.314 31.314 0 17.266 14.047 31.314 31.314 31.314 17.266 0 31.314-14.047 31.314-31.314 0-17.266-14.048-31.314-31.314-31.314z"/><path style="fill:#ba68c8" d="M91.438 306.188c-.022-.01-.049-.017-.076-.025a.104.104 0 0 1-.033-.01c-.005-.002-.005.002-.011-.001-.005.002-.016-.003-.022-.005-.005-.002-.011-.001-.011-.001-.033-.006-.06-.005-.087-.005h-12.93c-.294-.001-.534.206-.534.464v5.629c0 .02 0 .045.005.068 0 .004 0 .008.006.015.044.219.262.379.523.382l12.93-.004a.54.54 0 0 0 .376-.135.419.419 0 0 0 .158-.324v-5.633a.46.46 0 0 0-.294-.415z"/><path style="opacity:.6;fill:#fff" d="M91.438 306.188c-.022-.01-.049-.017-.076-.025a.104.104 0 0 1-.033-.01c-.005-.002-.005.002-.011-.001-.005.002-.016-.003-.022-.005-.005-.002-.011-.001-.011-.001-.033-.006-.06-.005-.087-.005h-12.93c-.294-.001-.534.206-.534.464v5.629c0 .02 0 .045.005.068 0 .004 0 .008.006.015.044.219.262.379.523.382l12.93-.004a.54.54 0 0 0 .376-.135.419.419 0 0 0 .158-.324v-5.633a.46.46 0 0 0-.294-.415z"/><path style="fill:#455a64" d="M78.268 313.198c-.485-.006-.898-.315-1.004-.742l-.013-.048a1.196 1.196 0 0 1-.017-.173v-5.63c0-.246.099-.48.278-.659a1.07 1.07 0 0 1 .753-.304h12.933a1.78 1.78 0 0 1 .198.017.5.5 0 0 1 .093.021l.011.003a.961.961 0 0 1 .734.919v5.634a.918.918 0 0 1-.341.71c-.163.154-.457.239-.7.249l-12.925.003zm-.033-.985.001.006 12.963-.025.034-5.549-.014-.003-.021-.004-12.931.003-.032 5.572zm13.062-6.066h.01-.01zM88.816 303.777h-8.162c-.541 0-1.02-.403-1.088-.919-.501-3.72-1.932-7.241-4.136-10.182-.281-.377-.485-.978-.269-1.41l8.824-17.704a.495.495 0 0 1 .562-.264.494.494 0 0 1 .187.087.5.5 0 0 1 .188-.088.492.492 0 0 1 .562.264l8.742 17.537c.199.402.252 1.003-.033 1.375-2.303 2.998-3.788 6.605-4.294 10.432-.066.489-.542.872-1.083.872zm-4.883-27.868-7.878 15.805c.009.007.048.192.176.363 2.306 3.077 3.802 6.759 4.325 10.648.005.014.046.052.098.052h8.162a.145.145 0 0 0 .103-.038 22.745 22.745 0 0 1 4.481-10.875.742.742 0 0 0-.069-.321l-7.794-15.635v15.482a2.218 2.218 0 0 1 1.42 2.071 2.226 2.226 0 0 1-2.223 2.225 2.224 2.224 0 0 1-.801-4.295v-15.482zm.803 16.259a.506.506 0 0 1-.216.094 1.223 1.223 0 0 0 .214 2.425c.674 0 1.223-.55 1.223-1.225 0-.592-.424-1.098-1.008-1.201a.512.512 0 0 1-.213-.093z"/><path style="fill:#455a64" d="M100.983 283.294a.501.501 0 0 1-.49-.404c-1.466-7.518-8.095-12.975-15.762-12.975s-14.296 5.457-15.762 12.975a.511.511 0 0 1-.587.396.502.502 0 0 1-.396-.587c1.558-7.986 8.6-13.783 16.744-13.783 8.145 0 15.187 5.797 16.744 13.783a.5.5 0 0 1-.491.595z"/><path style="fill:#455a64" d="M100.984 269.916H68.478a.5.5 0 0 1 0-1h32.506a.5.5 0 0 1 0 1z"/><path style="fill:#455a64" d="M102.754 269.415a1.77 1.77 0 1 1-3.54 0 1.77 1.77 0 0 1 3.54 0zM70.031 269.415a1.77 1.77 0 1 1-3.54 0 1.77 1.77 0 0 1 3.54 0zM102.754 283.341a1.77 1.77 0 1 1-3.54 0 1.77 1.77 0 0 1 3.54 0zM70.031 283.341a1.77 1.77 0 1 1-3.54 0 1.77 1.77 0 0 1 3.54 0zM69.425 334.805v3.469c0 .296-.23.52-.69.672-.46.151-.97.228-1.529.228-1.032 0-1.807-.348-2.322-1.044-.517-.695-.774-1.76-.774-3.191 0-1.465.265-2.553.792-3.265.528-.712 1.324-1.067 2.389-1.067.312 0 .624.04.936.12.313.079.565.182.762.306.196.124.294.242.294.354 0 .128-.062.294-.186.498s-.234.307-.33.307c-.024 0-.108-.04-.252-.12a3.052 3.052 0 0 0-.504-.216 2.126 2.126 0 0 0-.672-.097c-.664 0-1.145.261-1.44.78-.296.521-.443 1.296-.443 2.328 0 2.12.592 3.18 1.775 3.18.328 0 .632-.04.912-.12v-2.412h-.912c-.176 0-.264-.144-.264-.432v-.24c0-.288.088-.432.264-.432h1.836c.238-.001.358.131.358.394zM71.021 338.814v-7.728c0-.264.124-.396.372-.396h1.848c.776 0 1.364.172 1.765.516.399.344.6.904.6 1.68 0 .96-.372 1.637-1.116 2.028v.048c.168.088.316.248.444.48.128.232.256.544.384.936l.744 2.34.024.09a.29.29 0 0 1 .012.078c0 .152-.185.228-.552.228h-.265a.923.923 0 0 1-.348-.06c-.096-.04-.156-.096-.18-.168l-.696-2.34c-.12-.376-.258-.632-.414-.768-.156-.136-.386-.204-.69-.204h-.623v3.24c0 .199-.181.3-.54.3h-.229c-.36 0-.54-.101-.54-.3zm2.353-4.393c.256 0 .474-.13.653-.39.181-.26.271-.582.271-.966 0-.433-.088-.752-.265-.96-.176-.208-.416-.313-.72-.313h-.996v2.628h1.057zM76.458 338.898c0-.024.008-.084.023-.181l2.076-7.788c.056-.176.24-.264.553-.264h.504c.336 0 .52.088.552.264l2.076 7.788a.624.624 0 0 1 .036.181c0 .143-.156.216-.469.216h-.323c-.297 0-.461-.068-.492-.204l-.456-1.824h-2.364l-.444 1.824c-.031.136-.191.204-.479.204h-.313c-.32 0-.48-.072-.48-.216zm3.84-2.893-.768-3.071a10.007 10.007 0 0 1-.133-.78h-.06l-.048.288a4.22 4.22 0 0 1-.096.492l-.757 3.071h1.862zM83.214 338.814v-7.728c0-.136.029-.235.09-.3.06-.065.153-.096.282-.096h2.004c.583 0 1.104.172 1.56.516.456.344.684.984.684 1.92 0 .672-.13 1.194-.39 1.566-.26.372-.554.622-.882.75-.328.128-.62.191-.876.191H84.51v3.181c0 .199-.177.3-.528.3h-.24c-.353 0-.528-.101-.528-.3zm2.375-4.272c.239 0 .456-.104.647-.311.192-.208.288-.576.288-1.105 0-.496-.098-.842-.294-1.038a.962.962 0 0 0-.702-.294h-1.02v2.748h1.081zM89.046 338.814v-7.849c0-.199.176-.3.527-.3h.276c.336 0 .504.101.504.3v3.265h2.844v-3.265c0-.199.176-.3.528-.3h.252c.352 0 .528.101.528.3v7.849c0 .199-.177.3-.528.3h-.252c-.353 0-.528-.101-.528-.3v-3.469h-2.844v3.469c0 .199-.168.3-.504.3h-.276c-.352 0-.527-.101-.527-.3zM96.305 338.814v-7.849c0-.199.176-.3.528-.3h.275c.344 0 .517.101.517.3v7.849c0 .199-.173.3-.517.3h-.275c-.352 0-.528-.101-.528-.3zM99.851 338.129c-.509-.695-.763-1.779-.763-3.252 0-1.44.26-2.512.78-3.216.52-.704 1.315-1.056 2.388-1.056.208 0 .416.02.624.06.208.04.389.088.54.145.097.031.162.08.198.144a.512.512 0 0 1 .054.252c-.008.192-.05.382-.126.57-.076.188-.178.25-.306.186a2.219 2.219 0 0 0-.96-.216c-.632 0-1.098.254-1.398.762-.3.509-.449 1.298-.449 2.37s.149 1.866.449 2.382c.301.517.767.774 1.398.774.368 0 .712-.084 1.032-.252a.383.383 0 0 1 .107-.024c.12 0 .214.08.282.24.067.16.102.332.102.516 0 .192-.104.332-.312.421a3.03 3.03 0 0 1-.552.168 3.38 3.38 0 0 1-.708.071c-1.078-.001-1.872-.348-2.38-1.045zM68.321 353.393c-.057-.064-.084-.163-.084-.3v-7.607c0-.137.027-.236.084-.301.056-.063.147-.096.275-.096h2.088c2.017 0 3.024 1.4 3.024 4.2 0 1.464-.26 2.53-.78 3.198-.52.668-1.268 1.002-2.244 1.002h-2.088c-.128.001-.219-.032-.275-.096zm2.328-1.008c.552 0 .976-.244 1.271-.732.296-.488.444-1.276.444-2.364 0-2.065-.572-3.096-1.716-3.096h-1.093v6.191h1.094zM75.245 353.393c-.057-.064-.084-.163-.084-.3v-7.607c0-.137.027-.236.084-.301.056-.063.147-.096.275-.096H79c.176 0 .264.145.264.433v.239c0 .288-.088.433-.264.433h-2.532v2.447h2.269c.176 0 .264.145.264.433v.24c0 .287-.088.432-.264.432h-2.269v2.64H79c.096 0 .164.034.204.102.04.067.06.178.06.33v.239c0 .152-.02.263-.06.33-.04.068-.108.103-.204.103h-3.48c-.128 0-.22-.033-.275-.097zM81.136 353.412a2.51 2.51 0 0 1-.853-.426.59.59 0 0 1-.107-.139.363.363 0 0 1-.036-.174c0-.168.036-.342.107-.522.072-.181.156-.27.252-.27.04 0 .086.015.139.042l.126.066c.399.296.871.443 1.416.443.367 0 .67-.104.905-.311.236-.208.354-.504.354-.888 0-.352-.101-.628-.3-.828-.2-.2-.5-.404-.9-.612a7.826 7.826 0 0 1-1.044-.63 2.256 2.256 0 0 1-.642-.744c-.164-.3-.246-.67-.246-1.11 0-.728.229-1.3.689-1.716.46-.416 1.058-.624 1.794-.624.28 0 .553.034.816.103.264.067.492.162.684.281.08.049.12.12.12.217 0 .144-.04.315-.12.516-.08.2-.164.3-.252.3a.802.802 0 0 1-.216-.071 2.442 2.442 0 0 0-1.02-.217c-.36 0-.652.099-.876.294-.225.196-.337.467-.337.811 0 .248.055.458.162.63.108.172.25.318.427.438.176.12.432.272.768.456.392.209.712.408.96.601.248.191.448.434.6.726.152.292.229.654.229 1.086 0 .736-.23 1.324-.69 1.765-.46.439-1.073.659-1.842.659a3.869 3.869 0 0 1-1.067-.152zM85.936 353.213v-7.848c0-.2.176-.3.528-.3h.275c.344 0 .517.1.517.3v7.848c0 .2-.173.3-.517.3h-.275c-.352 0-.528-.099-.528-.3zM94.036 349.206v3.468c0 .296-.23.521-.69.672-.46.152-.97.229-1.529.229-1.032 0-1.807-.349-2.322-1.044-.517-.696-.774-1.76-.774-3.192 0-1.464.265-2.552.792-3.264.528-.712 1.324-1.068 2.389-1.068.312 0 .624.04.936.12.313.08.565.182.762.306.196.124.294.242.294.354 0 .128-.062.294-.185.498-.124.204-.234.306-.33.306-.024 0-.108-.04-.252-.12a3.1 3.1 0 0 0-.504-.216 2.156 2.156 0 0 0-.672-.096c-.664 0-1.145.26-1.44.78-.296.52-.443 1.296-.443 2.327 0 2.12.592 3.181 1.775 3.181.328 0 .632-.04.912-.12v-2.412h-.912c-.176 0-.264-.145-.264-.432v-.24c0-.288.088-.433.264-.433h1.836c.237-.001.357.132.357.396zM95.595 353.213v-7.848c0-.2.176-.3.528-.3h.288c.128 0 .233.018.318.054a.392.392 0 0 1 .197.21l2.604 4.944c.104.199.216.472.336.815l.06-.023a4.05 4.05 0 0 1-.096-.841v-4.859c0-.2.176-.3.528-.3h.18c.352 0 .528.1.528.3v7.848c0 .2-.177.3-.528.3h-.24c-.264 0-.428-.075-.492-.228l-2.699-5.124a4.243 4.243 0 0 1-.313-.756l-.06.023c.063.296.096.565.096.805v4.98c0 .2-.176.3-.528.3h-.18c-.351 0-.527-.099-.527-.3z"/><circle style="fill:#fff" cx="150.409" cy="378.629" r="32.253"/><path style="fill:#ba68c8" d="M150.409 411.821c-18.303 0-33.193-14.89-33.193-33.192 0-18.303 14.89-33.193 33.193-33.193 18.302 0 33.192 14.89 33.192 33.193 0 18.302-14.89 33.192-33.192 33.192zm0-64.506c-17.267 0-31.314 14.047-31.314 31.314 0 17.266 14.047 31.313 31.314 31.313 17.266 0 31.313-14.047 31.313-31.313 0-17.267-14.047-31.314-31.313-31.314z"/><path style="fill:#455a64" d="M150.409 393.067c-14.578 0-24.1-11.96-24.193-12.081-.323-.285-.323-.535-.003-.823.095-.122 9.617-12.283 24.197-12.283 14.579 0 24.101 12.161 24.196 12.283.32.288.319.538-.003.823-.095.122-9.617 12.082-24.194 12.081zm-22.882-12.497c1.791 2.063 10.426 11.191 22.882 11.191 12.455 0 21.09-9.128 22.881-11.191-1.785-2.091-10.421-11.383-22.881-11.383s-21.096 9.292-22.882 11.383z"/><path style="fill:#455a64" d="M172.46 371.994a34.237 34.237 0 0 0-4.801-3.98 33.055 33.055 0 0 0-5.368-3.08 28.761 28.761 0 0 0-11.883-2.709 28.774 28.774 0 0 0-11.882 2.71 32.976 32.976 0 0 0-5.368 3.079 34.296 34.296 0 0 0-4.802 3.979c2.614-3.279 5.999-5.948 9.763-7.891 3.746-2.002 8.018-3.015 12.288-3.082 4.269.068 8.541 1.08 12.287 3.083 3.767 1.944 7.151 4.613 9.766 7.891z"/><path style="fill:#ba68c8" d="M159.615 380.474a9.206 9.206 0 1 1-18.413 0 9.206 9.206 0 0 1 18.413 0z"/><path style="opacity:.6;fill:#fff" d="M159.615 380.474a9.206 9.206 0 1 1-18.413 0 9.206 9.206 0 0 1 18.413 0z"/><path style="fill:#455a64" d="M150.409 390.18c-5.352-.001-9.706-4.355-9.706-9.706 0-5.352 4.355-9.706 9.706-9.706 5.352 0 9.706 4.354 9.706 9.706 0 5.352-4.355 9.706-9.706 9.706zm0-18.412c-4.801 0-8.706 3.905-8.706 8.706 0 4.8 3.905 8.705 8.706 8.706 4.801 0 8.706-3.905 8.706-8.706s-3.905-8.706-8.706-8.706z"/><path style="fill:#263238" d="M154.856 380.474a4.447 4.447 0 1 1-8.894 0 4.447 4.447 0 0 1 8.894 0z"/><path style="fill:#fff" d="M156.489 377.406a2.023 2.023 0 1 1-4.047 0 2.023 2.023 0 0 1 4.047 0z"/><path style="fill:#455a64" d="m135.6 428.105-2.017-7.848a.896.896 0 0 1-.023-.084.36.36 0 0 1-.013-.097c0-.144.181-.216.54-.216h.252c.296 0 .464.08.504.24l1.44 6.107.096.685h.036l.108-.696 1.464-6.096c.04-.16.212-.24.516-.24h.229c.359 0 .54.072.54.216a.88.88 0 0 1-.036.192l-2.017 7.836c-.031.136-.199.204-.504.204h-.624c-.295.001-.46-.067-.491-.203zM140.376 428.009v-7.849c0-.199.176-.3.528-.3h.275c.344 0 .517.101.517.3v7.849c0 .199-.173.3-.517.3h-.275c-.353 0-.528-.101-.528-.3zM143.964 428.207c-.337-.1-.62-.241-.853-.426a.587.587 0 0 1-.107-.138.366.366 0 0 1-.036-.174c0-.168.036-.343.107-.522.072-.18.156-.27.252-.27.04 0 .086.014.139.042.052.027.094.05.126.065.399.296.871.444 1.416.444.367 0 .67-.104.905-.313.236-.208.354-.504.354-.888 0-.352-.101-.628-.3-.828-.2-.199-.5-.403-.9-.611a7.926 7.926 0 0 1-1.044-.631 2.242 2.242 0 0 1-.642-.743c-.164-.301-.246-.67-.246-1.11 0-.728.23-1.3.689-1.716.46-.416 1.058-.624 1.794-.624.28 0 .553.034.816.102.264.068.492.162.684.282.08.048.12.12.12.216 0 .145-.04.316-.12.517-.08.199-.164.3-.252.3a.782.782 0 0 1-.216-.072 2.473 2.473 0 0 0-1.02-.216c-.36 0-.652.098-.876.294-.225.196-.337.466-.337.81 0 .248.055.458.162.63.108.173.25.318.427.439.176.12.432.272.768.456.392.208.712.408.96.6s.448.435.6.727c.152.292.229.653.229 1.086 0 .736-.23 1.324-.69 1.764-.46.44-1.073.66-1.842.66a3.784 3.784 0 0 1-1.067-.152zM149.327 427.721c-.479-.433-.72-1.036-.72-1.813v-5.748c0-.199.176-.3.528-.3h.252c.352 0 .528.101.528.3v5.736c0 .4.134.728.401.984.268.256.614.384 1.038.384.424 0 .768-.128 1.032-.384.264-.257.396-.584.396-.984v-5.736c0-.199.176-.3.528-.3h.252c.352 0 .528.101.528.3v5.748c0 .776-.24 1.38-.721 1.813-.479.432-1.151.648-2.016.648-.87 0-1.546-.216-2.026-.648zM154.967 428.093c0-.024.008-.084.023-.181l2.076-7.788c.056-.176.24-.264.553-.264h.504c.336 0 .52.088.552.264l2.076 7.788a.624.624 0 0 1 .036.181c0 .143-.156.216-.469.216h-.323c-.297 0-.461-.068-.492-.204l-.456-1.824h-2.364l-.444 1.824c-.031.136-.191.204-.48.204h-.313c-.318 0-.479-.072-.479-.216zm3.84-2.892-.768-3.071a10.007 10.007 0 0 1-.133-.78h-.059l-.048.288a4.22 4.22 0 0 1-.096.492l-.757 3.071h1.861zM161.855 428.189c-.057-.064-.084-.164-.084-.3v-7.728c0-.199.176-.3.527-.3h.252c.352 0 .528.101.528.3v7.021h2.292c.096 0 .166.034.21.102.044.068.066.179.066.33v.24c0 .152-.022.262-.066.33-.044.067-.114.102-.21.102h-3.24c-.127-.001-.219-.033-.275-.097zM134.106 442.588c-.057-.064-.084-.163-.084-.3v-7.607c0-.137.027-.236.084-.301.056-.064.147-.096.275-.096h2.088c2.017 0 3.024 1.4 3.024 4.2 0 1.464-.26 2.53-.78 3.198-.52.668-1.268 1.002-2.244 1.002h-2.088c-.128.001-.219-.031-.275-.096zm2.328-1.007c.552 0 .976-.244 1.271-.732.296-.488.444-1.276.444-2.364 0-2.064-.572-3.096-1.716-3.096h-1.093v6.191h1.094zM141.03 442.588c-.057-.064-.084-.163-.084-.3v-7.607c0-.137.027-.236.084-.301.056-.064.147-.096.275-.096h3.48c.176 0 .264.145.264.433v.239c0 .288-.088.433-.264.433h-2.532v2.447h2.269c.176 0 .264.145.264.433v.24c0 .287-.088.432-.264.432h-2.269v2.64h2.532c.096 0 .164.034.204.103.04.067.06.178.06.33v.239c0 .152-.019.263-.06.33-.04.068-.108.103-.204.103h-3.48c-.128-.001-.22-.033-.275-.098zM146.921 442.607a2.51 2.51 0 0 1-.853-.426.59.59 0 0 1-.107-.139.363.363 0 0 1-.036-.174c0-.168.036-.342.107-.522.072-.181.156-.271.252-.271.04 0 .086.015.139.042l.126.066c.399.296.871.443 1.416.443.367 0 .67-.103.905-.311.236-.208.355-.504.355-.888 0-.353-.101-.628-.3-.828-.2-.2-.5-.404-.9-.612a7.826 7.826 0 0 1-1.044-.63 2.256 2.256 0 0 1-.642-.744c-.164-.3-.246-.67-.246-1.11 0-.728.229-1.3.689-1.716.46-.416 1.058-.624 1.794-.624.28 0 .553.034.816.102.264.067.492.162.684.281.08.049.12.12.12.217 0 .143-.04.315-.12.516-.08.2-.164.3-.252.3a.765.765 0 0 1-.216-.071 2.442 2.442 0 0 0-1.02-.217c-.36 0-.652.099-.876.294-.225.196-.337.467-.337.811 0 .248.055.458.162.63.108.172.25.318.427.438.176.12.432.272.768.456.392.209.712.408.96.601.248.191.448.434.6.726.152.292.229.654.229 1.086 0 .736-.23 1.324-.69 1.765-.46.439-1.073.659-1.842.659a3.76 3.76 0 0 1-1.068-.15zM151.721 442.409v-7.848c0-.2.176-.3.528-.3h.275c.344 0 .517.1.517.3v7.848c0 .2-.173.3-.517.3h-.275c-.352-.001-.528-.1-.528-.3zM159.821 438.401v3.468c0 .296-.231.52-.69.672-.46.152-.97.229-1.529.229-1.032 0-1.807-.349-2.322-1.044-.517-.696-.774-1.76-.774-3.192 0-1.464.265-2.552.792-3.264.528-.712 1.324-1.068 2.389-1.068.312 0 .624.04.936.12.313.08.565.182.762.306s.294.242.294.354c0 .128-.062.294-.186.498-.124.204-.234.306-.33.306-.024 0-.108-.04-.252-.12a3.14 3.14 0 0 0-.504-.216 2.156 2.156 0 0 0-.672-.096c-.664 0-1.145.26-1.44.78-.296.52-.443 1.296-.443 2.327 0 2.12.592 3.181 1.775 3.181.328 0 .632-.04.912-.12v-2.412h-.912c-.176 0-.264-.145-.264-.432v-.24c0-.288.088-.433.264-.433h1.836c.238-.001.358.132.358.396zM161.38 442.409v-7.848c0-.2.176-.3.528-.3h.288c.128 0 .233.018.318.054a.392.392 0 0 1 .197.21l2.605 4.944c.104.199.216.472.336.815l.06-.023a4.05 4.05 0 0 1-.096-.841v-4.859c0-.2.176-.3.528-.3h.18c.352 0 .528.1.528.3v7.848c0 .2-.177.3-.528.3h-.24c-.264 0-.428-.075-.492-.228l-2.699-5.124a4.2 4.2 0 0 1-.313-.756l-.06.023c.063.296.096.564.096.805v4.979c0 .2-.176.3-.528.3h-.18c-.352 0-.528-.099-.528-.299z"/><path style="fill:#263238" d="m235.571 390.735-3.06-1.655 3.111-.75z"/><path style="fill:#263238" d="M204.412 395.377s37.436-15.358 37.802-12.845c.081.554.045 1.05-.075 1.5.033-.044.074-.087.104-.131l-.852 4.632s-2.717 2.162-5.821 2.202l.051-2.404a18.638 18.638 0 0 0-3.312 1.613c-2.418 1.485-4.037 4.176-6.66 7.275-1.912 2.259-5.206 3.224-10.053 3.736-5.216.551-9.751-.62-10.988-2.069-.985-1.154-.395-3.191-.196-3.509z"/><path style="fill:#ffbda7" d="M205.46 394.552c.368-.36 1.735-1.767 3.571-3.287 1.605-1.33 3.481-3.015 5.481-4.358.798-.536 2.025-1.396 2.72-2.093a28.93 28.93 0 0 0 1.909-2.098c1.659-2.027 3.064-4.253 4.285-6.567 1.051-1.992 1.327-3.408 1.316-5.663-.027-5.517-.272-11.043-.992-16.517l17.743.29c-.616 2.8-.979 7.585-1.366 10.779-.589 4.858-.759 5.936.951 10.866.503 1.451 1.283 2.858 1.298 4.394.025 2.497-2.001 4.578-4.223 5.717-1.841.944-3.934 1.302-5.724 2.314-1.883 1.065-3.377 2.721-4.751 4.361-1.298 1.549-2.362 3.396-4.142 4.453-1.973 1.172-3.825 1.491-6.076 1.865-2.588.43-5.885.365-8.073.112-3.81-.444-6.605-1.947-3.927-4.568z"/><path style="fill:#37474f" d="M220.115 387.455c-2.625-1.514-5.074-1.022-5.692-.733-2.795 2.062-5.114 3.901-6.75 5.186-1.986 1.559-3.727 2.985-3.725 4.853.003 2.932 11.28 4.23 17.702 1.686 3.333-1.038 4.61-3.765 4.61-3.765s-.781-4.133-6.145-7.227zm21.881-9.729c-.896-1.919-1.228-2.894-1.228-2.894-2.24 1.12-6.265 6.501-4.715 12.119 2.015-.454 3.999-1.148 5.68-3.581 1.27-1.839 1.159-3.724.263-5.644z"/><path style="fill:#263238" d="M269.363 381.472c-1.043 1.676.309 7.997.071 12.496-.217 4.088-1.306 11.214-.05 15.253 1.488 4.787 4.515 10.341 10.141 5.857 3.487-2.779 5.486-6.372 5.961-12.257.33-4.09-1.302-9.747-2.703-14.765-1.637-5.861-2.26-8.994-2.26-8.994l-11.16 2.41z"/><path style="fill:#ffbda7" d="M280.912 351.315c.402 9.537-.707 16.232-.772 22.34.063 2.844.252 5.245.87 8.247.801 3.896 2.16 9.313 2.732 11.839.799 3.528 1.404 5.753.184 9.71a4.667 4.667 0 0 1-.399.893c-1.703 3.262-6.033 5.725-7.42 5.331-.387.643-1.37 1.031-2.438.852a3.159 3.159 0 0 1-.461-.113 3.275 3.275 0 0 1-.463-.187c-.921-.452-1.797-1.386-2.305-2.998a8.596 8.596 0 0 1-.223-.863c-1.008-4.913-.277-8.087-.182-10.009.109-2.217-.02-5.041-.215-8.618-.195-3.578-1.047-14.812-2.29-20.183-.923-3.749-2.074-8.451-3.286-13.465l16.668-2.776z"/><path style="fill:#37474f" d="M284.586 398.334c-3.415-1.507-13.315-1.717-14.893 3.103-.041 4.538-.068 7.613 2.797 11.562 3.808 5.246 8.776-.316 10.681-3.847 1.905-3.532 1.88-8.373 1.415-10.818zM268.002 226.759c4.823 8.645 8.714 15.934 9.97 38.774 1.418 25.775 1.206 35.592 1.33 38.703.124 3.111 2.128 8.816 3.831 24.134 1.702 15.319-.091 52.457-.091 52.457s-1.204 2.502-7.063 3.07c-5.404.524-8.577-1.373-8.577-1.373s-10.437-46.469-12.504-55.7c-2.921-13.045-7.22-38.899-7.22-38.899l-2.64 21.731s1.711 8.448.16 21.903c-1.551 13.455-4.428 39.195-4.428 39.195s-3.398 2.39-7.996 2.904c-5.221.583-8.741-1.886-8.741-1.886s-5.236-53.332-5.347-68.569c-.111-15.238-1.074-57.927 5.696-75.855l43.62-.589z"/><path style="fill:#263238" d="M227.452 249.206c2.343 6.276 10.736 10.621 14.417 11.475l3.772 26.93-.603 22.046 2.64-21.731-4.325-32.185s-10.194-.654-15.901-6.535zm34.832-3.324c.62 2.469 1.183 4.954 1.783 7.435a484.105 484.105 0 0 0 1.811 7.472c.038-2.585-.208-5.159-.566-7.706-.35-2.552-.852-5.079-1.451-7.585-.629-2.499-1.347-4.98-2.258-7.398-.904-2.416-1.96-4.796-3.359-6.972a169.25 169.25 0 0 1 2.157 7.359 306.614 306.614 0 0 1 1.883 7.395zm4.297-4.793c.84 1.484 1.638 2.988 2.444 4.494l2.378 4.598c-.161-1.754-.622-3.464-1.218-5.11-.589-1.653-1.348-3.236-2.185-4.771-.863-1.52-1.802-2.996-2.866-4.382-1.056-1.39-2.205-2.71-3.515-3.885.774 1.58 1.619 3.081 2.459 4.578.831 1.503 1.689 2.979 2.503 4.478zm-3.322 69.611c-1.527-7.883-2.631-15.856-3.723-23.835-1.064-7.983-2.122-15.976-3.291-23.957.545 8.048 1.184 16.085 2.038 24.108.836 8.023 1.876 16.039 3.383 23.99 1.608 7.931 3.227 15.797 4.944 23.679a928.393 928.393 0 0 0 5.39 23.578 937.106 937.106 0 0 0-4.147-23.831c-1.464-7.923-3.026-15.859-4.594-23.732zm-36.867-26.554 1.162-21.029a339.154 339.154 0 0 0-2.422 20.941c-.577 7.012-1.128 13.995-1.098 21.099.289 7.068.877 14.044 1.503 21.047a580.569 580.569 0 0 0 2.253 20.953 904.915 904.915 0 0 0-.989-21.046l-.607-10.509c-.202-3.497-.441-7.011-.538-10.482-.083-3.456.099-6.971.233-10.467.135-3.503.335-7.004.503-10.507z"/><path style="fill:#ffbda7" d="M216.997 188.461c-3.978 3.983-13.48 13.038-13.48 13.038s-5.145-5.519-7.308-7.9c-3.92-4.314-5.513-6.539-6.925-8.931-1.411-2.393-1.983-4.582-2.94-6.293-.831-1.487-2.012-2.808-3.09-4.121-1.137-1.385-2.316-2.737-3.446-4.129-.284-.35-.707-.183-1.01.085-.562.497-.796 1.291-.759 2.04.037.75.316 1.466.639 2.143.289.606.618 1.193.983 1.757.381.588 1.305 1.976.328 2.432-.709.331-2.091-.21-2.805-.388-3.967-.987-8.31-4.757-10.079-6.165-1.77-1.409-2.544-1.023-2.759.003-.072.342.185.922.603 1.595-.947-.828-1.867-1.378-2.64-1.167-.976.267-.293 1.617.052 2.182.424.691.897 1.5.897 1.5-.427.06-.716.738-.778.986-.066.264-.001.658.087.915.592 1.715 2.1 3.175 3.163 4.163-1.067-.581-1.447-.992-2.027-1.092-.406-.071-.774.053-.95.425-.209.442 1.08 2.047 1.406 2.411 2.645 2.952 2.705 2.79 4.753 3.946.969.546 2.814 1.425 3.878 1.75.879.268 2.37.753 3.723 1.093 3.451.868 6.317 2.938 7.034 4.168 9.101 15.626 13.122 24.067 19.738 25.842 3.646.978 7.3-1.37 12.665-6.035 6.454-5.611 16.706-16.974 16.706-16.974l4.155-21.2c-7.883.422-11.601 3.698-19.814 11.921z"/><path style="fill:#f0997a" d="M165.73 182.207c.912.647 1.82 1.243 2.801 1.733.957.532 1.978.947 2.958 1.49-1.098-.223-2.145-.624-3.15-1.127-.978-.541-1.926-1.199-2.609-2.096zM184.671 187.739c.021-.214.021-.43-.012-.643a4.14 4.14 0 0 0-.398-1.188 5.406 5.406 0 0 0-1.575-1.888c-1.421-1.071-3.53-1.411-5.173-.678-.046.021-.121.176-.028.174 1.698-.042 3.39.001 4.815 1.064 1.179.879 1.761 2.363 1.958 3.786.019.134.159.117.202.006.088-.227.186-.383.211-.633zM173.96 180.002c-1.607-.811-3.129-1.902-4.6-2.94-1.41-.995-2.753-2.097-4.102-3.17-.016-.013-.046.027-.034.041 1.231 1.432 2.649 2.61 4.201 3.685 1.429.989 2.95 1.674 4.513 2.415.014.007.036-.024.022-.031zM173.372 183.003c-1.607-.811-3.13-1.902-4.6-2.939a47.81 47.81 0 0 1-1.665-1.237c-.536-.415-1.096-.819-1.585-1.287l-.453-.434c-.194-.186-.362-.385-.589-.535a2.26 2.26 0 0 0-.762-.326c-.025-.006-.065.004-.057.029.326.128.615.336.87.576.17.16.327.334.478.512.137.161.281.296.429.446.457.465.939.906 1.439 1.326a26.688 26.688 0 0 0 1.96 1.486c1.429.99 2.95 1.674 4.513 2.415.014.006.036-.025.022-.032zM209.507 209.362c-1.441-4.117-3.706-6.165-5.99-7.862l1.38-1.318c4.171 4.188 4.383 6.651 4.61 9.18z"/><path style="fill:#263238" d="M255.79 170.856c-2.564 1.639-5.646 2.472-8.687 2.293-.253-.015-.511-.038-.745-.134-.479-.196-.785-.659-1.063-1.096a151.062 151.062 0 0 0-7.131-10.215c-2.367-3.109-5.061-5.993-6.923-9.448a8.856 8.856 0 0 1-1.062-4.557 8.795 8.795 0 0 1 2.1-5.315c.288-.336.75-.635.966-1.018.311-.551-.099-2.04-.001-2.775a8.105 8.105 0 0 1 .881-2.718c.87-1.637 2.299-2.997 4.052-3.638 1.075-.393 2.226-.541 3.31-.91 2.32-.79 3.933-2.773 6.147-3.653 1.989-.791 4.346-1.067 6.435-.558 2.422.59 3.875 2.999 6.379 3.136 1.277.07 2.555-.206 3.833-.137 3.179.174 6.067 2.746 6.606 5.884.215 1.255.09 2.543.2 3.811.11 1.268.515 2.604 1.523 3.383 1.008.779 2.725.686 3.328-.436.451 1.018.209 2.303-.582 3.087-.791.784-2.078 1.015-3.092.555.495 1.164.998 2.371.978 3.635-.038 2.343-1.926 4.338-4.1 5.211-1.221.49-2.554.709-3.697 1.359-1.878 1.068-2.37 3.105-3.466 4.811a68.618 68.618 0 0 0-2.989 5.127c-.728 1.384-1.02 2.726-2.292 3.684-.296.224-.598.434-.908.632z"/><path style="fill:#ffbda7" d="M262.026 177.042c-2.447-.548-2.759-1.1-2.927-3.288l-.188-2.18c2.831.038 5.164-.684 7.073-2.442 2.883-2.655 4.327-7.812 3.895-13.307-.286-3.649-1.275-5.334-1.245-6.159.18-4.907-.223-5.767-1.433-8.268-2.157-3.978-7.366-5.309-9.475-.921-6.516-4.807-13.403 1.926-12.929 9.473 1.03 6.211-.882 6.573-2.095 6.645-1.899-3.839-5.925-3.672-7.552-1.115-1.472 2.314-1.336 5.813 1.709 8.924 2.965 3.031 6.118.944 6.142.313 0 0 .407 6.614.517 8.289.11 1.675.049 3.038-.676 3.141 0 0-3.451 3.727-.992 8.721 7.167 2.473 20.214-6.614 20.176-7.826z"/><path style="fill:#263238" d="m266.237 147.393-3.683-.893a1.818 1.818 0 0 1 2.222-1.426c1.017.247 1.671 1.285 1.461 2.319zM250.296 148.685l3.472-1.637a1.842 1.842 0 0 0-2.495-.962c-.959.453-1.397 1.616-.977 2.599z"/><path style="fill:#b16668" d="m260.353 161.37-4.868-1.195c-.383 1.342.396 2.698 1.74 3.028 1.344.329 2.745-.491 3.128-1.833z"/><path style="fill:#f28f8f" d="M256.531 161.574a5.636 5.636 0 0 1 2.466 1.411 2.565 2.565 0 0 1-1.772.218 2.382 2.382 0 0 1-1.765-1.797c.356.023.713.071 1.071.168z"/><path style="fill:#263238" d="M262.696 151.003c-.002.846.691 1.551 1.547 1.577a1.492 1.492 0 0 0 1.553-1.487c.002-.847-.691-1.552-1.547-1.576a1.49 1.49 0 0 0-1.553 1.486zM251.584 152.072c-.002.864.705 1.584 1.579 1.609a1.523 1.523 0 0 0 1.585-1.518c.002-.864-.705-1.584-1.579-1.609a1.522 1.522 0 0 0-1.585 1.518z"/><path style="fill:#f0997a" d="M258.911 171.575c-6.035-.157-11.907-1.376-13.643-4.931 0 0 .214 3.253 3.792 4.856 5.165 2.315 10.003 1.832 10.003 1.832l-.152-1.757zM264.073 156.155l-5.372 2.432-1.471-10.306z"/><path style="fill:#ba68c8" d="M225.387 217.008c-.093-2.294-.089-3.693-.37-6.954 0 0-4.053-2.924-4.72-8.443-.535-4.419.586-7.925 6.664-14.587 5.456-5.98 9.928-10.482 9.928-10.482l6.033-.392s-2.325 4.708-.643 8.116c8.975-.674 16.671-4.538 19.826-7.223l9.463 1.093s5.926 7.058 5.211 17.489c-.3 4.387-2.316 9.864-3.915 15.62-1.548 5.576-3.146 10.995-.615 18.931 2.531 7.936 3.497 13.917 3.497 13.917s-13.039 6.857-33.679 4.69c-14.82-1.556-21.113-7.674-21.113-7.674l3.858-17.571c.416-1.935.668-4.236.575-6.53z"/><path style="opacity:.2" d="M259.104 207.983s-2.152 6.593-10.195 7.243c-7.357.594-10.968-5.284-10.968-5.284s1.243 8.385 11.193 7.299c9.935-1.085 9.97-9.258 9.97-9.258z"/><path style="fill:#ffbda7" d="M271.567 178.135s1.22.056 3.178.217c4.154.34 6.083 1.261 8.091 2.64 1.779 1.222 2.861 2.906 4.74 6.181 2.771 4.829 14.502 23.602 14.502 23.602s-3.703 15.909-8.582 14.181c-4.048-1.434-18.936-24.015-18.936-24.015-5.7-9.235-4.376-18.055-2.993-22.806z"/><path style="fill:#f0997a" d="M296 200.999c-3.554 3.831-5.335 7.956-5.164 13.506l9.312-6.827c-1.159-1.86-2.501-4.018-4.148-6.679zM324.669 182.788s.031-.468.817-.93c.787-.462 1.397-.629 2.281-1.128.884-.499 2.27-1.54 2.075-2.466-.195-.927-2.337-.534-3.939.101-1.603.634-2.549 1.006-4.786.696-2.237-.309-4.914-.24-6.472 1.688l10.024 2.039z"/><path style="fill:#ffbda7" d="M330.201 187.193c1.355-1.117 3.335-1.882 4.503-2.561 1.167-.679 2.06-1.501 3.074-2.525 1.014-1.023 2.459-2.091 2.434-2.597-.025-.507-.831-1.045-1.791-.602 0 0 .472-.877 1.011-1.682.538-.805 1.326-1.532 1.196-2.296-.13-.764-1.376-.63-2.043-.06-.667.57-1.027.946-1.027.946s-.599-.549-1.731.633c-.613.64-.856 1.128-1.15 1.612-.967.678-1.473.941-2.128 1.829-.88.723-1.66 1.247-2.29 2.049-.834.065-1.952-.156-3.216.39-1.263.546-1.474.872-3.61.06-1.439-.547-3.322-1.726-5.125-2.052-1.802-.326-3.558-.323-4.879 1.646-1.321 1.969-2.245 3.458-3.691 5.397-1.092 1.464-2.657 3.121-8.045 9.564-4.185 5.004-4.962 5.713-6.951 8.303-2.173 2.83-3.794 6.2-3.906 10.634-.141 5.543.797 8.557 3.156 9.28 5.002 1.533 11.067-4.814 12.691-8.029 1.624-3.216 6.361-15.274 8.095-19.442 1.718-4.132 3.924-7.325 4.96-7.761 1.752-.737 4.62-1.033 6.083-1.202 2.228-.258 2.292.082 4.38-1.534z"/><path style="fill:#f0997a" d="M314.645 180.748c-.861.632-1.298 1.612-1.919 2.465-.6.865-1.199 1.731-1.821 2.58-.626.846-1.239 1.701-1.884 2.533-.637.838-1.648 1.873-2.312 2.69.582-.878 1.548-1.945 2.153-2.806.597-.867 1.223-1.712 1.828-2.572l1.843-2.56.921-1.283a3.79 3.79 0 0 1 1.191-1.047zM338.42 178.909a8.326 8.326 0 0 0-1.111.901 16.69 16.69 0 0 0-.982 1.013l-.046.052-.092.023a5.424 5.424 0 0 0-.716.246 5.562 5.562 0 0 0-.682.352 4.77 4.77 0 0 0-1.165.982l-.083.096-.105-.005a3.888 3.888 0 0 0-.585.02c-.199.023-.4.048-.597.093-.197.045-.397.088-.591.158-.196.064-.384.149-.579.233.31-.287.684-.51 1.083-.675.201-.079.406-.151.619-.196.215-.047.421-.085.658-.097l-.188.091a4.274 4.274 0 0 1 1.25-1.161c.241-.154.5-.276.764-.382.267-.107.531-.186.832-.238l-.138.076c.354-.354.732-.66 1.139-.937.406-.273.847-.509 1.315-.645zM337.557 175.817a4.233 4.233 0 0 0-.386.719 5.18 5.18 0 0 0-.243.756l-.011.049-.064.05a6.373 6.373 0 0 0-1.189 1.211 4.484 4.484 0 0 0-.749 1.475l-.048.166-.17.031c-.28.052-.602.154-.895.269a8.047 8.047 0 0 0-.875.418c-.281.164-.562.335-.83.529-.276.185-.525.406-.792.617a5.966 5.966 0 0 1 1.409-1.477c.28-.202.577-.385.893-.534.32-.152.633-.277 1.012-.35l-.219.197c.086-.305.184-.61.341-.883.151-.276.319-.542.522-.777.201-.236.417-.458.652-.656.24-.195.48-.376.76-.529l-.075.099c.107-.277.238-.522.401-.756.157-.231.34-.449.556-.624zM328.717 183.028c-.566.241-1.199.304-1.81.266a5.739 5.739 0 0 1-1.778-.427c.307.008.608.047.906.076.299.027.594.062.891.079a13.71 13.71 0 0 0 1.791.006zM320.313 180.897c-1.133.115-2.192.362-3.115.902a5.9 5.9 0 0 0-1.269.971c-.384.382-.724.814-1.074 1.27a4.474 4.474 0 0 1 .753-1.55 4.358 4.358 0 0 1 1.318-1.164c1.031-.59 2.289-.749 3.387-.429z"/><path style="fill:#ba68c8" d="m180.701 124.413-33.947 19.581c-.692.399-1.254 1.371-1.254 2.17v31.468c0 .799.565 1.764 1.261 2.157l2.387 1.354c.696.393 1.821.387 2.514-.012l33.947-19.581c.692-.4 1.253-1.372 1.253-2.171v-31.466c0-.799-.564-1.765-1.26-2.158l-2.387-1.354c-.696-.393-1.822-.388-2.514.012z"/><path style="opacity:.2" d="M151.662 181.132c-.667.387-1.886.4-2.516.015l-2.385-1.359c-.695-.388-1.261-1.356-1.261-2.155v-31.468c0-.417.156-.874.399-1.279l4.879 2.823c-.231.388-.37.834-.37 1.233v31.464c.001.732.516 1.154 1.254.726z"/><g style="opacity:.2"><path style="fill:#fff" d="M186.845 127.686c-.098-.631-.613-.857-1.239-.498l-33.942 19.583c-.347.202-.66.544-.886.938l-4.885-2.823c.226-.376.527-.7.863-.891l33.948-19.583c.689-.399 1.812-.405 2.512-.012l2.385 1.353c.631.359 1.157 1.186 1.244 1.933z"/></g><path style="fill:#ba68c8" d="m185.609 127.19-33.947 19.581c-.692.4-1.253 1.371-1.253 2.171v31.467c0 .799.561 1.123 1.253.723l33.947-19.581c.692-.4 1.253-1.372 1.253-2.171v-31.466c0-.8-.561-1.124-1.253-.724z"/><path style="fill:#fff" d="M170.571 142.568c.171-.099.319-.101.443-.007s.186.255.186.482v12.742c0 1.284-.14 2.525-.419 3.723a14.262 14.262 0 0 1-1.259 3.399 13.109 13.109 0 0 1-2.098 2.936 12.754 12.754 0 0 1-2.913 2.288c-1.119.646-2.094 1.007-2.926 1.083-.831.076-1.526-.098-2.085-.521-.561-.423-.977-1.073-1.248-1.953-.272-.879-.407-1.961-.407-3.245v-12.742c0-.228.061-.459.186-.697.125-.238.272-.406.443-.505l1.888-1.09c.171-.099.319-.101.443-.007s.187.255.187.482v12.587c0 .85.085 1.525.256 2.027.171.503.412.855.723 1.059.311.205.684.269 1.119.193.435-.075.908-.261 1.422-.557a7.28 7.28 0 0 0 1.434-1.091 6.37 6.37 0 0 0 1.13-1.491 7.908 7.908 0 0 0 .734-1.9c.178-.704.268-1.48.268-2.33v-12.587c0-.227.063-.46.188-.698.124-.238.271-.406.441-.504l1.864-1.076zM175.349 161.563c-.172.099-.318.101-.443.007-.124-.093-.186-.255-.186-.482v-20.076c0-.228.061-.46.186-.697.125-.238.271-.406.443-.505l1.888-1.09c.171-.099.318-.101.443-.007.124.094.186.255.186.482v20.076c0 .228-.061.461-.186.697-.125.238-.272.406-.443.505l-1.888 1.09z"/><path style="fill:#ba68c8" d="m318.824 124.413 33.947 19.581c.692.399 1.254 1.371 1.254 2.17v31.468c0 .799-.565 1.764-1.261 2.157l-2.387 1.354c-.696.393-1.821.387-2.513-.012l-33.947-19.581c-.692-.4-1.253-1.372-1.253-2.171v-31.466c0-.799.564-1.765 1.26-2.158l2.387-1.354c.696-.393 1.821-.388 2.513.012z"/><path style="opacity:.2" d="M347.864 181.132c.667.387 1.886.4 2.515.015l2.385-1.359c.695-.388 1.261-1.356 1.261-2.155v-31.468c0-.417-.156-.874-.399-1.279l-4.879 2.823c.231.388.37.834.37 1.233v31.464c0 .732-.515 1.154-1.253.726z"/><g style="opacity:.2"><path style="fill:#fff" d="M312.68 127.686c.099-.631.613-.857 1.239-.498l33.942 19.583c.347.202.66.544.886.938l4.885-2.823c-.226-.376-.527-.7-.863-.891l-33.948-19.583c-.689-.399-1.812-.405-2.512-.012l-2.385 1.353c-.63.359-1.157 1.186-1.244 1.933z"/></g><path style="fill:#ba68c8" d="m313.917 127.19 33.947 19.581c.692.4 1.253 1.371 1.253 2.171v31.467c0 .799-.561 1.123-1.253.723l-33.947-19.581c-.692-.4-1.253-1.372-1.253-2.171v-31.466c0-.8.56-1.124 1.253-.724z"/><path style="fill:#fff" d="M329.191 143.185c.171.099.318.267.442.504.125.238.186.47.186.698v12.741c0 1.285-.14 2.364-.42 3.238-.278.876-.699 1.523-1.258 1.946-.56.423-1.259.594-2.098.514-.839-.08-1.81-.439-2.914-1.076a12.71 12.71 0 0 1-2.925-2.295 13.2 13.2 0 0 1-2.086-2.929 13.93 13.93 0 0 1-1.247-3.393 16.662 16.662 0 0 1-.408-3.716v-12.741c0-.228.063-.389.187-.483.124-.094.272-.092.443.007l1.888 1.09c.171.099.318.268.443.505.124.237.185.47.185.698v12.586c0 .85.086 1.624.256 2.323.171.7.412 1.331.724 1.894a6.404 6.404 0 0 0 1.119 1.485 7.1 7.1 0 0 0 1.421 1.085c.513.296.991.484 1.434.564.442.08.82.018 1.13-.187.312-.203.556-.554.734-1.052.179-.497.269-1.17.269-2.021v-12.586c0-.228.063-.388.186-.483.124-.094.272-.092.442.007l1.867 1.077zM343.898 173.43a1.626 1.626 0 0 1-.676-.701 19.859 19.859 0 0 1-.303-.641l-3.706-9.008-3.684 4.742a4.43 4.43 0 0 1-.303.291c-.14.127-.365.1-.676-.079l-1.958-1.13c-.171-.099-.318-.267-.442-.504a1.49 1.49 0 0 1-.187-.698.72.72 0 0 1 .069-.302l5.338-6.831-5.104-12.425a1.359 1.359 0 0 1-.07-.382c0-.228.063-.389.188-.483.124-.094.272-.092.442.007l1.957 1.13c.311.18.537.414.677.702s.24.502.303.641l3.52 8.589 3.496-4.538c.061-.068.163-.165.303-.292.141-.126.365-.1.677.08l1.958 1.13c.171.099.317.267.442.504a1.5 1.5 0 0 1 .186.698.68.68 0 0 1-.07.301l-5.151 6.628 5.291 12.844c.048.152.07.279.07.383 0 .228-.063.389-.187.483-.125.094-.272.091-.442-.007l-1.958-1.132z"/></svg>